<?xml version="1.0" encoding="UTF-8" standalone="no"?>
<!-- Generator: Adobe Illustrator 27.4.0, SVG Export Plug-In . SVG Version: 6.00 Build 0)  -->

<svg
   version="1.1"
   id="Layer_1"
   x="0px"
   y="0px"
   viewBox="0 0 69.143 69.143"
   style="enable-background:new 0 0 566.93 481.89;"
   xml:space="preserve"
   sodipodi:docname="H4X0R-small.svg"
   width="69.143mm"
   height="69.143mm"
   inkscape:version="1.2.2 (732a01da63, 2022-12-09)"
   xmlns:inkscape="http://www.inkscape.org/namespaces/inkscape"
   xmlns:sodipodi="http://sodipodi.sourceforge.net/DTD/sodipodi-0.dtd"
   xmlns="http://www.w3.org/2000/svg"
   xmlns:svg="http://www.w3.org/2000/svg"><defs
   id="defs17"><inkscape:path-effect
     effect="powermask"
     id="path-effect1306"
     is_visible="true"
     lpeversion="1"
     uri="#mask-powermask-path-effect1306"
     invert="false"
     hide_mask="false"
     background="true"
     background_color="#ffffffff" /><inkscape:path-effect
     effect="powermask"
     id="path-effect1292"
     is_visible="true"
     lpeversion="1"
     uri="#mask-powermask-path-effect1292"
     invert="false"
     hide_mask="false"
     background="true"
     background_color="#ffffffff" /><inkscape:path-effect
     effect="powermask"
     id="path-effect1264"
     is_visible="true"
     lpeversion="1"
     uri="#mask-powermask-path-effect1264"
     invert="false"
     hide_mask="false"
     background="true"
     background_color="#ffffffff" /><inkscape:path-effect
     effect="powermask"
     id="path-effect1254"
     is_visible="true"
     lpeversion="1"
     uri="#mask-powermask-path-effect1254"
     invert="false"
     hide_mask="false"
     background="true"
     background_color="#ffffffff" /><inkscape:path-effect
     effect="powermask"
     id="path-effect1097"
     is_visible="true"
     lpeversion="1"
     uri="#mask-powermask-path-effect1097"
     invert="false"
     hide_mask="false"
     background="true"
     background_color="#ffffffff" /><inkscape:path-effect
     effect="powermask"
     id="path-effect1083"
     is_visible="true"
     lpeversion="1"
     uri="#mask-powermask-path-effect1083"
     invert="false"
     hide_mask="false"
     background="true"
     background_color="#ffffffff" /><inkscape:path-effect
     effect="powermask"
     id="path-effect1069"
     is_visible="true"
     lpeversion="1"
     uri="#mask-powermask-path-effect1069"
     invert="false"
     hide_mask="false"
     background="true"
     background_color="#ffffffff" /><inkscape:path-effect
     effect="powermask"
     id="path-effect1035"
     is_visible="true"
     lpeversion="1"
     uri="#mask-powermask-path-effect1035"
     invert="false"
     hide_mask="false"
     background="true"
     background_color="#ffffffff" /><inkscape:path-effect
     effect="powermask"
     id="path-effect1025"
     is_visible="true"
     lpeversion="1"
     uri="#mask-powermask-path-effect1025"
     invert="false"
     hide_mask="false"
     background="true"
     background_color="#ffffffff" /><mask
     maskUnits="userSpaceOnUse"
     id="mask-powermask-path-effect1083"><text
       xml:space="preserve"
       style="font-style:normal;font-variant:normal;font-weight:normal;font-stretch:normal;font-size:8.46667px;font-family:'Maiandra GD';-inkscape-font-specification:'Maiandra GD, Normal';font-variant-ligatures:normal;font-variant-caps:normal;font-variant-numeric:normal;font-variant-east-asian:normal;text-align:center;text-anchor:middle;display:inline;fill:#000000;fill-opacity:1;stroke:#000000;stroke-width:0.26458;stroke-opacity:1"
       x="-17.80126"
       y="39.885456"
       id="text1081"
       transform="rotate(-50.270942)"><tspan
         sodipodi:role="line"
         id="tspan1079"
         style="font-style:normal;font-variant:normal;font-weight:normal;font-stretch:normal;font-size:8.46667px;font-family:'Maiandra GD';-inkscape-font-specification:'Maiandra GD, Normal';font-variant-ligatures:normal;font-variant-caps:normal;font-variant-numeric:normal;font-variant-east-asian:normal;fill:#000000;fill-opacity:1;stroke-width:0.26458"
         x="0"
         y="0">NILBINSEC</tspan></text></mask><mask
     maskUnits="userSpaceOnUse"
     id="mask-powermask-path-effect1292"><path
       id="mask-powermask-path-effect1292_box"
       style="fill:#ffffff;fill-opacity:1"
       d="M -1,-1 H 44.224367 V 70.148236 H -1 Z" /><text
       xml:space="preserve"
       style="font-style:normal;font-variant:normal;font-weight:bold;font-stretch:normal;font-size:9.87777px;font-family:'Comic Sans MS';-inkscape-font-specification:'Comic Sans MS, Bold';font-variant-ligatures:normal;font-variant-caps:normal;font-variant-numeric:normal;font-variant-east-asian:normal;text-align:center;text-anchor:middle;fill:#000000;fill-opacity:1;stroke:#000000;stroke-width:0.26458;stroke-opacity:1"
       x="-17.040262"
       y="40.80114"
       id="text1290"
       transform="rotate(-50.270942)"><tspan
         sodipodi:role="line"
         id="tspan1288"
         x="-17.040262"
         y="40.80114"
         style="fill:#000000;fill-opacity:1;stroke-width:0.26458">H4X0R</tspan></text></mask><filter
     id="mask-powermask-path-effect1292_inverse"
     inkscape:label="filtermask-powermask-path-effect1292"
     style="color-interpolation-filters:sRGB"
     height="100"
     width="100"
     x="-50"
     y="-50"><feColorMatrix
       id="mask-powermask-path-effect1292_primitive1"
       values="1"
       type="saturate"
       result="fbSourceGraphic" /><feColorMatrix
       id="mask-powermask-path-effect1292_primitive2"
       values="-1 0 0 0 1 0 -1 0 0 1 0 0 -1 0 1 0 0 0 1 0 "
       in="fbSourceGraphic" /></filter><mask
     maskUnits="userSpaceOnUse"
     id="mask-powermask-path-effect1306"><path
       id="mask-powermask-path-effect1306_box"
       style="fill:#ffffff;fill-opacity:1"
       d="M -1,-1 H 44.224367 V 70.148236 H -1 Z" /><text
       xml:space="preserve"
       style="font-style:normal;font-variant:normal;font-weight:bold;font-stretch:normal;font-size:9.87777px;font-family:'Comic Sans MS';-inkscape-font-specification:'Comic Sans MS, Bold';font-variant-ligatures:normal;font-variant-caps:normal;font-variant-numeric:normal;font-variant-east-asian:normal;text-align:center;text-anchor:middle;fill:#000000;fill-opacity:1;stroke:#000000;stroke-width:0.26458;stroke-opacity:1"
       x="-17.040262"
       y="40.80114"
       id="text1304"
       transform="rotate(-50.270942)"><tspan
         sodipodi:role="line"
         id="tspan1302"
         x="-17.040262"
         y="40.80114"
         style="fill:#000000;fill-opacity:1;stroke-width:0.26458">H4X0R</tspan></text></mask><filter
     id="mask-powermask-path-effect1306_inverse"
     inkscape:label="filtermask-powermask-path-effect1306"
     style="color-interpolation-filters:sRGB"
     height="100"
     width="100"
     x="-50"
     y="-50"><feColorMatrix
       id="mask-powermask-path-effect1306_primitive1"
       values="1"
       type="saturate"
       result="fbSourceGraphic" /><feColorMatrix
       id="mask-powermask-path-effect1306_primitive2"
       values="-1 0 0 0 1 0 -1 0 0 1 0 0 -1 0 1 0 0 0 1 0 "
       in="fbSourceGraphic" /></filter></defs><sodipodi:namedview
   id="namedview15"
   pagecolor="#ffffff"
   bordercolor="#000000"
   borderopacity="0.25"
   inkscape:showpageshadow="2"
   inkscape:pageopacity="0.0"
   inkscape:pagecheckerboard="0"
   inkscape:deskcolor="#d1d1d1"
   showgrid="false"
   inkscape:zoom="1.4142136"
   inkscape:cx="150.9673"
   inkscape:cy="127.27922"
   inkscape:window-width="1920"
   inkscape:window-height="1129"
   inkscape:window-x="-8"
   inkscape:window-y="-8"
   inkscape:window-maximized="1"
   inkscape:current-layer="g202"
   inkscape:document-units="mm" />
<style
   type="text/css"
   id="style2">
	.st0{fill:none;stroke:#ED1C24;stroke-width:0.7087;stroke-linecap:round;stroke-linejoin:round;stroke-miterlimit:10;}
	.st1{fill:none;stroke:#000000;stroke-width:0.7087;stroke-linecap:round;stroke-linejoin:round;stroke-miterlimit:10;}
</style>

<g
   inkscape:label="[fixed] BG"
   inkscape:groupmode="layer"
   sodipodi:insensitive="true"
   id="g190"><rect
     x="0"
     y="0"
     width="69.143"
     height="69.143"
     style="fill:#FFFFFF;fill-opacity:1;stroke:none"
     id="rect188" /></g><g
   inkscape:label="Edge.Cuts"
   inkscape:groupmode="layer"
   id="g192"><path
     class="st0"
     d="m 67.50821,1.8506023 -0.146834,-0.1301034 -0.135532,-0.091293 -0.133177,-0.064068 -0.140048,-0.048702 -0.24953,-0.049216 -0.243779,0.00123 -0.232711,0.047646 -0.216113,0.090349 -0.194205,0.1290811 -0.166614,0.1641931 -0.133718,0.1953542 -0.0953,0.2227601 -0.216313,0.6866017 -0.0526,0.1373615 -0.06783,0.1292681 -0.08291,0.1199267 -0.09772,0.1094537 -1.593381,1.6002107 -3.47805,3.5180515 -0.125331,0.110103 -0.185124,0.1147484 -0.152025,0.063403 -0.159237,0.042662 -0.05576,-0.1616238 -0.04922,-0.083669 -0.06801,-0.080298 -0.107616,-0.071895 -0.140403,-0.047346 -0.1516,-0.019899 -0.141491,0.010994 -0.699123,0.1365539 -0.15631,0.036701 -0.112692,0.055147 -0.07674,0.070095 -0.04902,0.08173 -0.02908,0.089716 -0.01711,0.094092 -0.03026,0.1884425 -16.782129,2.6280374 -1.971799,0.293762 -19.119414,3.2473 -0.178777,0.04417 -0.169545,0.07056 -0.156797,0.09549 -0.14068,0.119121 -15.4891082,15.050274 -0.1466747,0.172345 -0.1119218,0.193705 -0.074624,0.210444 -0.034648,0.222599 -0.122155,1.96338 -6.592e-4,0.141642 0.014968,0.137397 0.029859,0.132142 0.043692,0.126264 0.1254656,0.231373 0.1703088,0.197652 0.2081775,0.157187 0.2387513,0.110232 0.1286052,0.03548 0.1336562,0.02116 0.1377468,0.0061 0.1409046,-0.0098 14.7060553,-1.861917 10.503981,-1.330202 0.154794,-0.0098 0.152803,0.0096 0.149399,0.02854 0.143933,0.04676 0.137124,0.06433 0.12847,0.08108 0.118256,0.09742 0.106198,0.112911 2.222074,2.667882 0.110178,0.116001 0.122794,0.09937 0.13371,0.08218 0.142496,0.06416 0.149717,0.04533 0.154822,0.02589 0.158292,0.0056 0.159778,-0.0153 21.129573,-3.370616 0.0055,0.09282 0.02287,0.118783 0.05074,0.130968 0.08927,0.129792 0.102926,0.07864 0.137004,0.05575 0.150247,0.02853 0.142039,-0.0031 0.704905,-0.09756 0.165477,-0.02976 0.118585,-0.0527 0.08055,-0.07126 0.05174,-0.0852 0.05306,-0.19376 0.04612,-0.194703 1.216329,0.001 0.270618,2.44e-4 0.243958,0.04176 0.214172,0.07067 0.181682,0.08666 0.146205,0.08959 0.107956,0.07995 0.08985,0.07937 0.08049,0.127162 0.09397,0.11363 0.105616,0.09983 0.115916,0.08583 0.124374,0.07156 0.131347,0.05723 0.136694,0.04227 0.140551,0.02755 0.142569,0.01225 0.143243,-0.0031 0.142216,-0.01872 0.139422,-0.03453 0.135355,-0.05063 0.129445,-0.06686 0.121909,-0.08342 0.113026,-0.100188 2.012,-2.017152 0.118489,-0.138906 0.09674,-0.154034 0.07298,-0.166527 0.04724,-0.176039 4.409605,-26.5631793 0.02001,-0.1483013 0.0031,-0.1462348 L 68.137389,2.7882107 68.105441,2.6483004 68.055303,2.512583 67.986359,2.3815568 67.898316,2.256076 67.790478,2.136566 67.508224,1.8506915"
     id="path10"
     style="fill:#000000;fill-opacity:1;stroke:#000000;stroke-opacity:1" /><path
     class="st0"
     d="m 62.102429,16.124086 1.416553,-9.3249668 0.04646,-0.1248753 0.0881,-0.09358 0.117194,-0.053724 0.133629,-0.00545 0.0281,0.00539 0.12483,0.046451 0.09357,0.088123 0.0538,0.1171884 0.0055,0.1336022 -1.416561,9.3249732 -0.04656,0.124854 -0.08811,0.09358 -0.11709,0.05377 -0.13361,0.0055 -0.0281,-0.0054 -0.12415,-0.04727 -0.09358,-0.08796 -0.05425,-0.116725 -0.0057,-0.133396 v 0"
     id="path1460"
     style="fill:#000000;fill-opacity:1;stroke:#000000;stroke-width:0.18751;stroke-linecap:round;stroke-linejoin:round;stroke-miterlimit:10;stroke-opacity:1" /><path
     class="st0"
     d="m 63.732491,16.197237 1.854156,-11.5581248 0.04646,-0.1248853 0.08817,-0.093499 0.117122,-0.053795 0.133637,-0.00545 0.0281,0.00539 0.12482,0.046471 0.09356,0.088132 0.0538,0.1171874 0.0055,0.1335883 -1.854177,11.5581463 -0.04653,0.12477 -0.08811,0.09358 -0.117157,0.05383 -0.13361,0.0055 -0.0281,-0.0054 -0.125046,-0.04683 -0.09408,-0.0886 -0.05383,-0.117156 -0.0047,-0.132837 v 0"
     id="path1462"
     style="fill:#000000;fill-opacity:1;stroke:#000000;stroke-width:0.18751;stroke-linecap:round;stroke-linejoin:round;stroke-miterlimit:10;stroke-opacity:1" /></g><g
   inkscape:label="B.Cu"
   inkscape:groupmode="layer"
   id="g194" /><g
   inkscape:label="B.Mask"
   inkscape:groupmode="layer"
   id="g196" /><g
   inkscape:label="B.SilkS"
   inkscape:groupmode="layer"
   id="g198"><text
     xml:space="preserve"
     style="font-style:normal;font-variant:normal;font-weight:normal;font-stretch:normal;font-size:4.23333px;font-family:Rockwell;-inkscape-font-specification:'Rockwell, Normal';font-variant-ligatures:normal;font-variant-caps:normal;font-variant-numeric:normal;font-variant-east-asian:normal;text-align:center;text-anchor:middle;fill:#000000;fill-opacity:1;stroke:#000000;stroke-width:0.264583;stroke-opacity:1"
     x="-31.402313"
     y="26.215918"
     id="text1107"
     transform="matrix(-0.98692468,0.16118214,0.16118214,0.98692468,0,0)"><tspan
       sodipodi:role="line"
       id="tspan1244"
       x="-31.402313"
       y="26.215918">DEFCON31</tspan><tspan
       sodipodi:role="line"
       id="tspan1246"
       x="-31.402313"
       y="31.50758"> 10 - 13 August 2023</tspan></text></g><g
   inkscape:label="F.Cu"
   inkscape:groupmode="layer"
   id="g200"><path
     class="st0"
     d="m 25.732493,0.35435 c -0.29158,0 -0.449191,0.0577672 -0.630443,0.15235862 -0.617309,0.32572982 -0.827457,1.06123988 -0.527996,1.64703148 l 0.328355,0.6409483 c 0.08931,0.1760015 0.136597,0.367755 0.13397,0.5647691 -0.0026,0.7539121 -0.0078,1.505184 -0.01051,2.2590862 -0.0026,0.4308027 -0.0053,4.5155513 -0.0053,4.9489843 0,0.09191 -0.01051,0.225908 -0.06305,0.378266 -0.03414,0.105073 -0.08669,0.202265 -0.147103,0.294206 -0.08668,-0.05519 -0.204894,-0.110333 -0.351997,-0.110333 -0.157611,0 -0.378266,0.141847 -0.475459,0.288955 l -0.401907,0.588412 c -0.294207,0.388777 -0.03152,0.556888 0.09719,0.769664 L 13.572811,26.43892 12.37497,28.033415 1.0401307,43.778729 C 0.895653,43.978373 0.814223,44.220043 0.8115928,44.466963 L 0.35451687,66.067514 c -0.00496,0.304707 0.099822,0.598913 0.29946663,0.827451 l 1.292408,1.484172 c 0.5043517,0.5779 1.4079921,0.554257 1.88082,-0.04725 l 9.1650665,-11.657932 6.546098,-8.327098 c 0.257431,-0.32836 0.664593,-0.501731 1.079633,-0.459706 l 3.456929,0.338871 c 0.428176,0.04199 0.848472,-0.144478 1.103275,-0.49385 L 37.857996,30.486934 c 0.07093,0.07097 0.228535,0.204895 0.451818,0.218027 0.15761,0.01052 0.386146,-0.118205 0.49122,-0.260062 l 0.433429,-0.564769 c 0.333609,-0.391398 0.03414,-0.57265 -0.07355,-0.809069 l 0.866859,-0.853724 c 0.49122,-0.577901 1.208348,-0.562139 1.208348,-0.562139 0.780173,0.233788 1.61551,-0.386147 1.618137,-1.203097 l 0.01576,-2.850129 c 0,-0.2443 -0.07093,-0.485969 -0.207521,-0.688234 L 27.14047,0.89814619 C 26.914561,0.56190512 26.575698,0.35964037 26.134388,0.35964037 Z"
     id="path335"
     style="display:inline;fill:#000000;fill-opacity:1;stroke:#000000;stroke-opacity:1"
     mask="url(#mask-powermask-path-effect1306)"
     inkscape:path-effect="#path-effect1306"
     inkscape:original-d="m 25.732493,0.35435 c -0.29158,0 -0.449191,0.0577672 -0.630443,0.15235862 -0.617309,0.32572982 -0.827457,1.06123988 -0.527996,1.64703148 l 0.328355,0.6409483 c 0.08931,0.1760015 0.136597,0.367755 0.13397,0.5647691 -0.0026,0.7539121 -0.0078,1.505184 -0.01051,2.2590862 -0.0026,0.4308027 -0.0053,4.5155513 -0.0053,4.9489843 0,0.09191 -0.01051,0.225908 -0.06305,0.378266 -0.03414,0.105073 -0.08669,0.202265 -0.147103,0.294206 -0.08668,-0.05519 -0.204894,-0.110333 -0.351997,-0.110333 -0.157611,0 -0.378266,0.141847 -0.475459,0.288955 l -0.401907,0.588412 c -0.294207,0.388777 -0.03152,0.556888 0.09719,0.769664 L 13.572811,26.43892 12.37497,28.033415 1.0401307,43.778729 C 0.895653,43.978373 0.814223,44.220043 0.8115928,44.466963 L 0.35451687,66.067514 c -0.00496,0.304707 0.099822,0.598913 0.29946663,0.827451 l 1.292408,1.484172 c 0.5043517,0.5779 1.4079921,0.554257 1.88082,-0.04725 l 9.1650665,-11.657932 6.546098,-8.327098 c 0.257431,-0.32836 0.664593,-0.501731 1.079633,-0.459706 l 3.456929,0.338871 c 0.428176,0.04199 0.848472,-0.144478 1.103275,-0.49385 L 37.857996,30.486934 c 0.07093,0.07097 0.228535,0.204895 0.451818,0.218027 0.15761,0.01052 0.386146,-0.118205 0.49122,-0.260062 l 0.433429,-0.564769 c 0.333609,-0.391398 0.03414,-0.57265 -0.07355,-0.809069 l 0.866859,-0.853724 c 0.49122,-0.577901 1.208348,-0.562139 1.208348,-0.562139 0.780173,0.233788 1.61551,-0.386147 1.618137,-1.203097 l 0.01576,-2.850129 c 0,-0.2443 -0.07093,-0.485969 -0.207521,-0.688234 L 27.14047,0.89814619 C 26.914561,0.56190512 26.575698,0.35964037 26.134388,0.35964037 Z"
     transform="matrix(0.71165165,0.70205411,-0.70205411,0.71165165,49.445427,-16.466144)" /></g><g
   inkscape:label="F.Mask"
   inkscape:groupmode="layer"
   id="g202"><path
     class="st0"
     d="m 25.732493,0.35435 c -0.29158,0 -0.449191,0.0577672 -0.630443,0.15235862 -0.617309,0.32572982 -0.827457,1.06123988 -0.527996,1.64703148 l 0.328355,0.6409483 c 0.08931,0.1760015 0.136597,0.367755 0.13397,0.5647691 -0.0026,0.7539121 -0.0078,1.505184 -0.01051,2.2590862 -0.0026,0.4308027 -0.0053,4.5155513 -0.0053,4.9489843 0,0.09191 -0.01051,0.225908 -0.06305,0.378266 -0.03414,0.105073 -0.08669,0.202265 -0.147103,0.294206 -0.08668,-0.05519 -0.204894,-0.110333 -0.351997,-0.110333 -0.157611,0 -0.378266,0.141847 -0.475459,0.288955 l -0.401907,0.588412 c -0.294207,0.388777 -0.03152,0.556888 0.09719,0.769664 L 13.572811,26.43892 12.37497,28.033415 1.0401307,43.778729 C 0.895653,43.978373 0.814223,44.220043 0.8115928,44.466963 L 0.35451687,66.067514 c -0.00496,0.304707 0.099822,0.598913 0.29946663,0.827451 l 1.292408,1.484172 c 0.5043517,0.5779 1.4079921,0.554257 1.88082,-0.04725 l 9.1650665,-11.657932 6.546098,-8.327098 c 0.257431,-0.32836 0.664593,-0.501731 1.079633,-0.459706 l 3.456929,0.338871 c 0.428176,0.04199 0.848472,-0.144478 1.103275,-0.49385 L 37.857996,30.486934 c 0.07093,0.07097 0.228535,0.204895 0.451818,0.218027 0.15761,0.01052 0.386146,-0.118205 0.49122,-0.260062 l 0.433429,-0.564769 c 0.333609,-0.391398 0.03414,-0.57265 -0.07355,-0.809069 l 0.866859,-0.853724 c 0.49122,-0.577901 1.208348,-0.562139 1.208348,-0.562139 0.780173,0.233788 1.61551,-0.386147 1.618137,-1.203097 l 0.01576,-2.850129 c 0,-0.2443 -0.07093,-0.485969 -0.207521,-0.688234 L 27.14047,0.89814619 C 26.914561,0.56190512 26.575698,0.35964037 26.134388,0.35964037 Z"
     id="path1260"
     style="display:inline;fill:#000000;fill-opacity:1;stroke:#000000;stroke-opacity:1"
     mask="url(#mask-powermask-path-effect1292)"
     inkscape:path-effect="#path-effect1292"
     inkscape:original-d="m 25.732493,0.35435 c -0.29158,0 -0.449191,0.0577672 -0.630443,0.15235862 -0.617309,0.32572982 -0.827457,1.06123988 -0.527996,1.64703148 l 0.328355,0.6409483 c 0.08931,0.1760015 0.136597,0.367755 0.13397,0.5647691 -0.0026,0.7539121 -0.0078,1.505184 -0.01051,2.2590862 -0.0026,0.4308027 -0.0053,4.5155513 -0.0053,4.9489843 0,0.09191 -0.01051,0.225908 -0.06305,0.378266 -0.03414,0.105073 -0.08669,0.202265 -0.147103,0.294206 -0.08668,-0.05519 -0.204894,-0.110333 -0.351997,-0.110333 -0.157611,0 -0.378266,0.141847 -0.475459,0.288955 l -0.401907,0.588412 c -0.294207,0.388777 -0.03152,0.556888 0.09719,0.769664 L 13.572811,26.43892 12.37497,28.033415 1.0401307,43.778729 C 0.895653,43.978373 0.814223,44.220043 0.8115928,44.466963 L 0.35451687,66.067514 c -0.00496,0.304707 0.099822,0.598913 0.29946663,0.827451 l 1.292408,1.484172 c 0.5043517,0.5779 1.4079921,0.554257 1.88082,-0.04725 l 9.1650665,-11.657932 6.546098,-8.327098 c 0.257431,-0.32836 0.664593,-0.501731 1.079633,-0.459706 l 3.456929,0.338871 c 0.428176,0.04199 0.848472,-0.144478 1.103275,-0.49385 L 37.857996,30.486934 c 0.07093,0.07097 0.228535,0.204895 0.451818,0.218027 0.15761,0.01052 0.386146,-0.118205 0.49122,-0.260062 l 0.433429,-0.564769 c 0.333609,-0.391398 0.03414,-0.57265 -0.07355,-0.809069 l 0.866859,-0.853724 c 0.49122,-0.577901 1.208348,-0.562139 1.208348,-0.562139 0.780173,0.233788 1.61551,-0.386147 1.618137,-1.203097 l 0.01576,-2.850129 c 0,-0.2443 -0.07093,-0.485969 -0.207521,-0.688234 L 27.14047,0.89814619 C 26.914561,0.56190512 26.575698,0.35964037 26.134388,0.35964037 Z"
     transform="matrix(0.71165165,0.70205411,-0.70205411,0.71165165,49.4572,-16.454531)" /></g><g
   inkscape:label="F.SilkS"
   inkscape:groupmode="layer"
   id="g204" /><g
   inkscape:label="Dwgs.User"
   inkscape:groupmode="layer"
   id="g206" /><g
   inkscape:label="Drill"
   inkscape:groupmode="layer"
   id="g208" /></svg>
