%TF.GenerationSoftware,KiCad,Pcbnew,(7.0.0)*%
%TF.CreationDate,2023-05-30T19:56:16-04:00*%
%TF.ProjectId,DC31BADGE-CARD-OUTLINE,44433331-4241-4444-9745-2d434152442d,rev?*%
%TF.SameCoordinates,Original*%
%TF.FileFunction,Profile,NP*%
%FSLAX46Y46*%
G04 Gerber Fmt 4.6, Leading zero omitted, Abs format (unit mm)*
G04 Created by KiCad (PCBNEW (7.0.0)) date 2023-05-30 19:56:16*
%MOMM*%
%LPD*%
G01*
G04 APERTURE LIST*
%TA.AperFunction,Profile*%
%ADD10C,0.100000*%
%TD*%
G04 APERTURE END LIST*
D10*
X58634400Y-11844800D02*
X58438400Y-11855304D01*
X58438400Y-11855304D02*
X58277800Y-11885508D01*
X58277800Y-11885508D02*
X58137900Y-11933447D01*
X58137900Y-11933447D02*
X58004000Y-11997159D01*
X58004000Y-11997159D02*
X57791700Y-12137423D01*
X57791700Y-12137423D02*
X57618900Y-12309548D01*
X57618900Y-12309548D02*
X57486700Y-12506980D01*
X57486700Y-12506980D02*
X57396200Y-12723150D01*
X57396200Y-12723150D02*
X57348600Y-12951520D01*
X57348600Y-12951520D02*
X57345300Y-13185520D01*
X57345300Y-13185520D02*
X57387300Y-13418590D01*
X57387300Y-13418590D02*
X57476000Y-13644190D01*
X57476000Y-13644190D02*
X57804300Y-14285140D01*
X57804300Y-14285140D02*
X57863300Y-14419930D01*
X57863300Y-14419930D02*
X57905800Y-14559640D01*
X57905800Y-14559640D02*
X57931000Y-14703300D01*
X57931000Y-14703300D02*
X57938300Y-14849910D01*
X57938300Y-14849910D02*
X57927800Y-17108990D01*
X57927800Y-17108990D02*
X57922500Y-22057950D01*
X57922500Y-22057950D02*
X57910600Y-22224450D01*
X57910600Y-22224450D02*
X57859400Y-22436250D01*
X57859400Y-22436250D02*
X57795700Y-22588250D01*
X57795700Y-22588250D02*
X57712300Y-22730450D01*
X57712300Y-22730450D02*
X57559000Y-22654550D01*
X57559000Y-22654550D02*
X57465200Y-22629550D01*
X57465200Y-22629550D02*
X57360300Y-22620150D01*
X57360300Y-22620150D02*
X57233200Y-22644550D01*
X57233200Y-22644550D02*
X57099900Y-22709450D01*
X57099900Y-22709450D02*
X56978000Y-22801850D01*
X56978000Y-22801850D02*
X56884900Y-22909050D01*
X56884900Y-22909050D02*
X56483000Y-23497450D01*
X56483000Y-23497450D02*
X56397400Y-23633450D01*
X56397400Y-23633450D02*
X56355900Y-23751850D01*
X56355900Y-23751850D02*
X56350500Y-23855750D01*
X56350500Y-23855750D02*
X56373000Y-23948350D01*
X56373000Y-23948350D02*
X56415300Y-24032650D01*
X56415300Y-24032650D02*
X56469300Y-24111750D01*
X56469300Y-24111750D02*
X56580100Y-24267150D01*
X56580100Y-24267150D02*
X46474700Y-37929350D01*
X46474700Y-37929350D02*
X45276900Y-39523850D01*
X45276900Y-39523850D02*
X33942030Y-55269150D01*
X33942030Y-55269150D02*
X33845740Y-55426250D01*
X33845740Y-55426250D02*
X33774569Y-55595550D01*
X33774569Y-55595550D02*
X33729994Y-55773750D01*
X33729994Y-55773750D02*
X33713493Y-55957450D01*
X33713493Y-55957450D02*
X33256417Y-77557950D01*
X33256417Y-77557950D02*
X33273041Y-77783650D01*
X33273041Y-77783650D02*
X33329423Y-78000250D01*
X33329423Y-78000250D02*
X33424169Y-78202550D01*
X33424169Y-78202550D02*
X33555884Y-78385450D01*
X33555884Y-78385450D02*
X34848290Y-79869550D01*
X34848290Y-79869550D02*
X34947330Y-79970850D01*
X34947330Y-79970850D02*
X35054520Y-80058150D01*
X35054520Y-80058150D02*
X35168630Y-80131350D01*
X35168630Y-80131350D02*
X35288450Y-80190550D01*
X35288450Y-80190550D02*
X35540360Y-80267150D01*
X35540360Y-80267150D02*
X35800520Y-80288250D01*
X35800520Y-80288250D02*
X36059210Y-80253950D01*
X36059210Y-80253950D02*
X36306680Y-80164750D01*
X36306680Y-80164750D02*
X36423180Y-80099550D01*
X36423180Y-80099550D02*
X36533230Y-80020750D01*
X36533230Y-80020750D02*
X36635610Y-79928350D01*
X36635610Y-79928350D02*
X36729110Y-79822350D01*
X36729110Y-79822350D02*
X45894200Y-68164450D01*
X45894200Y-68164450D02*
X52440300Y-59837350D01*
X52440300Y-59837350D02*
X52543600Y-59721550D01*
X52543600Y-59721550D02*
X52659200Y-59621050D01*
X52659200Y-59621050D02*
X52785600Y-59536450D01*
X52785600Y-59536450D02*
X52921000Y-59468550D01*
X52921000Y-59468550D02*
X53063800Y-59418050D01*
X53063800Y-59418050D02*
X53212300Y-59385550D01*
X53212300Y-59385550D02*
X53364900Y-59371850D01*
X53364900Y-59371850D02*
X53519900Y-59377650D01*
X53519900Y-59377650D02*
X56976800Y-59716450D01*
X56976800Y-59716450D02*
X57136700Y-59721650D01*
X57136700Y-59721650D02*
X57294000Y-59706150D01*
X57294000Y-59706150D02*
X57446900Y-59670750D01*
X57446900Y-59670750D02*
X57593500Y-59616350D01*
X57593500Y-59616350D02*
X57732000Y-59543450D01*
X57732000Y-59543450D02*
X57860400Y-59453050D01*
X57860400Y-59453050D02*
X57977100Y-59345850D01*
X57977100Y-59345850D02*
X58080100Y-59222650D01*
X58080100Y-59222650D02*
X70759900Y-41977350D01*
X70759900Y-41977350D02*
X70829000Y-42039550D01*
X70829000Y-42039550D02*
X70928700Y-42108050D01*
X70928700Y-42108050D02*
X71056900Y-42165750D01*
X71056900Y-42165750D02*
X71211700Y-42195450D01*
X71211700Y-42195450D02*
X71340200Y-42179150D01*
X71340200Y-42179150D02*
X71477000Y-42122550D01*
X71477000Y-42122550D02*
X71604000Y-42037350D01*
X71604000Y-42037350D02*
X71702900Y-41935350D01*
X71702900Y-41935350D02*
X72136400Y-41370550D01*
X72136400Y-41370550D02*
X72233400Y-41233150D01*
X72233400Y-41233150D02*
X72280800Y-41112250D01*
X72280800Y-41112250D02*
X72288100Y-41004950D01*
X72288100Y-41004950D02*
X72265100Y-40907950D01*
X72265100Y-40907950D02*
X72166700Y-40732650D01*
X72166700Y-40732650D02*
X72062800Y-40561550D01*
X72062800Y-40561550D02*
X72929700Y-39707750D01*
X72929700Y-39707750D02*
X73122600Y-39517750D01*
X73122600Y-39517750D02*
X73325700Y-39376150D01*
X73325700Y-39376150D02*
X73527900Y-39275950D01*
X73527900Y-39275950D02*
X73718100Y-39210050D01*
X73718100Y-39210050D02*
X73885200Y-39171150D01*
X73885200Y-39171150D02*
X74018300Y-39152250D01*
X74018300Y-39152250D02*
X74138000Y-39145650D01*
X74138000Y-39145650D02*
X74284700Y-39179650D01*
X74284700Y-39179650D02*
X74431400Y-39194550D01*
X74431400Y-39194550D02*
X74576800Y-39191450D01*
X74576800Y-39191450D02*
X74719600Y-39171150D01*
X74719600Y-39171150D02*
X74858500Y-39134750D01*
X74858500Y-39134750D02*
X74992200Y-39083150D01*
X74992200Y-39083150D02*
X75119300Y-39017250D01*
X75119300Y-39017250D02*
X75238700Y-38938150D01*
X75238700Y-38938150D02*
X75348900Y-38846650D01*
X75348900Y-38846650D02*
X75448700Y-38743850D01*
X75448700Y-38743850D02*
X75536800Y-38630650D01*
X75536800Y-38630650D02*
X75611900Y-38508050D01*
X75611900Y-38508050D02*
X75672700Y-38376950D01*
X75672700Y-38376950D02*
X75717900Y-38238350D01*
X75717900Y-38238350D02*
X75746100Y-38093250D01*
X75746100Y-38093250D02*
X75756200Y-37942550D01*
X75756200Y-37942550D02*
X75771900Y-35092450D01*
X75771900Y-35092450D02*
X75758700Y-34910250D01*
X75758700Y-34910250D02*
X75719400Y-34732550D01*
X75719400Y-34732550D02*
X75654400Y-34562750D01*
X75654400Y-34562750D02*
X75564400Y-34404150D01*
X75564400Y-34404150D02*
X60042400Y-12388596D01*
X60042400Y-12388596D02*
X59952400Y-12268919D01*
X59952400Y-12268919D02*
X59851900Y-12162603D01*
X59851900Y-12162603D02*
X59741100Y-12070447D01*
X59741100Y-12070447D02*
X59620100Y-11993253D01*
X59620100Y-11993253D02*
X59489000Y-11931820D01*
X59489000Y-11931820D02*
X59347900Y-11886948D01*
X59347900Y-11886948D02*
X59197000Y-11859438D01*
X59197000Y-11859438D02*
X59036300Y-11850090D01*
X59036300Y-11850090D02*
X58634400Y-11844800D01*
X58634400Y-11844800D02*
X58634400Y-11844800D01*
M02*
