%TF.GenerationSoftware,KiCad,Pcbnew,(7.0.0)*%
%TF.CreationDate,2023-05-30T19:58:01-04:00*%
%TF.ProjectId,DC31H4X0R,44433331-4834-4583-9052-2e6b69636164,rev?*%
%TF.SameCoordinates,Original*%
%TF.FileFunction,Copper,L2,Bot*%
%TF.FilePolarity,Positive*%
%FSLAX46Y46*%
G04 Gerber Fmt 4.6, Leading zero omitted, Abs format (unit mm)*
G04 Created by KiCad (PCBNEW (7.0.0)) date 2023-05-30 19:58:01*
%MOMM*%
%LPD*%
G01*
G04 APERTURE LIST*
%ADD10C,0.300000*%
%TA.AperFunction,NonConductor*%
%ADD11C,0.300000*%
%TD*%
G04 APERTURE END LIST*
D10*
D11*
X70906598Y-31060064D02*
X71090252Y-30841194D01*
X71090252Y-30841194D02*
X71236796Y-30777673D01*
X71236796Y-30777673D02*
X71337427Y-30768869D01*
X71337427Y-30768869D02*
X71593406Y-30797174D01*
X71593406Y-30797174D02*
X71858190Y-30926110D01*
X71858190Y-30926110D02*
X72295929Y-31293417D01*
X72295929Y-31293417D02*
X72359451Y-31439962D01*
X72359451Y-31439962D02*
X72368255Y-31540593D01*
X72368255Y-31540593D02*
X72331146Y-31695941D01*
X72331146Y-31695941D02*
X72147492Y-31914811D01*
X72147492Y-31914811D02*
X72000948Y-31978332D01*
X72000948Y-31978332D02*
X71900317Y-31987136D01*
X71900317Y-31987136D02*
X71744968Y-31950027D01*
X71744968Y-31950027D02*
X71471381Y-31720460D01*
X71471381Y-31720460D02*
X71407860Y-31573916D01*
X71407860Y-31573916D02*
X71399056Y-31473285D01*
X71399056Y-31473285D02*
X71436165Y-31317937D01*
X71436165Y-31317937D02*
X71619819Y-31099067D01*
X71619819Y-31099067D02*
X71766363Y-31035545D01*
X71766363Y-31035545D02*
X71866994Y-31026741D01*
X71866994Y-31026741D02*
X72022342Y-31063850D01*
X70756268Y-32239329D02*
X70793378Y-32083981D01*
X70793378Y-32083981D02*
X70784574Y-31983350D01*
X70784574Y-31983350D02*
X70721052Y-31836806D01*
X70721052Y-31836806D02*
X70666335Y-31790892D01*
X70666335Y-31790892D02*
X70510986Y-31753783D01*
X70510986Y-31753783D02*
X70410355Y-31762587D01*
X70410355Y-31762587D02*
X70263811Y-31826108D01*
X70263811Y-31826108D02*
X70080157Y-32044978D01*
X70080157Y-32044978D02*
X70043048Y-32200327D01*
X70043048Y-32200327D02*
X70051852Y-32300957D01*
X70051852Y-32300957D02*
X70115374Y-32447502D01*
X70115374Y-32447502D02*
X70170091Y-32493415D01*
X70170091Y-32493415D02*
X70325440Y-32530524D01*
X70325440Y-32530524D02*
X70426070Y-32521720D01*
X70426070Y-32521720D02*
X70572615Y-32458199D01*
X70572615Y-32458199D02*
X70756268Y-32239329D01*
X70756268Y-32239329D02*
X70902813Y-32175807D01*
X70902813Y-32175807D02*
X71003443Y-32167003D01*
X71003443Y-32167003D02*
X71158792Y-32204113D01*
X71158792Y-32204113D02*
X71377662Y-32387766D01*
X71377662Y-32387766D02*
X71441183Y-32534311D01*
X71441183Y-32534311D02*
X71449987Y-32634941D01*
X71449987Y-32634941D02*
X71412878Y-32790290D01*
X71412878Y-32790290D02*
X71229224Y-33009160D01*
X71229224Y-33009160D02*
X71082680Y-33072681D01*
X71082680Y-33072681D02*
X70982049Y-33081485D01*
X70982049Y-33081485D02*
X70826701Y-33044376D01*
X70826701Y-33044376D02*
X70607831Y-32860722D01*
X70607831Y-32860722D02*
X70544309Y-32714178D01*
X70544309Y-32714178D02*
X70535505Y-32613547D01*
X70535505Y-32613547D02*
X70572615Y-32458199D01*
X69575110Y-32646870D02*
X68932323Y-33412914D01*
X68932323Y-33412914D02*
X70494610Y-33884639D01*
X68534817Y-34664505D02*
X69300862Y-35307292D01*
X68326645Y-34023610D02*
X69376974Y-34438724D01*
X69376974Y-34438724D02*
X68780099Y-35150051D01*
X67738575Y-34835568D02*
X67095787Y-35601612D01*
X67095787Y-35601612D02*
X68658075Y-36073336D01*
X66698282Y-36853202D02*
X67464326Y-37495990D01*
X66490109Y-36212308D02*
X67540438Y-36627422D01*
X67540438Y-36627422D02*
X66943564Y-37338749D01*
X65902039Y-37024265D02*
X65259252Y-37790310D01*
X65259252Y-37790310D02*
X66821539Y-38262034D01*
X64708291Y-38446919D02*
X64616464Y-38556354D01*
X64616464Y-38556354D02*
X64579355Y-38711702D01*
X64579355Y-38711702D02*
X64588159Y-38812333D01*
X64588159Y-38812333D02*
X64651681Y-38958877D01*
X64651681Y-38958877D02*
X64824637Y-39197249D01*
X64824637Y-39197249D02*
X65098224Y-39426816D01*
X65098224Y-39426816D02*
X65363008Y-39555752D01*
X65363008Y-39555752D02*
X65518356Y-39592861D01*
X65518356Y-39592861D02*
X65618987Y-39584057D01*
X65618987Y-39584057D02*
X65765531Y-39520535D01*
X65765531Y-39520535D02*
X65857358Y-39411101D01*
X65857358Y-39411101D02*
X65894467Y-39255752D01*
X65894467Y-39255752D02*
X65885663Y-39155121D01*
X65885663Y-39155121D02*
X65822142Y-39008577D01*
X65822142Y-39008577D02*
X65649185Y-38770206D01*
X65649185Y-38770206D02*
X65375598Y-38540639D01*
X65375598Y-38540639D02*
X65110815Y-38411703D01*
X65110815Y-38411703D02*
X64955466Y-38374594D01*
X64955466Y-38374594D02*
X64854836Y-38383398D01*
X64854836Y-38383398D02*
X64708291Y-38446919D01*
X64065504Y-39212963D02*
X63422716Y-39979008D01*
X63422716Y-39979008D02*
X64985004Y-40450732D01*
X63147236Y-40307312D02*
X62550362Y-41018639D01*
X62550362Y-41018639D02*
X63309495Y-41002924D01*
X63309495Y-41002924D02*
X63171755Y-41167076D01*
X63171755Y-41167076D02*
X63134646Y-41322425D01*
X63134646Y-41322425D02*
X63143450Y-41423056D01*
X63143450Y-41423056D02*
X63206972Y-41569600D01*
X63206972Y-41569600D02*
X63480559Y-41799167D01*
X63480559Y-41799167D02*
X63635907Y-41836276D01*
X63635907Y-41836276D02*
X63736538Y-41827472D01*
X63736538Y-41827472D02*
X63883082Y-41763951D01*
X63883082Y-41763951D02*
X64158563Y-41435646D01*
X64158563Y-41435646D02*
X64195672Y-41280298D01*
X64195672Y-41280298D02*
X64186868Y-41179667D01*
X62228968Y-41401661D02*
X61632094Y-42112988D01*
X61632094Y-42112988D02*
X62391228Y-42097273D01*
X62391228Y-42097273D02*
X62253488Y-42261425D01*
X62253488Y-42261425D02*
X62216378Y-42416774D01*
X62216378Y-42416774D02*
X62225182Y-42517405D01*
X62225182Y-42517405D02*
X62288704Y-42663949D01*
X62288704Y-42663949D02*
X62562291Y-42893516D01*
X62562291Y-42893516D02*
X62717639Y-42930625D01*
X62717639Y-42930625D02*
X62818270Y-42921821D01*
X62818270Y-42921821D02*
X62964815Y-42858300D01*
X62964815Y-42858300D02*
X63240295Y-42529995D01*
X63240295Y-42529995D02*
X63277404Y-42374646D01*
X63277404Y-42374646D02*
X63268600Y-42274016D01*
X61954720Y-44062083D02*
X61352828Y-43557036D01*
X61352828Y-43557036D02*
X61289306Y-43410492D01*
X61289306Y-43410492D02*
X61326416Y-43255143D01*
X61326416Y-43255143D02*
X61510069Y-43036274D01*
X61510069Y-43036274D02*
X61656614Y-42972752D01*
X61900003Y-44016170D02*
X62046547Y-43952648D01*
X62046547Y-43952648D02*
X62276114Y-43679061D01*
X62276114Y-43679061D02*
X62313223Y-43523713D01*
X62313223Y-43523713D02*
X62249702Y-43377169D01*
X62249702Y-43377169D02*
X62140267Y-43285342D01*
X62140267Y-43285342D02*
X61984918Y-43248232D01*
X61984918Y-43248232D02*
X61838374Y-43311754D01*
X61838374Y-43311754D02*
X61608807Y-43585341D01*
X61608807Y-43585341D02*
X61462263Y-43648863D01*
X60501868Y-43682186D02*
X60401237Y-43690990D01*
X60401237Y-43690990D02*
X60254692Y-43754512D01*
X60254692Y-43754512D02*
X60025125Y-44028099D01*
X60025125Y-44028099D02*
X59988016Y-44183447D01*
X59988016Y-44183447D02*
X59996820Y-44284078D01*
X59996820Y-44284078D02*
X60060342Y-44430622D01*
X60060342Y-44430622D02*
X60169777Y-44522449D01*
X60169777Y-44522449D02*
X60379842Y-44605472D01*
X60379842Y-44605472D02*
X61587413Y-44499823D01*
X61587413Y-44499823D02*
X60990538Y-45211150D01*
X59949014Y-44896667D02*
X59581707Y-45334407D01*
X60577318Y-45703607D02*
X59592404Y-44877166D01*
X59592404Y-44877166D02*
X59437056Y-44840056D01*
X59437056Y-44840056D02*
X59290511Y-44903578D01*
X59290511Y-44903578D02*
X59198684Y-45013013D01*
X59032639Y-45433144D02*
X58932008Y-45441949D01*
X58932008Y-45441949D02*
X58785464Y-45505470D01*
X58785464Y-45505470D02*
X58555897Y-45779057D01*
X58555897Y-45779057D02*
X58518787Y-45934406D01*
X58518787Y-45934406D02*
X58527591Y-46035037D01*
X58527591Y-46035037D02*
X58591113Y-46181581D01*
X58591113Y-46181581D02*
X58700548Y-46273408D01*
X58700548Y-46273408D02*
X58910614Y-46356430D01*
X58910614Y-46356430D02*
X60118184Y-46250782D01*
X60118184Y-46250782D02*
X59521310Y-46962109D01*
X58479785Y-46647625D02*
X58112478Y-47085365D01*
X59108089Y-47454565D02*
X58123175Y-46628124D01*
X58123175Y-46628124D02*
X57967827Y-46591015D01*
X57967827Y-46591015D02*
X57821283Y-46654536D01*
X57821283Y-46654536D02*
X57729456Y-46763971D01*
X57499889Y-47037559D02*
X56857101Y-47803603D01*
X56857101Y-47803603D02*
X58419388Y-48275327D01*
X56581621Y-48131908D02*
X55938833Y-48897952D01*
X55938833Y-48897952D02*
X57501121Y-49369676D01*
X55663353Y-49226256D02*
X55020566Y-49992301D01*
X55020566Y-49992301D02*
X56582853Y-50464025D01*
X54745086Y-50320605D02*
X54102298Y-51086650D01*
X54102298Y-51086650D02*
X55664585Y-51558374D01*
X53826818Y-51414954D02*
X53184030Y-52180999D01*
X53184030Y-52180999D02*
X54746317Y-52652723D01*
X52908550Y-52509303D02*
X52265762Y-53275348D01*
X52265762Y-53275348D02*
X53828050Y-53747072D01*
X52053804Y-53750196D02*
X51953173Y-53759000D01*
X51953173Y-53759000D02*
X51806629Y-53822522D01*
X51806629Y-53822522D02*
X51577062Y-54096109D01*
X51577062Y-54096109D02*
X51539952Y-54251457D01*
X51539952Y-54251457D02*
X51548756Y-54352088D01*
X51548756Y-54352088D02*
X51612278Y-54498633D01*
X51612278Y-54498633D02*
X51721713Y-54590459D01*
X51721713Y-54590459D02*
X51931779Y-54673482D01*
X51931779Y-54673482D02*
X53139349Y-54567833D01*
X53139349Y-54567833D02*
X52542475Y-55279160D01*
X51707230Y-56163443D02*
X51853774Y-56099922D01*
X51853774Y-56099922D02*
X52037428Y-55881052D01*
X52037428Y-55881052D02*
X52074537Y-55725704D01*
X52074537Y-55725704D02*
X52011015Y-55579160D01*
X52011015Y-55579160D02*
X51573276Y-55211852D01*
X51573276Y-55211852D02*
X51417927Y-55174743D01*
X51417927Y-55174743D02*
X51271383Y-55238265D01*
X51271383Y-55238265D02*
X51087730Y-55457134D01*
X51087730Y-55457134D02*
X51050620Y-55612483D01*
X51050620Y-55612483D02*
X51114142Y-55759027D01*
X51114142Y-55759027D02*
X51223577Y-55850854D01*
X51223577Y-55850854D02*
X51792146Y-55395506D01*
X50245574Y-55682915D02*
X49602786Y-56448959D01*
X49602786Y-56448959D02*
X51165073Y-56920684D01*
X50338632Y-57905598D02*
X50154979Y-58124467D01*
X50154979Y-58124467D02*
X50008434Y-58187989D01*
X50008434Y-58187989D02*
X49907804Y-58196793D01*
X49907804Y-58196793D02*
X49651824Y-58168488D01*
X49651824Y-58168488D02*
X49387041Y-58039552D01*
X49387041Y-58039552D02*
X48949301Y-57672244D01*
X48949301Y-57672244D02*
X48885780Y-57525700D01*
X48885780Y-57525700D02*
X48876976Y-57425069D01*
X48876976Y-57425069D02*
X48914085Y-57269721D01*
X48914085Y-57269721D02*
X49097739Y-57050851D01*
X49097739Y-57050851D02*
X49244283Y-56987330D01*
X49244283Y-56987330D02*
X49344914Y-56978526D01*
X49344914Y-56978526D02*
X49500262Y-57015635D01*
X49500262Y-57015635D02*
X49773850Y-57245202D01*
X49773850Y-57245202D02*
X49837371Y-57391746D01*
X49837371Y-57391746D02*
X49846175Y-57492377D01*
X49846175Y-57492377D02*
X49809066Y-57647725D01*
X49809066Y-57647725D02*
X49625412Y-57866595D01*
X49625412Y-57866595D02*
X49478868Y-57930117D01*
X49478868Y-57930117D02*
X49378237Y-57938921D01*
X49378237Y-57938921D02*
X49222889Y-57901811D01*
X47903991Y-58473505D02*
X48087644Y-58254635D01*
X48087644Y-58254635D02*
X48234189Y-58191113D01*
X48234189Y-58191113D02*
X48334819Y-58182309D01*
X48334819Y-58182309D02*
X48590799Y-58210615D01*
X48590799Y-58210615D02*
X48855582Y-58339551D01*
X48855582Y-58339551D02*
X49293321Y-58706858D01*
X49293321Y-58706858D02*
X49356843Y-58853402D01*
X49356843Y-58853402D02*
X49365647Y-58954033D01*
X49365647Y-58954033D02*
X49328538Y-59109381D01*
X49328538Y-59109381D02*
X49144884Y-59328251D01*
X49144884Y-59328251D02*
X48998340Y-59391773D01*
X48998340Y-59391773D02*
X48897709Y-59400577D01*
X48897709Y-59400577D02*
X48742361Y-59363467D01*
X48742361Y-59363467D02*
X48468773Y-59133900D01*
X48468773Y-59133900D02*
X48405252Y-58987356D01*
X48405252Y-58987356D02*
X48396448Y-58886725D01*
X48396448Y-58886725D02*
X48433557Y-58731377D01*
X48433557Y-58731377D02*
X48617211Y-58512507D01*
X48617211Y-58512507D02*
X48763755Y-58448986D01*
X48763755Y-58448986D02*
X48864386Y-58440182D01*
X48864386Y-58440182D02*
X49019734Y-58477291D01*
X47919706Y-59232638D02*
X47552399Y-59670378D01*
X48548010Y-60039578D02*
X47563096Y-59213137D01*
X47563096Y-59213137D02*
X47407748Y-59176027D01*
X47407748Y-59176027D02*
X47261203Y-59239549D01*
X47261203Y-59239549D02*
X47169377Y-59348984D01*
X46939809Y-59622571D02*
X46297022Y-60388616D01*
X46297022Y-60388616D02*
X47859309Y-60860340D01*
X45470581Y-61373530D02*
X45929715Y-60826355D01*
X45929715Y-60826355D02*
X46522803Y-61230772D01*
X46522803Y-61230772D02*
X46422172Y-61239576D01*
X46422172Y-61239576D02*
X46275628Y-61303097D01*
X46275628Y-61303097D02*
X46046061Y-61576684D01*
X46046061Y-61576684D02*
X46008951Y-61732033D01*
X46008951Y-61732033D02*
X46017755Y-61832664D01*
X46017755Y-61832664D02*
X46081277Y-61979208D01*
X46081277Y-61979208D02*
X46354864Y-62208775D01*
X46354864Y-62208775D02*
X46510213Y-62245884D01*
X46510213Y-62245884D02*
X46610843Y-62237080D01*
X46610843Y-62237080D02*
X46757388Y-62173559D01*
X46757388Y-62173559D02*
X46986955Y-61899971D01*
X46986955Y-61899971D02*
X47024064Y-61744623D01*
X47024064Y-61744623D02*
X47015260Y-61643992D01*
X45103274Y-61811269D02*
X44460486Y-62577313D01*
X44460486Y-62577313D02*
X46022774Y-63049038D01*
X44062981Y-63828904D02*
X44829025Y-64471691D01*
X43854808Y-63188009D02*
X44905137Y-63603123D01*
X44905137Y-63603123D02*
X44308263Y-64314450D01*
X43266738Y-63999967D02*
X42623951Y-64766011D01*
X42623951Y-64766011D02*
X44186238Y-65237735D01*
X41797510Y-65750925D02*
X42256644Y-65203750D01*
X42256644Y-65203750D02*
X42849732Y-65608167D01*
X42849732Y-65608167D02*
X42749101Y-65616971D01*
X42749101Y-65616971D02*
X42602557Y-65680493D01*
X42602557Y-65680493D02*
X42372990Y-65954080D01*
X42372990Y-65954080D02*
X42335880Y-66109428D01*
X42335880Y-66109428D02*
X42344685Y-66210059D01*
X42344685Y-66210059D02*
X42408206Y-66356603D01*
X42408206Y-66356603D02*
X42681793Y-66586170D01*
X42681793Y-66586170D02*
X42837142Y-66623280D01*
X42837142Y-66623280D02*
X42937773Y-66614476D01*
X42937773Y-66614476D02*
X43084317Y-66550954D01*
X43084317Y-66550954D02*
X43313884Y-66277367D01*
X43313884Y-66277367D02*
X43350993Y-66122019D01*
X43350993Y-66122019D02*
X43342189Y-66021388D01*
X40925156Y-66790557D02*
X41108809Y-66571687D01*
X41108809Y-66571687D02*
X41255353Y-66508165D01*
X41255353Y-66508165D02*
X41355984Y-66499361D01*
X41355984Y-66499361D02*
X41611963Y-66527666D01*
X41611963Y-66527666D02*
X41876747Y-66656603D01*
X41876747Y-66656603D02*
X42314486Y-67023910D01*
X42314486Y-67023910D02*
X42378008Y-67170454D01*
X42378008Y-67170454D02*
X42386812Y-67271085D01*
X42386812Y-67271085D02*
X42349703Y-67426433D01*
X42349703Y-67426433D02*
X42166049Y-67645303D01*
X42166049Y-67645303D02*
X42019505Y-67708825D01*
X42019505Y-67708825D02*
X41918874Y-67717629D01*
X41918874Y-67717629D02*
X41763526Y-67680519D01*
X41763526Y-67680519D02*
X41489938Y-67450952D01*
X41489938Y-67450952D02*
X41426417Y-67304408D01*
X41426417Y-67304408D02*
X41417613Y-67203777D01*
X41417613Y-67203777D02*
X41454722Y-67048429D01*
X41454722Y-67048429D02*
X41638376Y-66829559D01*
X41638376Y-66829559D02*
X41784920Y-66766037D01*
X41784920Y-66766037D02*
X41885551Y-66757233D01*
X41885551Y-66757233D02*
X42040899Y-66794343D01*
X40575457Y-67429558D02*
X40474826Y-67438362D01*
X40474826Y-67438362D02*
X40328282Y-67501883D01*
X40328282Y-67501883D02*
X40098715Y-67775470D01*
X40098715Y-67775470D02*
X40061605Y-67930819D01*
X40061605Y-67930819D02*
X40070409Y-68031450D01*
X40070409Y-68031450D02*
X40133931Y-68177994D01*
X40133931Y-68177994D02*
X40243366Y-68269821D01*
X40243366Y-68269821D02*
X40453432Y-68352843D01*
X40453432Y-68352843D02*
X41661002Y-68247195D01*
X41661002Y-68247195D02*
X41064128Y-68958522D01*
X39088620Y-68979254D02*
X39272274Y-68760384D01*
X39272274Y-68760384D02*
X39418818Y-68696863D01*
X39418818Y-68696863D02*
X39519449Y-68688059D01*
X39519449Y-68688059D02*
X39775428Y-68716364D01*
X39775428Y-68716364D02*
X40040211Y-68845300D01*
X40040211Y-68845300D02*
X40477951Y-69212607D01*
X40477951Y-69212607D02*
X40541472Y-69359152D01*
X40541472Y-69359152D02*
X40550277Y-69459783D01*
X40550277Y-69459783D02*
X40513167Y-69615131D01*
X40513167Y-69615131D02*
X40329514Y-69834001D01*
X40329514Y-69834001D02*
X40182969Y-69897522D01*
X40182969Y-69897522D02*
X40082338Y-69906326D01*
X40082338Y-69906326D02*
X39926990Y-69869217D01*
X39926990Y-69869217D02*
X39653403Y-69639650D01*
X39653403Y-69639650D02*
X39589881Y-69493106D01*
X39589881Y-69493106D02*
X39581077Y-69392475D01*
X39581077Y-69392475D02*
X39618187Y-69237127D01*
X39618187Y-69237127D02*
X39801840Y-69018257D01*
X39801840Y-69018257D02*
X39948384Y-68954735D01*
X39948384Y-68954735D02*
X40049015Y-68945931D01*
X40049015Y-68945931D02*
X40204364Y-68983040D01*
X38124439Y-70128321D02*
X38583573Y-69581146D01*
X38583573Y-69581146D02*
X39176661Y-69985563D01*
X39176661Y-69985563D02*
X39076030Y-69994367D01*
X39076030Y-69994367D02*
X38929486Y-70057888D01*
X38929486Y-70057888D02*
X38699919Y-70331475D01*
X38699919Y-70331475D02*
X38662810Y-70486824D01*
X38662810Y-70486824D02*
X38671614Y-70587455D01*
X38671614Y-70587455D02*
X38735135Y-70733999D01*
X38735135Y-70733999D02*
X39008722Y-70963566D01*
X39008722Y-70963566D02*
X39164071Y-71000675D01*
X39164071Y-71000675D02*
X39264702Y-70991871D01*
X39264702Y-70991871D02*
X39411246Y-70928350D01*
X39411246Y-70928350D02*
X39640813Y-70654762D01*
X39640813Y-70654762D02*
X39677922Y-70499414D01*
X39677922Y-70499414D02*
X39669118Y-70398783D01*
X37820654Y-70712604D02*
X37720023Y-70721408D01*
X37720023Y-70721408D02*
X37573478Y-70784930D01*
X37573478Y-70784930D02*
X37343911Y-71058517D01*
X37343911Y-71058517D02*
X37306802Y-71213865D01*
X37306802Y-71213865D02*
X37315606Y-71314496D01*
X37315606Y-71314496D02*
X37379128Y-71461041D01*
X37379128Y-71461041D02*
X37488563Y-71552867D01*
X37488563Y-71552867D02*
X37698628Y-71635890D01*
X37698628Y-71635890D02*
X38906199Y-71530241D01*
X38906199Y-71530241D02*
X38309324Y-72241568D01*
X37474079Y-73125851D02*
X37620624Y-73062330D01*
X37620624Y-73062330D02*
X37804277Y-72843460D01*
X37804277Y-72843460D02*
X37841387Y-72688112D01*
X37841387Y-72688112D02*
X37777865Y-72541568D01*
X37777865Y-72541568D02*
X37340126Y-72174260D01*
X37340126Y-72174260D02*
X37184777Y-72137151D01*
X37184777Y-72137151D02*
X37038233Y-72200672D01*
X37038233Y-72200672D02*
X36854579Y-72419542D01*
X36854579Y-72419542D02*
X36817470Y-72574891D01*
X36817470Y-72574891D02*
X36880991Y-72721435D01*
X36880991Y-72721435D02*
X36990426Y-72813262D01*
X36990426Y-72813262D02*
X37558995Y-72357914D01*
X35507376Y-73247215D02*
X35691029Y-73028345D01*
X35691029Y-73028345D02*
X35837574Y-72964824D01*
X35837574Y-72964824D02*
X35938205Y-72956020D01*
X35938205Y-72956020D02*
X36194184Y-72984325D01*
X36194184Y-72984325D02*
X36458967Y-73113261D01*
X36458967Y-73113261D02*
X36896707Y-73480568D01*
X36896707Y-73480568D02*
X36960228Y-73627112D01*
X36960228Y-73627112D02*
X36969032Y-73727743D01*
X36969032Y-73727743D02*
X36931923Y-73883092D01*
X36931923Y-73883092D02*
X36748269Y-74101961D01*
X36748269Y-74101961D02*
X36601725Y-74165483D01*
X36601725Y-74165483D02*
X36501094Y-74174287D01*
X36501094Y-74174287D02*
X36345746Y-74137178D01*
X36345746Y-74137178D02*
X36072159Y-73907611D01*
X36072159Y-73907611D02*
X36008637Y-73761066D01*
X36008637Y-73761066D02*
X35999833Y-73660436D01*
X35999833Y-73660436D02*
X36036942Y-73505087D01*
X36036942Y-73505087D02*
X36220596Y-73286217D01*
X36220596Y-73286217D02*
X36367140Y-73222696D01*
X36367140Y-73222696D02*
X36467771Y-73213892D01*
X36467771Y-73213892D02*
X36623119Y-73251001D01*
X35094156Y-73739672D02*
X34497281Y-74450999D01*
X34497281Y-74450999D02*
X35256415Y-74435284D01*
X35256415Y-74435284D02*
X35118675Y-74599436D01*
X35118675Y-74599436D02*
X35081565Y-74754784D01*
X35081565Y-74754784D02*
X35090369Y-74855415D01*
X35090369Y-74855415D02*
X35153891Y-75001960D01*
X35153891Y-75001960D02*
X35427478Y-75231527D01*
X35427478Y-75231527D02*
X35582826Y-75268636D01*
X35582826Y-75268636D02*
X35683457Y-75259832D01*
X35683457Y-75259832D02*
X35830002Y-75196310D01*
X35830002Y-75196310D02*
X36105482Y-74868006D01*
X36105482Y-74868006D02*
X36142591Y-74712657D01*
X36142591Y-74712657D02*
X36133787Y-74612026D01*
X33670840Y-75435913D02*
X33854494Y-75217043D01*
X33854494Y-75217043D02*
X34001038Y-75153521D01*
X34001038Y-75153521D02*
X34101669Y-75144717D01*
X34101669Y-75144717D02*
X34357648Y-75173023D01*
X34357648Y-75173023D02*
X34622432Y-75301959D01*
X34622432Y-75301959D02*
X35060171Y-75669266D01*
X35060171Y-75669266D02*
X35123693Y-75815810D01*
X35123693Y-75815810D02*
X35132497Y-75916441D01*
X35132497Y-75916441D02*
X35095387Y-76071789D01*
X35095387Y-76071789D02*
X34911734Y-76290659D01*
X34911734Y-76290659D02*
X34765190Y-76354181D01*
X34765190Y-76354181D02*
X34664559Y-76362985D01*
X34664559Y-76362985D02*
X34509210Y-76325875D01*
X34509210Y-76325875D02*
X34235623Y-76096308D01*
X34235623Y-76096308D02*
X34172102Y-75949764D01*
X34172102Y-75949764D02*
X34163298Y-75849133D01*
X34163298Y-75849133D02*
X34200407Y-75693785D01*
X34200407Y-75693785D02*
X34384060Y-75474915D01*
X34384060Y-75474915D02*
X34530605Y-75411394D01*
X34530605Y-75411394D02*
X34631236Y-75402590D01*
X34631236Y-75402590D02*
X34786584Y-75439699D01*
X73702069Y-32286823D02*
X73334762Y-32724562D01*
X74330374Y-33093763D02*
X73345459Y-32267321D01*
X73345459Y-32267321D02*
X73190111Y-32230212D01*
X73190111Y-32230212D02*
X73043567Y-32293734D01*
X73043567Y-32293734D02*
X72951740Y-32403168D01*
X72217126Y-33278648D02*
X72400779Y-33059778D01*
X72400779Y-33059778D02*
X72547323Y-32996257D01*
X72547323Y-32996257D02*
X72647954Y-32987452D01*
X72647954Y-32987452D02*
X72903933Y-33015758D01*
X72903933Y-33015758D02*
X73168717Y-33144694D01*
X73168717Y-33144694D02*
X73606456Y-33512001D01*
X73606456Y-33512001D02*
X73669978Y-33658545D01*
X73669978Y-33658545D02*
X73678782Y-33759176D01*
X73678782Y-33759176D02*
X73641673Y-33914525D01*
X73641673Y-33914525D02*
X73458019Y-34133394D01*
X73458019Y-34133394D02*
X73311475Y-34196916D01*
X73311475Y-34196916D02*
X73210844Y-34205720D01*
X73210844Y-34205720D02*
X73055496Y-34168611D01*
X73055496Y-34168611D02*
X72781908Y-33939044D01*
X72781908Y-33939044D02*
X72718387Y-33792499D01*
X72718387Y-33792499D02*
X72709583Y-33691869D01*
X72709583Y-33691869D02*
X72746692Y-33536520D01*
X72746692Y-33536520D02*
X72930346Y-33317650D01*
X72930346Y-33317650D02*
X73076890Y-33254129D01*
X73076890Y-33254129D02*
X73177521Y-33245325D01*
X73177521Y-33245325D02*
X73332869Y-33282434D01*
X72447924Y-35337178D02*
X71298858Y-34372997D01*
X72393207Y-35291265D02*
X72539751Y-35227743D01*
X72539751Y-35227743D02*
X72723405Y-35008873D01*
X72723405Y-35008873D02*
X72760514Y-34853525D01*
X72760514Y-34853525D02*
X72751710Y-34752894D01*
X72751710Y-34752894D02*
X72688189Y-34606350D01*
X72688189Y-34606350D02*
X72359884Y-34330870D01*
X72359884Y-34330870D02*
X72204536Y-34293760D01*
X72204536Y-34293760D02*
X72103905Y-34302564D01*
X72103905Y-34302564D02*
X71957360Y-34366086D01*
X71957360Y-34366086D02*
X71773707Y-34584956D01*
X71773707Y-34584956D02*
X71736597Y-34740304D01*
X70995072Y-34957281D02*
X70894441Y-34966085D01*
X70894441Y-34966085D02*
X70747897Y-35029606D01*
X70747897Y-35029606D02*
X70518330Y-35303194D01*
X70518330Y-35303194D02*
X70481221Y-35458542D01*
X70481221Y-35458542D02*
X70490025Y-35559173D01*
X70490025Y-35559173D02*
X70553546Y-35705717D01*
X70553546Y-35705717D02*
X70662981Y-35797544D01*
X70662981Y-35797544D02*
X70873047Y-35880567D01*
X70873047Y-35880567D02*
X72080617Y-35774918D01*
X72080617Y-35774918D02*
X71483743Y-36486245D01*
X70442218Y-36171762D02*
X70074911Y-36609501D01*
X71070523Y-36978702D02*
X70085608Y-36152261D01*
X70085608Y-36152261D02*
X69930260Y-36115151D01*
X69930260Y-36115151D02*
X69783716Y-36178673D01*
X69783716Y-36178673D02*
X69691889Y-36288108D01*
X69462322Y-36561695D02*
X68819534Y-37327740D01*
X68819534Y-37327740D02*
X70381822Y-37799464D01*
X68544054Y-37656044D02*
X67901267Y-38422088D01*
X67901267Y-38422088D02*
X69463554Y-38893813D01*
X67120739Y-39352285D02*
X67304393Y-39133415D01*
X67304393Y-39133415D02*
X67450937Y-39069894D01*
X67450937Y-39069894D02*
X67551568Y-39061089D01*
X67551568Y-39061089D02*
X67807547Y-39089395D01*
X67807547Y-39089395D02*
X68072330Y-39218331D01*
X68072330Y-39218331D02*
X68510070Y-39585638D01*
X68510070Y-39585638D02*
X68573591Y-39732182D01*
X68573591Y-39732182D02*
X68582395Y-39832813D01*
X68582395Y-39832813D02*
X68545286Y-39988162D01*
X68545286Y-39988162D02*
X68361632Y-40207031D01*
X68361632Y-40207031D02*
X68215088Y-40270553D01*
X68215088Y-40270553D02*
X68114457Y-40279357D01*
X68114457Y-40279357D02*
X67959109Y-40242248D01*
X67959109Y-40242248D02*
X67685522Y-40012681D01*
X67685522Y-40012681D02*
X67622000Y-39866136D01*
X67622000Y-39866136D02*
X67613196Y-39765506D01*
X67613196Y-39765506D02*
X67650305Y-39610157D01*
X67650305Y-39610157D02*
X67833959Y-39391287D01*
X67833959Y-39391287D02*
X67980503Y-39327766D01*
X67980503Y-39327766D02*
X68081134Y-39318962D01*
X68081134Y-39318962D02*
X68236483Y-39356071D01*
X67259711Y-41520250D02*
X67810672Y-40863641D01*
X67535192Y-41191945D02*
X66386125Y-40227764D01*
X66386125Y-40227764D02*
X66642104Y-40256069D01*
X66642104Y-40256069D02*
X66843366Y-40238461D01*
X66843366Y-40238461D02*
X66989910Y-40174940D01*
X65789251Y-40939091D02*
X65146463Y-41705135D01*
X65146463Y-41705135D02*
X66708751Y-42176859D01*
X64748958Y-42956725D02*
X65515002Y-43599513D01*
X64540785Y-42315831D02*
X65591114Y-42730945D01*
X65591114Y-42730945D02*
X64994240Y-43442272D01*
X63447668Y-43729680D02*
X63631322Y-43510811D01*
X63631322Y-43510811D02*
X63777866Y-43447289D01*
X63777866Y-43447289D02*
X63878497Y-43438485D01*
X63878497Y-43438485D02*
X64134476Y-43466790D01*
X64134476Y-43466790D02*
X64399259Y-43595726D01*
X64399259Y-43595726D02*
X64836999Y-43963034D01*
X64836999Y-43963034D02*
X64900520Y-44109578D01*
X64900520Y-44109578D02*
X64909324Y-44210209D01*
X64909324Y-44210209D02*
X64872215Y-44365557D01*
X64872215Y-44365557D02*
X64688561Y-44584427D01*
X64688561Y-44584427D02*
X64542017Y-44647948D01*
X64542017Y-44647948D02*
X64441386Y-44656752D01*
X64441386Y-44656752D02*
X64286038Y-44619643D01*
X64286038Y-44619643D02*
X64012451Y-44390076D01*
X64012451Y-44390076D02*
X63948929Y-44243532D01*
X63948929Y-44243532D02*
X63940125Y-44142901D01*
X63940125Y-44142901D02*
X63977235Y-43987553D01*
X63977235Y-43987553D02*
X64160888Y-43768683D01*
X64160888Y-43768683D02*
X64307432Y-43705161D01*
X64307432Y-43705161D02*
X64408063Y-43696357D01*
X64408063Y-43696357D02*
X64563412Y-43733467D01*
X63034448Y-44222137D02*
X62437573Y-44933464D01*
X62437573Y-44933464D02*
X63196707Y-44917749D01*
X63196707Y-44917749D02*
X63058967Y-45081902D01*
X63058967Y-45081902D02*
X63021857Y-45237250D01*
X63021857Y-45237250D02*
X63030661Y-45337881D01*
X63030661Y-45337881D02*
X63094183Y-45484425D01*
X63094183Y-45484425D02*
X63367770Y-45713992D01*
X63367770Y-45713992D02*
X63523119Y-45751101D01*
X63523119Y-45751101D02*
X63623749Y-45742297D01*
X63623749Y-45742297D02*
X63770294Y-45678776D01*
X63770294Y-45678776D02*
X64045774Y-45350471D01*
X64045774Y-45350471D02*
X64082883Y-45195123D01*
X64082883Y-45195123D02*
X64074079Y-45094492D01*
X61611133Y-45918378D02*
X61794786Y-45699508D01*
X61794786Y-45699508D02*
X61941330Y-45635987D01*
X61941330Y-45635987D02*
X62041961Y-45627183D01*
X62041961Y-45627183D02*
X62297940Y-45655488D01*
X62297940Y-45655488D02*
X62562724Y-45784424D01*
X62562724Y-45784424D02*
X63000463Y-46151731D01*
X63000463Y-46151731D02*
X63063985Y-46298276D01*
X63063985Y-46298276D02*
X63072789Y-46398906D01*
X63072789Y-46398906D02*
X63035680Y-46554255D01*
X63035680Y-46554255D02*
X62852026Y-46773125D01*
X62852026Y-46773125D02*
X62705482Y-46836646D01*
X62705482Y-46836646D02*
X62604851Y-46845450D01*
X62604851Y-46845450D02*
X62449503Y-46808341D01*
X62449503Y-46808341D02*
X62175915Y-46578774D01*
X62175915Y-46578774D02*
X62112394Y-46432230D01*
X62112394Y-46432230D02*
X62103590Y-46331599D01*
X62103590Y-46331599D02*
X62140699Y-46176250D01*
X62140699Y-46176250D02*
X62324353Y-45957381D01*
X62324353Y-45957381D02*
X62470897Y-45893859D01*
X62470897Y-45893859D02*
X62571528Y-45885055D01*
X62571528Y-45885055D02*
X62726876Y-45922164D01*
X61460802Y-47097643D02*
X61497912Y-46942295D01*
X61497912Y-46942295D02*
X61489108Y-46841664D01*
X61489108Y-46841664D02*
X61425586Y-46695119D01*
X61425586Y-46695119D02*
X61370869Y-46649206D01*
X61370869Y-46649206D02*
X61215520Y-46612097D01*
X61215520Y-46612097D02*
X61114889Y-46620901D01*
X61114889Y-46620901D02*
X60968345Y-46684422D01*
X60968345Y-46684422D02*
X60784692Y-46903292D01*
X60784692Y-46903292D02*
X60747582Y-47058640D01*
X60747582Y-47058640D02*
X60756386Y-47159271D01*
X60756386Y-47159271D02*
X60819908Y-47305816D01*
X60819908Y-47305816D02*
X60874625Y-47351729D01*
X60874625Y-47351729D02*
X61029974Y-47388838D01*
X61029974Y-47388838D02*
X61130604Y-47380034D01*
X61130604Y-47380034D02*
X61277149Y-47316513D01*
X61277149Y-47316513D02*
X61460802Y-47097643D01*
X61460802Y-47097643D02*
X61607347Y-47034121D01*
X61607347Y-47034121D02*
X61707977Y-47025317D01*
X61707977Y-47025317D02*
X61863326Y-47062427D01*
X61863326Y-47062427D02*
X62082196Y-47246080D01*
X62082196Y-47246080D02*
X62145717Y-47392625D01*
X62145717Y-47392625D02*
X62154521Y-47493255D01*
X62154521Y-47493255D02*
X62117412Y-47648604D01*
X62117412Y-47648604D02*
X61933758Y-47867474D01*
X61933758Y-47867474D02*
X61787214Y-47930995D01*
X61787214Y-47930995D02*
X61686583Y-47939799D01*
X61686583Y-47939799D02*
X61531235Y-47902690D01*
X61531235Y-47902690D02*
X61312365Y-47719036D01*
X61312365Y-47719036D02*
X61248843Y-47572492D01*
X61248843Y-47572492D02*
X61240039Y-47471861D01*
X61240039Y-47471861D02*
X61277149Y-47316513D01*
X60279644Y-47505184D02*
X59682770Y-48216511D01*
X59682770Y-48216511D02*
X60441904Y-48200796D01*
X60441904Y-48200796D02*
X60304164Y-48364948D01*
X60304164Y-48364948D02*
X60267054Y-48520297D01*
X60267054Y-48520297D02*
X60275858Y-48620927D01*
X60275858Y-48620927D02*
X60339380Y-48767472D01*
X60339380Y-48767472D02*
X60612967Y-48997039D01*
X60612967Y-48997039D02*
X60768315Y-49034148D01*
X60768315Y-49034148D02*
X60868946Y-49025344D01*
X60868946Y-49025344D02*
X61015491Y-48961822D01*
X61015491Y-48961822D02*
X61290971Y-48633518D01*
X61290971Y-48633518D02*
X61328080Y-48478169D01*
X61328080Y-48478169D02*
X61319276Y-48377538D01*
X59790312Y-48866209D02*
X59423005Y-49303949D01*
X60418617Y-49673149D02*
X59433702Y-48846708D01*
X59433702Y-48846708D02*
X59278354Y-48809599D01*
X59278354Y-48809599D02*
X59131810Y-48873120D01*
X59131810Y-48873120D02*
X59039983Y-48982555D01*
X58810416Y-49256142D02*
X58167628Y-50022187D01*
X58167628Y-50022187D02*
X59729915Y-50493911D01*
X57387101Y-50952383D02*
X57570754Y-50733513D01*
X57570754Y-50733513D02*
X57717299Y-50669992D01*
X57717299Y-50669992D02*
X57817929Y-50661188D01*
X57817929Y-50661188D02*
X58073909Y-50689493D01*
X58073909Y-50689493D02*
X58338692Y-50818429D01*
X58338692Y-50818429D02*
X58776432Y-51185737D01*
X58776432Y-51185737D02*
X58839953Y-51332281D01*
X58839953Y-51332281D02*
X58848757Y-51432912D01*
X58848757Y-51432912D02*
X58811648Y-51588260D01*
X58811648Y-51588260D02*
X58627994Y-51807130D01*
X58627994Y-51807130D02*
X58481450Y-51870651D01*
X58481450Y-51870651D02*
X58380819Y-51879455D01*
X58380819Y-51879455D02*
X58225471Y-51842346D01*
X58225471Y-51842346D02*
X57951883Y-51612779D01*
X57951883Y-51612779D02*
X57888362Y-51466235D01*
X57888362Y-51466235D02*
X57879558Y-51365604D01*
X57879558Y-51365604D02*
X57916667Y-51210256D01*
X57916667Y-51210256D02*
X58100321Y-50991386D01*
X58100321Y-50991386D02*
X58246865Y-50927864D01*
X58246865Y-50927864D02*
X58347496Y-50919060D01*
X58347496Y-50919060D02*
X58502844Y-50956170D01*
X56973880Y-51444840D02*
X56377006Y-52156167D01*
X56377006Y-52156167D02*
X57136140Y-52140452D01*
X57136140Y-52140452D02*
X56998399Y-52304604D01*
X56998399Y-52304604D02*
X56961290Y-52459953D01*
X56961290Y-52459953D02*
X56970094Y-52560584D01*
X56970094Y-52560584D02*
X57033616Y-52707128D01*
X57033616Y-52707128D02*
X57307203Y-52936695D01*
X57307203Y-52936695D02*
X57462551Y-52973804D01*
X57462551Y-52973804D02*
X57563182Y-52965000D01*
X57563182Y-52965000D02*
X57709726Y-52901479D01*
X57709726Y-52901479D02*
X57985207Y-52573174D01*
X57985207Y-52573174D02*
X58022316Y-52417826D01*
X58022316Y-52417826D02*
X58013512Y-52317195D01*
X56699632Y-54105262D02*
X55550565Y-53141081D01*
X56644914Y-54059349D02*
X56791459Y-53995828D01*
X56791459Y-53995828D02*
X56975112Y-53776958D01*
X56975112Y-53776958D02*
X57012222Y-53621609D01*
X57012222Y-53621609D02*
X57003418Y-53520979D01*
X57003418Y-53520979D02*
X56939896Y-53374434D01*
X56939896Y-53374434D02*
X56611591Y-53098954D01*
X56611591Y-53098954D02*
X56456243Y-53061845D01*
X56456243Y-53061845D02*
X56355612Y-53070649D01*
X56355612Y-53070649D02*
X56209068Y-53134170D01*
X56209068Y-53134170D02*
X56025414Y-53353040D01*
X56025414Y-53353040D02*
X55988305Y-53508388D01*
X54678211Y-54180713D02*
X54861864Y-53961843D01*
X54861864Y-53961843D02*
X55008408Y-53898322D01*
X55008408Y-53898322D02*
X55109039Y-53889517D01*
X55109039Y-53889517D02*
X55365018Y-53917823D01*
X55365018Y-53917823D02*
X55629802Y-54046759D01*
X55629802Y-54046759D02*
X56067541Y-54414066D01*
X56067541Y-54414066D02*
X56131063Y-54560610D01*
X56131063Y-54560610D02*
X56139867Y-54661241D01*
X56139867Y-54661241D02*
X56102758Y-54816590D01*
X56102758Y-54816590D02*
X55919104Y-55035459D01*
X55919104Y-55035459D02*
X55772560Y-55098981D01*
X55772560Y-55098981D02*
X55671929Y-55107785D01*
X55671929Y-55107785D02*
X55516581Y-55070676D01*
X55516581Y-55070676D02*
X55242993Y-54841109D01*
X55242993Y-54841109D02*
X55179472Y-54694564D01*
X55179472Y-54694564D02*
X55170668Y-54593934D01*
X55170668Y-54593934D02*
X55207777Y-54438585D01*
X55207777Y-54438585D02*
X55391431Y-54219715D01*
X55391431Y-54219715D02*
X55537975Y-54156194D01*
X55537975Y-54156194D02*
X55638606Y-54147390D01*
X55638606Y-54147390D02*
X55793954Y-54184499D01*
X54142965Y-55596456D02*
X54909009Y-56239243D01*
X53934792Y-54955561D02*
X54985121Y-55370675D01*
X54985121Y-55370675D02*
X54388247Y-56082002D01*
X52795762Y-56424128D02*
X53254896Y-55876954D01*
X53254896Y-55876954D02*
X53847984Y-56281370D01*
X53847984Y-56281370D02*
X53747353Y-56290174D01*
X53747353Y-56290174D02*
X53600809Y-56353696D01*
X53600809Y-56353696D02*
X53371242Y-56627283D01*
X53371242Y-56627283D02*
X53334132Y-56782631D01*
X53334132Y-56782631D02*
X53342936Y-56883262D01*
X53342936Y-56883262D02*
X53406458Y-57029806D01*
X53406458Y-57029806D02*
X53680045Y-57259373D01*
X53680045Y-57259373D02*
X53835393Y-57296483D01*
X53835393Y-57296483D02*
X53936024Y-57287679D01*
X53936024Y-57287679D02*
X54082568Y-57224157D01*
X54082568Y-57224157D02*
X54312136Y-56950570D01*
X54312136Y-56950570D02*
X54349245Y-56795222D01*
X54349245Y-56795222D02*
X54340441Y-56694591D01*
X52980647Y-58537376D02*
X53531608Y-57880766D01*
X53256128Y-58209071D02*
X52107061Y-57244890D01*
X52107061Y-57244890D02*
X52363040Y-57273195D01*
X52363040Y-57273195D02*
X52564302Y-57255587D01*
X52564302Y-57255587D02*
X52710846Y-57192065D01*
X51510187Y-57956216D02*
X50867399Y-58722261D01*
X50867399Y-58722261D02*
X52429687Y-59193985D01*
X50591919Y-59050565D02*
X49949132Y-59816610D01*
X49949132Y-59816610D02*
X51511419Y-60288334D01*
X49673651Y-60144914D02*
X49076777Y-60856241D01*
X49076777Y-60856241D02*
X49835911Y-60840526D01*
X49835911Y-60840526D02*
X49698171Y-61004678D01*
X49698171Y-61004678D02*
X49661061Y-61160027D01*
X49661061Y-61160027D02*
X49669865Y-61260658D01*
X49669865Y-61260658D02*
X49733387Y-61407202D01*
X49733387Y-61407202D02*
X50006974Y-61636769D01*
X50006974Y-61636769D02*
X50162322Y-61673878D01*
X50162322Y-61673878D02*
X50262953Y-61665074D01*
X50262953Y-61665074D02*
X50409498Y-61601553D01*
X50409498Y-61601553D02*
X50684978Y-61273248D01*
X50684978Y-61273248D02*
X50722087Y-61117900D01*
X50722087Y-61117900D02*
X50713283Y-61017269D01*
X48633359Y-62162549D02*
X49399403Y-62805336D01*
X48425186Y-61521654D02*
X49475515Y-61936768D01*
X49475515Y-61936768D02*
X48878641Y-62648095D01*
X47837116Y-62333612D02*
X47194328Y-63099656D01*
X47194328Y-63099656D02*
X48756616Y-63571381D01*
X46918848Y-63427961D02*
X46276061Y-64194005D01*
X46276061Y-64194005D02*
X47838348Y-64665729D01*
X46000581Y-64522310D02*
X45403706Y-65233637D01*
X45403706Y-65233637D02*
X46162840Y-65217922D01*
X46162840Y-65217922D02*
X46025100Y-65382074D01*
X46025100Y-65382074D02*
X45987990Y-65537422D01*
X45987990Y-65537422D02*
X45996794Y-65638053D01*
X45996794Y-65638053D02*
X46060316Y-65784597D01*
X46060316Y-65784597D02*
X46333903Y-66014164D01*
X46333903Y-66014164D02*
X46489251Y-66051274D01*
X46489251Y-66051274D02*
X46589882Y-66042470D01*
X46589882Y-66042470D02*
X46736427Y-65978948D01*
X46736427Y-65978948D02*
X47011907Y-65650643D01*
X47011907Y-65650643D02*
X47049016Y-65495295D01*
X47049016Y-65495295D02*
X47040212Y-65394664D01*
X46093639Y-66744992D02*
X45909986Y-66963862D01*
X45909986Y-66963862D02*
X45763441Y-67027384D01*
X45763441Y-67027384D02*
X45662811Y-67036188D01*
X45662811Y-67036188D02*
X45406831Y-67007882D01*
X45406831Y-67007882D02*
X45142048Y-66878946D01*
X45142048Y-66878946D02*
X44704308Y-66511639D01*
X44704308Y-66511639D02*
X44640787Y-66365095D01*
X44640787Y-66365095D02*
X44631983Y-66264464D01*
X44631983Y-66264464D02*
X44669092Y-66109116D01*
X44669092Y-66109116D02*
X44852746Y-65890246D01*
X44852746Y-65890246D02*
X44999290Y-65826724D01*
X44999290Y-65826724D02*
X45099921Y-65817920D01*
X45099921Y-65817920D02*
X45255269Y-65855030D01*
X45255269Y-65855030D02*
X45528857Y-66084597D01*
X45528857Y-66084597D02*
X45592378Y-66231141D01*
X45592378Y-66231141D02*
X45601182Y-66331772D01*
X45601182Y-66331772D02*
X45564073Y-66487120D01*
X45564073Y-66487120D02*
X45380419Y-66705990D01*
X45380419Y-66705990D02*
X45233875Y-66769511D01*
X45233875Y-66769511D02*
X45133244Y-66778315D01*
X45133244Y-66778315D02*
X44977896Y-66741206D01*
X43613084Y-67367617D02*
X44072218Y-66820442D01*
X44072218Y-66820442D02*
X44665306Y-67224859D01*
X44665306Y-67224859D02*
X44564675Y-67233663D01*
X44564675Y-67233663D02*
X44418131Y-67297184D01*
X44418131Y-67297184D02*
X44188564Y-67570772D01*
X44188564Y-67570772D02*
X44151455Y-67726120D01*
X44151455Y-67726120D02*
X44160259Y-67826751D01*
X44160259Y-67826751D02*
X44223780Y-67973295D01*
X44223780Y-67973295D02*
X44497368Y-68202862D01*
X44497368Y-68202862D02*
X44652716Y-68239971D01*
X44652716Y-68239971D02*
X44753347Y-68231167D01*
X44753347Y-68231167D02*
X44899891Y-68167646D01*
X44899891Y-68167646D02*
X45129458Y-67894059D01*
X45129458Y-67894059D02*
X45166567Y-67738710D01*
X45166567Y-67738710D02*
X45157763Y-67638079D01*
X43245777Y-67805356D02*
X42602990Y-68571401D01*
X42602990Y-68571401D02*
X44165277Y-69043125D01*
X41822462Y-69501597D02*
X42006116Y-69282727D01*
X42006116Y-69282727D02*
X42152660Y-69219206D01*
X42152660Y-69219206D02*
X42253291Y-69210402D01*
X42253291Y-69210402D02*
X42509270Y-69238707D01*
X42509270Y-69238707D02*
X42774053Y-69367643D01*
X42774053Y-69367643D02*
X43211793Y-69734950D01*
X43211793Y-69734950D02*
X43275315Y-69881495D01*
X43275315Y-69881495D02*
X43284119Y-69982126D01*
X43284119Y-69982126D02*
X43247009Y-70137474D01*
X43247009Y-70137474D02*
X43063356Y-70356344D01*
X43063356Y-70356344D02*
X42916811Y-70419865D01*
X42916811Y-70419865D02*
X42816181Y-70428669D01*
X42816181Y-70428669D02*
X42660832Y-70391560D01*
X42660832Y-70391560D02*
X42387245Y-70161993D01*
X42387245Y-70161993D02*
X42323723Y-70015449D01*
X42323723Y-70015449D02*
X42314919Y-69914818D01*
X42314919Y-69914818D02*
X42352029Y-69759469D01*
X42352029Y-69759469D02*
X42535682Y-69540600D01*
X42535682Y-69540600D02*
X42682227Y-69477078D01*
X42682227Y-69477078D02*
X42782857Y-69468274D01*
X42782857Y-69468274D02*
X42938206Y-69505383D01*
X41409242Y-69994054D02*
X40766454Y-70760098D01*
X40766454Y-70760098D02*
X42328742Y-71231823D01*
X39940013Y-71745012D02*
X40399147Y-71197838D01*
X40399147Y-71197838D02*
X40992235Y-71602254D01*
X40992235Y-71602254D02*
X40891604Y-71611058D01*
X40891604Y-71611058D02*
X40745060Y-71674580D01*
X40745060Y-71674580D02*
X40515493Y-71948167D01*
X40515493Y-71948167D02*
X40478384Y-72103516D01*
X40478384Y-72103516D02*
X40487188Y-72204146D01*
X40487188Y-72204146D02*
X40550709Y-72350691D01*
X40550709Y-72350691D02*
X40824297Y-72580258D01*
X40824297Y-72580258D02*
X40979645Y-72617367D01*
X40979645Y-72617367D02*
X41080276Y-72608563D01*
X41080276Y-72608563D02*
X41226820Y-72545041D01*
X41226820Y-72545041D02*
X41456387Y-72271454D01*
X41456387Y-72271454D02*
X41493497Y-72116106D01*
X41493497Y-72116106D02*
X41484692Y-72015475D01*
X39835597Y-72869560D02*
X39872706Y-72714211D01*
X39872706Y-72714211D02*
X39863902Y-72613580D01*
X39863902Y-72613580D02*
X39800380Y-72467036D01*
X39800380Y-72467036D02*
X39745663Y-72421123D01*
X39745663Y-72421123D02*
X39590314Y-72384013D01*
X39590314Y-72384013D02*
X39489684Y-72392818D01*
X39489684Y-72392818D02*
X39343139Y-72456339D01*
X39343139Y-72456339D02*
X39159486Y-72675209D01*
X39159486Y-72675209D02*
X39122376Y-72830557D01*
X39122376Y-72830557D02*
X39131180Y-72931188D01*
X39131180Y-72931188D02*
X39194702Y-73077732D01*
X39194702Y-73077732D02*
X39249419Y-73123646D01*
X39249419Y-73123646D02*
X39404768Y-73160755D01*
X39404768Y-73160755D02*
X39505399Y-73151951D01*
X39505399Y-73151951D02*
X39651943Y-73088429D01*
X39651943Y-73088429D02*
X39835597Y-72869560D01*
X39835597Y-72869560D02*
X39982141Y-72806038D01*
X39982141Y-72806038D02*
X40082772Y-72797234D01*
X40082772Y-72797234D02*
X40238120Y-72834343D01*
X40238120Y-72834343D02*
X40456990Y-73017997D01*
X40456990Y-73017997D02*
X40520511Y-73164541D01*
X40520511Y-73164541D02*
X40529315Y-73265172D01*
X40529315Y-73265172D02*
X40492206Y-73420520D01*
X40492206Y-73420520D02*
X40308552Y-73639390D01*
X40308552Y-73639390D02*
X40162008Y-73702912D01*
X40162008Y-73702912D02*
X40061377Y-73711716D01*
X40061377Y-73711716D02*
X39906029Y-73674607D01*
X39906029Y-73674607D02*
X39687159Y-73490953D01*
X39687159Y-73490953D02*
X39623638Y-73344409D01*
X39623638Y-73344409D02*
X39614834Y-73243778D01*
X39614834Y-73243778D02*
X39651943Y-73088429D01*
X38149391Y-73878993D02*
X38333045Y-73660123D01*
X38333045Y-73660123D02*
X38479589Y-73596601D01*
X38479589Y-73596601D02*
X38580220Y-73587797D01*
X38580220Y-73587797D02*
X38836199Y-73616103D01*
X38836199Y-73616103D02*
X39100982Y-73745039D01*
X39100982Y-73745039D02*
X39538722Y-74112346D01*
X39538722Y-74112346D02*
X39602244Y-74258890D01*
X39602244Y-74258890D02*
X39611048Y-74359521D01*
X39611048Y-74359521D02*
X39573938Y-74514869D01*
X39573938Y-74514869D02*
X39390285Y-74733739D01*
X39390285Y-74733739D02*
X39243740Y-74797261D01*
X39243740Y-74797261D02*
X39143110Y-74806065D01*
X39143110Y-74806065D02*
X38987761Y-74768955D01*
X38987761Y-74768955D02*
X38714174Y-74539388D01*
X38714174Y-74539388D02*
X38650652Y-74392844D01*
X38650652Y-74392844D02*
X38641848Y-74292213D01*
X38641848Y-74292213D02*
X38678958Y-74136865D01*
X38678958Y-74136865D02*
X38862611Y-73917995D01*
X38862611Y-73917995D02*
X39009156Y-73854474D01*
X39009156Y-73854474D02*
X39109786Y-73845670D01*
X39109786Y-73845670D02*
X39265135Y-73882779D01*
X37736171Y-74371449D02*
X37139297Y-75082776D01*
X37139297Y-75082776D02*
X37898430Y-75067061D01*
X37898430Y-75067061D02*
X37760690Y-75231214D01*
X37760690Y-75231214D02*
X37723581Y-75386562D01*
X37723581Y-75386562D02*
X37732385Y-75487193D01*
X37732385Y-75487193D02*
X37795906Y-75633737D01*
X37795906Y-75633737D02*
X38069494Y-75863304D01*
X38069494Y-75863304D02*
X38224842Y-75900414D01*
X38224842Y-75900414D02*
X38325473Y-75891610D01*
X38325473Y-75891610D02*
X38472017Y-75828088D01*
X38472017Y-75828088D02*
X38747497Y-75499783D01*
X38747497Y-75499783D02*
X38784607Y-75344435D01*
X38784607Y-75344435D02*
X38775803Y-75243804D01*
X36266942Y-76122408D02*
X36726076Y-75575233D01*
X36726076Y-75575233D02*
X37319164Y-75979650D01*
X37319164Y-75979650D02*
X37218533Y-75988454D01*
X37218533Y-75988454D02*
X37071989Y-76051975D01*
X37071989Y-76051975D02*
X36842422Y-76325563D01*
X36842422Y-76325563D02*
X36805313Y-76480911D01*
X36805313Y-76480911D02*
X36814117Y-76581542D01*
X36814117Y-76581542D02*
X36877638Y-76728086D01*
X36877638Y-76728086D02*
X37151226Y-76957653D01*
X37151226Y-76957653D02*
X37306574Y-76994763D01*
X37306574Y-76994763D02*
X37407205Y-76985958D01*
X37407205Y-76985958D02*
X37553749Y-76922437D01*
X37553749Y-76922437D02*
X37783316Y-76648850D01*
X37783316Y-76648850D02*
X37820426Y-76493501D01*
X37820426Y-76493501D02*
X37811621Y-76392870D01*
X36451828Y-78235656D02*
X37002789Y-77579046D01*
X36727308Y-77907351D02*
X35578242Y-76943169D01*
X35578242Y-76943169D02*
X35834221Y-76971475D01*
X35834221Y-76971475D02*
X36035483Y-76953867D01*
X36035483Y-76953867D02*
X36182027Y-76890345D01*
M02*
