%TF.GenerationSoftware,KiCad,Pcbnew,(7.0.0)*%
%TF.CreationDate,2023-05-30T19:56:16-04:00*%
%TF.ProjectId,DC31BADGE-CARD-OUTLINE,44433331-4241-4444-9745-2d434152442d,rev?*%
%TF.SameCoordinates,Original*%
%TF.FileFunction,Soldermask,Top*%
%TF.FilePolarity,Negative*%
%FSLAX46Y46*%
G04 Gerber Fmt 4.6, Leading zero omitted, Abs format (unit mm)*
G04 Created by KiCad (PCBNEW (7.0.0)) date 2023-05-30 19:56:16*
%MOMM*%
%LPD*%
G01*
G04 APERTURE LIST*
%ADD10C,0.010000*%
G04 APERTURE END LIST*
%TO.C,G\u002A\u002A\u002A*%
G36*
X58871826Y-36534485D02*
G01*
X59054460Y-36579061D01*
X59155236Y-36621788D01*
X59217725Y-36660152D01*
X59262084Y-36706632D01*
X59292961Y-36770198D01*
X59315006Y-36859819D01*
X59329662Y-36958325D01*
X59342202Y-37168097D01*
X59325636Y-37377699D01*
X59278665Y-37591214D01*
X59199991Y-37812727D01*
X59088318Y-38046322D01*
X58942346Y-38296081D01*
X58868219Y-38410200D01*
X58801814Y-38506680D01*
X58727500Y-38609672D01*
X58650003Y-38713173D01*
X58574047Y-38811179D01*
X58504357Y-38897685D01*
X58445660Y-38966688D01*
X58402679Y-39012185D01*
X58382127Y-39027859D01*
X58362246Y-39016027D01*
X58312971Y-38979491D01*
X58237373Y-38920718D01*
X58138522Y-38842173D01*
X58019489Y-38746320D01*
X57883346Y-38635626D01*
X57733163Y-38512555D01*
X57572011Y-38379574D01*
X57493127Y-38314161D01*
X57328005Y-38176748D01*
X57172898Y-38047128D01*
X57030834Y-37927871D01*
X56904843Y-37821546D01*
X56797955Y-37730721D01*
X56713198Y-37657965D01*
X56653603Y-37605848D01*
X56622199Y-37576938D01*
X56618046Y-37572118D01*
X56628843Y-37546208D01*
X56666788Y-37498497D01*
X56726394Y-37434149D01*
X56802177Y-37358330D01*
X56888652Y-37276205D01*
X56980332Y-37192938D01*
X57071734Y-37113697D01*
X57157370Y-37043644D01*
X57231757Y-36987947D01*
X57255370Y-36971986D01*
X57488219Y-36835499D01*
X57728590Y-36722169D01*
X57971584Y-36632900D01*
X58212303Y-36568594D01*
X58445849Y-36530154D01*
X58667322Y-36518483D01*
X58871826Y-36534485D01*
G37*
D10*
X58871826Y-36534485D02*
X59054460Y-36579061D01*
X59155236Y-36621788D01*
X59217725Y-36660152D01*
X59262084Y-36706632D01*
X59292961Y-36770198D01*
X59315006Y-36859819D01*
X59329662Y-36958325D01*
X59342202Y-37168097D01*
X59325636Y-37377699D01*
X59278665Y-37591214D01*
X59199991Y-37812727D01*
X59088318Y-38046322D01*
X58942346Y-38296081D01*
X58868219Y-38410200D01*
X58801814Y-38506680D01*
X58727500Y-38609672D01*
X58650003Y-38713173D01*
X58574047Y-38811179D01*
X58504357Y-38897685D01*
X58445660Y-38966688D01*
X58402679Y-39012185D01*
X58382127Y-39027859D01*
X58362246Y-39016027D01*
X58312971Y-38979491D01*
X58237373Y-38920718D01*
X58138522Y-38842173D01*
X58019489Y-38746320D01*
X57883346Y-38635626D01*
X57733163Y-38512555D01*
X57572011Y-38379574D01*
X57493127Y-38314161D01*
X57328005Y-38176748D01*
X57172898Y-38047128D01*
X57030834Y-37927871D01*
X56904843Y-37821546D01*
X56797955Y-37730721D01*
X56713198Y-37657965D01*
X56653603Y-37605848D01*
X56622199Y-37576938D01*
X56618046Y-37572118D01*
X56628843Y-37546208D01*
X56666788Y-37498497D01*
X56726394Y-37434149D01*
X56802177Y-37358330D01*
X56888652Y-37276205D01*
X56980332Y-37192938D01*
X57071734Y-37113697D01*
X57157370Y-37043644D01*
X57231757Y-36987947D01*
X57255370Y-36971986D01*
X57488219Y-36835499D01*
X57728590Y-36722169D01*
X57971584Y-36632900D01*
X58212303Y-36568594D01*
X58445849Y-36530154D01*
X58667322Y-36518483D01*
X58871826Y-36534485D01*
G36*
X54515690Y-40767825D02*
G01*
X54753583Y-40841518D01*
X55006285Y-40954283D01*
X55240254Y-41085135D01*
X55433766Y-41211535D01*
X55644164Y-41364525D01*
X55862859Y-41536884D01*
X56081260Y-41721392D01*
X56290775Y-41910831D01*
X56482815Y-42097980D01*
X56624985Y-42248855D01*
X56845907Y-42511567D01*
X57026383Y-42763053D01*
X57166578Y-43004026D01*
X57266661Y-43235203D01*
X57326797Y-43457297D01*
X57347155Y-43671024D01*
X57327901Y-43877099D01*
X57269202Y-44076237D01*
X57171225Y-44269153D01*
X57116247Y-44351508D01*
X56965974Y-44529487D01*
X56798306Y-44668939D01*
X56613801Y-44769673D01*
X56413020Y-44831499D01*
X56196521Y-44854229D01*
X55964862Y-44837671D01*
X55791104Y-44801862D01*
X55581420Y-44733619D01*
X55350342Y-44632287D01*
X55100725Y-44499478D01*
X54835421Y-44336807D01*
X54557283Y-44145885D01*
X54328967Y-43975068D01*
X54040734Y-43736958D01*
X53793012Y-43499818D01*
X53584120Y-43261130D01*
X53412378Y-43018378D01*
X53276107Y-42769046D01*
X53173628Y-42510618D01*
X53103259Y-42240577D01*
X53080123Y-42104178D01*
X53070098Y-41886572D01*
X53100056Y-41671180D01*
X53167780Y-41463590D01*
X53271056Y-41269395D01*
X53407666Y-41094184D01*
X53524111Y-40984016D01*
X53698351Y-40862960D01*
X53883937Y-40780772D01*
X54081560Y-40737493D01*
X54291914Y-40733164D01*
X54515690Y-40767825D01*
G37*
X54515690Y-40767825D02*
X54753583Y-40841518D01*
X55006285Y-40954283D01*
X55240254Y-41085135D01*
X55433766Y-41211535D01*
X55644164Y-41364525D01*
X55862859Y-41536884D01*
X56081260Y-41721392D01*
X56290775Y-41910831D01*
X56482815Y-42097980D01*
X56624985Y-42248855D01*
X56845907Y-42511567D01*
X57026383Y-42763053D01*
X57166578Y-43004026D01*
X57266661Y-43235203D01*
X57326797Y-43457297D01*
X57347155Y-43671024D01*
X57327901Y-43877099D01*
X57269202Y-44076237D01*
X57171225Y-44269153D01*
X57116247Y-44351508D01*
X56965974Y-44529487D01*
X56798306Y-44668939D01*
X56613801Y-44769673D01*
X56413020Y-44831499D01*
X56196521Y-44854229D01*
X55964862Y-44837671D01*
X55791104Y-44801862D01*
X55581420Y-44733619D01*
X55350342Y-44632287D01*
X55100725Y-44499478D01*
X54835421Y-44336807D01*
X54557283Y-44145885D01*
X54328967Y-43975068D01*
X54040734Y-43736958D01*
X53793012Y-43499818D01*
X53584120Y-43261130D01*
X53412378Y-43018378D01*
X53276107Y-42769046D01*
X53173628Y-42510618D01*
X53103259Y-42240577D01*
X53080123Y-42104178D01*
X53070098Y-41886572D01*
X53100056Y-41671180D01*
X53167780Y-41463590D01*
X53271056Y-41269395D01*
X53407666Y-41094184D01*
X53524111Y-40984016D01*
X53698351Y-40862960D01*
X53883937Y-40780772D01*
X54081560Y-40737493D01*
X54291914Y-40733164D01*
X54515690Y-40767825D01*
G36*
X46012961Y-51816992D02*
G01*
X46058436Y-51851675D01*
X46127573Y-51906377D01*
X46216003Y-51977491D01*
X46319352Y-52061406D01*
X46433251Y-52154515D01*
X46553326Y-52253207D01*
X46675208Y-52353873D01*
X46794523Y-52452905D01*
X46906901Y-52546693D01*
X47007970Y-52631628D01*
X47093359Y-52704101D01*
X47158695Y-52760502D01*
X47199609Y-52797223D01*
X47211893Y-52810187D01*
X47200229Y-52829053D01*
X47165724Y-52874951D01*
X47112781Y-52942509D01*
X47045803Y-53026357D01*
X46969192Y-53121125D01*
X46887352Y-53221442D01*
X46804685Y-53321937D01*
X46725595Y-53417240D01*
X46654483Y-53501980D01*
X46595754Y-53570786D01*
X46553809Y-53618288D01*
X46533052Y-53639115D01*
X46531925Y-53639617D01*
X46522368Y-53621493D01*
X46506999Y-53576378D01*
X46502200Y-53560242D01*
X46491306Y-53522960D01*
X46469827Y-53449878D01*
X46439178Y-53345793D01*
X46400773Y-53215504D01*
X46356026Y-53063806D01*
X46306351Y-52895497D01*
X46253164Y-52715375D01*
X46233160Y-52647654D01*
X46180305Y-52467857D01*
X46131747Y-52300975D01*
X46088698Y-52151303D01*
X46052370Y-52023136D01*
X46023977Y-51920767D01*
X46004730Y-51848492D01*
X45995841Y-51810606D01*
X45995522Y-51805940D01*
X46012961Y-51816992D01*
G37*
X46012961Y-51816992D02*
X46058436Y-51851675D01*
X46127573Y-51906377D01*
X46216003Y-51977491D01*
X46319352Y-52061406D01*
X46433251Y-52154515D01*
X46553326Y-52253207D01*
X46675208Y-52353873D01*
X46794523Y-52452905D01*
X46906901Y-52546693D01*
X47007970Y-52631628D01*
X47093359Y-52704101D01*
X47158695Y-52760502D01*
X47199609Y-52797223D01*
X47211893Y-52810187D01*
X47200229Y-52829053D01*
X47165724Y-52874951D01*
X47112781Y-52942509D01*
X47045803Y-53026357D01*
X46969192Y-53121125D01*
X46887352Y-53221442D01*
X46804685Y-53321937D01*
X46725595Y-53417240D01*
X46654483Y-53501980D01*
X46595754Y-53570786D01*
X46553809Y-53618288D01*
X46533052Y-53639115D01*
X46531925Y-53639617D01*
X46522368Y-53621493D01*
X46506999Y-53576378D01*
X46502200Y-53560242D01*
X46491306Y-53522960D01*
X46469827Y-53449878D01*
X46439178Y-53345793D01*
X46400773Y-53215504D01*
X46356026Y-53063806D01*
X46306351Y-52895497D01*
X46253164Y-52715375D01*
X46233160Y-52647654D01*
X46180305Y-52467857D01*
X46131747Y-52300975D01*
X46088698Y-52151303D01*
X46052370Y-52023136D01*
X46023977Y-51920767D01*
X46004730Y-51848492D01*
X45995841Y-51810606D01*
X45995522Y-51805940D01*
X46012961Y-51816992D01*
G36*
X46285884Y-37581317D02*
G01*
X54755520Y-37581317D01*
X54767637Y-37731547D01*
X54799688Y-37874212D01*
X54813857Y-37915307D01*
X54830174Y-37957197D01*
X54847130Y-37996449D01*
X54866659Y-38034865D01*
X54890693Y-38074249D01*
X54921166Y-38116402D01*
X54960011Y-38163127D01*
X55009161Y-38216227D01*
X55070549Y-38277504D01*
X55146108Y-38348761D01*
X55237771Y-38431800D01*
X55347471Y-38528424D01*
X55477142Y-38640435D01*
X55628716Y-38769636D01*
X55804126Y-38917830D01*
X56005307Y-39086818D01*
X56234190Y-39278404D01*
X56492709Y-39494390D01*
X56632306Y-39610944D01*
X56876712Y-39815090D01*
X57125149Y-40022795D01*
X57373945Y-40230980D01*
X57619432Y-40436566D01*
X57857940Y-40636476D01*
X58085798Y-40827630D01*
X58299337Y-41006949D01*
X58494886Y-41171355D01*
X58668776Y-41317769D01*
X58817337Y-41443112D01*
X58932650Y-41540703D01*
X59125856Y-41704585D01*
X59289496Y-41843347D01*
X59426316Y-41959222D01*
X59539058Y-42054445D01*
X59630466Y-42131249D01*
X59703286Y-42191869D01*
X59760259Y-42238539D01*
X59804130Y-42273492D01*
X59837644Y-42298962D01*
X59863543Y-42317184D01*
X59884572Y-42330391D01*
X59903474Y-42340818D01*
X59922993Y-42350698D01*
X59934759Y-42356594D01*
X60096247Y-42415112D01*
X60265623Y-42433241D01*
X60438071Y-42410974D01*
X60589477Y-42357526D01*
X60740553Y-42266308D01*
X60866347Y-42147591D01*
X60964212Y-42007528D01*
X61031503Y-41852271D01*
X61065573Y-41687973D01*
X61063776Y-41520787D01*
X61023467Y-41356865D01*
X61021752Y-41352367D01*
X60998453Y-41297008D01*
X60971214Y-41245543D01*
X60936486Y-41194516D01*
X60890721Y-41140472D01*
X60830372Y-41079955D01*
X60751889Y-41009512D01*
X60651725Y-40925686D01*
X60526332Y-40825023D01*
X60372161Y-40704068D01*
X60291921Y-40641687D01*
X60156474Y-40536297D01*
X60032043Y-40438935D01*
X59922503Y-40352673D01*
X59831726Y-40280585D01*
X59763588Y-40225745D01*
X59721961Y-40191225D01*
X59710342Y-40180284D01*
X59725077Y-40162863D01*
X59771930Y-40129587D01*
X59845256Y-40083735D01*
X59939410Y-40028587D01*
X60048748Y-39967422D01*
X60167624Y-39903519D01*
X60290395Y-39840157D01*
X60329650Y-39820498D01*
X60815984Y-39599329D01*
X61317827Y-39411871D01*
X61839205Y-39256897D01*
X62384141Y-39133183D01*
X62837900Y-39056164D01*
X63044389Y-39018965D01*
X63214486Y-38971520D01*
X63353515Y-38910778D01*
X63466803Y-38833685D01*
X63559674Y-38737186D01*
X63637454Y-38618230D01*
X63653048Y-38588783D01*
X63714607Y-38426148D01*
X63738092Y-38260494D01*
X63726151Y-38097176D01*
X63681429Y-37941546D01*
X63606573Y-37798959D01*
X63504229Y-37674768D01*
X63377043Y-37574328D01*
X63227663Y-37502992D01*
X63100800Y-37471518D01*
X62964688Y-37460699D01*
X62794651Y-37464394D01*
X62596165Y-37481639D01*
X62374708Y-37511466D01*
X62135755Y-37552911D01*
X61884784Y-37605006D01*
X61627270Y-37666787D01*
X61368691Y-37737287D01*
X61114522Y-37815540D01*
X61073600Y-37829059D01*
X60976887Y-37860958D01*
X60894997Y-37887259D01*
X60836131Y-37905380D01*
X60808488Y-37912737D01*
X60807854Y-37912784D01*
X60806085Y-37893809D01*
X60813583Y-37842863D01*
X60828841Y-37768915D01*
X60840008Y-37721633D01*
X60886457Y-37507373D01*
X60915538Y-37306100D01*
X60928943Y-37100731D01*
X60928367Y-36874181D01*
X60927306Y-36840918D01*
X60916712Y-36653142D01*
X60897451Y-36495062D01*
X60866678Y-36354442D01*
X60821553Y-36219046D01*
X60759231Y-36076638D01*
X60741140Y-36039534D01*
X60608299Y-35818136D01*
X60439206Y-35614211D01*
X60237442Y-35430899D01*
X60006590Y-35271343D01*
X59750231Y-35138681D01*
X59680061Y-35109070D01*
X59396428Y-35017109D01*
X59092252Y-34961222D01*
X58768952Y-34941295D01*
X58427947Y-34957212D01*
X58070657Y-35008855D01*
X57698501Y-35096111D01*
X57312897Y-35218862D01*
X57038234Y-35324813D01*
X56868281Y-35397813D01*
X56713477Y-35471366D01*
X56569201Y-35548944D01*
X56430837Y-35634021D01*
X56293766Y-35730068D01*
X56153370Y-35840559D01*
X56005031Y-35968966D01*
X55844131Y-36118761D01*
X55666052Y-36293416D01*
X55466175Y-36496405D01*
X55428450Y-36535267D01*
X55282745Y-36686125D01*
X55163657Y-36810949D01*
X55067950Y-36913720D01*
X54992388Y-36998418D01*
X54933735Y-37069026D01*
X54888754Y-37129524D01*
X54854211Y-37183893D01*
X54826869Y-37236115D01*
X54803493Y-37290170D01*
X54793121Y-37316904D01*
X54763845Y-37438208D01*
X54755520Y-37581317D01*
X46285884Y-37581317D01*
X46412675Y-37410508D01*
X46605194Y-37151029D01*
X46815703Y-36867196D01*
X47043177Y-36560392D01*
X47286590Y-36232001D01*
X47544917Y-35883407D01*
X47817133Y-35515993D01*
X48102212Y-35131144D01*
X48399130Y-34730243D01*
X48706861Y-34314673D01*
X49024379Y-33885818D01*
X49350661Y-33445063D01*
X49684679Y-32993791D01*
X50025410Y-32533385D01*
X50371827Y-32065230D01*
X50722906Y-31590708D01*
X51077621Y-31111205D01*
X51258060Y-30867261D01*
X56132670Y-24276823D01*
X56073897Y-24157428D01*
X56025616Y-24019959D01*
X56003099Y-23865599D01*
X56007633Y-23711286D01*
X56031502Y-23599561D01*
X56057553Y-23540034D01*
X56104768Y-23453355D01*
X56168742Y-23346110D01*
X56245066Y-23224884D01*
X56329336Y-23096265D01*
X56417145Y-22966837D01*
X56504086Y-22843187D01*
X56585754Y-22731900D01*
X56657740Y-22639563D01*
X56715640Y-22572760D01*
X56724727Y-22563456D01*
X56865163Y-22447517D01*
X57009296Y-22362373D01*
X57098617Y-22320608D01*
X57170547Y-22295258D01*
X57243851Y-22281559D01*
X57337298Y-22274745D01*
X57357869Y-22273876D01*
X57542285Y-22266552D01*
X57553590Y-22199793D01*
X57555654Y-22166630D01*
X57557573Y-22094134D01*
X57559348Y-21984924D01*
X57560979Y-21841619D01*
X57562466Y-21666836D01*
X57563812Y-21463195D01*
X57565016Y-21233314D01*
X57566080Y-20979810D01*
X57567004Y-20705303D01*
X57567789Y-20412412D01*
X57568436Y-20103754D01*
X57568946Y-19781948D01*
X57569320Y-19449612D01*
X57569558Y-19109366D01*
X57569661Y-18763827D01*
X57569630Y-18415613D01*
X57569467Y-18067344D01*
X57569170Y-17721638D01*
X57568743Y-17381113D01*
X57568185Y-17048388D01*
X57567497Y-16726081D01*
X57566680Y-16416811D01*
X57565735Y-16123195D01*
X57564663Y-15847854D01*
X57563464Y-15593404D01*
X57562140Y-15362465D01*
X57560690Y-15157655D01*
X57559117Y-14981592D01*
X57557421Y-14836895D01*
X57555602Y-14726182D01*
X57553662Y-14652072D01*
X57551601Y-14617184D01*
X57551199Y-14615215D01*
X57535596Y-14577514D01*
X57503919Y-14508267D01*
X57459148Y-14413730D01*
X57404268Y-14300158D01*
X57342259Y-14173807D01*
X57303954Y-14096632D01*
X57213830Y-13913035D01*
X57142455Y-13759488D01*
X57087892Y-13629103D01*
X57048205Y-13514996D01*
X57021457Y-13410278D01*
X57005712Y-13308064D01*
X56999033Y-13201468D01*
X56999484Y-13083603D01*
X57001641Y-13021567D01*
X57013751Y-12850128D01*
X57036788Y-12705379D01*
X57074493Y-12572292D01*
X57130605Y-12435840D01*
X57164952Y-12365174D01*
X57293796Y-12155911D01*
X57456161Y-11968316D01*
X57647170Y-11806231D01*
X57861946Y-11673498D01*
X58095614Y-11573959D01*
X58213657Y-11538945D01*
X58279524Y-11523786D01*
X58346762Y-11512640D01*
X58423396Y-11504937D01*
X58517455Y-11500107D01*
X58636965Y-11497581D01*
X58789953Y-11496789D01*
X58807652Y-11496784D01*
X59000923Y-11498507D01*
X59159812Y-11504376D01*
X59292154Y-11515436D01*
X59405786Y-11532735D01*
X59508546Y-11557318D01*
X59608271Y-11590233D01*
X59660922Y-11610743D01*
X59801404Y-11676235D01*
X59930442Y-11755717D01*
X60053511Y-11854144D01*
X60176090Y-11976472D01*
X60303655Y-12127657D01*
X60441684Y-12312655D01*
X60450735Y-12325385D01*
X60474988Y-12359684D01*
X60523163Y-12427916D01*
X60594791Y-12529415D01*
X60689402Y-12663515D01*
X60806526Y-12829549D01*
X60945693Y-13026852D01*
X61106433Y-13254756D01*
X61288277Y-13512596D01*
X61490755Y-13799705D01*
X61713396Y-14115417D01*
X61955732Y-14459066D01*
X62217292Y-14829985D01*
X62497607Y-15227508D01*
X62796207Y-15650969D01*
X63112622Y-16099701D01*
X63446382Y-16573039D01*
X63797017Y-17070316D01*
X64164058Y-17590865D01*
X64547035Y-18134020D01*
X64945478Y-18699116D01*
X65358917Y-19285485D01*
X65786883Y-19892462D01*
X66228905Y-20519380D01*
X66684514Y-21165573D01*
X67153240Y-21830374D01*
X67634613Y-22513118D01*
X68128164Y-23213137D01*
X68633423Y-23929766D01*
X69149919Y-24662339D01*
X69677183Y-25410189D01*
X70214746Y-26172649D01*
X70762137Y-26949054D01*
X71318887Y-27738737D01*
X71884526Y-28541032D01*
X72458584Y-29355273D01*
X73040591Y-30180793D01*
X73630078Y-31016926D01*
X74226574Y-31863006D01*
X74829610Y-32718366D01*
X74969966Y-32917450D01*
X75149276Y-33171808D01*
X75305876Y-33394101D01*
X75441441Y-33586865D01*
X75557647Y-33752641D01*
X75656170Y-33893964D01*
X75738685Y-34013375D01*
X75806867Y-34113411D01*
X75862394Y-34196610D01*
X75906939Y-34265511D01*
X75942179Y-34322651D01*
X75969789Y-34370569D01*
X75991445Y-34411803D01*
X76008823Y-34448891D01*
X76023598Y-34484371D01*
X76037446Y-34520782D01*
X76048676Y-34551447D01*
X76068411Y-34607381D01*
X76085608Y-34661915D01*
X76100397Y-34718165D01*
X76112906Y-34779245D01*
X76123267Y-34848268D01*
X76131607Y-34928349D01*
X76138056Y-35022602D01*
X76142745Y-35134141D01*
X76145802Y-35266080D01*
X76147357Y-35421534D01*
X76147539Y-35603616D01*
X76146478Y-35815441D01*
X76144303Y-36060122D01*
X76141144Y-36340775D01*
X76137131Y-36660513D01*
X76136949Y-36674534D01*
X76116675Y-38240867D01*
X76060233Y-38410200D01*
X75957745Y-38654080D01*
X75821817Y-38875917D01*
X75655908Y-39072575D01*
X75463477Y-39240920D01*
X75247982Y-39377816D01*
X75012883Y-39480128D01*
X74821145Y-39533270D01*
X74683926Y-39553216D01*
X74525129Y-39562032D01*
X74364086Y-39559476D01*
X74220126Y-39545308D01*
X74195122Y-39541067D01*
X74049221Y-39533571D01*
X73884138Y-39560313D01*
X73704231Y-39620345D01*
X73589733Y-39672575D01*
X73537058Y-39700299D01*
X73487262Y-39730373D01*
X73435723Y-39766714D01*
X73377818Y-39813242D01*
X73308923Y-39873876D01*
X73224417Y-39952536D01*
X73119676Y-40053140D01*
X72990079Y-40179608D01*
X72979826Y-40189659D01*
X72538526Y-40622354D01*
X72593588Y-40733360D01*
X72620427Y-40793169D01*
X72636930Y-40849405D01*
X72645484Y-40915681D01*
X72648475Y-41005609D01*
X72648650Y-41047331D01*
X72647427Y-41146406D01*
X72641923Y-41217056D01*
X72629391Y-41273160D01*
X72607082Y-41328598D01*
X72583669Y-41375414D01*
X72551151Y-41429553D01*
X72497270Y-41509863D01*
X72427140Y-41609483D01*
X72345873Y-41721549D01*
X72258583Y-41839202D01*
X72170383Y-41955577D01*
X72086385Y-42063815D01*
X72011702Y-42157052D01*
X71951448Y-42228427D01*
X71932419Y-42249439D01*
X71830075Y-42339805D01*
X71701630Y-42424912D01*
X71563084Y-42495092D01*
X71466886Y-42530700D01*
X71292815Y-42562746D01*
X71113422Y-42557758D01*
X70950007Y-42518788D01*
X70860030Y-42486648D01*
X70777689Y-42596841D01*
X70760010Y-42620779D01*
X70718031Y-42677783D01*
X70652522Y-42766807D01*
X70564250Y-42886805D01*
X70453986Y-43036731D01*
X70322498Y-43215538D01*
X70170555Y-43422181D01*
X69998926Y-43655614D01*
X69808380Y-43914789D01*
X69599687Y-44198662D01*
X69373614Y-44506186D01*
X69130932Y-44836314D01*
X68872410Y-45188000D01*
X68598815Y-45560199D01*
X68310918Y-45951865D01*
X68009488Y-46361950D01*
X67695292Y-46789409D01*
X67369101Y-47233196D01*
X67031683Y-47692265D01*
X66683808Y-48165569D01*
X66326244Y-48652062D01*
X65959761Y-49150699D01*
X65585127Y-49660432D01*
X65203111Y-50180216D01*
X64814483Y-50709005D01*
X64511854Y-51120784D01*
X64001608Y-51814996D01*
X63515963Y-52475593D01*
X63054515Y-53103121D01*
X62616862Y-53698125D01*
X62202600Y-54261149D01*
X61811325Y-54792740D01*
X61442635Y-55293442D01*
X61096126Y-55763801D01*
X60771395Y-56204362D01*
X60468038Y-56615669D01*
X60185653Y-56998269D01*
X59923835Y-57352706D01*
X59682181Y-57679526D01*
X59460289Y-57979273D01*
X59257755Y-58252494D01*
X59074175Y-58499733D01*
X58909146Y-58721535D01*
X58762266Y-58918446D01*
X58633130Y-59091011D01*
X58521335Y-59239775D01*
X58426478Y-59365283D01*
X58348156Y-59468081D01*
X58285965Y-59548713D01*
X58239502Y-59607726D01*
X58208364Y-59645663D01*
X58193872Y-59661534D01*
X57997733Y-59819422D01*
X57781224Y-59943991D01*
X57550234Y-60032831D01*
X57310653Y-60083535D01*
X57133777Y-60095083D01*
X57089942Y-60093076D01*
X57007455Y-60087148D01*
X56889783Y-60077614D01*
X56740395Y-60064788D01*
X56562759Y-60048985D01*
X56360343Y-60030519D01*
X56136615Y-60009704D01*
X55895043Y-59986856D01*
X55639097Y-59962287D01*
X55372242Y-59936314D01*
X55249943Y-59924293D01*
X54873605Y-59887509D01*
X54539006Y-59855486D01*
X54245824Y-59828197D01*
X53993735Y-59805613D01*
X53782418Y-59787708D01*
X53611549Y-59774454D01*
X53480806Y-59765824D01*
X53389867Y-59761789D01*
X53344650Y-59761898D01*
X53168425Y-59788112D01*
X53012282Y-59849318D01*
X52868996Y-59948648D01*
X52827748Y-59986053D01*
X52808804Y-60008279D01*
X52764444Y-60062882D01*
X52695395Y-60148939D01*
X52602383Y-60265530D01*
X52486134Y-60411732D01*
X52347375Y-60586624D01*
X52186831Y-60789285D01*
X52005230Y-61018793D01*
X51803298Y-61274227D01*
X51581760Y-61554666D01*
X51341344Y-61859188D01*
X51082774Y-62186872D01*
X50806779Y-62536795D01*
X50514083Y-62908038D01*
X50205414Y-63299678D01*
X49881497Y-63710793D01*
X49543059Y-64140463D01*
X49190826Y-64587767D01*
X48825525Y-65051781D01*
X48447881Y-65531586D01*
X48058621Y-66026260D01*
X47658472Y-66534881D01*
X47248159Y-67056528D01*
X46828409Y-67590280D01*
X46399948Y-68135214D01*
X45963503Y-68690410D01*
X45519799Y-69254946D01*
X45069564Y-69827901D01*
X44866682Y-70086117D01*
X44413853Y-70662443D01*
X43967282Y-71230742D01*
X43527694Y-71790092D01*
X43095815Y-72339575D01*
X42672367Y-72878268D01*
X42258075Y-73405252D01*
X41853665Y-73919607D01*
X41459861Y-74420411D01*
X41077387Y-74906744D01*
X40706967Y-75377687D01*
X40349327Y-75832318D01*
X40005190Y-76269718D01*
X39675282Y-76688965D01*
X39360326Y-77089139D01*
X39061048Y-77469320D01*
X38778171Y-77828588D01*
X38512421Y-78166021D01*
X38264522Y-78480700D01*
X38035198Y-78771705D01*
X37825174Y-79038114D01*
X37635174Y-79279007D01*
X37465924Y-79493464D01*
X37318147Y-79680565D01*
X37192567Y-79839388D01*
X37089911Y-79969015D01*
X37010901Y-80068523D01*
X36956263Y-80136993D01*
X36926721Y-80173504D01*
X36921806Y-80179264D01*
X36752167Y-80330715D01*
X36554704Y-80460283D01*
X36341245Y-80560916D01*
X36207243Y-80605356D01*
X36099077Y-80626735D01*
X35963041Y-80640935D01*
X35812066Y-80647807D01*
X35659079Y-80647204D01*
X35517009Y-80638977D01*
X35398787Y-80622979D01*
X35363567Y-80615031D01*
X35235036Y-80571491D01*
X35091552Y-80506884D01*
X34948846Y-80429304D01*
X34822653Y-80346845D01*
X34782528Y-80316098D01*
X34743887Y-80280069D01*
X34680924Y-80215501D01*
X34596857Y-80126005D01*
X34494901Y-80015194D01*
X34378275Y-79886679D01*
X34250196Y-79744073D01*
X34113880Y-79590988D01*
X33972545Y-79431035D01*
X33829408Y-79267826D01*
X33687685Y-79104974D01*
X33550595Y-78946091D01*
X33421354Y-78794788D01*
X33309970Y-78662788D01*
X33162250Y-78466242D01*
X33051142Y-78270904D01*
X32972064Y-78068226D01*
X32950740Y-77992544D01*
X32934104Y-77919347D01*
X32922276Y-77844387D01*
X32914527Y-77758441D01*
X32910134Y-77652286D01*
X32908367Y-77516699D01*
X32908234Y-77452939D01*
X32908678Y-77406437D01*
X32909990Y-77319617D01*
X32912136Y-77194037D01*
X32915084Y-77031257D01*
X32918802Y-76832834D01*
X32923255Y-76600327D01*
X32928412Y-76335295D01*
X32934240Y-76039296D01*
X32940706Y-75713889D01*
X32947777Y-75360632D01*
X32955420Y-74981084D01*
X32963604Y-74576803D01*
X32972294Y-74149348D01*
X32981459Y-73700278D01*
X32991065Y-73231151D01*
X33001080Y-72743525D01*
X33011471Y-72238959D01*
X33022206Y-71719012D01*
X33033250Y-71185243D01*
X33044573Y-70639208D01*
X33056141Y-70082469D01*
X33067921Y-69516582D01*
X33079881Y-68943106D01*
X33091987Y-68363600D01*
X33104207Y-67779623D01*
X33116509Y-67192733D01*
X33128859Y-66604488D01*
X33141225Y-66016448D01*
X33153575Y-65430170D01*
X33165874Y-64847213D01*
X33178091Y-64269136D01*
X33190193Y-63697497D01*
X33202147Y-63133855D01*
X33213920Y-62579768D01*
X33225479Y-62036795D01*
X33236793Y-61506495D01*
X33247828Y-60990425D01*
X33258550Y-60490145D01*
X33268929Y-60007213D01*
X33278930Y-59543188D01*
X33288521Y-59099628D01*
X33297670Y-58678092D01*
X33306343Y-58280138D01*
X33313398Y-57957976D01*
X37675015Y-57957976D01*
X37682504Y-58037285D01*
X37689868Y-58081455D01*
X37712619Y-58181987D01*
X37745169Y-58270381D01*
X37792317Y-58353399D01*
X37858867Y-58437802D01*
X37949620Y-58530352D01*
X38069376Y-58637810D01*
X38109063Y-58671748D01*
X38183081Y-58734824D01*
X38284184Y-58821372D01*
X38407451Y-58927160D01*
X38547959Y-59047954D01*
X38700787Y-59179521D01*
X38861011Y-59317628D01*
X39023710Y-59458042D01*
X39108899Y-59531635D01*
X39286130Y-59684646D01*
X39476373Y-59848615D01*
X39672335Y-60017275D01*
X39866723Y-60184358D01*
X40052243Y-60343595D01*
X40221604Y-60488719D01*
X40367510Y-60613462D01*
X40389587Y-60632302D01*
X40549615Y-60769118D01*
X40691574Y-60891325D01*
X40820230Y-61003295D01*
X40940354Y-61109400D01*
X41056711Y-61214013D01*
X41174071Y-61321504D01*
X41297201Y-61436247D01*
X41430869Y-61562613D01*
X41579843Y-61704974D01*
X41748891Y-61867702D01*
X41942781Y-62055169D01*
X41969060Y-62080616D01*
X42199315Y-62302158D01*
X42403905Y-62495958D01*
X42582256Y-62661496D01*
X42733792Y-62798251D01*
X42857937Y-62905703D01*
X42954116Y-62983333D01*
X43014873Y-63026381D01*
X43128609Y-63081928D01*
X43255872Y-63110699D01*
X43407990Y-63115233D01*
X43410823Y-63115116D01*
X43514930Y-63106600D01*
X43599322Y-63087565D01*
X43686326Y-63052467D01*
X43711068Y-63040549D01*
X43854681Y-62948073D01*
X43981379Y-62823844D01*
X44081539Y-62677811D01*
X44103011Y-62635450D01*
X44131063Y-62568385D01*
X44147751Y-62504633D01*
X44155813Y-62428910D01*
X44157984Y-62328534D01*
X44156419Y-62229606D01*
X44149389Y-62157755D01*
X44134005Y-62097806D01*
X44107380Y-62034580D01*
X44098595Y-62016413D01*
X44080418Y-61980978D01*
X44060669Y-61947849D01*
X44035878Y-61913484D01*
X44002574Y-61874341D01*
X43957288Y-61826878D01*
X43896549Y-61767552D01*
X43816888Y-61692819D01*
X43714834Y-61599139D01*
X43586918Y-61482969D01*
X43491567Y-61396709D01*
X43403265Y-61316057D01*
X43300908Y-61221194D01*
X43188442Y-61115908D01*
X43069811Y-61003983D01*
X42948959Y-60889205D01*
X42829829Y-60775361D01*
X42716368Y-60666237D01*
X42612518Y-60565618D01*
X42522225Y-60477291D01*
X42449432Y-60405041D01*
X42398084Y-60352655D01*
X42372125Y-60323918D01*
X42369734Y-60319908D01*
X42379798Y-60297786D01*
X42408469Y-60242924D01*
X42453467Y-60159406D01*
X42512510Y-60051314D01*
X42583317Y-59922728D01*
X42663606Y-59777731D01*
X42751096Y-59620406D01*
X42843506Y-59454834D01*
X42938554Y-59285097D01*
X43033960Y-59115276D01*
X43127442Y-58949455D01*
X43216718Y-58791715D01*
X43299508Y-58646138D01*
X43373529Y-58516806D01*
X43436502Y-58407801D01*
X43477013Y-58338617D01*
X43531177Y-58248707D01*
X43597080Y-58142111D01*
X43671239Y-58024179D01*
X43750173Y-57900262D01*
X43830400Y-57775713D01*
X43908439Y-57655882D01*
X43980808Y-57546121D01*
X44044026Y-57451780D01*
X44094611Y-57378212D01*
X44129081Y-57330768D01*
X44142909Y-57315094D01*
X44163392Y-57324833D01*
X44210904Y-57357647D01*
X44279998Y-57409458D01*
X44365226Y-57476189D01*
X44454650Y-57548439D01*
X44554325Y-57629133D01*
X44679315Y-57728809D01*
X44821218Y-57840855D01*
X44971631Y-57958657D01*
X45122149Y-58075604D01*
X45237817Y-58164733D01*
X45376601Y-58271501D01*
X45516999Y-58380038D01*
X45651849Y-58484767D01*
X45773988Y-58580115D01*
X45876256Y-58660507D01*
X45946900Y-58716678D01*
X46067059Y-58810980D01*
X46164033Y-58880408D01*
X46245931Y-58928597D01*
X46320861Y-58959184D01*
X46396931Y-58975805D01*
X46482251Y-58982095D01*
X46539567Y-58982440D01*
X46693354Y-58972520D01*
X46821768Y-58942479D01*
X46936698Y-58887222D01*
X47050034Y-58801656D01*
X47123659Y-58732209D01*
X47232270Y-58610692D01*
X47306315Y-58493874D01*
X47350588Y-58370870D01*
X47369885Y-58230798D01*
X47371676Y-58169284D01*
X47368512Y-58069403D01*
X47354777Y-57989624D01*
X47326056Y-57908163D01*
X47312472Y-57877054D01*
X47279227Y-57812926D01*
X47235962Y-57749141D01*
X47179045Y-57682355D01*
X47104844Y-57609224D01*
X47009726Y-57526404D01*
X46890060Y-57430553D01*
X46742213Y-57318327D01*
X46562552Y-57186382D01*
X46560695Y-57185034D01*
X46328815Y-57016449D01*
X46126432Y-56868590D01*
X45948667Y-56737480D01*
X45790641Y-56619139D01*
X45647474Y-56509589D01*
X45514286Y-56404850D01*
X45386199Y-56300944D01*
X45258332Y-56193892D01*
X45125808Y-56079715D01*
X44983745Y-55954435D01*
X44827265Y-55814073D01*
X44651489Y-55654649D01*
X44451538Y-55472186D01*
X44380567Y-55407291D01*
X44236330Y-55275741D01*
X44088913Y-55141972D01*
X43944466Y-55011516D01*
X43809137Y-54889905D01*
X43689078Y-54782671D01*
X43590436Y-54695347D01*
X43545273Y-54655839D01*
X43366537Y-54497974D01*
X43190399Y-54337584D01*
X43021475Y-54179173D01*
X42864381Y-54027244D01*
X42723734Y-53886299D01*
X42604150Y-53760844D01*
X42510244Y-53655380D01*
X42472754Y-53609502D01*
X42354917Y-53468762D01*
X42246776Y-53363330D01*
X42141633Y-53289486D01*
X42032787Y-53243510D01*
X41913538Y-53221681D01*
X41777188Y-53220280D01*
X41772285Y-53220541D01*
X41598252Y-53245451D01*
X41448111Y-53301711D01*
X41313983Y-53392695D01*
X41264857Y-53437781D01*
X41185885Y-53523556D01*
X41134004Y-53603744D01*
X41104093Y-53691321D01*
X41091032Y-53799262D01*
X41089150Y-53883034D01*
X41092071Y-53986981D01*
X41102653Y-54080063D01*
X41123626Y-54171664D01*
X41157718Y-54271165D01*
X41207660Y-54387948D01*
X41276179Y-54531396D01*
X41280025Y-54539200D01*
X41332883Y-54643175D01*
X41384939Y-54737154D01*
X41439595Y-54824986D01*
X41500253Y-54910521D01*
X41570315Y-54997609D01*
X41653181Y-55090097D01*
X41752256Y-55191837D01*
X41870939Y-55306676D01*
X42012633Y-55438466D01*
X42180740Y-55591054D01*
X42319716Y-55715665D01*
X42460129Y-55841908D01*
X42590094Y-55960225D01*
X42706312Y-56067507D01*
X42805488Y-56160641D01*
X42884323Y-56236517D01*
X42939522Y-56292025D01*
X42967787Y-56324053D01*
X42970837Y-56330027D01*
X42958452Y-56357298D01*
X42925742Y-56412195D01*
X42877020Y-56487921D01*
X42816598Y-56577676D01*
X42782908Y-56626316D01*
X42667813Y-56794967D01*
X42546725Y-56980544D01*
X42417741Y-57186222D01*
X42278954Y-57415176D01*
X42128458Y-57670579D01*
X41964348Y-57955607D01*
X41784718Y-58273433D01*
X41660650Y-58495663D01*
X41564567Y-58667866D01*
X41474472Y-58828145D01*
X41392488Y-58972808D01*
X41320739Y-59098164D01*
X41261348Y-59200521D01*
X41216438Y-59276188D01*
X41188132Y-59321473D01*
X41178831Y-59333348D01*
X41159241Y-59319361D01*
X41114318Y-59280358D01*
X41049040Y-59220879D01*
X40968381Y-59145463D01*
X40877321Y-59058648D01*
X40871444Y-59052992D01*
X40782786Y-58969167D01*
X40668590Y-58863596D01*
X40535379Y-58742175D01*
X40389676Y-58610800D01*
X40238006Y-58475368D01*
X40086890Y-58341775D01*
X40010840Y-58275117D01*
X39782680Y-58075648D01*
X39584082Y-57902008D01*
X39412519Y-57752412D01*
X39265461Y-57625080D01*
X39140380Y-57518229D01*
X39034748Y-57430077D01*
X38946037Y-57358841D01*
X38871718Y-57302739D01*
X38809264Y-57259989D01*
X38756145Y-57228809D01*
X38709834Y-57207417D01*
X38667801Y-57194030D01*
X38627520Y-57186866D01*
X38586461Y-57184142D01*
X38542096Y-57184077D01*
X38491897Y-57184889D01*
X38464484Y-57185066D01*
X38362879Y-57186236D01*
X38290793Y-57191297D01*
X38235439Y-57202578D01*
X38184032Y-57222409D01*
X38140932Y-57244000D01*
X37978274Y-57351524D01*
X37848533Y-57484715D01*
X37753137Y-57641784D01*
X37699255Y-57796224D01*
X37680343Y-57885379D01*
X37675015Y-57957976D01*
X33313398Y-57957976D01*
X33314508Y-57907324D01*
X33322132Y-57561210D01*
X33329183Y-57243354D01*
X33335626Y-56955314D01*
X33341431Y-56698649D01*
X33346564Y-56474918D01*
X33350992Y-56285679D01*
X33354683Y-56132490D01*
X33357603Y-56016911D01*
X33359721Y-55940499D01*
X33361003Y-55904813D01*
X33361024Y-55904450D01*
X33380635Y-55720732D01*
X33418673Y-55555746D01*
X33480129Y-55391082D01*
X33527454Y-55290502D01*
X33547049Y-55257005D01*
X33584957Y-55198490D01*
X33641567Y-55114412D01*
X33717267Y-55004227D01*
X33812445Y-54867388D01*
X33927490Y-54703350D01*
X34062789Y-54511569D01*
X34218731Y-54291499D01*
X34395704Y-54042596D01*
X34594095Y-53764313D01*
X34814293Y-53456105D01*
X35056687Y-53117428D01*
X35321664Y-52747737D01*
X35609613Y-52346485D01*
X35920921Y-51913128D01*
X36255976Y-51447122D01*
X36615168Y-50947919D01*
X36970838Y-50453918D01*
X37049779Y-50344302D01*
X44101228Y-50344302D01*
X44105390Y-50433221D01*
X44117315Y-50534529D01*
X44137688Y-50653361D01*
X44167195Y-50794850D01*
X44206519Y-50964130D01*
X44256346Y-51166336D01*
X44286622Y-51286153D01*
X44371963Y-51620693D01*
X44464063Y-51979474D01*
X44560474Y-52353077D01*
X44658748Y-52732081D01*
X44756438Y-53107065D01*
X44851094Y-53468608D01*
X44940270Y-53807291D01*
X45016460Y-54094700D01*
X45075029Y-54323154D01*
X45127508Y-54544458D01*
X45171757Y-54749012D01*
X45205642Y-54927213D01*
X45216638Y-54994284D01*
X45253041Y-55211703D01*
X45290466Y-55392232D01*
X45330875Y-55541306D01*
X45376234Y-55664356D01*
X45428506Y-55766816D01*
X45489655Y-55854120D01*
X45552200Y-55922558D01*
X45618438Y-55980061D01*
X45689901Y-56031052D01*
X45724753Y-56051088D01*
X45833232Y-56085155D01*
X45962329Y-56093872D01*
X46098794Y-56077284D01*
X46194814Y-56049459D01*
X46285118Y-56012496D01*
X46373412Y-55968435D01*
X46462236Y-55914850D01*
X46554133Y-55849314D01*
X46651644Y-55769401D01*
X46757309Y-55672684D01*
X46873672Y-55556738D01*
X47003272Y-55419136D01*
X47148652Y-55257452D01*
X47312352Y-55069260D01*
X47496915Y-54852133D01*
X47688045Y-54623867D01*
X47817802Y-54468183D01*
X47940221Y-54321525D01*
X48052445Y-54187300D01*
X48151616Y-54068916D01*
X48234878Y-53969779D01*
X48299373Y-53893297D01*
X48342244Y-53842878D01*
X48360013Y-53822561D01*
X48371871Y-53812257D01*
X48386072Y-53808184D01*
X48406339Y-53812939D01*
X48436397Y-53829119D01*
X48479967Y-53859321D01*
X48540774Y-53906141D01*
X48622541Y-53972176D01*
X48728992Y-54060022D01*
X48863849Y-54172277D01*
X48875982Y-54182395D01*
X49045574Y-54322820D01*
X49187795Y-54438020D01*
X49306882Y-54530936D01*
X49407070Y-54604504D01*
X49492594Y-54661664D01*
X49567691Y-54705354D01*
X49636596Y-54738512D01*
X49703546Y-54764079D01*
X49724101Y-54770776D01*
X49865432Y-54798526D01*
X50016214Y-54799824D01*
X50160323Y-54775569D01*
X50254317Y-54741155D01*
X50355199Y-54677458D01*
X50459979Y-54586148D01*
X50557172Y-54479053D01*
X50635294Y-54368002D01*
X50659012Y-54324345D01*
X50711856Y-54171607D01*
X50728349Y-54010786D01*
X50709385Y-53850963D01*
X50655861Y-53701218D01*
X50586876Y-53592402D01*
X50540503Y-53541114D01*
X50465968Y-53468685D01*
X50362280Y-53374238D01*
X50228448Y-53256895D01*
X50063481Y-53115779D01*
X49866387Y-52950013D01*
X49779983Y-52877980D01*
X49675307Y-52790595D01*
X49582514Y-52712543D01*
X49506241Y-52647772D01*
X49451121Y-52600228D01*
X49421791Y-52573861D01*
X49418234Y-52569901D01*
X49429388Y-52550625D01*
X49459695Y-52503627D01*
X49504422Y-52436134D01*
X49554552Y-52361693D01*
X49668198Y-52170992D01*
X49741691Y-51992768D01*
X49775041Y-51826131D01*
X49768261Y-51670185D01*
X49721364Y-51524037D01*
X49634362Y-51386796D01*
X49568777Y-51314145D01*
X49490617Y-51244961D01*
X49401628Y-51179014D01*
X49322499Y-51131367D01*
X49244671Y-51096063D01*
X49176246Y-51076688D01*
X49097457Y-51068853D01*
X49036390Y-51067867D01*
X48948809Y-51069846D01*
X48885840Y-51078876D01*
X48829829Y-51099590D01*
X48763124Y-51136626D01*
X48754285Y-51141950D01*
X48689751Y-51186391D01*
X48606231Y-51251619D01*
X48514820Y-51328634D01*
X48431856Y-51403504D01*
X48349162Y-51480219D01*
X48290888Y-51531279D01*
X48251141Y-51560577D01*
X48224023Y-51572004D01*
X48203639Y-51569452D01*
X48191369Y-51562254D01*
X48169108Y-51544527D01*
X48116819Y-51501806D01*
X48037015Y-51436170D01*
X47932211Y-51349701D01*
X47804921Y-51244480D01*
X47657659Y-51122586D01*
X47492941Y-50986100D01*
X47313279Y-50837103D01*
X47121189Y-50677675D01*
X46919185Y-50509897D01*
X46826489Y-50432867D01*
X46606830Y-50250752D01*
X46397468Y-50078052D01*
X46200830Y-49916724D01*
X46019341Y-49768722D01*
X45855429Y-49636002D01*
X45711521Y-49520520D01*
X45590042Y-49424232D01*
X45493419Y-49349092D01*
X45424078Y-49297057D01*
X45384447Y-49270081D01*
X45381954Y-49268700D01*
X45316217Y-49236601D01*
X45258926Y-49217510D01*
X45194518Y-49208161D01*
X45107432Y-49205289D01*
X45079298Y-49205200D01*
X44984903Y-49206800D01*
X44915229Y-49214320D01*
X44852702Y-49231837D01*
X44779750Y-49263430D01*
X44735458Y-49284995D01*
X44583083Y-49381716D01*
X44441952Y-49512169D01*
X44318240Y-49668057D01*
X44218122Y-49841083D01*
X44147773Y-50022949D01*
X44128474Y-50100534D01*
X44113455Y-50183092D01*
X44104145Y-50262637D01*
X44101228Y-50344302D01*
X37049779Y-50344302D01*
X37292078Y-50007852D01*
X37625034Y-49545507D01*
X37967506Y-49069934D01*
X38317299Y-48584187D01*
X38672212Y-48091319D01*
X38807493Y-47903450D01*
X46255827Y-47903450D01*
X46269702Y-48074962D01*
X46311459Y-48221538D01*
X46384712Y-48352929D01*
X46453993Y-48438178D01*
X46585822Y-48555626D01*
X46732181Y-48634337D01*
X46895121Y-48674982D01*
X47076692Y-48678231D01*
X47158524Y-48668678D01*
X47313811Y-48646565D01*
X47457413Y-48629912D01*
X47597895Y-48618362D01*
X47743825Y-48611558D01*
X47903769Y-48609144D01*
X48086293Y-48610762D01*
X48299963Y-48616056D01*
X48369371Y-48618241D01*
X48549620Y-48622980D01*
X48759999Y-48626617D01*
X48988316Y-48629060D01*
X49222380Y-48630217D01*
X49449999Y-48629996D01*
X49658982Y-48628305D01*
X49674679Y-48628102D01*
X49902840Y-48625724D01*
X50089320Y-48625269D01*
X50234728Y-48626745D01*
X50339674Y-48630164D01*
X50404765Y-48635535D01*
X50428334Y-48641126D01*
X50460862Y-48676826D01*
X50480511Y-48745651D01*
X50483302Y-48765102D01*
X50488982Y-48806991D01*
X50500060Y-48885969D01*
X50515849Y-48997233D01*
X50535661Y-49135980D01*
X50558809Y-49297405D01*
X50584606Y-49476705D01*
X50612366Y-49669076D01*
X50632526Y-49808450D01*
X50666327Y-50045192D01*
X50702518Y-50304523D01*
X50739654Y-50575710D01*
X50776291Y-50848020D01*
X50810986Y-51110719D01*
X50842293Y-51353072D01*
X50868770Y-51564347D01*
X50868885Y-51565284D01*
X50901143Y-51821586D01*
X50930138Y-52038094D01*
X50955793Y-52214316D01*
X50978035Y-52349761D01*
X50996788Y-52443938D01*
X51009959Y-52491254D01*
X51077687Y-52619607D01*
X51178115Y-52738670D01*
X51301615Y-52839953D01*
X51438562Y-52914965D01*
X51523055Y-52943798D01*
X51620692Y-52956735D01*
X51740326Y-52954528D01*
X51865131Y-52938908D01*
X51978280Y-52911604D01*
X52030853Y-52891593D01*
X52110068Y-52851342D01*
X52186092Y-52806322D01*
X52222603Y-52781095D01*
X52325909Y-52679970D01*
X52414320Y-52550791D01*
X52481538Y-52406225D01*
X52521268Y-52258941D01*
X52529371Y-52163910D01*
X52526253Y-52104784D01*
X52517433Y-52006802D01*
X52503299Y-51873000D01*
X52484239Y-51706416D01*
X52460641Y-51510087D01*
X52432892Y-51287048D01*
X52401380Y-51040338D01*
X52366492Y-50772993D01*
X52328617Y-50488050D01*
X52288141Y-50188545D01*
X52245453Y-49877517D01*
X52200939Y-49558000D01*
X52157492Y-49250612D01*
X52137424Y-49106446D01*
X52120209Y-48976538D01*
X52106536Y-48866629D01*
X52097097Y-48782462D01*
X52092580Y-48729778D01*
X52093006Y-48714122D01*
X52117706Y-48711496D01*
X52179412Y-48712329D01*
X52272971Y-48716252D01*
X52393230Y-48722895D01*
X52535035Y-48731891D01*
X52693233Y-48742870D01*
X52862671Y-48755463D01*
X53038194Y-48769300D01*
X53214650Y-48784014D01*
X53386885Y-48799234D01*
X53549746Y-48814592D01*
X53678866Y-48827681D01*
X53988856Y-48856380D01*
X54281542Y-48875580D01*
X54552645Y-48885245D01*
X54797887Y-48885341D01*
X55012992Y-48875831D01*
X55193680Y-48856681D01*
X55282084Y-48840917D01*
X55486580Y-48783781D01*
X55654840Y-48707354D01*
X55788779Y-48610689D01*
X55829103Y-48570602D01*
X55905023Y-48480008D01*
X55957305Y-48393842D01*
X55989872Y-48300719D01*
X56006646Y-48189252D01*
X56011551Y-48048056D01*
X56011555Y-48041034D01*
X56010328Y-47932065D01*
X56005622Y-47854039D01*
X55995743Y-47795601D01*
X55978998Y-47745398D01*
X55961934Y-47708371D01*
X55862868Y-47554264D01*
X55734028Y-47429433D01*
X55603542Y-47348603D01*
X55462246Y-47279034D01*
X54657448Y-47264781D01*
X54452391Y-47260429D01*
X54239515Y-47254613D01*
X54027620Y-47247663D01*
X53825504Y-47239910D01*
X53641967Y-47231682D01*
X53485808Y-47223311D01*
X53397567Y-47217547D01*
X53229864Y-47205524D01*
X53035611Y-47191813D01*
X52830496Y-47177507D01*
X52630212Y-47163700D01*
X52450447Y-47151487D01*
X52445067Y-47151125D01*
X52302017Y-47141268D01*
X52171262Y-47131801D01*
X52059336Y-47123237D01*
X51972776Y-47116083D01*
X51918118Y-47110850D01*
X51903576Y-47108889D01*
X51888293Y-47102145D01*
X51874101Y-47085073D01*
X51859446Y-47052631D01*
X51842772Y-46999773D01*
X51822521Y-46921456D01*
X51797140Y-46812633D01*
X51765070Y-46668262D01*
X51758712Y-46639230D01*
X51725200Y-46489678D01*
X51683789Y-46310689D01*
X51637229Y-46113799D01*
X51588267Y-45910542D01*
X51539654Y-45712454D01*
X51502626Y-45564534D01*
X51429165Y-45269224D01*
X51366053Y-45003869D01*
X51311048Y-44758008D01*
X51261905Y-44521177D01*
X51216384Y-44282915D01*
X51172241Y-44032760D01*
X51164598Y-43987617D01*
X51135785Y-43832283D01*
X51105746Y-43699048D01*
X51076276Y-43595298D01*
X51056471Y-43543117D01*
X50973822Y-43406758D01*
X50860641Y-43285415D01*
X50728652Y-43191502D01*
X50719984Y-43186793D01*
X50667256Y-43160884D01*
X50618438Y-43144340D01*
X50561604Y-43135108D01*
X50484824Y-43131138D01*
X50391900Y-43130367D01*
X50286487Y-43131543D01*
X50210274Y-43136556D01*
X50150157Y-43147634D01*
X50093032Y-43167005D01*
X50040314Y-43190140D01*
X49926809Y-43256656D01*
X49821030Y-43344038D01*
X49734285Y-43441528D01*
X49680310Y-43532534D01*
X49660182Y-43604901D01*
X49645242Y-43710225D01*
X49635843Y-43839404D01*
X49632337Y-43983337D01*
X49635077Y-44132925D01*
X49644415Y-44279067D01*
X49649462Y-44329108D01*
X49671731Y-44504551D01*
X49701381Y-44697671D01*
X49739135Y-44912141D01*
X49785713Y-45151634D01*
X49841839Y-45419824D01*
X49908234Y-45720384D01*
X49985619Y-46056986D01*
X50006630Y-46146617D01*
X50213259Y-47025034D01*
X49630538Y-47035617D01*
X49438279Y-47037914D01*
X49224103Y-47038461D01*
X49002449Y-47037351D01*
X48787759Y-47034681D01*
X48594471Y-47030547D01*
X48518650Y-47028245D01*
X48192455Y-47019919D01*
X47904216Y-47018737D01*
X47650095Y-47025125D01*
X47426250Y-47039509D01*
X47228843Y-47062316D01*
X47054033Y-47093973D01*
X46897979Y-47134906D01*
X46756843Y-47185542D01*
X46646378Y-47236205D01*
X46537741Y-47309724D01*
X46434298Y-47413293D01*
X46346931Y-47535011D01*
X46310587Y-47603410D01*
X46281185Y-47674187D01*
X46264305Y-47739849D01*
X46256916Y-47817009D01*
X46255827Y-47903450D01*
X38807493Y-47903450D01*
X39030048Y-47594381D01*
X39388610Y-47096428D01*
X39745699Y-46600511D01*
X40099116Y-46109684D01*
X40446665Y-45626998D01*
X40786146Y-45155507D01*
X41115362Y-44698263D01*
X41432115Y-44258319D01*
X41734207Y-43838728D01*
X42019439Y-43442543D01*
X42285613Y-43072815D01*
X42530532Y-42732598D01*
X42663214Y-42548284D01*
X42913506Y-42200798D01*
X43064406Y-41991551D01*
X51545019Y-41991551D01*
X51551888Y-42188735D01*
X51568460Y-42376237D01*
X51594592Y-42541367D01*
X51596036Y-42548284D01*
X51702796Y-42953040D01*
X51848524Y-43341527D01*
X52033270Y-43713819D01*
X52257084Y-44069994D01*
X52520013Y-44410126D01*
X52822107Y-44734290D01*
X53163415Y-45042564D01*
X53264158Y-45124564D01*
X53664097Y-45425703D01*
X54056110Y-45685703D01*
X54440894Y-45904870D01*
X54819150Y-46083510D01*
X55191576Y-46221930D01*
X55558873Y-46320436D01*
X55921738Y-46379333D01*
X56170400Y-46397056D01*
X56236228Y-46396099D01*
X56327338Y-46390723D01*
X56427037Y-46381990D01*
X56456150Y-46378872D01*
X56773246Y-46323322D01*
X57072938Y-46229480D01*
X57357536Y-46096516D01*
X57527213Y-45994203D01*
X57778985Y-45807232D01*
X58015155Y-45589614D01*
X58231897Y-45346962D01*
X58425383Y-45084886D01*
X58591785Y-44808997D01*
X58727277Y-44524908D01*
X58828031Y-44238230D01*
X58881407Y-44008784D01*
X58906046Y-43785351D01*
X58907234Y-43539889D01*
X58886140Y-43284805D01*
X58843936Y-43032506D01*
X58781791Y-42795398D01*
X58761125Y-42733837D01*
X58633852Y-42426998D01*
X58467210Y-42112536D01*
X58262970Y-41792807D01*
X58022903Y-41470165D01*
X57748780Y-41146964D01*
X57442374Y-40825559D01*
X57105456Y-40508304D01*
X57048817Y-40458069D01*
X56741975Y-40199196D01*
X56449168Y-39975825D01*
X56165791Y-39785451D01*
X55887240Y-39625568D01*
X55608909Y-39493669D01*
X55326193Y-39387250D01*
X55034489Y-39303804D01*
X54854549Y-39263982D01*
X54681472Y-39237371D01*
X54486770Y-39220595D01*
X54282235Y-39213674D01*
X54079655Y-39216633D01*
X53890822Y-39229491D01*
X53727526Y-39252273D01*
X53682060Y-39261785D01*
X53374778Y-39354199D01*
X53081408Y-39484527D01*
X52804738Y-39649839D01*
X52547553Y-39847202D01*
X52312639Y-40073686D01*
X52102783Y-40326361D01*
X51920772Y-40602295D01*
X51769390Y-40898557D01*
X51651425Y-41212216D01*
X51584033Y-41468784D01*
X51560950Y-41618887D01*
X51547993Y-41797373D01*
X51545019Y-41991551D01*
X43064406Y-41991551D01*
X43164008Y-41853437D01*
X43412998Y-41508571D01*
X43658753Y-41168569D01*
X43899553Y-40835800D01*
X44133676Y-40512635D01*
X44359400Y-40201443D01*
X44575004Y-39904593D01*
X44778766Y-39624456D01*
X44968964Y-39363400D01*
X45143876Y-39123796D01*
X45301782Y-38908013D01*
X45440958Y-38718422D01*
X45559685Y-38557390D01*
X45656240Y-38427289D01*
X45692759Y-38378450D01*
X45755809Y-38294156D01*
X45843000Y-38177205D01*
X45953308Y-38028981D01*
X46085706Y-37850868D01*
X46239170Y-37644249D01*
X46285884Y-37581317D01*
G37*
X46285884Y-37581317D02*
X54755520Y-37581317D01*
X54767637Y-37731547D01*
X54799688Y-37874212D01*
X54813857Y-37915307D01*
X54830174Y-37957197D01*
X54847130Y-37996449D01*
X54866659Y-38034865D01*
X54890693Y-38074249D01*
X54921166Y-38116402D01*
X54960011Y-38163127D01*
X55009161Y-38216227D01*
X55070549Y-38277504D01*
X55146108Y-38348761D01*
X55237771Y-38431800D01*
X55347471Y-38528424D01*
X55477142Y-38640435D01*
X55628716Y-38769636D01*
X55804126Y-38917830D01*
X56005307Y-39086818D01*
X56234190Y-39278404D01*
X56492709Y-39494390D01*
X56632306Y-39610944D01*
X56876712Y-39815090D01*
X57125149Y-40022795D01*
X57373945Y-40230980D01*
X57619432Y-40436566D01*
X57857940Y-40636476D01*
X58085798Y-40827630D01*
X58299337Y-41006949D01*
X58494886Y-41171355D01*
X58668776Y-41317769D01*
X58817337Y-41443112D01*
X58932650Y-41540703D01*
X59125856Y-41704585D01*
X59289496Y-41843347D01*
X59426316Y-41959222D01*
X59539058Y-42054445D01*
X59630466Y-42131249D01*
X59703286Y-42191869D01*
X59760259Y-42238539D01*
X59804130Y-42273492D01*
X59837644Y-42298962D01*
X59863543Y-42317184D01*
X59884572Y-42330391D01*
X59903474Y-42340818D01*
X59922993Y-42350698D01*
X59934759Y-42356594D01*
X60096247Y-42415112D01*
X60265623Y-42433241D01*
X60438071Y-42410974D01*
X60589477Y-42357526D01*
X60740553Y-42266308D01*
X60866347Y-42147591D01*
X60964212Y-42007528D01*
X61031503Y-41852271D01*
X61065573Y-41687973D01*
X61063776Y-41520787D01*
X61023467Y-41356865D01*
X61021752Y-41352367D01*
X60998453Y-41297008D01*
X60971214Y-41245543D01*
X60936486Y-41194516D01*
X60890721Y-41140472D01*
X60830372Y-41079955D01*
X60751889Y-41009512D01*
X60651725Y-40925686D01*
X60526332Y-40825023D01*
X60372161Y-40704068D01*
X60291921Y-40641687D01*
X60156474Y-40536297D01*
X60032043Y-40438935D01*
X59922503Y-40352673D01*
X59831726Y-40280585D01*
X59763588Y-40225745D01*
X59721961Y-40191225D01*
X59710342Y-40180284D01*
X59725077Y-40162863D01*
X59771930Y-40129587D01*
X59845256Y-40083735D01*
X59939410Y-40028587D01*
X60048748Y-39967422D01*
X60167624Y-39903519D01*
X60290395Y-39840157D01*
X60329650Y-39820498D01*
X60815984Y-39599329D01*
X61317827Y-39411871D01*
X61839205Y-39256897D01*
X62384141Y-39133183D01*
X62837900Y-39056164D01*
X63044389Y-39018965D01*
X63214486Y-38971520D01*
X63353515Y-38910778D01*
X63466803Y-38833685D01*
X63559674Y-38737186D01*
X63637454Y-38618230D01*
X63653048Y-38588783D01*
X63714607Y-38426148D01*
X63738092Y-38260494D01*
X63726151Y-38097176D01*
X63681429Y-37941546D01*
X63606573Y-37798959D01*
X63504229Y-37674768D01*
X63377043Y-37574328D01*
X63227663Y-37502992D01*
X63100800Y-37471518D01*
X62964688Y-37460699D01*
X62794651Y-37464394D01*
X62596165Y-37481639D01*
X62374708Y-37511466D01*
X62135755Y-37552911D01*
X61884784Y-37605006D01*
X61627270Y-37666787D01*
X61368691Y-37737287D01*
X61114522Y-37815540D01*
X61073600Y-37829059D01*
X60976887Y-37860958D01*
X60894997Y-37887259D01*
X60836131Y-37905380D01*
X60808488Y-37912737D01*
X60807854Y-37912784D01*
X60806085Y-37893809D01*
X60813583Y-37842863D01*
X60828841Y-37768915D01*
X60840008Y-37721633D01*
X60886457Y-37507373D01*
X60915538Y-37306100D01*
X60928943Y-37100731D01*
X60928367Y-36874181D01*
X60927306Y-36840918D01*
X60916712Y-36653142D01*
X60897451Y-36495062D01*
X60866678Y-36354442D01*
X60821553Y-36219046D01*
X60759231Y-36076638D01*
X60741140Y-36039534D01*
X60608299Y-35818136D01*
X60439206Y-35614211D01*
X60237442Y-35430899D01*
X60006590Y-35271343D01*
X59750231Y-35138681D01*
X59680061Y-35109070D01*
X59396428Y-35017109D01*
X59092252Y-34961222D01*
X58768952Y-34941295D01*
X58427947Y-34957212D01*
X58070657Y-35008855D01*
X57698501Y-35096111D01*
X57312897Y-35218862D01*
X57038234Y-35324813D01*
X56868281Y-35397813D01*
X56713477Y-35471366D01*
X56569201Y-35548944D01*
X56430837Y-35634021D01*
X56293766Y-35730068D01*
X56153370Y-35840559D01*
X56005031Y-35968966D01*
X55844131Y-36118761D01*
X55666052Y-36293416D01*
X55466175Y-36496405D01*
X55428450Y-36535267D01*
X55282745Y-36686125D01*
X55163657Y-36810949D01*
X55067950Y-36913720D01*
X54992388Y-36998418D01*
X54933735Y-37069026D01*
X54888754Y-37129524D01*
X54854211Y-37183893D01*
X54826869Y-37236115D01*
X54803493Y-37290170D01*
X54793121Y-37316904D01*
X54763845Y-37438208D01*
X54755520Y-37581317D01*
X46285884Y-37581317D01*
X46412675Y-37410508D01*
X46605194Y-37151029D01*
X46815703Y-36867196D01*
X47043177Y-36560392D01*
X47286590Y-36232001D01*
X47544917Y-35883407D01*
X47817133Y-35515993D01*
X48102212Y-35131144D01*
X48399130Y-34730243D01*
X48706861Y-34314673D01*
X49024379Y-33885818D01*
X49350661Y-33445063D01*
X49684679Y-32993791D01*
X50025410Y-32533385D01*
X50371827Y-32065230D01*
X50722906Y-31590708D01*
X51077621Y-31111205D01*
X51258060Y-30867261D01*
X56132670Y-24276823D01*
X56073897Y-24157428D01*
X56025616Y-24019959D01*
X56003099Y-23865599D01*
X56007633Y-23711286D01*
X56031502Y-23599561D01*
X56057553Y-23540034D01*
X56104768Y-23453355D01*
X56168742Y-23346110D01*
X56245066Y-23224884D01*
X56329336Y-23096265D01*
X56417145Y-22966837D01*
X56504086Y-22843187D01*
X56585754Y-22731900D01*
X56657740Y-22639563D01*
X56715640Y-22572760D01*
X56724727Y-22563456D01*
X56865163Y-22447517D01*
X57009296Y-22362373D01*
X57098617Y-22320608D01*
X57170547Y-22295258D01*
X57243851Y-22281559D01*
X57337298Y-22274745D01*
X57357869Y-22273876D01*
X57542285Y-22266552D01*
X57553590Y-22199793D01*
X57555654Y-22166630D01*
X57557573Y-22094134D01*
X57559348Y-21984924D01*
X57560979Y-21841619D01*
X57562466Y-21666836D01*
X57563812Y-21463195D01*
X57565016Y-21233314D01*
X57566080Y-20979810D01*
X57567004Y-20705303D01*
X57567789Y-20412412D01*
X57568436Y-20103754D01*
X57568946Y-19781948D01*
X57569320Y-19449612D01*
X57569558Y-19109366D01*
X57569661Y-18763827D01*
X57569630Y-18415613D01*
X57569467Y-18067344D01*
X57569170Y-17721638D01*
X57568743Y-17381113D01*
X57568185Y-17048388D01*
X57567497Y-16726081D01*
X57566680Y-16416811D01*
X57565735Y-16123195D01*
X57564663Y-15847854D01*
X57563464Y-15593404D01*
X57562140Y-15362465D01*
X57560690Y-15157655D01*
X57559117Y-14981592D01*
X57557421Y-14836895D01*
X57555602Y-14726182D01*
X57553662Y-14652072D01*
X57551601Y-14617184D01*
X57551199Y-14615215D01*
X57535596Y-14577514D01*
X57503919Y-14508267D01*
X57459148Y-14413730D01*
X57404268Y-14300158D01*
X57342259Y-14173807D01*
X57303954Y-14096632D01*
X57213830Y-13913035D01*
X57142455Y-13759488D01*
X57087892Y-13629103D01*
X57048205Y-13514996D01*
X57021457Y-13410278D01*
X57005712Y-13308064D01*
X56999033Y-13201468D01*
X56999484Y-13083603D01*
X57001641Y-13021567D01*
X57013751Y-12850128D01*
X57036788Y-12705379D01*
X57074493Y-12572292D01*
X57130605Y-12435840D01*
X57164952Y-12365174D01*
X57293796Y-12155911D01*
X57456161Y-11968316D01*
X57647170Y-11806231D01*
X57861946Y-11673498D01*
X58095614Y-11573959D01*
X58213657Y-11538945D01*
X58279524Y-11523786D01*
X58346762Y-11512640D01*
X58423396Y-11504937D01*
X58517455Y-11500107D01*
X58636965Y-11497581D01*
X58789953Y-11496789D01*
X58807652Y-11496784D01*
X59000923Y-11498507D01*
X59159812Y-11504376D01*
X59292154Y-11515436D01*
X59405786Y-11532735D01*
X59508546Y-11557318D01*
X59608271Y-11590233D01*
X59660922Y-11610743D01*
X59801404Y-11676235D01*
X59930442Y-11755717D01*
X60053511Y-11854144D01*
X60176090Y-11976472D01*
X60303655Y-12127657D01*
X60441684Y-12312655D01*
X60450735Y-12325385D01*
X60474988Y-12359684D01*
X60523163Y-12427916D01*
X60594791Y-12529415D01*
X60689402Y-12663515D01*
X60806526Y-12829549D01*
X60945693Y-13026852D01*
X61106433Y-13254756D01*
X61288277Y-13512596D01*
X61490755Y-13799705D01*
X61713396Y-14115417D01*
X61955732Y-14459066D01*
X62217292Y-14829985D01*
X62497607Y-15227508D01*
X62796207Y-15650969D01*
X63112622Y-16099701D01*
X63446382Y-16573039D01*
X63797017Y-17070316D01*
X64164058Y-17590865D01*
X64547035Y-18134020D01*
X64945478Y-18699116D01*
X65358917Y-19285485D01*
X65786883Y-19892462D01*
X66228905Y-20519380D01*
X66684514Y-21165573D01*
X67153240Y-21830374D01*
X67634613Y-22513118D01*
X68128164Y-23213137D01*
X68633423Y-23929766D01*
X69149919Y-24662339D01*
X69677183Y-25410189D01*
X70214746Y-26172649D01*
X70762137Y-26949054D01*
X71318887Y-27738737D01*
X71884526Y-28541032D01*
X72458584Y-29355273D01*
X73040591Y-30180793D01*
X73630078Y-31016926D01*
X74226574Y-31863006D01*
X74829610Y-32718366D01*
X74969966Y-32917450D01*
X75149276Y-33171808D01*
X75305876Y-33394101D01*
X75441441Y-33586865D01*
X75557647Y-33752641D01*
X75656170Y-33893964D01*
X75738685Y-34013375D01*
X75806867Y-34113411D01*
X75862394Y-34196610D01*
X75906939Y-34265511D01*
X75942179Y-34322651D01*
X75969789Y-34370569D01*
X75991445Y-34411803D01*
X76008823Y-34448891D01*
X76023598Y-34484371D01*
X76037446Y-34520782D01*
X76048676Y-34551447D01*
X76068411Y-34607381D01*
X76085608Y-34661915D01*
X76100397Y-34718165D01*
X76112906Y-34779245D01*
X76123267Y-34848268D01*
X76131607Y-34928349D01*
X76138056Y-35022602D01*
X76142745Y-35134141D01*
X76145802Y-35266080D01*
X76147357Y-35421534D01*
X76147539Y-35603616D01*
X76146478Y-35815441D01*
X76144303Y-36060122D01*
X76141144Y-36340775D01*
X76137131Y-36660513D01*
X76136949Y-36674534D01*
X76116675Y-38240867D01*
X76060233Y-38410200D01*
X75957745Y-38654080D01*
X75821817Y-38875917D01*
X75655908Y-39072575D01*
X75463477Y-39240920D01*
X75247982Y-39377816D01*
X75012883Y-39480128D01*
X74821145Y-39533270D01*
X74683926Y-39553216D01*
X74525129Y-39562032D01*
X74364086Y-39559476D01*
X74220126Y-39545308D01*
X74195122Y-39541067D01*
X74049221Y-39533571D01*
X73884138Y-39560313D01*
X73704231Y-39620345D01*
X73589733Y-39672575D01*
X73537058Y-39700299D01*
X73487262Y-39730373D01*
X73435723Y-39766714D01*
X73377818Y-39813242D01*
X73308923Y-39873876D01*
X73224417Y-39952536D01*
X73119676Y-40053140D01*
X72990079Y-40179608D01*
X72979826Y-40189659D01*
X72538526Y-40622354D01*
X72593588Y-40733360D01*
X72620427Y-40793169D01*
X72636930Y-40849405D01*
X72645484Y-40915681D01*
X72648475Y-41005609D01*
X72648650Y-41047331D01*
X72647427Y-41146406D01*
X72641923Y-41217056D01*
X72629391Y-41273160D01*
X72607082Y-41328598D01*
X72583669Y-41375414D01*
X72551151Y-41429553D01*
X72497270Y-41509863D01*
X72427140Y-41609483D01*
X72345873Y-41721549D01*
X72258583Y-41839202D01*
X72170383Y-41955577D01*
X72086385Y-42063815D01*
X72011702Y-42157052D01*
X71951448Y-42228427D01*
X71932419Y-42249439D01*
X71830075Y-42339805D01*
X71701630Y-42424912D01*
X71563084Y-42495092D01*
X71466886Y-42530700D01*
X71292815Y-42562746D01*
X71113422Y-42557758D01*
X70950007Y-42518788D01*
X70860030Y-42486648D01*
X70777689Y-42596841D01*
X70760010Y-42620779D01*
X70718031Y-42677783D01*
X70652522Y-42766807D01*
X70564250Y-42886805D01*
X70453986Y-43036731D01*
X70322498Y-43215538D01*
X70170555Y-43422181D01*
X69998926Y-43655614D01*
X69808380Y-43914789D01*
X69599687Y-44198662D01*
X69373614Y-44506186D01*
X69130932Y-44836314D01*
X68872410Y-45188000D01*
X68598815Y-45560199D01*
X68310918Y-45951865D01*
X68009488Y-46361950D01*
X67695292Y-46789409D01*
X67369101Y-47233196D01*
X67031683Y-47692265D01*
X66683808Y-48165569D01*
X66326244Y-48652062D01*
X65959761Y-49150699D01*
X65585127Y-49660432D01*
X65203111Y-50180216D01*
X64814483Y-50709005D01*
X64511854Y-51120784D01*
X64001608Y-51814996D01*
X63515963Y-52475593D01*
X63054515Y-53103121D01*
X62616862Y-53698125D01*
X62202600Y-54261149D01*
X61811325Y-54792740D01*
X61442635Y-55293442D01*
X61096126Y-55763801D01*
X60771395Y-56204362D01*
X60468038Y-56615669D01*
X60185653Y-56998269D01*
X59923835Y-57352706D01*
X59682181Y-57679526D01*
X59460289Y-57979273D01*
X59257755Y-58252494D01*
X59074175Y-58499733D01*
X58909146Y-58721535D01*
X58762266Y-58918446D01*
X58633130Y-59091011D01*
X58521335Y-59239775D01*
X58426478Y-59365283D01*
X58348156Y-59468081D01*
X58285965Y-59548713D01*
X58239502Y-59607726D01*
X58208364Y-59645663D01*
X58193872Y-59661534D01*
X57997733Y-59819422D01*
X57781224Y-59943991D01*
X57550234Y-60032831D01*
X57310653Y-60083535D01*
X57133777Y-60095083D01*
X57089942Y-60093076D01*
X57007455Y-60087148D01*
X56889783Y-60077614D01*
X56740395Y-60064788D01*
X56562759Y-60048985D01*
X56360343Y-60030519D01*
X56136615Y-60009704D01*
X55895043Y-59986856D01*
X55639097Y-59962287D01*
X55372242Y-59936314D01*
X55249943Y-59924293D01*
X54873605Y-59887509D01*
X54539006Y-59855486D01*
X54245824Y-59828197D01*
X53993735Y-59805613D01*
X53782418Y-59787708D01*
X53611549Y-59774454D01*
X53480806Y-59765824D01*
X53389867Y-59761789D01*
X53344650Y-59761898D01*
X53168425Y-59788112D01*
X53012282Y-59849318D01*
X52868996Y-59948648D01*
X52827748Y-59986053D01*
X52808804Y-60008279D01*
X52764444Y-60062882D01*
X52695395Y-60148939D01*
X52602383Y-60265530D01*
X52486134Y-60411732D01*
X52347375Y-60586624D01*
X52186831Y-60789285D01*
X52005230Y-61018793D01*
X51803298Y-61274227D01*
X51581760Y-61554666D01*
X51341344Y-61859188D01*
X51082774Y-62186872D01*
X50806779Y-62536795D01*
X50514083Y-62908038D01*
X50205414Y-63299678D01*
X49881497Y-63710793D01*
X49543059Y-64140463D01*
X49190826Y-64587767D01*
X48825525Y-65051781D01*
X48447881Y-65531586D01*
X48058621Y-66026260D01*
X47658472Y-66534881D01*
X47248159Y-67056528D01*
X46828409Y-67590280D01*
X46399948Y-68135214D01*
X45963503Y-68690410D01*
X45519799Y-69254946D01*
X45069564Y-69827901D01*
X44866682Y-70086117D01*
X44413853Y-70662443D01*
X43967282Y-71230742D01*
X43527694Y-71790092D01*
X43095815Y-72339575D01*
X42672367Y-72878268D01*
X42258075Y-73405252D01*
X41853665Y-73919607D01*
X41459861Y-74420411D01*
X41077387Y-74906744D01*
X40706967Y-75377687D01*
X40349327Y-75832318D01*
X40005190Y-76269718D01*
X39675282Y-76688965D01*
X39360326Y-77089139D01*
X39061048Y-77469320D01*
X38778171Y-77828588D01*
X38512421Y-78166021D01*
X38264522Y-78480700D01*
X38035198Y-78771705D01*
X37825174Y-79038114D01*
X37635174Y-79279007D01*
X37465924Y-79493464D01*
X37318147Y-79680565D01*
X37192567Y-79839388D01*
X37089911Y-79969015D01*
X37010901Y-80068523D01*
X36956263Y-80136993D01*
X36926721Y-80173504D01*
X36921806Y-80179264D01*
X36752167Y-80330715D01*
X36554704Y-80460283D01*
X36341245Y-80560916D01*
X36207243Y-80605356D01*
X36099077Y-80626735D01*
X35963041Y-80640935D01*
X35812066Y-80647807D01*
X35659079Y-80647204D01*
X35517009Y-80638977D01*
X35398787Y-80622979D01*
X35363567Y-80615031D01*
X35235036Y-80571491D01*
X35091552Y-80506884D01*
X34948846Y-80429304D01*
X34822653Y-80346845D01*
X34782528Y-80316098D01*
X34743887Y-80280069D01*
X34680924Y-80215501D01*
X34596857Y-80126005D01*
X34494901Y-80015194D01*
X34378275Y-79886679D01*
X34250196Y-79744073D01*
X34113880Y-79590988D01*
X33972545Y-79431035D01*
X33829408Y-79267826D01*
X33687685Y-79104974D01*
X33550595Y-78946091D01*
X33421354Y-78794788D01*
X33309970Y-78662788D01*
X33162250Y-78466242D01*
X33051142Y-78270904D01*
X32972064Y-78068226D01*
X32950740Y-77992544D01*
X32934104Y-77919347D01*
X32922276Y-77844387D01*
X32914527Y-77758441D01*
X32910134Y-77652286D01*
X32908367Y-77516699D01*
X32908234Y-77452939D01*
X32908678Y-77406437D01*
X32909990Y-77319617D01*
X32912136Y-77194037D01*
X32915084Y-77031257D01*
X32918802Y-76832834D01*
X32923255Y-76600327D01*
X32928412Y-76335295D01*
X32934240Y-76039296D01*
X32940706Y-75713889D01*
X32947777Y-75360632D01*
X32955420Y-74981084D01*
X32963604Y-74576803D01*
X32972294Y-74149348D01*
X32981459Y-73700278D01*
X32991065Y-73231151D01*
X33001080Y-72743525D01*
X33011471Y-72238959D01*
X33022206Y-71719012D01*
X33033250Y-71185243D01*
X33044573Y-70639208D01*
X33056141Y-70082469D01*
X33067921Y-69516582D01*
X33079881Y-68943106D01*
X33091987Y-68363600D01*
X33104207Y-67779623D01*
X33116509Y-67192733D01*
X33128859Y-66604488D01*
X33141225Y-66016448D01*
X33153575Y-65430170D01*
X33165874Y-64847213D01*
X33178091Y-64269136D01*
X33190193Y-63697497D01*
X33202147Y-63133855D01*
X33213920Y-62579768D01*
X33225479Y-62036795D01*
X33236793Y-61506495D01*
X33247828Y-60990425D01*
X33258550Y-60490145D01*
X33268929Y-60007213D01*
X33278930Y-59543188D01*
X33288521Y-59099628D01*
X33297670Y-58678092D01*
X33306343Y-58280138D01*
X33313398Y-57957976D01*
X37675015Y-57957976D01*
X37682504Y-58037285D01*
X37689868Y-58081455D01*
X37712619Y-58181987D01*
X37745169Y-58270381D01*
X37792317Y-58353399D01*
X37858867Y-58437802D01*
X37949620Y-58530352D01*
X38069376Y-58637810D01*
X38109063Y-58671748D01*
X38183081Y-58734824D01*
X38284184Y-58821372D01*
X38407451Y-58927160D01*
X38547959Y-59047954D01*
X38700787Y-59179521D01*
X38861011Y-59317628D01*
X39023710Y-59458042D01*
X39108899Y-59531635D01*
X39286130Y-59684646D01*
X39476373Y-59848615D01*
X39672335Y-60017275D01*
X39866723Y-60184358D01*
X40052243Y-60343595D01*
X40221604Y-60488719D01*
X40367510Y-60613462D01*
X40389587Y-60632302D01*
X40549615Y-60769118D01*
X40691574Y-60891325D01*
X40820230Y-61003295D01*
X40940354Y-61109400D01*
X41056711Y-61214013D01*
X41174071Y-61321504D01*
X41297201Y-61436247D01*
X41430869Y-61562613D01*
X41579843Y-61704974D01*
X41748891Y-61867702D01*
X41942781Y-62055169D01*
X41969060Y-62080616D01*
X42199315Y-62302158D01*
X42403905Y-62495958D01*
X42582256Y-62661496D01*
X42733792Y-62798251D01*
X42857937Y-62905703D01*
X42954116Y-62983333D01*
X43014873Y-63026381D01*
X43128609Y-63081928D01*
X43255872Y-63110699D01*
X43407990Y-63115233D01*
X43410823Y-63115116D01*
X43514930Y-63106600D01*
X43599322Y-63087565D01*
X43686326Y-63052467D01*
X43711068Y-63040549D01*
X43854681Y-62948073D01*
X43981379Y-62823844D01*
X44081539Y-62677811D01*
X44103011Y-62635450D01*
X44131063Y-62568385D01*
X44147751Y-62504633D01*
X44155813Y-62428910D01*
X44157984Y-62328534D01*
X44156419Y-62229606D01*
X44149389Y-62157755D01*
X44134005Y-62097806D01*
X44107380Y-62034580D01*
X44098595Y-62016413D01*
X44080418Y-61980978D01*
X44060669Y-61947849D01*
X44035878Y-61913484D01*
X44002574Y-61874341D01*
X43957288Y-61826878D01*
X43896549Y-61767552D01*
X43816888Y-61692819D01*
X43714834Y-61599139D01*
X43586918Y-61482969D01*
X43491567Y-61396709D01*
X43403265Y-61316057D01*
X43300908Y-61221194D01*
X43188442Y-61115908D01*
X43069811Y-61003983D01*
X42948959Y-60889205D01*
X42829829Y-60775361D01*
X42716368Y-60666237D01*
X42612518Y-60565618D01*
X42522225Y-60477291D01*
X42449432Y-60405041D01*
X42398084Y-60352655D01*
X42372125Y-60323918D01*
X42369734Y-60319908D01*
X42379798Y-60297786D01*
X42408469Y-60242924D01*
X42453467Y-60159406D01*
X42512510Y-60051314D01*
X42583317Y-59922728D01*
X42663606Y-59777731D01*
X42751096Y-59620406D01*
X42843506Y-59454834D01*
X42938554Y-59285097D01*
X43033960Y-59115276D01*
X43127442Y-58949455D01*
X43216718Y-58791715D01*
X43299508Y-58646138D01*
X43373529Y-58516806D01*
X43436502Y-58407801D01*
X43477013Y-58338617D01*
X43531177Y-58248707D01*
X43597080Y-58142111D01*
X43671239Y-58024179D01*
X43750173Y-57900262D01*
X43830400Y-57775713D01*
X43908439Y-57655882D01*
X43980808Y-57546121D01*
X44044026Y-57451780D01*
X44094611Y-57378212D01*
X44129081Y-57330768D01*
X44142909Y-57315094D01*
X44163392Y-57324833D01*
X44210904Y-57357647D01*
X44279998Y-57409458D01*
X44365226Y-57476189D01*
X44454650Y-57548439D01*
X44554325Y-57629133D01*
X44679315Y-57728809D01*
X44821218Y-57840855D01*
X44971631Y-57958657D01*
X45122149Y-58075604D01*
X45237817Y-58164733D01*
X45376601Y-58271501D01*
X45516999Y-58380038D01*
X45651849Y-58484767D01*
X45773988Y-58580115D01*
X45876256Y-58660507D01*
X45946900Y-58716678D01*
X46067059Y-58810980D01*
X46164033Y-58880408D01*
X46245931Y-58928597D01*
X46320861Y-58959184D01*
X46396931Y-58975805D01*
X46482251Y-58982095D01*
X46539567Y-58982440D01*
X46693354Y-58972520D01*
X46821768Y-58942479D01*
X46936698Y-58887222D01*
X47050034Y-58801656D01*
X47123659Y-58732209D01*
X47232270Y-58610692D01*
X47306315Y-58493874D01*
X47350588Y-58370870D01*
X47369885Y-58230798D01*
X47371676Y-58169284D01*
X47368512Y-58069403D01*
X47354777Y-57989624D01*
X47326056Y-57908163D01*
X47312472Y-57877054D01*
X47279227Y-57812926D01*
X47235962Y-57749141D01*
X47179045Y-57682355D01*
X47104844Y-57609224D01*
X47009726Y-57526404D01*
X46890060Y-57430553D01*
X46742213Y-57318327D01*
X46562552Y-57186382D01*
X46560695Y-57185034D01*
X46328815Y-57016449D01*
X46126432Y-56868590D01*
X45948667Y-56737480D01*
X45790641Y-56619139D01*
X45647474Y-56509589D01*
X45514286Y-56404850D01*
X45386199Y-56300944D01*
X45258332Y-56193892D01*
X45125808Y-56079715D01*
X44983745Y-55954435D01*
X44827265Y-55814073D01*
X44651489Y-55654649D01*
X44451538Y-55472186D01*
X44380567Y-55407291D01*
X44236330Y-55275741D01*
X44088913Y-55141972D01*
X43944466Y-55011516D01*
X43809137Y-54889905D01*
X43689078Y-54782671D01*
X43590436Y-54695347D01*
X43545273Y-54655839D01*
X43366537Y-54497974D01*
X43190399Y-54337584D01*
X43021475Y-54179173D01*
X42864381Y-54027244D01*
X42723734Y-53886299D01*
X42604150Y-53760844D01*
X42510244Y-53655380D01*
X42472754Y-53609502D01*
X42354917Y-53468762D01*
X42246776Y-53363330D01*
X42141633Y-53289486D01*
X42032787Y-53243510D01*
X41913538Y-53221681D01*
X41777188Y-53220280D01*
X41772285Y-53220541D01*
X41598252Y-53245451D01*
X41448111Y-53301711D01*
X41313983Y-53392695D01*
X41264857Y-53437781D01*
X41185885Y-53523556D01*
X41134004Y-53603744D01*
X41104093Y-53691321D01*
X41091032Y-53799262D01*
X41089150Y-53883034D01*
X41092071Y-53986981D01*
X41102653Y-54080063D01*
X41123626Y-54171664D01*
X41157718Y-54271165D01*
X41207660Y-54387948D01*
X41276179Y-54531396D01*
X41280025Y-54539200D01*
X41332883Y-54643175D01*
X41384939Y-54737154D01*
X41439595Y-54824986D01*
X41500253Y-54910521D01*
X41570315Y-54997609D01*
X41653181Y-55090097D01*
X41752256Y-55191837D01*
X41870939Y-55306676D01*
X42012633Y-55438466D01*
X42180740Y-55591054D01*
X42319716Y-55715665D01*
X42460129Y-55841908D01*
X42590094Y-55960225D01*
X42706312Y-56067507D01*
X42805488Y-56160641D01*
X42884323Y-56236517D01*
X42939522Y-56292025D01*
X42967787Y-56324053D01*
X42970837Y-56330027D01*
X42958452Y-56357298D01*
X42925742Y-56412195D01*
X42877020Y-56487921D01*
X42816598Y-56577676D01*
X42782908Y-56626316D01*
X42667813Y-56794967D01*
X42546725Y-56980544D01*
X42417741Y-57186222D01*
X42278954Y-57415176D01*
X42128458Y-57670579D01*
X41964348Y-57955607D01*
X41784718Y-58273433D01*
X41660650Y-58495663D01*
X41564567Y-58667866D01*
X41474472Y-58828145D01*
X41392488Y-58972808D01*
X41320739Y-59098164D01*
X41261348Y-59200521D01*
X41216438Y-59276188D01*
X41188132Y-59321473D01*
X41178831Y-59333348D01*
X41159241Y-59319361D01*
X41114318Y-59280358D01*
X41049040Y-59220879D01*
X40968381Y-59145463D01*
X40877321Y-59058648D01*
X40871444Y-59052992D01*
X40782786Y-58969167D01*
X40668590Y-58863596D01*
X40535379Y-58742175D01*
X40389676Y-58610800D01*
X40238006Y-58475368D01*
X40086890Y-58341775D01*
X40010840Y-58275117D01*
X39782680Y-58075648D01*
X39584082Y-57902008D01*
X39412519Y-57752412D01*
X39265461Y-57625080D01*
X39140380Y-57518229D01*
X39034748Y-57430077D01*
X38946037Y-57358841D01*
X38871718Y-57302739D01*
X38809264Y-57259989D01*
X38756145Y-57228809D01*
X38709834Y-57207417D01*
X38667801Y-57194030D01*
X38627520Y-57186866D01*
X38586461Y-57184142D01*
X38542096Y-57184077D01*
X38491897Y-57184889D01*
X38464484Y-57185066D01*
X38362879Y-57186236D01*
X38290793Y-57191297D01*
X38235439Y-57202578D01*
X38184032Y-57222409D01*
X38140932Y-57244000D01*
X37978274Y-57351524D01*
X37848533Y-57484715D01*
X37753137Y-57641784D01*
X37699255Y-57796224D01*
X37680343Y-57885379D01*
X37675015Y-57957976D01*
X33313398Y-57957976D01*
X33314508Y-57907324D01*
X33322132Y-57561210D01*
X33329183Y-57243354D01*
X33335626Y-56955314D01*
X33341431Y-56698649D01*
X33346564Y-56474918D01*
X33350992Y-56285679D01*
X33354683Y-56132490D01*
X33357603Y-56016911D01*
X33359721Y-55940499D01*
X33361003Y-55904813D01*
X33361024Y-55904450D01*
X33380635Y-55720732D01*
X33418673Y-55555746D01*
X33480129Y-55391082D01*
X33527454Y-55290502D01*
X33547049Y-55257005D01*
X33584957Y-55198490D01*
X33641567Y-55114412D01*
X33717267Y-55004227D01*
X33812445Y-54867388D01*
X33927490Y-54703350D01*
X34062789Y-54511569D01*
X34218731Y-54291499D01*
X34395704Y-54042596D01*
X34594095Y-53764313D01*
X34814293Y-53456105D01*
X35056687Y-53117428D01*
X35321664Y-52747737D01*
X35609613Y-52346485D01*
X35920921Y-51913128D01*
X36255976Y-51447122D01*
X36615168Y-50947919D01*
X36970838Y-50453918D01*
X37049779Y-50344302D01*
X44101228Y-50344302D01*
X44105390Y-50433221D01*
X44117315Y-50534529D01*
X44137688Y-50653361D01*
X44167195Y-50794850D01*
X44206519Y-50964130D01*
X44256346Y-51166336D01*
X44286622Y-51286153D01*
X44371963Y-51620693D01*
X44464063Y-51979474D01*
X44560474Y-52353077D01*
X44658748Y-52732081D01*
X44756438Y-53107065D01*
X44851094Y-53468608D01*
X44940270Y-53807291D01*
X45016460Y-54094700D01*
X45075029Y-54323154D01*
X45127508Y-54544458D01*
X45171757Y-54749012D01*
X45205642Y-54927213D01*
X45216638Y-54994284D01*
X45253041Y-55211703D01*
X45290466Y-55392232D01*
X45330875Y-55541306D01*
X45376234Y-55664356D01*
X45428506Y-55766816D01*
X45489655Y-55854120D01*
X45552200Y-55922558D01*
X45618438Y-55980061D01*
X45689901Y-56031052D01*
X45724753Y-56051088D01*
X45833232Y-56085155D01*
X45962329Y-56093872D01*
X46098794Y-56077284D01*
X46194814Y-56049459D01*
X46285118Y-56012496D01*
X46373412Y-55968435D01*
X46462236Y-55914850D01*
X46554133Y-55849314D01*
X46651644Y-55769401D01*
X46757309Y-55672684D01*
X46873672Y-55556738D01*
X47003272Y-55419136D01*
X47148652Y-55257452D01*
X47312352Y-55069260D01*
X47496915Y-54852133D01*
X47688045Y-54623867D01*
X47817802Y-54468183D01*
X47940221Y-54321525D01*
X48052445Y-54187300D01*
X48151616Y-54068916D01*
X48234878Y-53969779D01*
X48299373Y-53893297D01*
X48342244Y-53842878D01*
X48360013Y-53822561D01*
X48371871Y-53812257D01*
X48386072Y-53808184D01*
X48406339Y-53812939D01*
X48436397Y-53829119D01*
X48479967Y-53859321D01*
X48540774Y-53906141D01*
X48622541Y-53972176D01*
X48728992Y-54060022D01*
X48863849Y-54172277D01*
X48875982Y-54182395D01*
X49045574Y-54322820D01*
X49187795Y-54438020D01*
X49306882Y-54530936D01*
X49407070Y-54604504D01*
X49492594Y-54661664D01*
X49567691Y-54705354D01*
X49636596Y-54738512D01*
X49703546Y-54764079D01*
X49724101Y-54770776D01*
X49865432Y-54798526D01*
X50016214Y-54799824D01*
X50160323Y-54775569D01*
X50254317Y-54741155D01*
X50355199Y-54677458D01*
X50459979Y-54586148D01*
X50557172Y-54479053D01*
X50635294Y-54368002D01*
X50659012Y-54324345D01*
X50711856Y-54171607D01*
X50728349Y-54010786D01*
X50709385Y-53850963D01*
X50655861Y-53701218D01*
X50586876Y-53592402D01*
X50540503Y-53541114D01*
X50465968Y-53468685D01*
X50362280Y-53374238D01*
X50228448Y-53256895D01*
X50063481Y-53115779D01*
X49866387Y-52950013D01*
X49779983Y-52877980D01*
X49675307Y-52790595D01*
X49582514Y-52712543D01*
X49506241Y-52647772D01*
X49451121Y-52600228D01*
X49421791Y-52573861D01*
X49418234Y-52569901D01*
X49429388Y-52550625D01*
X49459695Y-52503627D01*
X49504422Y-52436134D01*
X49554552Y-52361693D01*
X49668198Y-52170992D01*
X49741691Y-51992768D01*
X49775041Y-51826131D01*
X49768261Y-51670185D01*
X49721364Y-51524037D01*
X49634362Y-51386796D01*
X49568777Y-51314145D01*
X49490617Y-51244961D01*
X49401628Y-51179014D01*
X49322499Y-51131367D01*
X49244671Y-51096063D01*
X49176246Y-51076688D01*
X49097457Y-51068853D01*
X49036390Y-51067867D01*
X48948809Y-51069846D01*
X48885840Y-51078876D01*
X48829829Y-51099590D01*
X48763124Y-51136626D01*
X48754285Y-51141950D01*
X48689751Y-51186391D01*
X48606231Y-51251619D01*
X48514820Y-51328634D01*
X48431856Y-51403504D01*
X48349162Y-51480219D01*
X48290888Y-51531279D01*
X48251141Y-51560577D01*
X48224023Y-51572004D01*
X48203639Y-51569452D01*
X48191369Y-51562254D01*
X48169108Y-51544527D01*
X48116819Y-51501806D01*
X48037015Y-51436170D01*
X47932211Y-51349701D01*
X47804921Y-51244480D01*
X47657659Y-51122586D01*
X47492941Y-50986100D01*
X47313279Y-50837103D01*
X47121189Y-50677675D01*
X46919185Y-50509897D01*
X46826489Y-50432867D01*
X46606830Y-50250752D01*
X46397468Y-50078052D01*
X46200830Y-49916724D01*
X46019341Y-49768722D01*
X45855429Y-49636002D01*
X45711521Y-49520520D01*
X45590042Y-49424232D01*
X45493419Y-49349092D01*
X45424078Y-49297057D01*
X45384447Y-49270081D01*
X45381954Y-49268700D01*
X45316217Y-49236601D01*
X45258926Y-49217510D01*
X45194518Y-49208161D01*
X45107432Y-49205289D01*
X45079298Y-49205200D01*
X44984903Y-49206800D01*
X44915229Y-49214320D01*
X44852702Y-49231837D01*
X44779750Y-49263430D01*
X44735458Y-49284995D01*
X44583083Y-49381716D01*
X44441952Y-49512169D01*
X44318240Y-49668057D01*
X44218122Y-49841083D01*
X44147773Y-50022949D01*
X44128474Y-50100534D01*
X44113455Y-50183092D01*
X44104145Y-50262637D01*
X44101228Y-50344302D01*
X37049779Y-50344302D01*
X37292078Y-50007852D01*
X37625034Y-49545507D01*
X37967506Y-49069934D01*
X38317299Y-48584187D01*
X38672212Y-48091319D01*
X38807493Y-47903450D01*
X46255827Y-47903450D01*
X46269702Y-48074962D01*
X46311459Y-48221538D01*
X46384712Y-48352929D01*
X46453993Y-48438178D01*
X46585822Y-48555626D01*
X46732181Y-48634337D01*
X46895121Y-48674982D01*
X47076692Y-48678231D01*
X47158524Y-48668678D01*
X47313811Y-48646565D01*
X47457413Y-48629912D01*
X47597895Y-48618362D01*
X47743825Y-48611558D01*
X47903769Y-48609144D01*
X48086293Y-48610762D01*
X48299963Y-48616056D01*
X48369371Y-48618241D01*
X48549620Y-48622980D01*
X48759999Y-48626617D01*
X48988316Y-48629060D01*
X49222380Y-48630217D01*
X49449999Y-48629996D01*
X49658982Y-48628305D01*
X49674679Y-48628102D01*
X49902840Y-48625724D01*
X50089320Y-48625269D01*
X50234728Y-48626745D01*
X50339674Y-48630164D01*
X50404765Y-48635535D01*
X50428334Y-48641126D01*
X50460862Y-48676826D01*
X50480511Y-48745651D01*
X50483302Y-48765102D01*
X50488982Y-48806991D01*
X50500060Y-48885969D01*
X50515849Y-48997233D01*
X50535661Y-49135980D01*
X50558809Y-49297405D01*
X50584606Y-49476705D01*
X50612366Y-49669076D01*
X50632526Y-49808450D01*
X50666327Y-50045192D01*
X50702518Y-50304523D01*
X50739654Y-50575710D01*
X50776291Y-50848020D01*
X50810986Y-51110719D01*
X50842293Y-51353072D01*
X50868770Y-51564347D01*
X50868885Y-51565284D01*
X50901143Y-51821586D01*
X50930138Y-52038094D01*
X50955793Y-52214316D01*
X50978035Y-52349761D01*
X50996788Y-52443938D01*
X51009959Y-52491254D01*
X51077687Y-52619607D01*
X51178115Y-52738670D01*
X51301615Y-52839953D01*
X51438562Y-52914965D01*
X51523055Y-52943798D01*
X51620692Y-52956735D01*
X51740326Y-52954528D01*
X51865131Y-52938908D01*
X51978280Y-52911604D01*
X52030853Y-52891593D01*
X52110068Y-52851342D01*
X52186092Y-52806322D01*
X52222603Y-52781095D01*
X52325909Y-52679970D01*
X52414320Y-52550791D01*
X52481538Y-52406225D01*
X52521268Y-52258941D01*
X52529371Y-52163910D01*
X52526253Y-52104784D01*
X52517433Y-52006802D01*
X52503299Y-51873000D01*
X52484239Y-51706416D01*
X52460641Y-51510087D01*
X52432892Y-51287048D01*
X52401380Y-51040338D01*
X52366492Y-50772993D01*
X52328617Y-50488050D01*
X52288141Y-50188545D01*
X52245453Y-49877517D01*
X52200939Y-49558000D01*
X52157492Y-49250612D01*
X52137424Y-49106446D01*
X52120209Y-48976538D01*
X52106536Y-48866629D01*
X52097097Y-48782462D01*
X52092580Y-48729778D01*
X52093006Y-48714122D01*
X52117706Y-48711496D01*
X52179412Y-48712329D01*
X52272971Y-48716252D01*
X52393230Y-48722895D01*
X52535035Y-48731891D01*
X52693233Y-48742870D01*
X52862671Y-48755463D01*
X53038194Y-48769300D01*
X53214650Y-48784014D01*
X53386885Y-48799234D01*
X53549746Y-48814592D01*
X53678866Y-48827681D01*
X53988856Y-48856380D01*
X54281542Y-48875580D01*
X54552645Y-48885245D01*
X54797887Y-48885341D01*
X55012992Y-48875831D01*
X55193680Y-48856681D01*
X55282084Y-48840917D01*
X55486580Y-48783781D01*
X55654840Y-48707354D01*
X55788779Y-48610689D01*
X55829103Y-48570602D01*
X55905023Y-48480008D01*
X55957305Y-48393842D01*
X55989872Y-48300719D01*
X56006646Y-48189252D01*
X56011551Y-48048056D01*
X56011555Y-48041034D01*
X56010328Y-47932065D01*
X56005622Y-47854039D01*
X55995743Y-47795601D01*
X55978998Y-47745398D01*
X55961934Y-47708371D01*
X55862868Y-47554264D01*
X55734028Y-47429433D01*
X55603542Y-47348603D01*
X55462246Y-47279034D01*
X54657448Y-47264781D01*
X54452391Y-47260429D01*
X54239515Y-47254613D01*
X54027620Y-47247663D01*
X53825504Y-47239910D01*
X53641967Y-47231682D01*
X53485808Y-47223311D01*
X53397567Y-47217547D01*
X53229864Y-47205524D01*
X53035611Y-47191813D01*
X52830496Y-47177507D01*
X52630212Y-47163700D01*
X52450447Y-47151487D01*
X52445067Y-47151125D01*
X52302017Y-47141268D01*
X52171262Y-47131801D01*
X52059336Y-47123237D01*
X51972776Y-47116083D01*
X51918118Y-47110850D01*
X51903576Y-47108889D01*
X51888293Y-47102145D01*
X51874101Y-47085073D01*
X51859446Y-47052631D01*
X51842772Y-46999773D01*
X51822521Y-46921456D01*
X51797140Y-46812633D01*
X51765070Y-46668262D01*
X51758712Y-46639230D01*
X51725200Y-46489678D01*
X51683789Y-46310689D01*
X51637229Y-46113799D01*
X51588267Y-45910542D01*
X51539654Y-45712454D01*
X51502626Y-45564534D01*
X51429165Y-45269224D01*
X51366053Y-45003869D01*
X51311048Y-44758008D01*
X51261905Y-44521177D01*
X51216384Y-44282915D01*
X51172241Y-44032760D01*
X51164598Y-43987617D01*
X51135785Y-43832283D01*
X51105746Y-43699048D01*
X51076276Y-43595298D01*
X51056471Y-43543117D01*
X50973822Y-43406758D01*
X50860641Y-43285415D01*
X50728652Y-43191502D01*
X50719984Y-43186793D01*
X50667256Y-43160884D01*
X50618438Y-43144340D01*
X50561604Y-43135108D01*
X50484824Y-43131138D01*
X50391900Y-43130367D01*
X50286487Y-43131543D01*
X50210274Y-43136556D01*
X50150157Y-43147634D01*
X50093032Y-43167005D01*
X50040314Y-43190140D01*
X49926809Y-43256656D01*
X49821030Y-43344038D01*
X49734285Y-43441528D01*
X49680310Y-43532534D01*
X49660182Y-43604901D01*
X49645242Y-43710225D01*
X49635843Y-43839404D01*
X49632337Y-43983337D01*
X49635077Y-44132925D01*
X49644415Y-44279067D01*
X49649462Y-44329108D01*
X49671731Y-44504551D01*
X49701381Y-44697671D01*
X49739135Y-44912141D01*
X49785713Y-45151634D01*
X49841839Y-45419824D01*
X49908234Y-45720384D01*
X49985619Y-46056986D01*
X50006630Y-46146617D01*
X50213259Y-47025034D01*
X49630538Y-47035617D01*
X49438279Y-47037914D01*
X49224103Y-47038461D01*
X49002449Y-47037351D01*
X48787759Y-47034681D01*
X48594471Y-47030547D01*
X48518650Y-47028245D01*
X48192455Y-47019919D01*
X47904216Y-47018737D01*
X47650095Y-47025125D01*
X47426250Y-47039509D01*
X47228843Y-47062316D01*
X47054033Y-47093973D01*
X46897979Y-47134906D01*
X46756843Y-47185542D01*
X46646378Y-47236205D01*
X46537741Y-47309724D01*
X46434298Y-47413293D01*
X46346931Y-47535011D01*
X46310587Y-47603410D01*
X46281185Y-47674187D01*
X46264305Y-47739849D01*
X46256916Y-47817009D01*
X46255827Y-47903450D01*
X38807493Y-47903450D01*
X39030048Y-47594381D01*
X39388610Y-47096428D01*
X39745699Y-46600511D01*
X40099116Y-46109684D01*
X40446665Y-45626998D01*
X40786146Y-45155507D01*
X41115362Y-44698263D01*
X41432115Y-44258319D01*
X41734207Y-43838728D01*
X42019439Y-43442543D01*
X42285613Y-43072815D01*
X42530532Y-42732598D01*
X42663214Y-42548284D01*
X42913506Y-42200798D01*
X43064406Y-41991551D01*
X51545019Y-41991551D01*
X51551888Y-42188735D01*
X51568460Y-42376237D01*
X51594592Y-42541367D01*
X51596036Y-42548284D01*
X51702796Y-42953040D01*
X51848524Y-43341527D01*
X52033270Y-43713819D01*
X52257084Y-44069994D01*
X52520013Y-44410126D01*
X52822107Y-44734290D01*
X53163415Y-45042564D01*
X53264158Y-45124564D01*
X53664097Y-45425703D01*
X54056110Y-45685703D01*
X54440894Y-45904870D01*
X54819150Y-46083510D01*
X55191576Y-46221930D01*
X55558873Y-46320436D01*
X55921738Y-46379333D01*
X56170400Y-46397056D01*
X56236228Y-46396099D01*
X56327338Y-46390723D01*
X56427037Y-46381990D01*
X56456150Y-46378872D01*
X56773246Y-46323322D01*
X57072938Y-46229480D01*
X57357536Y-46096516D01*
X57527213Y-45994203D01*
X57778985Y-45807232D01*
X58015155Y-45589614D01*
X58231897Y-45346962D01*
X58425383Y-45084886D01*
X58591785Y-44808997D01*
X58727277Y-44524908D01*
X58828031Y-44238230D01*
X58881407Y-44008784D01*
X58906046Y-43785351D01*
X58907234Y-43539889D01*
X58886140Y-43284805D01*
X58843936Y-43032506D01*
X58781791Y-42795398D01*
X58761125Y-42733837D01*
X58633852Y-42426998D01*
X58467210Y-42112536D01*
X58262970Y-41792807D01*
X58022903Y-41470165D01*
X57748780Y-41146964D01*
X57442374Y-40825559D01*
X57105456Y-40508304D01*
X57048817Y-40458069D01*
X56741975Y-40199196D01*
X56449168Y-39975825D01*
X56165791Y-39785451D01*
X55887240Y-39625568D01*
X55608909Y-39493669D01*
X55326193Y-39387250D01*
X55034489Y-39303804D01*
X54854549Y-39263982D01*
X54681472Y-39237371D01*
X54486770Y-39220595D01*
X54282235Y-39213674D01*
X54079655Y-39216633D01*
X53890822Y-39229491D01*
X53727526Y-39252273D01*
X53682060Y-39261785D01*
X53374778Y-39354199D01*
X53081408Y-39484527D01*
X52804738Y-39649839D01*
X52547553Y-39847202D01*
X52312639Y-40073686D01*
X52102783Y-40326361D01*
X51920772Y-40602295D01*
X51769390Y-40898557D01*
X51651425Y-41212216D01*
X51584033Y-41468784D01*
X51560950Y-41618887D01*
X51547993Y-41797373D01*
X51545019Y-41991551D01*
X43064406Y-41991551D01*
X43164008Y-41853437D01*
X43412998Y-41508571D01*
X43658753Y-41168569D01*
X43899553Y-40835800D01*
X44133676Y-40512635D01*
X44359400Y-40201443D01*
X44575004Y-39904593D01*
X44778766Y-39624456D01*
X44968964Y-39363400D01*
X45143876Y-39123796D01*
X45301782Y-38908013D01*
X45440958Y-38718422D01*
X45559685Y-38557390D01*
X45656240Y-38427289D01*
X45692759Y-38378450D01*
X45755809Y-38294156D01*
X45843000Y-38177205D01*
X45953308Y-38028981D01*
X46085706Y-37850868D01*
X46239170Y-37644249D01*
X46285884Y-37581317D01*
%TD*%
M02*
