%TF.GenerationSoftware,KiCad,Pcbnew,(7.0.0)*%
%TF.CreationDate,2023-05-30T19:58:02-04:00*%
%TF.ProjectId,DC31H4X0R,44433331-4834-4583-9052-2e6b69636164,rev?*%
%TF.SameCoordinates,Original*%
%TF.FileFunction,Legend,Bot*%
%TF.FilePolarity,Positive*%
%FSLAX46Y46*%
G04 Gerber Fmt 4.6, Leading zero omitted, Abs format (unit mm)*
G04 Created by KiCad (PCBNEW (7.0.0)) date 2023-05-30 19:58:02*
%MOMM*%
%LPD*%
G01*
G04 APERTURE LIST*
%ADD10C,0.010000*%
G04 APERTURE END LIST*
%TO.C,G\u002A\u002A\u002A*%
G36*
X59811769Y-32724644D02*
G01*
X59859738Y-32755719D01*
X59926218Y-32801125D01*
X60003673Y-32855465D01*
X60084564Y-32913342D01*
X60161353Y-32969356D01*
X60226501Y-33018110D01*
X60272472Y-33054207D01*
X60291726Y-33072249D01*
X60291890Y-33072794D01*
X60280576Y-33093754D01*
X60249789Y-33140136D01*
X60205298Y-33203375D01*
X60186178Y-33229798D01*
X60138567Y-33297713D01*
X60103446Y-33352845D01*
X60086307Y-33386361D01*
X60085636Y-33391553D01*
X60103440Y-33406946D01*
X60151997Y-33444611D01*
X60227809Y-33501941D01*
X60327378Y-33576331D01*
X60447205Y-33665174D01*
X60583791Y-33765865D01*
X60733639Y-33875796D01*
X60842568Y-33955406D01*
X61593625Y-34503470D01*
X61707315Y-34347794D01*
X61758717Y-34280120D01*
X61801515Y-34228788D01*
X61829411Y-34201116D01*
X61835799Y-34198437D01*
X61867623Y-34217220D01*
X61922401Y-34254573D01*
X61992673Y-34304892D01*
X62070974Y-34362572D01*
X62149844Y-34422010D01*
X62221820Y-34477599D01*
X62279439Y-34523736D01*
X62315240Y-34554817D01*
X62323321Y-34564591D01*
X62311440Y-34586579D01*
X62277794Y-34637526D01*
X62225980Y-34712498D01*
X62159598Y-34806561D01*
X62082245Y-34914780D01*
X61997520Y-35032220D01*
X61909023Y-35153948D01*
X61820350Y-35275030D01*
X61735101Y-35390530D01*
X61656874Y-35495515D01*
X61589268Y-35585049D01*
X61535881Y-35654200D01*
X61500311Y-35698032D01*
X61486764Y-35711701D01*
X61463280Y-35702249D01*
X61412552Y-35671643D01*
X61341170Y-35624172D01*
X61255725Y-35564123D01*
X61218720Y-35537276D01*
X60971134Y-35356032D01*
X61078832Y-35207961D01*
X61125673Y-35139859D01*
X61158687Y-35084580D01*
X61172932Y-35050747D01*
X61172197Y-35045074D01*
X61152932Y-35030197D01*
X61102545Y-34992614D01*
X61024106Y-34934582D01*
X60920682Y-34858357D01*
X60795342Y-34766196D01*
X60651156Y-34660357D01*
X60491191Y-34543095D01*
X60318517Y-34416667D01*
X60169604Y-34307748D01*
X59982349Y-34170303D01*
X59808091Y-34041329D01*
X59649609Y-33922950D01*
X59509682Y-33817288D01*
X59391089Y-33726466D01*
X59296608Y-33652607D01*
X59229019Y-33597833D01*
X59191100Y-33564268D01*
X59183680Y-33554657D01*
X59196176Y-33529918D01*
X59229499Y-33477645D01*
X59279479Y-33403625D01*
X59341944Y-33313649D01*
X59412724Y-33213506D01*
X59487647Y-33108986D01*
X59562541Y-33005879D01*
X59633236Y-32909974D01*
X59695560Y-32827062D01*
X59745342Y-32762931D01*
X59778411Y-32723371D01*
X59789851Y-32713298D01*
X59811769Y-32724644D01*
G37*
D10*
X59811769Y-32724644D02*
X59859738Y-32755719D01*
X59926218Y-32801125D01*
X60003673Y-32855465D01*
X60084564Y-32913342D01*
X60161353Y-32969356D01*
X60226501Y-33018110D01*
X60272472Y-33054207D01*
X60291726Y-33072249D01*
X60291890Y-33072794D01*
X60280576Y-33093754D01*
X60249789Y-33140136D01*
X60205298Y-33203375D01*
X60186178Y-33229798D01*
X60138567Y-33297713D01*
X60103446Y-33352845D01*
X60086307Y-33386361D01*
X60085636Y-33391553D01*
X60103440Y-33406946D01*
X60151997Y-33444611D01*
X60227809Y-33501941D01*
X60327378Y-33576331D01*
X60447205Y-33665174D01*
X60583791Y-33765865D01*
X60733639Y-33875796D01*
X60842568Y-33955406D01*
X61593625Y-34503470D01*
X61707315Y-34347794D01*
X61758717Y-34280120D01*
X61801515Y-34228788D01*
X61829411Y-34201116D01*
X61835799Y-34198437D01*
X61867623Y-34217220D01*
X61922401Y-34254573D01*
X61992673Y-34304892D01*
X62070974Y-34362572D01*
X62149844Y-34422010D01*
X62221820Y-34477599D01*
X62279439Y-34523736D01*
X62315240Y-34554817D01*
X62323321Y-34564591D01*
X62311440Y-34586579D01*
X62277794Y-34637526D01*
X62225980Y-34712498D01*
X62159598Y-34806561D01*
X62082245Y-34914780D01*
X61997520Y-35032220D01*
X61909023Y-35153948D01*
X61820350Y-35275030D01*
X61735101Y-35390530D01*
X61656874Y-35495515D01*
X61589268Y-35585049D01*
X61535881Y-35654200D01*
X61500311Y-35698032D01*
X61486764Y-35711701D01*
X61463280Y-35702249D01*
X61412552Y-35671643D01*
X61341170Y-35624172D01*
X61255725Y-35564123D01*
X61218720Y-35537276D01*
X60971134Y-35356032D01*
X61078832Y-35207961D01*
X61125673Y-35139859D01*
X61158687Y-35084580D01*
X61172932Y-35050747D01*
X61172197Y-35045074D01*
X61152932Y-35030197D01*
X61102545Y-34992614D01*
X61024106Y-34934582D01*
X60920682Y-34858357D01*
X60795342Y-34766196D01*
X60651156Y-34660357D01*
X60491191Y-34543095D01*
X60318517Y-34416667D01*
X60169604Y-34307748D01*
X59982349Y-34170303D01*
X59808091Y-34041329D01*
X59649609Y-33922950D01*
X59509682Y-33817288D01*
X59391089Y-33726466D01*
X59296608Y-33652607D01*
X59229019Y-33597833D01*
X59191100Y-33564268D01*
X59183680Y-33554657D01*
X59196176Y-33529918D01*
X59229499Y-33477645D01*
X59279479Y-33403625D01*
X59341944Y-33313649D01*
X59412724Y-33213506D01*
X59487647Y-33108986D01*
X59562541Y-33005879D01*
X59633236Y-32909974D01*
X59695560Y-32827062D01*
X59745342Y-32762931D01*
X59778411Y-32723371D01*
X59789851Y-32713298D01*
X59811769Y-32724644D01*
G36*
X57802038Y-35616120D02*
G01*
X58432578Y-35616120D01*
X58441826Y-35693225D01*
X58465462Y-35772612D01*
X58507858Y-35854625D01*
X58581934Y-35952231D01*
X58682245Y-36060676D01*
X58803350Y-36175202D01*
X58939805Y-36291055D01*
X59086168Y-36403480D01*
X59236996Y-36507719D01*
X59386845Y-36599019D01*
X59451316Y-36633995D01*
X59557436Y-36687157D01*
X59639475Y-36721800D01*
X59709588Y-36741292D01*
X59779932Y-36748999D01*
X59862661Y-36748287D01*
X59863818Y-36748240D01*
X59941461Y-36742466D01*
X59993524Y-36728923D01*
X60036731Y-36701355D01*
X60069794Y-36671207D01*
X60144861Y-36574327D01*
X60178599Y-36469024D01*
X60171042Y-36354900D01*
X60122229Y-36231561D01*
X60112270Y-36213819D01*
X60049666Y-36127109D01*
X59956478Y-36025929D01*
X59839451Y-35915774D01*
X59705329Y-35802141D01*
X59560856Y-35690528D01*
X59412776Y-35586431D01*
X59267835Y-35495346D01*
X59155204Y-35433796D01*
X58987613Y-35359680D01*
X58844505Y-35318620D01*
X58723773Y-35310736D01*
X58623308Y-35336144D01*
X58541000Y-35394964D01*
X58483666Y-35471444D01*
X58446210Y-35547398D01*
X58432578Y-35616120D01*
X57802038Y-35616120D01*
X57809904Y-35503088D01*
X57863940Y-35315229D01*
X57887493Y-35261597D01*
X57964119Y-35129173D01*
X58063277Y-35000417D01*
X58174794Y-34886637D01*
X58288497Y-34799140D01*
X58320648Y-34780176D01*
X58502421Y-34704962D01*
X58701460Y-34666300D01*
X58913945Y-34664034D01*
X59136054Y-34698008D01*
X59363968Y-34768065D01*
X59504435Y-34828558D01*
X59752501Y-34962016D01*
X59985239Y-35116431D01*
X60198189Y-35287474D01*
X60386893Y-35470816D01*
X60546890Y-35662129D01*
X60673720Y-35857083D01*
X60762217Y-36049383D01*
X60804142Y-36214705D01*
X60818778Y-36392113D01*
X60805576Y-36565189D01*
X60782725Y-36664598D01*
X60706172Y-36849063D01*
X60595521Y-37019854D01*
X60457609Y-37168268D01*
X60299270Y-37285601D01*
X60291258Y-37290311D01*
X60139255Y-37356798D01*
X59963671Y-37396586D01*
X59774554Y-37408688D01*
X59581954Y-37392116D01*
X59477677Y-37370291D01*
X59298930Y-37318012D01*
X59138363Y-37255855D01*
X58981620Y-37177242D01*
X58814344Y-37075595D01*
X58768593Y-37045410D01*
X58521406Y-36864743D01*
X58308916Y-36677192D01*
X58131967Y-36484468D01*
X57991404Y-36288280D01*
X57888072Y-36090338D01*
X57822814Y-35892352D01*
X57796477Y-35696032D01*
X57802038Y-35616120D01*
G37*
X57802038Y-35616120D02*
X58432578Y-35616120D01*
X58441826Y-35693225D01*
X58465462Y-35772612D01*
X58507858Y-35854625D01*
X58581934Y-35952231D01*
X58682245Y-36060676D01*
X58803350Y-36175202D01*
X58939805Y-36291055D01*
X59086168Y-36403480D01*
X59236996Y-36507719D01*
X59386845Y-36599019D01*
X59451316Y-36633995D01*
X59557436Y-36687157D01*
X59639475Y-36721800D01*
X59709588Y-36741292D01*
X59779932Y-36748999D01*
X59862661Y-36748287D01*
X59863818Y-36748240D01*
X59941461Y-36742466D01*
X59993524Y-36728923D01*
X60036731Y-36701355D01*
X60069794Y-36671207D01*
X60144861Y-36574327D01*
X60178599Y-36469024D01*
X60171042Y-36354900D01*
X60122229Y-36231561D01*
X60112270Y-36213819D01*
X60049666Y-36127109D01*
X59956478Y-36025929D01*
X59839451Y-35915774D01*
X59705329Y-35802141D01*
X59560856Y-35690528D01*
X59412776Y-35586431D01*
X59267835Y-35495346D01*
X59155204Y-35433796D01*
X58987613Y-35359680D01*
X58844505Y-35318620D01*
X58723773Y-35310736D01*
X58623308Y-35336144D01*
X58541000Y-35394964D01*
X58483666Y-35471444D01*
X58446210Y-35547398D01*
X58432578Y-35616120D01*
X57802038Y-35616120D01*
X57809904Y-35503088D01*
X57863940Y-35315229D01*
X57887493Y-35261597D01*
X57964119Y-35129173D01*
X58063277Y-35000417D01*
X58174794Y-34886637D01*
X58288497Y-34799140D01*
X58320648Y-34780176D01*
X58502421Y-34704962D01*
X58701460Y-34666300D01*
X58913945Y-34664034D01*
X59136054Y-34698008D01*
X59363968Y-34768065D01*
X59504435Y-34828558D01*
X59752501Y-34962016D01*
X59985239Y-35116431D01*
X60198189Y-35287474D01*
X60386893Y-35470816D01*
X60546890Y-35662129D01*
X60673720Y-35857083D01*
X60762217Y-36049383D01*
X60804142Y-36214705D01*
X60818778Y-36392113D01*
X60805576Y-36565189D01*
X60782725Y-36664598D01*
X60706172Y-36849063D01*
X60595521Y-37019854D01*
X60457609Y-37168268D01*
X60299270Y-37285601D01*
X60291258Y-37290311D01*
X60139255Y-37356798D01*
X59963671Y-37396586D01*
X59774554Y-37408688D01*
X59581954Y-37392116D01*
X59477677Y-37370291D01*
X59298930Y-37318012D01*
X59138363Y-37255855D01*
X58981620Y-37177242D01*
X58814344Y-37075595D01*
X58768593Y-37045410D01*
X58521406Y-36864743D01*
X58308916Y-36677192D01*
X58131967Y-36484468D01*
X57991404Y-36288280D01*
X57888072Y-36090338D01*
X57822814Y-35892352D01*
X57796477Y-35696032D01*
X57802038Y-35616120D01*
G36*
X50378638Y-36987661D02*
G01*
X51052576Y-36987661D01*
X51052704Y-37089665D01*
X51074465Y-37192236D01*
X51130161Y-37340695D01*
X51208663Y-37470668D01*
X51318932Y-37596965D01*
X51320047Y-37598081D01*
X51474539Y-37733229D01*
X51637861Y-37840893D01*
X51804823Y-37919443D01*
X51970233Y-37967248D01*
X52128901Y-37982678D01*
X52275635Y-37964103D01*
X52371692Y-37928403D01*
X52448156Y-37883348D01*
X52532822Y-37823170D01*
X52590294Y-37775776D01*
X52643975Y-37722983D01*
X52707140Y-37653925D01*
X52774322Y-37575494D01*
X52840053Y-37494588D01*
X52898864Y-37418100D01*
X52945288Y-37352926D01*
X52973856Y-37305962D01*
X52979675Y-37284775D01*
X52959949Y-37267661D01*
X52910348Y-37229250D01*
X52835179Y-37172668D01*
X52738749Y-37101038D01*
X52625366Y-37017487D01*
X52499337Y-36925139D01*
X52364968Y-36827118D01*
X52226569Y-36726550D01*
X52088445Y-36626560D01*
X51954904Y-36530273D01*
X51830253Y-36440813D01*
X51718800Y-36361305D01*
X51624853Y-36294874D01*
X51552717Y-36244646D01*
X51506701Y-36213744D01*
X51491343Y-36205008D01*
X51470273Y-36222085D01*
X51432698Y-36268464D01*
X51383416Y-36336864D01*
X51327226Y-36420003D01*
X51268927Y-36510602D01*
X51213317Y-36601379D01*
X51165196Y-36685054D01*
X51129572Y-36753897D01*
X51077659Y-36880025D01*
X51052576Y-36987661D01*
X50378638Y-36987661D01*
X50402500Y-36816630D01*
X50472687Y-36594231D01*
X50501792Y-36528510D01*
X50534026Y-36462902D01*
X50568822Y-36397513D01*
X50608837Y-36328370D01*
X50656727Y-36251499D01*
X50715150Y-36162925D01*
X50786761Y-36058675D01*
X50874218Y-35934775D01*
X50980177Y-35787249D01*
X51107296Y-35612125D01*
X51192311Y-35495596D01*
X51618718Y-34911893D01*
X51674697Y-34948467D01*
X51706604Y-34970553D01*
X51763295Y-35010903D01*
X51836153Y-35063272D01*
X51916563Y-35121415D01*
X51995909Y-35179089D01*
X52065573Y-35230048D01*
X52116940Y-35268049D01*
X52140056Y-35285722D01*
X52131314Y-35303901D01*
X52101879Y-35347768D01*
X52057068Y-35409606D01*
X52029158Y-35446693D01*
X51974156Y-35520277D01*
X51942342Y-35568170D01*
X51930417Y-35597709D01*
X51935084Y-35616229D01*
X51947862Y-35627562D01*
X51972418Y-35645284D01*
X52027367Y-35685257D01*
X52108939Y-35744729D01*
X52213366Y-35820949D01*
X52336878Y-35911164D01*
X52475707Y-36012624D01*
X52626083Y-36122577D01*
X52703759Y-36179393D01*
X53422842Y-36705420D01*
X53650632Y-36393504D01*
X53706654Y-36430105D01*
X53738615Y-36452241D01*
X53795777Y-36492932D01*
X53869319Y-36545789D01*
X53950422Y-36604423D01*
X54030265Y-36662445D01*
X54100027Y-36713465D01*
X54150887Y-36751094D01*
X54171474Y-36766806D01*
X54161295Y-36784528D01*
X54129286Y-36831580D01*
X54078841Y-36903299D01*
X54013358Y-36995021D01*
X53936231Y-37102081D01*
X53850857Y-37219815D01*
X53760632Y-37343558D01*
X53668951Y-37468646D01*
X53579212Y-37590414D01*
X53494809Y-37704199D01*
X53419138Y-37805335D01*
X53355597Y-37889159D01*
X53332237Y-37919508D01*
X53151678Y-38136180D01*
X52974196Y-38314803D01*
X52795455Y-38459008D01*
X52611117Y-38572425D01*
X52477411Y-38635036D01*
X52347429Y-38673433D01*
X52191821Y-38695181D01*
X52024068Y-38699837D01*
X51857655Y-38686957D01*
X51720093Y-38659983D01*
X51484120Y-38578561D01*
X51255750Y-38464981D01*
X51041364Y-38324222D01*
X50847340Y-38161259D01*
X50680058Y-37981070D01*
X50545898Y-37788632D01*
X50503815Y-37711103D01*
X50421198Y-37499278D01*
X50376766Y-37275416D01*
X50370530Y-37045779D01*
X50378638Y-36987661D01*
G37*
X50378638Y-36987661D02*
X51052576Y-36987661D01*
X51052704Y-37089665D01*
X51074465Y-37192236D01*
X51130161Y-37340695D01*
X51208663Y-37470668D01*
X51318932Y-37596965D01*
X51320047Y-37598081D01*
X51474539Y-37733229D01*
X51637861Y-37840893D01*
X51804823Y-37919443D01*
X51970233Y-37967248D01*
X52128901Y-37982678D01*
X52275635Y-37964103D01*
X52371692Y-37928403D01*
X52448156Y-37883348D01*
X52532822Y-37823170D01*
X52590294Y-37775776D01*
X52643975Y-37722983D01*
X52707140Y-37653925D01*
X52774322Y-37575494D01*
X52840053Y-37494588D01*
X52898864Y-37418100D01*
X52945288Y-37352926D01*
X52973856Y-37305962D01*
X52979675Y-37284775D01*
X52959949Y-37267661D01*
X52910348Y-37229250D01*
X52835179Y-37172668D01*
X52738749Y-37101038D01*
X52625366Y-37017487D01*
X52499337Y-36925139D01*
X52364968Y-36827118D01*
X52226569Y-36726550D01*
X52088445Y-36626560D01*
X51954904Y-36530273D01*
X51830253Y-36440813D01*
X51718800Y-36361305D01*
X51624853Y-36294874D01*
X51552717Y-36244646D01*
X51506701Y-36213744D01*
X51491343Y-36205008D01*
X51470273Y-36222085D01*
X51432698Y-36268464D01*
X51383416Y-36336864D01*
X51327226Y-36420003D01*
X51268927Y-36510602D01*
X51213317Y-36601379D01*
X51165196Y-36685054D01*
X51129572Y-36753897D01*
X51077659Y-36880025D01*
X51052576Y-36987661D01*
X50378638Y-36987661D01*
X50402500Y-36816630D01*
X50472687Y-36594231D01*
X50501792Y-36528510D01*
X50534026Y-36462902D01*
X50568822Y-36397513D01*
X50608837Y-36328370D01*
X50656727Y-36251499D01*
X50715150Y-36162925D01*
X50786761Y-36058675D01*
X50874218Y-35934775D01*
X50980177Y-35787249D01*
X51107296Y-35612125D01*
X51192311Y-35495596D01*
X51618718Y-34911893D01*
X51674697Y-34948467D01*
X51706604Y-34970553D01*
X51763295Y-35010903D01*
X51836153Y-35063272D01*
X51916563Y-35121415D01*
X51995909Y-35179089D01*
X52065573Y-35230048D01*
X52116940Y-35268049D01*
X52140056Y-35285722D01*
X52131314Y-35303901D01*
X52101879Y-35347768D01*
X52057068Y-35409606D01*
X52029158Y-35446693D01*
X51974156Y-35520277D01*
X51942342Y-35568170D01*
X51930417Y-35597709D01*
X51935084Y-35616229D01*
X51947862Y-35627562D01*
X51972418Y-35645284D01*
X52027367Y-35685257D01*
X52108939Y-35744729D01*
X52213366Y-35820949D01*
X52336878Y-35911164D01*
X52475707Y-36012624D01*
X52626083Y-36122577D01*
X52703759Y-36179393D01*
X53422842Y-36705420D01*
X53650632Y-36393504D01*
X53706654Y-36430105D01*
X53738615Y-36452241D01*
X53795777Y-36492932D01*
X53869319Y-36545789D01*
X53950422Y-36604423D01*
X54030265Y-36662445D01*
X54100027Y-36713465D01*
X54150887Y-36751094D01*
X54171474Y-36766806D01*
X54161295Y-36784528D01*
X54129286Y-36831580D01*
X54078841Y-36903299D01*
X54013358Y-36995021D01*
X53936231Y-37102081D01*
X53850857Y-37219815D01*
X53760632Y-37343558D01*
X53668951Y-37468646D01*
X53579212Y-37590414D01*
X53494809Y-37704199D01*
X53419138Y-37805335D01*
X53355597Y-37889159D01*
X53332237Y-37919508D01*
X53151678Y-38136180D01*
X52974196Y-38314803D01*
X52795455Y-38459008D01*
X52611117Y-38572425D01*
X52477411Y-38635036D01*
X52347429Y-38673433D01*
X52191821Y-38695181D01*
X52024068Y-38699837D01*
X51857655Y-38686957D01*
X51720093Y-38659983D01*
X51484120Y-38578561D01*
X51255750Y-38464981D01*
X51041364Y-38324222D01*
X50847340Y-38161259D01*
X50680058Y-37981070D01*
X50545898Y-37788632D01*
X50503815Y-37711103D01*
X50421198Y-37499278D01*
X50376766Y-37275416D01*
X50370530Y-37045779D01*
X50378638Y-36987661D01*
G36*
X58126215Y-37888997D02*
G01*
X58173291Y-37920960D01*
X58239442Y-37967807D01*
X58317534Y-38024284D01*
X58400429Y-38085133D01*
X58480994Y-38145099D01*
X58552092Y-38198925D01*
X58606588Y-38241357D01*
X58637345Y-38267138D01*
X58641593Y-38272163D01*
X58629476Y-38293668D01*
X58595447Y-38343963D01*
X58542990Y-38418349D01*
X58475591Y-38512124D01*
X58396732Y-38620588D01*
X58309900Y-38739042D01*
X58218577Y-38862783D01*
X58126248Y-38987113D01*
X58036398Y-39107330D01*
X57952511Y-39218734D01*
X57878071Y-39316624D01*
X57816562Y-39396301D01*
X57771470Y-39453064D01*
X57746278Y-39482212D01*
X57742478Y-39485089D01*
X57718567Y-39472893D01*
X57667311Y-39439837D01*
X57595290Y-39390382D01*
X57509087Y-39328986D01*
X57468566Y-39299489D01*
X57380021Y-39233154D01*
X57305422Y-39174487D01*
X57250720Y-39128386D01*
X57221863Y-39099751D01*
X57218894Y-39093867D01*
X57231494Y-39072401D01*
X57265640Y-39021985D01*
X57317887Y-38947348D01*
X57384790Y-38853217D01*
X57462904Y-38744320D01*
X57548785Y-38625386D01*
X57638987Y-38501143D01*
X57730066Y-38376318D01*
X57818578Y-38255641D01*
X57901076Y-38143839D01*
X57974117Y-38045640D01*
X58034256Y-37965772D01*
X58078048Y-37908964D01*
X58102048Y-37879944D01*
X58105350Y-37877175D01*
X58126215Y-37888997D01*
G37*
X58126215Y-37888997D02*
X58173291Y-37920960D01*
X58239442Y-37967807D01*
X58317534Y-38024284D01*
X58400429Y-38085133D01*
X58480994Y-38145099D01*
X58552092Y-38198925D01*
X58606588Y-38241357D01*
X58637345Y-38267138D01*
X58641593Y-38272163D01*
X58629476Y-38293668D01*
X58595447Y-38343963D01*
X58542990Y-38418349D01*
X58475591Y-38512124D01*
X58396732Y-38620588D01*
X58309900Y-38739042D01*
X58218577Y-38862783D01*
X58126248Y-38987113D01*
X58036398Y-39107330D01*
X57952511Y-39218734D01*
X57878071Y-39316624D01*
X57816562Y-39396301D01*
X57771470Y-39453064D01*
X57746278Y-39482212D01*
X57742478Y-39485089D01*
X57718567Y-39472893D01*
X57667311Y-39439837D01*
X57595290Y-39390382D01*
X57509087Y-39328986D01*
X57468566Y-39299489D01*
X57380021Y-39233154D01*
X57305422Y-39174487D01*
X57250720Y-39128386D01*
X57221863Y-39099751D01*
X57218894Y-39093867D01*
X57231494Y-39072401D01*
X57265640Y-39021985D01*
X57317887Y-38947348D01*
X57384790Y-38853217D01*
X57462904Y-38744320D01*
X57548785Y-38625386D01*
X57638987Y-38501143D01*
X57730066Y-38376318D01*
X57818578Y-38255641D01*
X57901076Y-38143839D01*
X57974117Y-38045640D01*
X58034256Y-37965772D01*
X58078048Y-37908964D01*
X58102048Y-37879944D01*
X58105350Y-37877175D01*
X58126215Y-37888997D01*
G36*
X54959657Y-39356578D02*
G01*
X55007311Y-39382708D01*
X55073600Y-39424211D01*
X55151064Y-39475868D01*
X55232243Y-39532462D01*
X55309678Y-39588772D01*
X55375908Y-39639579D01*
X55423474Y-39679666D01*
X55444916Y-39703812D01*
X55445427Y-39705979D01*
X55433681Y-39731075D01*
X55402359Y-39780869D01*
X55357331Y-39846229D01*
X55338295Y-39872635D01*
X55290802Y-39939259D01*
X55255743Y-39991400D01*
X55238470Y-40020964D01*
X55237753Y-40024667D01*
X55277262Y-40054697D01*
X55343910Y-40104046D01*
X55433452Y-40169658D01*
X55541643Y-40248476D01*
X55664239Y-40337446D01*
X55796993Y-40433509D01*
X55935662Y-40533611D01*
X56076000Y-40634695D01*
X56213762Y-40733706D01*
X56344702Y-40827586D01*
X56464577Y-40913280D01*
X56569141Y-40987732D01*
X56654149Y-41047885D01*
X56715355Y-41090684D01*
X56748515Y-41113071D01*
X56753187Y-41115675D01*
X56772831Y-41099648D01*
X56809781Y-41056980D01*
X56857173Y-40995783D01*
X56874011Y-40972800D01*
X56922006Y-40906389D01*
X56959626Y-40854341D01*
X56980689Y-40825209D01*
X56982960Y-40822072D01*
X57001050Y-40831216D01*
X57047397Y-40861708D01*
X57116357Y-40909548D01*
X57202284Y-40970731D01*
X57299532Y-41041256D01*
X57402457Y-41117120D01*
X57464328Y-41163342D01*
X57473897Y-41173166D01*
X57477172Y-41187044D01*
X57471909Y-41208548D01*
X57455862Y-41241254D01*
X57426787Y-41288736D01*
X57382440Y-41354569D01*
X57320576Y-41442327D01*
X57238951Y-41555583D01*
X57135320Y-41697914D01*
X57087775Y-41763004D01*
X56987601Y-41899200D01*
X56894567Y-42024006D01*
X56811773Y-42133393D01*
X56742322Y-42223330D01*
X56689315Y-42289784D01*
X56655854Y-42328726D01*
X56645790Y-42337446D01*
X56620235Y-42327230D01*
X56567825Y-42295963D01*
X56495490Y-42248102D01*
X56410157Y-42188107D01*
X56382655Y-42168112D01*
X56296753Y-42104341D01*
X56224598Y-42049186D01*
X56172392Y-42007510D01*
X56146333Y-41984175D01*
X56144530Y-41981373D01*
X56156187Y-41959810D01*
X56187777Y-41913391D01*
X56233335Y-41850746D01*
X56251684Y-41826310D01*
X56299768Y-41761119D01*
X56334966Y-41710163D01*
X56351779Y-41681539D01*
X56352225Y-41678218D01*
X56334260Y-41665065D01*
X56285103Y-41629245D01*
X56207809Y-41572977D01*
X56105431Y-41498482D01*
X55981020Y-41407981D01*
X55837631Y-41303696D01*
X55678317Y-41187846D01*
X55506129Y-41062654D01*
X55360760Y-40956973D01*
X55179661Y-40825238D01*
X55008400Y-40700492D01*
X54850116Y-40585033D01*
X54707948Y-40481160D01*
X54585035Y-40391169D01*
X54484518Y-40317359D01*
X54409534Y-40262027D01*
X54363224Y-40227472D01*
X54349027Y-40216420D01*
X54344630Y-40202074D01*
X54353048Y-40174858D01*
X54376597Y-40131064D01*
X54417591Y-40066984D01*
X54478347Y-39978910D01*
X54561180Y-39863134D01*
X54621297Y-39780394D01*
X54705912Y-39664585D01*
X54782696Y-39559874D01*
X54847991Y-39471220D01*
X54898136Y-39403583D01*
X54929472Y-39361923D01*
X54938097Y-39351041D01*
X54959657Y-39356578D01*
G37*
X54959657Y-39356578D02*
X55007311Y-39382708D01*
X55073600Y-39424211D01*
X55151064Y-39475868D01*
X55232243Y-39532462D01*
X55309678Y-39588772D01*
X55375908Y-39639579D01*
X55423474Y-39679666D01*
X55444916Y-39703812D01*
X55445427Y-39705979D01*
X55433681Y-39731075D01*
X55402359Y-39780869D01*
X55357331Y-39846229D01*
X55338295Y-39872635D01*
X55290802Y-39939259D01*
X55255743Y-39991400D01*
X55238470Y-40020964D01*
X55237753Y-40024667D01*
X55277262Y-40054697D01*
X55343910Y-40104046D01*
X55433452Y-40169658D01*
X55541643Y-40248476D01*
X55664239Y-40337446D01*
X55796993Y-40433509D01*
X55935662Y-40533611D01*
X56076000Y-40634695D01*
X56213762Y-40733706D01*
X56344702Y-40827586D01*
X56464577Y-40913280D01*
X56569141Y-40987732D01*
X56654149Y-41047885D01*
X56715355Y-41090684D01*
X56748515Y-41113071D01*
X56753187Y-41115675D01*
X56772831Y-41099648D01*
X56809781Y-41056980D01*
X56857173Y-40995783D01*
X56874011Y-40972800D01*
X56922006Y-40906389D01*
X56959626Y-40854341D01*
X56980689Y-40825209D01*
X56982960Y-40822072D01*
X57001050Y-40831216D01*
X57047397Y-40861708D01*
X57116357Y-40909548D01*
X57202284Y-40970731D01*
X57299532Y-41041256D01*
X57402457Y-41117120D01*
X57464328Y-41163342D01*
X57473897Y-41173166D01*
X57477172Y-41187044D01*
X57471909Y-41208548D01*
X57455862Y-41241254D01*
X57426787Y-41288736D01*
X57382440Y-41354569D01*
X57320576Y-41442327D01*
X57238951Y-41555583D01*
X57135320Y-41697914D01*
X57087775Y-41763004D01*
X56987601Y-41899200D01*
X56894567Y-42024006D01*
X56811773Y-42133393D01*
X56742322Y-42223330D01*
X56689315Y-42289784D01*
X56655854Y-42328726D01*
X56645790Y-42337446D01*
X56620235Y-42327230D01*
X56567825Y-42295963D01*
X56495490Y-42248102D01*
X56410157Y-42188107D01*
X56382655Y-42168112D01*
X56296753Y-42104341D01*
X56224598Y-42049186D01*
X56172392Y-42007510D01*
X56146333Y-41984175D01*
X56144530Y-41981373D01*
X56156187Y-41959810D01*
X56187777Y-41913391D01*
X56233335Y-41850746D01*
X56251684Y-41826310D01*
X56299768Y-41761119D01*
X56334966Y-41710163D01*
X56351779Y-41681539D01*
X56352225Y-41678218D01*
X56334260Y-41665065D01*
X56285103Y-41629245D01*
X56207809Y-41572977D01*
X56105431Y-41498482D01*
X55981020Y-41407981D01*
X55837631Y-41303696D01*
X55678317Y-41187846D01*
X55506129Y-41062654D01*
X55360760Y-40956973D01*
X55179661Y-40825238D01*
X55008400Y-40700492D01*
X54850116Y-40585033D01*
X54707948Y-40481160D01*
X54585035Y-40391169D01*
X54484518Y-40317359D01*
X54409534Y-40262027D01*
X54363224Y-40227472D01*
X54349027Y-40216420D01*
X54344630Y-40202074D01*
X54353048Y-40174858D01*
X54376597Y-40131064D01*
X54417591Y-40066984D01*
X54478347Y-39978910D01*
X54561180Y-39863134D01*
X54621297Y-39780394D01*
X54705912Y-39664585D01*
X54782696Y-39559874D01*
X54847991Y-39471220D01*
X54898136Y-39403583D01*
X54929472Y-39361923D01*
X54938097Y-39351041D01*
X54959657Y-39356578D01*
G36*
X54071485Y-41260855D02*
G01*
X54226428Y-41303125D01*
X54393130Y-41375259D01*
X54559807Y-41471940D01*
X54600078Y-41499314D01*
X54726342Y-41587883D01*
X54690451Y-41642821D01*
X54663691Y-41681775D01*
X54620047Y-41743203D01*
X54565558Y-41818829D01*
X54506265Y-41900376D01*
X54448208Y-41979565D01*
X54397426Y-42048121D01*
X54359959Y-42097765D01*
X54342851Y-42119178D01*
X54315441Y-42120511D01*
X54266466Y-42098614D01*
X54245073Y-42085380D01*
X54108825Y-42003441D01*
X53994977Y-41953533D01*
X53899682Y-41934472D01*
X53819090Y-41945076D01*
X53805407Y-41950228D01*
X53726597Y-42001942D01*
X53656468Y-42081484D01*
X53607395Y-42174510D01*
X53604382Y-42183211D01*
X53596939Y-42268473D01*
X53623385Y-42357224D01*
X53677103Y-42440654D01*
X53751476Y-42509950D01*
X53839886Y-42556301D01*
X53894176Y-42569097D01*
X53957005Y-42566243D01*
X54022096Y-42539513D01*
X54093083Y-42485840D01*
X54173596Y-42402157D01*
X54267269Y-42285395D01*
X54328057Y-42202707D01*
X54369071Y-42151161D01*
X54403232Y-42117881D01*
X54417140Y-42110912D01*
X54442239Y-42123111D01*
X54493000Y-42155581D01*
X54561634Y-42202646D01*
X54640353Y-42258631D01*
X54721371Y-42317858D01*
X54796899Y-42374651D01*
X54859149Y-42423335D01*
X54900333Y-42458233D01*
X54912806Y-42472184D01*
X54904253Y-42497102D01*
X54875272Y-42546386D01*
X54831389Y-42610955D01*
X54813007Y-42636193D01*
X54704657Y-42799276D01*
X54634530Y-42945068D01*
X54602550Y-43074309D01*
X54608637Y-43187737D01*
X54652713Y-43286090D01*
X54734700Y-43370106D01*
X54734990Y-43370327D01*
X54824533Y-43417315D01*
X54929651Y-43440682D01*
X55032894Y-43437802D01*
X55085120Y-43423037D01*
X55152607Y-43380129D01*
X55225259Y-43310235D01*
X55292087Y-43225500D01*
X55341234Y-43139991D01*
X55377719Y-43021780D01*
X55376360Y-42907668D01*
X55336161Y-42794566D01*
X55256127Y-42679386D01*
X55161636Y-42582650D01*
X55019655Y-42452550D01*
X55206082Y-42197457D01*
X55272934Y-42108018D01*
X55332439Y-42032197D01*
X55379644Y-41976023D01*
X55409595Y-41945522D01*
X55416270Y-41941769D01*
X55448403Y-41955168D01*
X55502480Y-41991843D01*
X55570525Y-42045125D01*
X55644560Y-42108344D01*
X55716607Y-42174831D01*
X55778691Y-42237915D01*
X55801895Y-42264180D01*
X55910891Y-42418075D01*
X55994587Y-42586625D01*
X56037998Y-42722011D01*
X56057041Y-42891104D01*
X56039526Y-43068940D01*
X55988677Y-43249781D01*
X55907715Y-43427887D01*
X55799863Y-43597522D01*
X55668344Y-43752947D01*
X55516380Y-43888424D01*
X55347193Y-43998215D01*
X55310756Y-44016989D01*
X55220107Y-44060367D01*
X55151051Y-44087957D01*
X55087756Y-44103752D01*
X55014391Y-44111751D01*
X54919173Y-44115822D01*
X54807411Y-44116983D01*
X54723501Y-44111268D01*
X54653294Y-44097093D01*
X54602196Y-44080357D01*
X54413708Y-43993014D01*
X54254916Y-43882898D01*
X54128349Y-43752941D01*
X54036537Y-43606072D01*
X53982009Y-43445223D01*
X53968409Y-43345876D01*
X53958502Y-43194827D01*
X53765339Y-43185797D01*
X53658499Y-43178271D01*
X53578133Y-43165099D01*
X53508438Y-43142812D01*
X53451293Y-43116857D01*
X53287357Y-43014821D01*
X53151104Y-42887418D01*
X53045354Y-42739788D01*
X52972929Y-42577067D01*
X52936651Y-42404394D01*
X52939340Y-42226905D01*
X52944367Y-42193759D01*
X52966038Y-42107783D01*
X53002036Y-42003817D01*
X53045706Y-41900641D01*
X53055352Y-41880580D01*
X53161018Y-41703959D01*
X53289307Y-41552038D01*
X53435365Y-41427779D01*
X53594339Y-41334140D01*
X53761373Y-41274083D01*
X53931615Y-41250568D01*
X54071485Y-41260855D01*
G37*
X54071485Y-41260855D02*
X54226428Y-41303125D01*
X54393130Y-41375259D01*
X54559807Y-41471940D01*
X54600078Y-41499314D01*
X54726342Y-41587883D01*
X54690451Y-41642821D01*
X54663691Y-41681775D01*
X54620047Y-41743203D01*
X54565558Y-41818829D01*
X54506265Y-41900376D01*
X54448208Y-41979565D01*
X54397426Y-42048121D01*
X54359959Y-42097765D01*
X54342851Y-42119178D01*
X54315441Y-42120511D01*
X54266466Y-42098614D01*
X54245073Y-42085380D01*
X54108825Y-42003441D01*
X53994977Y-41953533D01*
X53899682Y-41934472D01*
X53819090Y-41945076D01*
X53805407Y-41950228D01*
X53726597Y-42001942D01*
X53656468Y-42081484D01*
X53607395Y-42174510D01*
X53604382Y-42183211D01*
X53596939Y-42268473D01*
X53623385Y-42357224D01*
X53677103Y-42440654D01*
X53751476Y-42509950D01*
X53839886Y-42556301D01*
X53894176Y-42569097D01*
X53957005Y-42566243D01*
X54022096Y-42539513D01*
X54093083Y-42485840D01*
X54173596Y-42402157D01*
X54267269Y-42285395D01*
X54328057Y-42202707D01*
X54369071Y-42151161D01*
X54403232Y-42117881D01*
X54417140Y-42110912D01*
X54442239Y-42123111D01*
X54493000Y-42155581D01*
X54561634Y-42202646D01*
X54640353Y-42258631D01*
X54721371Y-42317858D01*
X54796899Y-42374651D01*
X54859149Y-42423335D01*
X54900333Y-42458233D01*
X54912806Y-42472184D01*
X54904253Y-42497102D01*
X54875272Y-42546386D01*
X54831389Y-42610955D01*
X54813007Y-42636193D01*
X54704657Y-42799276D01*
X54634530Y-42945068D01*
X54602550Y-43074309D01*
X54608637Y-43187737D01*
X54652713Y-43286090D01*
X54734700Y-43370106D01*
X54734990Y-43370327D01*
X54824533Y-43417315D01*
X54929651Y-43440682D01*
X55032894Y-43437802D01*
X55085120Y-43423037D01*
X55152607Y-43380129D01*
X55225259Y-43310235D01*
X55292087Y-43225500D01*
X55341234Y-43139991D01*
X55377719Y-43021780D01*
X55376360Y-42907668D01*
X55336161Y-42794566D01*
X55256127Y-42679386D01*
X55161636Y-42582650D01*
X55019655Y-42452550D01*
X55206082Y-42197457D01*
X55272934Y-42108018D01*
X55332439Y-42032197D01*
X55379644Y-41976023D01*
X55409595Y-41945522D01*
X55416270Y-41941769D01*
X55448403Y-41955168D01*
X55502480Y-41991843D01*
X55570525Y-42045125D01*
X55644560Y-42108344D01*
X55716607Y-42174831D01*
X55778691Y-42237915D01*
X55801895Y-42264180D01*
X55910891Y-42418075D01*
X55994587Y-42586625D01*
X56037998Y-42722011D01*
X56057041Y-42891104D01*
X56039526Y-43068940D01*
X55988677Y-43249781D01*
X55907715Y-43427887D01*
X55799863Y-43597522D01*
X55668344Y-43752947D01*
X55516380Y-43888424D01*
X55347193Y-43998215D01*
X55310756Y-44016989D01*
X55220107Y-44060367D01*
X55151051Y-44087957D01*
X55087756Y-44103752D01*
X55014391Y-44111751D01*
X54919173Y-44115822D01*
X54807411Y-44116983D01*
X54723501Y-44111268D01*
X54653294Y-44097093D01*
X54602196Y-44080357D01*
X54413708Y-43993014D01*
X54254916Y-43882898D01*
X54128349Y-43752941D01*
X54036537Y-43606072D01*
X53982009Y-43445223D01*
X53968409Y-43345876D01*
X53958502Y-43194827D01*
X53765339Y-43185797D01*
X53658499Y-43178271D01*
X53578133Y-43165099D01*
X53508438Y-43142812D01*
X53451293Y-43116857D01*
X53287357Y-43014821D01*
X53151104Y-42887418D01*
X53045354Y-42739788D01*
X52972929Y-42577067D01*
X52936651Y-42404394D01*
X52939340Y-42226905D01*
X52944367Y-42193759D01*
X52966038Y-42107783D01*
X53002036Y-42003817D01*
X53045706Y-41900641D01*
X53055352Y-41880580D01*
X53161018Y-41703959D01*
X53289307Y-41552038D01*
X53435365Y-41427779D01*
X53594339Y-41334140D01*
X53761373Y-41274083D01*
X53931615Y-41250568D01*
X54071485Y-41260855D01*
G36*
X47733305Y-40235638D02*
G01*
X48547412Y-40235638D01*
X48547852Y-40236291D01*
X48569036Y-40252851D01*
X48619719Y-40290689D01*
X48695654Y-40346719D01*
X48792592Y-40417854D01*
X48906286Y-40501007D01*
X49032488Y-40593094D01*
X49166950Y-40691026D01*
X49305424Y-40791718D01*
X49443664Y-40892083D01*
X49577420Y-40989035D01*
X49702446Y-41079488D01*
X49814493Y-41160355D01*
X49909314Y-41228549D01*
X49982661Y-41280985D01*
X50030286Y-41314576D01*
X50047927Y-41326237D01*
X50064437Y-41309950D01*
X50097376Y-41267811D01*
X50138087Y-41211104D01*
X50217665Y-41096474D01*
X50061587Y-40981049D01*
X49986620Y-40926166D01*
X49919870Y-40878292D01*
X49871997Y-40845035D01*
X49860301Y-40837391D01*
X49825750Y-40807542D01*
X49815093Y-40785982D01*
X49827047Y-40761471D01*
X49859914Y-40709785D01*
X49909201Y-40637611D01*
X49970415Y-40551638D01*
X49997107Y-40515056D01*
X50078534Y-40407200D01*
X50139046Y-40333988D01*
X50179917Y-40294009D01*
X50202420Y-40285856D01*
X50203482Y-40286550D01*
X50268824Y-40336506D01*
X50344467Y-40391809D01*
X50422493Y-40447000D01*
X50494986Y-40496621D01*
X50554026Y-40535213D01*
X50591696Y-40557318D01*
X50600731Y-40560403D01*
X50620629Y-40540964D01*
X50659065Y-40493532D01*
X50711767Y-40424163D01*
X50774464Y-40338911D01*
X50842886Y-40243831D01*
X50912762Y-40144979D01*
X50979819Y-40048407D01*
X51039789Y-39960173D01*
X51088398Y-39886330D01*
X51121376Y-39832933D01*
X51134453Y-39806037D01*
X51134152Y-39804195D01*
X51082329Y-39762834D01*
X51012389Y-39710659D01*
X50931665Y-39652703D01*
X50847486Y-39593999D01*
X50767183Y-39539579D01*
X50698087Y-39494476D01*
X50647528Y-39463722D01*
X50622837Y-39452349D01*
X50621927Y-39452546D01*
X50604902Y-39472120D01*
X50566715Y-39521149D01*
X50511008Y-39594786D01*
X50441428Y-39688183D01*
X50361619Y-39796492D01*
X50302827Y-39876927D01*
X50218745Y-39991871D01*
X50143013Y-40094520D01*
X50079133Y-40180198D01*
X50030607Y-40244230D01*
X50000939Y-40281941D01*
X49993256Y-40290175D01*
X49975312Y-40278524D01*
X49930526Y-40247087D01*
X49866175Y-40201135D01*
X49789537Y-40145938D01*
X49707891Y-40086769D01*
X49628513Y-40028899D01*
X49558682Y-39977598D01*
X49505676Y-39938140D01*
X49480060Y-39918468D01*
X49490117Y-39900632D01*
X49522044Y-39853337D01*
X49572584Y-39781193D01*
X49638479Y-39688810D01*
X49716471Y-39580797D01*
X49788839Y-39481513D01*
X50104569Y-39050113D01*
X49874314Y-38884300D01*
X49789381Y-38824033D01*
X49717559Y-38774765D01*
X49665316Y-38740805D01*
X49639120Y-38726462D01*
X49637391Y-38726456D01*
X49596304Y-38778387D01*
X49541580Y-38851571D01*
X49477366Y-38940027D01*
X49407810Y-39037773D01*
X49337056Y-39138827D01*
X49269252Y-39237209D01*
X49208544Y-39326936D01*
X49159078Y-39402028D01*
X49125000Y-39456502D01*
X49110457Y-39484377D01*
X49110459Y-39486609D01*
X49133632Y-39504791D01*
X49183050Y-39541963D01*
X49250752Y-39592172D01*
X49307093Y-39633600D01*
X49381607Y-39688298D01*
X49442221Y-39732976D01*
X49481584Y-39762202D01*
X49492756Y-39770733D01*
X49482617Y-39787973D01*
X49452769Y-39832198D01*
X49408380Y-39896141D01*
X49354616Y-39972532D01*
X49296644Y-40054103D01*
X49239630Y-40133585D01*
X49188742Y-40203710D01*
X49149145Y-40257209D01*
X49126007Y-40286813D01*
X49125536Y-40287353D01*
X49106875Y-40278752D01*
X49061415Y-40249515D01*
X48996241Y-40204385D01*
X48927896Y-40155061D01*
X48849554Y-40098810D01*
X48782989Y-40053342D01*
X48735924Y-40023787D01*
X48716974Y-40015008D01*
X48696337Y-40030126D01*
X48661658Y-40068287D01*
X48621182Y-40118706D01*
X48583153Y-40170596D01*
X48555815Y-40213168D01*
X48547412Y-40235638D01*
X47733305Y-40235638D01*
X47875863Y-40039886D01*
X48040501Y-39813857D01*
X48207568Y-39584533D01*
X48375189Y-39354492D01*
X48541486Y-39126306D01*
X48704584Y-38902552D01*
X48862606Y-38685804D01*
X49013676Y-38478638D01*
X49155918Y-38283628D01*
X49287456Y-38103350D01*
X49406412Y-37940379D01*
X49510912Y-37797290D01*
X49599078Y-37676657D01*
X49669035Y-37581057D01*
X49718906Y-37513064D01*
X49746814Y-37475253D01*
X49752179Y-37468189D01*
X49772441Y-37474816D01*
X49819242Y-37501732D01*
X49885247Y-37543830D01*
X49963123Y-37596007D01*
X50045536Y-37653156D01*
X50125154Y-37710173D01*
X50194643Y-37761951D01*
X50246669Y-37803386D01*
X50273899Y-37829373D01*
X50275962Y-37832831D01*
X50266717Y-37855731D01*
X50237042Y-37903016D01*
X50192665Y-37965786D01*
X50176473Y-37987454D01*
X50125322Y-38056499D01*
X50097176Y-38100643D01*
X50088682Y-38128111D01*
X50096492Y-38147130D01*
X50107188Y-38157546D01*
X50136145Y-38180225D01*
X50193735Y-38223417D01*
X50275594Y-38283959D01*
X50377358Y-38358690D01*
X50494662Y-38444446D01*
X50623142Y-38538066D01*
X50758435Y-38636386D01*
X50896175Y-38736245D01*
X51031999Y-38834479D01*
X51161542Y-38927926D01*
X51280440Y-39013425D01*
X51384330Y-39087811D01*
X51468847Y-39147923D01*
X51529626Y-39190599D01*
X51562303Y-39212676D01*
X51566488Y-39215019D01*
X51588075Y-39202042D01*
X51626472Y-39162037D01*
X51674421Y-39102805D01*
X51688689Y-39083675D01*
X51736198Y-39018911D01*
X51773111Y-38968760D01*
X51793112Y-38941797D01*
X51794821Y-38939570D01*
X51813884Y-38947353D01*
X51858733Y-38976377D01*
X51922262Y-39021231D01*
X51997368Y-39076506D01*
X52076943Y-39136789D01*
X52153884Y-39196671D01*
X52221085Y-39250741D01*
X52271440Y-39293589D01*
X52297846Y-39319804D01*
X52300118Y-39324355D01*
X52287831Y-39343068D01*
X52252718Y-39393128D01*
X52196866Y-39471654D01*
X52122363Y-39575765D01*
X52031294Y-39702581D01*
X51925748Y-39849223D01*
X51807812Y-40012809D01*
X51679571Y-40190459D01*
X51543114Y-40379293D01*
X51400526Y-40576430D01*
X51253896Y-40778990D01*
X51105309Y-40984093D01*
X50956853Y-41188858D01*
X50810616Y-41390405D01*
X50668682Y-41585853D01*
X50533141Y-41772322D01*
X50406078Y-41946932D01*
X50289581Y-42106802D01*
X50185737Y-42249052D01*
X50096632Y-42370801D01*
X50024354Y-42469170D01*
X49970989Y-42541277D01*
X49938624Y-42584242D01*
X49933037Y-42591374D01*
X49915381Y-42581941D01*
X49871027Y-42552366D01*
X49807174Y-42507867D01*
X49731021Y-42453660D01*
X49649769Y-42394964D01*
X49570616Y-42336994D01*
X49500761Y-42284968D01*
X49447406Y-42244104D01*
X49417747Y-42219617D01*
X49414044Y-42215285D01*
X49425103Y-42193855D01*
X49455414Y-42147558D01*
X49498961Y-42085490D01*
X49509743Y-42070590D01*
X49554514Y-42004494D01*
X49585574Y-41949710D01*
X49597385Y-41916261D01*
X49596906Y-41912897D01*
X49575744Y-41889041D01*
X49528256Y-41849173D01*
X49461811Y-41798405D01*
X49383780Y-41741851D01*
X49301533Y-41684624D01*
X49222440Y-41631838D01*
X49153870Y-41588607D01*
X49103194Y-41560043D01*
X49077782Y-41551260D01*
X49076638Y-41551924D01*
X49058872Y-41575101D01*
X49021227Y-41625823D01*
X48968662Y-41697359D01*
X48906137Y-41782976D01*
X48883435Y-41814175D01*
X48811122Y-41913585D01*
X48739836Y-42011483D01*
X48677144Y-42097486D01*
X48630609Y-42161211D01*
X48625388Y-42168346D01*
X48544305Y-42279100D01*
X48290699Y-42095293D01*
X48201547Y-42029443D01*
X48126109Y-41971369D01*
X48070423Y-41925906D01*
X48040525Y-41897887D01*
X48037093Y-41892244D01*
X48049085Y-41870060D01*
X48082547Y-41819314D01*
X48133712Y-41745430D01*
X48198810Y-41653833D01*
X48274073Y-41549946D01*
X48290720Y-41527208D01*
X48367990Y-41421224D01*
X48436335Y-41326276D01*
X48491887Y-41247835D01*
X48530777Y-41191375D01*
X48549139Y-41162368D01*
X48550012Y-41160327D01*
X48536412Y-41140174D01*
X48495554Y-41102972D01*
X48435210Y-41054341D01*
X48363153Y-40999903D01*
X48287156Y-40945278D01*
X48214994Y-40896088D01*
X48154437Y-40857954D01*
X48113261Y-40836495D01*
X48099761Y-40834738D01*
X48076824Y-40863815D01*
X48036033Y-40918525D01*
X47982388Y-40991881D01*
X47920890Y-41076900D01*
X47856540Y-41166594D01*
X47794339Y-41253980D01*
X47739286Y-41332072D01*
X47696383Y-41393884D01*
X47670631Y-41432431D01*
X47665556Y-41441274D01*
X47678492Y-41462169D01*
X47719809Y-41501328D01*
X47782984Y-41553060D01*
X47857753Y-41608987D01*
X48058169Y-41753050D01*
X47938280Y-41915904D01*
X47879390Y-41995728D01*
X47824108Y-42070366D01*
X47781276Y-42127890D01*
X47768992Y-42144256D01*
X47737216Y-42191087D01*
X47720717Y-42224602D01*
X47720046Y-42228922D01*
X47737483Y-42246860D01*
X47784122Y-42279866D01*
X47852070Y-42322617D01*
X47905255Y-42353870D01*
X48034005Y-42436514D01*
X48161758Y-42538116D01*
X48292960Y-42660787D01*
X48383237Y-42752479D01*
X48450154Y-42827382D01*
X48502111Y-42896700D01*
X48547509Y-42971633D01*
X48594563Y-43063008D01*
X48667556Y-43223607D01*
X48717567Y-43365995D01*
X48748158Y-43504940D01*
X48762894Y-43655207D01*
X48765677Y-43772091D01*
X48763565Y-43897805D01*
X48755262Y-43997108D01*
X48738826Y-44085706D01*
X48717211Y-44163675D01*
X48624546Y-44400188D01*
X48499415Y-44621101D01*
X48346207Y-44822030D01*
X48169313Y-44998591D01*
X47973121Y-45146402D01*
X47762021Y-45261079D01*
X47541224Y-45338031D01*
X47409468Y-45363089D01*
X47261877Y-45377878D01*
X47116629Y-45381318D01*
X46991903Y-45372333D01*
X46983716Y-45371102D01*
X46895577Y-45353467D01*
X46801460Y-45328587D01*
X46711101Y-45299804D01*
X46634237Y-45270461D01*
X46580606Y-45243901D01*
X46560474Y-45225797D01*
X46559552Y-45197434D01*
X46562977Y-45136167D01*
X46569814Y-45051096D01*
X46579126Y-44951319D01*
X46589980Y-44845936D01*
X46601439Y-44744046D01*
X46612568Y-44654747D01*
X46622432Y-44587139D01*
X46629826Y-44551143D01*
X46648826Y-44542818D01*
X46697937Y-44550680D01*
X46780756Y-44575423D01*
X46813602Y-44586548D01*
X46985189Y-44637504D01*
X47133672Y-44662465D01*
X47268464Y-44662544D01*
X47351647Y-44650101D01*
X47531555Y-44593465D01*
X47688516Y-44505370D01*
X47819703Y-44390408D01*
X47922288Y-44253175D01*
X47993446Y-44098264D01*
X48030348Y-43930268D01*
X48030168Y-43753784D01*
X47998328Y-43599140D01*
X47930634Y-43430838D01*
X47833688Y-43283135D01*
X47704598Y-43149201D01*
X47536214Y-43021784D01*
X47362065Y-42931450D01*
X47186118Y-42877094D01*
X47012342Y-42857605D01*
X46844706Y-42871876D01*
X46687179Y-42918798D01*
X46543727Y-42997263D01*
X46418321Y-43106163D01*
X46314929Y-43244389D01*
X46237518Y-43410832D01*
X46195657Y-43570638D01*
X46180943Y-43742021D01*
X46203358Y-43903023D01*
X46260251Y-44056820D01*
X46291569Y-44125664D01*
X46313951Y-44179866D01*
X46322592Y-44207783D01*
X46322593Y-44207881D01*
X46310854Y-44230613D01*
X46279408Y-44279312D01*
X46233910Y-44346052D01*
X46180016Y-44422904D01*
X46123383Y-44501943D01*
X46069666Y-44575241D01*
X46024522Y-44634871D01*
X45993606Y-44672907D01*
X45984278Y-44682041D01*
X45964750Y-44672235D01*
X45916483Y-44641222D01*
X45844866Y-44592843D01*
X45755288Y-44530936D01*
X45653138Y-44459342D01*
X45543806Y-44381900D01*
X45432682Y-44302450D01*
X45325154Y-44224832D01*
X45226612Y-44152886D01*
X45142446Y-44090450D01*
X45078044Y-44041366D01*
X45038797Y-44009472D01*
X45033733Y-44004814D01*
X45026967Y-43990393D01*
X45030946Y-43966696D01*
X45048003Y-43930045D01*
X45080474Y-43876760D01*
X45130691Y-43803162D01*
X45200991Y-43705571D01*
X45293706Y-43580308D01*
X45355240Y-43498100D01*
X45379403Y-43471343D01*
X45403457Y-43470852D01*
X45441992Y-43493546D01*
X45483374Y-43515575D01*
X45502731Y-43509993D01*
X45505623Y-43502954D01*
X45514720Y-43469301D01*
X45530743Y-43408503D01*
X45548101Y-43341893D01*
X45623972Y-43123826D01*
X45733976Y-42913491D01*
X45872841Y-42716668D01*
X46035297Y-42539139D01*
X46216074Y-42386685D01*
X46409901Y-42265087D01*
X46605580Y-42182026D01*
X46776230Y-42140537D01*
X46965530Y-42117533D01*
X47156501Y-42113988D01*
X47332165Y-42130877D01*
X47370343Y-42138118D01*
X47443408Y-42152964D01*
X47497706Y-42162815D01*
X47522483Y-42165736D01*
X47522923Y-42165572D01*
X47507874Y-42152594D01*
X47463264Y-42118353D01*
X47393839Y-42066385D01*
X47304345Y-42000229D01*
X47199527Y-41923423D01*
X47137677Y-41878367D01*
X47018873Y-41790610D01*
X46918098Y-41713411D01*
X46839194Y-41649899D01*
X46786000Y-41603200D01*
X46762359Y-41576441D01*
X46761795Y-41572336D01*
X46775876Y-41552495D01*
X46813026Y-41501035D01*
X46871367Y-41420529D01*
X46949025Y-41313554D01*
X47044122Y-41182685D01*
X47154782Y-41030495D01*
X47279129Y-40859562D01*
X47415287Y-40672459D01*
X47561380Y-40471762D01*
X47715530Y-40260046D01*
X47733305Y-40235638D01*
G37*
X47733305Y-40235638D02*
X48547412Y-40235638D01*
X48547852Y-40236291D01*
X48569036Y-40252851D01*
X48619719Y-40290689D01*
X48695654Y-40346719D01*
X48792592Y-40417854D01*
X48906286Y-40501007D01*
X49032488Y-40593094D01*
X49166950Y-40691026D01*
X49305424Y-40791718D01*
X49443664Y-40892083D01*
X49577420Y-40989035D01*
X49702446Y-41079488D01*
X49814493Y-41160355D01*
X49909314Y-41228549D01*
X49982661Y-41280985D01*
X50030286Y-41314576D01*
X50047927Y-41326237D01*
X50064437Y-41309950D01*
X50097376Y-41267811D01*
X50138087Y-41211104D01*
X50217665Y-41096474D01*
X50061587Y-40981049D01*
X49986620Y-40926166D01*
X49919870Y-40878292D01*
X49871997Y-40845035D01*
X49860301Y-40837391D01*
X49825750Y-40807542D01*
X49815093Y-40785982D01*
X49827047Y-40761471D01*
X49859914Y-40709785D01*
X49909201Y-40637611D01*
X49970415Y-40551638D01*
X49997107Y-40515056D01*
X50078534Y-40407200D01*
X50139046Y-40333988D01*
X50179917Y-40294009D01*
X50202420Y-40285856D01*
X50203482Y-40286550D01*
X50268824Y-40336506D01*
X50344467Y-40391809D01*
X50422493Y-40447000D01*
X50494986Y-40496621D01*
X50554026Y-40535213D01*
X50591696Y-40557318D01*
X50600731Y-40560403D01*
X50620629Y-40540964D01*
X50659065Y-40493532D01*
X50711767Y-40424163D01*
X50774464Y-40338911D01*
X50842886Y-40243831D01*
X50912762Y-40144979D01*
X50979819Y-40048407D01*
X51039789Y-39960173D01*
X51088398Y-39886330D01*
X51121376Y-39832933D01*
X51134453Y-39806037D01*
X51134152Y-39804195D01*
X51082329Y-39762834D01*
X51012389Y-39710659D01*
X50931665Y-39652703D01*
X50847486Y-39593999D01*
X50767183Y-39539579D01*
X50698087Y-39494476D01*
X50647528Y-39463722D01*
X50622837Y-39452349D01*
X50621927Y-39452546D01*
X50604902Y-39472120D01*
X50566715Y-39521149D01*
X50511008Y-39594786D01*
X50441428Y-39688183D01*
X50361619Y-39796492D01*
X50302827Y-39876927D01*
X50218745Y-39991871D01*
X50143013Y-40094520D01*
X50079133Y-40180198D01*
X50030607Y-40244230D01*
X50000939Y-40281941D01*
X49993256Y-40290175D01*
X49975312Y-40278524D01*
X49930526Y-40247087D01*
X49866175Y-40201135D01*
X49789537Y-40145938D01*
X49707891Y-40086769D01*
X49628513Y-40028899D01*
X49558682Y-39977598D01*
X49505676Y-39938140D01*
X49480060Y-39918468D01*
X49490117Y-39900632D01*
X49522044Y-39853337D01*
X49572584Y-39781193D01*
X49638479Y-39688810D01*
X49716471Y-39580797D01*
X49788839Y-39481513D01*
X50104569Y-39050113D01*
X49874314Y-38884300D01*
X49789381Y-38824033D01*
X49717559Y-38774765D01*
X49665316Y-38740805D01*
X49639120Y-38726462D01*
X49637391Y-38726456D01*
X49596304Y-38778387D01*
X49541580Y-38851571D01*
X49477366Y-38940027D01*
X49407810Y-39037773D01*
X49337056Y-39138827D01*
X49269252Y-39237209D01*
X49208544Y-39326936D01*
X49159078Y-39402028D01*
X49125000Y-39456502D01*
X49110457Y-39484377D01*
X49110459Y-39486609D01*
X49133632Y-39504791D01*
X49183050Y-39541963D01*
X49250752Y-39592172D01*
X49307093Y-39633600D01*
X49381607Y-39688298D01*
X49442221Y-39732976D01*
X49481584Y-39762202D01*
X49492756Y-39770733D01*
X49482617Y-39787973D01*
X49452769Y-39832198D01*
X49408380Y-39896141D01*
X49354616Y-39972532D01*
X49296644Y-40054103D01*
X49239630Y-40133585D01*
X49188742Y-40203710D01*
X49149145Y-40257209D01*
X49126007Y-40286813D01*
X49125536Y-40287353D01*
X49106875Y-40278752D01*
X49061415Y-40249515D01*
X48996241Y-40204385D01*
X48927896Y-40155061D01*
X48849554Y-40098810D01*
X48782989Y-40053342D01*
X48735924Y-40023787D01*
X48716974Y-40015008D01*
X48696337Y-40030126D01*
X48661658Y-40068287D01*
X48621182Y-40118706D01*
X48583153Y-40170596D01*
X48555815Y-40213168D01*
X48547412Y-40235638D01*
X47733305Y-40235638D01*
X47875863Y-40039886D01*
X48040501Y-39813857D01*
X48207568Y-39584533D01*
X48375189Y-39354492D01*
X48541486Y-39126306D01*
X48704584Y-38902552D01*
X48862606Y-38685804D01*
X49013676Y-38478638D01*
X49155918Y-38283628D01*
X49287456Y-38103350D01*
X49406412Y-37940379D01*
X49510912Y-37797290D01*
X49599078Y-37676657D01*
X49669035Y-37581057D01*
X49718906Y-37513064D01*
X49746814Y-37475253D01*
X49752179Y-37468189D01*
X49772441Y-37474816D01*
X49819242Y-37501732D01*
X49885247Y-37543830D01*
X49963123Y-37596007D01*
X50045536Y-37653156D01*
X50125154Y-37710173D01*
X50194643Y-37761951D01*
X50246669Y-37803386D01*
X50273899Y-37829373D01*
X50275962Y-37832831D01*
X50266717Y-37855731D01*
X50237042Y-37903016D01*
X50192665Y-37965786D01*
X50176473Y-37987454D01*
X50125322Y-38056499D01*
X50097176Y-38100643D01*
X50088682Y-38128111D01*
X50096492Y-38147130D01*
X50107188Y-38157546D01*
X50136145Y-38180225D01*
X50193735Y-38223417D01*
X50275594Y-38283959D01*
X50377358Y-38358690D01*
X50494662Y-38444446D01*
X50623142Y-38538066D01*
X50758435Y-38636386D01*
X50896175Y-38736245D01*
X51031999Y-38834479D01*
X51161542Y-38927926D01*
X51280440Y-39013425D01*
X51384330Y-39087811D01*
X51468847Y-39147923D01*
X51529626Y-39190599D01*
X51562303Y-39212676D01*
X51566488Y-39215019D01*
X51588075Y-39202042D01*
X51626472Y-39162037D01*
X51674421Y-39102805D01*
X51688689Y-39083675D01*
X51736198Y-39018911D01*
X51773111Y-38968760D01*
X51793112Y-38941797D01*
X51794821Y-38939570D01*
X51813884Y-38947353D01*
X51858733Y-38976377D01*
X51922262Y-39021231D01*
X51997368Y-39076506D01*
X52076943Y-39136789D01*
X52153884Y-39196671D01*
X52221085Y-39250741D01*
X52271440Y-39293589D01*
X52297846Y-39319804D01*
X52300118Y-39324355D01*
X52287831Y-39343068D01*
X52252718Y-39393128D01*
X52196866Y-39471654D01*
X52122363Y-39575765D01*
X52031294Y-39702581D01*
X51925748Y-39849223D01*
X51807812Y-40012809D01*
X51679571Y-40190459D01*
X51543114Y-40379293D01*
X51400526Y-40576430D01*
X51253896Y-40778990D01*
X51105309Y-40984093D01*
X50956853Y-41188858D01*
X50810616Y-41390405D01*
X50668682Y-41585853D01*
X50533141Y-41772322D01*
X50406078Y-41946932D01*
X50289581Y-42106802D01*
X50185737Y-42249052D01*
X50096632Y-42370801D01*
X50024354Y-42469170D01*
X49970989Y-42541277D01*
X49938624Y-42584242D01*
X49933037Y-42591374D01*
X49915381Y-42581941D01*
X49871027Y-42552366D01*
X49807174Y-42507867D01*
X49731021Y-42453660D01*
X49649769Y-42394964D01*
X49570616Y-42336994D01*
X49500761Y-42284968D01*
X49447406Y-42244104D01*
X49417747Y-42219617D01*
X49414044Y-42215285D01*
X49425103Y-42193855D01*
X49455414Y-42147558D01*
X49498961Y-42085490D01*
X49509743Y-42070590D01*
X49554514Y-42004494D01*
X49585574Y-41949710D01*
X49597385Y-41916261D01*
X49596906Y-41912897D01*
X49575744Y-41889041D01*
X49528256Y-41849173D01*
X49461811Y-41798405D01*
X49383780Y-41741851D01*
X49301533Y-41684624D01*
X49222440Y-41631838D01*
X49153870Y-41588607D01*
X49103194Y-41560043D01*
X49077782Y-41551260D01*
X49076638Y-41551924D01*
X49058872Y-41575101D01*
X49021227Y-41625823D01*
X48968662Y-41697359D01*
X48906137Y-41782976D01*
X48883435Y-41814175D01*
X48811122Y-41913585D01*
X48739836Y-42011483D01*
X48677144Y-42097486D01*
X48630609Y-42161211D01*
X48625388Y-42168346D01*
X48544305Y-42279100D01*
X48290699Y-42095293D01*
X48201547Y-42029443D01*
X48126109Y-41971369D01*
X48070423Y-41925906D01*
X48040525Y-41897887D01*
X48037093Y-41892244D01*
X48049085Y-41870060D01*
X48082547Y-41819314D01*
X48133712Y-41745430D01*
X48198810Y-41653833D01*
X48274073Y-41549946D01*
X48290720Y-41527208D01*
X48367990Y-41421224D01*
X48436335Y-41326276D01*
X48491887Y-41247835D01*
X48530777Y-41191375D01*
X48549139Y-41162368D01*
X48550012Y-41160327D01*
X48536412Y-41140174D01*
X48495554Y-41102972D01*
X48435210Y-41054341D01*
X48363153Y-40999903D01*
X48287156Y-40945278D01*
X48214994Y-40896088D01*
X48154437Y-40857954D01*
X48113261Y-40836495D01*
X48099761Y-40834738D01*
X48076824Y-40863815D01*
X48036033Y-40918525D01*
X47982388Y-40991881D01*
X47920890Y-41076900D01*
X47856540Y-41166594D01*
X47794339Y-41253980D01*
X47739286Y-41332072D01*
X47696383Y-41393884D01*
X47670631Y-41432431D01*
X47665556Y-41441274D01*
X47678492Y-41462169D01*
X47719809Y-41501328D01*
X47782984Y-41553060D01*
X47857753Y-41608987D01*
X48058169Y-41753050D01*
X47938280Y-41915904D01*
X47879390Y-41995728D01*
X47824108Y-42070366D01*
X47781276Y-42127890D01*
X47768992Y-42144256D01*
X47737216Y-42191087D01*
X47720717Y-42224602D01*
X47720046Y-42228922D01*
X47737483Y-42246860D01*
X47784122Y-42279866D01*
X47852070Y-42322617D01*
X47905255Y-42353870D01*
X48034005Y-42436514D01*
X48161758Y-42538116D01*
X48292960Y-42660787D01*
X48383237Y-42752479D01*
X48450154Y-42827382D01*
X48502111Y-42896700D01*
X48547509Y-42971633D01*
X48594563Y-43063008D01*
X48667556Y-43223607D01*
X48717567Y-43365995D01*
X48748158Y-43504940D01*
X48762894Y-43655207D01*
X48765677Y-43772091D01*
X48763565Y-43897805D01*
X48755262Y-43997108D01*
X48738826Y-44085706D01*
X48717211Y-44163675D01*
X48624546Y-44400188D01*
X48499415Y-44621101D01*
X48346207Y-44822030D01*
X48169313Y-44998591D01*
X47973121Y-45146402D01*
X47762021Y-45261079D01*
X47541224Y-45338031D01*
X47409468Y-45363089D01*
X47261877Y-45377878D01*
X47116629Y-45381318D01*
X46991903Y-45372333D01*
X46983716Y-45371102D01*
X46895577Y-45353467D01*
X46801460Y-45328587D01*
X46711101Y-45299804D01*
X46634237Y-45270461D01*
X46580606Y-45243901D01*
X46560474Y-45225797D01*
X46559552Y-45197434D01*
X46562977Y-45136167D01*
X46569814Y-45051096D01*
X46579126Y-44951319D01*
X46589980Y-44845936D01*
X46601439Y-44744046D01*
X46612568Y-44654747D01*
X46622432Y-44587139D01*
X46629826Y-44551143D01*
X46648826Y-44542818D01*
X46697937Y-44550680D01*
X46780756Y-44575423D01*
X46813602Y-44586548D01*
X46985189Y-44637504D01*
X47133672Y-44662465D01*
X47268464Y-44662544D01*
X47351647Y-44650101D01*
X47531555Y-44593465D01*
X47688516Y-44505370D01*
X47819703Y-44390408D01*
X47922288Y-44253175D01*
X47993446Y-44098264D01*
X48030348Y-43930268D01*
X48030168Y-43753784D01*
X47998328Y-43599140D01*
X47930634Y-43430838D01*
X47833688Y-43283135D01*
X47704598Y-43149201D01*
X47536214Y-43021784D01*
X47362065Y-42931450D01*
X47186118Y-42877094D01*
X47012342Y-42857605D01*
X46844706Y-42871876D01*
X46687179Y-42918798D01*
X46543727Y-42997263D01*
X46418321Y-43106163D01*
X46314929Y-43244389D01*
X46237518Y-43410832D01*
X46195657Y-43570638D01*
X46180943Y-43742021D01*
X46203358Y-43903023D01*
X46260251Y-44056820D01*
X46291569Y-44125664D01*
X46313951Y-44179866D01*
X46322592Y-44207783D01*
X46322593Y-44207881D01*
X46310854Y-44230613D01*
X46279408Y-44279312D01*
X46233910Y-44346052D01*
X46180016Y-44422904D01*
X46123383Y-44501943D01*
X46069666Y-44575241D01*
X46024522Y-44634871D01*
X45993606Y-44672907D01*
X45984278Y-44682041D01*
X45964750Y-44672235D01*
X45916483Y-44641222D01*
X45844866Y-44592843D01*
X45755288Y-44530936D01*
X45653138Y-44459342D01*
X45543806Y-44381900D01*
X45432682Y-44302450D01*
X45325154Y-44224832D01*
X45226612Y-44152886D01*
X45142446Y-44090450D01*
X45078044Y-44041366D01*
X45038797Y-44009472D01*
X45033733Y-44004814D01*
X45026967Y-43990393D01*
X45030946Y-43966696D01*
X45048003Y-43930045D01*
X45080474Y-43876760D01*
X45130691Y-43803162D01*
X45200991Y-43705571D01*
X45293706Y-43580308D01*
X45355240Y-43498100D01*
X45379403Y-43471343D01*
X45403457Y-43470852D01*
X45441992Y-43493546D01*
X45483374Y-43515575D01*
X45502731Y-43509993D01*
X45505623Y-43502954D01*
X45514720Y-43469301D01*
X45530743Y-43408503D01*
X45548101Y-43341893D01*
X45623972Y-43123826D01*
X45733976Y-42913491D01*
X45872841Y-42716668D01*
X46035297Y-42539139D01*
X46216074Y-42386685D01*
X46409901Y-42265087D01*
X46605580Y-42182026D01*
X46776230Y-42140537D01*
X46965530Y-42117533D01*
X47156501Y-42113988D01*
X47332165Y-42130877D01*
X47370343Y-42138118D01*
X47443408Y-42152964D01*
X47497706Y-42162815D01*
X47522483Y-42165736D01*
X47522923Y-42165572D01*
X47507874Y-42152594D01*
X47463264Y-42118353D01*
X47393839Y-42066385D01*
X47304345Y-42000229D01*
X47199527Y-41923423D01*
X47137677Y-41878367D01*
X47018873Y-41790610D01*
X46918098Y-41713411D01*
X46839194Y-41649899D01*
X46786000Y-41603200D01*
X46762359Y-41576441D01*
X46761795Y-41572336D01*
X46775876Y-41552495D01*
X46813026Y-41501035D01*
X46871367Y-41420529D01*
X46949025Y-41313554D01*
X47044122Y-41182685D01*
X47154782Y-41030495D01*
X47279129Y-40859562D01*
X47415287Y-40672459D01*
X47561380Y-40471762D01*
X47715530Y-40260046D01*
X47733305Y-40235638D01*
G36*
X51559511Y-44033167D02*
G01*
X51597996Y-44052378D01*
X51656228Y-44090394D01*
X51740014Y-44150326D01*
X51775421Y-44176297D01*
X51860099Y-44239876D01*
X51931609Y-44295904D01*
X51983345Y-44339035D01*
X52008704Y-44363918D01*
X52010059Y-44366323D01*
X52002081Y-44394097D01*
X51973823Y-44442874D01*
X51940788Y-44489482D01*
X51901348Y-44543606D01*
X51876469Y-44582609D01*
X51871474Y-44596477D01*
X51893037Y-44603948D01*
X51950384Y-44621762D01*
X52038637Y-44648490D01*
X52152917Y-44682700D01*
X52288345Y-44722963D01*
X52440043Y-44767849D01*
X52603131Y-44815927D01*
X52772732Y-44865766D01*
X52943966Y-44915938D01*
X53111954Y-44965010D01*
X53271818Y-45011554D01*
X53418680Y-45054139D01*
X53547660Y-45091334D01*
X53653879Y-45121709D01*
X53732460Y-45143835D01*
X53778523Y-45156280D01*
X53788600Y-45158508D01*
X53809259Y-45142314D01*
X53846759Y-45099137D01*
X53894260Y-45037086D01*
X53912796Y-45011258D01*
X53961733Y-44944288D01*
X54002415Y-44893015D01*
X54028256Y-44865575D01*
X54032733Y-44863091D01*
X54054557Y-44874707D01*
X54103884Y-44907296D01*
X54174333Y-44956456D01*
X54259523Y-45017784D01*
X54301485Y-45048559D01*
X54554181Y-45234943D01*
X54145304Y-45794684D01*
X54030846Y-45949940D01*
X53930181Y-46083594D01*
X53845320Y-46193107D01*
X53778277Y-46275939D01*
X53731064Y-46329552D01*
X53705695Y-46351405D01*
X53703689Y-46351778D01*
X53677136Y-46339124D01*
X53624802Y-46306718D01*
X53554752Y-46260237D01*
X53475052Y-46205356D01*
X53393767Y-46147750D01*
X53318963Y-46093095D01*
X53258705Y-46047068D01*
X53221058Y-46015342D01*
X53213271Y-46006675D01*
X53219257Y-45982272D01*
X53244806Y-45934732D01*
X53279803Y-45881086D01*
X53318115Y-45823546D01*
X53342555Y-45781299D01*
X53347853Y-45764450D01*
X53324509Y-45754212D01*
X53273571Y-45735842D01*
X53206319Y-45713020D01*
X53134032Y-45689429D01*
X53067989Y-45668750D01*
X53019469Y-45654666D01*
X52999767Y-45650834D01*
X52941704Y-45726363D01*
X52875287Y-45816429D01*
X52804756Y-45914842D01*
X52734353Y-46015412D01*
X52668319Y-46111949D01*
X52610895Y-46198262D01*
X52566322Y-46268162D01*
X52538841Y-46315458D01*
X52532127Y-46333378D01*
X52549307Y-46364307D01*
X52582470Y-46415017D01*
X52624410Y-46475445D01*
X52667919Y-46535528D01*
X52705792Y-46585202D01*
X52730821Y-46614404D01*
X52736093Y-46618194D01*
X52752559Y-46602326D01*
X52785520Y-46560440D01*
X52827548Y-46502016D01*
X52877328Y-46437547D01*
X52915163Y-46403389D01*
X52933381Y-46400282D01*
X52959002Y-46417673D01*
X53011683Y-46454965D01*
X53084310Y-46507074D01*
X53169767Y-46568918D01*
X53191177Y-46584484D01*
X53276795Y-46646784D01*
X53349393Y-46699593D01*
X53402484Y-46738194D01*
X53429586Y-46757872D01*
X53431606Y-46759329D01*
X53421267Y-46776712D01*
X53389463Y-46823366D01*
X53339727Y-46894394D01*
X53275590Y-46984903D01*
X53200584Y-47089995D01*
X53118240Y-47204776D01*
X53032089Y-47324350D01*
X52945665Y-47443822D01*
X52862497Y-47558296D01*
X52786118Y-47662876D01*
X52720060Y-47752668D01*
X52667853Y-47822776D01*
X52633030Y-47868303D01*
X52621536Y-47882239D01*
X52602963Y-47885889D01*
X52566610Y-47871357D01*
X52508458Y-47836294D01*
X52424485Y-47778355D01*
X52346979Y-47722042D01*
X52258502Y-47655845D01*
X52183673Y-47597837D01*
X52128489Y-47552828D01*
X52098948Y-47525627D01*
X52095619Y-47520489D01*
X52107434Y-47496861D01*
X52138658Y-47448680D01*
X52183212Y-47385192D01*
X52196653Y-47366742D01*
X52297517Y-47229372D01*
X51738930Y-46395178D01*
X51626387Y-46227508D01*
X51520877Y-46071088D01*
X51424750Y-45929349D01*
X51340354Y-45805717D01*
X51270041Y-45703621D01*
X51216158Y-45626489D01*
X51181056Y-45577749D01*
X51167097Y-45560830D01*
X51149145Y-45576862D01*
X51115956Y-45618652D01*
X51082430Y-45665962D01*
X51042200Y-45721923D01*
X51010260Y-45760318D01*
X50995846Y-45771795D01*
X50972445Y-45760042D01*
X50923463Y-45728046D01*
X50856726Y-45681566D01*
X50780061Y-45626361D01*
X50701293Y-45568188D01*
X50628249Y-45512807D01*
X50568754Y-45465977D01*
X50530636Y-45433455D01*
X50520863Y-45422291D01*
X50531724Y-45402273D01*
X50564466Y-45352620D01*
X50615874Y-45277789D01*
X50633488Y-45252616D01*
X51745929Y-45252616D01*
X51754870Y-45271270D01*
X51784250Y-45316372D01*
X51828814Y-45380728D01*
X51883303Y-45457145D01*
X51942461Y-45538429D01*
X52001031Y-45617385D01*
X52053756Y-45686821D01*
X52095379Y-45739542D01*
X52120643Y-45768355D01*
X52125187Y-45771603D01*
X52142615Y-45755897D01*
X52178384Y-45713086D01*
X52226426Y-45650653D01*
X52257270Y-45608747D01*
X52375842Y-45445152D01*
X52064432Y-45345337D01*
X51956956Y-45311462D01*
X51864599Y-45283442D01*
X51794417Y-45263331D01*
X51753465Y-45253183D01*
X51745929Y-45252616D01*
X50633488Y-45252616D01*
X50682734Y-45182238D01*
X50761830Y-45070426D01*
X50849950Y-44946809D01*
X50943877Y-44815846D01*
X51040397Y-44681995D01*
X51136297Y-44549713D01*
X51228361Y-44423458D01*
X51313376Y-44307689D01*
X51388126Y-44206862D01*
X51449397Y-44125436D01*
X51493974Y-44067869D01*
X51518547Y-44038714D01*
X51534964Y-44029649D01*
X51559511Y-44033167D01*
G37*
X51559511Y-44033167D02*
X51597996Y-44052378D01*
X51656228Y-44090394D01*
X51740014Y-44150326D01*
X51775421Y-44176297D01*
X51860099Y-44239876D01*
X51931609Y-44295904D01*
X51983345Y-44339035D01*
X52008704Y-44363918D01*
X52010059Y-44366323D01*
X52002081Y-44394097D01*
X51973823Y-44442874D01*
X51940788Y-44489482D01*
X51901348Y-44543606D01*
X51876469Y-44582609D01*
X51871474Y-44596477D01*
X51893037Y-44603948D01*
X51950384Y-44621762D01*
X52038637Y-44648490D01*
X52152917Y-44682700D01*
X52288345Y-44722963D01*
X52440043Y-44767849D01*
X52603131Y-44815927D01*
X52772732Y-44865766D01*
X52943966Y-44915938D01*
X53111954Y-44965010D01*
X53271818Y-45011554D01*
X53418680Y-45054139D01*
X53547660Y-45091334D01*
X53653879Y-45121709D01*
X53732460Y-45143835D01*
X53778523Y-45156280D01*
X53788600Y-45158508D01*
X53809259Y-45142314D01*
X53846759Y-45099137D01*
X53894260Y-45037086D01*
X53912796Y-45011258D01*
X53961733Y-44944288D01*
X54002415Y-44893015D01*
X54028256Y-44865575D01*
X54032733Y-44863091D01*
X54054557Y-44874707D01*
X54103884Y-44907296D01*
X54174333Y-44956456D01*
X54259523Y-45017784D01*
X54301485Y-45048559D01*
X54554181Y-45234943D01*
X54145304Y-45794684D01*
X54030846Y-45949940D01*
X53930181Y-46083594D01*
X53845320Y-46193107D01*
X53778277Y-46275939D01*
X53731064Y-46329552D01*
X53705695Y-46351405D01*
X53703689Y-46351778D01*
X53677136Y-46339124D01*
X53624802Y-46306718D01*
X53554752Y-46260237D01*
X53475052Y-46205356D01*
X53393767Y-46147750D01*
X53318963Y-46093095D01*
X53258705Y-46047068D01*
X53221058Y-46015342D01*
X53213271Y-46006675D01*
X53219257Y-45982272D01*
X53244806Y-45934732D01*
X53279803Y-45881086D01*
X53318115Y-45823546D01*
X53342555Y-45781299D01*
X53347853Y-45764450D01*
X53324509Y-45754212D01*
X53273571Y-45735842D01*
X53206319Y-45713020D01*
X53134032Y-45689429D01*
X53067989Y-45668750D01*
X53019469Y-45654666D01*
X52999767Y-45650834D01*
X52941704Y-45726363D01*
X52875287Y-45816429D01*
X52804756Y-45914842D01*
X52734353Y-46015412D01*
X52668319Y-46111949D01*
X52610895Y-46198262D01*
X52566322Y-46268162D01*
X52538841Y-46315458D01*
X52532127Y-46333378D01*
X52549307Y-46364307D01*
X52582470Y-46415017D01*
X52624410Y-46475445D01*
X52667919Y-46535528D01*
X52705792Y-46585202D01*
X52730821Y-46614404D01*
X52736093Y-46618194D01*
X52752559Y-46602326D01*
X52785520Y-46560440D01*
X52827548Y-46502016D01*
X52877328Y-46437547D01*
X52915163Y-46403389D01*
X52933381Y-46400282D01*
X52959002Y-46417673D01*
X53011683Y-46454965D01*
X53084310Y-46507074D01*
X53169767Y-46568918D01*
X53191177Y-46584484D01*
X53276795Y-46646784D01*
X53349393Y-46699593D01*
X53402484Y-46738194D01*
X53429586Y-46757872D01*
X53431606Y-46759329D01*
X53421267Y-46776712D01*
X53389463Y-46823366D01*
X53339727Y-46894394D01*
X53275590Y-46984903D01*
X53200584Y-47089995D01*
X53118240Y-47204776D01*
X53032089Y-47324350D01*
X52945665Y-47443822D01*
X52862497Y-47558296D01*
X52786118Y-47662876D01*
X52720060Y-47752668D01*
X52667853Y-47822776D01*
X52633030Y-47868303D01*
X52621536Y-47882239D01*
X52602963Y-47885889D01*
X52566610Y-47871357D01*
X52508458Y-47836294D01*
X52424485Y-47778355D01*
X52346979Y-47722042D01*
X52258502Y-47655845D01*
X52183673Y-47597837D01*
X52128489Y-47552828D01*
X52098948Y-47525627D01*
X52095619Y-47520489D01*
X52107434Y-47496861D01*
X52138658Y-47448680D01*
X52183212Y-47385192D01*
X52196653Y-47366742D01*
X52297517Y-47229372D01*
X51738930Y-46395178D01*
X51626387Y-46227508D01*
X51520877Y-46071088D01*
X51424750Y-45929349D01*
X51340354Y-45805717D01*
X51270041Y-45703621D01*
X51216158Y-45626489D01*
X51181056Y-45577749D01*
X51167097Y-45560830D01*
X51149145Y-45576862D01*
X51115956Y-45618652D01*
X51082430Y-45665962D01*
X51042200Y-45721923D01*
X51010260Y-45760318D01*
X50995846Y-45771795D01*
X50972445Y-45760042D01*
X50923463Y-45728046D01*
X50856726Y-45681566D01*
X50780061Y-45626361D01*
X50701293Y-45568188D01*
X50628249Y-45512807D01*
X50568754Y-45465977D01*
X50530636Y-45433455D01*
X50520863Y-45422291D01*
X50531724Y-45402273D01*
X50564466Y-45352620D01*
X50615874Y-45277789D01*
X50633488Y-45252616D01*
X51745929Y-45252616D01*
X51754870Y-45271270D01*
X51784250Y-45316372D01*
X51828814Y-45380728D01*
X51883303Y-45457145D01*
X51942461Y-45538429D01*
X52001031Y-45617385D01*
X52053756Y-45686821D01*
X52095379Y-45739542D01*
X52120643Y-45768355D01*
X52125187Y-45771603D01*
X52142615Y-45755897D01*
X52178384Y-45713086D01*
X52226426Y-45650653D01*
X52257270Y-45608747D01*
X52375842Y-45445152D01*
X52064432Y-45345337D01*
X51956956Y-45311462D01*
X51864599Y-45283442D01*
X51794417Y-45263331D01*
X51753465Y-45253183D01*
X51745929Y-45252616D01*
X50633488Y-45252616D01*
X50682734Y-45182238D01*
X50761830Y-45070426D01*
X50849950Y-44946809D01*
X50943877Y-44815846D01*
X51040397Y-44681995D01*
X51136297Y-44549713D01*
X51228361Y-44423458D01*
X51313376Y-44307689D01*
X51388126Y-44206862D01*
X51449397Y-44125436D01*
X51493974Y-44067869D01*
X51518547Y-44038714D01*
X51534964Y-44029649D01*
X51559511Y-44033167D01*
G36*
X43561947Y-46274729D02*
G01*
X44272559Y-46274729D01*
X44284435Y-46470829D01*
X44335198Y-46656309D01*
X44421904Y-46827038D01*
X44541608Y-46978886D01*
X44691365Y-47107722D01*
X44868231Y-47209416D01*
X44967441Y-47249330D01*
X45108550Y-47283184D01*
X45265874Y-47295543D01*
X45424701Y-47286864D01*
X45570317Y-47257606D01*
X45650251Y-47228076D01*
X45792721Y-47140136D01*
X45920086Y-47017514D01*
X46025860Y-46866978D01*
X46061209Y-46799333D01*
X46097624Y-46719892D01*
X46119239Y-46659698D01*
X46129166Y-46602595D01*
X46130520Y-46532428D01*
X46127496Y-46455442D01*
X46101219Y-46261375D01*
X46040680Y-46087542D01*
X45943986Y-45930770D01*
X45809244Y-45787884D01*
X45660937Y-45673312D01*
X45511834Y-45583437D01*
X45371236Y-45525617D01*
X45225872Y-45495605D01*
X45084343Y-45488816D01*
X44919514Y-45502029D01*
X44779828Y-45541682D01*
X44654156Y-45612389D01*
X44532553Y-45717572D01*
X44416983Y-45849801D01*
X44338048Y-45981257D01*
X44291315Y-46121441D01*
X44272559Y-46274729D01*
X43561947Y-46274729D01*
X43570572Y-46169160D01*
X43631853Y-45921773D01*
X43732076Y-45683630D01*
X43869564Y-45458416D01*
X44042643Y-45249819D01*
X44115486Y-45177476D01*
X44300688Y-45022443D01*
X44489138Y-44906326D01*
X44688397Y-44825929D01*
X44906027Y-44778055D01*
X45100842Y-44760928D01*
X45279117Y-44759104D01*
X45430373Y-44770598D01*
X45568431Y-44797588D01*
X45707114Y-44842251D01*
X45766334Y-44865750D01*
X46001112Y-44985267D01*
X46218544Y-45139986D01*
X46412753Y-45324461D01*
X46577867Y-45533249D01*
X46688025Y-45719958D01*
X46774675Y-45936224D01*
X46826401Y-46168212D01*
X46842282Y-46406495D01*
X46821398Y-46641645D01*
X46791118Y-46776314D01*
X46701340Y-47023913D01*
X46578029Y-47253328D01*
X46424908Y-47460792D01*
X46245699Y-47642535D01*
X46044122Y-47794789D01*
X45823901Y-47913786D01*
X45588756Y-47995756D01*
X45586159Y-47996423D01*
X45431837Y-48023952D01*
X45255212Y-48036209D01*
X45073158Y-48033234D01*
X44902548Y-48015065D01*
X44803731Y-47994593D01*
X44610327Y-47927248D01*
X44412768Y-47828420D01*
X44222109Y-47705409D01*
X44049403Y-47565518D01*
X43905702Y-47416050D01*
X43880822Y-47384879D01*
X43741114Y-47169666D01*
X43638219Y-46936910D01*
X43573925Y-46691817D01*
X43550022Y-46439595D01*
X43549908Y-46422103D01*
X43561947Y-46274729D01*
G37*
X43561947Y-46274729D02*
X44272559Y-46274729D01*
X44284435Y-46470829D01*
X44335198Y-46656309D01*
X44421904Y-46827038D01*
X44541608Y-46978886D01*
X44691365Y-47107722D01*
X44868231Y-47209416D01*
X44967441Y-47249330D01*
X45108550Y-47283184D01*
X45265874Y-47295543D01*
X45424701Y-47286864D01*
X45570317Y-47257606D01*
X45650251Y-47228076D01*
X45792721Y-47140136D01*
X45920086Y-47017514D01*
X46025860Y-46866978D01*
X46061209Y-46799333D01*
X46097624Y-46719892D01*
X46119239Y-46659698D01*
X46129166Y-46602595D01*
X46130520Y-46532428D01*
X46127496Y-46455442D01*
X46101219Y-46261375D01*
X46040680Y-46087542D01*
X45943986Y-45930770D01*
X45809244Y-45787884D01*
X45660937Y-45673312D01*
X45511834Y-45583437D01*
X45371236Y-45525617D01*
X45225872Y-45495605D01*
X45084343Y-45488816D01*
X44919514Y-45502029D01*
X44779828Y-45541682D01*
X44654156Y-45612389D01*
X44532553Y-45717572D01*
X44416983Y-45849801D01*
X44338048Y-45981257D01*
X44291315Y-46121441D01*
X44272559Y-46274729D01*
X43561947Y-46274729D01*
X43570572Y-46169160D01*
X43631853Y-45921773D01*
X43732076Y-45683630D01*
X43869564Y-45458416D01*
X44042643Y-45249819D01*
X44115486Y-45177476D01*
X44300688Y-45022443D01*
X44489138Y-44906326D01*
X44688397Y-44825929D01*
X44906027Y-44778055D01*
X45100842Y-44760928D01*
X45279117Y-44759104D01*
X45430373Y-44770598D01*
X45568431Y-44797588D01*
X45707114Y-44842251D01*
X45766334Y-44865750D01*
X46001112Y-44985267D01*
X46218544Y-45139986D01*
X46412753Y-45324461D01*
X46577867Y-45533249D01*
X46688025Y-45719958D01*
X46774675Y-45936224D01*
X46826401Y-46168212D01*
X46842282Y-46406495D01*
X46821398Y-46641645D01*
X46791118Y-46776314D01*
X46701340Y-47023913D01*
X46578029Y-47253328D01*
X46424908Y-47460792D01*
X46245699Y-47642535D01*
X46044122Y-47794789D01*
X45823901Y-47913786D01*
X45588756Y-47995756D01*
X45586159Y-47996423D01*
X45431837Y-48023952D01*
X45255212Y-48036209D01*
X45073158Y-48033234D01*
X44902548Y-48015065D01*
X44803731Y-47994593D01*
X44610327Y-47927248D01*
X44412768Y-47828420D01*
X44222109Y-47705409D01*
X44049403Y-47565518D01*
X43905702Y-47416050D01*
X43880822Y-47384879D01*
X43741114Y-47169666D01*
X43638219Y-46936910D01*
X43573925Y-46691817D01*
X43550022Y-46439595D01*
X43549908Y-46422103D01*
X43561947Y-46274729D01*
G36*
X43008832Y-46757629D02*
G01*
X43053623Y-46788961D01*
X43117904Y-46834707D01*
X43194343Y-46889567D01*
X43275607Y-46948245D01*
X43354363Y-47005442D01*
X43423278Y-47055861D01*
X43475019Y-47094204D01*
X43502253Y-47115172D01*
X43504114Y-47116815D01*
X43495538Y-47135670D01*
X43466547Y-47180572D01*
X43422275Y-47243814D01*
X43391102Y-47286555D01*
X43341224Y-47357931D01*
X43305343Y-47417014D01*
X43288122Y-47455663D01*
X43288581Y-47465565D01*
X43312250Y-47484106D01*
X43365310Y-47523764D01*
X43443424Y-47581395D01*
X43542253Y-47653853D01*
X43657460Y-47737996D01*
X43784708Y-47830677D01*
X43919659Y-47928754D01*
X44057974Y-48029081D01*
X44195317Y-48128513D01*
X44327349Y-48223908D01*
X44449733Y-48312119D01*
X44558130Y-48390004D01*
X44648204Y-48454416D01*
X44715617Y-48502212D01*
X44756030Y-48530248D01*
X44765793Y-48536395D01*
X44787118Y-48523834D01*
X44825860Y-48483662D01*
X44875403Y-48423119D01*
X44903276Y-48385937D01*
X44954088Y-48316976D01*
X44994808Y-48263224D01*
X45019640Y-48232258D01*
X45024369Y-48227675D01*
X45044324Y-48239600D01*
X45090574Y-48271736D01*
X45155755Y-48318616D01*
X45232503Y-48374778D01*
X45313452Y-48434757D01*
X45391239Y-48493089D01*
X45458499Y-48544310D01*
X45507867Y-48582956D01*
X45531979Y-48603563D01*
X45533179Y-48605182D01*
X45522784Y-48627530D01*
X45490010Y-48678388D01*
X45438472Y-48752939D01*
X45371783Y-48846369D01*
X45293559Y-48953863D01*
X45207414Y-49070606D01*
X45116961Y-49191784D01*
X45025816Y-49312581D01*
X44937592Y-49428184D01*
X44855905Y-49533776D01*
X44784368Y-49624544D01*
X44726596Y-49695673D01*
X44686203Y-49742347D01*
X44666804Y-49759752D01*
X44666456Y-49759768D01*
X44638520Y-49746803D01*
X44584038Y-49712988D01*
X44510189Y-49663058D01*
X44424152Y-49601751D01*
X44399266Y-49583494D01*
X44303152Y-49512935D01*
X44237543Y-49461546D01*
X44200305Y-49421534D01*
X44189306Y-49385104D01*
X44202415Y-49344465D01*
X44237500Y-49291822D01*
X44292429Y-49219383D01*
X44297731Y-49212347D01*
X44342365Y-49149797D01*
X44373218Y-49100335D01*
X44384562Y-49073284D01*
X44384162Y-49071621D01*
X44375597Y-49063277D01*
X44353383Y-49045321D01*
X44315053Y-49015930D01*
X44258142Y-48973279D01*
X44180182Y-48915546D01*
X44078708Y-48840907D01*
X43951254Y-48747538D01*
X43795353Y-48633615D01*
X43608539Y-48497314D01*
X43533263Y-48442431D01*
X43439397Y-48374384D01*
X43375040Y-48329293D01*
X43335689Y-48304903D01*
X43316843Y-48298961D01*
X43314000Y-48309214D01*
X43322660Y-48333409D01*
X43324624Y-48337990D01*
X43339406Y-48371033D01*
X43369954Y-48438416D01*
X43414379Y-48536004D01*
X43470793Y-48659661D01*
X43537308Y-48805251D01*
X43612036Y-48968637D01*
X43693088Y-49145684D01*
X43771930Y-49317758D01*
X43857530Y-49504587D01*
X43938867Y-49682269D01*
X44014001Y-49846555D01*
X44080992Y-49993198D01*
X44137903Y-50117950D01*
X44182792Y-50216563D01*
X44213721Y-50284791D01*
X44228056Y-50316790D01*
X44266986Y-50405656D01*
X44076842Y-50666040D01*
X44009856Y-50756761D01*
X43951070Y-50834476D01*
X43905194Y-50893108D01*
X43876932Y-50926580D01*
X43870801Y-50932012D01*
X43851294Y-50920887D01*
X43800699Y-50886887D01*
X43722055Y-50832179D01*
X43618404Y-50758934D01*
X43492788Y-50669318D01*
X43348247Y-50565502D01*
X43187823Y-50449654D01*
X43014557Y-50323943D01*
X42850473Y-50204397D01*
X42667988Y-50071332D01*
X42495470Y-49945811D01*
X42335987Y-49830048D01*
X42192605Y-49726255D01*
X42068391Y-49636646D01*
X41966411Y-49563433D01*
X41889733Y-49508829D01*
X41841424Y-49475048D01*
X41824776Y-49464289D01*
X41803988Y-49477339D01*
X41766024Y-49518081D01*
X41717423Y-49579139D01*
X41691083Y-49615112D01*
X41639553Y-49684477D01*
X41595603Y-49738294D01*
X41565783Y-49768779D01*
X41558304Y-49772841D01*
X41534208Y-49761082D01*
X41484510Y-49729433D01*
X41416752Y-49683342D01*
X41338475Y-49628252D01*
X41257222Y-49569611D01*
X41180536Y-49512862D01*
X41115958Y-49463453D01*
X41071032Y-49426827D01*
X41053299Y-49408432D01*
X41053265Y-49408206D01*
X41064947Y-49388743D01*
X41098131Y-49340022D01*
X41149290Y-49266927D01*
X41214897Y-49174341D01*
X41291425Y-49067150D01*
X41375347Y-48950236D01*
X41463137Y-48828483D01*
X41551267Y-48706777D01*
X41636211Y-48589999D01*
X41714442Y-48483036D01*
X41782433Y-48390770D01*
X41836657Y-48318085D01*
X41873588Y-48269866D01*
X41887291Y-48253253D01*
X41903778Y-48246890D01*
X41932921Y-48255147D01*
X41979661Y-48280801D01*
X42048940Y-48326633D01*
X42145699Y-48395419D01*
X42164979Y-48409409D01*
X42254274Y-48474403D01*
X42330696Y-48530156D01*
X42388040Y-48572130D01*
X42420100Y-48595788D01*
X42424614Y-48599240D01*
X42416044Y-48617759D01*
X42387072Y-48662380D01*
X42342825Y-48725437D01*
X42311602Y-48768222D01*
X42261733Y-48839534D01*
X42225854Y-48898479D01*
X42208626Y-48936942D01*
X42209081Y-48946730D01*
X42230457Y-48963075D01*
X42280501Y-49000151D01*
X42353589Y-49053864D01*
X42444098Y-49120119D01*
X42546407Y-49194825D01*
X42654891Y-49273885D01*
X42763928Y-49353208D01*
X42867895Y-49428698D01*
X42961168Y-49496262D01*
X43038125Y-49551807D01*
X43093143Y-49591237D01*
X43120598Y-49610461D01*
X43121780Y-49611219D01*
X43117516Y-49595232D01*
X43097187Y-49544355D01*
X43062366Y-49462181D01*
X43014631Y-49352305D01*
X42955556Y-49218317D01*
X42886718Y-49063811D01*
X42809692Y-48892380D01*
X42726055Y-48707616D01*
X42709512Y-48671224D01*
X42595386Y-48418986D01*
X42499713Y-48204596D01*
X42422403Y-48027844D01*
X42363369Y-47888521D01*
X42322521Y-47786418D01*
X42299770Y-47721325D01*
X42295029Y-47693033D01*
X42295385Y-47692405D01*
X42312605Y-47668999D01*
X42351229Y-47616091D01*
X42407792Y-47538440D01*
X42478830Y-47440803D01*
X42560880Y-47327941D01*
X42649190Y-47206383D01*
X42737800Y-47084730D01*
X42818130Y-46975135D01*
X42886887Y-46882032D01*
X42940782Y-46809856D01*
X42976524Y-46763038D01*
X42990822Y-46746014D01*
X42990865Y-46746008D01*
X43008832Y-46757629D01*
G37*
X43008832Y-46757629D02*
X43053623Y-46788961D01*
X43117904Y-46834707D01*
X43194343Y-46889567D01*
X43275607Y-46948245D01*
X43354363Y-47005442D01*
X43423278Y-47055861D01*
X43475019Y-47094204D01*
X43502253Y-47115172D01*
X43504114Y-47116815D01*
X43495538Y-47135670D01*
X43466547Y-47180572D01*
X43422275Y-47243814D01*
X43391102Y-47286555D01*
X43341224Y-47357931D01*
X43305343Y-47417014D01*
X43288122Y-47455663D01*
X43288581Y-47465565D01*
X43312250Y-47484106D01*
X43365310Y-47523764D01*
X43443424Y-47581395D01*
X43542253Y-47653853D01*
X43657460Y-47737996D01*
X43784708Y-47830677D01*
X43919659Y-47928754D01*
X44057974Y-48029081D01*
X44195317Y-48128513D01*
X44327349Y-48223908D01*
X44449733Y-48312119D01*
X44558130Y-48390004D01*
X44648204Y-48454416D01*
X44715617Y-48502212D01*
X44756030Y-48530248D01*
X44765793Y-48536395D01*
X44787118Y-48523834D01*
X44825860Y-48483662D01*
X44875403Y-48423119D01*
X44903276Y-48385937D01*
X44954088Y-48316976D01*
X44994808Y-48263224D01*
X45019640Y-48232258D01*
X45024369Y-48227675D01*
X45044324Y-48239600D01*
X45090574Y-48271736D01*
X45155755Y-48318616D01*
X45232503Y-48374778D01*
X45313452Y-48434757D01*
X45391239Y-48493089D01*
X45458499Y-48544310D01*
X45507867Y-48582956D01*
X45531979Y-48603563D01*
X45533179Y-48605182D01*
X45522784Y-48627530D01*
X45490010Y-48678388D01*
X45438472Y-48752939D01*
X45371783Y-48846369D01*
X45293559Y-48953863D01*
X45207414Y-49070606D01*
X45116961Y-49191784D01*
X45025816Y-49312581D01*
X44937592Y-49428184D01*
X44855905Y-49533776D01*
X44784368Y-49624544D01*
X44726596Y-49695673D01*
X44686203Y-49742347D01*
X44666804Y-49759752D01*
X44666456Y-49759768D01*
X44638520Y-49746803D01*
X44584038Y-49712988D01*
X44510189Y-49663058D01*
X44424152Y-49601751D01*
X44399266Y-49583494D01*
X44303152Y-49512935D01*
X44237543Y-49461546D01*
X44200305Y-49421534D01*
X44189306Y-49385104D01*
X44202415Y-49344465D01*
X44237500Y-49291822D01*
X44292429Y-49219383D01*
X44297731Y-49212347D01*
X44342365Y-49149797D01*
X44373218Y-49100335D01*
X44384562Y-49073284D01*
X44384162Y-49071621D01*
X44375597Y-49063277D01*
X44353383Y-49045321D01*
X44315053Y-49015930D01*
X44258142Y-48973279D01*
X44180182Y-48915546D01*
X44078708Y-48840907D01*
X43951254Y-48747538D01*
X43795353Y-48633615D01*
X43608539Y-48497314D01*
X43533263Y-48442431D01*
X43439397Y-48374384D01*
X43375040Y-48329293D01*
X43335689Y-48304903D01*
X43316843Y-48298961D01*
X43314000Y-48309214D01*
X43322660Y-48333409D01*
X43324624Y-48337990D01*
X43339406Y-48371033D01*
X43369954Y-48438416D01*
X43414379Y-48536004D01*
X43470793Y-48659661D01*
X43537308Y-48805251D01*
X43612036Y-48968637D01*
X43693088Y-49145684D01*
X43771930Y-49317758D01*
X43857530Y-49504587D01*
X43938867Y-49682269D01*
X44014001Y-49846555D01*
X44080992Y-49993198D01*
X44137903Y-50117950D01*
X44182792Y-50216563D01*
X44213721Y-50284791D01*
X44228056Y-50316790D01*
X44266986Y-50405656D01*
X44076842Y-50666040D01*
X44009856Y-50756761D01*
X43951070Y-50834476D01*
X43905194Y-50893108D01*
X43876932Y-50926580D01*
X43870801Y-50932012D01*
X43851294Y-50920887D01*
X43800699Y-50886887D01*
X43722055Y-50832179D01*
X43618404Y-50758934D01*
X43492788Y-50669318D01*
X43348247Y-50565502D01*
X43187823Y-50449654D01*
X43014557Y-50323943D01*
X42850473Y-50204397D01*
X42667988Y-50071332D01*
X42495470Y-49945811D01*
X42335987Y-49830048D01*
X42192605Y-49726255D01*
X42068391Y-49636646D01*
X41966411Y-49563433D01*
X41889733Y-49508829D01*
X41841424Y-49475048D01*
X41824776Y-49464289D01*
X41803988Y-49477339D01*
X41766024Y-49518081D01*
X41717423Y-49579139D01*
X41691083Y-49615112D01*
X41639553Y-49684477D01*
X41595603Y-49738294D01*
X41565783Y-49768779D01*
X41558304Y-49772841D01*
X41534208Y-49761082D01*
X41484510Y-49729433D01*
X41416752Y-49683342D01*
X41338475Y-49628252D01*
X41257222Y-49569611D01*
X41180536Y-49512862D01*
X41115958Y-49463453D01*
X41071032Y-49426827D01*
X41053299Y-49408432D01*
X41053265Y-49408206D01*
X41064947Y-49388743D01*
X41098131Y-49340022D01*
X41149290Y-49266927D01*
X41214897Y-49174341D01*
X41291425Y-49067150D01*
X41375347Y-48950236D01*
X41463137Y-48828483D01*
X41551267Y-48706777D01*
X41636211Y-48589999D01*
X41714442Y-48483036D01*
X41782433Y-48390770D01*
X41836657Y-48318085D01*
X41873588Y-48269866D01*
X41887291Y-48253253D01*
X41903778Y-48246890D01*
X41932921Y-48255147D01*
X41979661Y-48280801D01*
X42048940Y-48326633D01*
X42145699Y-48395419D01*
X42164979Y-48409409D01*
X42254274Y-48474403D01*
X42330696Y-48530156D01*
X42388040Y-48572130D01*
X42420100Y-48595788D01*
X42424614Y-48599240D01*
X42416044Y-48617759D01*
X42387072Y-48662380D01*
X42342825Y-48725437D01*
X42311602Y-48768222D01*
X42261733Y-48839534D01*
X42225854Y-48898479D01*
X42208626Y-48936942D01*
X42209081Y-48946730D01*
X42230457Y-48963075D01*
X42280501Y-49000151D01*
X42353589Y-49053864D01*
X42444098Y-49120119D01*
X42546407Y-49194825D01*
X42654891Y-49273885D01*
X42763928Y-49353208D01*
X42867895Y-49428698D01*
X42961168Y-49496262D01*
X43038125Y-49551807D01*
X43093143Y-49591237D01*
X43120598Y-49610461D01*
X43121780Y-49611219D01*
X43117516Y-49595232D01*
X43097187Y-49544355D01*
X43062366Y-49462181D01*
X43014631Y-49352305D01*
X42955556Y-49218317D01*
X42886718Y-49063811D01*
X42809692Y-48892380D01*
X42726055Y-48707616D01*
X42709512Y-48671224D01*
X42595386Y-48418986D01*
X42499713Y-48204596D01*
X42422403Y-48027844D01*
X42363369Y-47888521D01*
X42322521Y-47786418D01*
X42299770Y-47721325D01*
X42295029Y-47693033D01*
X42295385Y-47692405D01*
X42312605Y-47668999D01*
X42351229Y-47616091D01*
X42407792Y-47538440D01*
X42478830Y-47440803D01*
X42560880Y-47327941D01*
X42649190Y-47206383D01*
X42737800Y-47084730D01*
X42818130Y-46975135D01*
X42886887Y-46882032D01*
X42940782Y-46809856D01*
X42976524Y-46763038D01*
X42990822Y-46746014D01*
X42990865Y-46746008D01*
X43008832Y-46757629D01*
G36*
X41302305Y-49763110D02*
G01*
X41376119Y-49767479D01*
X41434904Y-49778088D01*
X41492309Y-49797657D01*
X41561982Y-49828909D01*
X41582123Y-49838486D01*
X41671805Y-49884642D01*
X41761292Y-49936370D01*
X41842796Y-49988471D01*
X41908531Y-50035749D01*
X41950710Y-50073006D01*
X41962260Y-50092210D01*
X41950262Y-50117761D01*
X41917868Y-50168547D01*
X41870483Y-50237282D01*
X41813507Y-50316677D01*
X41752343Y-50399447D01*
X41692394Y-50478305D01*
X41639062Y-50545964D01*
X41597748Y-50595137D01*
X41573857Y-50618536D01*
X41571329Y-50619508D01*
X41541378Y-50608409D01*
X41492132Y-50580406D01*
X41468584Y-50565031D01*
X41329155Y-50483448D01*
X41206723Y-50440268D01*
X41100262Y-50435590D01*
X41008744Y-50469513D01*
X40931145Y-50542134D01*
X40881832Y-50621327D01*
X40848999Y-50701349D01*
X40844555Y-50769482D01*
X40868573Y-50844229D01*
X40882822Y-50873631D01*
X40946897Y-50963081D01*
X41029353Y-51025452D01*
X41121539Y-51057565D01*
X41214804Y-51056243D01*
X41292191Y-51024051D01*
X41349041Y-50976102D01*
X41421982Y-50898447D01*
X41505257Y-50797637D01*
X41587825Y-50687604D01*
X41628762Y-50638457D01*
X41663731Y-50609917D01*
X41678449Y-50606740D01*
X41705732Y-50622912D01*
X41757263Y-50658034D01*
X41825626Y-50706618D01*
X41903401Y-50763177D01*
X41983170Y-50822224D01*
X42057515Y-50878271D01*
X42119017Y-50925830D01*
X42160257Y-50959413D01*
X42173927Y-50973254D01*
X42162167Y-50994401D01*
X42130870Y-51040621D01*
X42086004Y-51103205D01*
X42069594Y-51125483D01*
X41976017Y-51260212D01*
X41911545Y-51374491D01*
X41873026Y-51475284D01*
X41857309Y-51569556D01*
X41856566Y-51596248D01*
X41869319Y-51703894D01*
X41911303Y-51790210D01*
X41988553Y-51866793D01*
X42003129Y-51877844D01*
X42106616Y-51931209D01*
X42214002Y-51944405D01*
X42321252Y-51918846D01*
X42424336Y-51855947D01*
X42519221Y-51757124D01*
X42572337Y-51678137D01*
X42621271Y-51557177D01*
X42629434Y-51433066D01*
X42597847Y-51309401D01*
X42527532Y-51189782D01*
X42419508Y-51077808D01*
X42396775Y-51059245D01*
X42339340Y-51011987D01*
X42297819Y-50974153D01*
X42280973Y-50953742D01*
X42280941Y-50953497D01*
X42292358Y-50931613D01*
X42323978Y-50883450D01*
X42370398Y-50816440D01*
X42426214Y-50738016D01*
X42486022Y-50655611D01*
X42544421Y-50576656D01*
X42596006Y-50508584D01*
X42635375Y-50458827D01*
X42657124Y-50434819D01*
X42658749Y-50433805D01*
X42685019Y-50442728D01*
X42734241Y-50474323D01*
X42798531Y-50522255D01*
X42870007Y-50580193D01*
X42940784Y-50641802D01*
X43002980Y-50700749D01*
X43039505Y-50739694D01*
X43122716Y-50852981D01*
X43198499Y-50987312D01*
X43258915Y-51126619D01*
X43296026Y-51254837D01*
X43297268Y-51261439D01*
X43307374Y-51428998D01*
X43281621Y-51605617D01*
X43223636Y-51785091D01*
X43137044Y-51961214D01*
X43025473Y-52127779D01*
X42892548Y-52278582D01*
X42741895Y-52407417D01*
X42577142Y-52508077D01*
X42565510Y-52513747D01*
X42380130Y-52586509D01*
X42204394Y-52621023D01*
X42032048Y-52618277D01*
X41967968Y-52608030D01*
X41789313Y-52553645D01*
X41625572Y-52466747D01*
X41481720Y-52352506D01*
X41362732Y-52216093D01*
X41273582Y-52062678D01*
X41219244Y-51897430D01*
X41207161Y-51817302D01*
X41193891Y-51675196D01*
X41114635Y-51688586D01*
X40980582Y-51691816D01*
X40835227Y-51661517D01*
X40687683Y-51601243D01*
X40547065Y-51514552D01*
X40443949Y-51426869D01*
X40321989Y-51279379D01*
X40238689Y-51116887D01*
X40194532Y-50942678D01*
X40190000Y-50760038D01*
X40225574Y-50572255D01*
X40293291Y-50399502D01*
X40411940Y-50197844D01*
X40553307Y-50031349D01*
X40718681Y-49898672D01*
X40838033Y-49830730D01*
X40904231Y-49799613D01*
X40959053Y-49779676D01*
X41015534Y-49768450D01*
X41086714Y-49763470D01*
X41185631Y-49762266D01*
X41199815Y-49762258D01*
X41302305Y-49763110D01*
G37*
X41302305Y-49763110D02*
X41376119Y-49767479D01*
X41434904Y-49778088D01*
X41492309Y-49797657D01*
X41561982Y-49828909D01*
X41582123Y-49838486D01*
X41671805Y-49884642D01*
X41761292Y-49936370D01*
X41842796Y-49988471D01*
X41908531Y-50035749D01*
X41950710Y-50073006D01*
X41962260Y-50092210D01*
X41950262Y-50117761D01*
X41917868Y-50168547D01*
X41870483Y-50237282D01*
X41813507Y-50316677D01*
X41752343Y-50399447D01*
X41692394Y-50478305D01*
X41639062Y-50545964D01*
X41597748Y-50595137D01*
X41573857Y-50618536D01*
X41571329Y-50619508D01*
X41541378Y-50608409D01*
X41492132Y-50580406D01*
X41468584Y-50565031D01*
X41329155Y-50483448D01*
X41206723Y-50440268D01*
X41100262Y-50435590D01*
X41008744Y-50469513D01*
X40931145Y-50542134D01*
X40881832Y-50621327D01*
X40848999Y-50701349D01*
X40844555Y-50769482D01*
X40868573Y-50844229D01*
X40882822Y-50873631D01*
X40946897Y-50963081D01*
X41029353Y-51025452D01*
X41121539Y-51057565D01*
X41214804Y-51056243D01*
X41292191Y-51024051D01*
X41349041Y-50976102D01*
X41421982Y-50898447D01*
X41505257Y-50797637D01*
X41587825Y-50687604D01*
X41628762Y-50638457D01*
X41663731Y-50609917D01*
X41678449Y-50606740D01*
X41705732Y-50622912D01*
X41757263Y-50658034D01*
X41825626Y-50706618D01*
X41903401Y-50763177D01*
X41983170Y-50822224D01*
X42057515Y-50878271D01*
X42119017Y-50925830D01*
X42160257Y-50959413D01*
X42173927Y-50973254D01*
X42162167Y-50994401D01*
X42130870Y-51040621D01*
X42086004Y-51103205D01*
X42069594Y-51125483D01*
X41976017Y-51260212D01*
X41911545Y-51374491D01*
X41873026Y-51475284D01*
X41857309Y-51569556D01*
X41856566Y-51596248D01*
X41869319Y-51703894D01*
X41911303Y-51790210D01*
X41988553Y-51866793D01*
X42003129Y-51877844D01*
X42106616Y-51931209D01*
X42214002Y-51944405D01*
X42321252Y-51918846D01*
X42424336Y-51855947D01*
X42519221Y-51757124D01*
X42572337Y-51678137D01*
X42621271Y-51557177D01*
X42629434Y-51433066D01*
X42597847Y-51309401D01*
X42527532Y-51189782D01*
X42419508Y-51077808D01*
X42396775Y-51059245D01*
X42339340Y-51011987D01*
X42297819Y-50974153D01*
X42280973Y-50953742D01*
X42280941Y-50953497D01*
X42292358Y-50931613D01*
X42323978Y-50883450D01*
X42370398Y-50816440D01*
X42426214Y-50738016D01*
X42486022Y-50655611D01*
X42544421Y-50576656D01*
X42596006Y-50508584D01*
X42635375Y-50458827D01*
X42657124Y-50434819D01*
X42658749Y-50433805D01*
X42685019Y-50442728D01*
X42734241Y-50474323D01*
X42798531Y-50522255D01*
X42870007Y-50580193D01*
X42940784Y-50641802D01*
X43002980Y-50700749D01*
X43039505Y-50739694D01*
X43122716Y-50852981D01*
X43198499Y-50987312D01*
X43258915Y-51126619D01*
X43296026Y-51254837D01*
X43297268Y-51261439D01*
X43307374Y-51428998D01*
X43281621Y-51605617D01*
X43223636Y-51785091D01*
X43137044Y-51961214D01*
X43025473Y-52127779D01*
X42892548Y-52278582D01*
X42741895Y-52407417D01*
X42577142Y-52508077D01*
X42565510Y-52513747D01*
X42380130Y-52586509D01*
X42204394Y-52621023D01*
X42032048Y-52618277D01*
X41967968Y-52608030D01*
X41789313Y-52553645D01*
X41625572Y-52466747D01*
X41481720Y-52352506D01*
X41362732Y-52216093D01*
X41273582Y-52062678D01*
X41219244Y-51897430D01*
X41207161Y-51817302D01*
X41193891Y-51675196D01*
X41114635Y-51688586D01*
X40980582Y-51691816D01*
X40835227Y-51661517D01*
X40687683Y-51601243D01*
X40547065Y-51514552D01*
X40443949Y-51426869D01*
X40321989Y-51279379D01*
X40238689Y-51116887D01*
X40194532Y-50942678D01*
X40190000Y-50760038D01*
X40225574Y-50572255D01*
X40293291Y-50399502D01*
X40411940Y-50197844D01*
X40553307Y-50031349D01*
X40718681Y-49898672D01*
X40838033Y-49830730D01*
X40904231Y-49799613D01*
X40959053Y-49779676D01*
X41015534Y-49768450D01*
X41086714Y-49763470D01*
X41185631Y-49762266D01*
X41199815Y-49762258D01*
X41302305Y-49763110D01*
G36*
X39520899Y-51567054D02*
G01*
X39571308Y-51596023D01*
X39639682Y-51639975D01*
X39718279Y-51693433D01*
X39799357Y-51750916D01*
X39875172Y-51806944D01*
X39937981Y-51856038D01*
X39980043Y-51892718D01*
X39993760Y-51910681D01*
X39982061Y-51934695D01*
X39951233Y-51982593D01*
X39907676Y-52044490D01*
X39902755Y-52051221D01*
X39855806Y-52115777D01*
X39818057Y-52168713D01*
X39797240Y-52199179D01*
X39796648Y-52200138D01*
X39809575Y-52219247D01*
X39856563Y-52261777D01*
X39936825Y-52327115D01*
X40049575Y-52414647D01*
X40194025Y-52523759D01*
X40369390Y-52653838D01*
X40515616Y-52761055D01*
X40671522Y-52874821D01*
X40817393Y-52981111D01*
X40949563Y-53077264D01*
X41064367Y-53160620D01*
X41158139Y-53228521D01*
X41227214Y-53278306D01*
X41267924Y-53307315D01*
X41277121Y-53313588D01*
X41302942Y-53308057D01*
X41345453Y-53268727D01*
X41406313Y-53194015D01*
X41416160Y-53180951D01*
X41477197Y-53104929D01*
X41524475Y-53057497D01*
X41554269Y-53042321D01*
X41556532Y-53042857D01*
X41583642Y-53058905D01*
X41635775Y-53094038D01*
X41704963Y-53142481D01*
X41783236Y-53198462D01*
X41862623Y-53256208D01*
X41935156Y-53309946D01*
X41992865Y-53353903D01*
X42027779Y-53382306D01*
X42034190Y-53388857D01*
X42024062Y-53408037D01*
X41992392Y-53456431D01*
X41942700Y-53529135D01*
X41878505Y-53621244D01*
X41803327Y-53727854D01*
X41720684Y-53844061D01*
X41634096Y-53964959D01*
X41547082Y-54085646D01*
X41463162Y-54201216D01*
X41385856Y-54306765D01*
X41318681Y-54397389D01*
X41265159Y-54468184D01*
X41228807Y-54514245D01*
X41216915Y-54527757D01*
X41200082Y-54536316D01*
X41174001Y-54531633D01*
X41132829Y-54510644D01*
X41070720Y-54470284D01*
X40981829Y-54407490D01*
X40966653Y-54396545D01*
X40860894Y-54320178D01*
X40785322Y-54264224D01*
X40736190Y-54223786D01*
X40709751Y-54193967D01*
X40702260Y-54169867D01*
X40709970Y-54146590D01*
X40729134Y-54119238D01*
X40741789Y-54102572D01*
X40792225Y-54035160D01*
X40843424Y-53966697D01*
X40850919Y-53956671D01*
X40903745Y-53886000D01*
X39888442Y-53147046D01*
X39705443Y-53013686D01*
X39533033Y-52887711D01*
X39374190Y-52771320D01*
X39231896Y-52666713D01*
X39109130Y-52576091D01*
X39008874Y-52501653D01*
X38934108Y-52445598D01*
X38887811Y-52410126D01*
X38872914Y-52397508D01*
X38884947Y-52375710D01*
X38918456Y-52326041D01*
X38969179Y-52254237D01*
X39032852Y-52166036D01*
X39105214Y-52067177D01*
X39182001Y-51963396D01*
X39258950Y-51860431D01*
X39331800Y-51764021D01*
X39396286Y-51679903D01*
X39448147Y-51613814D01*
X39483121Y-51571492D01*
X39496200Y-51558551D01*
X39520899Y-51567054D01*
G37*
X39520899Y-51567054D02*
X39571308Y-51596023D01*
X39639682Y-51639975D01*
X39718279Y-51693433D01*
X39799357Y-51750916D01*
X39875172Y-51806944D01*
X39937981Y-51856038D01*
X39980043Y-51892718D01*
X39993760Y-51910681D01*
X39982061Y-51934695D01*
X39951233Y-51982593D01*
X39907676Y-52044490D01*
X39902755Y-52051221D01*
X39855806Y-52115777D01*
X39818057Y-52168713D01*
X39797240Y-52199179D01*
X39796648Y-52200138D01*
X39809575Y-52219247D01*
X39856563Y-52261777D01*
X39936825Y-52327115D01*
X40049575Y-52414647D01*
X40194025Y-52523759D01*
X40369390Y-52653838D01*
X40515616Y-52761055D01*
X40671522Y-52874821D01*
X40817393Y-52981111D01*
X40949563Y-53077264D01*
X41064367Y-53160620D01*
X41158139Y-53228521D01*
X41227214Y-53278306D01*
X41267924Y-53307315D01*
X41277121Y-53313588D01*
X41302942Y-53308057D01*
X41345453Y-53268727D01*
X41406313Y-53194015D01*
X41416160Y-53180951D01*
X41477197Y-53104929D01*
X41524475Y-53057497D01*
X41554269Y-53042321D01*
X41556532Y-53042857D01*
X41583642Y-53058905D01*
X41635775Y-53094038D01*
X41704963Y-53142481D01*
X41783236Y-53198462D01*
X41862623Y-53256208D01*
X41935156Y-53309946D01*
X41992865Y-53353903D01*
X42027779Y-53382306D01*
X42034190Y-53388857D01*
X42024062Y-53408037D01*
X41992392Y-53456431D01*
X41942700Y-53529135D01*
X41878505Y-53621244D01*
X41803327Y-53727854D01*
X41720684Y-53844061D01*
X41634096Y-53964959D01*
X41547082Y-54085646D01*
X41463162Y-54201216D01*
X41385856Y-54306765D01*
X41318681Y-54397389D01*
X41265159Y-54468184D01*
X41228807Y-54514245D01*
X41216915Y-54527757D01*
X41200082Y-54536316D01*
X41174001Y-54531633D01*
X41132829Y-54510644D01*
X41070720Y-54470284D01*
X40981829Y-54407490D01*
X40966653Y-54396545D01*
X40860894Y-54320178D01*
X40785322Y-54264224D01*
X40736190Y-54223786D01*
X40709751Y-54193967D01*
X40702260Y-54169867D01*
X40709970Y-54146590D01*
X40729134Y-54119238D01*
X40741789Y-54102572D01*
X40792225Y-54035160D01*
X40843424Y-53966697D01*
X40850919Y-53956671D01*
X40903745Y-53886000D01*
X39888442Y-53147046D01*
X39705443Y-53013686D01*
X39533033Y-52887711D01*
X39374190Y-52771320D01*
X39231896Y-52666713D01*
X39109130Y-52576091D01*
X39008874Y-52501653D01*
X38934108Y-52445598D01*
X38887811Y-52410126D01*
X38872914Y-52397508D01*
X38884947Y-52375710D01*
X38918456Y-52326041D01*
X38969179Y-52254237D01*
X39032852Y-52166036D01*
X39105214Y-52067177D01*
X39182001Y-51963396D01*
X39258950Y-51860431D01*
X39331800Y-51764021D01*
X39396286Y-51679903D01*
X39448147Y-51613814D01*
X39483121Y-51571492D01*
X39496200Y-51558551D01*
X39520899Y-51567054D01*
G36*
X48260835Y-49973925D02*
G01*
X49159988Y-49973925D01*
X49175785Y-50114416D01*
X49225707Y-50233466D01*
X49313074Y-50338665D01*
X49323687Y-50348435D01*
X49456085Y-50447895D01*
X49587974Y-50505775D01*
X49722206Y-50522694D01*
X49861634Y-50499273D01*
X49920927Y-50478169D01*
X49984295Y-50443427D01*
X50050175Y-50394338D01*
X50065656Y-50380310D01*
X50152814Y-50271199D01*
X50202574Y-50151611D01*
X50216756Y-50027011D01*
X50197179Y-49902863D01*
X50145663Y-49784632D01*
X50064027Y-49677781D01*
X49954091Y-49587775D01*
X49817675Y-49520078D01*
X49774424Y-49505698D01*
X49639452Y-49485451D01*
X49510547Y-49503098D01*
X49393531Y-49554203D01*
X49294230Y-49634328D01*
X49218465Y-49739034D01*
X49172059Y-49863886D01*
X49159988Y-49973925D01*
X48260835Y-49973925D01*
X48325900Y-49886191D01*
X48377740Y-49817272D01*
X48410679Y-49774925D01*
X48418776Y-49765393D01*
X48448114Y-49739734D01*
X48475545Y-49741467D01*
X48507793Y-49760567D01*
X48560253Y-49794941D01*
X48573259Y-49683349D01*
X48591714Y-49600431D01*
X48627643Y-49497727D01*
X48671182Y-49399869D01*
X48780821Y-49222971D01*
X48918091Y-49074533D01*
X49078128Y-48955881D01*
X49256067Y-48868341D01*
X49447045Y-48813241D01*
X49646197Y-48791906D01*
X49848659Y-48805664D01*
X50049567Y-48855840D01*
X50244057Y-48943763D01*
X50275658Y-48962271D01*
X50409309Y-49051892D01*
X50529132Y-49148679D01*
X50625712Y-49244477D01*
X50676240Y-49309266D01*
X50730835Y-49391765D01*
X50822733Y-49270095D01*
X50867976Y-49207460D01*
X50900831Y-49156762D01*
X50914680Y-49128270D01*
X50914769Y-49127258D01*
X50898238Y-49110503D01*
X50851064Y-49071855D01*
X50776969Y-49014139D01*
X50679679Y-48940182D01*
X50562916Y-48852809D01*
X50430404Y-48754847D01*
X50285867Y-48649121D01*
X50259351Y-48629841D01*
X50113202Y-48523394D01*
X49978405Y-48424690D01*
X49858672Y-48336487D01*
X49757717Y-48261545D01*
X49679252Y-48202621D01*
X49626991Y-48162475D01*
X49604647Y-48143865D01*
X49604088Y-48143008D01*
X49616041Y-48123968D01*
X49648911Y-48076696D01*
X49698462Y-48007007D01*
X49760459Y-47920720D01*
X49830667Y-47823652D01*
X49904850Y-47721621D01*
X49978772Y-47620444D01*
X50048198Y-47525939D01*
X50108893Y-47443923D01*
X50156620Y-47380214D01*
X50187145Y-47340629D01*
X50195193Y-47331120D01*
X50218832Y-47336618D01*
X50273256Y-47367145D01*
X50356249Y-47421218D01*
X50465596Y-47497353D01*
X50599080Y-47594066D01*
X50702240Y-47670629D01*
X50700822Y-47694437D01*
X50675695Y-47744152D01*
X50630504Y-47813375D01*
X50587870Y-47871338D01*
X50512197Y-47970084D01*
X50863495Y-48227520D01*
X51214793Y-48484955D01*
X51316587Y-48448351D01*
X51395645Y-48412986D01*
X51480239Y-48364975D01*
X51515890Y-48340983D01*
X51590541Y-48274020D01*
X51627245Y-48210331D01*
X51624787Y-48152771D01*
X51607391Y-48125945D01*
X51583096Y-48105407D01*
X51528573Y-48063108D01*
X51447899Y-48002091D01*
X51345151Y-47925399D01*
X51224406Y-47836077D01*
X51089741Y-47737167D01*
X50949301Y-47634673D01*
X50806654Y-47530503D01*
X50675414Y-47433919D01*
X50559391Y-47347780D01*
X50462395Y-47274950D01*
X50388238Y-47218290D01*
X50340730Y-47180661D01*
X50323683Y-47164925D01*
X50323679Y-47164881D01*
X50335543Y-47141841D01*
X50368692Y-47091415D01*
X50418609Y-47019708D01*
X50480776Y-46932826D01*
X50550676Y-46836874D01*
X50623792Y-46737958D01*
X50695607Y-46642183D01*
X50761602Y-46555655D01*
X50817261Y-46484479D01*
X50858066Y-46434761D01*
X50879500Y-46412606D01*
X50880687Y-46412054D01*
X50903862Y-46421982D01*
X50953332Y-46451701D01*
X51021331Y-46495866D01*
X51100088Y-46549136D01*
X51181837Y-46606164D01*
X51258809Y-46661609D01*
X51323235Y-46710125D01*
X51367348Y-46746369D01*
X51369409Y-46748249D01*
X51370021Y-46775698D01*
X51345473Y-46826188D01*
X51325334Y-46856757D01*
X51286068Y-46913163D01*
X51256306Y-46957381D01*
X51247182Y-46971868D01*
X51258842Y-46993010D01*
X51303723Y-47035768D01*
X51379735Y-47098407D01*
X51484791Y-47179188D01*
X51587591Y-47255158D01*
X51756542Y-47379530D01*
X51894088Y-47483928D01*
X52004103Y-47571778D01*
X52090461Y-47646506D01*
X52157034Y-47711537D01*
X52207698Y-47770298D01*
X52246325Y-47826213D01*
X52259926Y-47849738D01*
X52294088Y-47918937D01*
X52313089Y-47981337D01*
X52321112Y-48055154D01*
X52322433Y-48121963D01*
X52319305Y-48219086D01*
X52306690Y-48293845D01*
X52280503Y-48365866D01*
X52264634Y-48399694D01*
X52160034Y-48566251D01*
X52021675Y-48710649D01*
X51915916Y-48789951D01*
X51853651Y-48830873D01*
X51806657Y-48862153D01*
X51784949Y-48877122D01*
X51784853Y-48877200D01*
X51790241Y-48895824D01*
X51809210Y-48918529D01*
X51818101Y-48931636D01*
X51818965Y-48949763D01*
X51809207Y-48977239D01*
X51786233Y-49018394D01*
X51747448Y-49077557D01*
X51690258Y-49159058D01*
X51612067Y-49267225D01*
X51546301Y-49357233D01*
X51462249Y-49470705D01*
X51385788Y-49571438D01*
X51320603Y-49654782D01*
X51270377Y-49716083D01*
X51238794Y-49750690D01*
X51230009Y-49756668D01*
X51206494Y-49742720D01*
X51155807Y-49708397D01*
X51084826Y-49658482D01*
X51000424Y-49597755D01*
X50977391Y-49580976D01*
X50884475Y-49513315D01*
X50821347Y-49468583D01*
X50783611Y-49444736D01*
X50766871Y-49439731D01*
X50766731Y-49451525D01*
X50778796Y-49478076D01*
X50785841Y-49491953D01*
X50854108Y-49668283D01*
X50891425Y-49861918D01*
X50896724Y-50060177D01*
X50868939Y-50250379D01*
X50854130Y-50303535D01*
X50788506Y-50461126D01*
X50695147Y-50613538D01*
X50581742Y-50751336D01*
X50455979Y-50865085D01*
X50334643Y-50941031D01*
X50280926Y-50971681D01*
X50249099Y-50998796D01*
X50244956Y-51010167D01*
X50272141Y-51036030D01*
X50327246Y-51058948D01*
X50395869Y-51075044D01*
X50463606Y-51080439D01*
X50494982Y-51077494D01*
X50592227Y-51043303D01*
X50694184Y-50981126D01*
X50786600Y-50900826D01*
X50836579Y-50841101D01*
X50914479Y-50708460D01*
X50960159Y-50570121D01*
X50977845Y-50412381D01*
X50978380Y-50381383D01*
X50980042Y-50297783D01*
X50985207Y-50248106D01*
X50995808Y-50223972D01*
X51013777Y-50217000D01*
X51016302Y-50216920D01*
X51050319Y-50214566D01*
X51117391Y-50208415D01*
X51208498Y-50199343D01*
X51314622Y-50188225D01*
X51339093Y-50185591D01*
X51445323Y-50174216D01*
X51536572Y-50164662D01*
X51604501Y-50157786D01*
X51640772Y-50154444D01*
X51643916Y-50154262D01*
X51652288Y-50173471D01*
X51655229Y-50225647D01*
X51653401Y-50301866D01*
X51647467Y-50393203D01*
X51638090Y-50490732D01*
X51625935Y-50585529D01*
X51611663Y-50668669D01*
X51602799Y-50707561D01*
X51528390Y-50921161D01*
X51422000Y-51119868D01*
X51288192Y-51299285D01*
X51131522Y-51455018D01*
X50956553Y-51582674D01*
X50767843Y-51677858D01*
X50569953Y-51736175D01*
X50528121Y-51743258D01*
X50343711Y-51750059D01*
X50158320Y-51718997D01*
X49984239Y-51652407D01*
X49948488Y-51633111D01*
X49903767Y-51604855D01*
X49829743Y-51554913D01*
X49731224Y-51486666D01*
X49613021Y-51403495D01*
X49479943Y-51308782D01*
X49336800Y-51205908D01*
X49209508Y-51113627D01*
X49066787Y-51010103D01*
X48934608Y-50914928D01*
X48816917Y-50830888D01*
X48717660Y-50760773D01*
X48640782Y-50707368D01*
X48590230Y-50673464D01*
X48570025Y-50661841D01*
X48552473Y-50677611D01*
X48516480Y-50719393D01*
X48468417Y-50778898D01*
X48414651Y-50847837D01*
X48361551Y-50917920D01*
X48315487Y-50980859D01*
X48282828Y-51028363D01*
X48269941Y-51052144D01*
X48269927Y-51052431D01*
X48286235Y-51066865D01*
X48331793Y-51102309D01*
X48401552Y-51154963D01*
X48490461Y-51221024D01*
X48593471Y-51296691D01*
X48624468Y-51319312D01*
X48793400Y-51443671D01*
X48930927Y-51548059D01*
X49040922Y-51635902D01*
X49127261Y-51710627D01*
X49193817Y-51775661D01*
X49244465Y-51834429D01*
X49283079Y-51890358D01*
X49296593Y-51913738D01*
X49330459Y-51982001D01*
X49349209Y-52042774D01*
X49356901Y-52114074D01*
X49357849Y-52185841D01*
X49353753Y-52284145D01*
X49339809Y-52360986D01*
X49311562Y-52436892D01*
X49296331Y-52469390D01*
X49216796Y-52597566D01*
X49108848Y-52721696D01*
X48985326Y-52828226D01*
X48909379Y-52877886D01*
X48848856Y-52914405D01*
X48820652Y-52938512D01*
X48819166Y-52956617D01*
X48830206Y-52968479D01*
X48857220Y-53000136D01*
X48862593Y-53015884D01*
X48850444Y-53038410D01*
X48816296Y-53090062D01*
X48763599Y-53166135D01*
X48695802Y-53261923D01*
X48616353Y-53372722D01*
X48528703Y-53493826D01*
X48436301Y-53620530D01*
X48342595Y-53748130D01*
X48251035Y-53871920D01*
X48165070Y-53987196D01*
X48088149Y-54089252D01*
X48023722Y-54173383D01*
X47975239Y-54234884D01*
X47946147Y-54269050D01*
X47939985Y-54274400D01*
X47916335Y-54300817D01*
X47898879Y-54347713D01*
X47874832Y-54409488D01*
X47828508Y-54491837D01*
X47766901Y-54584753D01*
X47697008Y-54678229D01*
X47625824Y-54762257D01*
X47569653Y-54818666D01*
X47437751Y-54921677D01*
X47306390Y-54989187D01*
X47163632Y-55026148D01*
X47043971Y-55036733D01*
X46906592Y-55035148D01*
X46806757Y-55020098D01*
X46783235Y-55012531D01*
X46626617Y-54930973D01*
X46496962Y-54818588D01*
X46397700Y-54679735D01*
X46332256Y-54518774D01*
X46310326Y-54410992D01*
X46297801Y-54316333D01*
X47019916Y-54316333D01*
X47020281Y-54351651D01*
X47024842Y-54359941D01*
X47048160Y-54381490D01*
X47074515Y-54382586D01*
X47115955Y-54361229D01*
X47149468Y-54339236D01*
X47232560Y-54266874D01*
X47297116Y-54178721D01*
X47340203Y-54083428D01*
X47358888Y-53989647D01*
X47350239Y-53906027D01*
X47316522Y-53846462D01*
X47278835Y-53811075D01*
X47252587Y-53794651D01*
X47251227Y-53794508D01*
X47236810Y-53806910D01*
X47213560Y-53846211D01*
X47179960Y-53915548D01*
X47134493Y-54018062D01*
X47075642Y-54156891D01*
X47072610Y-54164150D01*
X47036871Y-54255831D01*
X47019916Y-54316333D01*
X46297801Y-54316333D01*
X46295272Y-54297226D01*
X46228150Y-54377176D01*
X46181167Y-54426284D01*
X46147676Y-54442860D01*
X46129316Y-54438025D01*
X46085604Y-54409277D01*
X46019595Y-54362864D01*
X45937335Y-54303337D01*
X45844872Y-54235246D01*
X45748254Y-54163142D01*
X45653527Y-54091575D01*
X45566740Y-54025096D01*
X45493939Y-53968255D01*
X45441172Y-53925602D01*
X45414486Y-53901688D01*
X45412427Y-53898586D01*
X45424152Y-53876694D01*
X45455703Y-53828442D01*
X45501643Y-53761438D01*
X45511713Y-53747101D01*
X46346824Y-53747101D01*
X46363694Y-53807982D01*
X46374697Y-53822422D01*
X46408492Y-53850193D01*
X46426282Y-53858008D01*
X46441219Y-53840032D01*
X46469260Y-53791369D01*
X46506094Y-53719916D01*
X46539000Y-53651633D01*
X46589578Y-53542918D01*
X46623742Y-53466304D01*
X46643393Y-53415726D01*
X46650435Y-53385120D01*
X46646772Y-53368423D01*
X46634306Y-53359568D01*
X46631063Y-53358258D01*
X46583301Y-53360188D01*
X46523199Y-53390346D01*
X46461700Y-53441604D01*
X46414596Y-53499285D01*
X46373795Y-53580435D01*
X46350697Y-53667146D01*
X46346824Y-53747101D01*
X45511713Y-53747101D01*
X45556537Y-53683291D01*
X45614948Y-53601611D01*
X45671439Y-53524007D01*
X45720575Y-53458087D01*
X45756918Y-53411460D01*
X45774118Y-53392341D01*
X45789969Y-53369327D01*
X45818299Y-53319079D01*
X45853019Y-53252405D01*
X45853527Y-53251396D01*
X45945046Y-53103961D01*
X46061568Y-52969292D01*
X46192774Y-52857999D01*
X46297623Y-52794758D01*
X46371110Y-52760659D01*
X46431791Y-52740015D01*
X46495497Y-52729522D01*
X46578056Y-52725878D01*
X46629065Y-52725591D01*
X46777984Y-52734848D01*
X46900265Y-52765839D01*
X47008082Y-52823392D01*
X47113608Y-52912334D01*
X47122775Y-52921409D01*
X47218385Y-53040727D01*
X47280721Y-53177128D01*
X47313393Y-53338631D01*
X47314253Y-53346911D01*
X47328323Y-53487591D01*
X47422291Y-53355300D01*
X47470049Y-53292149D01*
X47510935Y-53245394D01*
X47537313Y-53223614D01*
X47540021Y-53223008D01*
X47568082Y-53234910D01*
X47618373Y-53266045D01*
X47677260Y-53307675D01*
X47736600Y-53350574D01*
X47782249Y-53381034D01*
X47804008Y-53392341D01*
X47822488Y-53376434D01*
X47854809Y-53336797D01*
X47892309Y-53285555D01*
X47926323Y-53234834D01*
X47948189Y-53196759D01*
X47951895Y-53185347D01*
X47935227Y-53169923D01*
X47887950Y-53132520D01*
X47813785Y-53075929D01*
X47716457Y-53002937D01*
X47599688Y-52916333D01*
X47467200Y-52818906D01*
X47322717Y-52713444D01*
X47295748Y-52693841D01*
X47149784Y-52587099D01*
X47015546Y-52487557D01*
X46896702Y-52398039D01*
X46796921Y-52321371D01*
X46719869Y-52260377D01*
X46669217Y-52217881D01*
X46648631Y-52196709D01*
X46648407Y-52195366D01*
X46664827Y-52167455D01*
X46701605Y-52113418D01*
X46754487Y-52038950D01*
X46819215Y-51949746D01*
X46891536Y-51851502D01*
X46967192Y-51749914D01*
X47041928Y-51650675D01*
X47111488Y-51559482D01*
X47171617Y-51482030D01*
X47218058Y-51424014D01*
X47246557Y-51391129D01*
X47253317Y-51385845D01*
X47282573Y-51403080D01*
X47335475Y-51439172D01*
X47404536Y-51488527D01*
X47482264Y-51545548D01*
X47561170Y-51604641D01*
X47633766Y-51660210D01*
X47692562Y-51706661D01*
X47730068Y-51738397D01*
X47739726Y-51749237D01*
X47728693Y-51774165D01*
X47698544Y-51823446D01*
X47655301Y-51887368D01*
X47645409Y-51901338D01*
X47550058Y-52034960D01*
X47901405Y-52292431D01*
X48252751Y-52549902D01*
X48346540Y-52514083D01*
X48462041Y-52461298D01*
X48555371Y-52401455D01*
X48622595Y-52338800D01*
X48659776Y-52277575D01*
X48662980Y-52222024D01*
X48645591Y-52191640D01*
X48621020Y-52170799D01*
X48566226Y-52128211D01*
X48485298Y-52066927D01*
X48382320Y-51990000D01*
X48261380Y-51900485D01*
X48126563Y-51801433D01*
X47986047Y-51698874D01*
X47843354Y-51594633D01*
X47712075Y-51497908D01*
X47596019Y-51411570D01*
X47498998Y-51338490D01*
X47424822Y-51281538D01*
X47377301Y-51243585D01*
X47360247Y-51227502D01*
X47360243Y-51227450D01*
X47372141Y-51207647D01*
X47405947Y-51158051D01*
X47458521Y-51082997D01*
X47526724Y-50986822D01*
X47607417Y-50873862D01*
X47697461Y-50748451D01*
X47793717Y-50614927D01*
X47893044Y-50477624D01*
X47992305Y-50340879D01*
X48088361Y-50209027D01*
X48178071Y-50086405D01*
X48258297Y-49977348D01*
X48260835Y-49973925D01*
G37*
X48260835Y-49973925D02*
X49159988Y-49973925D01*
X49175785Y-50114416D01*
X49225707Y-50233466D01*
X49313074Y-50338665D01*
X49323687Y-50348435D01*
X49456085Y-50447895D01*
X49587974Y-50505775D01*
X49722206Y-50522694D01*
X49861634Y-50499273D01*
X49920927Y-50478169D01*
X49984295Y-50443427D01*
X50050175Y-50394338D01*
X50065656Y-50380310D01*
X50152814Y-50271199D01*
X50202574Y-50151611D01*
X50216756Y-50027011D01*
X50197179Y-49902863D01*
X50145663Y-49784632D01*
X50064027Y-49677781D01*
X49954091Y-49587775D01*
X49817675Y-49520078D01*
X49774424Y-49505698D01*
X49639452Y-49485451D01*
X49510547Y-49503098D01*
X49393531Y-49554203D01*
X49294230Y-49634328D01*
X49218465Y-49739034D01*
X49172059Y-49863886D01*
X49159988Y-49973925D01*
X48260835Y-49973925D01*
X48325900Y-49886191D01*
X48377740Y-49817272D01*
X48410679Y-49774925D01*
X48418776Y-49765393D01*
X48448114Y-49739734D01*
X48475545Y-49741467D01*
X48507793Y-49760567D01*
X48560253Y-49794941D01*
X48573259Y-49683349D01*
X48591714Y-49600431D01*
X48627643Y-49497727D01*
X48671182Y-49399869D01*
X48780821Y-49222971D01*
X48918091Y-49074533D01*
X49078128Y-48955881D01*
X49256067Y-48868341D01*
X49447045Y-48813241D01*
X49646197Y-48791906D01*
X49848659Y-48805664D01*
X50049567Y-48855840D01*
X50244057Y-48943763D01*
X50275658Y-48962271D01*
X50409309Y-49051892D01*
X50529132Y-49148679D01*
X50625712Y-49244477D01*
X50676240Y-49309266D01*
X50730835Y-49391765D01*
X50822733Y-49270095D01*
X50867976Y-49207460D01*
X50900831Y-49156762D01*
X50914680Y-49128270D01*
X50914769Y-49127258D01*
X50898238Y-49110503D01*
X50851064Y-49071855D01*
X50776969Y-49014139D01*
X50679679Y-48940182D01*
X50562916Y-48852809D01*
X50430404Y-48754847D01*
X50285867Y-48649121D01*
X50259351Y-48629841D01*
X50113202Y-48523394D01*
X49978405Y-48424690D01*
X49858672Y-48336487D01*
X49757717Y-48261545D01*
X49679252Y-48202621D01*
X49626991Y-48162475D01*
X49604647Y-48143865D01*
X49604088Y-48143008D01*
X49616041Y-48123968D01*
X49648911Y-48076696D01*
X49698462Y-48007007D01*
X49760459Y-47920720D01*
X49830667Y-47823652D01*
X49904850Y-47721621D01*
X49978772Y-47620444D01*
X50048198Y-47525939D01*
X50108893Y-47443923D01*
X50156620Y-47380214D01*
X50187145Y-47340629D01*
X50195193Y-47331120D01*
X50218832Y-47336618D01*
X50273256Y-47367145D01*
X50356249Y-47421218D01*
X50465596Y-47497353D01*
X50599080Y-47594066D01*
X50702240Y-47670629D01*
X50700822Y-47694437D01*
X50675695Y-47744152D01*
X50630504Y-47813375D01*
X50587870Y-47871338D01*
X50512197Y-47970084D01*
X50863495Y-48227520D01*
X51214793Y-48484955D01*
X51316587Y-48448351D01*
X51395645Y-48412986D01*
X51480239Y-48364975D01*
X51515890Y-48340983D01*
X51590541Y-48274020D01*
X51627245Y-48210331D01*
X51624787Y-48152771D01*
X51607391Y-48125945D01*
X51583096Y-48105407D01*
X51528573Y-48063108D01*
X51447899Y-48002091D01*
X51345151Y-47925399D01*
X51224406Y-47836077D01*
X51089741Y-47737167D01*
X50949301Y-47634673D01*
X50806654Y-47530503D01*
X50675414Y-47433919D01*
X50559391Y-47347780D01*
X50462395Y-47274950D01*
X50388238Y-47218290D01*
X50340730Y-47180661D01*
X50323683Y-47164925D01*
X50323679Y-47164881D01*
X50335543Y-47141841D01*
X50368692Y-47091415D01*
X50418609Y-47019708D01*
X50480776Y-46932826D01*
X50550676Y-46836874D01*
X50623792Y-46737958D01*
X50695607Y-46642183D01*
X50761602Y-46555655D01*
X50817261Y-46484479D01*
X50858066Y-46434761D01*
X50879500Y-46412606D01*
X50880687Y-46412054D01*
X50903862Y-46421982D01*
X50953332Y-46451701D01*
X51021331Y-46495866D01*
X51100088Y-46549136D01*
X51181837Y-46606164D01*
X51258809Y-46661609D01*
X51323235Y-46710125D01*
X51367348Y-46746369D01*
X51369409Y-46748249D01*
X51370021Y-46775698D01*
X51345473Y-46826188D01*
X51325334Y-46856757D01*
X51286068Y-46913163D01*
X51256306Y-46957381D01*
X51247182Y-46971868D01*
X51258842Y-46993010D01*
X51303723Y-47035768D01*
X51379735Y-47098407D01*
X51484791Y-47179188D01*
X51587591Y-47255158D01*
X51756542Y-47379530D01*
X51894088Y-47483928D01*
X52004103Y-47571778D01*
X52090461Y-47646506D01*
X52157034Y-47711537D01*
X52207698Y-47770298D01*
X52246325Y-47826213D01*
X52259926Y-47849738D01*
X52294088Y-47918937D01*
X52313089Y-47981337D01*
X52321112Y-48055154D01*
X52322433Y-48121963D01*
X52319305Y-48219086D01*
X52306690Y-48293845D01*
X52280503Y-48365866D01*
X52264634Y-48399694D01*
X52160034Y-48566251D01*
X52021675Y-48710649D01*
X51915916Y-48789951D01*
X51853651Y-48830873D01*
X51806657Y-48862153D01*
X51784949Y-48877122D01*
X51784853Y-48877200D01*
X51790241Y-48895824D01*
X51809210Y-48918529D01*
X51818101Y-48931636D01*
X51818965Y-48949763D01*
X51809207Y-48977239D01*
X51786233Y-49018394D01*
X51747448Y-49077557D01*
X51690258Y-49159058D01*
X51612067Y-49267225D01*
X51546301Y-49357233D01*
X51462249Y-49470705D01*
X51385788Y-49571438D01*
X51320603Y-49654782D01*
X51270377Y-49716083D01*
X51238794Y-49750690D01*
X51230009Y-49756668D01*
X51206494Y-49742720D01*
X51155807Y-49708397D01*
X51084826Y-49658482D01*
X51000424Y-49597755D01*
X50977391Y-49580976D01*
X50884475Y-49513315D01*
X50821347Y-49468583D01*
X50783611Y-49444736D01*
X50766871Y-49439731D01*
X50766731Y-49451525D01*
X50778796Y-49478076D01*
X50785841Y-49491953D01*
X50854108Y-49668283D01*
X50891425Y-49861918D01*
X50896724Y-50060177D01*
X50868939Y-50250379D01*
X50854130Y-50303535D01*
X50788506Y-50461126D01*
X50695147Y-50613538D01*
X50581742Y-50751336D01*
X50455979Y-50865085D01*
X50334643Y-50941031D01*
X50280926Y-50971681D01*
X50249099Y-50998796D01*
X50244956Y-51010167D01*
X50272141Y-51036030D01*
X50327246Y-51058948D01*
X50395869Y-51075044D01*
X50463606Y-51080439D01*
X50494982Y-51077494D01*
X50592227Y-51043303D01*
X50694184Y-50981126D01*
X50786600Y-50900826D01*
X50836579Y-50841101D01*
X50914479Y-50708460D01*
X50960159Y-50570121D01*
X50977845Y-50412381D01*
X50978380Y-50381383D01*
X50980042Y-50297783D01*
X50985207Y-50248106D01*
X50995808Y-50223972D01*
X51013777Y-50217000D01*
X51016302Y-50216920D01*
X51050319Y-50214566D01*
X51117391Y-50208415D01*
X51208498Y-50199343D01*
X51314622Y-50188225D01*
X51339093Y-50185591D01*
X51445323Y-50174216D01*
X51536572Y-50164662D01*
X51604501Y-50157786D01*
X51640772Y-50154444D01*
X51643916Y-50154262D01*
X51652288Y-50173471D01*
X51655229Y-50225647D01*
X51653401Y-50301866D01*
X51647467Y-50393203D01*
X51638090Y-50490732D01*
X51625935Y-50585529D01*
X51611663Y-50668669D01*
X51602799Y-50707561D01*
X51528390Y-50921161D01*
X51422000Y-51119868D01*
X51288192Y-51299285D01*
X51131522Y-51455018D01*
X50956553Y-51582674D01*
X50767843Y-51677858D01*
X50569953Y-51736175D01*
X50528121Y-51743258D01*
X50343711Y-51750059D01*
X50158320Y-51718997D01*
X49984239Y-51652407D01*
X49948488Y-51633111D01*
X49903767Y-51604855D01*
X49829743Y-51554913D01*
X49731224Y-51486666D01*
X49613021Y-51403495D01*
X49479943Y-51308782D01*
X49336800Y-51205908D01*
X49209508Y-51113627D01*
X49066787Y-51010103D01*
X48934608Y-50914928D01*
X48816917Y-50830888D01*
X48717660Y-50760773D01*
X48640782Y-50707368D01*
X48590230Y-50673464D01*
X48570025Y-50661841D01*
X48552473Y-50677611D01*
X48516480Y-50719393D01*
X48468417Y-50778898D01*
X48414651Y-50847837D01*
X48361551Y-50917920D01*
X48315487Y-50980859D01*
X48282828Y-51028363D01*
X48269941Y-51052144D01*
X48269927Y-51052431D01*
X48286235Y-51066865D01*
X48331793Y-51102309D01*
X48401552Y-51154963D01*
X48490461Y-51221024D01*
X48593471Y-51296691D01*
X48624468Y-51319312D01*
X48793400Y-51443671D01*
X48930927Y-51548059D01*
X49040922Y-51635902D01*
X49127261Y-51710627D01*
X49193817Y-51775661D01*
X49244465Y-51834429D01*
X49283079Y-51890358D01*
X49296593Y-51913738D01*
X49330459Y-51982001D01*
X49349209Y-52042774D01*
X49356901Y-52114074D01*
X49357849Y-52185841D01*
X49353753Y-52284145D01*
X49339809Y-52360986D01*
X49311562Y-52436892D01*
X49296331Y-52469390D01*
X49216796Y-52597566D01*
X49108848Y-52721696D01*
X48985326Y-52828226D01*
X48909379Y-52877886D01*
X48848856Y-52914405D01*
X48820652Y-52938512D01*
X48819166Y-52956617D01*
X48830206Y-52968479D01*
X48857220Y-53000136D01*
X48862593Y-53015884D01*
X48850444Y-53038410D01*
X48816296Y-53090062D01*
X48763599Y-53166135D01*
X48695802Y-53261923D01*
X48616353Y-53372722D01*
X48528703Y-53493826D01*
X48436301Y-53620530D01*
X48342595Y-53748130D01*
X48251035Y-53871920D01*
X48165070Y-53987196D01*
X48088149Y-54089252D01*
X48023722Y-54173383D01*
X47975239Y-54234884D01*
X47946147Y-54269050D01*
X47939985Y-54274400D01*
X47916335Y-54300817D01*
X47898879Y-54347713D01*
X47874832Y-54409488D01*
X47828508Y-54491837D01*
X47766901Y-54584753D01*
X47697008Y-54678229D01*
X47625824Y-54762257D01*
X47569653Y-54818666D01*
X47437751Y-54921677D01*
X47306390Y-54989187D01*
X47163632Y-55026148D01*
X47043971Y-55036733D01*
X46906592Y-55035148D01*
X46806757Y-55020098D01*
X46783235Y-55012531D01*
X46626617Y-54930973D01*
X46496962Y-54818588D01*
X46397700Y-54679735D01*
X46332256Y-54518774D01*
X46310326Y-54410992D01*
X46297801Y-54316333D01*
X47019916Y-54316333D01*
X47020281Y-54351651D01*
X47024842Y-54359941D01*
X47048160Y-54381490D01*
X47074515Y-54382586D01*
X47115955Y-54361229D01*
X47149468Y-54339236D01*
X47232560Y-54266874D01*
X47297116Y-54178721D01*
X47340203Y-54083428D01*
X47358888Y-53989647D01*
X47350239Y-53906027D01*
X47316522Y-53846462D01*
X47278835Y-53811075D01*
X47252587Y-53794651D01*
X47251227Y-53794508D01*
X47236810Y-53806910D01*
X47213560Y-53846211D01*
X47179960Y-53915548D01*
X47134493Y-54018062D01*
X47075642Y-54156891D01*
X47072610Y-54164150D01*
X47036871Y-54255831D01*
X47019916Y-54316333D01*
X46297801Y-54316333D01*
X46295272Y-54297226D01*
X46228150Y-54377176D01*
X46181167Y-54426284D01*
X46147676Y-54442860D01*
X46129316Y-54438025D01*
X46085604Y-54409277D01*
X46019595Y-54362864D01*
X45937335Y-54303337D01*
X45844872Y-54235246D01*
X45748254Y-54163142D01*
X45653527Y-54091575D01*
X45566740Y-54025096D01*
X45493939Y-53968255D01*
X45441172Y-53925602D01*
X45414486Y-53901688D01*
X45412427Y-53898586D01*
X45424152Y-53876694D01*
X45455703Y-53828442D01*
X45501643Y-53761438D01*
X45511713Y-53747101D01*
X46346824Y-53747101D01*
X46363694Y-53807982D01*
X46374697Y-53822422D01*
X46408492Y-53850193D01*
X46426282Y-53858008D01*
X46441219Y-53840032D01*
X46469260Y-53791369D01*
X46506094Y-53719916D01*
X46539000Y-53651633D01*
X46589578Y-53542918D01*
X46623742Y-53466304D01*
X46643393Y-53415726D01*
X46650435Y-53385120D01*
X46646772Y-53368423D01*
X46634306Y-53359568D01*
X46631063Y-53358258D01*
X46583301Y-53360188D01*
X46523199Y-53390346D01*
X46461700Y-53441604D01*
X46414596Y-53499285D01*
X46373795Y-53580435D01*
X46350697Y-53667146D01*
X46346824Y-53747101D01*
X45511713Y-53747101D01*
X45556537Y-53683291D01*
X45614948Y-53601611D01*
X45671439Y-53524007D01*
X45720575Y-53458087D01*
X45756918Y-53411460D01*
X45774118Y-53392341D01*
X45789969Y-53369327D01*
X45818299Y-53319079D01*
X45853019Y-53252405D01*
X45853527Y-53251396D01*
X45945046Y-53103961D01*
X46061568Y-52969292D01*
X46192774Y-52857999D01*
X46297623Y-52794758D01*
X46371110Y-52760659D01*
X46431791Y-52740015D01*
X46495497Y-52729522D01*
X46578056Y-52725878D01*
X46629065Y-52725591D01*
X46777984Y-52734848D01*
X46900265Y-52765839D01*
X47008082Y-52823392D01*
X47113608Y-52912334D01*
X47122775Y-52921409D01*
X47218385Y-53040727D01*
X47280721Y-53177128D01*
X47313393Y-53338631D01*
X47314253Y-53346911D01*
X47328323Y-53487591D01*
X47422291Y-53355300D01*
X47470049Y-53292149D01*
X47510935Y-53245394D01*
X47537313Y-53223614D01*
X47540021Y-53223008D01*
X47568082Y-53234910D01*
X47618373Y-53266045D01*
X47677260Y-53307675D01*
X47736600Y-53350574D01*
X47782249Y-53381034D01*
X47804008Y-53392341D01*
X47822488Y-53376434D01*
X47854809Y-53336797D01*
X47892309Y-53285555D01*
X47926323Y-53234834D01*
X47948189Y-53196759D01*
X47951895Y-53185347D01*
X47935227Y-53169923D01*
X47887950Y-53132520D01*
X47813785Y-53075929D01*
X47716457Y-53002937D01*
X47599688Y-52916333D01*
X47467200Y-52818906D01*
X47322717Y-52713444D01*
X47295748Y-52693841D01*
X47149784Y-52587099D01*
X47015546Y-52487557D01*
X46896702Y-52398039D01*
X46796921Y-52321371D01*
X46719869Y-52260377D01*
X46669217Y-52217881D01*
X46648631Y-52196709D01*
X46648407Y-52195366D01*
X46664827Y-52167455D01*
X46701605Y-52113418D01*
X46754487Y-52038950D01*
X46819215Y-51949746D01*
X46891536Y-51851502D01*
X46967192Y-51749914D01*
X47041928Y-51650675D01*
X47111488Y-51559482D01*
X47171617Y-51482030D01*
X47218058Y-51424014D01*
X47246557Y-51391129D01*
X47253317Y-51385845D01*
X47282573Y-51403080D01*
X47335475Y-51439172D01*
X47404536Y-51488527D01*
X47482264Y-51545548D01*
X47561170Y-51604641D01*
X47633766Y-51660210D01*
X47692562Y-51706661D01*
X47730068Y-51738397D01*
X47739726Y-51749237D01*
X47728693Y-51774165D01*
X47698544Y-51823446D01*
X47655301Y-51887368D01*
X47645409Y-51901338D01*
X47550058Y-52034960D01*
X47901405Y-52292431D01*
X48252751Y-52549902D01*
X48346540Y-52514083D01*
X48462041Y-52461298D01*
X48555371Y-52401455D01*
X48622595Y-52338800D01*
X48659776Y-52277575D01*
X48662980Y-52222024D01*
X48645591Y-52191640D01*
X48621020Y-52170799D01*
X48566226Y-52128211D01*
X48485298Y-52066927D01*
X48382320Y-51990000D01*
X48261380Y-51900485D01*
X48126563Y-51801433D01*
X47986047Y-51698874D01*
X47843354Y-51594633D01*
X47712075Y-51497908D01*
X47596019Y-51411570D01*
X47498998Y-51338490D01*
X47424822Y-51281538D01*
X47377301Y-51243585D01*
X47360247Y-51227502D01*
X47360243Y-51227450D01*
X47372141Y-51207647D01*
X47405947Y-51158051D01*
X47458521Y-51082997D01*
X47526724Y-50986822D01*
X47607417Y-50873862D01*
X47697461Y-50748451D01*
X47793717Y-50614927D01*
X47893044Y-50477624D01*
X47992305Y-50340879D01*
X48088361Y-50209027D01*
X48178071Y-50086405D01*
X48258297Y-49977348D01*
X48260835Y-49973925D01*
G36*
X45376917Y-53978327D02*
G01*
X45414811Y-54003464D01*
X45474254Y-54045341D01*
X45547454Y-54098196D01*
X45626622Y-54156268D01*
X45703965Y-54213796D01*
X45771695Y-54265016D01*
X45822019Y-54304169D01*
X45847148Y-54325493D01*
X45848408Y-54327016D01*
X45843356Y-54353044D01*
X45818203Y-54400843D01*
X45788715Y-54445320D01*
X45717328Y-54544703D01*
X46120502Y-54839524D01*
X46284463Y-54959981D01*
X46417587Y-55059363D01*
X46523653Y-55140967D01*
X46606441Y-55208087D01*
X46669728Y-55264020D01*
X46717293Y-55312059D01*
X46752916Y-55355502D01*
X46780376Y-55397642D01*
X46797777Y-55430158D01*
X46844193Y-55563794D01*
X46850573Y-55699955D01*
X46816582Y-55840782D01*
X46741883Y-55988418D01*
X46700315Y-56050157D01*
X46643602Y-56115958D01*
X46565410Y-56190408D01*
X46480598Y-56260441D01*
X46404025Y-56312991D01*
X46396677Y-56317179D01*
X46373039Y-56309449D01*
X46322138Y-56280307D01*
X46250479Y-56233866D01*
X46164571Y-56174241D01*
X46122348Y-56143730D01*
X46032901Y-56077395D01*
X45956505Y-56019024D01*
X45899343Y-55973477D01*
X45867598Y-55945610D01*
X45863257Y-55940147D01*
X45876735Y-55920497D01*
X45917776Y-55886117D01*
X45977727Y-55844197D01*
X45982304Y-55841233D01*
X46046444Y-55796857D01*
X46095356Y-55757339D01*
X46118636Y-55731101D01*
X46118767Y-55730772D01*
X46119592Y-55716019D01*
X46109519Y-55696616D01*
X46085134Y-55669710D01*
X46043022Y-55632445D01*
X45979766Y-55581970D01*
X45891952Y-55515429D01*
X45776164Y-55429969D01*
X45640109Y-55330813D01*
X45539679Y-55259312D01*
X45450410Y-55198476D01*
X45378072Y-55152017D01*
X45328432Y-55123647D01*
X45307574Y-55116818D01*
X45286050Y-55139408D01*
X45248455Y-55187111D01*
X45202541Y-55250046D01*
X45197931Y-55256595D01*
X45151063Y-55317442D01*
X45110673Y-55359222D01*
X45084473Y-55374098D01*
X45082679Y-55373715D01*
X45056032Y-55357863D01*
X45004205Y-55322883D01*
X44935089Y-55274487D01*
X44856574Y-55218384D01*
X44776552Y-55160286D01*
X44702912Y-55105902D01*
X44643544Y-55060943D01*
X44606340Y-55031120D01*
X44597975Y-55022927D01*
X44605400Y-55000262D01*
X44633138Y-54952712D01*
X44675874Y-54889087D01*
X44693800Y-54864090D01*
X44798788Y-54720080D01*
X44676982Y-54630680D01*
X44609009Y-54580804D01*
X44519643Y-54515250D01*
X44421633Y-54443367D01*
X44346466Y-54388247D01*
X44268143Y-54328565D01*
X44206263Y-54277047D01*
X44166748Y-54238954D01*
X44155523Y-54219550D01*
X44155966Y-54219014D01*
X44181206Y-54210347D01*
X44240252Y-54195597D01*
X44325274Y-54176348D01*
X44428444Y-54154187D01*
X44541935Y-54130699D01*
X44657918Y-54107471D01*
X44768565Y-54086088D01*
X44866048Y-54068136D01*
X44942540Y-54055201D01*
X44990212Y-54048870D01*
X44997679Y-54048495D01*
X45039696Y-54060852D01*
X45093683Y-54091514D01*
X45107391Y-54101425D01*
X45155270Y-54134700D01*
X45189970Y-54153074D01*
X45195759Y-54154341D01*
X45217609Y-54138467D01*
X45253883Y-54097561D01*
X45283371Y-54058789D01*
X45329556Y-54002967D01*
X45364618Y-53977707D01*
X45376917Y-53978327D01*
G37*
X45376917Y-53978327D02*
X45414811Y-54003464D01*
X45474254Y-54045341D01*
X45547454Y-54098196D01*
X45626622Y-54156268D01*
X45703965Y-54213796D01*
X45771695Y-54265016D01*
X45822019Y-54304169D01*
X45847148Y-54325493D01*
X45848408Y-54327016D01*
X45843356Y-54353044D01*
X45818203Y-54400843D01*
X45788715Y-54445320D01*
X45717328Y-54544703D01*
X46120502Y-54839524D01*
X46284463Y-54959981D01*
X46417587Y-55059363D01*
X46523653Y-55140967D01*
X46606441Y-55208087D01*
X46669728Y-55264020D01*
X46717293Y-55312059D01*
X46752916Y-55355502D01*
X46780376Y-55397642D01*
X46797777Y-55430158D01*
X46844193Y-55563794D01*
X46850573Y-55699955D01*
X46816582Y-55840782D01*
X46741883Y-55988418D01*
X46700315Y-56050157D01*
X46643602Y-56115958D01*
X46565410Y-56190408D01*
X46480598Y-56260441D01*
X46404025Y-56312991D01*
X46396677Y-56317179D01*
X46373039Y-56309449D01*
X46322138Y-56280307D01*
X46250479Y-56233866D01*
X46164571Y-56174241D01*
X46122348Y-56143730D01*
X46032901Y-56077395D01*
X45956505Y-56019024D01*
X45899343Y-55973477D01*
X45867598Y-55945610D01*
X45863257Y-55940147D01*
X45876735Y-55920497D01*
X45917776Y-55886117D01*
X45977727Y-55844197D01*
X45982304Y-55841233D01*
X46046444Y-55796857D01*
X46095356Y-55757339D01*
X46118636Y-55731101D01*
X46118767Y-55730772D01*
X46119592Y-55716019D01*
X46109519Y-55696616D01*
X46085134Y-55669710D01*
X46043022Y-55632445D01*
X45979766Y-55581970D01*
X45891952Y-55515429D01*
X45776164Y-55429969D01*
X45640109Y-55330813D01*
X45539679Y-55259312D01*
X45450410Y-55198476D01*
X45378072Y-55152017D01*
X45328432Y-55123647D01*
X45307574Y-55116818D01*
X45286050Y-55139408D01*
X45248455Y-55187111D01*
X45202541Y-55250046D01*
X45197931Y-55256595D01*
X45151063Y-55317442D01*
X45110673Y-55359222D01*
X45084473Y-55374098D01*
X45082679Y-55373715D01*
X45056032Y-55357863D01*
X45004205Y-55322883D01*
X44935089Y-55274487D01*
X44856574Y-55218384D01*
X44776552Y-55160286D01*
X44702912Y-55105902D01*
X44643544Y-55060943D01*
X44606340Y-55031120D01*
X44597975Y-55022927D01*
X44605400Y-55000262D01*
X44633138Y-54952712D01*
X44675874Y-54889087D01*
X44693800Y-54864090D01*
X44798788Y-54720080D01*
X44676982Y-54630680D01*
X44609009Y-54580804D01*
X44519643Y-54515250D01*
X44421633Y-54443367D01*
X44346466Y-54388247D01*
X44268143Y-54328565D01*
X44206263Y-54277047D01*
X44166748Y-54238954D01*
X44155523Y-54219550D01*
X44155966Y-54219014D01*
X44181206Y-54210347D01*
X44240252Y-54195597D01*
X44325274Y-54176348D01*
X44428444Y-54154187D01*
X44541935Y-54130699D01*
X44657918Y-54107471D01*
X44768565Y-54086088D01*
X44866048Y-54068136D01*
X44942540Y-54055201D01*
X44990212Y-54048870D01*
X44997679Y-54048495D01*
X45039696Y-54060852D01*
X45093683Y-54091514D01*
X45107391Y-54101425D01*
X45155270Y-54134700D01*
X45189970Y-54153074D01*
X45195759Y-54154341D01*
X45217609Y-54138467D01*
X45253883Y-54097561D01*
X45283371Y-54058789D01*
X45329556Y-54002967D01*
X45364618Y-53977707D01*
X45376917Y-53978327D01*
G36*
X43586336Y-55823679D02*
G01*
X43786532Y-55894653D01*
X43819301Y-55910034D01*
X43899534Y-55952594D01*
X43987167Y-56004906D01*
X44074996Y-56061902D01*
X44155821Y-56118514D01*
X44222440Y-56169675D01*
X44267649Y-56210319D01*
X44284249Y-56235376D01*
X44284006Y-56237005D01*
X44268857Y-56263689D01*
X44234501Y-56315226D01*
X44186284Y-56384289D01*
X44129555Y-56463553D01*
X44069663Y-56545692D01*
X44011954Y-56623378D01*
X43961778Y-56689287D01*
X43924482Y-56736092D01*
X43905415Y-56756467D01*
X43904565Y-56756791D01*
X43882219Y-56745313D01*
X43833739Y-56713413D01*
X43766719Y-56666257D01*
X43703481Y-56619998D01*
X43567486Y-56526032D01*
X43453270Y-56464897D01*
X43355904Y-56436578D01*
X43270459Y-56441062D01*
X43192006Y-56478335D01*
X43115617Y-56548382D01*
X43059828Y-56618142D01*
X43009682Y-56717432D01*
X42999461Y-56818132D01*
X43027387Y-56914360D01*
X43091683Y-57000237D01*
X43190572Y-57069881D01*
X43197370Y-57073317D01*
X43258191Y-57101093D01*
X43306368Y-57113126D01*
X43360434Y-57111551D01*
X43430173Y-57100129D01*
X43500504Y-57084669D01*
X43598784Y-57059799D01*
X43712578Y-57028808D01*
X43829451Y-56994985D01*
X43842377Y-56991107D01*
X44106920Y-56917115D01*
X44341063Y-56864693D01*
X44550719Y-56833649D01*
X44741797Y-56823787D01*
X44920209Y-56834914D01*
X45091864Y-56866836D01*
X45262674Y-56919357D01*
X45323029Y-56942441D01*
X45393522Y-56974627D01*
X45477848Y-57019007D01*
X45566735Y-57069956D01*
X45650908Y-57121848D01*
X45721096Y-57169057D01*
X45768025Y-57205958D01*
X45780754Y-57220127D01*
X45770916Y-57240115D01*
X45738862Y-57290194D01*
X45687472Y-57366361D01*
X45619625Y-57464616D01*
X45538200Y-57580956D01*
X45446077Y-57711380D01*
X45346136Y-57851884D01*
X45241257Y-57998468D01*
X45134318Y-58147130D01*
X45028199Y-58293867D01*
X44925780Y-58434677D01*
X44829940Y-58565560D01*
X44743559Y-58682512D01*
X44669517Y-58781532D01*
X44610692Y-58858618D01*
X44569965Y-58909768D01*
X44550215Y-58930980D01*
X44549501Y-58931301D01*
X44528865Y-58920656D01*
X44477973Y-58888664D01*
X44401239Y-58838269D01*
X44303075Y-58772413D01*
X44187897Y-58694042D01*
X44060118Y-58606098D01*
X44015427Y-58575123D01*
X43884563Y-58483798D01*
X43765361Y-58399719D01*
X43662178Y-58326030D01*
X43579373Y-58265876D01*
X43521302Y-58222403D01*
X43492323Y-58198755D01*
X43489893Y-58195853D01*
X43499368Y-58173702D01*
X43528915Y-58125311D01*
X43573166Y-58058276D01*
X43626754Y-57980193D01*
X43684309Y-57898658D01*
X43740465Y-57821266D01*
X43789851Y-57755614D01*
X43827101Y-57709298D01*
X43846846Y-57689914D01*
X43847562Y-57689750D01*
X43868265Y-57700998D01*
X43917261Y-57732361D01*
X43988194Y-57779636D01*
X44074707Y-57838619D01*
X44120078Y-57869978D01*
X44211183Y-57932577D01*
X44289176Y-57984942D01*
X44347897Y-58023038D01*
X44381191Y-58042825D01*
X44386367Y-58044603D01*
X44400169Y-58026335D01*
X44434755Y-57979593D01*
X44485928Y-57910078D01*
X44549490Y-57823491D01*
X44605250Y-57747383D01*
X44818306Y-57456341D01*
X44679213Y-57456341D01*
X44609300Y-57458495D01*
X44537670Y-57466007D01*
X44457302Y-57480455D01*
X44361175Y-57503416D01*
X44242267Y-57536465D01*
X44093556Y-57581181D01*
X44015427Y-57605409D01*
X43800791Y-57669827D01*
X43619187Y-57718052D01*
X43464829Y-57750780D01*
X43331930Y-57768711D01*
X43214704Y-57772542D01*
X43107367Y-57762972D01*
X43004131Y-57740697D01*
X42971927Y-57731282D01*
X42856833Y-57683733D01*
X42736946Y-57614212D01*
X42626685Y-57532431D01*
X42540465Y-57448103D01*
X42527378Y-57431791D01*
X42425142Y-57265299D01*
X42360192Y-57086426D01*
X42334003Y-56901290D01*
X42348052Y-56716007D01*
X42351062Y-56700862D01*
X42416577Y-56489949D01*
X42522508Y-56290869D01*
X42668393Y-56104456D01*
X42702638Y-56068446D01*
X42855101Y-55940767D01*
X43022294Y-55852083D01*
X43201626Y-55802762D01*
X43390503Y-55793171D01*
X43586336Y-55823679D01*
G37*
X43586336Y-55823679D02*
X43786532Y-55894653D01*
X43819301Y-55910034D01*
X43899534Y-55952594D01*
X43987167Y-56004906D01*
X44074996Y-56061902D01*
X44155821Y-56118514D01*
X44222440Y-56169675D01*
X44267649Y-56210319D01*
X44284249Y-56235376D01*
X44284006Y-56237005D01*
X44268857Y-56263689D01*
X44234501Y-56315226D01*
X44186284Y-56384289D01*
X44129555Y-56463553D01*
X44069663Y-56545692D01*
X44011954Y-56623378D01*
X43961778Y-56689287D01*
X43924482Y-56736092D01*
X43905415Y-56756467D01*
X43904565Y-56756791D01*
X43882219Y-56745313D01*
X43833739Y-56713413D01*
X43766719Y-56666257D01*
X43703481Y-56619998D01*
X43567486Y-56526032D01*
X43453270Y-56464897D01*
X43355904Y-56436578D01*
X43270459Y-56441062D01*
X43192006Y-56478335D01*
X43115617Y-56548382D01*
X43059828Y-56618142D01*
X43009682Y-56717432D01*
X42999461Y-56818132D01*
X43027387Y-56914360D01*
X43091683Y-57000237D01*
X43190572Y-57069881D01*
X43197370Y-57073317D01*
X43258191Y-57101093D01*
X43306368Y-57113126D01*
X43360434Y-57111551D01*
X43430173Y-57100129D01*
X43500504Y-57084669D01*
X43598784Y-57059799D01*
X43712578Y-57028808D01*
X43829451Y-56994985D01*
X43842377Y-56991107D01*
X44106920Y-56917115D01*
X44341063Y-56864693D01*
X44550719Y-56833649D01*
X44741797Y-56823787D01*
X44920209Y-56834914D01*
X45091864Y-56866836D01*
X45262674Y-56919357D01*
X45323029Y-56942441D01*
X45393522Y-56974627D01*
X45477848Y-57019007D01*
X45566735Y-57069956D01*
X45650908Y-57121848D01*
X45721096Y-57169057D01*
X45768025Y-57205958D01*
X45780754Y-57220127D01*
X45770916Y-57240115D01*
X45738862Y-57290194D01*
X45687472Y-57366361D01*
X45619625Y-57464616D01*
X45538200Y-57580956D01*
X45446077Y-57711380D01*
X45346136Y-57851884D01*
X45241257Y-57998468D01*
X45134318Y-58147130D01*
X45028199Y-58293867D01*
X44925780Y-58434677D01*
X44829940Y-58565560D01*
X44743559Y-58682512D01*
X44669517Y-58781532D01*
X44610692Y-58858618D01*
X44569965Y-58909768D01*
X44550215Y-58930980D01*
X44549501Y-58931301D01*
X44528865Y-58920656D01*
X44477973Y-58888664D01*
X44401239Y-58838269D01*
X44303075Y-58772413D01*
X44187897Y-58694042D01*
X44060118Y-58606098D01*
X44015427Y-58575123D01*
X43884563Y-58483798D01*
X43765361Y-58399719D01*
X43662178Y-58326030D01*
X43579373Y-58265876D01*
X43521302Y-58222403D01*
X43492323Y-58198755D01*
X43489893Y-58195853D01*
X43499368Y-58173702D01*
X43528915Y-58125311D01*
X43573166Y-58058276D01*
X43626754Y-57980193D01*
X43684309Y-57898658D01*
X43740465Y-57821266D01*
X43789851Y-57755614D01*
X43827101Y-57709298D01*
X43846846Y-57689914D01*
X43847562Y-57689750D01*
X43868265Y-57700998D01*
X43917261Y-57732361D01*
X43988194Y-57779636D01*
X44074707Y-57838619D01*
X44120078Y-57869978D01*
X44211183Y-57932577D01*
X44289176Y-57984942D01*
X44347897Y-58023038D01*
X44381191Y-58042825D01*
X44386367Y-58044603D01*
X44400169Y-58026335D01*
X44434755Y-57979593D01*
X44485928Y-57910078D01*
X44549490Y-57823491D01*
X44605250Y-57747383D01*
X44818306Y-57456341D01*
X44679213Y-57456341D01*
X44609300Y-57458495D01*
X44537670Y-57466007D01*
X44457302Y-57480455D01*
X44361175Y-57503416D01*
X44242267Y-57536465D01*
X44093556Y-57581181D01*
X44015427Y-57605409D01*
X43800791Y-57669827D01*
X43619187Y-57718052D01*
X43464829Y-57750780D01*
X43331930Y-57768711D01*
X43214704Y-57772542D01*
X43107367Y-57762972D01*
X43004131Y-57740697D01*
X42971927Y-57731282D01*
X42856833Y-57683733D01*
X42736946Y-57614212D01*
X42626685Y-57532431D01*
X42540465Y-57448103D01*
X42527378Y-57431791D01*
X42425142Y-57265299D01*
X42360192Y-57086426D01*
X42334003Y-56901290D01*
X42348052Y-56716007D01*
X42351062Y-56700862D01*
X42416577Y-56489949D01*
X42522508Y-56290869D01*
X42668393Y-56104456D01*
X42702638Y-56068446D01*
X42855101Y-55940767D01*
X43022294Y-55852083D01*
X43201626Y-55802762D01*
X43390503Y-55793171D01*
X43586336Y-55823679D01*
G36*
X41000512Y-58632915D02*
G01*
X41645117Y-58632915D01*
X41653666Y-58742767D01*
X41685574Y-58829197D01*
X41754328Y-58935977D01*
X41855320Y-59054691D01*
X41982178Y-59179918D01*
X42128525Y-59306239D01*
X42287989Y-59428235D01*
X42454194Y-59540485D01*
X42620767Y-59637570D01*
X42660760Y-59658351D01*
X42811935Y-59727702D01*
X42938465Y-59768795D01*
X43046368Y-59782558D01*
X43141663Y-59769919D01*
X43209803Y-59742999D01*
X43299707Y-59675798D01*
X43357040Y-59586247D01*
X43380439Y-59480605D01*
X43368538Y-59365127D01*
X43319975Y-59246071D01*
X43318660Y-59243766D01*
X43242748Y-59136222D01*
X43135968Y-59019762D01*
X43005048Y-58899067D01*
X42856718Y-58778818D01*
X42697707Y-58663695D01*
X42534746Y-58558378D01*
X42374563Y-58467548D01*
X42223888Y-58395885D01*
X42089450Y-58348070D01*
X42006308Y-58331015D01*
X41894442Y-58336311D01*
X41798120Y-58375780D01*
X41721613Y-58442791D01*
X41669189Y-58530713D01*
X41645117Y-58632915D01*
X41000512Y-58632915D01*
X41023815Y-58464319D01*
X41090585Y-58279938D01*
X41197919Y-58103802D01*
X41288881Y-57995232D01*
X41442426Y-57860410D01*
X41615096Y-57762781D01*
X41805159Y-57702699D01*
X42010885Y-57680519D01*
X42230543Y-57696593D01*
X42462401Y-57751276D01*
X42470260Y-57753749D01*
X42676947Y-57834608D01*
X42891676Y-57946237D01*
X43106182Y-58082423D01*
X43312201Y-58236952D01*
X43501469Y-58403610D01*
X43665721Y-58576183D01*
X43796694Y-58748456D01*
X43800120Y-58753704D01*
X43916850Y-58963458D01*
X43992180Y-59168728D01*
X44026173Y-59368553D01*
X44018890Y-59561969D01*
X43970395Y-59748013D01*
X43880749Y-59925721D01*
X43750016Y-60094132D01*
X43710463Y-60135124D01*
X43590650Y-60242993D01*
X43474726Y-60320197D01*
X43348730Y-60374462D01*
X43212562Y-60410629D01*
X43114438Y-60428559D01*
X43027971Y-60436127D01*
X42936868Y-60433562D01*
X42824837Y-60421093D01*
X42792221Y-60416536D01*
X42589212Y-60370205D01*
X42373703Y-60289387D01*
X42151798Y-60177617D01*
X41929608Y-60038432D01*
X41713239Y-59875368D01*
X41508799Y-59691961D01*
X41464843Y-59648023D01*
X41292052Y-59450070D01*
X41158733Y-59250105D01*
X41065068Y-59049838D01*
X41011238Y-58850978D01*
X40997427Y-58655235D01*
X41000512Y-58632915D01*
G37*
X41000512Y-58632915D02*
X41645117Y-58632915D01*
X41653666Y-58742767D01*
X41685574Y-58829197D01*
X41754328Y-58935977D01*
X41855320Y-59054691D01*
X41982178Y-59179918D01*
X42128525Y-59306239D01*
X42287989Y-59428235D01*
X42454194Y-59540485D01*
X42620767Y-59637570D01*
X42660760Y-59658351D01*
X42811935Y-59727702D01*
X42938465Y-59768795D01*
X43046368Y-59782558D01*
X43141663Y-59769919D01*
X43209803Y-59742999D01*
X43299707Y-59675798D01*
X43357040Y-59586247D01*
X43380439Y-59480605D01*
X43368538Y-59365127D01*
X43319975Y-59246071D01*
X43318660Y-59243766D01*
X43242748Y-59136222D01*
X43135968Y-59019762D01*
X43005048Y-58899067D01*
X42856718Y-58778818D01*
X42697707Y-58663695D01*
X42534746Y-58558378D01*
X42374563Y-58467548D01*
X42223888Y-58395885D01*
X42089450Y-58348070D01*
X42006308Y-58331015D01*
X41894442Y-58336311D01*
X41798120Y-58375780D01*
X41721613Y-58442791D01*
X41669189Y-58530713D01*
X41645117Y-58632915D01*
X41000512Y-58632915D01*
X41023815Y-58464319D01*
X41090585Y-58279938D01*
X41197919Y-58103802D01*
X41288881Y-57995232D01*
X41442426Y-57860410D01*
X41615096Y-57762781D01*
X41805159Y-57702699D01*
X42010885Y-57680519D01*
X42230543Y-57696593D01*
X42462401Y-57751276D01*
X42470260Y-57753749D01*
X42676947Y-57834608D01*
X42891676Y-57946237D01*
X43106182Y-58082423D01*
X43312201Y-58236952D01*
X43501469Y-58403610D01*
X43665721Y-58576183D01*
X43796694Y-58748456D01*
X43800120Y-58753704D01*
X43916850Y-58963458D01*
X43992180Y-59168728D01*
X44026173Y-59368553D01*
X44018890Y-59561969D01*
X43970395Y-59748013D01*
X43880749Y-59925721D01*
X43750016Y-60094132D01*
X43710463Y-60135124D01*
X43590650Y-60242993D01*
X43474726Y-60320197D01*
X43348730Y-60374462D01*
X43212562Y-60410629D01*
X43114438Y-60428559D01*
X43027971Y-60436127D01*
X42936868Y-60433562D01*
X42824837Y-60421093D01*
X42792221Y-60416536D01*
X42589212Y-60370205D01*
X42373703Y-60289387D01*
X42151798Y-60177617D01*
X41929608Y-60038432D01*
X41713239Y-59875368D01*
X41508799Y-59691961D01*
X41464843Y-59648023D01*
X41292052Y-59450070D01*
X41158733Y-59250105D01*
X41065068Y-59049838D01*
X41011238Y-58850978D01*
X40997427Y-58655235D01*
X41000512Y-58632915D01*
G36*
X40838241Y-59520406D02*
G01*
X41044357Y-59585595D01*
X41158849Y-59637553D01*
X41220893Y-59672093D01*
X41295818Y-59718984D01*
X41375545Y-59772478D01*
X41452000Y-59826826D01*
X41517105Y-59876279D01*
X41562783Y-59915088D01*
X41580957Y-59937506D01*
X41580998Y-59938016D01*
X41569237Y-59961531D01*
X41537256Y-60010698D01*
X41490421Y-60078225D01*
X41434099Y-60156823D01*
X41373657Y-60239198D01*
X41314460Y-60318062D01*
X41261876Y-60386122D01*
X41221269Y-60436087D01*
X41198008Y-60460667D01*
X41195329Y-60462008D01*
X41171583Y-60450101D01*
X41122879Y-60418240D01*
X41057864Y-60372214D01*
X41024966Y-60347958D01*
X40881169Y-60248001D01*
X40759523Y-60181259D01*
X40656051Y-60147641D01*
X40566774Y-60147053D01*
X40487715Y-60179404D01*
X40414894Y-60244602D01*
X40350719Y-60332366D01*
X40302301Y-60440762D01*
X40295073Y-60544529D01*
X40327898Y-60639791D01*
X40399638Y-60722672D01*
X40480764Y-60775657D01*
X40528531Y-60797083D01*
X40577492Y-60810175D01*
X40633536Y-60814226D01*
X40702554Y-60808528D01*
X40790436Y-60792371D01*
X40903071Y-60765048D01*
X41046350Y-60725850D01*
X41156017Y-60694445D01*
X41394606Y-60628819D01*
X41601039Y-60580125D01*
X41781698Y-60547769D01*
X41942965Y-60531160D01*
X42091219Y-60529705D01*
X42232842Y-60542811D01*
X42374214Y-60569886D01*
X42407961Y-60578178D01*
X42496810Y-60606101D01*
X42598549Y-60646481D01*
X42706071Y-60695476D01*
X42812269Y-60749240D01*
X42910037Y-60803930D01*
X42992268Y-60855702D01*
X43051855Y-60900710D01*
X43081692Y-60935112D01*
X43083796Y-60943755D01*
X43071637Y-60964284D01*
X43037268Y-61014611D01*
X42983606Y-61090758D01*
X42913568Y-61188747D01*
X42830069Y-61304602D01*
X42736027Y-61434345D01*
X42634358Y-61573998D01*
X42527979Y-61719585D01*
X42419806Y-61867128D01*
X42312756Y-62012650D01*
X42209745Y-62152173D01*
X42113691Y-62281720D01*
X42027509Y-62397314D01*
X41954117Y-62494978D01*
X41896430Y-62570734D01*
X41857366Y-62620604D01*
X41839842Y-62640612D01*
X41839331Y-62640818D01*
X41818885Y-62628855D01*
X41768130Y-62595665D01*
X41691482Y-62544238D01*
X41593354Y-62477563D01*
X41478162Y-62398628D01*
X41350320Y-62310424D01*
X41306093Y-62279781D01*
X41175297Y-62188663D01*
X41056218Y-62104940D01*
X40953202Y-62031730D01*
X40870595Y-61972148D01*
X40812740Y-61929310D01*
X40783985Y-61906334D01*
X40781624Y-61903648D01*
X40791429Y-61882484D01*
X40821158Y-61835072D01*
X40865400Y-61769077D01*
X40918745Y-61692166D01*
X40975783Y-61612003D01*
X41031101Y-61536257D01*
X41079290Y-61472591D01*
X41114939Y-61428674D01*
X41123334Y-61419507D01*
X41140253Y-61413372D01*
X41170168Y-61421489D01*
X41218040Y-61446529D01*
X41288832Y-61491160D01*
X41387505Y-61558053D01*
X41410740Y-61574142D01*
X41505058Y-61637659D01*
X41586096Y-61688499D01*
X41647766Y-61723109D01*
X41683983Y-61737938D01*
X41690303Y-61737265D01*
X41708457Y-61714611D01*
X41746733Y-61663909D01*
X41800468Y-61591431D01*
X41865000Y-61503449D01*
X41907529Y-61445047D01*
X42106493Y-61171091D01*
X41997335Y-61164073D01*
X41935910Y-61162695D01*
X41870364Y-61167380D01*
X41794340Y-61179497D01*
X41701477Y-61200416D01*
X41585418Y-61231507D01*
X41439803Y-61274139D01*
X41327032Y-61308461D01*
X41142184Y-61364153D01*
X40990387Y-61406940D01*
X40864823Y-61438160D01*
X40758676Y-61459153D01*
X40665130Y-61471256D01*
X40577370Y-61475806D01*
X40488578Y-61474143D01*
X40484167Y-61473929D01*
X40297309Y-61446798D01*
X40128962Y-61383476D01*
X39973944Y-61281661D01*
X39897727Y-61213570D01*
X39777183Y-61071406D01*
X39695055Y-60915758D01*
X39648943Y-60741216D01*
X39637692Y-60627916D01*
X39642763Y-60447118D01*
X39678404Y-60280529D01*
X39747787Y-60117330D01*
X39825106Y-59988805D01*
X39965113Y-59809001D01*
X40117255Y-59669735D01*
X40281086Y-59571125D01*
X40456158Y-59513288D01*
X40642025Y-59496343D01*
X40838241Y-59520406D01*
G37*
X40838241Y-59520406D02*
X41044357Y-59585595D01*
X41158849Y-59637553D01*
X41220893Y-59672093D01*
X41295818Y-59718984D01*
X41375545Y-59772478D01*
X41452000Y-59826826D01*
X41517105Y-59876279D01*
X41562783Y-59915088D01*
X41580957Y-59937506D01*
X41580998Y-59938016D01*
X41569237Y-59961531D01*
X41537256Y-60010698D01*
X41490421Y-60078225D01*
X41434099Y-60156823D01*
X41373657Y-60239198D01*
X41314460Y-60318062D01*
X41261876Y-60386122D01*
X41221269Y-60436087D01*
X41198008Y-60460667D01*
X41195329Y-60462008D01*
X41171583Y-60450101D01*
X41122879Y-60418240D01*
X41057864Y-60372214D01*
X41024966Y-60347958D01*
X40881169Y-60248001D01*
X40759523Y-60181259D01*
X40656051Y-60147641D01*
X40566774Y-60147053D01*
X40487715Y-60179404D01*
X40414894Y-60244602D01*
X40350719Y-60332366D01*
X40302301Y-60440762D01*
X40295073Y-60544529D01*
X40327898Y-60639791D01*
X40399638Y-60722672D01*
X40480764Y-60775657D01*
X40528531Y-60797083D01*
X40577492Y-60810175D01*
X40633536Y-60814226D01*
X40702554Y-60808528D01*
X40790436Y-60792371D01*
X40903071Y-60765048D01*
X41046350Y-60725850D01*
X41156017Y-60694445D01*
X41394606Y-60628819D01*
X41601039Y-60580125D01*
X41781698Y-60547769D01*
X41942965Y-60531160D01*
X42091219Y-60529705D01*
X42232842Y-60542811D01*
X42374214Y-60569886D01*
X42407961Y-60578178D01*
X42496810Y-60606101D01*
X42598549Y-60646481D01*
X42706071Y-60695476D01*
X42812269Y-60749240D01*
X42910037Y-60803930D01*
X42992268Y-60855702D01*
X43051855Y-60900710D01*
X43081692Y-60935112D01*
X43083796Y-60943755D01*
X43071637Y-60964284D01*
X43037268Y-61014611D01*
X42983606Y-61090758D01*
X42913568Y-61188747D01*
X42830069Y-61304602D01*
X42736027Y-61434345D01*
X42634358Y-61573998D01*
X42527979Y-61719585D01*
X42419806Y-61867128D01*
X42312756Y-62012650D01*
X42209745Y-62152173D01*
X42113691Y-62281720D01*
X42027509Y-62397314D01*
X41954117Y-62494978D01*
X41896430Y-62570734D01*
X41857366Y-62620604D01*
X41839842Y-62640612D01*
X41839331Y-62640818D01*
X41818885Y-62628855D01*
X41768130Y-62595665D01*
X41691482Y-62544238D01*
X41593354Y-62477563D01*
X41478162Y-62398628D01*
X41350320Y-62310424D01*
X41306093Y-62279781D01*
X41175297Y-62188663D01*
X41056218Y-62104940D01*
X40953202Y-62031730D01*
X40870595Y-61972148D01*
X40812740Y-61929310D01*
X40783985Y-61906334D01*
X40781624Y-61903648D01*
X40791429Y-61882484D01*
X40821158Y-61835072D01*
X40865400Y-61769077D01*
X40918745Y-61692166D01*
X40975783Y-61612003D01*
X41031101Y-61536257D01*
X41079290Y-61472591D01*
X41114939Y-61428674D01*
X41123334Y-61419507D01*
X41140253Y-61413372D01*
X41170168Y-61421489D01*
X41218040Y-61446529D01*
X41288832Y-61491160D01*
X41387505Y-61558053D01*
X41410740Y-61574142D01*
X41505058Y-61637659D01*
X41586096Y-61688499D01*
X41647766Y-61723109D01*
X41683983Y-61737938D01*
X41690303Y-61737265D01*
X41708457Y-61714611D01*
X41746733Y-61663909D01*
X41800468Y-61591431D01*
X41865000Y-61503449D01*
X41907529Y-61445047D01*
X42106493Y-61171091D01*
X41997335Y-61164073D01*
X41935910Y-61162695D01*
X41870364Y-61167380D01*
X41794340Y-61179497D01*
X41701477Y-61200416D01*
X41585418Y-61231507D01*
X41439803Y-61274139D01*
X41327032Y-61308461D01*
X41142184Y-61364153D01*
X40990387Y-61406940D01*
X40864823Y-61438160D01*
X40758676Y-61459153D01*
X40665130Y-61471256D01*
X40577370Y-61475806D01*
X40488578Y-61474143D01*
X40484167Y-61473929D01*
X40297309Y-61446798D01*
X40128962Y-61383476D01*
X39973944Y-61281661D01*
X39897727Y-61213570D01*
X39777183Y-61071406D01*
X39695055Y-60915758D01*
X39648943Y-60741216D01*
X39637692Y-60627916D01*
X39642763Y-60447118D01*
X39678404Y-60280529D01*
X39747787Y-60117330D01*
X39825106Y-59988805D01*
X39965113Y-59809001D01*
X40117255Y-59669735D01*
X40281086Y-59571125D01*
X40456158Y-59513288D01*
X40642025Y-59496343D01*
X40838241Y-59520406D01*
G36*
X39453088Y-61371954D02*
G01*
X39642307Y-61431174D01*
X39708010Y-61461459D01*
X39789035Y-61505483D01*
X39870561Y-61555746D01*
X39944770Y-61606639D01*
X40003842Y-61652556D01*
X40039960Y-61687889D01*
X40047112Y-61704657D01*
X40032785Y-61728265D01*
X39998932Y-61778393D01*
X39951005Y-61847382D01*
X39894457Y-61927576D01*
X39834739Y-62011315D01*
X39777305Y-62090942D01*
X39727607Y-62158798D01*
X39691098Y-62207225D01*
X39676264Y-62225514D01*
X39652455Y-62223181D01*
X39603616Y-62201260D01*
X39539513Y-62164272D01*
X39527484Y-62156607D01*
X39398712Y-62082877D01*
X39290275Y-62043046D01*
X39197596Y-62036786D01*
X39116096Y-62063768D01*
X39042881Y-62121918D01*
X38976642Y-62210066D01*
X38938488Y-62304119D01*
X38932467Y-62392802D01*
X38937313Y-62415920D01*
X38976635Y-62497884D01*
X39040173Y-62572379D01*
X39117900Y-62632026D01*
X39199794Y-62669444D01*
X39275829Y-62677256D01*
X39288934Y-62674747D01*
X39346163Y-62645936D01*
X39419504Y-62587105D01*
X39502740Y-62504199D01*
X39589648Y-62403164D01*
X39635919Y-62343153D01*
X39693119Y-62271298D01*
X39737822Y-62225836D01*
X39765542Y-62211209D01*
X39768227Y-62212099D01*
X39793650Y-62229367D01*
X39846153Y-62266546D01*
X39918640Y-62318567D01*
X40004018Y-62380357D01*
X40025510Y-62395984D01*
X40111079Y-62458240D01*
X40183581Y-62510956D01*
X40236548Y-62549432D01*
X40263512Y-62568968D01*
X40265499Y-62570388D01*
X40256810Y-62588120D01*
X40227487Y-62631239D01*
X40183025Y-62691828D01*
X40161693Y-62719885D01*
X40079092Y-62837461D01*
X40010778Y-62954357D01*
X39960983Y-63062009D01*
X39933942Y-63151856D01*
X39930277Y-63187896D01*
X39949794Y-63300830D01*
X40003453Y-63399603D01*
X40083828Y-63478079D01*
X40183494Y-63530116D01*
X40295026Y-63549576D01*
X40360732Y-63543801D01*
X40449432Y-63507896D01*
X40535458Y-63439457D01*
X40611719Y-63348047D01*
X40671123Y-63243236D01*
X40706578Y-63134587D01*
X40713427Y-63068035D01*
X40700680Y-62963979D01*
X40660099Y-62865550D01*
X40588169Y-62767391D01*
X40481376Y-62664144D01*
X40410696Y-62606508D01*
X40351381Y-62560259D01*
X40544833Y-62294192D01*
X40624406Y-62187784D01*
X40688421Y-62108500D01*
X40734569Y-62059005D01*
X40760539Y-62041965D01*
X40762898Y-62042553D01*
X40791361Y-62062060D01*
X40842329Y-62099335D01*
X40904770Y-62146310D01*
X40904805Y-62146336D01*
X41080816Y-62302606D01*
X41217138Y-62471449D01*
X41313666Y-62650438D01*
X41370300Y-62837148D01*
X41386936Y-63029154D01*
X41363473Y-63224030D01*
X41299807Y-63419352D01*
X41195836Y-63612693D01*
X41051458Y-63801628D01*
X40978010Y-63879823D01*
X40810612Y-64023932D01*
X40633966Y-64130395D01*
X40451205Y-64198292D01*
X40265463Y-64226702D01*
X40079873Y-64214705D01*
X39950938Y-64181503D01*
X39752895Y-64092325D01*
X39578483Y-63968218D01*
X39496929Y-63889444D01*
X39396378Y-63760054D01*
X39333168Y-63622802D01*
X39302439Y-63466491D01*
X39300011Y-63435925D01*
X39290462Y-63287758D01*
X39166969Y-63294874D01*
X38996645Y-63283863D01*
X38827827Y-63232611D01*
X38665061Y-63143104D01*
X38512893Y-63017324D01*
X38498967Y-63003370D01*
X38395029Y-62868631D01*
X38318919Y-62707375D01*
X38279269Y-62555897D01*
X38270908Y-62391278D01*
X38299025Y-62216964D01*
X38361154Y-62039857D01*
X38454828Y-61866856D01*
X38577581Y-61704863D01*
X38587382Y-61693912D01*
X38743031Y-61548518D01*
X38909458Y-61443203D01*
X39084631Y-61378390D01*
X39266519Y-61354500D01*
X39453088Y-61371954D01*
G37*
X39453088Y-61371954D02*
X39642307Y-61431174D01*
X39708010Y-61461459D01*
X39789035Y-61505483D01*
X39870561Y-61555746D01*
X39944770Y-61606639D01*
X40003842Y-61652556D01*
X40039960Y-61687889D01*
X40047112Y-61704657D01*
X40032785Y-61728265D01*
X39998932Y-61778393D01*
X39951005Y-61847382D01*
X39894457Y-61927576D01*
X39834739Y-62011315D01*
X39777305Y-62090942D01*
X39727607Y-62158798D01*
X39691098Y-62207225D01*
X39676264Y-62225514D01*
X39652455Y-62223181D01*
X39603616Y-62201260D01*
X39539513Y-62164272D01*
X39527484Y-62156607D01*
X39398712Y-62082877D01*
X39290275Y-62043046D01*
X39197596Y-62036786D01*
X39116096Y-62063768D01*
X39042881Y-62121918D01*
X38976642Y-62210066D01*
X38938488Y-62304119D01*
X38932467Y-62392802D01*
X38937313Y-62415920D01*
X38976635Y-62497884D01*
X39040173Y-62572379D01*
X39117900Y-62632026D01*
X39199794Y-62669444D01*
X39275829Y-62677256D01*
X39288934Y-62674747D01*
X39346163Y-62645936D01*
X39419504Y-62587105D01*
X39502740Y-62504199D01*
X39589648Y-62403164D01*
X39635919Y-62343153D01*
X39693119Y-62271298D01*
X39737822Y-62225836D01*
X39765542Y-62211209D01*
X39768227Y-62212099D01*
X39793650Y-62229367D01*
X39846153Y-62266546D01*
X39918640Y-62318567D01*
X40004018Y-62380357D01*
X40025510Y-62395984D01*
X40111079Y-62458240D01*
X40183581Y-62510956D01*
X40236548Y-62549432D01*
X40263512Y-62568968D01*
X40265499Y-62570388D01*
X40256810Y-62588120D01*
X40227487Y-62631239D01*
X40183025Y-62691828D01*
X40161693Y-62719885D01*
X40079092Y-62837461D01*
X40010778Y-62954357D01*
X39960983Y-63062009D01*
X39933942Y-63151856D01*
X39930277Y-63187896D01*
X39949794Y-63300830D01*
X40003453Y-63399603D01*
X40083828Y-63478079D01*
X40183494Y-63530116D01*
X40295026Y-63549576D01*
X40360732Y-63543801D01*
X40449432Y-63507896D01*
X40535458Y-63439457D01*
X40611719Y-63348047D01*
X40671123Y-63243236D01*
X40706578Y-63134587D01*
X40713427Y-63068035D01*
X40700680Y-62963979D01*
X40660099Y-62865550D01*
X40588169Y-62767391D01*
X40481376Y-62664144D01*
X40410696Y-62606508D01*
X40351381Y-62560259D01*
X40544833Y-62294192D01*
X40624406Y-62187784D01*
X40688421Y-62108500D01*
X40734569Y-62059005D01*
X40760539Y-62041965D01*
X40762898Y-62042553D01*
X40791361Y-62062060D01*
X40842329Y-62099335D01*
X40904770Y-62146310D01*
X40904805Y-62146336D01*
X41080816Y-62302606D01*
X41217138Y-62471449D01*
X41313666Y-62650438D01*
X41370300Y-62837148D01*
X41386936Y-63029154D01*
X41363473Y-63224030D01*
X41299807Y-63419352D01*
X41195836Y-63612693D01*
X41051458Y-63801628D01*
X40978010Y-63879823D01*
X40810612Y-64023932D01*
X40633966Y-64130395D01*
X40451205Y-64198292D01*
X40265463Y-64226702D01*
X40079873Y-64214705D01*
X39950938Y-64181503D01*
X39752895Y-64092325D01*
X39578483Y-63968218D01*
X39496929Y-63889444D01*
X39396378Y-63760054D01*
X39333168Y-63622802D01*
X39302439Y-63466491D01*
X39300011Y-63435925D01*
X39290462Y-63287758D01*
X39166969Y-63294874D01*
X38996645Y-63283863D01*
X38827827Y-63232611D01*
X38665061Y-63143104D01*
X38512893Y-63017324D01*
X38498967Y-63003370D01*
X38395029Y-62868631D01*
X38318919Y-62707375D01*
X38279269Y-62555897D01*
X38270908Y-62391278D01*
X38299025Y-62216964D01*
X38361154Y-62039857D01*
X38454828Y-61866856D01*
X38577581Y-61704863D01*
X38587382Y-61693912D01*
X38743031Y-61548518D01*
X38909458Y-61443203D01*
X39084631Y-61378390D01*
X39266519Y-61354500D01*
X39453088Y-61371954D01*
%TD*%
%LPC*%
M02*
