%TF.GenerationSoftware,KiCad,Pcbnew,(7.0.0)*%
%TF.CreationDate,2023-05-30T20:17:09-04:00*%
%TF.ProjectId,H4X0R-small,48345830-522d-4736-9d61-6c6c2e6b6963,rev?*%
%TF.SameCoordinates,Original*%
%TF.FileFunction,Legend,Bot*%
%TF.FilePolarity,Positive*%
%FSLAX46Y46*%
G04 Gerber Fmt 4.6, Leading zero omitted, Abs format (unit mm)*
G04 Created by KiCad (PCBNEW (7.0.0)) date 2023-05-30 20:17:09*
%MOMM*%
%LPD*%
G01*
G04 APERTURE LIST*
%ADD10C,0.010000*%
G04 APERTURE END LIST*
%TO.C,G\u002A\u002A\u002A*%
G36*
X41858600Y-34378285D02*
G01*
X42041522Y-34436609D01*
X42203113Y-34528489D01*
X42338925Y-34650503D01*
X42444507Y-34799228D01*
X42469403Y-34848075D01*
X42496669Y-34915532D01*
X42525311Y-35001451D01*
X42553001Y-35096565D01*
X42577411Y-35191606D01*
X42596213Y-35277307D01*
X42607079Y-35344402D01*
X42607680Y-35383623D01*
X42605257Y-35388843D01*
X42581541Y-35396095D01*
X42525052Y-35408194D01*
X42444862Y-35423575D01*
X42350042Y-35440669D01*
X42249664Y-35457910D01*
X42152801Y-35473731D01*
X42068522Y-35486565D01*
X42005901Y-35494845D01*
X41978355Y-35497128D01*
X41956389Y-35485537D01*
X41936338Y-35445852D01*
X41915364Y-35371868D01*
X41909494Y-35346620D01*
X41869478Y-35206364D01*
X41819748Y-35104256D01*
X41756997Y-35036600D01*
X41677918Y-34999698D01*
X41590349Y-34989726D01*
X41468694Y-35006973D01*
X41372338Y-35055168D01*
X41304540Y-35129117D01*
X41268556Y-35223625D01*
X41267647Y-35333498D01*
X41302683Y-35448360D01*
X41337542Y-35508258D01*
X41377020Y-35552878D01*
X41389903Y-35561845D01*
X41447496Y-35577876D01*
X41537823Y-35584928D01*
X41652249Y-35583016D01*
X41782139Y-35572155D01*
X41865813Y-35561060D01*
X41943024Y-35550311D01*
X42001916Y-35543916D01*
X42031902Y-35542975D01*
X42033557Y-35543596D01*
X42039770Y-35566720D01*
X42050678Y-35622319D01*
X42064738Y-35700998D01*
X42080408Y-35793362D01*
X42096145Y-35890013D01*
X42110407Y-35981558D01*
X42121652Y-36058599D01*
X42128337Y-36111741D01*
X42129517Y-36128131D01*
X42124349Y-36149794D01*
X42103441Y-36165502D01*
X42058689Y-36178407D01*
X41981989Y-36191663D01*
X41956406Y-36195469D01*
X41762937Y-36234519D01*
X41608379Y-36289560D01*
X41492325Y-36360887D01*
X41414369Y-36448796D01*
X41374105Y-36553582D01*
X41367865Y-36623767D01*
X41388047Y-36735511D01*
X41442752Y-36834257D01*
X41524554Y-36912668D01*
X41626024Y-36963410D01*
X41727994Y-36979360D01*
X41836626Y-36966622D01*
X41950290Y-36932646D01*
X42050814Y-36883784D01*
X42096692Y-36850465D01*
X42164537Y-36774738D01*
X42208061Y-36684289D01*
X42229581Y-36571438D01*
X42231416Y-36428507D01*
X42230353Y-36407723D01*
X42226933Y-36323927D01*
X42226865Y-36258898D01*
X42230029Y-36222060D01*
X42232716Y-36217156D01*
X42257217Y-36213705D01*
X42315717Y-36204348D01*
X42400496Y-36190351D01*
X42503833Y-36172980D01*
X42551696Y-36164849D01*
X42659795Y-36146848D01*
X42751887Y-36132312D01*
X42820503Y-36122356D01*
X42858178Y-36118097D01*
X42863029Y-36118316D01*
X42874082Y-36148637D01*
X42884903Y-36210999D01*
X42894602Y-36295113D01*
X42902287Y-36390691D01*
X42907069Y-36487446D01*
X42908056Y-36575090D01*
X42906424Y-36619527D01*
X42875083Y-36833295D01*
X42810050Y-37021435D01*
X42711350Y-37183919D01*
X42579006Y-37320721D01*
X42413041Y-37431812D01*
X42213479Y-37517166D01*
X42099673Y-37550549D01*
X41949236Y-37578225D01*
X41783065Y-37591155D01*
X41616261Y-37589282D01*
X41463925Y-37572553D01*
X41378101Y-37553189D01*
X41216343Y-37494848D01*
X41080491Y-37418822D01*
X40955088Y-37316457D01*
X40954625Y-37316020D01*
X40845368Y-37187915D01*
X40762164Y-37039236D01*
X40705489Y-36876939D01*
X40675817Y-36707977D01*
X40673626Y-36539305D01*
X40699388Y-36377876D01*
X40753581Y-36230644D01*
X40836679Y-36104564D01*
X40869448Y-36069826D01*
X40944456Y-35997125D01*
X40839643Y-35897154D01*
X40727635Y-35762012D01*
X40646917Y-35603831D01*
X40598829Y-35429492D01*
X40584712Y-35245873D01*
X40605905Y-35059854D01*
X40648480Y-34915766D01*
X40723188Y-34777525D01*
X40832300Y-34654181D01*
X40969673Y-34548463D01*
X41129164Y-34463099D01*
X41304630Y-34400817D01*
X41489928Y-34364346D01*
X41678916Y-34356415D01*
X41858600Y-34378285D01*
G37*
D10*
X41858600Y-34378285D02*
X42041522Y-34436609D01*
X42203113Y-34528489D01*
X42338925Y-34650503D01*
X42444507Y-34799228D01*
X42469403Y-34848075D01*
X42496669Y-34915532D01*
X42525311Y-35001451D01*
X42553001Y-35096565D01*
X42577411Y-35191606D01*
X42596213Y-35277307D01*
X42607079Y-35344402D01*
X42607680Y-35383623D01*
X42605257Y-35388843D01*
X42581541Y-35396095D01*
X42525052Y-35408194D01*
X42444862Y-35423575D01*
X42350042Y-35440669D01*
X42249664Y-35457910D01*
X42152801Y-35473731D01*
X42068522Y-35486565D01*
X42005901Y-35494845D01*
X41978355Y-35497128D01*
X41956389Y-35485537D01*
X41936338Y-35445852D01*
X41915364Y-35371868D01*
X41909494Y-35346620D01*
X41869478Y-35206364D01*
X41819748Y-35104256D01*
X41756997Y-35036600D01*
X41677918Y-34999698D01*
X41590349Y-34989726D01*
X41468694Y-35006973D01*
X41372338Y-35055168D01*
X41304540Y-35129117D01*
X41268556Y-35223625D01*
X41267647Y-35333498D01*
X41302683Y-35448360D01*
X41337542Y-35508258D01*
X41377020Y-35552878D01*
X41389903Y-35561845D01*
X41447496Y-35577876D01*
X41537823Y-35584928D01*
X41652249Y-35583016D01*
X41782139Y-35572155D01*
X41865813Y-35561060D01*
X41943024Y-35550311D01*
X42001916Y-35543916D01*
X42031902Y-35542975D01*
X42033557Y-35543596D01*
X42039770Y-35566720D01*
X42050678Y-35622319D01*
X42064738Y-35700998D01*
X42080408Y-35793362D01*
X42096145Y-35890013D01*
X42110407Y-35981558D01*
X42121652Y-36058599D01*
X42128337Y-36111741D01*
X42129517Y-36128131D01*
X42124349Y-36149794D01*
X42103441Y-36165502D01*
X42058689Y-36178407D01*
X41981989Y-36191663D01*
X41956406Y-36195469D01*
X41762937Y-36234519D01*
X41608379Y-36289560D01*
X41492325Y-36360887D01*
X41414369Y-36448796D01*
X41374105Y-36553582D01*
X41367865Y-36623767D01*
X41388047Y-36735511D01*
X41442752Y-36834257D01*
X41524554Y-36912668D01*
X41626024Y-36963410D01*
X41727994Y-36979360D01*
X41836626Y-36966622D01*
X41950290Y-36932646D01*
X42050814Y-36883784D01*
X42096692Y-36850465D01*
X42164537Y-36774738D01*
X42208061Y-36684289D01*
X42229581Y-36571438D01*
X42231416Y-36428507D01*
X42230353Y-36407723D01*
X42226933Y-36323927D01*
X42226865Y-36258898D01*
X42230029Y-36222060D01*
X42232716Y-36217156D01*
X42257217Y-36213705D01*
X42315717Y-36204348D01*
X42400496Y-36190351D01*
X42503833Y-36172980D01*
X42551696Y-36164849D01*
X42659795Y-36146848D01*
X42751887Y-36132312D01*
X42820503Y-36122356D01*
X42858178Y-36118097D01*
X42863029Y-36118316D01*
X42874082Y-36148637D01*
X42884903Y-36210999D01*
X42894602Y-36295113D01*
X42902287Y-36390691D01*
X42907069Y-36487446D01*
X42908056Y-36575090D01*
X42906424Y-36619527D01*
X42875083Y-36833295D01*
X42810050Y-37021435D01*
X42711350Y-37183919D01*
X42579006Y-37320721D01*
X42413041Y-37431812D01*
X42213479Y-37517166D01*
X42099673Y-37550549D01*
X41949236Y-37578225D01*
X41783065Y-37591155D01*
X41616261Y-37589282D01*
X41463925Y-37572553D01*
X41378101Y-37553189D01*
X41216343Y-37494848D01*
X41080491Y-37418822D01*
X40955088Y-37316457D01*
X40954625Y-37316020D01*
X40845368Y-37187915D01*
X40762164Y-37039236D01*
X40705489Y-36876939D01*
X40675817Y-36707977D01*
X40673626Y-36539305D01*
X40699388Y-36377876D01*
X40753581Y-36230644D01*
X40836679Y-36104564D01*
X40869448Y-36069826D01*
X40944456Y-35997125D01*
X40839643Y-35897154D01*
X40727635Y-35762012D01*
X40646917Y-35603831D01*
X40598829Y-35429492D01*
X40584712Y-35245873D01*
X40605905Y-35059854D01*
X40648480Y-34915766D01*
X40723188Y-34777525D01*
X40832300Y-34654181D01*
X40969673Y-34548463D01*
X41129164Y-34463099D01*
X41304630Y-34400817D01*
X41489928Y-34364346D01*
X41678916Y-34356415D01*
X41858600Y-34378285D01*
G36*
X44076074Y-33997962D02*
G01*
X44259192Y-34043504D01*
X44424685Y-34126540D01*
X44570310Y-34245124D01*
X44693822Y-34397311D01*
X44792977Y-34581155D01*
X44816980Y-34640443D01*
X44834159Y-34694716D01*
X44854582Y-34772392D01*
X44876325Y-34864287D01*
X44897466Y-34961214D01*
X44916080Y-35053990D01*
X44930245Y-35133429D01*
X44938037Y-35190346D01*
X44937534Y-35215556D01*
X44937428Y-35215671D01*
X44915522Y-35221222D01*
X44860796Y-35231709D01*
X44781913Y-35245708D01*
X44687535Y-35261798D01*
X44586324Y-35278555D01*
X44486942Y-35294557D01*
X44398051Y-35308383D01*
X44328312Y-35318609D01*
X44286388Y-35323813D01*
X44278184Y-35323928D01*
X44273377Y-35301604D01*
X44264849Y-35247325D01*
X44254138Y-35171140D01*
X44249727Y-35137860D01*
X44221524Y-34967834D01*
X44185355Y-34835547D01*
X44139445Y-34736859D01*
X44082019Y-34667632D01*
X44033882Y-34634412D01*
X43967662Y-34616591D01*
X43879114Y-34614943D01*
X43784339Y-34627885D01*
X43699439Y-34653836D01*
X43666886Y-34670471D01*
X43588199Y-34740913D01*
X43543079Y-34829134D01*
X43531005Y-34927815D01*
X43551455Y-35029634D01*
X43603906Y-35127273D01*
X43687837Y-35213410D01*
X43706615Y-35227390D01*
X43760535Y-35262291D01*
X43842345Y-35311269D01*
X43942439Y-35368744D01*
X44051211Y-35429141D01*
X44094134Y-35452403D01*
X44212859Y-35517864D01*
X44335353Y-35588132D01*
X44448868Y-35655728D01*
X44540654Y-35713168D01*
X44558339Y-35724816D01*
X44767020Y-35888037D01*
X44943889Y-36076671D01*
X45086597Y-36287697D01*
X45192791Y-36518095D01*
X45206773Y-36558161D01*
X45231005Y-36637627D01*
X45254695Y-36726868D01*
X45275727Y-36816162D01*
X45291985Y-36895786D01*
X45301353Y-36956018D01*
X45301714Y-36987135D01*
X45300555Y-36988981D01*
X45278979Y-36993276D01*
X45219649Y-37003585D01*
X45126613Y-37019241D01*
X45003919Y-37039577D01*
X44855618Y-37063925D01*
X44685756Y-37091618D01*
X44498383Y-37121990D01*
X44297547Y-37154372D01*
X44277934Y-37157525D01*
X44075205Y-37190198D01*
X43884880Y-37221037D01*
X43711111Y-37249356D01*
X43558054Y-37274472D01*
X43429862Y-37295699D01*
X43330689Y-37312352D01*
X43264689Y-37323747D01*
X43236018Y-37329200D01*
X43235476Y-37329354D01*
X43211408Y-37326488D01*
X43209017Y-37319757D01*
X43205194Y-37295125D01*
X43194380Y-37234219D01*
X43177556Y-37142338D01*
X43155703Y-37024786D01*
X43129802Y-36886863D01*
X43100835Y-36733870D01*
X43091097Y-36682692D01*
X43061950Y-36526256D01*
X43036577Y-36383327D01*
X43015813Y-36259168D01*
X43000491Y-36159037D01*
X42991445Y-36088198D01*
X42989509Y-36051909D01*
X42990555Y-36048428D01*
X43018891Y-36037938D01*
X43078543Y-36024273D01*
X43160196Y-36008847D01*
X43254537Y-35993075D01*
X43352250Y-35978372D01*
X43444021Y-35966152D01*
X43520536Y-35957830D01*
X43572481Y-35954820D01*
X43590246Y-35957353D01*
X43599150Y-35983171D01*
X43613729Y-36042656D01*
X43632189Y-36127806D01*
X43652738Y-36230618D01*
X43659745Y-36267445D01*
X43680122Y-36373474D01*
X43698326Y-36463678D01*
X43712734Y-36530346D01*
X43721724Y-36565767D01*
X43723285Y-36569350D01*
X43745610Y-36568849D01*
X43801240Y-36562486D01*
X43881757Y-36551573D01*
X43978745Y-36537422D01*
X44083786Y-36521345D01*
X44188464Y-36504653D01*
X44284363Y-36488659D01*
X44363064Y-36474674D01*
X44416152Y-36464011D01*
X44435003Y-36458412D01*
X44429355Y-36437455D01*
X44395905Y-36398849D01*
X44341591Y-36349137D01*
X44273352Y-36294863D01*
X44225017Y-36260375D01*
X44168801Y-36225064D01*
X44083317Y-36175099D01*
X43976937Y-36115200D01*
X43858034Y-36050084D01*
X43740871Y-35987566D01*
X43553303Y-35887031D01*
X43399837Y-35799960D01*
X43275876Y-35722652D01*
X43176823Y-35651408D01*
X43098082Y-35582527D01*
X43035055Y-35512310D01*
X42983147Y-35437058D01*
X42937761Y-35353069D01*
X42928481Y-35333662D01*
X42861518Y-35145732D01*
X42834676Y-34958396D01*
X42845904Y-34775956D01*
X42893152Y-34602710D01*
X42974369Y-34442961D01*
X43087505Y-34301009D01*
X43230511Y-34181155D01*
X43401335Y-34087699D01*
X43546380Y-34037544D01*
X43681307Y-34010122D01*
X43831146Y-33993984D01*
X43976461Y-33990582D01*
X44076074Y-33997962D01*
G37*
X44076074Y-33997962D02*
X44259192Y-34043504D01*
X44424685Y-34126540D01*
X44570310Y-34245124D01*
X44693822Y-34397311D01*
X44792977Y-34581155D01*
X44816980Y-34640443D01*
X44834159Y-34694716D01*
X44854582Y-34772392D01*
X44876325Y-34864287D01*
X44897466Y-34961214D01*
X44916080Y-35053990D01*
X44930245Y-35133429D01*
X44938037Y-35190346D01*
X44937534Y-35215556D01*
X44937428Y-35215671D01*
X44915522Y-35221222D01*
X44860796Y-35231709D01*
X44781913Y-35245708D01*
X44687535Y-35261798D01*
X44586324Y-35278555D01*
X44486942Y-35294557D01*
X44398051Y-35308383D01*
X44328312Y-35318609D01*
X44286388Y-35323813D01*
X44278184Y-35323928D01*
X44273377Y-35301604D01*
X44264849Y-35247325D01*
X44254138Y-35171140D01*
X44249727Y-35137860D01*
X44221524Y-34967834D01*
X44185355Y-34835547D01*
X44139445Y-34736859D01*
X44082019Y-34667632D01*
X44033882Y-34634412D01*
X43967662Y-34616591D01*
X43879114Y-34614943D01*
X43784339Y-34627885D01*
X43699439Y-34653836D01*
X43666886Y-34670471D01*
X43588199Y-34740913D01*
X43543079Y-34829134D01*
X43531005Y-34927815D01*
X43551455Y-35029634D01*
X43603906Y-35127273D01*
X43687837Y-35213410D01*
X43706615Y-35227390D01*
X43760535Y-35262291D01*
X43842345Y-35311269D01*
X43942439Y-35368744D01*
X44051211Y-35429141D01*
X44094134Y-35452403D01*
X44212859Y-35517864D01*
X44335353Y-35588132D01*
X44448868Y-35655728D01*
X44540654Y-35713168D01*
X44558339Y-35724816D01*
X44767020Y-35888037D01*
X44943889Y-36076671D01*
X45086597Y-36287697D01*
X45192791Y-36518095D01*
X45206773Y-36558161D01*
X45231005Y-36637627D01*
X45254695Y-36726868D01*
X45275727Y-36816162D01*
X45291985Y-36895786D01*
X45301353Y-36956018D01*
X45301714Y-36987135D01*
X45300555Y-36988981D01*
X45278979Y-36993276D01*
X45219649Y-37003585D01*
X45126613Y-37019241D01*
X45003919Y-37039577D01*
X44855618Y-37063925D01*
X44685756Y-37091618D01*
X44498383Y-37121990D01*
X44297547Y-37154372D01*
X44277934Y-37157525D01*
X44075205Y-37190198D01*
X43884880Y-37221037D01*
X43711111Y-37249356D01*
X43558054Y-37274472D01*
X43429862Y-37295699D01*
X43330689Y-37312352D01*
X43264689Y-37323747D01*
X43236018Y-37329200D01*
X43235476Y-37329354D01*
X43211408Y-37326488D01*
X43209017Y-37319757D01*
X43205194Y-37295125D01*
X43194380Y-37234219D01*
X43177556Y-37142338D01*
X43155703Y-37024786D01*
X43129802Y-36886863D01*
X43100835Y-36733870D01*
X43091097Y-36682692D01*
X43061950Y-36526256D01*
X43036577Y-36383327D01*
X43015813Y-36259168D01*
X43000491Y-36159037D01*
X42991445Y-36088198D01*
X42989509Y-36051909D01*
X42990555Y-36048428D01*
X43018891Y-36037938D01*
X43078543Y-36024273D01*
X43160196Y-36008847D01*
X43254537Y-35993075D01*
X43352250Y-35978372D01*
X43444021Y-35966152D01*
X43520536Y-35957830D01*
X43572481Y-35954820D01*
X43590246Y-35957353D01*
X43599150Y-35983171D01*
X43613729Y-36042656D01*
X43632189Y-36127806D01*
X43652738Y-36230618D01*
X43659745Y-36267445D01*
X43680122Y-36373474D01*
X43698326Y-36463678D01*
X43712734Y-36530346D01*
X43721724Y-36565767D01*
X43723285Y-36569350D01*
X43745610Y-36568849D01*
X43801240Y-36562486D01*
X43881757Y-36551573D01*
X43978745Y-36537422D01*
X44083786Y-36521345D01*
X44188464Y-36504653D01*
X44284363Y-36488659D01*
X44363064Y-36474674D01*
X44416152Y-36464011D01*
X44435003Y-36458412D01*
X44429355Y-36437455D01*
X44395905Y-36398849D01*
X44341591Y-36349137D01*
X44273352Y-36294863D01*
X44225017Y-36260375D01*
X44168801Y-36225064D01*
X44083317Y-36175099D01*
X43976937Y-36115200D01*
X43858034Y-36050084D01*
X43740871Y-35987566D01*
X43553303Y-35887031D01*
X43399837Y-35799960D01*
X43275876Y-35722652D01*
X43176823Y-35651408D01*
X43098082Y-35582527D01*
X43035055Y-35512310D01*
X42983147Y-35437058D01*
X42937761Y-35353069D01*
X42928481Y-35333662D01*
X42861518Y-35145732D01*
X42834676Y-34958396D01*
X42845904Y-34775956D01*
X42893152Y-34602710D01*
X42974369Y-34442961D01*
X43087505Y-34301009D01*
X43230511Y-34181155D01*
X43401335Y-34087699D01*
X43546380Y-34037544D01*
X43681307Y-34010122D01*
X43831146Y-33993984D01*
X43976461Y-33990582D01*
X44076074Y-33997962D01*
G36*
X45056737Y-34836489D02*
G01*
X45738934Y-34836489D01*
X45747856Y-35017235D01*
X45770239Y-35214763D01*
X45805920Y-35423293D01*
X45824520Y-35511372D01*
X45882923Y-35734556D01*
X45949310Y-35916253D01*
X46023729Y-36056560D01*
X46106229Y-36155574D01*
X46174150Y-36203159D01*
X46269973Y-36230628D01*
X46376466Y-36227700D01*
X46476396Y-36195814D01*
X46510981Y-36175052D01*
X46562024Y-36125041D01*
X46609483Y-36056842D01*
X46623926Y-36028810D01*
X46654925Y-35926498D01*
X46672498Y-35791610D01*
X46677174Y-35631535D01*
X46669481Y-35453664D01*
X46649947Y-35265387D01*
X46619101Y-35074096D01*
X46577472Y-34887180D01*
X46530908Y-34727857D01*
X46466910Y-34558494D01*
X46399473Y-34428801D01*
X46326286Y-34336132D01*
X46245040Y-34277839D01*
X46153425Y-34251274D01*
X46113091Y-34248939D01*
X45996170Y-34268797D01*
X45894829Y-34326394D01*
X45814200Y-34418446D01*
X45794570Y-34452770D01*
X45762127Y-34548475D01*
X45743637Y-34678309D01*
X45738934Y-34836489D01*
X45056737Y-34836489D01*
X45057079Y-34809045D01*
X45084252Y-34569348D01*
X45135337Y-34351596D01*
X45210246Y-34162278D01*
X45212013Y-34158775D01*
X45310012Y-34008166D01*
X45439626Y-33873311D01*
X45590688Y-33763130D01*
X45748198Y-33688232D01*
X45956794Y-33634799D01*
X46159663Y-33622412D01*
X46354515Y-33649923D01*
X46539061Y-33716184D01*
X46711011Y-33820047D01*
X46868078Y-33960365D01*
X47007971Y-34135989D01*
X47128402Y-34345773D01*
X47149570Y-34390886D01*
X47214036Y-34559327D01*
X47270502Y-34757724D01*
X47316895Y-34974119D01*
X47351145Y-35196553D01*
X47371179Y-35413065D01*
X47374925Y-35611696D01*
X47371999Y-35674873D01*
X47339540Y-35930615D01*
X47278612Y-36157282D01*
X47189814Y-36354006D01*
X47073745Y-36519919D01*
X46931004Y-36654154D01*
X46762189Y-36755843D01*
X46581009Y-36820786D01*
X46463814Y-36841710D01*
X46329315Y-36850715D01*
X46192849Y-36847969D01*
X46069753Y-36833642D01*
X45992157Y-36814286D01*
X45802559Y-36726586D01*
X45632246Y-36601627D01*
X45481835Y-36440142D01*
X45351943Y-36242867D01*
X45243186Y-36010536D01*
X45189249Y-35857527D01*
X45119904Y-35594928D01*
X45074818Y-35328322D01*
X45053906Y-35064199D01*
X45056737Y-34836489D01*
G37*
X45056737Y-34836489D02*
X45738934Y-34836489D01*
X45747856Y-35017235D01*
X45770239Y-35214763D01*
X45805920Y-35423293D01*
X45824520Y-35511372D01*
X45882923Y-35734556D01*
X45949310Y-35916253D01*
X46023729Y-36056560D01*
X46106229Y-36155574D01*
X46174150Y-36203159D01*
X46269973Y-36230628D01*
X46376466Y-36227700D01*
X46476396Y-36195814D01*
X46510981Y-36175052D01*
X46562024Y-36125041D01*
X46609483Y-36056842D01*
X46623926Y-36028810D01*
X46654925Y-35926498D01*
X46672498Y-35791610D01*
X46677174Y-35631535D01*
X46669481Y-35453664D01*
X46649947Y-35265387D01*
X46619101Y-35074096D01*
X46577472Y-34887180D01*
X46530908Y-34727857D01*
X46466910Y-34558494D01*
X46399473Y-34428801D01*
X46326286Y-34336132D01*
X46245040Y-34277839D01*
X46153425Y-34251274D01*
X46113091Y-34248939D01*
X45996170Y-34268797D01*
X45894829Y-34326394D01*
X45814200Y-34418446D01*
X45794570Y-34452770D01*
X45762127Y-34548475D01*
X45743637Y-34678309D01*
X45738934Y-34836489D01*
X45056737Y-34836489D01*
X45057079Y-34809045D01*
X45084252Y-34569348D01*
X45135337Y-34351596D01*
X45210246Y-34162278D01*
X45212013Y-34158775D01*
X45310012Y-34008166D01*
X45439626Y-33873311D01*
X45590688Y-33763130D01*
X45748198Y-33688232D01*
X45956794Y-33634799D01*
X46159663Y-33622412D01*
X46354515Y-33649923D01*
X46539061Y-33716184D01*
X46711011Y-33820047D01*
X46868078Y-33960365D01*
X47007971Y-34135989D01*
X47128402Y-34345773D01*
X47149570Y-34390886D01*
X47214036Y-34559327D01*
X47270502Y-34757724D01*
X47316895Y-34974119D01*
X47351145Y-35196553D01*
X47371179Y-35413065D01*
X47374925Y-35611696D01*
X47371999Y-35674873D01*
X47339540Y-35930615D01*
X47278612Y-36157282D01*
X47189814Y-36354006D01*
X47073745Y-36519919D01*
X46931004Y-36654154D01*
X46762189Y-36755843D01*
X46581009Y-36820786D01*
X46463814Y-36841710D01*
X46329315Y-36850715D01*
X46192849Y-36847969D01*
X46069753Y-36833642D01*
X45992157Y-36814286D01*
X45802559Y-36726586D01*
X45632246Y-36601627D01*
X45481835Y-36440142D01*
X45351943Y-36242867D01*
X45243186Y-36010536D01*
X45189249Y-35857527D01*
X45119904Y-35594928D01*
X45074818Y-35328322D01*
X45053906Y-35064199D01*
X45056737Y-34836489D01*
G36*
X48647210Y-33265749D02*
G01*
X48810162Y-33308238D01*
X48954320Y-33382849D01*
X49087019Y-33492681D01*
X49127575Y-33535020D01*
X49244457Y-33693142D01*
X49337923Y-33885243D01*
X49407278Y-34109582D01*
X49448552Y-34337956D01*
X49457633Y-34413214D01*
X49458876Y-34456528D01*
X49449908Y-34477934D01*
X49428358Y-34487467D01*
X49412410Y-34490860D01*
X49353401Y-34501714D01*
X49271984Y-34515443D01*
X49177019Y-34530704D01*
X49077364Y-34546152D01*
X48981878Y-34560443D01*
X48899421Y-34572234D01*
X48838850Y-34580178D01*
X48809026Y-34582933D01*
X48807420Y-34582664D01*
X48802810Y-34560546D01*
X48794435Y-34506444D01*
X48783807Y-34430374D01*
X48779393Y-34397027D01*
X48751168Y-34226909D01*
X48714965Y-34094560D01*
X48669024Y-33995876D01*
X48611584Y-33926752D01*
X48563549Y-33893732D01*
X48495554Y-33875505D01*
X48405518Y-33874579D01*
X48309399Y-33889602D01*
X48223156Y-33919219D01*
X48214965Y-33923306D01*
X48130820Y-33987563D01*
X48079436Y-34071118D01*
X48060540Y-34166793D01*
X48073861Y-34267412D01*
X48119128Y-34365795D01*
X48196067Y-34454765D01*
X48236282Y-34486556D01*
X48290190Y-34521496D01*
X48371954Y-34570568D01*
X48471972Y-34628182D01*
X48580645Y-34688746D01*
X48623445Y-34712037D01*
X48824636Y-34823545D01*
X48991956Y-34923129D01*
X49130773Y-35014751D01*
X49246456Y-35102375D01*
X49344373Y-35189967D01*
X49429890Y-35281490D01*
X49482501Y-35346435D01*
X49608507Y-35540010D01*
X49712096Y-35760243D01*
X49788313Y-35995230D01*
X49823187Y-36165095D01*
X49836337Y-36250414D01*
X48951552Y-36394990D01*
X48756092Y-36426921D01*
X48567661Y-36457688D01*
X48391687Y-36486406D01*
X48233594Y-36512191D01*
X48098808Y-36534158D01*
X47992756Y-36551422D01*
X47920863Y-36563098D01*
X47902726Y-36566031D01*
X47825978Y-36577055D01*
X47768441Y-36582734D01*
X47740060Y-36582169D01*
X47738684Y-36580889D01*
X47734896Y-36557946D01*
X47724178Y-36498626D01*
X47707497Y-36408140D01*
X47685821Y-36291701D01*
X47660118Y-36154523D01*
X47631356Y-36001817D01*
X47620816Y-35946040D01*
X47591770Y-35789009D01*
X47566467Y-35645462D01*
X47545732Y-35520645D01*
X47530392Y-35419806D01*
X47521271Y-35348191D01*
X47519197Y-35311049D01*
X47520274Y-35307176D01*
X47548054Y-35297061D01*
X47607288Y-35283780D01*
X47688675Y-35268720D01*
X47782915Y-35253265D01*
X47880705Y-35238802D01*
X47972745Y-35226718D01*
X48049734Y-35218397D01*
X48102369Y-35215227D01*
X48121050Y-35217656D01*
X48129538Y-35243042D01*
X48143762Y-35302132D01*
X48161960Y-35386964D01*
X48182372Y-35489577D01*
X48189411Y-35526612D01*
X48209915Y-35632825D01*
X48228437Y-35723381D01*
X48243308Y-35790508D01*
X48252860Y-35826436D01*
X48254619Y-35830184D01*
X48279546Y-35832214D01*
X48336464Y-35826907D01*
X48417180Y-35815766D01*
X48513497Y-35800297D01*
X48617221Y-35782002D01*
X48720159Y-35762386D01*
X48814115Y-35742953D01*
X48890895Y-35725207D01*
X48942305Y-35710652D01*
X48960149Y-35700792D01*
X48960122Y-35700695D01*
X48931816Y-35662411D01*
X48868523Y-35608558D01*
X48773653Y-35541390D01*
X48650617Y-35463165D01*
X48502825Y-35376135D01*
X48333688Y-35282558D01*
X48302714Y-35265978D01*
X48100242Y-35155797D01*
X47932751Y-35058770D01*
X47796260Y-34971491D01*
X47686788Y-34890556D01*
X47600355Y-34812561D01*
X47532981Y-34734100D01*
X47480685Y-34651768D01*
X47439487Y-34562162D01*
X47421288Y-34512033D01*
X47373457Y-34312236D01*
X47365185Y-34119228D01*
X47394979Y-33936735D01*
X47461350Y-33768482D01*
X47562805Y-33618195D01*
X47697853Y-33489599D01*
X47865004Y-33386418D01*
X47873485Y-33382323D01*
X48024565Y-33318139D01*
X48165367Y-33277739D01*
X48313722Y-33257158D01*
X48458128Y-33252285D01*
X48647210Y-33265749D01*
G37*
X48647210Y-33265749D02*
X48810162Y-33308238D01*
X48954320Y-33382849D01*
X49087019Y-33492681D01*
X49127575Y-33535020D01*
X49244457Y-33693142D01*
X49337923Y-33885243D01*
X49407278Y-34109582D01*
X49448552Y-34337956D01*
X49457633Y-34413214D01*
X49458876Y-34456528D01*
X49449908Y-34477934D01*
X49428358Y-34487467D01*
X49412410Y-34490860D01*
X49353401Y-34501714D01*
X49271984Y-34515443D01*
X49177019Y-34530704D01*
X49077364Y-34546152D01*
X48981878Y-34560443D01*
X48899421Y-34572234D01*
X48838850Y-34580178D01*
X48809026Y-34582933D01*
X48807420Y-34582664D01*
X48802810Y-34560546D01*
X48794435Y-34506444D01*
X48783807Y-34430374D01*
X48779393Y-34397027D01*
X48751168Y-34226909D01*
X48714965Y-34094560D01*
X48669024Y-33995876D01*
X48611584Y-33926752D01*
X48563549Y-33893732D01*
X48495554Y-33875505D01*
X48405518Y-33874579D01*
X48309399Y-33889602D01*
X48223156Y-33919219D01*
X48214965Y-33923306D01*
X48130820Y-33987563D01*
X48079436Y-34071118D01*
X48060540Y-34166793D01*
X48073861Y-34267412D01*
X48119128Y-34365795D01*
X48196067Y-34454765D01*
X48236282Y-34486556D01*
X48290190Y-34521496D01*
X48371954Y-34570568D01*
X48471972Y-34628182D01*
X48580645Y-34688746D01*
X48623445Y-34712037D01*
X48824636Y-34823545D01*
X48991956Y-34923129D01*
X49130773Y-35014751D01*
X49246456Y-35102375D01*
X49344373Y-35189967D01*
X49429890Y-35281490D01*
X49482501Y-35346435D01*
X49608507Y-35540010D01*
X49712096Y-35760243D01*
X49788313Y-35995230D01*
X49823187Y-36165095D01*
X49836337Y-36250414D01*
X48951552Y-36394990D01*
X48756092Y-36426921D01*
X48567661Y-36457688D01*
X48391687Y-36486406D01*
X48233594Y-36512191D01*
X48098808Y-36534158D01*
X47992756Y-36551422D01*
X47920863Y-36563098D01*
X47902726Y-36566031D01*
X47825978Y-36577055D01*
X47768441Y-36582734D01*
X47740060Y-36582169D01*
X47738684Y-36580889D01*
X47734896Y-36557946D01*
X47724178Y-36498626D01*
X47707497Y-36408140D01*
X47685821Y-36291701D01*
X47660118Y-36154523D01*
X47631356Y-36001817D01*
X47620816Y-35946040D01*
X47591770Y-35789009D01*
X47566467Y-35645462D01*
X47545732Y-35520645D01*
X47530392Y-35419806D01*
X47521271Y-35348191D01*
X47519197Y-35311049D01*
X47520274Y-35307176D01*
X47548054Y-35297061D01*
X47607288Y-35283780D01*
X47688675Y-35268720D01*
X47782915Y-35253265D01*
X47880705Y-35238802D01*
X47972745Y-35226718D01*
X48049734Y-35218397D01*
X48102369Y-35215227D01*
X48121050Y-35217656D01*
X48129538Y-35243042D01*
X48143762Y-35302132D01*
X48161960Y-35386964D01*
X48182372Y-35489577D01*
X48189411Y-35526612D01*
X48209915Y-35632825D01*
X48228437Y-35723381D01*
X48243308Y-35790508D01*
X48252860Y-35826436D01*
X48254619Y-35830184D01*
X48279546Y-35832214D01*
X48336464Y-35826907D01*
X48417180Y-35815766D01*
X48513497Y-35800297D01*
X48617221Y-35782002D01*
X48720159Y-35762386D01*
X48814115Y-35742953D01*
X48890895Y-35725207D01*
X48942305Y-35710652D01*
X48960149Y-35700792D01*
X48960122Y-35700695D01*
X48931816Y-35662411D01*
X48868523Y-35608558D01*
X48773653Y-35541390D01*
X48650617Y-35463165D01*
X48502825Y-35376135D01*
X48333688Y-35282558D01*
X48302714Y-35265978D01*
X48100242Y-35155797D01*
X47932751Y-35058770D01*
X47796260Y-34971491D01*
X47686788Y-34890556D01*
X47600355Y-34812561D01*
X47532981Y-34734100D01*
X47480685Y-34651768D01*
X47439487Y-34562162D01*
X47421288Y-34512033D01*
X47373457Y-34312236D01*
X47365185Y-34119228D01*
X47394979Y-33936735D01*
X47461350Y-33768482D01*
X47562805Y-33618195D01*
X47697853Y-33489599D01*
X47865004Y-33386418D01*
X47873485Y-33382323D01*
X48024565Y-33318139D01*
X48165367Y-33277739D01*
X48313722Y-33257158D01*
X48458128Y-33252285D01*
X48647210Y-33265749D01*
G36*
X50814212Y-32975350D02*
G01*
X50857030Y-32997274D01*
X50921296Y-33035596D01*
X51011390Y-33092597D01*
X51131693Y-33170556D01*
X51150518Y-33182830D01*
X51524935Y-33427072D01*
X51539327Y-33542260D01*
X51550196Y-33609354D01*
X51563569Y-33642139D01*
X51583169Y-33648621D01*
X51588243Y-33647443D01*
X51629777Y-33638438D01*
X51693033Y-33627720D01*
X51718675Y-33623940D01*
X51814583Y-33610443D01*
X51861805Y-33903193D01*
X51878898Y-34010935D01*
X51893196Y-34104442D01*
X51903468Y-34175395D01*
X51908479Y-34215473D01*
X51908772Y-34220323D01*
X51889137Y-34236020D01*
X51837209Y-34250727D01*
X51781632Y-34259430D01*
X51711603Y-34268965D01*
X51674910Y-34279820D01*
X51662685Y-34296582D01*
X51665090Y-34319716D01*
X51673852Y-34365278D01*
X51687530Y-34444759D01*
X51704880Y-34550196D01*
X51724659Y-34673626D01*
X51745625Y-34807085D01*
X51766534Y-34942610D01*
X51786144Y-35072237D01*
X51803211Y-35188002D01*
X51816493Y-35281944D01*
X51822970Y-35331234D01*
X51832349Y-35508312D01*
X51811994Y-35657018D01*
X51760593Y-35780350D01*
X51676838Y-35881307D01*
X51559418Y-35962886D01*
X51543357Y-35971335D01*
X51476741Y-36002282D01*
X51414806Y-36021633D01*
X51342679Y-36032562D01*
X51245484Y-36038241D01*
X51226766Y-36038870D01*
X51129977Y-36040110D01*
X51040624Y-36038089D01*
X50973268Y-36033249D01*
X50956017Y-36030675D01*
X50881934Y-36016277D01*
X50830739Y-35704111D01*
X50813614Y-35594142D01*
X50800593Y-35499464D01*
X50792586Y-35427674D01*
X50790505Y-35386374D01*
X50791859Y-35379630D01*
X50817169Y-35377032D01*
X50872988Y-35381332D01*
X50948219Y-35391590D01*
X50964249Y-35394212D01*
X51042235Y-35405339D01*
X51103255Y-35410363D01*
X51136084Y-35408443D01*
X51138228Y-35407204D01*
X51138905Y-35383270D01*
X51133355Y-35323505D01*
X51122341Y-35233829D01*
X51106626Y-35120164D01*
X51086972Y-34988432D01*
X51071938Y-34892739D01*
X50991743Y-34392178D01*
X50899797Y-34405186D01*
X50814701Y-34417224D01*
X50726779Y-34429663D01*
X50715999Y-34431188D01*
X50624147Y-34444182D01*
X50575238Y-34144382D01*
X50557504Y-34026565D01*
X50546015Y-33930573D01*
X50541356Y-33862623D01*
X50544113Y-33828932D01*
X50545382Y-33827040D01*
X50574459Y-33815661D01*
X50633465Y-33801929D01*
X50710304Y-33788602D01*
X50720000Y-33787183D01*
X50795826Y-33775580D01*
X50853079Y-33765450D01*
X50880885Y-33758744D01*
X50881844Y-33758155D01*
X50880509Y-33736155D01*
X50872896Y-33679346D01*
X50860042Y-33594613D01*
X50842984Y-33488844D01*
X50826648Y-33391610D01*
X50806655Y-33270153D01*
X50790034Y-33160595D01*
X50777876Y-33070856D01*
X50771273Y-33008856D01*
X50770638Y-32985182D01*
X50775396Y-32971583D01*
X50788461Y-32967546D01*
X50814212Y-32975350D01*
G37*
X50814212Y-32975350D02*
X50857030Y-32997274D01*
X50921296Y-33035596D01*
X51011390Y-33092597D01*
X51131693Y-33170556D01*
X51150518Y-33182830D01*
X51524935Y-33427072D01*
X51539327Y-33542260D01*
X51550196Y-33609354D01*
X51563569Y-33642139D01*
X51583169Y-33648621D01*
X51588243Y-33647443D01*
X51629777Y-33638438D01*
X51693033Y-33627720D01*
X51718675Y-33623940D01*
X51814583Y-33610443D01*
X51861805Y-33903193D01*
X51878898Y-34010935D01*
X51893196Y-34104442D01*
X51903468Y-34175395D01*
X51908479Y-34215473D01*
X51908772Y-34220323D01*
X51889137Y-34236020D01*
X51837209Y-34250727D01*
X51781632Y-34259430D01*
X51711603Y-34268965D01*
X51674910Y-34279820D01*
X51662685Y-34296582D01*
X51665090Y-34319716D01*
X51673852Y-34365278D01*
X51687530Y-34444759D01*
X51704880Y-34550196D01*
X51724659Y-34673626D01*
X51745625Y-34807085D01*
X51766534Y-34942610D01*
X51786144Y-35072237D01*
X51803211Y-35188002D01*
X51816493Y-35281944D01*
X51822970Y-35331234D01*
X51832349Y-35508312D01*
X51811994Y-35657018D01*
X51760593Y-35780350D01*
X51676838Y-35881307D01*
X51559418Y-35962886D01*
X51543357Y-35971335D01*
X51476741Y-36002282D01*
X51414806Y-36021633D01*
X51342679Y-36032562D01*
X51245484Y-36038241D01*
X51226766Y-36038870D01*
X51129977Y-36040110D01*
X51040624Y-36038089D01*
X50973268Y-36033249D01*
X50956017Y-36030675D01*
X50881934Y-36016277D01*
X50830739Y-35704111D01*
X50813614Y-35594142D01*
X50800593Y-35499464D01*
X50792586Y-35427674D01*
X50790505Y-35386374D01*
X50791859Y-35379630D01*
X50817169Y-35377032D01*
X50872988Y-35381332D01*
X50948219Y-35391590D01*
X50964249Y-35394212D01*
X51042235Y-35405339D01*
X51103255Y-35410363D01*
X51136084Y-35408443D01*
X51138228Y-35407204D01*
X51138905Y-35383270D01*
X51133355Y-35323505D01*
X51122341Y-35233829D01*
X51106626Y-35120164D01*
X51086972Y-34988432D01*
X51071938Y-34892739D01*
X50991743Y-34392178D01*
X50899797Y-34405186D01*
X50814701Y-34417224D01*
X50726779Y-34429663D01*
X50715999Y-34431188D01*
X50624147Y-34444182D01*
X50575238Y-34144382D01*
X50557504Y-34026565D01*
X50546015Y-33930573D01*
X50541356Y-33862623D01*
X50544113Y-33828932D01*
X50545382Y-33827040D01*
X50574459Y-33815661D01*
X50633465Y-33801929D01*
X50710304Y-33788602D01*
X50720000Y-33787183D01*
X50795826Y-33775580D01*
X50853079Y-33765450D01*
X50880885Y-33758744D01*
X50881844Y-33758155D01*
X50880509Y-33736155D01*
X50872896Y-33679346D01*
X50860042Y-33594613D01*
X50842984Y-33488844D01*
X50826648Y-33391610D01*
X50806655Y-33270153D01*
X50790034Y-33160595D01*
X50777876Y-33070856D01*
X50771273Y-33008856D01*
X50770638Y-32985182D01*
X50775396Y-32971583D01*
X50788461Y-32967546D01*
X50814212Y-32975350D01*
G36*
X56480443Y-33818849D02*
G01*
X57173942Y-33818849D01*
X57194242Y-33971188D01*
X57247337Y-34104715D01*
X57328390Y-34215566D01*
X57432562Y-34299878D01*
X57555017Y-34353787D01*
X57690916Y-34373428D01*
X57835421Y-34354937D01*
X57842692Y-34352968D01*
X57933631Y-34310103D01*
X58022336Y-34238466D01*
X58096170Y-34150322D01*
X58140539Y-34063916D01*
X58171847Y-33917585D01*
X58168575Y-33774425D01*
X58134201Y-33640097D01*
X58072203Y-33520263D01*
X57986058Y-33420586D01*
X57879244Y-33346727D01*
X57755240Y-33304348D01*
X57669071Y-33296360D01*
X57528378Y-33315740D01*
X57405013Y-33370699D01*
X57303496Y-33456467D01*
X57228348Y-33568275D01*
X57184088Y-33701352D01*
X57173942Y-33818849D01*
X56480443Y-33818849D01*
X56475609Y-33790048D01*
X56455730Y-33673545D01*
X56440225Y-33584967D01*
X56429905Y-33529080D01*
X56425705Y-33510651D01*
X56400781Y-33507893D01*
X56345434Y-33512975D01*
X56269614Y-33524005D01*
X56183271Y-33539094D01*
X56096357Y-33556353D01*
X56018821Y-33573892D01*
X55960613Y-33589820D01*
X55931684Y-33602248D01*
X55930184Y-33604762D01*
X55933417Y-33632243D01*
X55942476Y-33695204D01*
X55956401Y-33787341D01*
X55974232Y-33902349D01*
X55995009Y-34033922D01*
X56006142Y-34103578D01*
X56039873Y-34327687D01*
X56062453Y-34515529D01*
X56073338Y-34671821D01*
X56071982Y-34801280D01*
X56057840Y-34908622D01*
X56030367Y-34998564D01*
X55989017Y-35075822D01*
X55933245Y-35145114D01*
X55879811Y-35196287D01*
X55786783Y-35258675D01*
X55666064Y-35311560D01*
X55532109Y-35349398D01*
X55444068Y-35363375D01*
X55357064Y-35365743D01*
X55250839Y-35359146D01*
X55142438Y-35345519D01*
X55048905Y-35326795D01*
X55006517Y-35313728D01*
X54982206Y-35311384D01*
X54979029Y-35337885D01*
X54981766Y-35354364D01*
X54992108Y-35408467D01*
X54249354Y-35529850D01*
X54075124Y-35558223D01*
X53912447Y-35584522D01*
X53766467Y-35607931D01*
X53642329Y-35627632D01*
X53545178Y-35642808D01*
X53480159Y-35652643D01*
X53453684Y-35656223D01*
X53408240Y-35664962D01*
X53336960Y-35683444D01*
X53254134Y-35707921D01*
X53242017Y-35711744D01*
X53103914Y-35744128D01*
X52948606Y-35761615D01*
X52789220Y-35764194D01*
X52638883Y-35751853D01*
X52510723Y-35724583D01*
X52475749Y-35712390D01*
X52328447Y-35632620D01*
X52203149Y-35521131D01*
X52107580Y-35385232D01*
X52087876Y-35345303D01*
X52054629Y-35263184D01*
X52036187Y-35189565D01*
X52028661Y-35104871D01*
X52028457Y-35090679D01*
X52723458Y-35090679D01*
X52730949Y-35102413D01*
X52773979Y-35133927D01*
X52804346Y-35144891D01*
X52880612Y-35149457D01*
X52975732Y-35140145D01*
X53069729Y-35119944D01*
X53136184Y-35095264D01*
X53220735Y-35042603D01*
X53269369Y-34983919D01*
X53288302Y-34909068D01*
X53287704Y-34848008D01*
X53284351Y-34801574D01*
X53194392Y-34840079D01*
X53128318Y-34867233D01*
X53041234Y-34901551D01*
X52951887Y-34935647D01*
X52951088Y-34935946D01*
X52837471Y-34982364D01*
X52763165Y-35022488D01*
X52725913Y-35058024D01*
X52723458Y-35090679D01*
X52028457Y-35090679D01*
X52027766Y-35042610D01*
X52039875Y-34888846D01*
X52079341Y-34756487D01*
X52133653Y-34661610D01*
X53517184Y-34661610D01*
X53527767Y-34672193D01*
X53538351Y-34661610D01*
X53527767Y-34651027D01*
X53517184Y-34661610D01*
X52133653Y-34661610D01*
X52151193Y-34630971D01*
X52185871Y-34584765D01*
X52252449Y-34500703D01*
X52146199Y-34514798D01*
X52083316Y-34521844D01*
X52050300Y-34518128D01*
X52035116Y-34498930D01*
X52027517Y-34468251D01*
X52019029Y-34422908D01*
X52005860Y-34347860D01*
X51989435Y-34251714D01*
X52628184Y-34251714D01*
X52631162Y-34274450D01*
X52644133Y-34286235D01*
X52673149Y-34286193D01*
X52724265Y-34273449D01*
X52803534Y-34247126D01*
X52900719Y-34212276D01*
X53012161Y-34169284D01*
X53085716Y-34134133D01*
X53124525Y-34104234D01*
X53131729Y-34076994D01*
X53110467Y-34049823D01*
X53103827Y-34044716D01*
X53036570Y-34018316D01*
X52952712Y-34017697D01*
X52862074Y-34038586D01*
X52774480Y-34076706D01*
X52699752Y-34127785D01*
X52647713Y-34187546D01*
X52628184Y-34251714D01*
X51989435Y-34251714D01*
X51989305Y-34250956D01*
X51970659Y-34140042D01*
X51951216Y-34022967D01*
X51932272Y-33907578D01*
X51915123Y-33801721D01*
X51901062Y-33713246D01*
X51891386Y-33649998D01*
X51887388Y-33619826D01*
X51887351Y-33618908D01*
X51907079Y-33608681D01*
X51961334Y-33594222D01*
X52042716Y-33577174D01*
X52143826Y-33559179D01*
X52188976Y-33551954D01*
X52311468Y-33531369D01*
X52432224Y-33508276D01*
X52538589Y-33485273D01*
X52617909Y-33464956D01*
X52628184Y-33461833D01*
X52716654Y-33439935D01*
X52826474Y-33421182D01*
X52936665Y-33409025D01*
X52957529Y-33407654D01*
X53147254Y-33410239D01*
X53310517Y-33442522D01*
X53453004Y-33506657D01*
X53580403Y-33604801D01*
X53639072Y-33665992D01*
X53717683Y-33775348D01*
X53766639Y-33895397D01*
X53789449Y-34036550D01*
X53792144Y-34120339D01*
X53775941Y-34282376D01*
X53725388Y-34424882D01*
X53636889Y-34557415D01*
X53620510Y-34576580D01*
X53548934Y-34658116D01*
X53638892Y-34643988D01*
X53720191Y-34631223D01*
X53801643Y-34618440D01*
X53811592Y-34616879D01*
X53894334Y-34603898D01*
X53920658Y-34767081D01*
X53946982Y-34930263D01*
X54065458Y-34915840D01*
X54133343Y-34905308D01*
X54183392Y-34893372D01*
X54200339Y-34885758D01*
X54200740Y-34862022D01*
X54194733Y-34801245D01*
X54182976Y-34708124D01*
X54166127Y-34587359D01*
X54144842Y-34443646D01*
X54119781Y-34281686D01*
X54091599Y-34106175D01*
X54089214Y-34091599D01*
X54060331Y-33914596D01*
X54033739Y-33750302D01*
X54010197Y-33603507D01*
X53990463Y-33479001D01*
X53975296Y-33381573D01*
X53965455Y-33316012D01*
X53961699Y-33287109D01*
X53961684Y-33286601D01*
X53979795Y-33274100D01*
X54034939Y-33257693D01*
X54128330Y-33237117D01*
X54261183Y-33212106D01*
X54434715Y-33182395D01*
X54458175Y-33178527D01*
X54597900Y-33156087D01*
X54723338Y-33136930D01*
X54828591Y-33121874D01*
X54907761Y-33111741D01*
X54954949Y-33107351D01*
X54965688Y-33107976D01*
X54972911Y-33131789D01*
X54985132Y-33189539D01*
X55000822Y-33273334D01*
X55018452Y-33375285D01*
X55024170Y-33409938D01*
X55043922Y-33531898D01*
X55055225Y-33618506D01*
X55055561Y-33676326D01*
X55042406Y-33711922D01*
X55013242Y-33731858D01*
X54965546Y-33742698D01*
X54896798Y-33751006D01*
X54893017Y-33751443D01*
X54823566Y-33761448D01*
X54770645Y-33772597D01*
X54751421Y-33779526D01*
X54745264Y-33804053D01*
X54747651Y-33865335D01*
X54758712Y-33964717D01*
X54778576Y-34103547D01*
X54789709Y-34174777D01*
X54809786Y-34299686D01*
X54828240Y-34412465D01*
X54843796Y-34505490D01*
X54855183Y-34571139D01*
X54860794Y-34600438D01*
X54889140Y-34639152D01*
X54949228Y-34676384D01*
X55030487Y-34709363D01*
X55122344Y-34735321D01*
X55214227Y-34751486D01*
X55295567Y-34755089D01*
X55355789Y-34743359D01*
X55371120Y-34734155D01*
X55381643Y-34723937D01*
X55389485Y-34710229D01*
X55394231Y-34689265D01*
X55395464Y-34657278D01*
X55392767Y-34610501D01*
X55385723Y-34545168D01*
X55373916Y-34457512D01*
X55356929Y-34343765D01*
X55334344Y-34200161D01*
X55305746Y-34022934D01*
X55270717Y-33808316D01*
X55264437Y-33769947D01*
X55237429Y-33603944D01*
X55213000Y-33451829D01*
X55191910Y-33318491D01*
X55174919Y-33208821D01*
X55162788Y-33127706D01*
X55156277Y-33080036D01*
X55155472Y-33069183D01*
X55178277Y-33063385D01*
X55237665Y-33052094D01*
X55328421Y-33036134D01*
X55445333Y-33016329D01*
X55583184Y-32993504D01*
X55736762Y-32968483D01*
X55900852Y-32942092D01*
X56070240Y-32915154D01*
X56239712Y-32888494D01*
X56404054Y-32862938D01*
X56558051Y-32839309D01*
X56696490Y-32818432D01*
X56814156Y-32801132D01*
X56905835Y-32788233D01*
X56966314Y-32780560D01*
X56990377Y-32778937D01*
X56990471Y-32778984D01*
X57005323Y-32807132D01*
X57009684Y-32842490D01*
X57009684Y-32894123D01*
X57110346Y-32821804D01*
X57269611Y-32730985D01*
X57450674Y-32667596D01*
X57640750Y-32634651D01*
X57827051Y-32635167D01*
X57875083Y-32641440D01*
X58093609Y-32696403D01*
X58289521Y-32785644D01*
X58460676Y-32906386D01*
X58604928Y-33055851D01*
X58720135Y-33231262D01*
X58804151Y-33429842D01*
X58854833Y-33648814D01*
X58870038Y-33885399D01*
X58868876Y-33928773D01*
X58860582Y-34135286D01*
X59017582Y-34107985D01*
X59093285Y-34094191D01*
X59150234Y-34082624D01*
X59177861Y-34075457D01*
X59178896Y-34074813D01*
X59176548Y-34053344D01*
X59168003Y-33994659D01*
X59153979Y-33903307D01*
X59135192Y-33783835D01*
X59112359Y-33640793D01*
X59086197Y-33478730D01*
X59057422Y-33302194D01*
X59051262Y-33264610D01*
X59022070Y-33085663D01*
X58995398Y-32920247D01*
X58971958Y-32772912D01*
X58952459Y-32648207D01*
X58937611Y-32550683D01*
X58928124Y-32484888D01*
X58924708Y-32455374D01*
X58924822Y-32454217D01*
X58946998Y-32448505D01*
X59003820Y-32437635D01*
X59088246Y-32422736D01*
X59193235Y-32404937D01*
X59311747Y-32385368D01*
X59436739Y-32365157D01*
X59561170Y-32345434D01*
X59678000Y-32327327D01*
X59780187Y-32311965D01*
X59860689Y-32300479D01*
X59912466Y-32293995D01*
X59928627Y-32293258D01*
X59935446Y-32316084D01*
X59946921Y-32371343D01*
X59961548Y-32449980D01*
X59977820Y-32542943D01*
X59994230Y-32641181D01*
X60009274Y-32735640D01*
X60021444Y-32817268D01*
X60029236Y-32877012D01*
X60031142Y-32905821D01*
X60030739Y-32907027D01*
X60007767Y-32913424D01*
X59953563Y-32923705D01*
X59878818Y-32935884D01*
X59860594Y-32938634D01*
X59781581Y-32953242D01*
X59724310Y-32969419D01*
X59698133Y-32984407D01*
X59697445Y-32986725D01*
X59700633Y-33014168D01*
X59709753Y-33076561D01*
X59723753Y-33167101D01*
X59741577Y-33278986D01*
X59762173Y-33405411D01*
X59764730Y-33420933D01*
X59832420Y-33831255D01*
X59925033Y-33872222D01*
X60000750Y-33899918D01*
X60092010Y-33925478D01*
X60141950Y-33936306D01*
X60216837Y-33947932D01*
X60265650Y-33947618D01*
X60303209Y-33934385D01*
X60319445Y-33924572D01*
X60354454Y-33894407D01*
X60365295Y-33856293D01*
X60361427Y-33809999D01*
X60355485Y-33770573D01*
X60343700Y-33694812D01*
X60326935Y-33588181D01*
X60306055Y-33456143D01*
X60281922Y-33304162D01*
X60255400Y-33137703D01*
X60233962Y-33003530D01*
X60207159Y-32833304D01*
X60183288Y-32676489D01*
X60163025Y-32537941D01*
X60147047Y-32422515D01*
X60136030Y-32335068D01*
X60130648Y-32280457D01*
X60130977Y-32263511D01*
X60154594Y-32256504D01*
X60212472Y-32244270D01*
X60297046Y-32228101D01*
X60400747Y-32209287D01*
X60516010Y-32189119D01*
X60635268Y-32168887D01*
X60750953Y-32149882D01*
X60855500Y-32133396D01*
X60941340Y-32120719D01*
X61000908Y-32113142D01*
X61021702Y-32111566D01*
X61039302Y-32114743D01*
X61053533Y-32128953D01*
X61066325Y-32160470D01*
X61079605Y-32215566D01*
X61095301Y-32300515D01*
X61113506Y-32410262D01*
X61132712Y-32534073D01*
X61144002Y-32621990D01*
X61147772Y-32679626D01*
X61144417Y-32712594D01*
X61135777Y-32725729D01*
X61100970Y-32737372D01*
X61040121Y-32749671D01*
X60995037Y-32756264D01*
X60929626Y-32765716D01*
X60897039Y-32777116D01*
X60887999Y-32796861D01*
X60892337Y-32827088D01*
X60916947Y-32954421D01*
X60942199Y-33101264D01*
X60966873Y-33258751D01*
X60989744Y-33418014D01*
X61009590Y-33570185D01*
X61025190Y-33706397D01*
X61035319Y-33817782D01*
X61038746Y-33889027D01*
X61035663Y-34016932D01*
X61021233Y-34115432D01*
X60991390Y-34196824D01*
X60942065Y-34273405D01*
X60891976Y-34332722D01*
X60803402Y-34414559D01*
X60701165Y-34474709D01*
X60574046Y-34518980D01*
X60497407Y-34537027D01*
X60368073Y-34552446D01*
X60226112Y-34550715D01*
X60089878Y-34532975D01*
X59990621Y-34505529D01*
X59953832Y-34495336D01*
X59943761Y-34511447D01*
X59946979Y-34542764D01*
X59955346Y-34599773D01*
X59454243Y-34679905D01*
X59314177Y-34701996D01*
X59188766Y-34721185D01*
X59083802Y-34736636D01*
X59005076Y-34747511D01*
X58958378Y-34752972D01*
X58947866Y-34753157D01*
X58942715Y-34730908D01*
X58932257Y-34674683D01*
X58917884Y-34592309D01*
X58900984Y-34491611D01*
X58896027Y-34461430D01*
X58872714Y-34324197D01*
X58854487Y-34228882D01*
X58841320Y-34175377D01*
X58833186Y-34163577D01*
X58830058Y-34193375D01*
X58830017Y-34200155D01*
X58818252Y-34252447D01*
X58786750Y-34328161D01*
X58741200Y-34416875D01*
X58687294Y-34508163D01*
X58630720Y-34591603D01*
X58585934Y-34647296D01*
X58435442Y-34783644D01*
X58260513Y-34886815D01*
X58064879Y-34955235D01*
X57852268Y-34987332D01*
X57774242Y-34989693D01*
X57670382Y-34985798D01*
X57570352Y-34975413D01*
X57492125Y-34960491D01*
X57484006Y-34958172D01*
X57410711Y-34936756D01*
X57371404Y-34930569D01*
X57359567Y-34942552D01*
X57368677Y-34975645D01*
X57380624Y-35004794D01*
X57441364Y-35109174D01*
X57525119Y-35182284D01*
X57635491Y-35226185D01*
X57776078Y-35242935D01*
X57797348Y-35243228D01*
X57949449Y-35230253D01*
X58084931Y-35187528D01*
X58213568Y-35110964D01*
X58312967Y-35027441D01*
X58449246Y-34899959D01*
X58703131Y-35105332D01*
X58790628Y-35177156D01*
X58865087Y-35240271D01*
X58920838Y-35289712D01*
X58952209Y-35320511D01*
X58957017Y-35327689D01*
X58941126Y-35354693D01*
X58898387Y-35400244D01*
X58836199Y-35458003D01*
X58761963Y-35521634D01*
X58683076Y-35584798D01*
X58606940Y-35641159D01*
X58540955Y-35684378D01*
X58539622Y-35685163D01*
X58395907Y-35760705D01*
X58255396Y-35813910D01*
X58105473Y-35848105D01*
X57933522Y-35866621D01*
X57835184Y-35871044D01*
X57706618Y-35873152D01*
X57607457Y-35870181D01*
X57524970Y-35861118D01*
X57446425Y-35844947D01*
X57419195Y-35837876D01*
X57273804Y-35791753D01*
X57155702Y-35736522D01*
X57049855Y-35663965D01*
X56966487Y-35590396D01*
X56850412Y-35456199D01*
X56764332Y-35301139D01*
X56706222Y-35127277D01*
X56695235Y-35076458D01*
X56678616Y-34989670D01*
X56657393Y-34872750D01*
X56632594Y-34731534D01*
X56605247Y-34571861D01*
X56576381Y-34399567D01*
X56553354Y-34259443D01*
X56525233Y-34087763D01*
X56499047Y-33929710D01*
X56480443Y-33818849D01*
G37*
X56480443Y-33818849D02*
X57173942Y-33818849D01*
X57194242Y-33971188D01*
X57247337Y-34104715D01*
X57328390Y-34215566D01*
X57432562Y-34299878D01*
X57555017Y-34353787D01*
X57690916Y-34373428D01*
X57835421Y-34354937D01*
X57842692Y-34352968D01*
X57933631Y-34310103D01*
X58022336Y-34238466D01*
X58096170Y-34150322D01*
X58140539Y-34063916D01*
X58171847Y-33917585D01*
X58168575Y-33774425D01*
X58134201Y-33640097D01*
X58072203Y-33520263D01*
X57986058Y-33420586D01*
X57879244Y-33346727D01*
X57755240Y-33304348D01*
X57669071Y-33296360D01*
X57528378Y-33315740D01*
X57405013Y-33370699D01*
X57303496Y-33456467D01*
X57228348Y-33568275D01*
X57184088Y-33701352D01*
X57173942Y-33818849D01*
X56480443Y-33818849D01*
X56475609Y-33790048D01*
X56455730Y-33673545D01*
X56440225Y-33584967D01*
X56429905Y-33529080D01*
X56425705Y-33510651D01*
X56400781Y-33507893D01*
X56345434Y-33512975D01*
X56269614Y-33524005D01*
X56183271Y-33539094D01*
X56096357Y-33556353D01*
X56018821Y-33573892D01*
X55960613Y-33589820D01*
X55931684Y-33602248D01*
X55930184Y-33604762D01*
X55933417Y-33632243D01*
X55942476Y-33695204D01*
X55956401Y-33787341D01*
X55974232Y-33902349D01*
X55995009Y-34033922D01*
X56006142Y-34103578D01*
X56039873Y-34327687D01*
X56062453Y-34515529D01*
X56073338Y-34671821D01*
X56071982Y-34801280D01*
X56057840Y-34908622D01*
X56030367Y-34998564D01*
X55989017Y-35075822D01*
X55933245Y-35145114D01*
X55879811Y-35196287D01*
X55786783Y-35258675D01*
X55666064Y-35311560D01*
X55532109Y-35349398D01*
X55444068Y-35363375D01*
X55357064Y-35365743D01*
X55250839Y-35359146D01*
X55142438Y-35345519D01*
X55048905Y-35326795D01*
X55006517Y-35313728D01*
X54982206Y-35311384D01*
X54979029Y-35337885D01*
X54981766Y-35354364D01*
X54992108Y-35408467D01*
X54249354Y-35529850D01*
X54075124Y-35558223D01*
X53912447Y-35584522D01*
X53766467Y-35607931D01*
X53642329Y-35627632D01*
X53545178Y-35642808D01*
X53480159Y-35652643D01*
X53453684Y-35656223D01*
X53408240Y-35664962D01*
X53336960Y-35683444D01*
X53254134Y-35707921D01*
X53242017Y-35711744D01*
X53103914Y-35744128D01*
X52948606Y-35761615D01*
X52789220Y-35764194D01*
X52638883Y-35751853D01*
X52510723Y-35724583D01*
X52475749Y-35712390D01*
X52328447Y-35632620D01*
X52203149Y-35521131D01*
X52107580Y-35385232D01*
X52087876Y-35345303D01*
X52054629Y-35263184D01*
X52036187Y-35189565D01*
X52028661Y-35104871D01*
X52028457Y-35090679D01*
X52723458Y-35090679D01*
X52730949Y-35102413D01*
X52773979Y-35133927D01*
X52804346Y-35144891D01*
X52880612Y-35149457D01*
X52975732Y-35140145D01*
X53069729Y-35119944D01*
X53136184Y-35095264D01*
X53220735Y-35042603D01*
X53269369Y-34983919D01*
X53288302Y-34909068D01*
X53287704Y-34848008D01*
X53284351Y-34801574D01*
X53194392Y-34840079D01*
X53128318Y-34867233D01*
X53041234Y-34901551D01*
X52951887Y-34935647D01*
X52951088Y-34935946D01*
X52837471Y-34982364D01*
X52763165Y-35022488D01*
X52725913Y-35058024D01*
X52723458Y-35090679D01*
X52028457Y-35090679D01*
X52027766Y-35042610D01*
X52039875Y-34888846D01*
X52079341Y-34756487D01*
X52133653Y-34661610D01*
X53517184Y-34661610D01*
X53527767Y-34672193D01*
X53538351Y-34661610D01*
X53527767Y-34651027D01*
X53517184Y-34661610D01*
X52133653Y-34661610D01*
X52151193Y-34630971D01*
X52185871Y-34584765D01*
X52252449Y-34500703D01*
X52146199Y-34514798D01*
X52083316Y-34521844D01*
X52050300Y-34518128D01*
X52035116Y-34498930D01*
X52027517Y-34468251D01*
X52019029Y-34422908D01*
X52005860Y-34347860D01*
X51989435Y-34251714D01*
X52628184Y-34251714D01*
X52631162Y-34274450D01*
X52644133Y-34286235D01*
X52673149Y-34286193D01*
X52724265Y-34273449D01*
X52803534Y-34247126D01*
X52900719Y-34212276D01*
X53012161Y-34169284D01*
X53085716Y-34134133D01*
X53124525Y-34104234D01*
X53131729Y-34076994D01*
X53110467Y-34049823D01*
X53103827Y-34044716D01*
X53036570Y-34018316D01*
X52952712Y-34017697D01*
X52862074Y-34038586D01*
X52774480Y-34076706D01*
X52699752Y-34127785D01*
X52647713Y-34187546D01*
X52628184Y-34251714D01*
X51989435Y-34251714D01*
X51989305Y-34250956D01*
X51970659Y-34140042D01*
X51951216Y-34022967D01*
X51932272Y-33907578D01*
X51915123Y-33801721D01*
X51901062Y-33713246D01*
X51891386Y-33649998D01*
X51887388Y-33619826D01*
X51887351Y-33618908D01*
X51907079Y-33608681D01*
X51961334Y-33594222D01*
X52042716Y-33577174D01*
X52143826Y-33559179D01*
X52188976Y-33551954D01*
X52311468Y-33531369D01*
X52432224Y-33508276D01*
X52538589Y-33485273D01*
X52617909Y-33464956D01*
X52628184Y-33461833D01*
X52716654Y-33439935D01*
X52826474Y-33421182D01*
X52936665Y-33409025D01*
X52957529Y-33407654D01*
X53147254Y-33410239D01*
X53310517Y-33442522D01*
X53453004Y-33506657D01*
X53580403Y-33604801D01*
X53639072Y-33665992D01*
X53717683Y-33775348D01*
X53766639Y-33895397D01*
X53789449Y-34036550D01*
X53792144Y-34120339D01*
X53775941Y-34282376D01*
X53725388Y-34424882D01*
X53636889Y-34557415D01*
X53620510Y-34576580D01*
X53548934Y-34658116D01*
X53638892Y-34643988D01*
X53720191Y-34631223D01*
X53801643Y-34618440D01*
X53811592Y-34616879D01*
X53894334Y-34603898D01*
X53920658Y-34767081D01*
X53946982Y-34930263D01*
X54065458Y-34915840D01*
X54133343Y-34905308D01*
X54183392Y-34893372D01*
X54200339Y-34885758D01*
X54200740Y-34862022D01*
X54194733Y-34801245D01*
X54182976Y-34708124D01*
X54166127Y-34587359D01*
X54144842Y-34443646D01*
X54119781Y-34281686D01*
X54091599Y-34106175D01*
X54089214Y-34091599D01*
X54060331Y-33914596D01*
X54033739Y-33750302D01*
X54010197Y-33603507D01*
X53990463Y-33479001D01*
X53975296Y-33381573D01*
X53965455Y-33316012D01*
X53961699Y-33287109D01*
X53961684Y-33286601D01*
X53979795Y-33274100D01*
X54034939Y-33257693D01*
X54128330Y-33237117D01*
X54261183Y-33212106D01*
X54434715Y-33182395D01*
X54458175Y-33178527D01*
X54597900Y-33156087D01*
X54723338Y-33136930D01*
X54828591Y-33121874D01*
X54907761Y-33111741D01*
X54954949Y-33107351D01*
X54965688Y-33107976D01*
X54972911Y-33131789D01*
X54985132Y-33189539D01*
X55000822Y-33273334D01*
X55018452Y-33375285D01*
X55024170Y-33409938D01*
X55043922Y-33531898D01*
X55055225Y-33618506D01*
X55055561Y-33676326D01*
X55042406Y-33711922D01*
X55013242Y-33731858D01*
X54965546Y-33742698D01*
X54896798Y-33751006D01*
X54893017Y-33751443D01*
X54823566Y-33761448D01*
X54770645Y-33772597D01*
X54751421Y-33779526D01*
X54745264Y-33804053D01*
X54747651Y-33865335D01*
X54758712Y-33964717D01*
X54778576Y-34103547D01*
X54789709Y-34174777D01*
X54809786Y-34299686D01*
X54828240Y-34412465D01*
X54843796Y-34505490D01*
X54855183Y-34571139D01*
X54860794Y-34600438D01*
X54889140Y-34639152D01*
X54949228Y-34676384D01*
X55030487Y-34709363D01*
X55122344Y-34735321D01*
X55214227Y-34751486D01*
X55295567Y-34755089D01*
X55355789Y-34743359D01*
X55371120Y-34734155D01*
X55381643Y-34723937D01*
X55389485Y-34710229D01*
X55394231Y-34689265D01*
X55395464Y-34657278D01*
X55392767Y-34610501D01*
X55385723Y-34545168D01*
X55373916Y-34457512D01*
X55356929Y-34343765D01*
X55334344Y-34200161D01*
X55305746Y-34022934D01*
X55270717Y-33808316D01*
X55264437Y-33769947D01*
X55237429Y-33603944D01*
X55213000Y-33451829D01*
X55191910Y-33318491D01*
X55174919Y-33208821D01*
X55162788Y-33127706D01*
X55156277Y-33080036D01*
X55155472Y-33069183D01*
X55178277Y-33063385D01*
X55237665Y-33052094D01*
X55328421Y-33036134D01*
X55445333Y-33016329D01*
X55583184Y-32993504D01*
X55736762Y-32968483D01*
X55900852Y-32942092D01*
X56070240Y-32915154D01*
X56239712Y-32888494D01*
X56404054Y-32862938D01*
X56558051Y-32839309D01*
X56696490Y-32818432D01*
X56814156Y-32801132D01*
X56905835Y-32788233D01*
X56966314Y-32780560D01*
X56990377Y-32778937D01*
X56990471Y-32778984D01*
X57005323Y-32807132D01*
X57009684Y-32842490D01*
X57009684Y-32894123D01*
X57110346Y-32821804D01*
X57269611Y-32730985D01*
X57450674Y-32667596D01*
X57640750Y-32634651D01*
X57827051Y-32635167D01*
X57875083Y-32641440D01*
X58093609Y-32696403D01*
X58289521Y-32785644D01*
X58460676Y-32906386D01*
X58604928Y-33055851D01*
X58720135Y-33231262D01*
X58804151Y-33429842D01*
X58854833Y-33648814D01*
X58870038Y-33885399D01*
X58868876Y-33928773D01*
X58860582Y-34135286D01*
X59017582Y-34107985D01*
X59093285Y-34094191D01*
X59150234Y-34082624D01*
X59177861Y-34075457D01*
X59178896Y-34074813D01*
X59176548Y-34053344D01*
X59168003Y-33994659D01*
X59153979Y-33903307D01*
X59135192Y-33783835D01*
X59112359Y-33640793D01*
X59086197Y-33478730D01*
X59057422Y-33302194D01*
X59051262Y-33264610D01*
X59022070Y-33085663D01*
X58995398Y-32920247D01*
X58971958Y-32772912D01*
X58952459Y-32648207D01*
X58937611Y-32550683D01*
X58928124Y-32484888D01*
X58924708Y-32455374D01*
X58924822Y-32454217D01*
X58946998Y-32448505D01*
X59003820Y-32437635D01*
X59088246Y-32422736D01*
X59193235Y-32404937D01*
X59311747Y-32385368D01*
X59436739Y-32365157D01*
X59561170Y-32345434D01*
X59678000Y-32327327D01*
X59780187Y-32311965D01*
X59860689Y-32300479D01*
X59912466Y-32293995D01*
X59928627Y-32293258D01*
X59935446Y-32316084D01*
X59946921Y-32371343D01*
X59961548Y-32449980D01*
X59977820Y-32542943D01*
X59994230Y-32641181D01*
X60009274Y-32735640D01*
X60021444Y-32817268D01*
X60029236Y-32877012D01*
X60031142Y-32905821D01*
X60030739Y-32907027D01*
X60007767Y-32913424D01*
X59953563Y-32923705D01*
X59878818Y-32935884D01*
X59860594Y-32938634D01*
X59781581Y-32953242D01*
X59724310Y-32969419D01*
X59698133Y-32984407D01*
X59697445Y-32986725D01*
X59700633Y-33014168D01*
X59709753Y-33076561D01*
X59723753Y-33167101D01*
X59741577Y-33278986D01*
X59762173Y-33405411D01*
X59764730Y-33420933D01*
X59832420Y-33831255D01*
X59925033Y-33872222D01*
X60000750Y-33899918D01*
X60092010Y-33925478D01*
X60141950Y-33936306D01*
X60216837Y-33947932D01*
X60265650Y-33947618D01*
X60303209Y-33934385D01*
X60319445Y-33924572D01*
X60354454Y-33894407D01*
X60365295Y-33856293D01*
X60361427Y-33809999D01*
X60355485Y-33770573D01*
X60343700Y-33694812D01*
X60326935Y-33588181D01*
X60306055Y-33456143D01*
X60281922Y-33304162D01*
X60255400Y-33137703D01*
X60233962Y-33003530D01*
X60207159Y-32833304D01*
X60183288Y-32676489D01*
X60163025Y-32537941D01*
X60147047Y-32422515D01*
X60136030Y-32335068D01*
X60130648Y-32280457D01*
X60130977Y-32263511D01*
X60154594Y-32256504D01*
X60212472Y-32244270D01*
X60297046Y-32228101D01*
X60400747Y-32209287D01*
X60516010Y-32189119D01*
X60635268Y-32168887D01*
X60750953Y-32149882D01*
X60855500Y-32133396D01*
X60941340Y-32120719D01*
X61000908Y-32113142D01*
X61021702Y-32111566D01*
X61039302Y-32114743D01*
X61053533Y-32128953D01*
X61066325Y-32160470D01*
X61079605Y-32215566D01*
X61095301Y-32300515D01*
X61113506Y-32410262D01*
X61132712Y-32534073D01*
X61144002Y-32621990D01*
X61147772Y-32679626D01*
X61144417Y-32712594D01*
X61135777Y-32725729D01*
X61100970Y-32737372D01*
X61040121Y-32749671D01*
X60995037Y-32756264D01*
X60929626Y-32765716D01*
X60897039Y-32777116D01*
X60887999Y-32796861D01*
X60892337Y-32827088D01*
X60916947Y-32954421D01*
X60942199Y-33101264D01*
X60966873Y-33258751D01*
X60989744Y-33418014D01*
X61009590Y-33570185D01*
X61025190Y-33706397D01*
X61035319Y-33817782D01*
X61038746Y-33889027D01*
X61035663Y-34016932D01*
X61021233Y-34115432D01*
X60991390Y-34196824D01*
X60942065Y-34273405D01*
X60891976Y-34332722D01*
X60803402Y-34414559D01*
X60701165Y-34474709D01*
X60574046Y-34518980D01*
X60497407Y-34537027D01*
X60368073Y-34552446D01*
X60226112Y-34550715D01*
X60089878Y-34532975D01*
X59990621Y-34505529D01*
X59953832Y-34495336D01*
X59943761Y-34511447D01*
X59946979Y-34542764D01*
X59955346Y-34599773D01*
X59454243Y-34679905D01*
X59314177Y-34701996D01*
X59188766Y-34721185D01*
X59083802Y-34736636D01*
X59005076Y-34747511D01*
X58958378Y-34752972D01*
X58947866Y-34753157D01*
X58942715Y-34730908D01*
X58932257Y-34674683D01*
X58917884Y-34592309D01*
X58900984Y-34491611D01*
X58896027Y-34461430D01*
X58872714Y-34324197D01*
X58854487Y-34228882D01*
X58841320Y-34175377D01*
X58833186Y-34163577D01*
X58830058Y-34193375D01*
X58830017Y-34200155D01*
X58818252Y-34252447D01*
X58786750Y-34328161D01*
X58741200Y-34416875D01*
X58687294Y-34508163D01*
X58630720Y-34591603D01*
X58585934Y-34647296D01*
X58435442Y-34783644D01*
X58260513Y-34886815D01*
X58064879Y-34955235D01*
X57852268Y-34987332D01*
X57774242Y-34989693D01*
X57670382Y-34985798D01*
X57570352Y-34975413D01*
X57492125Y-34960491D01*
X57484006Y-34958172D01*
X57410711Y-34936756D01*
X57371404Y-34930569D01*
X57359567Y-34942552D01*
X57368677Y-34975645D01*
X57380624Y-35004794D01*
X57441364Y-35109174D01*
X57525119Y-35182284D01*
X57635491Y-35226185D01*
X57776078Y-35242935D01*
X57797348Y-35243228D01*
X57949449Y-35230253D01*
X58084931Y-35187528D01*
X58213568Y-35110964D01*
X58312967Y-35027441D01*
X58449246Y-34899959D01*
X58703131Y-35105332D01*
X58790628Y-35177156D01*
X58865087Y-35240271D01*
X58920838Y-35289712D01*
X58952209Y-35320511D01*
X58957017Y-35327689D01*
X58941126Y-35354693D01*
X58898387Y-35400244D01*
X58836199Y-35458003D01*
X58761963Y-35521634D01*
X58683076Y-35584798D01*
X58606940Y-35641159D01*
X58540955Y-35684378D01*
X58539622Y-35685163D01*
X58395907Y-35760705D01*
X58255396Y-35813910D01*
X58105473Y-35848105D01*
X57933522Y-35866621D01*
X57835184Y-35871044D01*
X57706618Y-35873152D01*
X57607457Y-35870181D01*
X57524970Y-35861118D01*
X57446425Y-35844947D01*
X57419195Y-35837876D01*
X57273804Y-35791753D01*
X57155702Y-35736522D01*
X57049855Y-35663965D01*
X56966487Y-35590396D01*
X56850412Y-35456199D01*
X56764332Y-35301139D01*
X56706222Y-35127277D01*
X56695235Y-35076458D01*
X56678616Y-34989670D01*
X56657393Y-34872750D01*
X56632594Y-34731534D01*
X56605247Y-34571861D01*
X56576381Y-34399567D01*
X56553354Y-34259443D01*
X56525233Y-34087763D01*
X56499047Y-33929710D01*
X56480443Y-33818849D01*
G36*
X61703417Y-32546222D02*
G01*
X62373404Y-32546222D01*
X62575502Y-32515317D01*
X62662644Y-32501648D01*
X62732372Y-32490062D01*
X62775269Y-32482158D01*
X62784201Y-32479856D01*
X62777107Y-32460618D01*
X62753263Y-32410340D01*
X62715812Y-32335348D01*
X62667896Y-32241971D01*
X62631071Y-32171454D01*
X62577570Y-32070399D01*
X62531574Y-31984880D01*
X62496346Y-31920857D01*
X62475152Y-31884291D01*
X62470416Y-31878193D01*
X62467191Y-31901713D01*
X62458893Y-31959734D01*
X62446586Y-32044872D01*
X62431337Y-32149744D01*
X62421447Y-32217499D01*
X62373404Y-32546222D01*
X61703417Y-32546222D01*
X61706913Y-32528037D01*
X61742198Y-32343525D01*
X61774141Y-32175573D01*
X61801940Y-32028429D01*
X61824797Y-31906342D01*
X61841912Y-31813563D01*
X61852484Y-31754340D01*
X61855741Y-31733332D01*
X61846249Y-31716852D01*
X61810538Y-31713168D01*
X61756309Y-31718821D01*
X61684708Y-31729438D01*
X61634279Y-31734219D01*
X61600112Y-31727409D01*
X61577293Y-31703251D01*
X61560912Y-31655992D01*
X61546057Y-31579874D01*
X61527815Y-31469144D01*
X61524060Y-31446680D01*
X61506697Y-31340884D01*
X61492853Y-31251323D01*
X61483635Y-31185591D01*
X61480152Y-31151284D01*
X61480502Y-31148098D01*
X61501997Y-31143805D01*
X61560764Y-31133546D01*
X61652279Y-31118072D01*
X61772019Y-31098136D01*
X61915459Y-31074490D01*
X62078076Y-31047887D01*
X62255344Y-31019077D01*
X62301351Y-31011629D01*
X62483443Y-30982098D01*
X62653618Y-30954351D01*
X62807065Y-30929183D01*
X62938976Y-30907391D01*
X63044539Y-30889769D01*
X63118944Y-30877113D01*
X63157382Y-30870218D01*
X63160452Y-30869572D01*
X63178640Y-30868010D01*
X63192852Y-30877183D01*
X63205178Y-30903364D01*
X63217702Y-30952828D01*
X63232513Y-31031851D01*
X63250799Y-31141220D01*
X63267792Y-31246819D01*
X63281907Y-31338036D01*
X63291875Y-31406396D01*
X63296426Y-31443424D01*
X63296572Y-31446614D01*
X63277178Y-31461502D01*
X63226964Y-31477120D01*
X63163892Y-31488948D01*
X63096180Y-31501095D01*
X63049675Y-31514268D01*
X63034951Y-31524725D01*
X63045576Y-31546136D01*
X63074708Y-31600856D01*
X63120320Y-31685175D01*
X63180385Y-31795380D01*
X63252874Y-31927763D01*
X63335761Y-32078611D01*
X63427019Y-32244215D01*
X63519135Y-32410948D01*
X63999968Y-33280223D01*
X64097867Y-33266151D01*
X64184671Y-33254103D01*
X64274952Y-33242188D01*
X64291742Y-33240062D01*
X64387717Y-33228045D01*
X64437462Y-33538052D01*
X64454377Y-33647136D01*
X64467714Y-33740355D01*
X64476492Y-33810241D01*
X64479730Y-33849323D01*
X64479071Y-33854918D01*
X64456121Y-33860564D01*
X64397573Y-33871548D01*
X64309402Y-33886922D01*
X64197584Y-33905737D01*
X64068098Y-33927045D01*
X63926918Y-33949898D01*
X63780023Y-33973348D01*
X63633388Y-33996447D01*
X63492991Y-34018247D01*
X63364807Y-34037799D01*
X63254814Y-34054155D01*
X63168989Y-34066367D01*
X63113307Y-34073487D01*
X63093785Y-34074683D01*
X63087630Y-34051895D01*
X63076352Y-33994829D01*
X63061333Y-33911039D01*
X63043954Y-33808077D01*
X63035689Y-33757231D01*
X62986045Y-33448229D01*
X63082906Y-33434276D01*
X63175127Y-33421046D01*
X63230192Y-33408200D01*
X63252390Y-33387498D01*
X63246009Y-33350699D01*
X63215340Y-33289564D01*
X63186111Y-33236014D01*
X63146217Y-33162564D01*
X63114630Y-33104854D01*
X63096246Y-33071811D01*
X63093662Y-33067466D01*
X63072237Y-33068357D01*
X63016952Y-33075410D01*
X62935619Y-33087332D01*
X62836050Y-33102827D01*
X62726056Y-33120601D01*
X62613451Y-33139361D01*
X62506044Y-33157811D01*
X62411649Y-33174658D01*
X62338076Y-33188607D01*
X62293138Y-33198363D01*
X62283047Y-33201774D01*
X62274910Y-33226268D01*
X62263628Y-33279904D01*
X62251085Y-33350720D01*
X62239168Y-33426754D01*
X62229760Y-33496045D01*
X62224746Y-33546630D01*
X62225599Y-33566331D01*
X62248839Y-33566928D01*
X62301660Y-33560704D01*
X62364851Y-33550360D01*
X62434665Y-33539564D01*
X62486282Y-33535062D01*
X62507021Y-33537308D01*
X62513959Y-33560608D01*
X62525550Y-33616285D01*
X62540295Y-33695340D01*
X62556694Y-33788776D01*
X62573247Y-33887594D01*
X62588454Y-33982794D01*
X62600816Y-34065379D01*
X62608832Y-34126349D01*
X62611004Y-34156707D01*
X62610535Y-34158397D01*
X62588921Y-34163193D01*
X62530619Y-34173861D01*
X62440734Y-34189527D01*
X62324371Y-34209318D01*
X62186635Y-34232361D01*
X62032632Y-34257784D01*
X61960755Y-34269543D01*
X61798784Y-34295987D01*
X61648658Y-34320530D01*
X61515925Y-34342260D01*
X61406132Y-34360269D01*
X61324828Y-34373648D01*
X61277561Y-34381487D01*
X61269476Y-34382860D01*
X61232359Y-34384503D01*
X61221307Y-34378216D01*
X61217891Y-34353776D01*
X61208866Y-34295318D01*
X61195453Y-34210602D01*
X61178873Y-34107388D01*
X61171488Y-34061798D01*
X61151132Y-33928050D01*
X61139952Y-33833331D01*
X61137758Y-33775386D01*
X61144364Y-33751960D01*
X61145574Y-33751407D01*
X61176656Y-33744507D01*
X61237161Y-33732667D01*
X61314816Y-33718279D01*
X61326236Y-33716219D01*
X61483538Y-33687943D01*
X61669085Y-32724860D01*
X61703417Y-32546222D01*
G37*
X61703417Y-32546222D02*
X62373404Y-32546222D01*
X62575502Y-32515317D01*
X62662644Y-32501648D01*
X62732372Y-32490062D01*
X62775269Y-32482158D01*
X62784201Y-32479856D01*
X62777107Y-32460618D01*
X62753263Y-32410340D01*
X62715812Y-32335348D01*
X62667896Y-32241971D01*
X62631071Y-32171454D01*
X62577570Y-32070399D01*
X62531574Y-31984880D01*
X62496346Y-31920857D01*
X62475152Y-31884291D01*
X62470416Y-31878193D01*
X62467191Y-31901713D01*
X62458893Y-31959734D01*
X62446586Y-32044872D01*
X62431337Y-32149744D01*
X62421447Y-32217499D01*
X62373404Y-32546222D01*
X61703417Y-32546222D01*
X61706913Y-32528037D01*
X61742198Y-32343525D01*
X61774141Y-32175573D01*
X61801940Y-32028429D01*
X61824797Y-31906342D01*
X61841912Y-31813563D01*
X61852484Y-31754340D01*
X61855741Y-31733332D01*
X61846249Y-31716852D01*
X61810538Y-31713168D01*
X61756309Y-31718821D01*
X61684708Y-31729438D01*
X61634279Y-31734219D01*
X61600112Y-31727409D01*
X61577293Y-31703251D01*
X61560912Y-31655992D01*
X61546057Y-31579874D01*
X61527815Y-31469144D01*
X61524060Y-31446680D01*
X61506697Y-31340884D01*
X61492853Y-31251323D01*
X61483635Y-31185591D01*
X61480152Y-31151284D01*
X61480502Y-31148098D01*
X61501997Y-31143805D01*
X61560764Y-31133546D01*
X61652279Y-31118072D01*
X61772019Y-31098136D01*
X61915459Y-31074490D01*
X62078076Y-31047887D01*
X62255344Y-31019077D01*
X62301351Y-31011629D01*
X62483443Y-30982098D01*
X62653618Y-30954351D01*
X62807065Y-30929183D01*
X62938976Y-30907391D01*
X63044539Y-30889769D01*
X63118944Y-30877113D01*
X63157382Y-30870218D01*
X63160452Y-30869572D01*
X63178640Y-30868010D01*
X63192852Y-30877183D01*
X63205178Y-30903364D01*
X63217702Y-30952828D01*
X63232513Y-31031851D01*
X63250799Y-31141220D01*
X63267792Y-31246819D01*
X63281907Y-31338036D01*
X63291875Y-31406396D01*
X63296426Y-31443424D01*
X63296572Y-31446614D01*
X63277178Y-31461502D01*
X63226964Y-31477120D01*
X63163892Y-31488948D01*
X63096180Y-31501095D01*
X63049675Y-31514268D01*
X63034951Y-31524725D01*
X63045576Y-31546136D01*
X63074708Y-31600856D01*
X63120320Y-31685175D01*
X63180385Y-31795380D01*
X63252874Y-31927763D01*
X63335761Y-32078611D01*
X63427019Y-32244215D01*
X63519135Y-32410948D01*
X63999968Y-33280223D01*
X64097867Y-33266151D01*
X64184671Y-33254103D01*
X64274952Y-33242188D01*
X64291742Y-33240062D01*
X64387717Y-33228045D01*
X64437462Y-33538052D01*
X64454377Y-33647136D01*
X64467714Y-33740355D01*
X64476492Y-33810241D01*
X64479730Y-33849323D01*
X64479071Y-33854918D01*
X64456121Y-33860564D01*
X64397573Y-33871548D01*
X64309402Y-33886922D01*
X64197584Y-33905737D01*
X64068098Y-33927045D01*
X63926918Y-33949898D01*
X63780023Y-33973348D01*
X63633388Y-33996447D01*
X63492991Y-34018247D01*
X63364807Y-34037799D01*
X63254814Y-34054155D01*
X63168989Y-34066367D01*
X63113307Y-34073487D01*
X63093785Y-34074683D01*
X63087630Y-34051895D01*
X63076352Y-33994829D01*
X63061333Y-33911039D01*
X63043954Y-33808077D01*
X63035689Y-33757231D01*
X62986045Y-33448229D01*
X63082906Y-33434276D01*
X63175127Y-33421046D01*
X63230192Y-33408200D01*
X63252390Y-33387498D01*
X63246009Y-33350699D01*
X63215340Y-33289564D01*
X63186111Y-33236014D01*
X63146217Y-33162564D01*
X63114630Y-33104854D01*
X63096246Y-33071811D01*
X63093662Y-33067466D01*
X63072237Y-33068357D01*
X63016952Y-33075410D01*
X62935619Y-33087332D01*
X62836050Y-33102827D01*
X62726056Y-33120601D01*
X62613451Y-33139361D01*
X62506044Y-33157811D01*
X62411649Y-33174658D01*
X62338076Y-33188607D01*
X62293138Y-33198363D01*
X62283047Y-33201774D01*
X62274910Y-33226268D01*
X62263628Y-33279904D01*
X62251085Y-33350720D01*
X62239168Y-33426754D01*
X62229760Y-33496045D01*
X62224746Y-33546630D01*
X62225599Y-33566331D01*
X62248839Y-33566928D01*
X62301660Y-33560704D01*
X62364851Y-33550360D01*
X62434665Y-33539564D01*
X62486282Y-33535062D01*
X62507021Y-33537308D01*
X62513959Y-33560608D01*
X62525550Y-33616285D01*
X62540295Y-33695340D01*
X62556694Y-33788776D01*
X62573247Y-33887594D01*
X62588454Y-33982794D01*
X62600816Y-34065379D01*
X62608832Y-34126349D01*
X62611004Y-34156707D01*
X62610535Y-34158397D01*
X62588921Y-34163193D01*
X62530619Y-34173861D01*
X62440734Y-34189527D01*
X62324371Y-34209318D01*
X62186635Y-34232361D01*
X62032632Y-34257784D01*
X61960755Y-34269543D01*
X61798784Y-34295987D01*
X61648658Y-34320530D01*
X61515925Y-34342260D01*
X61406132Y-34360269D01*
X61324828Y-34373648D01*
X61277561Y-34381487D01*
X61269476Y-34382860D01*
X61232359Y-34384503D01*
X61221307Y-34378216D01*
X61217891Y-34353776D01*
X61208866Y-34295318D01*
X61195453Y-34210602D01*
X61178873Y-34107388D01*
X61171488Y-34061798D01*
X61151132Y-33928050D01*
X61139952Y-33833331D01*
X61137758Y-33775386D01*
X61144364Y-33751960D01*
X61145574Y-33751407D01*
X61176656Y-33744507D01*
X61237161Y-33732667D01*
X61314816Y-33718279D01*
X61326236Y-33716219D01*
X61483538Y-33687943D01*
X61669085Y-32724860D01*
X61703417Y-32546222D01*
G36*
X66406741Y-30371916D02*
G01*
X66592064Y-30424090D01*
X66753550Y-30509829D01*
X66889355Y-30627935D01*
X66997638Y-30777208D01*
X67062311Y-30915854D01*
X67083152Y-30979587D01*
X67105588Y-31060925D01*
X67127407Y-31149878D01*
X67146397Y-31236456D01*
X67160345Y-31310666D01*
X67167041Y-31362519D01*
X67165412Y-31381520D01*
X67142427Y-31387875D01*
X67085665Y-31399133D01*
X67003195Y-31413806D01*
X66903089Y-31430407D01*
X66882765Y-31433652D01*
X66775059Y-31450910D01*
X66678375Y-31466704D01*
X66602606Y-31479398D01*
X66557647Y-31487354D01*
X66554942Y-31487883D01*
X66525112Y-31490917D01*
X66505937Y-31479409D01*
X66491582Y-31444673D01*
X66476215Y-31378023D01*
X66474002Y-31367352D01*
X66431899Y-31212449D01*
X66376758Y-31096899D01*
X66306856Y-31019259D01*
X66220469Y-30978090D01*
X66115874Y-30971948D01*
X66022753Y-30989930D01*
X65934111Y-31034850D01*
X65868765Y-31109100D01*
X65830551Y-31204415D01*
X65823303Y-31312530D01*
X65837812Y-31388448D01*
X65872215Y-31468105D01*
X65923631Y-31525289D01*
X65996457Y-31561301D01*
X66095090Y-31577439D01*
X66223928Y-31575005D01*
X66387367Y-31555299D01*
X66397101Y-31553794D01*
X66481178Y-31541098D01*
X66547355Y-31531908D01*
X66586070Y-31527513D01*
X66592137Y-31527514D01*
X66596888Y-31548466D01*
X66606949Y-31603879D01*
X66621051Y-31686396D01*
X66637919Y-31788660D01*
X66646639Y-31842687D01*
X66696605Y-32154414D01*
X66652686Y-32162749D01*
X66612705Y-32170192D01*
X66543383Y-32182961D01*
X66457025Y-32198794D01*
X66418918Y-32205760D01*
X66246371Y-32249442D01*
X66109503Y-32310349D01*
X66009280Y-32387420D01*
X65946667Y-32479592D01*
X65922631Y-32585804D01*
X65938137Y-32704994D01*
X65944949Y-32726993D01*
X66000229Y-32833357D01*
X66083600Y-32908451D01*
X66193634Y-32951351D01*
X66307269Y-32961810D01*
X66447290Y-32943379D01*
X66572044Y-32894939D01*
X66672909Y-32820611D01*
X66718350Y-32765342D01*
X66744788Y-32722559D01*
X66762199Y-32682765D01*
X66772622Y-32635417D01*
X66778097Y-32569970D01*
X66780664Y-32475882D01*
X66781169Y-32440673D01*
X66784238Y-32206277D01*
X67093774Y-32155520D01*
X67203121Y-32138395D01*
X67297006Y-32125219D01*
X67367840Y-32116937D01*
X67408032Y-32114496D01*
X67414136Y-32115590D01*
X67426359Y-32146643D01*
X67438847Y-32209459D01*
X67450299Y-32293498D01*
X67459414Y-32388218D01*
X67464894Y-32483078D01*
X67465895Y-32535204D01*
X67447524Y-32748263D01*
X67393170Y-32943134D01*
X67304475Y-33116879D01*
X67183084Y-33266560D01*
X67030642Y-33389237D01*
X66966818Y-33427130D01*
X66814046Y-33493243D01*
X66635600Y-33542929D01*
X66444913Y-33574303D01*
X66255421Y-33585483D01*
X66080557Y-33574584D01*
X66008287Y-33561536D01*
X65803454Y-33498186D01*
X65631212Y-33408247D01*
X65490227Y-33290447D01*
X65379162Y-33143517D01*
X65296681Y-32966183D01*
X65262086Y-32851576D01*
X65228312Y-32648212D01*
X65233853Y-32460423D01*
X65278757Y-32287965D01*
X65363072Y-32130595D01*
X65418654Y-32059074D01*
X65488734Y-31978004D01*
X65381183Y-31869890D01*
X65280652Y-31750190D01*
X65210338Y-31619377D01*
X65163473Y-31464349D01*
X65157904Y-31437467D01*
X65138524Y-31242168D01*
X65157763Y-31059640D01*
X65213155Y-30892448D01*
X65302235Y-30743154D01*
X65422536Y-30614323D01*
X65571593Y-30508518D01*
X65746941Y-30428303D01*
X65946115Y-30376242D01*
X66166647Y-30354898D01*
X66199423Y-30354506D01*
X66406741Y-30371916D01*
G37*
X66406741Y-30371916D02*
X66592064Y-30424090D01*
X66753550Y-30509829D01*
X66889355Y-30627935D01*
X66997638Y-30777208D01*
X67062311Y-30915854D01*
X67083152Y-30979587D01*
X67105588Y-31060925D01*
X67127407Y-31149878D01*
X67146397Y-31236456D01*
X67160345Y-31310666D01*
X67167041Y-31362519D01*
X67165412Y-31381520D01*
X67142427Y-31387875D01*
X67085665Y-31399133D01*
X67003195Y-31413806D01*
X66903089Y-31430407D01*
X66882765Y-31433652D01*
X66775059Y-31450910D01*
X66678375Y-31466704D01*
X66602606Y-31479398D01*
X66557647Y-31487354D01*
X66554942Y-31487883D01*
X66525112Y-31490917D01*
X66505937Y-31479409D01*
X66491582Y-31444673D01*
X66476215Y-31378023D01*
X66474002Y-31367352D01*
X66431899Y-31212449D01*
X66376758Y-31096899D01*
X66306856Y-31019259D01*
X66220469Y-30978090D01*
X66115874Y-30971948D01*
X66022753Y-30989930D01*
X65934111Y-31034850D01*
X65868765Y-31109100D01*
X65830551Y-31204415D01*
X65823303Y-31312530D01*
X65837812Y-31388448D01*
X65872215Y-31468105D01*
X65923631Y-31525289D01*
X65996457Y-31561301D01*
X66095090Y-31577439D01*
X66223928Y-31575005D01*
X66387367Y-31555299D01*
X66397101Y-31553794D01*
X66481178Y-31541098D01*
X66547355Y-31531908D01*
X66586070Y-31527513D01*
X66592137Y-31527514D01*
X66596888Y-31548466D01*
X66606949Y-31603879D01*
X66621051Y-31686396D01*
X66637919Y-31788660D01*
X66646639Y-31842687D01*
X66696605Y-32154414D01*
X66652686Y-32162749D01*
X66612705Y-32170192D01*
X66543383Y-32182961D01*
X66457025Y-32198794D01*
X66418918Y-32205760D01*
X66246371Y-32249442D01*
X66109503Y-32310349D01*
X66009280Y-32387420D01*
X65946667Y-32479592D01*
X65922631Y-32585804D01*
X65938137Y-32704994D01*
X65944949Y-32726993D01*
X66000229Y-32833357D01*
X66083600Y-32908451D01*
X66193634Y-32951351D01*
X66307269Y-32961810D01*
X66447290Y-32943379D01*
X66572044Y-32894939D01*
X66672909Y-32820611D01*
X66718350Y-32765342D01*
X66744788Y-32722559D01*
X66762199Y-32682765D01*
X66772622Y-32635417D01*
X66778097Y-32569970D01*
X66780664Y-32475882D01*
X66781169Y-32440673D01*
X66784238Y-32206277D01*
X67093774Y-32155520D01*
X67203121Y-32138395D01*
X67297006Y-32125219D01*
X67367840Y-32116937D01*
X67408032Y-32114496D01*
X67414136Y-32115590D01*
X67426359Y-32146643D01*
X67438847Y-32209459D01*
X67450299Y-32293498D01*
X67459414Y-32388218D01*
X67464894Y-32483078D01*
X67465895Y-32535204D01*
X67447524Y-32748263D01*
X67393170Y-32943134D01*
X67304475Y-33116879D01*
X67183084Y-33266560D01*
X67030642Y-33389237D01*
X66966818Y-33427130D01*
X66814046Y-33493243D01*
X66635600Y-33542929D01*
X66444913Y-33574303D01*
X66255421Y-33585483D01*
X66080557Y-33574584D01*
X66008287Y-33561536D01*
X65803454Y-33498186D01*
X65631212Y-33408247D01*
X65490227Y-33290447D01*
X65379162Y-33143517D01*
X65296681Y-32966183D01*
X65262086Y-32851576D01*
X65228312Y-32648212D01*
X65233853Y-32460423D01*
X65278757Y-32287965D01*
X65363072Y-32130595D01*
X65418654Y-32059074D01*
X65488734Y-31978004D01*
X65381183Y-31869890D01*
X65280652Y-31750190D01*
X65210338Y-31619377D01*
X65163473Y-31464349D01*
X65157904Y-31437467D01*
X65138524Y-31242168D01*
X65157763Y-31059640D01*
X65213155Y-30892448D01*
X65302235Y-30743154D01*
X65422536Y-30614323D01*
X65571593Y-30508518D01*
X65746941Y-30428303D01*
X65946115Y-30376242D01*
X66166647Y-30354898D01*
X66199423Y-30354506D01*
X66406741Y-30371916D01*
G36*
X68901103Y-29941702D02*
G01*
X68914412Y-29961818D01*
X68927840Y-30005377D01*
X68943092Y-30078185D01*
X68961873Y-30186051D01*
X68965971Y-30210929D01*
X68982997Y-30317526D01*
X68997113Y-30410918D01*
X69007030Y-30482196D01*
X69011459Y-30522453D01*
X69011572Y-30526051D01*
X69001781Y-30544820D01*
X68968470Y-30560814D01*
X68905022Y-30576323D01*
X68825976Y-30590267D01*
X68736754Y-30605771D01*
X68681866Y-30619077D01*
X68653635Y-30633208D01*
X68644384Y-30651192D01*
X68644408Y-30661825D01*
X68648658Y-30693013D01*
X68658807Y-30759887D01*
X68673992Y-30857121D01*
X68693349Y-30979389D01*
X68716014Y-31121365D01*
X68741123Y-31277724D01*
X68767812Y-31443140D01*
X68795217Y-31612287D01*
X68822475Y-31779839D01*
X68848722Y-31940470D01*
X68873094Y-32088855D01*
X68894726Y-32219668D01*
X68912755Y-32327583D01*
X68926318Y-32407274D01*
X68934550Y-32453416D01*
X68936493Y-32462563D01*
X68955066Y-32472503D01*
X69004090Y-32472182D01*
X69088029Y-32461426D01*
X69127098Y-32455059D01*
X69210029Y-32442227D01*
X69275738Y-32434306D01*
X69314154Y-32432412D01*
X69319751Y-32433705D01*
X69326398Y-32456938D01*
X69338160Y-32514304D01*
X69353587Y-32598112D01*
X69371225Y-32700675D01*
X69378507Y-32744815D01*
X69399037Y-32879625D01*
X69410141Y-32974907D01*
X69411963Y-33032371D01*
X69404649Y-33053727D01*
X69404629Y-33053733D01*
X69377933Y-33059046D01*
X69315647Y-33069913D01*
X69223906Y-33085348D01*
X69108845Y-33104367D01*
X68976599Y-33125984D01*
X68833303Y-33149213D01*
X68685092Y-33173069D01*
X68538102Y-33196566D01*
X68398466Y-33218720D01*
X68272320Y-33238544D01*
X68165799Y-33255054D01*
X68085038Y-33267263D01*
X68036172Y-33274187D01*
X68024647Y-33275394D01*
X68012345Y-33255310D01*
X67995977Y-33199178D01*
X67976973Y-33112923D01*
X67956769Y-33002470D01*
X67952678Y-32977804D01*
X67935100Y-32860912D01*
X67923733Y-32765614D01*
X67919170Y-32698220D01*
X67922001Y-32665035D01*
X67923215Y-32663290D01*
X67952185Y-32651878D01*
X68011149Y-32637507D01*
X68088170Y-32623025D01*
X68100191Y-32621074D01*
X68176287Y-32608491D01*
X68233687Y-32598065D01*
X68261779Y-32591746D01*
X68262908Y-32591192D01*
X68260456Y-32570028D01*
X68251708Y-32510778D01*
X68237250Y-32417122D01*
X68217668Y-32292745D01*
X68193549Y-32141328D01*
X68165478Y-31966555D01*
X68134042Y-31772108D01*
X68099827Y-31561670D01*
X68068470Y-31369755D01*
X68032175Y-31147772D01*
X67997994Y-30938058D01*
X67966533Y-30744373D01*
X67938396Y-30570476D01*
X67914189Y-30420125D01*
X67894519Y-30297080D01*
X67879989Y-30205099D01*
X67871207Y-30147942D01*
X67868712Y-30129552D01*
X67888953Y-30118596D01*
X67947822Y-30102791D01*
X68041976Y-30082832D01*
X68168076Y-30059415D01*
X68322778Y-30033236D01*
X68360309Y-30027177D01*
X68501150Y-30004466D01*
X68629161Y-29983534D01*
X68738033Y-29965434D01*
X68821459Y-29951223D01*
X68873130Y-29941954D01*
X68886208Y-29939220D01*
X68901103Y-29941702D01*
G37*
X68901103Y-29941702D02*
X68914412Y-29961818D01*
X68927840Y-30005377D01*
X68943092Y-30078185D01*
X68961873Y-30186051D01*
X68965971Y-30210929D01*
X68982997Y-30317526D01*
X68997113Y-30410918D01*
X69007030Y-30482196D01*
X69011459Y-30522453D01*
X69011572Y-30526051D01*
X69001781Y-30544820D01*
X68968470Y-30560814D01*
X68905022Y-30576323D01*
X68825976Y-30590267D01*
X68736754Y-30605771D01*
X68681866Y-30619077D01*
X68653635Y-30633208D01*
X68644384Y-30651192D01*
X68644408Y-30661825D01*
X68648658Y-30693013D01*
X68658807Y-30759887D01*
X68673992Y-30857121D01*
X68693349Y-30979389D01*
X68716014Y-31121365D01*
X68741123Y-31277724D01*
X68767812Y-31443140D01*
X68795217Y-31612287D01*
X68822475Y-31779839D01*
X68848722Y-31940470D01*
X68873094Y-32088855D01*
X68894726Y-32219668D01*
X68912755Y-32327583D01*
X68926318Y-32407274D01*
X68934550Y-32453416D01*
X68936493Y-32462563D01*
X68955066Y-32472503D01*
X69004090Y-32472182D01*
X69088029Y-32461426D01*
X69127098Y-32455059D01*
X69210029Y-32442227D01*
X69275738Y-32434306D01*
X69314154Y-32432412D01*
X69319751Y-32433705D01*
X69326398Y-32456938D01*
X69338160Y-32514304D01*
X69353587Y-32598112D01*
X69371225Y-32700675D01*
X69378507Y-32744815D01*
X69399037Y-32879625D01*
X69410141Y-32974907D01*
X69411963Y-33032371D01*
X69404649Y-33053727D01*
X69404629Y-33053733D01*
X69377933Y-33059046D01*
X69315647Y-33069913D01*
X69223906Y-33085348D01*
X69108845Y-33104367D01*
X68976599Y-33125984D01*
X68833303Y-33149213D01*
X68685092Y-33173069D01*
X68538102Y-33196566D01*
X68398466Y-33218720D01*
X68272320Y-33238544D01*
X68165799Y-33255054D01*
X68085038Y-33267263D01*
X68036172Y-33274187D01*
X68024647Y-33275394D01*
X68012345Y-33255310D01*
X67995977Y-33199178D01*
X67976973Y-33112923D01*
X67956769Y-33002470D01*
X67952678Y-32977804D01*
X67935100Y-32860912D01*
X67923733Y-32765614D01*
X67919170Y-32698220D01*
X67922001Y-32665035D01*
X67923215Y-32663290D01*
X67952185Y-32651878D01*
X68011149Y-32637507D01*
X68088170Y-32623025D01*
X68100191Y-32621074D01*
X68176287Y-32608491D01*
X68233687Y-32598065D01*
X68261779Y-32591746D01*
X68262908Y-32591192D01*
X68260456Y-32570028D01*
X68251708Y-32510778D01*
X68237250Y-32417122D01*
X68217668Y-32292745D01*
X68193549Y-32141328D01*
X68165478Y-31966555D01*
X68134042Y-31772108D01*
X68099827Y-31561670D01*
X68068470Y-31369755D01*
X68032175Y-31147772D01*
X67997994Y-30938058D01*
X67966533Y-30744373D01*
X67938396Y-30570476D01*
X67914189Y-30420125D01*
X67894519Y-30297080D01*
X67879989Y-30205099D01*
X67871207Y-30147942D01*
X67868712Y-30129552D01*
X67888953Y-30118596D01*
X67947822Y-30102791D01*
X68041976Y-30082832D01*
X68168076Y-30059415D01*
X68322778Y-30033236D01*
X68360309Y-30027177D01*
X68501150Y-30004466D01*
X68629161Y-29983534D01*
X68738033Y-29965434D01*
X68821459Y-29951223D01*
X68873130Y-29941954D01*
X68886208Y-29939220D01*
X68901103Y-29941702D01*
G36*
X73181437Y-30274963D02*
G01*
X73867474Y-30274963D01*
X73877091Y-30456805D01*
X73899457Y-30650978D01*
X73934143Y-30850620D01*
X73980716Y-31048866D01*
X73996884Y-31106840D01*
X74061846Y-31295735D01*
X74135519Y-31443449D01*
X74218298Y-31550310D01*
X74310578Y-31616647D01*
X74412754Y-31642786D01*
X74525220Y-31629056D01*
X74594769Y-31603204D01*
X74651384Y-31571731D01*
X74692478Y-31530519D01*
X74730115Y-31466249D01*
X74742936Y-31439627D01*
X74766283Y-31387062D01*
X74782211Y-31340192D01*
X74792077Y-31289139D01*
X74797236Y-31224026D01*
X74799045Y-31134973D01*
X74798953Y-31031527D01*
X74790240Y-30818723D01*
X74767147Y-30608609D01*
X74731309Y-30406697D01*
X74684364Y-30218500D01*
X74627949Y-30049530D01*
X74563699Y-29905300D01*
X74493252Y-29791321D01*
X74418244Y-29713107D01*
X74404632Y-29703416D01*
X74346591Y-29670947D01*
X74290620Y-29657881D01*
X74215574Y-29659451D01*
X74211210Y-29659806D01*
X74098930Y-29682967D01*
X74012817Y-29734749D01*
X73945676Y-29820385D01*
X73919423Y-29872054D01*
X73888209Y-29975724D01*
X73871036Y-30112315D01*
X73867474Y-30274963D01*
X73181437Y-30274963D01*
X73186953Y-30145725D01*
X73223151Y-29911731D01*
X73284346Y-29699835D01*
X73370093Y-29514069D01*
X73479947Y-29358468D01*
X73510190Y-29325710D01*
X73656862Y-29204562D01*
X73826281Y-29114522D01*
X74011313Y-29056713D01*
X74204823Y-29032258D01*
X74399676Y-29042280D01*
X74588738Y-29087900D01*
X74705936Y-29137576D01*
X74865596Y-29241412D01*
X75010923Y-29381922D01*
X75140310Y-29555402D01*
X75252153Y-29758150D01*
X75344845Y-29986466D01*
X75416782Y-30236646D01*
X75466358Y-30504989D01*
X75491967Y-30787793D01*
X75495203Y-30957443D01*
X75492333Y-31102072D01*
X75485192Y-31216623D01*
X75472555Y-31313244D01*
X75453199Y-31404078D01*
X75448284Y-31423110D01*
X75372259Y-31644642D01*
X75270675Y-31832835D01*
X75144103Y-31987229D01*
X74993110Y-32107367D01*
X74818269Y-32192792D01*
X74620149Y-32243045D01*
X74409142Y-32257777D01*
X74313409Y-32253874D01*
X74222816Y-32244814D01*
X74154179Y-32232392D01*
X74144101Y-32229514D01*
X73951165Y-32146489D01*
X73777548Y-32026405D01*
X73624126Y-31870312D01*
X73491775Y-31679257D01*
X73381373Y-31454288D01*
X73301024Y-31222027D01*
X73232787Y-30939968D01*
X73191326Y-30663877D01*
X73176196Y-30397785D01*
X73181437Y-30274963D01*
G37*
X73181437Y-30274963D02*
X73867474Y-30274963D01*
X73877091Y-30456805D01*
X73899457Y-30650978D01*
X73934143Y-30850620D01*
X73980716Y-31048866D01*
X73996884Y-31106840D01*
X74061846Y-31295735D01*
X74135519Y-31443449D01*
X74218298Y-31550310D01*
X74310578Y-31616647D01*
X74412754Y-31642786D01*
X74525220Y-31629056D01*
X74594769Y-31603204D01*
X74651384Y-31571731D01*
X74692478Y-31530519D01*
X74730115Y-31466249D01*
X74742936Y-31439627D01*
X74766283Y-31387062D01*
X74782211Y-31340192D01*
X74792077Y-31289139D01*
X74797236Y-31224026D01*
X74799045Y-31134973D01*
X74798953Y-31031527D01*
X74790240Y-30818723D01*
X74767147Y-30608609D01*
X74731309Y-30406697D01*
X74684364Y-30218500D01*
X74627949Y-30049530D01*
X74563699Y-29905300D01*
X74493252Y-29791321D01*
X74418244Y-29713107D01*
X74404632Y-29703416D01*
X74346591Y-29670947D01*
X74290620Y-29657881D01*
X74215574Y-29659451D01*
X74211210Y-29659806D01*
X74098930Y-29682967D01*
X74012817Y-29734749D01*
X73945676Y-29820385D01*
X73919423Y-29872054D01*
X73888209Y-29975724D01*
X73871036Y-30112315D01*
X73867474Y-30274963D01*
X73181437Y-30274963D01*
X73186953Y-30145725D01*
X73223151Y-29911731D01*
X73284346Y-29699835D01*
X73370093Y-29514069D01*
X73479947Y-29358468D01*
X73510190Y-29325710D01*
X73656862Y-29204562D01*
X73826281Y-29114522D01*
X74011313Y-29056713D01*
X74204823Y-29032258D01*
X74399676Y-29042280D01*
X74588738Y-29087900D01*
X74705936Y-29137576D01*
X74865596Y-29241412D01*
X75010923Y-29381922D01*
X75140310Y-29555402D01*
X75252153Y-29758150D01*
X75344845Y-29986466D01*
X75416782Y-30236646D01*
X75466358Y-30504989D01*
X75491967Y-30787793D01*
X75495203Y-30957443D01*
X75492333Y-31102072D01*
X75485192Y-31216623D01*
X75472555Y-31313244D01*
X75453199Y-31404078D01*
X75448284Y-31423110D01*
X75372259Y-31644642D01*
X75270675Y-31832835D01*
X75144103Y-31987229D01*
X74993110Y-32107367D01*
X74818269Y-32192792D01*
X74620149Y-32243045D01*
X74409142Y-32257777D01*
X74313409Y-32253874D01*
X74222816Y-32244814D01*
X74154179Y-32232392D01*
X74144101Y-32229514D01*
X73951165Y-32146489D01*
X73777548Y-32026405D01*
X73624126Y-31870312D01*
X73491775Y-31679257D01*
X73381373Y-31454288D01*
X73301024Y-31222027D01*
X73232787Y-30939968D01*
X73191326Y-30663877D01*
X73176196Y-30397785D01*
X73181437Y-30274963D01*
G36*
X72173250Y-31129354D02*
G01*
X72183662Y-31133279D01*
X72193372Y-31163820D01*
X72206696Y-31225373D01*
X72222227Y-31308922D01*
X72238556Y-31405451D01*
X72254277Y-31505945D01*
X72267982Y-31601389D01*
X72278264Y-31682766D01*
X72283716Y-31741060D01*
X72282931Y-31767256D01*
X72282672Y-31767594D01*
X72259444Y-31773939D01*
X72199431Y-31786054D01*
X72107654Y-31803044D01*
X71989134Y-31824014D01*
X71848892Y-31848069D01*
X71691949Y-31874316D01*
X71587788Y-31891406D01*
X71420444Y-31918721D01*
X71264398Y-31944301D01*
X71125119Y-31967240D01*
X71008075Y-31986635D01*
X70918732Y-32001580D01*
X70862560Y-32011171D01*
X70847392Y-32013912D01*
X70805517Y-32019137D01*
X70789184Y-32015635D01*
X70785930Y-31992477D01*
X70776958Y-31934965D01*
X70763447Y-31850514D01*
X70746578Y-31746535D01*
X70736412Y-31684408D01*
X70718651Y-31573245D01*
X70704322Y-31477841D01*
X70694453Y-31405513D01*
X70690068Y-31363579D01*
X70690368Y-31356120D01*
X70712080Y-31351273D01*
X70770813Y-31340497D01*
X70861796Y-31324606D01*
X70980255Y-31304415D01*
X71121420Y-31280737D01*
X71280518Y-31254387D01*
X71433002Y-31229402D01*
X71647741Y-31194899D01*
X71823039Y-31167898D01*
X71961067Y-31148121D01*
X72063998Y-31135290D01*
X72134002Y-31129127D01*
X72173250Y-31129354D01*
G37*
X72173250Y-31129354D02*
X72183662Y-31133279D01*
X72193372Y-31163820D01*
X72206696Y-31225373D01*
X72222227Y-31308922D01*
X72238556Y-31405451D01*
X72254277Y-31505945D01*
X72267982Y-31601389D01*
X72278264Y-31682766D01*
X72283716Y-31741060D01*
X72282931Y-31767256D01*
X72282672Y-31767594D01*
X72259444Y-31773939D01*
X72199431Y-31786054D01*
X72107654Y-31803044D01*
X71989134Y-31824014D01*
X71848892Y-31848069D01*
X71691949Y-31874316D01*
X71587788Y-31891406D01*
X71420444Y-31918721D01*
X71264398Y-31944301D01*
X71125119Y-31967240D01*
X71008075Y-31986635D01*
X70918732Y-32001580D01*
X70862560Y-32011171D01*
X70847392Y-32013912D01*
X70805517Y-32019137D01*
X70789184Y-32015635D01*
X70785930Y-31992477D01*
X70776958Y-31934965D01*
X70763447Y-31850514D01*
X70746578Y-31746535D01*
X70736412Y-31684408D01*
X70718651Y-31573245D01*
X70704322Y-31477841D01*
X70694453Y-31405513D01*
X70690068Y-31363579D01*
X70690368Y-31356120D01*
X70712080Y-31351273D01*
X70770813Y-31340497D01*
X70861796Y-31324606D01*
X70980255Y-31304415D01*
X71121420Y-31280737D01*
X71280518Y-31254387D01*
X71433002Y-31229402D01*
X71647741Y-31194899D01*
X71823039Y-31167898D01*
X71961067Y-31148121D01*
X72063998Y-31135290D01*
X72134002Y-31129127D01*
X72173250Y-31129354D01*
G36*
X77011582Y-28632332D02*
G01*
X77020720Y-28658729D01*
X77033660Y-28716821D01*
X77048921Y-28797308D01*
X77065018Y-28890890D01*
X77080470Y-28988267D01*
X77093794Y-29080141D01*
X77103507Y-29157211D01*
X77108125Y-29210179D01*
X77106795Y-29229471D01*
X77082537Y-29237285D01*
X77026969Y-29249115D01*
X76950659Y-29262783D01*
X76924599Y-29267028D01*
X76844158Y-29280726D01*
X76781323Y-29293114D01*
X76746598Y-29302062D01*
X76743183Y-29303805D01*
X76744655Y-29325725D01*
X76752332Y-29384227D01*
X76765376Y-29474147D01*
X76782950Y-29590324D01*
X76804219Y-29727594D01*
X76828345Y-29880796D01*
X76854490Y-30044766D01*
X76881820Y-30214343D01*
X76909496Y-30384364D01*
X76936681Y-30549666D01*
X76962540Y-30705087D01*
X76986235Y-30845464D01*
X77006929Y-30965635D01*
X77023786Y-31060438D01*
X77035968Y-31124710D01*
X77042639Y-31153288D01*
X77043124Y-31154189D01*
X77066501Y-31154819D01*
X77121515Y-31149039D01*
X77198153Y-31138008D01*
X77234937Y-31131994D01*
X77332340Y-31117490D01*
X77393227Y-31113483D01*
X77422046Y-31119800D01*
X77425403Y-31124490D01*
X77434080Y-31162286D01*
X77446239Y-31228594D01*
X77460503Y-31314232D01*
X77475499Y-31410016D01*
X77489851Y-31506764D01*
X77502183Y-31595293D01*
X77511121Y-31666421D01*
X77515289Y-31710964D01*
X77514786Y-31721313D01*
X77492275Y-31726981D01*
X77433108Y-31738444D01*
X77342430Y-31754801D01*
X77225384Y-31775149D01*
X77087117Y-31798587D01*
X76932771Y-31824212D01*
X76861796Y-31835832D01*
X76699318Y-31862353D01*
X76548205Y-31887079D01*
X76414105Y-31909081D01*
X76302669Y-31927430D01*
X76219547Y-31941197D01*
X76170388Y-31949452D01*
X76161725Y-31950962D01*
X76118908Y-31951907D01*
X76098955Y-31926039D01*
X76093468Y-31903822D01*
X76085013Y-31857912D01*
X76072041Y-31782995D01*
X76056746Y-31691862D01*
X76049101Y-31645360D01*
X76033518Y-31551200D01*
X76019240Y-31467249D01*
X76008441Y-31406186D01*
X76005071Y-31388433D01*
X76001241Y-31361347D01*
X76008096Y-31343358D01*
X76033344Y-31330709D01*
X76084695Y-31319644D01*
X76169856Y-31306407D01*
X76174938Y-31305650D01*
X76262910Y-31291517D01*
X76316840Y-31279043D01*
X76344748Y-31265068D01*
X76354650Y-31246429D01*
X76355356Y-31234493D01*
X76351878Y-31205926D01*
X76342102Y-31139471D01*
X76326647Y-31039010D01*
X76306128Y-30908419D01*
X76281162Y-30751578D01*
X76252365Y-30572365D01*
X76220354Y-30374660D01*
X76185747Y-30162340D01*
X76158214Y-29994360D01*
X76116214Y-29738004D01*
X76080856Y-29520279D01*
X76051722Y-29338074D01*
X76028390Y-29188280D01*
X76010442Y-29067787D01*
X75997456Y-28973485D01*
X75989013Y-28902265D01*
X75984694Y-28851017D01*
X75984077Y-28816630D01*
X75986745Y-28795997D01*
X75992275Y-28786005D01*
X75994833Y-28784437D01*
X76031682Y-28774327D01*
X76100697Y-28760282D01*
X76194820Y-28743359D01*
X76306998Y-28724613D01*
X76430175Y-28705100D01*
X76557295Y-28685875D01*
X76681305Y-28667993D01*
X76795147Y-28652510D01*
X76891768Y-28640482D01*
X76964111Y-28632964D01*
X77005122Y-28631010D01*
X77011582Y-28632332D01*
G37*
X77011582Y-28632332D02*
X77020720Y-28658729D01*
X77033660Y-28716821D01*
X77048921Y-28797308D01*
X77065018Y-28890890D01*
X77080470Y-28988267D01*
X77093794Y-29080141D01*
X77103507Y-29157211D01*
X77108125Y-29210179D01*
X77106795Y-29229471D01*
X77082537Y-29237285D01*
X77026969Y-29249115D01*
X76950659Y-29262783D01*
X76924599Y-29267028D01*
X76844158Y-29280726D01*
X76781323Y-29293114D01*
X76746598Y-29302062D01*
X76743183Y-29303805D01*
X76744655Y-29325725D01*
X76752332Y-29384227D01*
X76765376Y-29474147D01*
X76782950Y-29590324D01*
X76804219Y-29727594D01*
X76828345Y-29880796D01*
X76854490Y-30044766D01*
X76881820Y-30214343D01*
X76909496Y-30384364D01*
X76936681Y-30549666D01*
X76962540Y-30705087D01*
X76986235Y-30845464D01*
X77006929Y-30965635D01*
X77023786Y-31060438D01*
X77035968Y-31124710D01*
X77042639Y-31153288D01*
X77043124Y-31154189D01*
X77066501Y-31154819D01*
X77121515Y-31149039D01*
X77198153Y-31138008D01*
X77234937Y-31131994D01*
X77332340Y-31117490D01*
X77393227Y-31113483D01*
X77422046Y-31119800D01*
X77425403Y-31124490D01*
X77434080Y-31162286D01*
X77446239Y-31228594D01*
X77460503Y-31314232D01*
X77475499Y-31410016D01*
X77489851Y-31506764D01*
X77502183Y-31595293D01*
X77511121Y-31666421D01*
X77515289Y-31710964D01*
X77514786Y-31721313D01*
X77492275Y-31726981D01*
X77433108Y-31738444D01*
X77342430Y-31754801D01*
X77225384Y-31775149D01*
X77087117Y-31798587D01*
X76932771Y-31824212D01*
X76861796Y-31835832D01*
X76699318Y-31862353D01*
X76548205Y-31887079D01*
X76414105Y-31909081D01*
X76302669Y-31927430D01*
X76219547Y-31941197D01*
X76170388Y-31949452D01*
X76161725Y-31950962D01*
X76118908Y-31951907D01*
X76098955Y-31926039D01*
X76093468Y-31903822D01*
X76085013Y-31857912D01*
X76072041Y-31782995D01*
X76056746Y-31691862D01*
X76049101Y-31645360D01*
X76033518Y-31551200D01*
X76019240Y-31467249D01*
X76008441Y-31406186D01*
X76005071Y-31388433D01*
X76001241Y-31361347D01*
X76008096Y-31343358D01*
X76033344Y-31330709D01*
X76084695Y-31319644D01*
X76169856Y-31306407D01*
X76174938Y-31305650D01*
X76262910Y-31291517D01*
X76316840Y-31279043D01*
X76344748Y-31265068D01*
X76354650Y-31246429D01*
X76355356Y-31234493D01*
X76351878Y-31205926D01*
X76342102Y-31139471D01*
X76326647Y-31039010D01*
X76306128Y-30908419D01*
X76281162Y-30751578D01*
X76252365Y-30572365D01*
X76220354Y-30374660D01*
X76185747Y-30162340D01*
X76158214Y-29994360D01*
X76116214Y-29738004D01*
X76080856Y-29520279D01*
X76051722Y-29338074D01*
X76028390Y-29188280D01*
X76010442Y-29067787D01*
X75997456Y-28973485D01*
X75989013Y-28902265D01*
X75984694Y-28851017D01*
X75984077Y-28816630D01*
X75986745Y-28795997D01*
X75992275Y-28786005D01*
X75994833Y-28784437D01*
X76031682Y-28774327D01*
X76100697Y-28760282D01*
X76194820Y-28743359D01*
X76306998Y-28724613D01*
X76430175Y-28705100D01*
X76557295Y-28685875D01*
X76681305Y-28667993D01*
X76795147Y-28652510D01*
X76891768Y-28640482D01*
X76964111Y-28632964D01*
X77005122Y-28631010D01*
X77011582Y-28632332D01*
G36*
X49341014Y-27779635D02*
G01*
X49347988Y-27802996D01*
X49359530Y-27858614D01*
X49374128Y-27937346D01*
X49390269Y-28030046D01*
X49406440Y-28127572D01*
X49421126Y-28220778D01*
X49432816Y-28300522D01*
X49439995Y-28357658D01*
X49441151Y-28383043D01*
X49440935Y-28383430D01*
X49417849Y-28390596D01*
X49363245Y-28402441D01*
X49287382Y-28416804D01*
X49258183Y-28421944D01*
X49177254Y-28436718D01*
X49113935Y-28449780D01*
X49078542Y-28458945D01*
X49074691Y-28460797D01*
X49075963Y-28482921D01*
X49083458Y-28541597D01*
X49096336Y-28631635D01*
X49113757Y-28747848D01*
X49134881Y-28885048D01*
X49158870Y-29038044D01*
X49184882Y-29201649D01*
X49212080Y-29370675D01*
X49239622Y-29539933D01*
X49266670Y-29704234D01*
X49292383Y-29858389D01*
X49315923Y-29997211D01*
X49336449Y-30115511D01*
X49353122Y-30208099D01*
X49365102Y-30269788D01*
X49371550Y-30295390D01*
X49371580Y-30295439D01*
X49396877Y-30305210D01*
X49456284Y-30303961D01*
X49553088Y-30291611D01*
X49558212Y-30290818D01*
X49644161Y-30279910D01*
X49709637Y-30276399D01*
X49745102Y-30280698D01*
X49747810Y-30282592D01*
X49757007Y-30308970D01*
X49770268Y-30366957D01*
X49786040Y-30447264D01*
X49802773Y-30540604D01*
X49818915Y-30637686D01*
X49832914Y-30729222D01*
X49843219Y-30805924D01*
X49848276Y-30858504D01*
X49847178Y-30877421D01*
X49824713Y-30883065D01*
X49765642Y-30894520D01*
X49675159Y-30910875D01*
X49558453Y-30931215D01*
X49420716Y-30954626D01*
X49267138Y-30980196D01*
X49206271Y-30990196D01*
X49044537Y-31016704D01*
X48893491Y-31041523D01*
X48758987Y-31063686D01*
X48646881Y-31082226D01*
X48563028Y-31096176D01*
X48513283Y-31104569D01*
X48505699Y-31105892D01*
X48449259Y-31107988D01*
X48427469Y-31090746D01*
X48421938Y-31063731D01*
X48411513Y-31004484D01*
X48397743Y-30922614D01*
X48382178Y-30827728D01*
X48366369Y-30729435D01*
X48351865Y-30637343D01*
X48340215Y-30561060D01*
X48332971Y-30510194D01*
X48331351Y-30494883D01*
X48350715Y-30488909D01*
X48402424Y-30478845D01*
X48476898Y-30466482D01*
X48511267Y-30461242D01*
X48598738Y-30445551D01*
X48660705Y-30428965D01*
X48689760Y-30413589D01*
X48691013Y-30410209D01*
X48687650Y-30385425D01*
X48678028Y-30322629D01*
X48662750Y-30225582D01*
X48642421Y-30098045D01*
X48617643Y-29943780D01*
X48589022Y-29766548D01*
X48557160Y-29570109D01*
X48522662Y-29358226D01*
X48491728Y-29168860D01*
X48455635Y-28947469D01*
X48421865Y-28738835D01*
X48391000Y-28546649D01*
X48363619Y-28374598D01*
X48340305Y-28226371D01*
X48321637Y-28105658D01*
X48308196Y-28016146D01*
X48300564Y-27961525D01*
X48299093Y-27945263D01*
X48321637Y-27939438D01*
X48378888Y-27928501D01*
X48463939Y-27913549D01*
X48569885Y-27895681D01*
X48689817Y-27875995D01*
X48816828Y-27855588D01*
X48944012Y-27835559D01*
X49064461Y-27817006D01*
X49171269Y-27801026D01*
X49257528Y-27788717D01*
X49316331Y-27781178D01*
X49340772Y-27779507D01*
X49341014Y-27779635D01*
G37*
X49341014Y-27779635D02*
X49347988Y-27802996D01*
X49359530Y-27858614D01*
X49374128Y-27937346D01*
X49390269Y-28030046D01*
X49406440Y-28127572D01*
X49421126Y-28220778D01*
X49432816Y-28300522D01*
X49439995Y-28357658D01*
X49441151Y-28383043D01*
X49440935Y-28383430D01*
X49417849Y-28390596D01*
X49363245Y-28402441D01*
X49287382Y-28416804D01*
X49258183Y-28421944D01*
X49177254Y-28436718D01*
X49113935Y-28449780D01*
X49078542Y-28458945D01*
X49074691Y-28460797D01*
X49075963Y-28482921D01*
X49083458Y-28541597D01*
X49096336Y-28631635D01*
X49113757Y-28747848D01*
X49134881Y-28885048D01*
X49158870Y-29038044D01*
X49184882Y-29201649D01*
X49212080Y-29370675D01*
X49239622Y-29539933D01*
X49266670Y-29704234D01*
X49292383Y-29858389D01*
X49315923Y-29997211D01*
X49336449Y-30115511D01*
X49353122Y-30208099D01*
X49365102Y-30269788D01*
X49371550Y-30295390D01*
X49371580Y-30295439D01*
X49396877Y-30305210D01*
X49456284Y-30303961D01*
X49553088Y-30291611D01*
X49558212Y-30290818D01*
X49644161Y-30279910D01*
X49709637Y-30276399D01*
X49745102Y-30280698D01*
X49747810Y-30282592D01*
X49757007Y-30308970D01*
X49770268Y-30366957D01*
X49786040Y-30447264D01*
X49802773Y-30540604D01*
X49818915Y-30637686D01*
X49832914Y-30729222D01*
X49843219Y-30805924D01*
X49848276Y-30858504D01*
X49847178Y-30877421D01*
X49824713Y-30883065D01*
X49765642Y-30894520D01*
X49675159Y-30910875D01*
X49558453Y-30931215D01*
X49420716Y-30954626D01*
X49267138Y-30980196D01*
X49206271Y-30990196D01*
X49044537Y-31016704D01*
X48893491Y-31041523D01*
X48758987Y-31063686D01*
X48646881Y-31082226D01*
X48563028Y-31096176D01*
X48513283Y-31104569D01*
X48505699Y-31105892D01*
X48449259Y-31107988D01*
X48427469Y-31090746D01*
X48421938Y-31063731D01*
X48411513Y-31004484D01*
X48397743Y-30922614D01*
X48382178Y-30827728D01*
X48366369Y-30729435D01*
X48351865Y-30637343D01*
X48340215Y-30561060D01*
X48332971Y-30510194D01*
X48331351Y-30494883D01*
X48350715Y-30488909D01*
X48402424Y-30478845D01*
X48476898Y-30466482D01*
X48511267Y-30461242D01*
X48598738Y-30445551D01*
X48660705Y-30428965D01*
X48689760Y-30413589D01*
X48691013Y-30410209D01*
X48687650Y-30385425D01*
X48678028Y-30322629D01*
X48662750Y-30225582D01*
X48642421Y-30098045D01*
X48617643Y-29943780D01*
X48589022Y-29766548D01*
X48557160Y-29570109D01*
X48522662Y-29358226D01*
X48491728Y-29168860D01*
X48455635Y-28947469D01*
X48421865Y-28738835D01*
X48391000Y-28546649D01*
X48363619Y-28374598D01*
X48340305Y-28226371D01*
X48321637Y-28105658D01*
X48308196Y-28016146D01*
X48300564Y-27961525D01*
X48299093Y-27945263D01*
X48321637Y-27939438D01*
X48378888Y-27928501D01*
X48463939Y-27913549D01*
X48569885Y-27895681D01*
X48689817Y-27875995D01*
X48816828Y-27855588D01*
X48944012Y-27835559D01*
X49064461Y-27817006D01*
X49171269Y-27801026D01*
X49257528Y-27788717D01*
X49316331Y-27781178D01*
X49340772Y-27779507D01*
X49341014Y-27779635D01*
G36*
X51366181Y-27463702D02*
G01*
X51550990Y-27516040D01*
X51711055Y-27602578D01*
X51845901Y-27722909D01*
X51955055Y-27876627D01*
X52038045Y-28063327D01*
X52086685Y-28242895D01*
X52105432Y-28330648D01*
X52116338Y-28394095D01*
X52114345Y-28438262D01*
X52094395Y-28468175D01*
X52051433Y-28488861D01*
X51980400Y-28505347D01*
X51876239Y-28522658D01*
X51791564Y-28536212D01*
X51462944Y-28589871D01*
X51450879Y-28535407D01*
X51419342Y-28404593D01*
X51388948Y-28306973D01*
X51356095Y-28233676D01*
X51317179Y-28175828D01*
X51294360Y-28149965D01*
X51242554Y-28100580D01*
X51198073Y-28076282D01*
X51142490Y-28068557D01*
X51117365Y-28068193D01*
X50991837Y-28083844D01*
X50894570Y-28129698D01*
X50827356Y-28204106D01*
X50791989Y-28305421D01*
X50786763Y-28371911D01*
X50801894Y-28492684D01*
X50847054Y-28584981D01*
X50921584Y-28647521D01*
X50931194Y-28652361D01*
X50966271Y-28667509D01*
X51000768Y-28676386D01*
X51043717Y-28679095D01*
X51104151Y-28675741D01*
X51191101Y-28666428D01*
X51273517Y-28656301D01*
X51374313Y-28644341D01*
X51458821Y-28635593D01*
X51518790Y-28630817D01*
X51545965Y-28630775D01*
X51546602Y-28631096D01*
X51552323Y-28652812D01*
X51563381Y-28707186D01*
X51578156Y-28785114D01*
X51595031Y-28877497D01*
X51612388Y-28975231D01*
X51628607Y-29069216D01*
X51642072Y-29150351D01*
X51651163Y-29209533D01*
X51654273Y-29236692D01*
X51635826Y-29249159D01*
X51589752Y-29261441D01*
X51575142Y-29263973D01*
X51440502Y-29285911D01*
X51338365Y-29305339D01*
X51259187Y-29324678D01*
X51193426Y-29346350D01*
X51131539Y-29372775D01*
X51114767Y-29380791D01*
X51001757Y-29450376D01*
X50927802Y-29531685D01*
X50890467Y-29628039D01*
X50884631Y-29694693D01*
X50902898Y-29820208D01*
X50956439Y-29923094D01*
X51044415Y-30001810D01*
X51055288Y-30008419D01*
X51111403Y-30038040D01*
X51161447Y-30053087D01*
X51222170Y-30056647D01*
X51296353Y-30052827D01*
X51446076Y-30025088D01*
X51568873Y-29965601D01*
X51663611Y-29875012D01*
X51696851Y-29824159D01*
X51721431Y-29775980D01*
X51736759Y-29730034D01*
X51744741Y-29674539D01*
X51747280Y-29597710D01*
X51746711Y-29515652D01*
X51743654Y-29301528D01*
X52032461Y-29254935D01*
X52140249Y-29237628D01*
X52234515Y-29222647D01*
X52306609Y-29211354D01*
X52347880Y-29205114D01*
X52352585Y-29204476D01*
X52374063Y-29221424D01*
X52391677Y-29272947D01*
X52405096Y-29351433D01*
X52413985Y-29449271D01*
X52418010Y-29558849D01*
X52416838Y-29672556D01*
X52410136Y-29782781D01*
X52397569Y-29881911D01*
X52384888Y-29941443D01*
X52315890Y-30123427D01*
X52212549Y-30282209D01*
X52076749Y-30416488D01*
X51910373Y-30524964D01*
X51715306Y-30606337D01*
X51493432Y-30659306D01*
X51315851Y-30679277D01*
X51219076Y-30682152D01*
X51121652Y-30679602D01*
X51049195Y-30672743D01*
X50836128Y-30621624D01*
X50651522Y-30539488D01*
X50496136Y-30427065D01*
X50370731Y-30285086D01*
X50276067Y-30114282D01*
X50212904Y-29915383D01*
X50201602Y-29858398D01*
X50185474Y-29665255D01*
X50206356Y-29485858D01*
X50263331Y-29323698D01*
X50355486Y-29182263D01*
X50388395Y-29145895D01*
X50458601Y-29073610D01*
X50350104Y-28972483D01*
X50244590Y-28846857D01*
X50164788Y-28695288D01*
X50113720Y-28527572D01*
X50094406Y-28353505D01*
X50108579Y-28189331D01*
X50164228Y-28007576D01*
X50254438Y-27847732D01*
X50376428Y-27711772D01*
X50527414Y-27601669D01*
X50704615Y-27519395D01*
X50905249Y-27466921D01*
X51126534Y-27446222D01*
X51157101Y-27445969D01*
X51366181Y-27463702D01*
G37*
X51366181Y-27463702D02*
X51550990Y-27516040D01*
X51711055Y-27602578D01*
X51845901Y-27722909D01*
X51955055Y-27876627D01*
X52038045Y-28063327D01*
X52086685Y-28242895D01*
X52105432Y-28330648D01*
X52116338Y-28394095D01*
X52114345Y-28438262D01*
X52094395Y-28468175D01*
X52051433Y-28488861D01*
X51980400Y-28505347D01*
X51876239Y-28522658D01*
X51791564Y-28536212D01*
X51462944Y-28589871D01*
X51450879Y-28535407D01*
X51419342Y-28404593D01*
X51388948Y-28306973D01*
X51356095Y-28233676D01*
X51317179Y-28175828D01*
X51294360Y-28149965D01*
X51242554Y-28100580D01*
X51198073Y-28076282D01*
X51142490Y-28068557D01*
X51117365Y-28068193D01*
X50991837Y-28083844D01*
X50894570Y-28129698D01*
X50827356Y-28204106D01*
X50791989Y-28305421D01*
X50786763Y-28371911D01*
X50801894Y-28492684D01*
X50847054Y-28584981D01*
X50921584Y-28647521D01*
X50931194Y-28652361D01*
X50966271Y-28667509D01*
X51000768Y-28676386D01*
X51043717Y-28679095D01*
X51104151Y-28675741D01*
X51191101Y-28666428D01*
X51273517Y-28656301D01*
X51374313Y-28644341D01*
X51458821Y-28635593D01*
X51518790Y-28630817D01*
X51545965Y-28630775D01*
X51546602Y-28631096D01*
X51552323Y-28652812D01*
X51563381Y-28707186D01*
X51578156Y-28785114D01*
X51595031Y-28877497D01*
X51612388Y-28975231D01*
X51628607Y-29069216D01*
X51642072Y-29150351D01*
X51651163Y-29209533D01*
X51654273Y-29236692D01*
X51635826Y-29249159D01*
X51589752Y-29261441D01*
X51575142Y-29263973D01*
X51440502Y-29285911D01*
X51338365Y-29305339D01*
X51259187Y-29324678D01*
X51193426Y-29346350D01*
X51131539Y-29372775D01*
X51114767Y-29380791D01*
X51001757Y-29450376D01*
X50927802Y-29531685D01*
X50890467Y-29628039D01*
X50884631Y-29694693D01*
X50902898Y-29820208D01*
X50956439Y-29923094D01*
X51044415Y-30001810D01*
X51055288Y-30008419D01*
X51111403Y-30038040D01*
X51161447Y-30053087D01*
X51222170Y-30056647D01*
X51296353Y-30052827D01*
X51446076Y-30025088D01*
X51568873Y-29965601D01*
X51663611Y-29875012D01*
X51696851Y-29824159D01*
X51721431Y-29775980D01*
X51736759Y-29730034D01*
X51744741Y-29674539D01*
X51747280Y-29597710D01*
X51746711Y-29515652D01*
X51743654Y-29301528D01*
X52032461Y-29254935D01*
X52140249Y-29237628D01*
X52234515Y-29222647D01*
X52306609Y-29211354D01*
X52347880Y-29205114D01*
X52352585Y-29204476D01*
X52374063Y-29221424D01*
X52391677Y-29272947D01*
X52405096Y-29351433D01*
X52413985Y-29449271D01*
X52418010Y-29558849D01*
X52416838Y-29672556D01*
X52410136Y-29782781D01*
X52397569Y-29881911D01*
X52384888Y-29941443D01*
X52315890Y-30123427D01*
X52212549Y-30282209D01*
X52076749Y-30416488D01*
X51910373Y-30524964D01*
X51715306Y-30606337D01*
X51493432Y-30659306D01*
X51315851Y-30679277D01*
X51219076Y-30682152D01*
X51121652Y-30679602D01*
X51049195Y-30672743D01*
X50836128Y-30621624D01*
X50651522Y-30539488D01*
X50496136Y-30427065D01*
X50370731Y-30285086D01*
X50276067Y-30114282D01*
X50212904Y-29915383D01*
X50201602Y-29858398D01*
X50185474Y-29665255D01*
X50206356Y-29485858D01*
X50263331Y-29323698D01*
X50355486Y-29182263D01*
X50388395Y-29145895D01*
X50458601Y-29073610D01*
X50350104Y-28972483D01*
X50244590Y-28846857D01*
X50164788Y-28695288D01*
X50113720Y-28527572D01*
X50094406Y-28353505D01*
X50108579Y-28189331D01*
X50164228Y-28007576D01*
X50254438Y-27847732D01*
X50376428Y-27711772D01*
X50527414Y-27601669D01*
X50704615Y-27519395D01*
X50905249Y-27466921D01*
X51126534Y-27446222D01*
X51157101Y-27445969D01*
X51366181Y-27463702D01*
G36*
X55176344Y-26823111D02*
G01*
X55190666Y-26837530D01*
X55203477Y-26869496D01*
X55216751Y-26925370D01*
X55232464Y-27011511D01*
X55248749Y-27110402D01*
X55265788Y-27217815D01*
X55280029Y-27310972D01*
X55290235Y-27381529D01*
X55295170Y-27421137D01*
X55295439Y-27425709D01*
X55275515Y-27440406D01*
X55221169Y-27456858D01*
X55140128Y-27472868D01*
X55116619Y-27476541D01*
X55032900Y-27490080D01*
X54965099Y-27503053D01*
X54924297Y-27513266D01*
X54918458Y-27515775D01*
X54918954Y-27537586D01*
X54925421Y-27596001D01*
X54937066Y-27685836D01*
X54953097Y-27801904D01*
X54972722Y-27939022D01*
X54995149Y-28092003D01*
X55019584Y-28255662D01*
X55045237Y-28424815D01*
X55071315Y-28594276D01*
X55097024Y-28758859D01*
X55121574Y-28913380D01*
X55144171Y-29052654D01*
X55164023Y-29171495D01*
X55180339Y-29264718D01*
X55192325Y-29327138D01*
X55199190Y-29353569D01*
X55199310Y-29353754D01*
X55220215Y-29352601D01*
X55272989Y-29345247D01*
X55347857Y-29333112D01*
X55381301Y-29327325D01*
X55465437Y-29312984D01*
X55534499Y-29302072D01*
X55577177Y-29296344D01*
X55583787Y-29295889D01*
X55594378Y-29315386D01*
X55608965Y-29367985D01*
X55626012Y-29444817D01*
X55643981Y-29537014D01*
X55661338Y-29635706D01*
X55676544Y-29732026D01*
X55688064Y-29817105D01*
X55694362Y-29882073D01*
X55693901Y-29918064D01*
X55692232Y-29921867D01*
X55670545Y-29926928D01*
X55612982Y-29937872D01*
X55525437Y-29953700D01*
X55413802Y-29973409D01*
X55283971Y-29995999D01*
X55141838Y-30020468D01*
X54993296Y-30045814D01*
X54844238Y-30071037D01*
X54700558Y-30095134D01*
X54568148Y-30117105D01*
X54452904Y-30135947D01*
X54360718Y-30150660D01*
X54297483Y-30160243D01*
X54269092Y-30163693D01*
X54269030Y-30163693D01*
X54262164Y-30144158D01*
X54251529Y-30091476D01*
X54238396Y-30014532D01*
X54224037Y-29922211D01*
X54209723Y-29823399D01*
X54196725Y-29726981D01*
X54186313Y-29641842D01*
X54179760Y-29576867D01*
X54178336Y-29540942D01*
X54179345Y-29536810D01*
X54205486Y-29526912D01*
X54262690Y-29512953D01*
X54340202Y-29497455D01*
X54368351Y-29492443D01*
X54449473Y-29477526D01*
X54513161Y-29464112D01*
X54549008Y-29454455D01*
X54553004Y-29452428D01*
X54552283Y-29429911D01*
X54545411Y-29371848D01*
X54533377Y-29284422D01*
X54517170Y-29173816D01*
X54497780Y-29046210D01*
X54476195Y-28907787D01*
X54453406Y-28764729D01*
X54430402Y-28623218D01*
X54408171Y-28489435D01*
X54387704Y-28369562D01*
X54369989Y-28269782D01*
X54356016Y-28196276D01*
X54346775Y-28155226D01*
X54344402Y-28148963D01*
X54335088Y-28165489D01*
X54312805Y-28218282D01*
X54278908Y-28303775D01*
X54234752Y-28418398D01*
X54181693Y-28558584D01*
X54121085Y-28720764D01*
X54054284Y-28901369D01*
X53982645Y-29096832D01*
X53942428Y-29207297D01*
X53868496Y-29410431D01*
X53798631Y-29601601D01*
X53734207Y-29777099D01*
X53676599Y-29933222D01*
X53627179Y-30066263D01*
X53587322Y-30172518D01*
X53558402Y-30248280D01*
X53541792Y-30289845D01*
X53538490Y-30296698D01*
X53515073Y-30304559D01*
X53458789Y-30317688D01*
X53378532Y-30334422D01*
X53283196Y-30353099D01*
X53181675Y-30372056D01*
X53082865Y-30389629D01*
X52995658Y-30404156D01*
X52928951Y-30413975D01*
X52892767Y-30417425D01*
X52885658Y-30397151D01*
X52872594Y-30338707D01*
X52854227Y-30245737D01*
X52831210Y-30121886D01*
X52804195Y-29970799D01*
X52773835Y-29796120D01*
X52740783Y-29601493D01*
X52705690Y-29390563D01*
X52672071Y-29184670D01*
X52635698Y-28961267D01*
X52600920Y-28750258D01*
X52568379Y-28555365D01*
X52538716Y-28380304D01*
X52512572Y-28228796D01*
X52490588Y-28104560D01*
X52473405Y-28011314D01*
X52461665Y-27952776D01*
X52456258Y-27932813D01*
X52430256Y-27928150D01*
X52374035Y-27929821D01*
X52299021Y-27936571D01*
X52216643Y-27947148D01*
X52138327Y-27960296D01*
X52076519Y-27974473D01*
X52062598Y-27971842D01*
X52049847Y-27951790D01*
X52036789Y-27908851D01*
X52021946Y-27837558D01*
X52003839Y-27732445D01*
X51993266Y-27666546D01*
X51976443Y-27556098D01*
X51963241Y-27461441D01*
X51954594Y-27389960D01*
X51951435Y-27349037D01*
X51952264Y-27342289D01*
X51976486Y-27336029D01*
X52036275Y-27324625D01*
X52125731Y-27308995D01*
X52238955Y-27290053D01*
X52370045Y-27268718D01*
X52513102Y-27245905D01*
X52662224Y-27222530D01*
X52811511Y-27199511D01*
X52955064Y-27177764D01*
X53086981Y-27158206D01*
X53201362Y-27141752D01*
X53292307Y-27129320D01*
X53353914Y-27121825D01*
X53380285Y-27120186D01*
X53380776Y-27120396D01*
X53388436Y-27144757D01*
X53400674Y-27202572D01*
X53415858Y-27285419D01*
X53432356Y-27384877D01*
X53433777Y-27393896D01*
X53450404Y-27498227D01*
X53465571Y-27590487D01*
X53477631Y-27660849D01*
X53484940Y-27699489D01*
X53485068Y-27700050D01*
X53486828Y-27721564D01*
X53475338Y-27736790D01*
X53443109Y-27748712D01*
X53382652Y-27760314D01*
X53304452Y-27772012D01*
X53219350Y-27785673D01*
X53151507Y-27799315D01*
X53110885Y-27810803D01*
X53103966Y-27814950D01*
X53104406Y-27839248D01*
X53111000Y-27898050D01*
X53122684Y-27984748D01*
X53138396Y-28092730D01*
X53157071Y-28215389D01*
X53177645Y-28346114D01*
X53199054Y-28478295D01*
X53220235Y-28605323D01*
X53240123Y-28720588D01*
X53257654Y-28817481D01*
X53271765Y-28889392D01*
X53281392Y-28929711D01*
X53284418Y-28936027D01*
X53293874Y-28916775D01*
X53316318Y-28861592D01*
X53350290Y-28774340D01*
X53394327Y-28658878D01*
X53446967Y-28519067D01*
X53506749Y-28358767D01*
X53572210Y-28181837D01*
X53641889Y-27992140D01*
X53643105Y-27988818D01*
X53713113Y-27798106D01*
X53779118Y-27619401D01*
X53839626Y-27456672D01*
X53893142Y-27313889D01*
X53938170Y-27195020D01*
X53973217Y-27104035D01*
X53996787Y-27044903D01*
X54007381Y-27021598D01*
X54031226Y-27013848D01*
X54090242Y-27000578D01*
X54177796Y-26982950D01*
X54287255Y-26962127D01*
X54411986Y-26939270D01*
X54545358Y-26915542D01*
X54680737Y-26892104D01*
X54811491Y-26870120D01*
X54930989Y-26850751D01*
X55032596Y-26835160D01*
X55109681Y-26824509D01*
X55155611Y-26819959D01*
X55158535Y-26819880D01*
X55176344Y-26823111D01*
G37*
X55176344Y-26823111D02*
X55190666Y-26837530D01*
X55203477Y-26869496D01*
X55216751Y-26925370D01*
X55232464Y-27011511D01*
X55248749Y-27110402D01*
X55265788Y-27217815D01*
X55280029Y-27310972D01*
X55290235Y-27381529D01*
X55295170Y-27421137D01*
X55295439Y-27425709D01*
X55275515Y-27440406D01*
X55221169Y-27456858D01*
X55140128Y-27472868D01*
X55116619Y-27476541D01*
X55032900Y-27490080D01*
X54965099Y-27503053D01*
X54924297Y-27513266D01*
X54918458Y-27515775D01*
X54918954Y-27537586D01*
X54925421Y-27596001D01*
X54937066Y-27685836D01*
X54953097Y-27801904D01*
X54972722Y-27939022D01*
X54995149Y-28092003D01*
X55019584Y-28255662D01*
X55045237Y-28424815D01*
X55071315Y-28594276D01*
X55097024Y-28758859D01*
X55121574Y-28913380D01*
X55144171Y-29052654D01*
X55164023Y-29171495D01*
X55180339Y-29264718D01*
X55192325Y-29327138D01*
X55199190Y-29353569D01*
X55199310Y-29353754D01*
X55220215Y-29352601D01*
X55272989Y-29345247D01*
X55347857Y-29333112D01*
X55381301Y-29327325D01*
X55465437Y-29312984D01*
X55534499Y-29302072D01*
X55577177Y-29296344D01*
X55583787Y-29295889D01*
X55594378Y-29315386D01*
X55608965Y-29367985D01*
X55626012Y-29444817D01*
X55643981Y-29537014D01*
X55661338Y-29635706D01*
X55676544Y-29732026D01*
X55688064Y-29817105D01*
X55694362Y-29882073D01*
X55693901Y-29918064D01*
X55692232Y-29921867D01*
X55670545Y-29926928D01*
X55612982Y-29937872D01*
X55525437Y-29953700D01*
X55413802Y-29973409D01*
X55283971Y-29995999D01*
X55141838Y-30020468D01*
X54993296Y-30045814D01*
X54844238Y-30071037D01*
X54700558Y-30095134D01*
X54568148Y-30117105D01*
X54452904Y-30135947D01*
X54360718Y-30150660D01*
X54297483Y-30160243D01*
X54269092Y-30163693D01*
X54269030Y-30163693D01*
X54262164Y-30144158D01*
X54251529Y-30091476D01*
X54238396Y-30014532D01*
X54224037Y-29922211D01*
X54209723Y-29823399D01*
X54196725Y-29726981D01*
X54186313Y-29641842D01*
X54179760Y-29576867D01*
X54178336Y-29540942D01*
X54179345Y-29536810D01*
X54205486Y-29526912D01*
X54262690Y-29512953D01*
X54340202Y-29497455D01*
X54368351Y-29492443D01*
X54449473Y-29477526D01*
X54513161Y-29464112D01*
X54549008Y-29454455D01*
X54553004Y-29452428D01*
X54552283Y-29429911D01*
X54545411Y-29371848D01*
X54533377Y-29284422D01*
X54517170Y-29173816D01*
X54497780Y-29046210D01*
X54476195Y-28907787D01*
X54453406Y-28764729D01*
X54430402Y-28623218D01*
X54408171Y-28489435D01*
X54387704Y-28369562D01*
X54369989Y-28269782D01*
X54356016Y-28196276D01*
X54346775Y-28155226D01*
X54344402Y-28148963D01*
X54335088Y-28165489D01*
X54312805Y-28218282D01*
X54278908Y-28303775D01*
X54234752Y-28418398D01*
X54181693Y-28558584D01*
X54121085Y-28720764D01*
X54054284Y-28901369D01*
X53982645Y-29096832D01*
X53942428Y-29207297D01*
X53868496Y-29410431D01*
X53798631Y-29601601D01*
X53734207Y-29777099D01*
X53676599Y-29933222D01*
X53627179Y-30066263D01*
X53587322Y-30172518D01*
X53558402Y-30248280D01*
X53541792Y-30289845D01*
X53538490Y-30296698D01*
X53515073Y-30304559D01*
X53458789Y-30317688D01*
X53378532Y-30334422D01*
X53283196Y-30353099D01*
X53181675Y-30372056D01*
X53082865Y-30389629D01*
X52995658Y-30404156D01*
X52928951Y-30413975D01*
X52892767Y-30417425D01*
X52885658Y-30397151D01*
X52872594Y-30338707D01*
X52854227Y-30245737D01*
X52831210Y-30121886D01*
X52804195Y-29970799D01*
X52773835Y-29796120D01*
X52740783Y-29601493D01*
X52705690Y-29390563D01*
X52672071Y-29184670D01*
X52635698Y-28961267D01*
X52600920Y-28750258D01*
X52568379Y-28555365D01*
X52538716Y-28380304D01*
X52512572Y-28228796D01*
X52490588Y-28104560D01*
X52473405Y-28011314D01*
X52461665Y-27952776D01*
X52456258Y-27932813D01*
X52430256Y-27928150D01*
X52374035Y-27929821D01*
X52299021Y-27936571D01*
X52216643Y-27947148D01*
X52138327Y-27960296D01*
X52076519Y-27974473D01*
X52062598Y-27971842D01*
X52049847Y-27951790D01*
X52036789Y-27908851D01*
X52021946Y-27837558D01*
X52003839Y-27732445D01*
X51993266Y-27666546D01*
X51976443Y-27556098D01*
X51963241Y-27461441D01*
X51954594Y-27389960D01*
X51951435Y-27349037D01*
X51952264Y-27342289D01*
X51976486Y-27336029D01*
X52036275Y-27324625D01*
X52125731Y-27308995D01*
X52238955Y-27290053D01*
X52370045Y-27268718D01*
X52513102Y-27245905D01*
X52662224Y-27222530D01*
X52811511Y-27199511D01*
X52955064Y-27177764D01*
X53086981Y-27158206D01*
X53201362Y-27141752D01*
X53292307Y-27129320D01*
X53353914Y-27121825D01*
X53380285Y-27120186D01*
X53380776Y-27120396D01*
X53388436Y-27144757D01*
X53400674Y-27202572D01*
X53415858Y-27285419D01*
X53432356Y-27384877D01*
X53433777Y-27393896D01*
X53450404Y-27498227D01*
X53465571Y-27590487D01*
X53477631Y-27660849D01*
X53484940Y-27699489D01*
X53485068Y-27700050D01*
X53486828Y-27721564D01*
X53475338Y-27736790D01*
X53443109Y-27748712D01*
X53382652Y-27760314D01*
X53304452Y-27772012D01*
X53219350Y-27785673D01*
X53151507Y-27799315D01*
X53110885Y-27810803D01*
X53103966Y-27814950D01*
X53104406Y-27839248D01*
X53111000Y-27898050D01*
X53122684Y-27984748D01*
X53138396Y-28092730D01*
X53157071Y-28215389D01*
X53177645Y-28346114D01*
X53199054Y-28478295D01*
X53220235Y-28605323D01*
X53240123Y-28720588D01*
X53257654Y-28817481D01*
X53271765Y-28889392D01*
X53281392Y-28929711D01*
X53284418Y-28936027D01*
X53293874Y-28916775D01*
X53316318Y-28861592D01*
X53350290Y-28774340D01*
X53394327Y-28658878D01*
X53446967Y-28519067D01*
X53506749Y-28358767D01*
X53572210Y-28181837D01*
X53641889Y-27992140D01*
X53643105Y-27988818D01*
X53713113Y-27798106D01*
X53779118Y-27619401D01*
X53839626Y-27456672D01*
X53893142Y-27313889D01*
X53938170Y-27195020D01*
X53973217Y-27104035D01*
X53996787Y-27044903D01*
X54007381Y-27021598D01*
X54031226Y-27013848D01*
X54090242Y-27000578D01*
X54177796Y-26982950D01*
X54287255Y-26962127D01*
X54411986Y-26939270D01*
X54545358Y-26915542D01*
X54680737Y-26892104D01*
X54811491Y-26870120D01*
X54930989Y-26850751D01*
X55032596Y-26835160D01*
X55109681Y-26824509D01*
X55155611Y-26819959D01*
X55158535Y-26819880D01*
X55176344Y-26823111D01*
G36*
X55386074Y-28096288D02*
G01*
X56141848Y-28096288D01*
X56161756Y-28290920D01*
X56215126Y-28479306D01*
X56256951Y-28573596D01*
X56346512Y-28713288D01*
X56462627Y-28838230D01*
X56596636Y-28941743D01*
X56739876Y-29017150D01*
X56883688Y-29057774D01*
X56885233Y-29058001D01*
X57013687Y-29065957D01*
X57152681Y-29057031D01*
X57284409Y-29033257D01*
X57380892Y-29001357D01*
X57534272Y-28911369D01*
X57661853Y-28790958D01*
X57761766Y-28644625D01*
X57832140Y-28476869D01*
X57871107Y-28292187D01*
X57876798Y-28095080D01*
X57847343Y-27890046D01*
X57845649Y-27882768D01*
X57783208Y-27694806D01*
X57691828Y-27529367D01*
X57575371Y-27390083D01*
X57437695Y-27280590D01*
X57282662Y-27204521D01*
X57114130Y-27165509D01*
X57080687Y-27162573D01*
X56884203Y-27169062D01*
X56702427Y-27213753D01*
X56538768Y-27294961D01*
X56396637Y-27411001D01*
X56280940Y-27557807D01*
X56201636Y-27721442D01*
X56155206Y-27903699D01*
X56141848Y-28096288D01*
X55386074Y-28096288D01*
X55385099Y-27957741D01*
X55399672Y-27790173D01*
X55432499Y-27637632D01*
X55485888Y-27487592D01*
X55524928Y-27401443D01*
X55656260Y-27172985D01*
X55813982Y-26977597D01*
X55998486Y-26814936D01*
X56210167Y-26684660D01*
X56449419Y-26586426D01*
X56470435Y-26579731D01*
X56750022Y-26511274D01*
X57018844Y-26483685D01*
X57276785Y-26496947D01*
X57523730Y-26551042D01*
X57759562Y-26645955D01*
X57984165Y-26781666D01*
X58021655Y-26809119D01*
X58196352Y-26966253D01*
X58343769Y-27151846D01*
X58462512Y-27360857D01*
X58551184Y-27588246D01*
X58608390Y-27828974D01*
X58632735Y-28077999D01*
X58622823Y-28330282D01*
X58577258Y-28580784D01*
X58543736Y-28694650D01*
X58448294Y-28916957D01*
X58318676Y-29117511D01*
X58158275Y-29294063D01*
X57970486Y-29444366D01*
X57758703Y-29566172D01*
X57526321Y-29657235D01*
X57276733Y-29715307D01*
X57013334Y-29738141D01*
X56967351Y-29738356D01*
X56856524Y-29734070D01*
X56740525Y-29723971D01*
X56640218Y-29710006D01*
X56618101Y-29705735D01*
X56483990Y-29666856D01*
X56333860Y-29605984D01*
X56182399Y-29530262D01*
X56044299Y-29446835D01*
X55962447Y-29386869D01*
X55779386Y-29212118D01*
X55630941Y-29013080D01*
X55517225Y-28789999D01*
X55438353Y-28543118D01*
X55394436Y-28272680D01*
X55386472Y-28152860D01*
X55386074Y-28096288D01*
G37*
X55386074Y-28096288D02*
X56141848Y-28096288D01*
X56161756Y-28290920D01*
X56215126Y-28479306D01*
X56256951Y-28573596D01*
X56346512Y-28713288D01*
X56462627Y-28838230D01*
X56596636Y-28941743D01*
X56739876Y-29017150D01*
X56883688Y-29057774D01*
X56885233Y-29058001D01*
X57013687Y-29065957D01*
X57152681Y-29057031D01*
X57284409Y-29033257D01*
X57380892Y-29001357D01*
X57534272Y-28911369D01*
X57661853Y-28790958D01*
X57761766Y-28644625D01*
X57832140Y-28476869D01*
X57871107Y-28292187D01*
X57876798Y-28095080D01*
X57847343Y-27890046D01*
X57845649Y-27882768D01*
X57783208Y-27694806D01*
X57691828Y-27529367D01*
X57575371Y-27390083D01*
X57437695Y-27280590D01*
X57282662Y-27204521D01*
X57114130Y-27165509D01*
X57080687Y-27162573D01*
X56884203Y-27169062D01*
X56702427Y-27213753D01*
X56538768Y-27294961D01*
X56396637Y-27411001D01*
X56280940Y-27557807D01*
X56201636Y-27721442D01*
X56155206Y-27903699D01*
X56141848Y-28096288D01*
X55386074Y-28096288D01*
X55385099Y-27957741D01*
X55399672Y-27790173D01*
X55432499Y-27637632D01*
X55485888Y-27487592D01*
X55524928Y-27401443D01*
X55656260Y-27172985D01*
X55813982Y-26977597D01*
X55998486Y-26814936D01*
X56210167Y-26684660D01*
X56449419Y-26586426D01*
X56470435Y-26579731D01*
X56750022Y-26511274D01*
X57018844Y-26483685D01*
X57276785Y-26496947D01*
X57523730Y-26551042D01*
X57759562Y-26645955D01*
X57984165Y-26781666D01*
X58021655Y-26809119D01*
X58196352Y-26966253D01*
X58343769Y-27151846D01*
X58462512Y-27360857D01*
X58551184Y-27588246D01*
X58608390Y-27828974D01*
X58632735Y-28077999D01*
X58622823Y-28330282D01*
X58577258Y-28580784D01*
X58543736Y-28694650D01*
X58448294Y-28916957D01*
X58318676Y-29117511D01*
X58158275Y-29294063D01*
X57970486Y-29444366D01*
X57758703Y-29566172D01*
X57526321Y-29657235D01*
X57276733Y-29715307D01*
X57013334Y-29738141D01*
X56967351Y-29738356D01*
X56856524Y-29734070D01*
X56740525Y-29723971D01*
X56640218Y-29710006D01*
X56618101Y-29705735D01*
X56483990Y-29666856D01*
X56333860Y-29605984D01*
X56182399Y-29530262D01*
X56044299Y-29446835D01*
X55962447Y-29386869D01*
X55779386Y-29212118D01*
X55630941Y-29013080D01*
X55517225Y-28789999D01*
X55438353Y-28543118D01*
X55394436Y-28272680D01*
X55386472Y-28152860D01*
X55386074Y-28096288D01*
G36*
X61546343Y-26116753D02*
G01*
X63733674Y-26116753D01*
X63734492Y-26130134D01*
X63738788Y-26163596D01*
X63749222Y-26234075D01*
X63765048Y-26336819D01*
X63785515Y-26467075D01*
X63809874Y-26620091D01*
X63837377Y-26791115D01*
X63867273Y-26975394D01*
X63880537Y-27056663D01*
X63915414Y-27269521D01*
X63944343Y-27444279D01*
X63968125Y-27584629D01*
X63987565Y-27694263D01*
X64003464Y-27776872D01*
X64016626Y-27836149D01*
X64027854Y-27875785D01*
X64037950Y-27899471D01*
X64047717Y-27910900D01*
X64057959Y-27913764D01*
X64066646Y-27912461D01*
X64114325Y-27903069D01*
X64182457Y-27891763D01*
X64212137Y-27887318D01*
X64272476Y-27877104D01*
X64300669Y-27863588D01*
X64306541Y-27837960D01*
X64302361Y-27806424D01*
X64293188Y-27749875D01*
X64280399Y-27670683D01*
X64269422Y-27602527D01*
X64256084Y-27521517D01*
X64243756Y-27449858D01*
X64236362Y-27409638D01*
X64225429Y-27354333D01*
X64532827Y-27305006D01*
X64641908Y-27288389D01*
X64735602Y-27275795D01*
X64806252Y-27268123D01*
X64846200Y-27266271D01*
X64852081Y-27267534D01*
X64860172Y-27291966D01*
X64873184Y-27349346D01*
X64889252Y-27430838D01*
X64904851Y-27517860D01*
X64921536Y-27612631D01*
X64936040Y-27690427D01*
X64946724Y-27742756D01*
X64951766Y-27761102D01*
X64972932Y-27759035D01*
X65028531Y-27751222D01*
X65111234Y-27738832D01*
X65213709Y-27723034D01*
X65328625Y-27704999D01*
X65448653Y-27685895D01*
X65566461Y-27666893D01*
X65674718Y-27649162D01*
X65766094Y-27633872D01*
X65833258Y-27622191D01*
X65868880Y-27615291D01*
X65872594Y-27614186D01*
X65870833Y-27593598D01*
X65863166Y-27540092D01*
X65851060Y-27462434D01*
X65835981Y-27369392D01*
X65819398Y-27269733D01*
X65802777Y-27172224D01*
X65787587Y-27085632D01*
X65775293Y-27018726D01*
X65767365Y-26980272D01*
X65765531Y-26974485D01*
X65744259Y-26976448D01*
X65686912Y-26984434D01*
X65599183Y-26997576D01*
X65486768Y-27015007D01*
X65355360Y-27035863D01*
X65245003Y-27053679D01*
X65102599Y-27076428D01*
X64974539Y-27096116D01*
X64866575Y-27111922D01*
X64784461Y-27123023D01*
X64733950Y-27128599D01*
X64720226Y-27128624D01*
X64714121Y-27106223D01*
X64703139Y-27051328D01*
X64688784Y-26972905D01*
X64672556Y-26879919D01*
X64655960Y-26781336D01*
X64640496Y-26686120D01*
X64627667Y-26603237D01*
X64618976Y-26541652D01*
X64615925Y-26510330D01*
X64616264Y-26508224D01*
X64637430Y-26503688D01*
X64694676Y-26493205D01*
X64782323Y-26477767D01*
X64894690Y-26458365D01*
X65026099Y-26435990D01*
X65137684Y-26417193D01*
X65280025Y-26393156D01*
X65407790Y-26371262D01*
X65515287Y-26352512D01*
X65596822Y-26337908D01*
X65646702Y-26328451D01*
X65659966Y-26325300D01*
X65658543Y-26303735D01*
X65651000Y-26248345D01*
X65638504Y-26167004D01*
X65622224Y-26067588D01*
X65618371Y-26044784D01*
X65571601Y-25769443D01*
X65116517Y-25842238D01*
X64983018Y-25863846D01*
X64864237Y-25883555D01*
X64766319Y-25900305D01*
X64695411Y-25913038D01*
X64657660Y-25920693D01*
X64653194Y-25922117D01*
X64653056Y-25944552D01*
X64658947Y-26000039D01*
X64669809Y-26079895D01*
X64682601Y-26163193D01*
X64696564Y-26258012D01*
X64705748Y-26336862D01*
X64709264Y-26390773D01*
X64707034Y-26410399D01*
X64680651Y-26420115D01*
X64622472Y-26433464D01*
X64541703Y-26448992D01*
X64447554Y-26465242D01*
X64349232Y-26480760D01*
X64255945Y-26494090D01*
X64176903Y-26503776D01*
X64121313Y-26508364D01*
X64098516Y-26506575D01*
X64089963Y-26480609D01*
X64077123Y-26421886D01*
X64061837Y-26339534D01*
X64048177Y-26257022D01*
X64011386Y-26022768D01*
X63870743Y-26046367D01*
X63796217Y-26059823D01*
X63754530Y-26072351D01*
X63736682Y-26089483D01*
X63733674Y-26116753D01*
X61546343Y-26116753D01*
X61528876Y-26003012D01*
X61514919Y-25904475D01*
X61506158Y-25832732D01*
X61503449Y-25793964D01*
X61504297Y-25789024D01*
X61525654Y-25784701D01*
X61585671Y-25774050D01*
X61681233Y-25757586D01*
X61809224Y-25735824D01*
X61966528Y-25709279D01*
X62150029Y-25678466D01*
X62356612Y-25643901D01*
X62583159Y-25606097D01*
X62826557Y-25565570D01*
X63083687Y-25522835D01*
X63351436Y-25478407D01*
X63626686Y-25432801D01*
X63906322Y-25386532D01*
X64187228Y-25340115D01*
X64466288Y-25294065D01*
X64740386Y-25248896D01*
X65006406Y-25205125D01*
X65261233Y-25163265D01*
X65501750Y-25123832D01*
X65724842Y-25087341D01*
X65927392Y-25054307D01*
X66106286Y-25025245D01*
X66258406Y-25000669D01*
X66380637Y-24981096D01*
X66469863Y-24967039D01*
X66522968Y-24959013D01*
X66536817Y-24957266D01*
X66544354Y-24976783D01*
X66556607Y-25030905D01*
X66572139Y-25112355D01*
X66589511Y-25213853D01*
X66597825Y-25265922D01*
X66617458Y-25391835D01*
X66629163Y-25482129D01*
X66630478Y-25543164D01*
X66618942Y-25581301D01*
X66592093Y-25602901D01*
X66547468Y-25614322D01*
X66482606Y-25621926D01*
X66459072Y-25624388D01*
X66386913Y-25633866D01*
X66331252Y-25644372D01*
X66307636Y-25652037D01*
X66305252Y-25676651D01*
X66310445Y-25741915D01*
X66323083Y-25846856D01*
X66343032Y-25990499D01*
X66370158Y-26171869D01*
X66404327Y-26389992D01*
X66434305Y-26575943D01*
X66465468Y-26766715D01*
X66494645Y-26944199D01*
X66521120Y-27104118D01*
X66544174Y-27242192D01*
X66563093Y-27354145D01*
X66577159Y-27435698D01*
X66585655Y-27482573D01*
X66587865Y-27492440D01*
X66609638Y-27491950D01*
X66663109Y-27485182D01*
X66738331Y-27473466D01*
X66770319Y-27468034D01*
X66850807Y-27454474D01*
X66912898Y-27444785D01*
X66946815Y-27440461D01*
X66950286Y-27440537D01*
X66954561Y-27461392D01*
X66964451Y-27516706D01*
X66978684Y-27599170D01*
X66995991Y-27701474D01*
X67005409Y-27757833D01*
X67026823Y-27894514D01*
X67038941Y-27992039D01*
X67041954Y-28052509D01*
X67036050Y-28078023D01*
X67034307Y-28078997D01*
X67007545Y-28084232D01*
X66943012Y-28095480D01*
X66844212Y-28112175D01*
X66714646Y-28133753D01*
X66557817Y-28159648D01*
X66377227Y-28189296D01*
X66176378Y-28222131D01*
X65958771Y-28257589D01*
X65727910Y-28295104D01*
X65487297Y-28334112D01*
X65240433Y-28374048D01*
X64990821Y-28414346D01*
X64741963Y-28454442D01*
X64497361Y-28493770D01*
X64260518Y-28531765D01*
X64034935Y-28567864D01*
X63824115Y-28601500D01*
X63631559Y-28632108D01*
X63460771Y-28659124D01*
X63315252Y-28681983D01*
X63198505Y-28700119D01*
X63114031Y-28712968D01*
X63065332Y-28719965D01*
X63054391Y-28721066D01*
X63047844Y-28696980D01*
X63037121Y-28640643D01*
X63023590Y-28561084D01*
X63008619Y-28467335D01*
X62993576Y-28368429D01*
X62979827Y-28273397D01*
X62968741Y-28191271D01*
X62961684Y-28131082D01*
X62960024Y-28101862D01*
X62960441Y-28100547D01*
X62984149Y-28093020D01*
X63039089Y-28081068D01*
X63114690Y-28066932D01*
X63138144Y-28062883D01*
X63228007Y-28045299D01*
X63280893Y-28028614D01*
X63302067Y-28010935D01*
X63302901Y-28003621D01*
X63298249Y-27972347D01*
X63288176Y-27907869D01*
X63274037Y-27818774D01*
X63257188Y-27713646D01*
X63252073Y-27681902D01*
X63230938Y-27558323D01*
X63213142Y-27472236D01*
X63197461Y-27419044D01*
X63182670Y-27394153D01*
X63174520Y-27390860D01*
X63145758Y-27394187D01*
X63083285Y-27403299D01*
X62995126Y-27416889D01*
X62889307Y-27433652D01*
X62773850Y-27452283D01*
X62656783Y-27471475D01*
X62546128Y-27489923D01*
X62449912Y-27506322D01*
X62376158Y-27519365D01*
X62332891Y-27527747D01*
X62332058Y-27527933D01*
X62314383Y-27529116D01*
X62300429Y-27519439D01*
X62288204Y-27492709D01*
X62275718Y-27442733D01*
X62260979Y-27363317D01*
X62241997Y-27248268D01*
X62241845Y-27247322D01*
X62224773Y-27139072D01*
X62210524Y-27044134D01*
X62200349Y-26971190D01*
X62195497Y-26928920D01*
X62195262Y-26923796D01*
X62202591Y-26911450D01*
X62227434Y-26899080D01*
X62274364Y-26885636D01*
X62347957Y-26870070D01*
X62452787Y-26851332D01*
X62593430Y-26828373D01*
X62650782Y-26819331D01*
X62802551Y-26795124D01*
X62917074Y-26775642D01*
X62999038Y-26759789D01*
X63053126Y-26746466D01*
X63084024Y-26734578D01*
X63096418Y-26723027D01*
X63096692Y-26714895D01*
X63089770Y-26681315D01*
X63078247Y-26615946D01*
X63063846Y-26528858D01*
X63051196Y-26448943D01*
X63035556Y-26354067D01*
X63020837Y-26275185D01*
X63008846Y-26221393D01*
X63002161Y-26202203D01*
X62979024Y-26201774D01*
X62922380Y-26207527D01*
X62840391Y-26218173D01*
X62741219Y-26232423D01*
X62633025Y-26248989D01*
X62523970Y-26266582D01*
X62422218Y-26283912D01*
X62335930Y-26299690D01*
X62273267Y-26312628D01*
X62242391Y-26321437D01*
X62240894Y-26322428D01*
X62240478Y-26345638D01*
X62246154Y-26401805D01*
X62256886Y-26482158D01*
X62269601Y-26565360D01*
X62283858Y-26659743D01*
X62293881Y-26737683D01*
X62298654Y-26790384D01*
X62297729Y-26808870D01*
X62274486Y-26815545D01*
X62217266Y-26827297D01*
X62133917Y-26842638D01*
X62032283Y-26860080D01*
X61997923Y-26865740D01*
X61880869Y-26885565D01*
X61800162Y-26901390D01*
X61750188Y-26914839D01*
X61725337Y-26927530D01*
X61719994Y-26941085D01*
X61721373Y-26945601D01*
X61766013Y-27078127D01*
X61802424Y-27238584D01*
X61828792Y-27413060D01*
X61843298Y-27587642D01*
X61844125Y-27748417D01*
X61837246Y-27832904D01*
X61785141Y-28093130D01*
X61697827Y-28331347D01*
X61577026Y-28545561D01*
X61424460Y-28733780D01*
X61241851Y-28894009D01*
X61030921Y-29024255D01*
X60793393Y-29122527D01*
X60698947Y-29150427D01*
X60595885Y-29171348D01*
X60467892Y-29187729D01*
X60327122Y-29198969D01*
X60185729Y-29204465D01*
X60055865Y-29203612D01*
X59949685Y-29195810D01*
X59911109Y-29189505D01*
X59666037Y-29118400D01*
X59442015Y-29013769D01*
X59242327Y-28878037D01*
X59070254Y-28713630D01*
X58929080Y-28522971D01*
X58873324Y-28422977D01*
X58834634Y-28343778D01*
X58805738Y-28279959D01*
X58790327Y-28239957D01*
X58789205Y-28230783D01*
X58807964Y-28215771D01*
X58854062Y-28178863D01*
X58921797Y-28124628D01*
X59005464Y-28057631D01*
X59069628Y-28006249D01*
X59160487Y-27934191D01*
X59239161Y-27873131D01*
X59300069Y-27827292D01*
X59337630Y-27800899D01*
X59347063Y-27796277D01*
X59358780Y-27817072D01*
X59385239Y-27866871D01*
X59421864Y-27937008D01*
X59444822Y-27981380D01*
X59558481Y-28165650D01*
X59690455Y-28312466D01*
X59841989Y-28423116D01*
X59902849Y-28454953D01*
X59976380Y-28487863D01*
X60037222Y-28508144D01*
X60100525Y-28518792D01*
X60181440Y-28522805D01*
X60248184Y-28523277D01*
X60350004Y-28521684D01*
X60424457Y-28515090D01*
X60486446Y-28500775D01*
X60550876Y-28476016D01*
X60580746Y-28462542D01*
X60702899Y-28388651D01*
X60821607Y-28285935D01*
X60924393Y-28166926D01*
X60998780Y-28044159D01*
X61000097Y-28041306D01*
X61059623Y-27865468D01*
X61084625Y-27680611D01*
X61077138Y-27493087D01*
X61039197Y-27309248D01*
X60972840Y-27135443D01*
X60880102Y-26978026D01*
X60763020Y-26843346D01*
X60623629Y-26737757D01*
X60573519Y-26710594D01*
X60408597Y-26651835D01*
X60237250Y-26631301D01*
X60065565Y-26646772D01*
X59899632Y-26696033D01*
X59745536Y-26776865D01*
X59609368Y-26887051D01*
X59497214Y-27024373D01*
X59442162Y-27122690D01*
X59410692Y-27194042D01*
X59388434Y-27253731D01*
X59380367Y-27287726D01*
X59365353Y-27330585D01*
X59353892Y-27343042D01*
X59325471Y-27353165D01*
X59265958Y-27367117D01*
X59184749Y-27383321D01*
X59091239Y-27400202D01*
X58994822Y-27416183D01*
X58904895Y-27429690D01*
X58830851Y-27439147D01*
X58782086Y-27442977D01*
X58767866Y-27441331D01*
X58762353Y-27419206D01*
X58751310Y-27361850D01*
X58735832Y-27275846D01*
X58717012Y-27167775D01*
X58695941Y-27044219D01*
X58673714Y-26911761D01*
X58651424Y-26776981D01*
X58630162Y-26646462D01*
X58611023Y-26526785D01*
X58595098Y-26424533D01*
X58583482Y-26346287D01*
X58577267Y-26298630D01*
X58576526Y-26289082D01*
X58584763Y-26274408D01*
X58613508Y-26260401D01*
X58668096Y-26245631D01*
X58753858Y-26228663D01*
X58876128Y-26208065D01*
X58881025Y-26207278D01*
X58990795Y-26190839D01*
X59086294Y-26178748D01*
X59159464Y-26171857D01*
X59202252Y-26171016D01*
X59209108Y-26172597D01*
X59226672Y-26202615D01*
X59232184Y-26241107D01*
X59234664Y-26278130D01*
X59249734Y-26280797D01*
X59279809Y-26260377D01*
X59356255Y-26212744D01*
X59460375Y-26159279D01*
X59579134Y-26105758D01*
X59699496Y-26057955D01*
X59808424Y-26021646D01*
X59835434Y-26014240D01*
X60099981Y-25965176D01*
X60357461Y-25954852D01*
X60604754Y-25982531D01*
X60838741Y-26047475D01*
X61056303Y-26148946D01*
X61254320Y-26286207D01*
X61349156Y-26372103D01*
X61425734Y-26452879D01*
X61498137Y-26537901D01*
X61555875Y-26614458D01*
X61578540Y-26650027D01*
X61612125Y-26705144D01*
X61636028Y-26736935D01*
X61644985Y-26738671D01*
X61641671Y-26710380D01*
X61632286Y-26646832D01*
X61617852Y-26554506D01*
X61599386Y-26439880D01*
X61577911Y-26309432D01*
X61568953Y-26255748D01*
X61547173Y-26122163D01*
X61546343Y-26116753D01*
G37*
X61546343Y-26116753D02*
X63733674Y-26116753D01*
X63734492Y-26130134D01*
X63738788Y-26163596D01*
X63749222Y-26234075D01*
X63765048Y-26336819D01*
X63785515Y-26467075D01*
X63809874Y-26620091D01*
X63837377Y-26791115D01*
X63867273Y-26975394D01*
X63880537Y-27056663D01*
X63915414Y-27269521D01*
X63944343Y-27444279D01*
X63968125Y-27584629D01*
X63987565Y-27694263D01*
X64003464Y-27776872D01*
X64016626Y-27836149D01*
X64027854Y-27875785D01*
X64037950Y-27899471D01*
X64047717Y-27910900D01*
X64057959Y-27913764D01*
X64066646Y-27912461D01*
X64114325Y-27903069D01*
X64182457Y-27891763D01*
X64212137Y-27887318D01*
X64272476Y-27877104D01*
X64300669Y-27863588D01*
X64306541Y-27837960D01*
X64302361Y-27806424D01*
X64293188Y-27749875D01*
X64280399Y-27670683D01*
X64269422Y-27602527D01*
X64256084Y-27521517D01*
X64243756Y-27449858D01*
X64236362Y-27409638D01*
X64225429Y-27354333D01*
X64532827Y-27305006D01*
X64641908Y-27288389D01*
X64735602Y-27275795D01*
X64806252Y-27268123D01*
X64846200Y-27266271D01*
X64852081Y-27267534D01*
X64860172Y-27291966D01*
X64873184Y-27349346D01*
X64889252Y-27430838D01*
X64904851Y-27517860D01*
X64921536Y-27612631D01*
X64936040Y-27690427D01*
X64946724Y-27742756D01*
X64951766Y-27761102D01*
X64972932Y-27759035D01*
X65028531Y-27751222D01*
X65111234Y-27738832D01*
X65213709Y-27723034D01*
X65328625Y-27704999D01*
X65448653Y-27685895D01*
X65566461Y-27666893D01*
X65674718Y-27649162D01*
X65766094Y-27633872D01*
X65833258Y-27622191D01*
X65868880Y-27615291D01*
X65872594Y-27614186D01*
X65870833Y-27593598D01*
X65863166Y-27540092D01*
X65851060Y-27462434D01*
X65835981Y-27369392D01*
X65819398Y-27269733D01*
X65802777Y-27172224D01*
X65787587Y-27085632D01*
X65775293Y-27018726D01*
X65767365Y-26980272D01*
X65765531Y-26974485D01*
X65744259Y-26976448D01*
X65686912Y-26984434D01*
X65599183Y-26997576D01*
X65486768Y-27015007D01*
X65355360Y-27035863D01*
X65245003Y-27053679D01*
X65102599Y-27076428D01*
X64974539Y-27096116D01*
X64866575Y-27111922D01*
X64784461Y-27123023D01*
X64733950Y-27128599D01*
X64720226Y-27128624D01*
X64714121Y-27106223D01*
X64703139Y-27051328D01*
X64688784Y-26972905D01*
X64672556Y-26879919D01*
X64655960Y-26781336D01*
X64640496Y-26686120D01*
X64627667Y-26603237D01*
X64618976Y-26541652D01*
X64615925Y-26510330D01*
X64616264Y-26508224D01*
X64637430Y-26503688D01*
X64694676Y-26493205D01*
X64782323Y-26477767D01*
X64894690Y-26458365D01*
X65026099Y-26435990D01*
X65137684Y-26417193D01*
X65280025Y-26393156D01*
X65407790Y-26371262D01*
X65515287Y-26352512D01*
X65596822Y-26337908D01*
X65646702Y-26328451D01*
X65659966Y-26325300D01*
X65658543Y-26303735D01*
X65651000Y-26248345D01*
X65638504Y-26167004D01*
X65622224Y-26067588D01*
X65618371Y-26044784D01*
X65571601Y-25769443D01*
X65116517Y-25842238D01*
X64983018Y-25863846D01*
X64864237Y-25883555D01*
X64766319Y-25900305D01*
X64695411Y-25913038D01*
X64657660Y-25920693D01*
X64653194Y-25922117D01*
X64653056Y-25944552D01*
X64658947Y-26000039D01*
X64669809Y-26079895D01*
X64682601Y-26163193D01*
X64696564Y-26258012D01*
X64705748Y-26336862D01*
X64709264Y-26390773D01*
X64707034Y-26410399D01*
X64680651Y-26420115D01*
X64622472Y-26433464D01*
X64541703Y-26448992D01*
X64447554Y-26465242D01*
X64349232Y-26480760D01*
X64255945Y-26494090D01*
X64176903Y-26503776D01*
X64121313Y-26508364D01*
X64098516Y-26506575D01*
X64089963Y-26480609D01*
X64077123Y-26421886D01*
X64061837Y-26339534D01*
X64048177Y-26257022D01*
X64011386Y-26022768D01*
X63870743Y-26046367D01*
X63796217Y-26059823D01*
X63754530Y-26072351D01*
X63736682Y-26089483D01*
X63733674Y-26116753D01*
X61546343Y-26116753D01*
X61528876Y-26003012D01*
X61514919Y-25904475D01*
X61506158Y-25832732D01*
X61503449Y-25793964D01*
X61504297Y-25789024D01*
X61525654Y-25784701D01*
X61585671Y-25774050D01*
X61681233Y-25757586D01*
X61809224Y-25735824D01*
X61966528Y-25709279D01*
X62150029Y-25678466D01*
X62356612Y-25643901D01*
X62583159Y-25606097D01*
X62826557Y-25565570D01*
X63083687Y-25522835D01*
X63351436Y-25478407D01*
X63626686Y-25432801D01*
X63906322Y-25386532D01*
X64187228Y-25340115D01*
X64466288Y-25294065D01*
X64740386Y-25248896D01*
X65006406Y-25205125D01*
X65261233Y-25163265D01*
X65501750Y-25123832D01*
X65724842Y-25087341D01*
X65927392Y-25054307D01*
X66106286Y-25025245D01*
X66258406Y-25000669D01*
X66380637Y-24981096D01*
X66469863Y-24967039D01*
X66522968Y-24959013D01*
X66536817Y-24957266D01*
X66544354Y-24976783D01*
X66556607Y-25030905D01*
X66572139Y-25112355D01*
X66589511Y-25213853D01*
X66597825Y-25265922D01*
X66617458Y-25391835D01*
X66629163Y-25482129D01*
X66630478Y-25543164D01*
X66618942Y-25581301D01*
X66592093Y-25602901D01*
X66547468Y-25614322D01*
X66482606Y-25621926D01*
X66459072Y-25624388D01*
X66386913Y-25633866D01*
X66331252Y-25644372D01*
X66307636Y-25652037D01*
X66305252Y-25676651D01*
X66310445Y-25741915D01*
X66323083Y-25846856D01*
X66343032Y-25990499D01*
X66370158Y-26171869D01*
X66404327Y-26389992D01*
X66434305Y-26575943D01*
X66465468Y-26766715D01*
X66494645Y-26944199D01*
X66521120Y-27104118D01*
X66544174Y-27242192D01*
X66563093Y-27354145D01*
X66577159Y-27435698D01*
X66585655Y-27482573D01*
X66587865Y-27492440D01*
X66609638Y-27491950D01*
X66663109Y-27485182D01*
X66738331Y-27473466D01*
X66770319Y-27468034D01*
X66850807Y-27454474D01*
X66912898Y-27444785D01*
X66946815Y-27440461D01*
X66950286Y-27440537D01*
X66954561Y-27461392D01*
X66964451Y-27516706D01*
X66978684Y-27599170D01*
X66995991Y-27701474D01*
X67005409Y-27757833D01*
X67026823Y-27894514D01*
X67038941Y-27992039D01*
X67041954Y-28052509D01*
X67036050Y-28078023D01*
X67034307Y-28078997D01*
X67007545Y-28084232D01*
X66943012Y-28095480D01*
X66844212Y-28112175D01*
X66714646Y-28133753D01*
X66557817Y-28159648D01*
X66377227Y-28189296D01*
X66176378Y-28222131D01*
X65958771Y-28257589D01*
X65727910Y-28295104D01*
X65487297Y-28334112D01*
X65240433Y-28374048D01*
X64990821Y-28414346D01*
X64741963Y-28454442D01*
X64497361Y-28493770D01*
X64260518Y-28531765D01*
X64034935Y-28567864D01*
X63824115Y-28601500D01*
X63631559Y-28632108D01*
X63460771Y-28659124D01*
X63315252Y-28681983D01*
X63198505Y-28700119D01*
X63114031Y-28712968D01*
X63065332Y-28719965D01*
X63054391Y-28721066D01*
X63047844Y-28696980D01*
X63037121Y-28640643D01*
X63023590Y-28561084D01*
X63008619Y-28467335D01*
X62993576Y-28368429D01*
X62979827Y-28273397D01*
X62968741Y-28191271D01*
X62961684Y-28131082D01*
X62960024Y-28101862D01*
X62960441Y-28100547D01*
X62984149Y-28093020D01*
X63039089Y-28081068D01*
X63114690Y-28066932D01*
X63138144Y-28062883D01*
X63228007Y-28045299D01*
X63280893Y-28028614D01*
X63302067Y-28010935D01*
X63302901Y-28003621D01*
X63298249Y-27972347D01*
X63288176Y-27907869D01*
X63274037Y-27818774D01*
X63257188Y-27713646D01*
X63252073Y-27681902D01*
X63230938Y-27558323D01*
X63213142Y-27472236D01*
X63197461Y-27419044D01*
X63182670Y-27394153D01*
X63174520Y-27390860D01*
X63145758Y-27394187D01*
X63083285Y-27403299D01*
X62995126Y-27416889D01*
X62889307Y-27433652D01*
X62773850Y-27452283D01*
X62656783Y-27471475D01*
X62546128Y-27489923D01*
X62449912Y-27506322D01*
X62376158Y-27519365D01*
X62332891Y-27527747D01*
X62332058Y-27527933D01*
X62314383Y-27529116D01*
X62300429Y-27519439D01*
X62288204Y-27492709D01*
X62275718Y-27442733D01*
X62260979Y-27363317D01*
X62241997Y-27248268D01*
X62241845Y-27247322D01*
X62224773Y-27139072D01*
X62210524Y-27044134D01*
X62200349Y-26971190D01*
X62195497Y-26928920D01*
X62195262Y-26923796D01*
X62202591Y-26911450D01*
X62227434Y-26899080D01*
X62274364Y-26885636D01*
X62347957Y-26870070D01*
X62452787Y-26851332D01*
X62593430Y-26828373D01*
X62650782Y-26819331D01*
X62802551Y-26795124D01*
X62917074Y-26775642D01*
X62999038Y-26759789D01*
X63053126Y-26746466D01*
X63084024Y-26734578D01*
X63096418Y-26723027D01*
X63096692Y-26714895D01*
X63089770Y-26681315D01*
X63078247Y-26615946D01*
X63063846Y-26528858D01*
X63051196Y-26448943D01*
X63035556Y-26354067D01*
X63020837Y-26275185D01*
X63008846Y-26221393D01*
X63002161Y-26202203D01*
X62979024Y-26201774D01*
X62922380Y-26207527D01*
X62840391Y-26218173D01*
X62741219Y-26232423D01*
X62633025Y-26248989D01*
X62523970Y-26266582D01*
X62422218Y-26283912D01*
X62335930Y-26299690D01*
X62273267Y-26312628D01*
X62242391Y-26321437D01*
X62240894Y-26322428D01*
X62240478Y-26345638D01*
X62246154Y-26401805D01*
X62256886Y-26482158D01*
X62269601Y-26565360D01*
X62283858Y-26659743D01*
X62293881Y-26737683D01*
X62298654Y-26790384D01*
X62297729Y-26808870D01*
X62274486Y-26815545D01*
X62217266Y-26827297D01*
X62133917Y-26842638D01*
X62032283Y-26860080D01*
X61997923Y-26865740D01*
X61880869Y-26885565D01*
X61800162Y-26901390D01*
X61750188Y-26914839D01*
X61725337Y-26927530D01*
X61719994Y-26941085D01*
X61721373Y-26945601D01*
X61766013Y-27078127D01*
X61802424Y-27238584D01*
X61828792Y-27413060D01*
X61843298Y-27587642D01*
X61844125Y-27748417D01*
X61837246Y-27832904D01*
X61785141Y-28093130D01*
X61697827Y-28331347D01*
X61577026Y-28545561D01*
X61424460Y-28733780D01*
X61241851Y-28894009D01*
X61030921Y-29024255D01*
X60793393Y-29122527D01*
X60698947Y-29150427D01*
X60595885Y-29171348D01*
X60467892Y-29187729D01*
X60327122Y-29198969D01*
X60185729Y-29204465D01*
X60055865Y-29203612D01*
X59949685Y-29195810D01*
X59911109Y-29189505D01*
X59666037Y-29118400D01*
X59442015Y-29013769D01*
X59242327Y-28878037D01*
X59070254Y-28713630D01*
X58929080Y-28522971D01*
X58873324Y-28422977D01*
X58834634Y-28343778D01*
X58805738Y-28279959D01*
X58790327Y-28239957D01*
X58789205Y-28230783D01*
X58807964Y-28215771D01*
X58854062Y-28178863D01*
X58921797Y-28124628D01*
X59005464Y-28057631D01*
X59069628Y-28006249D01*
X59160487Y-27934191D01*
X59239161Y-27873131D01*
X59300069Y-27827292D01*
X59337630Y-27800899D01*
X59347063Y-27796277D01*
X59358780Y-27817072D01*
X59385239Y-27866871D01*
X59421864Y-27937008D01*
X59444822Y-27981380D01*
X59558481Y-28165650D01*
X59690455Y-28312466D01*
X59841989Y-28423116D01*
X59902849Y-28454953D01*
X59976380Y-28487863D01*
X60037222Y-28508144D01*
X60100525Y-28518792D01*
X60181440Y-28522805D01*
X60248184Y-28523277D01*
X60350004Y-28521684D01*
X60424457Y-28515090D01*
X60486446Y-28500775D01*
X60550876Y-28476016D01*
X60580746Y-28462542D01*
X60702899Y-28388651D01*
X60821607Y-28285935D01*
X60924393Y-28166926D01*
X60998780Y-28044159D01*
X61000097Y-28041306D01*
X61059623Y-27865468D01*
X61084625Y-27680611D01*
X61077138Y-27493087D01*
X61039197Y-27309248D01*
X60972840Y-27135443D01*
X60880102Y-26978026D01*
X60763020Y-26843346D01*
X60623629Y-26737757D01*
X60573519Y-26710594D01*
X60408597Y-26651835D01*
X60237250Y-26631301D01*
X60065565Y-26646772D01*
X59899632Y-26696033D01*
X59745536Y-26776865D01*
X59609368Y-26887051D01*
X59497214Y-27024373D01*
X59442162Y-27122690D01*
X59410692Y-27194042D01*
X59388434Y-27253731D01*
X59380367Y-27287726D01*
X59365353Y-27330585D01*
X59353892Y-27343042D01*
X59325471Y-27353165D01*
X59265958Y-27367117D01*
X59184749Y-27383321D01*
X59091239Y-27400202D01*
X58994822Y-27416183D01*
X58904895Y-27429690D01*
X58830851Y-27439147D01*
X58782086Y-27442977D01*
X58767866Y-27441331D01*
X58762353Y-27419206D01*
X58751310Y-27361850D01*
X58735832Y-27275846D01*
X58717012Y-27167775D01*
X58695941Y-27044219D01*
X58673714Y-26911761D01*
X58651424Y-26776981D01*
X58630162Y-26646462D01*
X58611023Y-26526785D01*
X58595098Y-26424533D01*
X58583482Y-26346287D01*
X58577267Y-26298630D01*
X58576526Y-26289082D01*
X58584763Y-26274408D01*
X58613508Y-26260401D01*
X58668096Y-26245631D01*
X58753858Y-26228663D01*
X58876128Y-26208065D01*
X58881025Y-26207278D01*
X58990795Y-26190839D01*
X59086294Y-26178748D01*
X59159464Y-26171857D01*
X59202252Y-26171016D01*
X59209108Y-26172597D01*
X59226672Y-26202615D01*
X59232184Y-26241107D01*
X59234664Y-26278130D01*
X59249734Y-26280797D01*
X59279809Y-26260377D01*
X59356255Y-26212744D01*
X59460375Y-26159279D01*
X59579134Y-26105758D01*
X59699496Y-26057955D01*
X59808424Y-26021646D01*
X59835434Y-26014240D01*
X60099981Y-25965176D01*
X60357461Y-25954852D01*
X60604754Y-25982531D01*
X60838741Y-26047475D01*
X61056303Y-26148946D01*
X61254320Y-26286207D01*
X61349156Y-26372103D01*
X61425734Y-26452879D01*
X61498137Y-26537901D01*
X61555875Y-26614458D01*
X61578540Y-26650027D01*
X61612125Y-26705144D01*
X61636028Y-26736935D01*
X61644985Y-26738671D01*
X61641671Y-26710380D01*
X61632286Y-26646832D01*
X61617852Y-26554506D01*
X61599386Y-26439880D01*
X61577911Y-26309432D01*
X61568953Y-26255748D01*
X61547173Y-26122163D01*
X61546343Y-26116753D01*
G36*
X66822020Y-26152610D02*
G01*
X67561267Y-26152610D01*
X67562568Y-26270909D01*
X67567749Y-26360982D01*
X67578730Y-26436891D01*
X67597429Y-26512696D01*
X67620488Y-26586527D01*
X67696449Y-26773103D01*
X67790235Y-26921881D01*
X67904126Y-27034439D01*
X68040400Y-27112352D01*
X68201336Y-27157199D01*
X68389212Y-27170556D01*
X68460851Y-27168135D01*
X68572861Y-27159839D01*
X68695341Y-27147847D01*
X68802244Y-27134715D01*
X68804608Y-27134378D01*
X68886623Y-27121675D01*
X68934576Y-27110355D01*
X68956447Y-27096844D01*
X68960216Y-27077568D01*
X68958040Y-27065662D01*
X68951619Y-27031681D01*
X68939628Y-26962405D01*
X68922937Y-26863222D01*
X68902417Y-26739522D01*
X68878937Y-26596692D01*
X68853369Y-26440121D01*
X68826583Y-26275197D01*
X68799448Y-26107308D01*
X68772835Y-25941842D01*
X68747614Y-25784189D01*
X68724656Y-25639735D01*
X68704830Y-25513870D01*
X68689007Y-25411982D01*
X68678057Y-25339458D01*
X68672851Y-25301688D01*
X68672539Y-25297925D01*
X68652666Y-25281493D01*
X68593086Y-25279727D01*
X68493806Y-25292624D01*
X68354829Y-25320184D01*
X68280721Y-25337046D01*
X68097515Y-25386218D01*
X67950775Y-25440848D01*
X67834665Y-25504741D01*
X67743348Y-25581702D01*
X67670991Y-25675537D01*
X67622342Y-25766372D01*
X67596028Y-25826504D01*
X67578571Y-25878756D01*
X67568174Y-25934497D01*
X67563039Y-26005095D01*
X67561368Y-26101919D01*
X67561267Y-26152610D01*
X66822020Y-26152610D01*
X66821309Y-26126187D01*
X66828329Y-25961201D01*
X66847165Y-25817295D01*
X66860059Y-25761027D01*
X66926758Y-25562206D01*
X67013248Y-25391351D01*
X67126703Y-25236016D01*
X67221270Y-25134534D01*
X67352072Y-25016735D01*
X67485334Y-24923526D01*
X67632158Y-24848852D01*
X67803648Y-24786658D01*
X67919320Y-24753777D01*
X67988500Y-24737535D01*
X68087229Y-24717068D01*
X68210194Y-24693262D01*
X68352086Y-24667003D01*
X68507592Y-24639175D01*
X68671401Y-24610666D01*
X68838201Y-24582359D01*
X69002682Y-24555142D01*
X69159532Y-24529900D01*
X69303439Y-24507518D01*
X69429093Y-24488882D01*
X69531181Y-24474878D01*
X69604392Y-24466391D01*
X69643416Y-24464308D01*
X69648273Y-24465477D01*
X69657294Y-24492157D01*
X69670017Y-24550625D01*
X69685021Y-24631695D01*
X69700880Y-24726182D01*
X69716173Y-24824901D01*
X69729475Y-24918667D01*
X69739363Y-24998294D01*
X69744415Y-25054597D01*
X69743240Y-25078360D01*
X69717776Y-25087323D01*
X69661186Y-25100035D01*
X69584237Y-25114164D01*
X69558599Y-25118361D01*
X69478729Y-25131643D01*
X69416992Y-25142992D01*
X69383618Y-25150487D01*
X69380604Y-25151754D01*
X69382616Y-25173114D01*
X69390768Y-25231053D01*
X69404219Y-25320396D01*
X69422126Y-25435968D01*
X69443649Y-25572594D01*
X69467947Y-25725098D01*
X69494177Y-25888307D01*
X69521500Y-26057045D01*
X69549073Y-26226137D01*
X69576056Y-26390408D01*
X69601607Y-26544683D01*
X69624884Y-26683788D01*
X69645047Y-26802547D01*
X69661255Y-26895785D01*
X69672665Y-26958328D01*
X69678438Y-26985000D01*
X69678714Y-26985547D01*
X69700898Y-26985650D01*
X69752835Y-26980089D01*
X69822603Y-26970619D01*
X69898278Y-26958996D01*
X69967937Y-26946977D01*
X70019655Y-26936318D01*
X70028516Y-26934035D01*
X70042446Y-26936783D01*
X70055217Y-26956998D01*
X70068303Y-27000145D01*
X70083181Y-27071687D01*
X70101327Y-27177088D01*
X70111768Y-27242174D01*
X70128593Y-27352652D01*
X70141795Y-27447369D01*
X70150442Y-27518930D01*
X70153600Y-27559945D01*
X70152770Y-27566741D01*
X70127859Y-27573419D01*
X70066601Y-27585176D01*
X69974563Y-27601166D01*
X69857315Y-27620541D01*
X69720426Y-27642456D01*
X69569463Y-27666064D01*
X69409996Y-27690518D01*
X69247594Y-27714973D01*
X69087825Y-27738582D01*
X68936258Y-27760499D01*
X68798463Y-27779877D01*
X68680006Y-27795870D01*
X68586458Y-27807631D01*
X68524351Y-27814234D01*
X68412820Y-27823578D01*
X68331546Y-27829274D01*
X68268603Y-27831246D01*
X68212067Y-27829420D01*
X68150012Y-27823720D01*
X68070512Y-27814072D01*
X68048101Y-27811235D01*
X67814046Y-27763236D01*
X67604275Y-27681402D01*
X67418427Y-27565371D01*
X67256145Y-27414779D01*
X67117072Y-27229261D01*
X67000847Y-27008455D01*
X66907115Y-26751996D01*
X66869651Y-26614681D01*
X66842119Y-26466222D01*
X66825955Y-26298959D01*
X66822020Y-26152610D01*
G37*
X66822020Y-26152610D02*
X67561267Y-26152610D01*
X67562568Y-26270909D01*
X67567749Y-26360982D01*
X67578730Y-26436891D01*
X67597429Y-26512696D01*
X67620488Y-26586527D01*
X67696449Y-26773103D01*
X67790235Y-26921881D01*
X67904126Y-27034439D01*
X68040400Y-27112352D01*
X68201336Y-27157199D01*
X68389212Y-27170556D01*
X68460851Y-27168135D01*
X68572861Y-27159839D01*
X68695341Y-27147847D01*
X68802244Y-27134715D01*
X68804608Y-27134378D01*
X68886623Y-27121675D01*
X68934576Y-27110355D01*
X68956447Y-27096844D01*
X68960216Y-27077568D01*
X68958040Y-27065662D01*
X68951619Y-27031681D01*
X68939628Y-26962405D01*
X68922937Y-26863222D01*
X68902417Y-26739522D01*
X68878937Y-26596692D01*
X68853369Y-26440121D01*
X68826583Y-26275197D01*
X68799448Y-26107308D01*
X68772835Y-25941842D01*
X68747614Y-25784189D01*
X68724656Y-25639735D01*
X68704830Y-25513870D01*
X68689007Y-25411982D01*
X68678057Y-25339458D01*
X68672851Y-25301688D01*
X68672539Y-25297925D01*
X68652666Y-25281493D01*
X68593086Y-25279727D01*
X68493806Y-25292624D01*
X68354829Y-25320184D01*
X68280721Y-25337046D01*
X68097515Y-25386218D01*
X67950775Y-25440848D01*
X67834665Y-25504741D01*
X67743348Y-25581702D01*
X67670991Y-25675537D01*
X67622342Y-25766372D01*
X67596028Y-25826504D01*
X67578571Y-25878756D01*
X67568174Y-25934497D01*
X67563039Y-26005095D01*
X67561368Y-26101919D01*
X67561267Y-26152610D01*
X66822020Y-26152610D01*
X66821309Y-26126187D01*
X66828329Y-25961201D01*
X66847165Y-25817295D01*
X66860059Y-25761027D01*
X66926758Y-25562206D01*
X67013248Y-25391351D01*
X67126703Y-25236016D01*
X67221270Y-25134534D01*
X67352072Y-25016735D01*
X67485334Y-24923526D01*
X67632158Y-24848852D01*
X67803648Y-24786658D01*
X67919320Y-24753777D01*
X67988500Y-24737535D01*
X68087229Y-24717068D01*
X68210194Y-24693262D01*
X68352086Y-24667003D01*
X68507592Y-24639175D01*
X68671401Y-24610666D01*
X68838201Y-24582359D01*
X69002682Y-24555142D01*
X69159532Y-24529900D01*
X69303439Y-24507518D01*
X69429093Y-24488882D01*
X69531181Y-24474878D01*
X69604392Y-24466391D01*
X69643416Y-24464308D01*
X69648273Y-24465477D01*
X69657294Y-24492157D01*
X69670017Y-24550625D01*
X69685021Y-24631695D01*
X69700880Y-24726182D01*
X69716173Y-24824901D01*
X69729475Y-24918667D01*
X69739363Y-24998294D01*
X69744415Y-25054597D01*
X69743240Y-25078360D01*
X69717776Y-25087323D01*
X69661186Y-25100035D01*
X69584237Y-25114164D01*
X69558599Y-25118361D01*
X69478729Y-25131643D01*
X69416992Y-25142992D01*
X69383618Y-25150487D01*
X69380604Y-25151754D01*
X69382616Y-25173114D01*
X69390768Y-25231053D01*
X69404219Y-25320396D01*
X69422126Y-25435968D01*
X69443649Y-25572594D01*
X69467947Y-25725098D01*
X69494177Y-25888307D01*
X69521500Y-26057045D01*
X69549073Y-26226137D01*
X69576056Y-26390408D01*
X69601607Y-26544683D01*
X69624884Y-26683788D01*
X69645047Y-26802547D01*
X69661255Y-26895785D01*
X69672665Y-26958328D01*
X69678438Y-26985000D01*
X69678714Y-26985547D01*
X69700898Y-26985650D01*
X69752835Y-26980089D01*
X69822603Y-26970619D01*
X69898278Y-26958996D01*
X69967937Y-26946977D01*
X70019655Y-26936318D01*
X70028516Y-26934035D01*
X70042446Y-26936783D01*
X70055217Y-26956998D01*
X70068303Y-27000145D01*
X70083181Y-27071687D01*
X70101327Y-27177088D01*
X70111768Y-27242174D01*
X70128593Y-27352652D01*
X70141795Y-27447369D01*
X70150442Y-27518930D01*
X70153600Y-27559945D01*
X70152770Y-27566741D01*
X70127859Y-27573419D01*
X70066601Y-27585176D01*
X69974563Y-27601166D01*
X69857315Y-27620541D01*
X69720426Y-27642456D01*
X69569463Y-27666064D01*
X69409996Y-27690518D01*
X69247594Y-27714973D01*
X69087825Y-27738582D01*
X68936258Y-27760499D01*
X68798463Y-27779877D01*
X68680006Y-27795870D01*
X68586458Y-27807631D01*
X68524351Y-27814234D01*
X68412820Y-27823578D01*
X68331546Y-27829274D01*
X68268603Y-27831246D01*
X68212067Y-27829420D01*
X68150012Y-27823720D01*
X68070512Y-27814072D01*
X68048101Y-27811235D01*
X67814046Y-27763236D01*
X67604275Y-27681402D01*
X67418427Y-27565371D01*
X67256145Y-27414779D01*
X67117072Y-27229261D01*
X67000847Y-27008455D01*
X66907115Y-26751996D01*
X66869651Y-26614681D01*
X66842119Y-26466222D01*
X66825955Y-26298959D01*
X66822020Y-26152610D01*
%TD*%
M02*
