%TF.GenerationSoftware,KiCad,Pcbnew,(7.0.0)*%
%TF.CreationDate,2023-05-30T20:17:09-04:00*%
%TF.ProjectId,H4X0R-small,48345830-522d-4736-9d61-6c6c2e6b6963,rev?*%
%TF.SameCoordinates,Original*%
%TF.FileFunction,Soldermask,Top*%
%TF.FilePolarity,Negative*%
%FSLAX46Y46*%
G04 Gerber Fmt 4.6, Leading zero omitted, Abs format (unit mm)*
G04 Created by KiCad (PCBNEW (7.0.0)) date 2023-05-30 20:17:09*
%MOMM*%
%LPD*%
G01*
G04 APERTURE LIST*
%ADD10C,0.010000*%
G04 APERTURE END LIST*
%TO.C,G\u002A\u002A\u002A*%
G36*
X35877889Y-33086746D02*
G01*
X42438325Y-33086746D01*
X42438435Y-33212075D01*
X42446981Y-33367092D01*
X42460984Y-33530234D01*
X42469007Y-33617949D01*
X42479892Y-33742584D01*
X42493201Y-33898854D01*
X42508496Y-34081473D01*
X42525337Y-34285157D01*
X42543289Y-34504621D01*
X42561911Y-34734580D01*
X42580765Y-34969749D01*
X42590852Y-35096567D01*
X42610000Y-35336760D01*
X42629430Y-35578114D01*
X42648661Y-35814808D01*
X42667213Y-36041020D01*
X42684603Y-36250928D01*
X42700353Y-36438713D01*
X42713979Y-36598551D01*
X42725003Y-36724623D01*
X42728981Y-36768734D01*
X42742473Y-36939776D01*
X42755212Y-37147808D01*
X42766955Y-37387488D01*
X42777459Y-37653477D01*
X42786480Y-37940433D01*
X42791637Y-38144567D01*
X42800193Y-38491841D01*
X42809096Y-38798409D01*
X42818434Y-39065894D01*
X42828294Y-39295922D01*
X42838765Y-39490118D01*
X42849936Y-39650107D01*
X42861893Y-39777514D01*
X42874726Y-39873966D01*
X42888523Y-39941085D01*
X42889249Y-39943734D01*
X42954353Y-40103979D01*
X43050798Y-40240127D01*
X43173423Y-40349513D01*
X43317064Y-40429477D01*
X43476559Y-40477356D01*
X43646744Y-40490486D01*
X43822457Y-40466207D01*
X43874196Y-40451636D01*
X44037166Y-40380174D01*
X44174709Y-40278951D01*
X44283257Y-40152596D01*
X44359244Y-40005736D01*
X44399103Y-39842997D01*
X44404327Y-39763817D01*
X44403393Y-39699606D01*
X44399919Y-39603375D01*
X44394368Y-39485330D01*
X44387207Y-39355677D01*
X44381674Y-39266400D01*
X44376056Y-39170735D01*
X44369877Y-39049767D01*
X44363327Y-38908826D01*
X44356598Y-38753242D01*
X44349881Y-38588345D01*
X44343366Y-38419466D01*
X44337245Y-38251936D01*
X44331709Y-38091084D01*
X44326948Y-37942240D01*
X44323154Y-37810736D01*
X44320518Y-37701901D01*
X44319230Y-37621065D01*
X44319483Y-37573559D01*
X44320634Y-37563011D01*
X44341862Y-37556377D01*
X44399183Y-37539466D01*
X44487979Y-37513601D01*
X44603631Y-37480106D01*
X44741520Y-37440307D01*
X44897027Y-37395527D01*
X45065533Y-37347090D01*
X45242420Y-37296322D01*
X45423068Y-37244546D01*
X45602859Y-37193087D01*
X45777175Y-37143269D01*
X45941395Y-37096417D01*
X46090901Y-37053854D01*
X46221075Y-37016906D01*
X46327298Y-36986896D01*
X46404950Y-36965149D01*
X46427424Y-36958937D01*
X46541289Y-36928888D01*
X46677248Y-36894942D01*
X46827531Y-36858851D01*
X46984366Y-36822365D01*
X47139982Y-36787236D01*
X47286607Y-36755214D01*
X47416470Y-36728051D01*
X47521799Y-36707497D01*
X47594824Y-36695303D01*
X47601331Y-36694449D01*
X47716178Y-36680100D01*
X47753106Y-37036625D01*
X47766261Y-37156140D01*
X47784120Y-37307484D01*
X47805424Y-37480575D01*
X47828915Y-37665331D01*
X47853332Y-37851670D01*
X47874315Y-38006984D01*
X47898476Y-38183614D01*
X47923090Y-38364740D01*
X47946885Y-38540915D01*
X47968589Y-38702693D01*
X47986929Y-38840626D01*
X47999679Y-38937892D01*
X48024351Y-39104723D01*
X48051966Y-39236733D01*
X48085508Y-39341434D01*
X48127962Y-39426338D01*
X48182314Y-39498957D01*
X48248530Y-39564153D01*
X48407840Y-39678714D01*
X48578748Y-39752908D01*
X48758700Y-39786270D01*
X48945146Y-39778331D01*
X49135532Y-39728624D01*
X49139231Y-39727250D01*
X49254458Y-39666388D01*
X49367384Y-39575534D01*
X49466698Y-39466059D01*
X49541090Y-39349333D01*
X49561527Y-39302648D01*
X49579035Y-39250894D01*
X49592412Y-39197424D01*
X49601346Y-39138623D01*
X49605525Y-39070875D01*
X49604635Y-38990564D01*
X49598364Y-38894073D01*
X49586399Y-38777788D01*
X49568427Y-38638092D01*
X49544135Y-38471369D01*
X49513210Y-38274003D01*
X49475340Y-38042379D01*
X49430211Y-37772880D01*
X49428072Y-37760204D01*
X49389676Y-37527033D01*
X49357515Y-37317215D01*
X49330609Y-37121602D01*
X49307978Y-36931045D01*
X49288638Y-36736394D01*
X49281808Y-36652992D01*
X49674101Y-36652992D01*
X49679249Y-36742045D01*
X49715713Y-36890327D01*
X49788087Y-37017996D01*
X49896799Y-37125422D01*
X50042280Y-37212975D01*
X50224961Y-37281024D01*
X50340341Y-37310032D01*
X50437086Y-37327221D01*
X50547197Y-37339259D01*
X50673939Y-37346033D01*
X50820578Y-37347433D01*
X50990381Y-37343345D01*
X51186612Y-37333659D01*
X51412539Y-37318263D01*
X51671426Y-37297046D01*
X51966539Y-37269894D01*
X52207885Y-37246146D01*
X52406969Y-37226289D01*
X52592824Y-37208077D01*
X52761281Y-37191897D01*
X52908169Y-37178133D01*
X53029316Y-37167171D01*
X53120552Y-37159396D01*
X53177705Y-37155192D01*
X53196608Y-37154819D01*
X53200496Y-37176921D01*
X53207973Y-37235968D01*
X53218461Y-37326779D01*
X53231384Y-37444173D01*
X53246164Y-37582968D01*
X53262224Y-37737981D01*
X53269083Y-37805402D01*
X53292416Y-38026654D01*
X53314241Y-38210654D01*
X53335621Y-38362404D01*
X53357624Y-38486907D01*
X53381315Y-38589167D01*
X53407759Y-38674184D01*
X53438022Y-38746963D01*
X53473169Y-38812506D01*
X53489058Y-38838167D01*
X53597277Y-38970196D01*
X53731486Y-39073626D01*
X53883900Y-39143004D01*
X53948810Y-39160125D01*
X54054869Y-39171557D01*
X54181539Y-39169156D01*
X54309914Y-39154266D01*
X54421087Y-39128232D01*
X54427589Y-39126077D01*
X54582943Y-39052725D01*
X54710652Y-38947415D01*
X54810969Y-38809897D01*
X54867148Y-38688758D01*
X54882561Y-38641822D01*
X54892444Y-38592420D01*
X54897369Y-38531476D01*
X54897910Y-38449915D01*
X54894639Y-38338660D01*
X54892510Y-38286591D01*
X54885991Y-38165544D01*
X54875866Y-38015916D01*
X54863166Y-37851202D01*
X54848924Y-37684901D01*
X54836330Y-37551900D01*
X54822894Y-37416816D01*
X54810629Y-37292551D01*
X54800266Y-37186580D01*
X54792535Y-37106377D01*
X54788165Y-37059416D01*
X54787779Y-37054908D01*
X54786907Y-37019831D01*
X54797961Y-36999370D01*
X54830394Y-36987374D01*
X54893658Y-36977689D01*
X54909550Y-36975652D01*
X55132951Y-36932850D01*
X55325247Y-36866068D01*
X55485193Y-36776576D01*
X55611543Y-36665641D01*
X55703054Y-36534534D01*
X55758479Y-36384521D01*
X55776574Y-36216871D01*
X55768004Y-36101011D01*
X55727100Y-35921427D01*
X55659125Y-35771250D01*
X55565364Y-35652263D01*
X55447102Y-35566250D01*
X55354975Y-35528010D01*
X55280566Y-35511968D01*
X55171268Y-35498337D01*
X55034492Y-35487906D01*
X54936009Y-35483277D01*
X54826530Y-35479060D01*
X54733825Y-35475113D01*
X54665266Y-35471780D01*
X54628226Y-35469403D01*
X54623800Y-35468721D01*
X54621734Y-35447695D01*
X54615740Y-35387624D01*
X54606127Y-35291581D01*
X54593204Y-35162642D01*
X54577280Y-35003883D01*
X54558662Y-34818378D01*
X54537660Y-34609202D01*
X54514582Y-34379431D01*
X54489737Y-34132139D01*
X54463434Y-33870401D01*
X54444969Y-33686710D01*
X54411838Y-33357185D01*
X54382525Y-33067026D01*
X54356559Y-32813486D01*
X54333469Y-32593816D01*
X54312783Y-32405268D01*
X54294029Y-32245094D01*
X54276737Y-32110545D01*
X54266611Y-32041178D01*
X55577678Y-32041178D01*
X55594727Y-32180621D01*
X55631389Y-32303061D01*
X55646189Y-32334317D01*
X55684417Y-32401814D01*
X55724702Y-32459618D01*
X55773846Y-32514660D01*
X55838648Y-32573873D01*
X55925909Y-32644186D01*
X56021554Y-32716911D01*
X56082947Y-32765933D01*
X56162277Y-32834594D01*
X56261028Y-32924310D01*
X56380685Y-33036501D01*
X56522732Y-33172584D01*
X56688655Y-33333978D01*
X56879938Y-33522101D01*
X57098066Y-33738371D01*
X57261349Y-33901102D01*
X57433624Y-34073258D01*
X57596803Y-34236642D01*
X57748456Y-34388801D01*
X57886155Y-34527281D01*
X58007469Y-34649629D01*
X58109969Y-34753394D01*
X58191225Y-34836121D01*
X58248808Y-34895359D01*
X58280287Y-34928653D01*
X58285634Y-34935161D01*
X58273223Y-34956880D01*
X58237496Y-35009305D01*
X58180707Y-35089405D01*
X58105111Y-35194151D01*
X58012963Y-35320511D01*
X57906520Y-35465455D01*
X57788035Y-35625952D01*
X57659765Y-35798972D01*
X57523964Y-35981485D01*
X57382888Y-36170459D01*
X57238792Y-36362864D01*
X57093931Y-36555670D01*
X56950561Y-36745846D01*
X56810936Y-36930361D01*
X56677312Y-37106186D01*
X56551944Y-37270288D01*
X56437088Y-37419639D01*
X56428560Y-37430679D01*
X56300730Y-37596577D01*
X56196600Y-37733625D01*
X56113746Y-37846286D01*
X56049745Y-37939023D01*
X56002173Y-38016297D01*
X55968607Y-38082572D01*
X55946623Y-38142310D01*
X55933797Y-38199972D01*
X55927706Y-38260022D01*
X55925927Y-38326921D01*
X55925879Y-38356234D01*
X55933808Y-38502466D01*
X55960507Y-38621381D01*
X56011149Y-38725748D01*
X56090905Y-38828339D01*
X56136400Y-38876052D01*
X56275190Y-38988049D01*
X56432407Y-39067760D01*
X56600621Y-39113563D01*
X56772404Y-39123837D01*
X56940328Y-39096962D01*
X57020691Y-39069016D01*
X57093080Y-39034879D01*
X57160591Y-38993264D01*
X57228179Y-38939425D01*
X57300805Y-38868612D01*
X57383424Y-38776078D01*
X57480994Y-38657075D01*
X57572275Y-38540749D01*
X57634150Y-38460365D01*
X57715034Y-38354446D01*
X57812139Y-38226701D01*
X57922678Y-38080839D01*
X58043862Y-37920570D01*
X58172905Y-37749602D01*
X58307018Y-37571645D01*
X58443413Y-37390408D01*
X58579303Y-37209600D01*
X58711899Y-37032931D01*
X58838415Y-36864110D01*
X58956063Y-36706845D01*
X59062054Y-36564847D01*
X59153600Y-36441824D01*
X59227915Y-36341486D01*
X59282210Y-36267541D01*
X59313388Y-36224144D01*
X59351378Y-36173254D01*
X59380637Y-36140616D01*
X59390373Y-36134185D01*
X59410965Y-36149543D01*
X59455681Y-36193699D01*
X59521357Y-36263084D01*
X59604829Y-36354131D01*
X59702936Y-36463271D01*
X59812513Y-36586937D01*
X59930397Y-36721560D01*
X60053426Y-36863572D01*
X60178435Y-37009405D01*
X60302262Y-37155491D01*
X60412644Y-37287317D01*
X60642747Y-37558990D01*
X60852832Y-37796241D01*
X61044911Y-38000801D01*
X61220995Y-38174398D01*
X61383094Y-38318762D01*
X61533219Y-38435623D01*
X61673382Y-38526709D01*
X61805593Y-38593750D01*
X61931863Y-38638476D01*
X62002768Y-38654799D01*
X62159145Y-38662992D01*
X62316326Y-38633142D01*
X62467783Y-38568901D01*
X62606986Y-38473919D01*
X62727406Y-38351846D01*
X62822514Y-38206334D01*
X62829434Y-38192568D01*
X62859488Y-38125782D01*
X62877537Y-38066088D01*
X62886502Y-37998257D01*
X62889304Y-37907057D01*
X62889384Y-37879984D01*
X62885388Y-37769465D01*
X62870784Y-37674928D01*
X62841643Y-37589019D01*
X62794041Y-37504385D01*
X62724050Y-37413672D01*
X62627742Y-37309527D01*
X62536097Y-37218391D01*
X62340453Y-37023840D01*
X62125569Y-36802247D01*
X61890200Y-36552275D01*
X61633103Y-36272584D01*
X61353033Y-35961835D01*
X61048747Y-35618691D01*
X61036671Y-35604972D01*
X60908621Y-35459354D01*
X60788128Y-35322094D01*
X60678321Y-35196774D01*
X60582330Y-35086975D01*
X60503284Y-34996280D01*
X60444313Y-34928272D01*
X60408545Y-34886531D01*
X60400054Y-34876268D01*
X60360403Y-34825861D01*
X60696379Y-34289172D01*
X60794958Y-34130568D01*
X60898217Y-33962430D01*
X61000540Y-33794042D01*
X61075558Y-33669220D01*
X62712957Y-33669220D01*
X62715882Y-33857484D01*
X62722506Y-34048800D01*
X62732588Y-34233410D01*
X62745889Y-34401559D01*
X62761080Y-34535650D01*
X62842121Y-35024094D01*
X62946492Y-35477300D01*
X63074242Y-35895389D01*
X63225423Y-36278482D01*
X63400083Y-36626700D01*
X63598274Y-36940164D01*
X63820046Y-37218993D01*
X63926208Y-37331846D01*
X64118630Y-37512069D01*
X64307980Y-37658907D01*
X64504691Y-37779094D01*
X64719195Y-37879369D01*
X64852065Y-37929720D01*
X65155777Y-38015880D01*
X65472286Y-38064229D01*
X65804466Y-38075076D01*
X66056849Y-38059654D01*
X66426632Y-38006021D01*
X66769113Y-37920035D01*
X67084285Y-37801704D01*
X67372142Y-37651035D01*
X67632676Y-37468035D01*
X67865880Y-37252711D01*
X68071748Y-37005070D01*
X68250272Y-36725118D01*
X68401444Y-36412864D01*
X68525259Y-36068313D01*
X68621709Y-35691474D01*
X68665387Y-35456400D01*
X68706626Y-35137040D01*
X68732266Y-34791419D01*
X68742628Y-34428897D01*
X68738031Y-34058835D01*
X68718797Y-33690595D01*
X68685245Y-33333538D01*
X68637696Y-32997025D01*
X68576471Y-32690417D01*
X68569764Y-32662400D01*
X68463129Y-32296293D01*
X68327069Y-31949939D01*
X68163562Y-31626067D01*
X67974585Y-31327409D01*
X67762119Y-31056695D01*
X67528140Y-30816655D01*
X67470189Y-30769419D01*
X68826885Y-30769419D01*
X68828865Y-30808485D01*
X68834693Y-30886601D01*
X68844087Y-31000682D01*
X68856768Y-31147648D01*
X68872456Y-31324413D01*
X68890871Y-31527897D01*
X68911733Y-31755016D01*
X68934761Y-32002688D01*
X68959677Y-32267829D01*
X68986199Y-32547358D01*
X69014049Y-32838190D01*
X69026825Y-32970752D01*
X69057528Y-33289574D01*
X69088729Y-33615284D01*
X69119964Y-33942931D01*
X69150766Y-34267565D01*
X69180670Y-34584235D01*
X69209212Y-34887990D01*
X69235926Y-35173879D01*
X69260346Y-35436953D01*
X69282007Y-35672260D01*
X69300445Y-35874850D01*
X69313925Y-36025422D01*
X69335833Y-36270867D01*
X69354962Y-36478097D01*
X69372030Y-36651083D01*
X69387754Y-36793798D01*
X69402852Y-36910216D01*
X69418041Y-37004309D01*
X69434037Y-37080049D01*
X69451558Y-37141410D01*
X69471322Y-37192364D01*
X69494046Y-37236884D01*
X69520446Y-37278943D01*
X69547065Y-37316764D01*
X69658960Y-37437185D01*
X69798849Y-37533438D01*
X69956197Y-37598893D01*
X70020576Y-37614751D01*
X70120210Y-37630465D01*
X70206411Y-37632321D01*
X70302896Y-37620344D01*
X70331869Y-37615104D01*
X70500174Y-37563994D01*
X70650904Y-37480147D01*
X70779108Y-37368712D01*
X70879836Y-37234835D01*
X70948139Y-37083663D01*
X70977130Y-36944160D01*
X70979615Y-36900457D01*
X70979044Y-36844938D01*
X70975017Y-36773938D01*
X70967134Y-36683787D01*
X70954997Y-36570819D01*
X70938205Y-36431366D01*
X70916359Y-36261761D01*
X70889060Y-36058336D01*
X70855907Y-35817424D01*
X70848852Y-35766671D01*
X70832670Y-35648178D01*
X70819214Y-35545315D01*
X70809333Y-35464948D01*
X70803878Y-35413942D01*
X70803317Y-35398828D01*
X70824411Y-35402095D01*
X70878723Y-35414528D01*
X70958597Y-35434273D01*
X71056377Y-35459481D01*
X71082169Y-35466272D01*
X71621112Y-35630338D01*
X72147906Y-35834410D01*
X72663134Y-36078771D01*
X73167376Y-36363703D01*
X73661214Y-36689490D01*
X73797539Y-36787949D01*
X73894218Y-36857156D01*
X73990875Y-36922971D01*
X74076312Y-36977966D01*
X74139334Y-37014714D01*
X74139467Y-37014783D01*
X74197905Y-37043256D01*
X74249625Y-37061181D01*
X74307547Y-37070953D01*
X74384592Y-37074964D01*
X74467995Y-37075634D01*
X74568891Y-37074576D01*
X74641328Y-37069568D01*
X74699161Y-37057886D01*
X74756248Y-37036806D01*
X74821157Y-37006211D01*
X74971194Y-36910999D01*
X75094230Y-36789306D01*
X75187122Y-36647069D01*
X75246723Y-36490222D01*
X75269888Y-36324705D01*
X75258447Y-36180905D01*
X75226805Y-36058969D01*
X75176480Y-35951158D01*
X75100487Y-35844762D01*
X75031110Y-35767284D01*
X74860859Y-35605427D01*
X74653148Y-35436851D01*
X74411818Y-35264136D01*
X74140709Y-35089863D01*
X73843661Y-34916610D01*
X73524514Y-34746958D01*
X73475985Y-34722487D01*
X73156761Y-34562608D01*
X73251239Y-34507081D01*
X73549840Y-34313453D01*
X73809610Y-34106762D01*
X74030232Y-33887769D01*
X74211385Y-33657234D01*
X74352750Y-33415915D01*
X74454009Y-33164575D01*
X74514842Y-32903971D01*
X74534929Y-32634865D01*
X74513952Y-32358017D01*
X74451592Y-32074185D01*
X74371042Y-31840977D01*
X74240805Y-31572045D01*
X74070515Y-31314819D01*
X73860997Y-31069993D01*
X73613073Y-30838258D01*
X73327568Y-30620308D01*
X73005304Y-30416836D01*
X72647105Y-30228533D01*
X72253795Y-30056093D01*
X72245050Y-30052601D01*
X72071148Y-29986603D01*
X71908676Y-29932951D01*
X71750353Y-29890510D01*
X71588901Y-29858145D01*
X71417040Y-29834721D01*
X71227491Y-29819101D01*
X71012976Y-29810151D01*
X70766214Y-29806736D01*
X70668134Y-29806642D01*
X70392106Y-29808162D01*
X70155335Y-29811826D01*
X69954788Y-29817827D01*
X69787433Y-29826358D01*
X69650239Y-29837612D01*
X69540172Y-29851780D01*
X69454201Y-29869056D01*
X69394726Y-29887496D01*
X69239882Y-29968899D01*
X69103913Y-30083830D01*
X68990728Y-30226215D01*
X68904238Y-30389981D01*
X68848354Y-30569054D01*
X68826985Y-30757361D01*
X68826885Y-30769419D01*
X67470189Y-30769419D01*
X67274627Y-30610019D01*
X67003559Y-30439518D01*
X66932210Y-30402323D01*
X66706341Y-30301413D01*
X66482250Y-30227372D01*
X66250622Y-30178364D01*
X66002143Y-30152551D01*
X65727500Y-30148095D01*
X65653912Y-30150093D01*
X65315068Y-30176655D01*
X65002283Y-30232945D01*
X64709834Y-30320724D01*
X64432000Y-30441754D01*
X64163060Y-30597795D01*
X64131469Y-30618717D01*
X63885203Y-30808598D01*
X63657043Y-31034234D01*
X63448769Y-31292320D01*
X63262165Y-31579553D01*
X63099010Y-31892627D01*
X62961087Y-32228239D01*
X62850178Y-32583084D01*
X62768064Y-32953858D01*
X62728767Y-33220297D01*
X62719160Y-33340870D01*
X62713969Y-33493763D01*
X62712957Y-33669220D01*
X61075558Y-33669220D01*
X61096309Y-33634693D01*
X61179909Y-33493669D01*
X61238633Y-33392650D01*
X61385905Y-33143277D01*
X61553023Y-32873410D01*
X61732438Y-32594830D01*
X61916599Y-32319316D01*
X62052679Y-32122650D01*
X62140051Y-31996291D01*
X62205449Y-31895624D01*
X62252913Y-31812948D01*
X62286487Y-31740559D01*
X62310209Y-31670754D01*
X62327518Y-31598775D01*
X62339272Y-31441162D01*
X62311864Y-31285334D01*
X62248313Y-31136651D01*
X62151638Y-31000471D01*
X62024859Y-30882153D01*
X61870996Y-30787056D01*
X61869804Y-30786472D01*
X61776898Y-30749097D01*
X61676784Y-30727679D01*
X61585708Y-30719319D01*
X61495946Y-30715882D01*
X61431417Y-30720019D01*
X61375280Y-30734645D01*
X61310692Y-30762676D01*
X61297023Y-30769295D01*
X61194003Y-30833964D01*
X61074997Y-30934204D01*
X60942284Y-31067397D01*
X60798145Y-31230925D01*
X60644863Y-31422170D01*
X60484718Y-31638515D01*
X60319992Y-31877341D01*
X60283645Y-31932212D01*
X60233921Y-32009249D01*
X60166002Y-32116598D01*
X60083572Y-32248326D01*
X59990314Y-32398502D01*
X59889911Y-32561196D01*
X59786046Y-32730476D01*
X59682634Y-32900032D01*
X59587017Y-33056865D01*
X59498123Y-33201806D01*
X59418365Y-33330988D01*
X59350153Y-33440543D01*
X59295900Y-33526604D01*
X59258016Y-33585303D01*
X59238913Y-33612773D01*
X59237224Y-33614346D01*
X59219677Y-33600036D01*
X59175668Y-33559028D01*
X59108559Y-33494661D01*
X59021717Y-33410277D01*
X58918505Y-33309215D01*
X58802288Y-33194818D01*
X58676431Y-33070425D01*
X58544298Y-32939377D01*
X58409253Y-32805016D01*
X58274663Y-32670681D01*
X58143890Y-32539714D01*
X58020300Y-32415456D01*
X57907258Y-32301247D01*
X57808127Y-32200428D01*
X57726273Y-32116339D01*
X57680771Y-32068921D01*
X57483693Y-31873201D01*
X57285985Y-31698865D01*
X57091204Y-31548181D01*
X56902910Y-31423413D01*
X56724658Y-31326828D01*
X56560008Y-31260693D01*
X56412516Y-31227272D01*
X56353507Y-31223513D01*
X56240429Y-31236203D01*
X56113642Y-31271169D01*
X55990962Y-31322429D01*
X55902261Y-31375031D01*
X55808302Y-31459324D01*
X55718659Y-31569055D01*
X55645249Y-31688015D01*
X55607007Y-31776541D01*
X55581389Y-31901047D01*
X55577678Y-32041178D01*
X54266611Y-32041178D01*
X54260435Y-31998873D01*
X54244652Y-31907329D01*
X54228917Y-31833166D01*
X54212758Y-31773634D01*
X54195703Y-31725985D01*
X54177282Y-31687471D01*
X54157023Y-31655344D01*
X54134455Y-31626855D01*
X54109106Y-31599256D01*
X54082225Y-31571569D01*
X53943959Y-31459077D01*
X53782313Y-31381477D01*
X53598773Y-31339401D01*
X53519926Y-31332677D01*
X53285793Y-31341529D01*
X53063412Y-31389756D01*
X52856408Y-31475612D01*
X52668409Y-31597348D01*
X52503041Y-31753219D01*
X52414176Y-31865237D01*
X52379806Y-31917314D01*
X52325792Y-32004017D01*
X52253408Y-32123166D01*
X52163932Y-32272585D01*
X52058640Y-32450096D01*
X51938807Y-32653522D01*
X51805710Y-32880685D01*
X51660626Y-33129407D01*
X51504829Y-33397512D01*
X51339598Y-33682821D01*
X51166207Y-33983157D01*
X50985934Y-34296342D01*
X50823158Y-34579895D01*
X50650861Y-34878095D01*
X50495779Y-35141672D01*
X50358306Y-35369980D01*
X50238835Y-35562373D01*
X50137759Y-35718207D01*
X50065239Y-35823338D01*
X49937470Y-36007386D01*
X49837526Y-36166474D01*
X49763313Y-36305591D01*
X49712735Y-36429725D01*
X49683696Y-36543862D01*
X49674101Y-36652992D01*
X49281808Y-36652992D01*
X49271611Y-36528500D01*
X49255914Y-36298214D01*
X49240567Y-36036386D01*
X49237786Y-35985567D01*
X49227812Y-35801820D01*
X49217200Y-35606467D01*
X49206570Y-35410932D01*
X49196543Y-35226640D01*
X49187741Y-35065014D01*
X49182537Y-34969567D01*
X49174129Y-34823700D01*
X49164805Y-34675638D01*
X49155352Y-34536984D01*
X49146554Y-34419339D01*
X49140290Y-34345718D01*
X49129048Y-34200969D01*
X49119710Y-34032227D01*
X49112379Y-33847371D01*
X49107160Y-33654278D01*
X49104155Y-33460825D01*
X49103470Y-33274891D01*
X49105208Y-33104355D01*
X49109472Y-32957093D01*
X49116368Y-32840984D01*
X49119958Y-32804404D01*
X49131607Y-32694911D01*
X49136817Y-32615695D01*
X49135380Y-32555164D01*
X49127087Y-32501722D01*
X49113622Y-32450205D01*
X49044852Y-32285766D01*
X48943944Y-32145816D01*
X48815454Y-32033742D01*
X48663941Y-31952929D01*
X48493963Y-31906760D01*
X48368572Y-31896875D01*
X48243436Y-31904256D01*
X48141510Y-31931459D01*
X48047964Y-31984410D01*
X47955524Y-32061925D01*
X47836907Y-32198961D01*
X47732032Y-32375399D01*
X47640786Y-32591472D01*
X47563060Y-32847411D01*
X47543752Y-32926050D01*
X47521072Y-33027402D01*
X47503537Y-33119555D01*
X47490960Y-33208863D01*
X47483154Y-33301680D01*
X47479932Y-33404360D01*
X47481110Y-33523257D01*
X47486499Y-33664725D01*
X47495914Y-33835119D01*
X47509167Y-34040791D01*
X47510474Y-34060232D01*
X47521883Y-34234813D01*
X47532551Y-34407827D01*
X47542040Y-34571392D01*
X47549910Y-34717626D01*
X47555722Y-34838648D01*
X47559038Y-34926577D01*
X47559306Y-34936967D01*
X47564717Y-35168951D01*
X47458884Y-35186086D01*
X47249308Y-35222813D01*
X47023323Y-35267983D01*
X46777700Y-35322402D01*
X46509209Y-35386879D01*
X46214620Y-35462222D01*
X45890705Y-35549240D01*
X45534234Y-35648741D01*
X45141977Y-35761533D01*
X45035300Y-35792676D01*
X44178050Y-36043640D01*
X44162948Y-35712978D01*
X44155493Y-35562588D01*
X44146131Y-35392634D01*
X44136021Y-35223238D01*
X44126320Y-35074521D01*
X44125645Y-35064817D01*
X44118817Y-34966770D01*
X44109619Y-34834102D01*
X44098577Y-34674428D01*
X44086217Y-34495361D01*
X44073064Y-34304514D01*
X44059644Y-34109503D01*
X44050382Y-33974734D01*
X44033688Y-33734874D01*
X44019044Y-33533252D01*
X44005967Y-33365850D01*
X43993976Y-33228648D01*
X43982591Y-33117627D01*
X43971330Y-33028768D01*
X43959712Y-32958051D01*
X43947255Y-32901457D01*
X43933479Y-32854968D01*
X43917901Y-32814564D01*
X43909108Y-32795008D01*
X43839247Y-32683395D01*
X43740495Y-32575581D01*
X43625445Y-32483814D01*
X43537458Y-32433550D01*
X43472168Y-32405638D01*
X43412655Y-32388629D01*
X43344523Y-32380010D01*
X43253378Y-32377266D01*
X43214967Y-32377223D01*
X43112423Y-32379185D01*
X43037113Y-32386214D01*
X42974001Y-32401058D01*
X42908050Y-32426466D01*
X42882177Y-32438059D01*
X42761399Y-32510195D01*
X42647035Y-32608829D01*
X42551228Y-32721935D01*
X42491359Y-32825130D01*
X42464513Y-32899650D01*
X42446926Y-32984730D01*
X42438325Y-33086746D01*
X35877889Y-33086746D01*
X36171543Y-32801569D01*
X36561474Y-32422918D01*
X36942329Y-32053103D01*
X37312982Y-31693219D01*
X37672305Y-31344362D01*
X38019172Y-31007626D01*
X38352455Y-30684106D01*
X38671027Y-30374898D01*
X38973762Y-30081097D01*
X39259531Y-29803796D01*
X39527208Y-29544092D01*
X39775665Y-29303079D01*
X40003776Y-29081853D01*
X40210413Y-28881507D01*
X40394450Y-28703138D01*
X40554758Y-28547840D01*
X40690212Y-28416708D01*
X40799683Y-28310838D01*
X40882045Y-28231323D01*
X40936171Y-28179259D01*
X40952727Y-28163452D01*
X41150866Y-27996229D01*
X41353171Y-27867974D01*
X41565041Y-27775342D01*
X41595717Y-27765044D01*
X41624675Y-27758865D01*
X41693811Y-27745915D01*
X41801557Y-27726458D01*
X41946346Y-27700762D01*
X42126612Y-27669092D01*
X42340787Y-27631714D01*
X42587305Y-27588894D01*
X42864599Y-27540899D01*
X43171101Y-27487994D01*
X43505244Y-27430446D01*
X43865463Y-27368520D01*
X44250189Y-27302482D01*
X44657857Y-27232599D01*
X45086898Y-27159136D01*
X45535746Y-27082360D01*
X46002834Y-27002537D01*
X46486596Y-26919933D01*
X46985463Y-26834813D01*
X47497870Y-26747444D01*
X48022249Y-26658091D01*
X48557034Y-26567022D01*
X49100657Y-26474501D01*
X49651551Y-26380796D01*
X50208150Y-26286171D01*
X50768886Y-26190894D01*
X51332193Y-26095229D01*
X51896504Y-25999444D01*
X52460252Y-25903803D01*
X53021869Y-25808574D01*
X53579789Y-25714022D01*
X54132445Y-25620413D01*
X54678270Y-25528014D01*
X55215697Y-25437090D01*
X55743159Y-25347907D01*
X56259090Y-25260732D01*
X56761921Y-25175830D01*
X57250087Y-25093468D01*
X57722020Y-25013911D01*
X58176154Y-24937426D01*
X58610921Y-24864278D01*
X59024754Y-24794734D01*
X59416087Y-24729060D01*
X59783353Y-24667522D01*
X60124984Y-24610385D01*
X60439414Y-24557916D01*
X60725076Y-24510381D01*
X60980403Y-24468046D01*
X61203827Y-24431177D01*
X61393783Y-24400040D01*
X61548702Y-24374901D01*
X61667019Y-24356026D01*
X61746384Y-24343797D01*
X61827634Y-24331549D01*
X61949120Y-24312996D01*
X62109251Y-24288385D01*
X62306439Y-24257963D01*
X62539096Y-24221977D01*
X62805634Y-24180676D01*
X63104463Y-24134307D01*
X63433994Y-24083117D01*
X63792641Y-24027354D01*
X64178813Y-23967265D01*
X64590922Y-23903097D01*
X65027380Y-23835100D01*
X65486599Y-23763518D01*
X65966988Y-23688601D01*
X66466961Y-23610596D01*
X66984928Y-23529750D01*
X67519301Y-23446311D01*
X68068491Y-23360526D01*
X68630910Y-23272643D01*
X69204969Y-23182909D01*
X69789079Y-23091572D01*
X70381652Y-22998879D01*
X70981100Y-22905078D01*
X71011991Y-22900243D01*
X79430932Y-21582594D01*
X79461956Y-21475873D01*
X79528028Y-21317376D01*
X79627206Y-21184289D01*
X79760603Y-21075377D01*
X79881233Y-21009968D01*
X79950879Y-20984676D01*
X80054070Y-20955510D01*
X80182379Y-20924126D01*
X80327380Y-20892179D01*
X80480646Y-20861323D01*
X80633752Y-20833213D01*
X80778270Y-20809505D01*
X80905774Y-20791854D01*
X81007838Y-20781915D01*
X81050384Y-20780334D01*
X81229327Y-20794957D01*
X81401192Y-20836954D01*
X81557425Y-20902847D01*
X81689469Y-20989159D01*
X81775621Y-21075129D01*
X81831185Y-21144765D01*
X81885284Y-21105493D01*
X81902107Y-21091145D01*
X81933832Y-21061553D01*
X81981302Y-21015871D01*
X82045358Y-20953255D01*
X82126841Y-20872862D01*
X82226592Y-20773845D01*
X82345453Y-20655363D01*
X82484264Y-20516569D01*
X82643867Y-20356619D01*
X82825104Y-20174670D01*
X83028815Y-19969877D01*
X83255842Y-19741396D01*
X83507025Y-19488382D01*
X83783208Y-19209991D01*
X84085229Y-18905378D01*
X84413932Y-18573700D01*
X84770156Y-18214112D01*
X85154744Y-17825770D01*
X85412473Y-17565469D01*
X85690365Y-17284416D01*
X85948060Y-17023045D01*
X86184602Y-16782342D01*
X86399036Y-16563297D01*
X86590406Y-16366897D01*
X86757755Y-16194130D01*
X86900129Y-16045983D01*
X87016570Y-15923444D01*
X87106124Y-15827501D01*
X87167834Y-15759141D01*
X87200744Y-15719353D01*
X87204716Y-15713386D01*
X87232100Y-15656557D01*
X87267346Y-15569495D01*
X87306522Y-15462620D01*
X87345694Y-15346355D01*
X87358563Y-15305734D01*
X87429602Y-15083263D01*
X87493906Y-14896497D01*
X87554344Y-14739913D01*
X87613786Y-14607986D01*
X87675102Y-14495192D01*
X87741161Y-14396008D01*
X87814833Y-14304910D01*
X87898987Y-14216373D01*
X87949783Y-14167699D01*
X88142248Y-14016020D01*
X88354959Y-13898695D01*
X88582936Y-13816083D01*
X88821200Y-13768542D01*
X89064772Y-13756428D01*
X89308673Y-13780100D01*
X89547923Y-13839914D01*
X89777543Y-13936229D01*
X89929800Y-14025505D01*
X89989495Y-14070598D01*
X90070577Y-14139587D01*
X90165400Y-14225561D01*
X90266318Y-14321607D01*
X90354780Y-14409667D01*
X90493650Y-14555322D01*
X90604399Y-14682154D01*
X90692115Y-14797592D01*
X90761888Y-14909066D01*
X90818806Y-15024004D01*
X90867957Y-15149837D01*
X90874305Y-15168150D01*
X90899090Y-15245209D01*
X90915695Y-15312671D01*
X90925723Y-15382766D01*
X90930775Y-15467723D01*
X90932453Y-15579774D01*
X90932533Y-15612650D01*
X90932412Y-15631937D01*
X90931905Y-15652698D01*
X90930854Y-15675906D01*
X90929100Y-15702533D01*
X90926485Y-15733553D01*
X90922850Y-15769940D01*
X90918037Y-15812666D01*
X90911887Y-15862704D01*
X90904242Y-15921028D01*
X90894943Y-15988611D01*
X90883833Y-16066426D01*
X90870752Y-16155447D01*
X90855541Y-16256645D01*
X90838043Y-16370996D01*
X90818100Y-16499471D01*
X90795551Y-16643044D01*
X90770240Y-16802688D01*
X90742008Y-16979377D01*
X90710695Y-17174083D01*
X90676145Y-17387780D01*
X90638197Y-17621441D01*
X90596694Y-17876039D01*
X90551477Y-18152547D01*
X90502388Y-18451938D01*
X90449269Y-18775186D01*
X90391960Y-19123264D01*
X90330303Y-19497145D01*
X90264141Y-19897801D01*
X90193314Y-20326208D01*
X90117663Y-20783336D01*
X90037031Y-21270160D01*
X89951260Y-21787653D01*
X89860189Y-22336789D01*
X89763662Y-22918539D01*
X89661519Y-23533877D01*
X89553602Y-24183778D01*
X89439753Y-24869212D01*
X89319813Y-25591155D01*
X89193624Y-26350579D01*
X89061027Y-27148457D01*
X88921863Y-27985763D01*
X88775975Y-28863469D01*
X88716244Y-29222817D01*
X88592328Y-29968183D01*
X88470047Y-30703474D01*
X88349588Y-31427570D01*
X88231139Y-32139353D01*
X88114886Y-32837705D01*
X88001016Y-33521508D01*
X87889717Y-34189644D01*
X87781174Y-34840994D01*
X87675576Y-35474441D01*
X87573108Y-36088866D01*
X87473958Y-36683150D01*
X87378314Y-37256176D01*
X87286361Y-37806825D01*
X87198286Y-38333980D01*
X87114278Y-38836521D01*
X87034522Y-39313331D01*
X86959206Y-39763292D01*
X86888516Y-40185285D01*
X86822640Y-40578192D01*
X86761765Y-40940894D01*
X86706076Y-41272275D01*
X86655762Y-41571214D01*
X86611010Y-41836595D01*
X86572006Y-42067299D01*
X86538936Y-42262208D01*
X86511989Y-42420203D01*
X86491351Y-42540166D01*
X86477210Y-42620980D01*
X86469751Y-42661525D01*
X86468778Y-42665913D01*
X86413253Y-42816716D01*
X86332553Y-42978231D01*
X86235072Y-43135379D01*
X86133523Y-43268104D01*
X86095456Y-43309754D01*
X86030159Y-43378294D01*
X85940483Y-43470832D01*
X85829283Y-43584474D01*
X85699413Y-43716327D01*
X85553725Y-43863500D01*
X85395073Y-44023098D01*
X85226311Y-44192230D01*
X85050292Y-44368002D01*
X84952749Y-44465139D01*
X84738420Y-44678226D01*
X84551452Y-44863553D01*
X84389272Y-45023291D01*
X84249304Y-45159612D01*
X84128974Y-45274688D01*
X84025706Y-45370690D01*
X83936927Y-45449789D01*
X83860060Y-45514158D01*
X83792533Y-45565969D01*
X83731769Y-45607391D01*
X83675194Y-45640598D01*
X83620234Y-45667761D01*
X83564312Y-45691050D01*
X83504856Y-45712639D01*
X83452800Y-45730216D01*
X83198818Y-45793638D01*
X82942459Y-45817576D01*
X82688420Y-45803032D01*
X82441397Y-45751006D01*
X82206087Y-45662499D01*
X81987185Y-45538511D01*
X81789390Y-45380045D01*
X81783553Y-45374503D01*
X81711735Y-45302071D01*
X81643357Y-45226512D01*
X81591159Y-45162033D01*
X81583559Y-45151395D01*
X81525834Y-45074399D01*
X81467175Y-45013910D01*
X81396597Y-44961067D01*
X81303113Y-44907011D01*
X81240884Y-44875020D01*
X81156898Y-44834919D01*
X81077858Y-44802750D01*
X80997711Y-44777655D01*
X80910403Y-44758779D01*
X80809884Y-44745268D01*
X80690099Y-44736266D01*
X80544997Y-44730918D01*
X80368524Y-44728369D01*
X80198828Y-44727768D01*
X79622440Y-44727400D01*
X79608450Y-44785609D01*
X79561643Y-44912765D01*
X79487183Y-45037879D01*
X79395214Y-45145891D01*
X79328367Y-45201525D01*
X79268932Y-45238241D01*
X79201473Y-45269935D01*
X79120367Y-45298047D01*
X79019992Y-45324019D01*
X78894724Y-45349290D01*
X78738940Y-45375301D01*
X78547018Y-45403492D01*
X78531550Y-45405659D01*
X78371480Y-45427678D01*
X78246244Y-45443802D01*
X78148822Y-45454511D01*
X78072199Y-45460285D01*
X78009357Y-45461603D01*
X77953277Y-45458944D01*
X77896943Y-45452790D01*
X77878644Y-45450291D01*
X77685326Y-45404869D01*
X77510954Y-45327480D01*
X77360453Y-45221448D01*
X77238748Y-45090095D01*
X77165547Y-44969262D01*
X77135127Y-44912279D01*
X77109810Y-44886152D01*
X77079216Y-44882335D01*
X77063316Y-44885111D01*
X77037225Y-44889559D01*
X76971309Y-44900349D01*
X76867547Y-44917163D01*
X76727922Y-44939686D01*
X76554414Y-44967599D01*
X76349004Y-45000585D01*
X76113672Y-45038328D01*
X75850399Y-45080509D01*
X75561167Y-45126813D01*
X75247955Y-45176922D01*
X74912745Y-45230518D01*
X74557517Y-45287285D01*
X74184253Y-45346905D01*
X73794933Y-45409061D01*
X73391537Y-45473437D01*
X72976048Y-45539714D01*
X72689550Y-45585399D01*
X72275648Y-45651393D01*
X71823606Y-45723471D01*
X71337089Y-45801050D01*
X70819763Y-45883544D01*
X70275293Y-45970370D01*
X69707343Y-46060942D01*
X69119579Y-46154676D01*
X68515665Y-46250988D01*
X67899268Y-46349293D01*
X67274051Y-46449007D01*
X66643681Y-46549544D01*
X66011822Y-46650321D01*
X65382138Y-46750753D01*
X64758296Y-46850255D01*
X64143961Y-46948244D01*
X63542796Y-47044134D01*
X62958468Y-47137340D01*
X62394642Y-47227279D01*
X62339050Y-47236147D01*
X61837725Y-47316063D01*
X61346342Y-47394285D01*
X60866607Y-47470546D01*
X60400225Y-47544578D01*
X59948902Y-47616114D01*
X59514342Y-47684886D01*
X59098252Y-47750626D01*
X58702336Y-47813068D01*
X58328300Y-47871943D01*
X57977849Y-47926983D01*
X57652689Y-47977922D01*
X57354524Y-48024491D01*
X57085060Y-48066422D01*
X56846003Y-48103449D01*
X56639057Y-48135304D01*
X56465929Y-48161719D01*
X56328322Y-48182426D01*
X56227944Y-48197157D01*
X56166498Y-48205646D01*
X56147800Y-48207718D01*
X56049048Y-48210120D01*
X55947824Y-48207244D01*
X55872634Y-48200482D01*
X55642137Y-48149323D01*
X55418810Y-48064414D01*
X55212934Y-47950461D01*
X55045422Y-47821891D01*
X55011552Y-47787284D01*
X54952941Y-47722725D01*
X54871856Y-47630863D01*
X54770563Y-47514346D01*
X54651327Y-47375822D01*
X54516416Y-47217940D01*
X54368094Y-47043349D01*
X54208629Y-46854696D01*
X54040285Y-46654630D01*
X53865329Y-46445800D01*
X53756042Y-46314900D01*
X53579781Y-46103798D01*
X53410010Y-45901050D01*
X53248855Y-45709160D01*
X53098442Y-45530634D01*
X52960897Y-45367977D01*
X52838346Y-45223692D01*
X52732915Y-45100286D01*
X52646730Y-45000264D01*
X52581916Y-44926129D01*
X52540599Y-44880388D01*
X52527149Y-44866896D01*
X52425908Y-44797441D01*
X52302574Y-44736425D01*
X52175451Y-44691837D01*
X52083800Y-44673414D01*
X52053593Y-44672871D01*
X52000519Y-44675659D01*
X51923039Y-44681957D01*
X51819614Y-44691946D01*
X51688705Y-44705806D01*
X51528772Y-44723717D01*
X51338275Y-44745859D01*
X51115676Y-44772412D01*
X50859436Y-44803555D01*
X50568015Y-44839470D01*
X50239873Y-44880335D01*
X49873472Y-44926332D01*
X49467271Y-44977639D01*
X49289800Y-45000133D01*
X49089038Y-45025603D01*
X48848076Y-45056173D01*
X48568711Y-45091615D01*
X48252738Y-45131702D01*
X47901955Y-45176205D01*
X47518158Y-45224897D01*
X47103144Y-45277550D01*
X46658709Y-45333936D01*
X46186649Y-45393826D01*
X45688762Y-45456993D01*
X45166843Y-45523209D01*
X44622690Y-45592246D01*
X44058098Y-45663877D01*
X43474865Y-45737872D01*
X42874787Y-45814005D01*
X42259660Y-45892047D01*
X41631282Y-45971770D01*
X40991448Y-46052947D01*
X40341955Y-46135350D01*
X39684599Y-46218750D01*
X39021178Y-46302919D01*
X38353488Y-46387631D01*
X37683325Y-46472656D01*
X37012485Y-46557767D01*
X36653300Y-46603338D01*
X35868760Y-46702881D01*
X35125095Y-46797241D01*
X34421184Y-46886548D01*
X33755903Y-46970933D01*
X33128130Y-47050526D01*
X32536743Y-47125458D01*
X31980618Y-47195857D01*
X31458634Y-47261855D01*
X30969666Y-47323582D01*
X30512594Y-47381168D01*
X30086293Y-47434743D01*
X29689642Y-47484438D01*
X29321518Y-47530382D01*
X28980798Y-47572707D01*
X28666359Y-47611541D01*
X28377078Y-47647016D01*
X28111834Y-47679261D01*
X27869504Y-47708407D01*
X27648964Y-47734584D01*
X27449092Y-47757922D01*
X27268766Y-47778551D01*
X27106863Y-47796603D01*
X26962260Y-47812206D01*
X26833834Y-47825491D01*
X26720463Y-47836588D01*
X26621024Y-47845628D01*
X26534395Y-47852740D01*
X26459453Y-47858056D01*
X26395075Y-47861704D01*
X26340138Y-47863816D01*
X26293521Y-47864522D01*
X26254099Y-47863951D01*
X26220752Y-47862235D01*
X26192355Y-47859503D01*
X26167786Y-47855885D01*
X26145924Y-47851511D01*
X26125644Y-47846513D01*
X26105824Y-47841020D01*
X26085342Y-47835162D01*
X26069967Y-47830903D01*
X25828371Y-47745186D01*
X25607964Y-47625940D01*
X25411624Y-47476657D01*
X25242227Y-47300833D01*
X25102651Y-47101963D01*
X24995774Y-46883541D01*
X24924472Y-46649063D01*
X24891623Y-46402022D01*
X24891502Y-46399567D01*
X24890470Y-46327142D01*
X24892346Y-46220021D01*
X24896808Y-46083369D01*
X24903535Y-45922352D01*
X24912203Y-45742137D01*
X24922491Y-45547889D01*
X24934076Y-45344773D01*
X24946637Y-45137957D01*
X24959851Y-44932605D01*
X24973396Y-44733884D01*
X24986951Y-44546959D01*
X25000191Y-44376997D01*
X25012797Y-44229163D01*
X25024445Y-44108623D01*
X25034814Y-44020544D01*
X25042810Y-43973192D01*
X25090920Y-43804291D01*
X25153819Y-43650613D01*
X25236376Y-43504111D01*
X25343460Y-43356735D01*
X25479941Y-43200438D01*
X25561818Y-43115322D01*
X25589667Y-43087740D01*
X25646762Y-43031764D01*
X25731978Y-42948491D01*
X25844186Y-42839016D01*
X25982260Y-42704432D01*
X26145072Y-42545836D01*
X26331496Y-42364322D01*
X26540405Y-42160986D01*
X26770670Y-41936921D01*
X27021166Y-41693224D01*
X27290764Y-41430989D01*
X27578338Y-41151311D01*
X27882761Y-40855285D01*
X28202905Y-40544006D01*
X28537644Y-40218569D01*
X28885850Y-39880069D01*
X29246397Y-39529601D01*
X29618156Y-39168260D01*
X30000001Y-38797141D01*
X30390805Y-38417339D01*
X30789441Y-38029949D01*
X31194781Y-37636065D01*
X31605699Y-37236784D01*
X32021067Y-36833199D01*
X32439758Y-36426406D01*
X32860645Y-36017500D01*
X33282601Y-35607575D01*
X33704499Y-35197727D01*
X34125211Y-34789051D01*
X34543611Y-34382641D01*
X34958571Y-33979594D01*
X35368965Y-33581002D01*
X35773664Y-33187963D01*
X35877889Y-33086746D01*
G37*
D10*
X35877889Y-33086746D02*
X42438325Y-33086746D01*
X42438435Y-33212075D01*
X42446981Y-33367092D01*
X42460984Y-33530234D01*
X42469007Y-33617949D01*
X42479892Y-33742584D01*
X42493201Y-33898854D01*
X42508496Y-34081473D01*
X42525337Y-34285157D01*
X42543289Y-34504621D01*
X42561911Y-34734580D01*
X42580765Y-34969749D01*
X42590852Y-35096567D01*
X42610000Y-35336760D01*
X42629430Y-35578114D01*
X42648661Y-35814808D01*
X42667213Y-36041020D01*
X42684603Y-36250928D01*
X42700353Y-36438713D01*
X42713979Y-36598551D01*
X42725003Y-36724623D01*
X42728981Y-36768734D01*
X42742473Y-36939776D01*
X42755212Y-37147808D01*
X42766955Y-37387488D01*
X42777459Y-37653477D01*
X42786480Y-37940433D01*
X42791637Y-38144567D01*
X42800193Y-38491841D01*
X42809096Y-38798409D01*
X42818434Y-39065894D01*
X42828294Y-39295922D01*
X42838765Y-39490118D01*
X42849936Y-39650107D01*
X42861893Y-39777514D01*
X42874726Y-39873966D01*
X42888523Y-39941085D01*
X42889249Y-39943734D01*
X42954353Y-40103979D01*
X43050798Y-40240127D01*
X43173423Y-40349513D01*
X43317064Y-40429477D01*
X43476559Y-40477356D01*
X43646744Y-40490486D01*
X43822457Y-40466207D01*
X43874196Y-40451636D01*
X44037166Y-40380174D01*
X44174709Y-40278951D01*
X44283257Y-40152596D01*
X44359244Y-40005736D01*
X44399103Y-39842997D01*
X44404327Y-39763817D01*
X44403393Y-39699606D01*
X44399919Y-39603375D01*
X44394368Y-39485330D01*
X44387207Y-39355677D01*
X44381674Y-39266400D01*
X44376056Y-39170735D01*
X44369877Y-39049767D01*
X44363327Y-38908826D01*
X44356598Y-38753242D01*
X44349881Y-38588345D01*
X44343366Y-38419466D01*
X44337245Y-38251936D01*
X44331709Y-38091084D01*
X44326948Y-37942240D01*
X44323154Y-37810736D01*
X44320518Y-37701901D01*
X44319230Y-37621065D01*
X44319483Y-37573559D01*
X44320634Y-37563011D01*
X44341862Y-37556377D01*
X44399183Y-37539466D01*
X44487979Y-37513601D01*
X44603631Y-37480106D01*
X44741520Y-37440307D01*
X44897027Y-37395527D01*
X45065533Y-37347090D01*
X45242420Y-37296322D01*
X45423068Y-37244546D01*
X45602859Y-37193087D01*
X45777175Y-37143269D01*
X45941395Y-37096417D01*
X46090901Y-37053854D01*
X46221075Y-37016906D01*
X46327298Y-36986896D01*
X46404950Y-36965149D01*
X46427424Y-36958937D01*
X46541289Y-36928888D01*
X46677248Y-36894942D01*
X46827531Y-36858851D01*
X46984366Y-36822365D01*
X47139982Y-36787236D01*
X47286607Y-36755214D01*
X47416470Y-36728051D01*
X47521799Y-36707497D01*
X47594824Y-36695303D01*
X47601331Y-36694449D01*
X47716178Y-36680100D01*
X47753106Y-37036625D01*
X47766261Y-37156140D01*
X47784120Y-37307484D01*
X47805424Y-37480575D01*
X47828915Y-37665331D01*
X47853332Y-37851670D01*
X47874315Y-38006984D01*
X47898476Y-38183614D01*
X47923090Y-38364740D01*
X47946885Y-38540915D01*
X47968589Y-38702693D01*
X47986929Y-38840626D01*
X47999679Y-38937892D01*
X48024351Y-39104723D01*
X48051966Y-39236733D01*
X48085508Y-39341434D01*
X48127962Y-39426338D01*
X48182314Y-39498957D01*
X48248530Y-39564153D01*
X48407840Y-39678714D01*
X48578748Y-39752908D01*
X48758700Y-39786270D01*
X48945146Y-39778331D01*
X49135532Y-39728624D01*
X49139231Y-39727250D01*
X49254458Y-39666388D01*
X49367384Y-39575534D01*
X49466698Y-39466059D01*
X49541090Y-39349333D01*
X49561527Y-39302648D01*
X49579035Y-39250894D01*
X49592412Y-39197424D01*
X49601346Y-39138623D01*
X49605525Y-39070875D01*
X49604635Y-38990564D01*
X49598364Y-38894073D01*
X49586399Y-38777788D01*
X49568427Y-38638092D01*
X49544135Y-38471369D01*
X49513210Y-38274003D01*
X49475340Y-38042379D01*
X49430211Y-37772880D01*
X49428072Y-37760204D01*
X49389676Y-37527033D01*
X49357515Y-37317215D01*
X49330609Y-37121602D01*
X49307978Y-36931045D01*
X49288638Y-36736394D01*
X49281808Y-36652992D01*
X49674101Y-36652992D01*
X49679249Y-36742045D01*
X49715713Y-36890327D01*
X49788087Y-37017996D01*
X49896799Y-37125422D01*
X50042280Y-37212975D01*
X50224961Y-37281024D01*
X50340341Y-37310032D01*
X50437086Y-37327221D01*
X50547197Y-37339259D01*
X50673939Y-37346033D01*
X50820578Y-37347433D01*
X50990381Y-37343345D01*
X51186612Y-37333659D01*
X51412539Y-37318263D01*
X51671426Y-37297046D01*
X51966539Y-37269894D01*
X52207885Y-37246146D01*
X52406969Y-37226289D01*
X52592824Y-37208077D01*
X52761281Y-37191897D01*
X52908169Y-37178133D01*
X53029316Y-37167171D01*
X53120552Y-37159396D01*
X53177705Y-37155192D01*
X53196608Y-37154819D01*
X53200496Y-37176921D01*
X53207973Y-37235968D01*
X53218461Y-37326779D01*
X53231384Y-37444173D01*
X53246164Y-37582968D01*
X53262224Y-37737981D01*
X53269083Y-37805402D01*
X53292416Y-38026654D01*
X53314241Y-38210654D01*
X53335621Y-38362404D01*
X53357624Y-38486907D01*
X53381315Y-38589167D01*
X53407759Y-38674184D01*
X53438022Y-38746963D01*
X53473169Y-38812506D01*
X53489058Y-38838167D01*
X53597277Y-38970196D01*
X53731486Y-39073626D01*
X53883900Y-39143004D01*
X53948810Y-39160125D01*
X54054869Y-39171557D01*
X54181539Y-39169156D01*
X54309914Y-39154266D01*
X54421087Y-39128232D01*
X54427589Y-39126077D01*
X54582943Y-39052725D01*
X54710652Y-38947415D01*
X54810969Y-38809897D01*
X54867148Y-38688758D01*
X54882561Y-38641822D01*
X54892444Y-38592420D01*
X54897369Y-38531476D01*
X54897910Y-38449915D01*
X54894639Y-38338660D01*
X54892510Y-38286591D01*
X54885991Y-38165544D01*
X54875866Y-38015916D01*
X54863166Y-37851202D01*
X54848924Y-37684901D01*
X54836330Y-37551900D01*
X54822894Y-37416816D01*
X54810629Y-37292551D01*
X54800266Y-37186580D01*
X54792535Y-37106377D01*
X54788165Y-37059416D01*
X54787779Y-37054908D01*
X54786907Y-37019831D01*
X54797961Y-36999370D01*
X54830394Y-36987374D01*
X54893658Y-36977689D01*
X54909550Y-36975652D01*
X55132951Y-36932850D01*
X55325247Y-36866068D01*
X55485193Y-36776576D01*
X55611543Y-36665641D01*
X55703054Y-36534534D01*
X55758479Y-36384521D01*
X55776574Y-36216871D01*
X55768004Y-36101011D01*
X55727100Y-35921427D01*
X55659125Y-35771250D01*
X55565364Y-35652263D01*
X55447102Y-35566250D01*
X55354975Y-35528010D01*
X55280566Y-35511968D01*
X55171268Y-35498337D01*
X55034492Y-35487906D01*
X54936009Y-35483277D01*
X54826530Y-35479060D01*
X54733825Y-35475113D01*
X54665266Y-35471780D01*
X54628226Y-35469403D01*
X54623800Y-35468721D01*
X54621734Y-35447695D01*
X54615740Y-35387624D01*
X54606127Y-35291581D01*
X54593204Y-35162642D01*
X54577280Y-35003883D01*
X54558662Y-34818378D01*
X54537660Y-34609202D01*
X54514582Y-34379431D01*
X54489737Y-34132139D01*
X54463434Y-33870401D01*
X54444969Y-33686710D01*
X54411838Y-33357185D01*
X54382525Y-33067026D01*
X54356559Y-32813486D01*
X54333469Y-32593816D01*
X54312783Y-32405268D01*
X54294029Y-32245094D01*
X54276737Y-32110545D01*
X54266611Y-32041178D01*
X55577678Y-32041178D01*
X55594727Y-32180621D01*
X55631389Y-32303061D01*
X55646189Y-32334317D01*
X55684417Y-32401814D01*
X55724702Y-32459618D01*
X55773846Y-32514660D01*
X55838648Y-32573873D01*
X55925909Y-32644186D01*
X56021554Y-32716911D01*
X56082947Y-32765933D01*
X56162277Y-32834594D01*
X56261028Y-32924310D01*
X56380685Y-33036501D01*
X56522732Y-33172584D01*
X56688655Y-33333978D01*
X56879938Y-33522101D01*
X57098066Y-33738371D01*
X57261349Y-33901102D01*
X57433624Y-34073258D01*
X57596803Y-34236642D01*
X57748456Y-34388801D01*
X57886155Y-34527281D01*
X58007469Y-34649629D01*
X58109969Y-34753394D01*
X58191225Y-34836121D01*
X58248808Y-34895359D01*
X58280287Y-34928653D01*
X58285634Y-34935161D01*
X58273223Y-34956880D01*
X58237496Y-35009305D01*
X58180707Y-35089405D01*
X58105111Y-35194151D01*
X58012963Y-35320511D01*
X57906520Y-35465455D01*
X57788035Y-35625952D01*
X57659765Y-35798972D01*
X57523964Y-35981485D01*
X57382888Y-36170459D01*
X57238792Y-36362864D01*
X57093931Y-36555670D01*
X56950561Y-36745846D01*
X56810936Y-36930361D01*
X56677312Y-37106186D01*
X56551944Y-37270288D01*
X56437088Y-37419639D01*
X56428560Y-37430679D01*
X56300730Y-37596577D01*
X56196600Y-37733625D01*
X56113746Y-37846286D01*
X56049745Y-37939023D01*
X56002173Y-38016297D01*
X55968607Y-38082572D01*
X55946623Y-38142310D01*
X55933797Y-38199972D01*
X55927706Y-38260022D01*
X55925927Y-38326921D01*
X55925879Y-38356234D01*
X55933808Y-38502466D01*
X55960507Y-38621381D01*
X56011149Y-38725748D01*
X56090905Y-38828339D01*
X56136400Y-38876052D01*
X56275190Y-38988049D01*
X56432407Y-39067760D01*
X56600621Y-39113563D01*
X56772404Y-39123837D01*
X56940328Y-39096962D01*
X57020691Y-39069016D01*
X57093080Y-39034879D01*
X57160591Y-38993264D01*
X57228179Y-38939425D01*
X57300805Y-38868612D01*
X57383424Y-38776078D01*
X57480994Y-38657075D01*
X57572275Y-38540749D01*
X57634150Y-38460365D01*
X57715034Y-38354446D01*
X57812139Y-38226701D01*
X57922678Y-38080839D01*
X58043862Y-37920570D01*
X58172905Y-37749602D01*
X58307018Y-37571645D01*
X58443413Y-37390408D01*
X58579303Y-37209600D01*
X58711899Y-37032931D01*
X58838415Y-36864110D01*
X58956063Y-36706845D01*
X59062054Y-36564847D01*
X59153600Y-36441824D01*
X59227915Y-36341486D01*
X59282210Y-36267541D01*
X59313388Y-36224144D01*
X59351378Y-36173254D01*
X59380637Y-36140616D01*
X59390373Y-36134185D01*
X59410965Y-36149543D01*
X59455681Y-36193699D01*
X59521357Y-36263084D01*
X59604829Y-36354131D01*
X59702936Y-36463271D01*
X59812513Y-36586937D01*
X59930397Y-36721560D01*
X60053426Y-36863572D01*
X60178435Y-37009405D01*
X60302262Y-37155491D01*
X60412644Y-37287317D01*
X60642747Y-37558990D01*
X60852832Y-37796241D01*
X61044911Y-38000801D01*
X61220995Y-38174398D01*
X61383094Y-38318762D01*
X61533219Y-38435623D01*
X61673382Y-38526709D01*
X61805593Y-38593750D01*
X61931863Y-38638476D01*
X62002768Y-38654799D01*
X62159145Y-38662992D01*
X62316326Y-38633142D01*
X62467783Y-38568901D01*
X62606986Y-38473919D01*
X62727406Y-38351846D01*
X62822514Y-38206334D01*
X62829434Y-38192568D01*
X62859488Y-38125782D01*
X62877537Y-38066088D01*
X62886502Y-37998257D01*
X62889304Y-37907057D01*
X62889384Y-37879984D01*
X62885388Y-37769465D01*
X62870784Y-37674928D01*
X62841643Y-37589019D01*
X62794041Y-37504385D01*
X62724050Y-37413672D01*
X62627742Y-37309527D01*
X62536097Y-37218391D01*
X62340453Y-37023840D01*
X62125569Y-36802247D01*
X61890200Y-36552275D01*
X61633103Y-36272584D01*
X61353033Y-35961835D01*
X61048747Y-35618691D01*
X61036671Y-35604972D01*
X60908621Y-35459354D01*
X60788128Y-35322094D01*
X60678321Y-35196774D01*
X60582330Y-35086975D01*
X60503284Y-34996280D01*
X60444313Y-34928272D01*
X60408545Y-34886531D01*
X60400054Y-34876268D01*
X60360403Y-34825861D01*
X60696379Y-34289172D01*
X60794958Y-34130568D01*
X60898217Y-33962430D01*
X61000540Y-33794042D01*
X61075558Y-33669220D01*
X62712957Y-33669220D01*
X62715882Y-33857484D01*
X62722506Y-34048800D01*
X62732588Y-34233410D01*
X62745889Y-34401559D01*
X62761080Y-34535650D01*
X62842121Y-35024094D01*
X62946492Y-35477300D01*
X63074242Y-35895389D01*
X63225423Y-36278482D01*
X63400083Y-36626700D01*
X63598274Y-36940164D01*
X63820046Y-37218993D01*
X63926208Y-37331846D01*
X64118630Y-37512069D01*
X64307980Y-37658907D01*
X64504691Y-37779094D01*
X64719195Y-37879369D01*
X64852065Y-37929720D01*
X65155777Y-38015880D01*
X65472286Y-38064229D01*
X65804466Y-38075076D01*
X66056849Y-38059654D01*
X66426632Y-38006021D01*
X66769113Y-37920035D01*
X67084285Y-37801704D01*
X67372142Y-37651035D01*
X67632676Y-37468035D01*
X67865880Y-37252711D01*
X68071748Y-37005070D01*
X68250272Y-36725118D01*
X68401444Y-36412864D01*
X68525259Y-36068313D01*
X68621709Y-35691474D01*
X68665387Y-35456400D01*
X68706626Y-35137040D01*
X68732266Y-34791419D01*
X68742628Y-34428897D01*
X68738031Y-34058835D01*
X68718797Y-33690595D01*
X68685245Y-33333538D01*
X68637696Y-32997025D01*
X68576471Y-32690417D01*
X68569764Y-32662400D01*
X68463129Y-32296293D01*
X68327069Y-31949939D01*
X68163562Y-31626067D01*
X67974585Y-31327409D01*
X67762119Y-31056695D01*
X67528140Y-30816655D01*
X67470189Y-30769419D01*
X68826885Y-30769419D01*
X68828865Y-30808485D01*
X68834693Y-30886601D01*
X68844087Y-31000682D01*
X68856768Y-31147648D01*
X68872456Y-31324413D01*
X68890871Y-31527897D01*
X68911733Y-31755016D01*
X68934761Y-32002688D01*
X68959677Y-32267829D01*
X68986199Y-32547358D01*
X69014049Y-32838190D01*
X69026825Y-32970752D01*
X69057528Y-33289574D01*
X69088729Y-33615284D01*
X69119964Y-33942931D01*
X69150766Y-34267565D01*
X69180670Y-34584235D01*
X69209212Y-34887990D01*
X69235926Y-35173879D01*
X69260346Y-35436953D01*
X69282007Y-35672260D01*
X69300445Y-35874850D01*
X69313925Y-36025422D01*
X69335833Y-36270867D01*
X69354962Y-36478097D01*
X69372030Y-36651083D01*
X69387754Y-36793798D01*
X69402852Y-36910216D01*
X69418041Y-37004309D01*
X69434037Y-37080049D01*
X69451558Y-37141410D01*
X69471322Y-37192364D01*
X69494046Y-37236884D01*
X69520446Y-37278943D01*
X69547065Y-37316764D01*
X69658960Y-37437185D01*
X69798849Y-37533438D01*
X69956197Y-37598893D01*
X70020576Y-37614751D01*
X70120210Y-37630465D01*
X70206411Y-37632321D01*
X70302896Y-37620344D01*
X70331869Y-37615104D01*
X70500174Y-37563994D01*
X70650904Y-37480147D01*
X70779108Y-37368712D01*
X70879836Y-37234835D01*
X70948139Y-37083663D01*
X70977130Y-36944160D01*
X70979615Y-36900457D01*
X70979044Y-36844938D01*
X70975017Y-36773938D01*
X70967134Y-36683787D01*
X70954997Y-36570819D01*
X70938205Y-36431366D01*
X70916359Y-36261761D01*
X70889060Y-36058336D01*
X70855907Y-35817424D01*
X70848852Y-35766671D01*
X70832670Y-35648178D01*
X70819214Y-35545315D01*
X70809333Y-35464948D01*
X70803878Y-35413942D01*
X70803317Y-35398828D01*
X70824411Y-35402095D01*
X70878723Y-35414528D01*
X70958597Y-35434273D01*
X71056377Y-35459481D01*
X71082169Y-35466272D01*
X71621112Y-35630338D01*
X72147906Y-35834410D01*
X72663134Y-36078771D01*
X73167376Y-36363703D01*
X73661214Y-36689490D01*
X73797539Y-36787949D01*
X73894218Y-36857156D01*
X73990875Y-36922971D01*
X74076312Y-36977966D01*
X74139334Y-37014714D01*
X74139467Y-37014783D01*
X74197905Y-37043256D01*
X74249625Y-37061181D01*
X74307547Y-37070953D01*
X74384592Y-37074964D01*
X74467995Y-37075634D01*
X74568891Y-37074576D01*
X74641328Y-37069568D01*
X74699161Y-37057886D01*
X74756248Y-37036806D01*
X74821157Y-37006211D01*
X74971194Y-36910999D01*
X75094230Y-36789306D01*
X75187122Y-36647069D01*
X75246723Y-36490222D01*
X75269888Y-36324705D01*
X75258447Y-36180905D01*
X75226805Y-36058969D01*
X75176480Y-35951158D01*
X75100487Y-35844762D01*
X75031110Y-35767284D01*
X74860859Y-35605427D01*
X74653148Y-35436851D01*
X74411818Y-35264136D01*
X74140709Y-35089863D01*
X73843661Y-34916610D01*
X73524514Y-34746958D01*
X73475985Y-34722487D01*
X73156761Y-34562608D01*
X73251239Y-34507081D01*
X73549840Y-34313453D01*
X73809610Y-34106762D01*
X74030232Y-33887769D01*
X74211385Y-33657234D01*
X74352750Y-33415915D01*
X74454009Y-33164575D01*
X74514842Y-32903971D01*
X74534929Y-32634865D01*
X74513952Y-32358017D01*
X74451592Y-32074185D01*
X74371042Y-31840977D01*
X74240805Y-31572045D01*
X74070515Y-31314819D01*
X73860997Y-31069993D01*
X73613073Y-30838258D01*
X73327568Y-30620308D01*
X73005304Y-30416836D01*
X72647105Y-30228533D01*
X72253795Y-30056093D01*
X72245050Y-30052601D01*
X72071148Y-29986603D01*
X71908676Y-29932951D01*
X71750353Y-29890510D01*
X71588901Y-29858145D01*
X71417040Y-29834721D01*
X71227491Y-29819101D01*
X71012976Y-29810151D01*
X70766214Y-29806736D01*
X70668134Y-29806642D01*
X70392106Y-29808162D01*
X70155335Y-29811826D01*
X69954788Y-29817827D01*
X69787433Y-29826358D01*
X69650239Y-29837612D01*
X69540172Y-29851780D01*
X69454201Y-29869056D01*
X69394726Y-29887496D01*
X69239882Y-29968899D01*
X69103913Y-30083830D01*
X68990728Y-30226215D01*
X68904238Y-30389981D01*
X68848354Y-30569054D01*
X68826985Y-30757361D01*
X68826885Y-30769419D01*
X67470189Y-30769419D01*
X67274627Y-30610019D01*
X67003559Y-30439518D01*
X66932210Y-30402323D01*
X66706341Y-30301413D01*
X66482250Y-30227372D01*
X66250622Y-30178364D01*
X66002143Y-30152551D01*
X65727500Y-30148095D01*
X65653912Y-30150093D01*
X65315068Y-30176655D01*
X65002283Y-30232945D01*
X64709834Y-30320724D01*
X64432000Y-30441754D01*
X64163060Y-30597795D01*
X64131469Y-30618717D01*
X63885203Y-30808598D01*
X63657043Y-31034234D01*
X63448769Y-31292320D01*
X63262165Y-31579553D01*
X63099010Y-31892627D01*
X62961087Y-32228239D01*
X62850178Y-32583084D01*
X62768064Y-32953858D01*
X62728767Y-33220297D01*
X62719160Y-33340870D01*
X62713969Y-33493763D01*
X62712957Y-33669220D01*
X61075558Y-33669220D01*
X61096309Y-33634693D01*
X61179909Y-33493669D01*
X61238633Y-33392650D01*
X61385905Y-33143277D01*
X61553023Y-32873410D01*
X61732438Y-32594830D01*
X61916599Y-32319316D01*
X62052679Y-32122650D01*
X62140051Y-31996291D01*
X62205449Y-31895624D01*
X62252913Y-31812948D01*
X62286487Y-31740559D01*
X62310209Y-31670754D01*
X62327518Y-31598775D01*
X62339272Y-31441162D01*
X62311864Y-31285334D01*
X62248313Y-31136651D01*
X62151638Y-31000471D01*
X62024859Y-30882153D01*
X61870996Y-30787056D01*
X61869804Y-30786472D01*
X61776898Y-30749097D01*
X61676784Y-30727679D01*
X61585708Y-30719319D01*
X61495946Y-30715882D01*
X61431417Y-30720019D01*
X61375280Y-30734645D01*
X61310692Y-30762676D01*
X61297023Y-30769295D01*
X61194003Y-30833964D01*
X61074997Y-30934204D01*
X60942284Y-31067397D01*
X60798145Y-31230925D01*
X60644863Y-31422170D01*
X60484718Y-31638515D01*
X60319992Y-31877341D01*
X60283645Y-31932212D01*
X60233921Y-32009249D01*
X60166002Y-32116598D01*
X60083572Y-32248326D01*
X59990314Y-32398502D01*
X59889911Y-32561196D01*
X59786046Y-32730476D01*
X59682634Y-32900032D01*
X59587017Y-33056865D01*
X59498123Y-33201806D01*
X59418365Y-33330988D01*
X59350153Y-33440543D01*
X59295900Y-33526604D01*
X59258016Y-33585303D01*
X59238913Y-33612773D01*
X59237224Y-33614346D01*
X59219677Y-33600036D01*
X59175668Y-33559028D01*
X59108559Y-33494661D01*
X59021717Y-33410277D01*
X58918505Y-33309215D01*
X58802288Y-33194818D01*
X58676431Y-33070425D01*
X58544298Y-32939377D01*
X58409253Y-32805016D01*
X58274663Y-32670681D01*
X58143890Y-32539714D01*
X58020300Y-32415456D01*
X57907258Y-32301247D01*
X57808127Y-32200428D01*
X57726273Y-32116339D01*
X57680771Y-32068921D01*
X57483693Y-31873201D01*
X57285985Y-31698865D01*
X57091204Y-31548181D01*
X56902910Y-31423413D01*
X56724658Y-31326828D01*
X56560008Y-31260693D01*
X56412516Y-31227272D01*
X56353507Y-31223513D01*
X56240429Y-31236203D01*
X56113642Y-31271169D01*
X55990962Y-31322429D01*
X55902261Y-31375031D01*
X55808302Y-31459324D01*
X55718659Y-31569055D01*
X55645249Y-31688015D01*
X55607007Y-31776541D01*
X55581389Y-31901047D01*
X55577678Y-32041178D01*
X54266611Y-32041178D01*
X54260435Y-31998873D01*
X54244652Y-31907329D01*
X54228917Y-31833166D01*
X54212758Y-31773634D01*
X54195703Y-31725985D01*
X54177282Y-31687471D01*
X54157023Y-31655344D01*
X54134455Y-31626855D01*
X54109106Y-31599256D01*
X54082225Y-31571569D01*
X53943959Y-31459077D01*
X53782313Y-31381477D01*
X53598773Y-31339401D01*
X53519926Y-31332677D01*
X53285793Y-31341529D01*
X53063412Y-31389756D01*
X52856408Y-31475612D01*
X52668409Y-31597348D01*
X52503041Y-31753219D01*
X52414176Y-31865237D01*
X52379806Y-31917314D01*
X52325792Y-32004017D01*
X52253408Y-32123166D01*
X52163932Y-32272585D01*
X52058640Y-32450096D01*
X51938807Y-32653522D01*
X51805710Y-32880685D01*
X51660626Y-33129407D01*
X51504829Y-33397512D01*
X51339598Y-33682821D01*
X51166207Y-33983157D01*
X50985934Y-34296342D01*
X50823158Y-34579895D01*
X50650861Y-34878095D01*
X50495779Y-35141672D01*
X50358306Y-35369980D01*
X50238835Y-35562373D01*
X50137759Y-35718207D01*
X50065239Y-35823338D01*
X49937470Y-36007386D01*
X49837526Y-36166474D01*
X49763313Y-36305591D01*
X49712735Y-36429725D01*
X49683696Y-36543862D01*
X49674101Y-36652992D01*
X49281808Y-36652992D01*
X49271611Y-36528500D01*
X49255914Y-36298214D01*
X49240567Y-36036386D01*
X49237786Y-35985567D01*
X49227812Y-35801820D01*
X49217200Y-35606467D01*
X49206570Y-35410932D01*
X49196543Y-35226640D01*
X49187741Y-35065014D01*
X49182537Y-34969567D01*
X49174129Y-34823700D01*
X49164805Y-34675638D01*
X49155352Y-34536984D01*
X49146554Y-34419339D01*
X49140290Y-34345718D01*
X49129048Y-34200969D01*
X49119710Y-34032227D01*
X49112379Y-33847371D01*
X49107160Y-33654278D01*
X49104155Y-33460825D01*
X49103470Y-33274891D01*
X49105208Y-33104355D01*
X49109472Y-32957093D01*
X49116368Y-32840984D01*
X49119958Y-32804404D01*
X49131607Y-32694911D01*
X49136817Y-32615695D01*
X49135380Y-32555164D01*
X49127087Y-32501722D01*
X49113622Y-32450205D01*
X49044852Y-32285766D01*
X48943944Y-32145816D01*
X48815454Y-32033742D01*
X48663941Y-31952929D01*
X48493963Y-31906760D01*
X48368572Y-31896875D01*
X48243436Y-31904256D01*
X48141510Y-31931459D01*
X48047964Y-31984410D01*
X47955524Y-32061925D01*
X47836907Y-32198961D01*
X47732032Y-32375399D01*
X47640786Y-32591472D01*
X47563060Y-32847411D01*
X47543752Y-32926050D01*
X47521072Y-33027402D01*
X47503537Y-33119555D01*
X47490960Y-33208863D01*
X47483154Y-33301680D01*
X47479932Y-33404360D01*
X47481110Y-33523257D01*
X47486499Y-33664725D01*
X47495914Y-33835119D01*
X47509167Y-34040791D01*
X47510474Y-34060232D01*
X47521883Y-34234813D01*
X47532551Y-34407827D01*
X47542040Y-34571392D01*
X47549910Y-34717626D01*
X47555722Y-34838648D01*
X47559038Y-34926577D01*
X47559306Y-34936967D01*
X47564717Y-35168951D01*
X47458884Y-35186086D01*
X47249308Y-35222813D01*
X47023323Y-35267983D01*
X46777700Y-35322402D01*
X46509209Y-35386879D01*
X46214620Y-35462222D01*
X45890705Y-35549240D01*
X45534234Y-35648741D01*
X45141977Y-35761533D01*
X45035300Y-35792676D01*
X44178050Y-36043640D01*
X44162948Y-35712978D01*
X44155493Y-35562588D01*
X44146131Y-35392634D01*
X44136021Y-35223238D01*
X44126320Y-35074521D01*
X44125645Y-35064817D01*
X44118817Y-34966770D01*
X44109619Y-34834102D01*
X44098577Y-34674428D01*
X44086217Y-34495361D01*
X44073064Y-34304514D01*
X44059644Y-34109503D01*
X44050382Y-33974734D01*
X44033688Y-33734874D01*
X44019044Y-33533252D01*
X44005967Y-33365850D01*
X43993976Y-33228648D01*
X43982591Y-33117627D01*
X43971330Y-33028768D01*
X43959712Y-32958051D01*
X43947255Y-32901457D01*
X43933479Y-32854968D01*
X43917901Y-32814564D01*
X43909108Y-32795008D01*
X43839247Y-32683395D01*
X43740495Y-32575581D01*
X43625445Y-32483814D01*
X43537458Y-32433550D01*
X43472168Y-32405638D01*
X43412655Y-32388629D01*
X43344523Y-32380010D01*
X43253378Y-32377266D01*
X43214967Y-32377223D01*
X43112423Y-32379185D01*
X43037113Y-32386214D01*
X42974001Y-32401058D01*
X42908050Y-32426466D01*
X42882177Y-32438059D01*
X42761399Y-32510195D01*
X42647035Y-32608829D01*
X42551228Y-32721935D01*
X42491359Y-32825130D01*
X42464513Y-32899650D01*
X42446926Y-32984730D01*
X42438325Y-33086746D01*
X35877889Y-33086746D01*
X36171543Y-32801569D01*
X36561474Y-32422918D01*
X36942329Y-32053103D01*
X37312982Y-31693219D01*
X37672305Y-31344362D01*
X38019172Y-31007626D01*
X38352455Y-30684106D01*
X38671027Y-30374898D01*
X38973762Y-30081097D01*
X39259531Y-29803796D01*
X39527208Y-29544092D01*
X39775665Y-29303079D01*
X40003776Y-29081853D01*
X40210413Y-28881507D01*
X40394450Y-28703138D01*
X40554758Y-28547840D01*
X40690212Y-28416708D01*
X40799683Y-28310838D01*
X40882045Y-28231323D01*
X40936171Y-28179259D01*
X40952727Y-28163452D01*
X41150866Y-27996229D01*
X41353171Y-27867974D01*
X41565041Y-27775342D01*
X41595717Y-27765044D01*
X41624675Y-27758865D01*
X41693811Y-27745915D01*
X41801557Y-27726458D01*
X41946346Y-27700762D01*
X42126612Y-27669092D01*
X42340787Y-27631714D01*
X42587305Y-27588894D01*
X42864599Y-27540899D01*
X43171101Y-27487994D01*
X43505244Y-27430446D01*
X43865463Y-27368520D01*
X44250189Y-27302482D01*
X44657857Y-27232599D01*
X45086898Y-27159136D01*
X45535746Y-27082360D01*
X46002834Y-27002537D01*
X46486596Y-26919933D01*
X46985463Y-26834813D01*
X47497870Y-26747444D01*
X48022249Y-26658091D01*
X48557034Y-26567022D01*
X49100657Y-26474501D01*
X49651551Y-26380796D01*
X50208150Y-26286171D01*
X50768886Y-26190894D01*
X51332193Y-26095229D01*
X51896504Y-25999444D01*
X52460252Y-25903803D01*
X53021869Y-25808574D01*
X53579789Y-25714022D01*
X54132445Y-25620413D01*
X54678270Y-25528014D01*
X55215697Y-25437090D01*
X55743159Y-25347907D01*
X56259090Y-25260732D01*
X56761921Y-25175830D01*
X57250087Y-25093468D01*
X57722020Y-25013911D01*
X58176154Y-24937426D01*
X58610921Y-24864278D01*
X59024754Y-24794734D01*
X59416087Y-24729060D01*
X59783353Y-24667522D01*
X60124984Y-24610385D01*
X60439414Y-24557916D01*
X60725076Y-24510381D01*
X60980403Y-24468046D01*
X61203827Y-24431177D01*
X61393783Y-24400040D01*
X61548702Y-24374901D01*
X61667019Y-24356026D01*
X61746384Y-24343797D01*
X61827634Y-24331549D01*
X61949120Y-24312996D01*
X62109251Y-24288385D01*
X62306439Y-24257963D01*
X62539096Y-24221977D01*
X62805634Y-24180676D01*
X63104463Y-24134307D01*
X63433994Y-24083117D01*
X63792641Y-24027354D01*
X64178813Y-23967265D01*
X64590922Y-23903097D01*
X65027380Y-23835100D01*
X65486599Y-23763518D01*
X65966988Y-23688601D01*
X66466961Y-23610596D01*
X66984928Y-23529750D01*
X67519301Y-23446311D01*
X68068491Y-23360526D01*
X68630910Y-23272643D01*
X69204969Y-23182909D01*
X69789079Y-23091572D01*
X70381652Y-22998879D01*
X70981100Y-22905078D01*
X71011991Y-22900243D01*
X79430932Y-21582594D01*
X79461956Y-21475873D01*
X79528028Y-21317376D01*
X79627206Y-21184289D01*
X79760603Y-21075377D01*
X79881233Y-21009968D01*
X79950879Y-20984676D01*
X80054070Y-20955510D01*
X80182379Y-20924126D01*
X80327380Y-20892179D01*
X80480646Y-20861323D01*
X80633752Y-20833213D01*
X80778270Y-20809505D01*
X80905774Y-20791854D01*
X81007838Y-20781915D01*
X81050384Y-20780334D01*
X81229327Y-20794957D01*
X81401192Y-20836954D01*
X81557425Y-20902847D01*
X81689469Y-20989159D01*
X81775621Y-21075129D01*
X81831185Y-21144765D01*
X81885284Y-21105493D01*
X81902107Y-21091145D01*
X81933832Y-21061553D01*
X81981302Y-21015871D01*
X82045358Y-20953255D01*
X82126841Y-20872862D01*
X82226592Y-20773845D01*
X82345453Y-20655363D01*
X82484264Y-20516569D01*
X82643867Y-20356619D01*
X82825104Y-20174670D01*
X83028815Y-19969877D01*
X83255842Y-19741396D01*
X83507025Y-19488382D01*
X83783208Y-19209991D01*
X84085229Y-18905378D01*
X84413932Y-18573700D01*
X84770156Y-18214112D01*
X85154744Y-17825770D01*
X85412473Y-17565469D01*
X85690365Y-17284416D01*
X85948060Y-17023045D01*
X86184602Y-16782342D01*
X86399036Y-16563297D01*
X86590406Y-16366897D01*
X86757755Y-16194130D01*
X86900129Y-16045983D01*
X87016570Y-15923444D01*
X87106124Y-15827501D01*
X87167834Y-15759141D01*
X87200744Y-15719353D01*
X87204716Y-15713386D01*
X87232100Y-15656557D01*
X87267346Y-15569495D01*
X87306522Y-15462620D01*
X87345694Y-15346355D01*
X87358563Y-15305734D01*
X87429602Y-15083263D01*
X87493906Y-14896497D01*
X87554344Y-14739913D01*
X87613786Y-14607986D01*
X87675102Y-14495192D01*
X87741161Y-14396008D01*
X87814833Y-14304910D01*
X87898987Y-14216373D01*
X87949783Y-14167699D01*
X88142248Y-14016020D01*
X88354959Y-13898695D01*
X88582936Y-13816083D01*
X88821200Y-13768542D01*
X89064772Y-13756428D01*
X89308673Y-13780100D01*
X89547923Y-13839914D01*
X89777543Y-13936229D01*
X89929800Y-14025505D01*
X89989495Y-14070598D01*
X90070577Y-14139587D01*
X90165400Y-14225561D01*
X90266318Y-14321607D01*
X90354780Y-14409667D01*
X90493650Y-14555322D01*
X90604399Y-14682154D01*
X90692115Y-14797592D01*
X90761888Y-14909066D01*
X90818806Y-15024004D01*
X90867957Y-15149837D01*
X90874305Y-15168150D01*
X90899090Y-15245209D01*
X90915695Y-15312671D01*
X90925723Y-15382766D01*
X90930775Y-15467723D01*
X90932453Y-15579774D01*
X90932533Y-15612650D01*
X90932412Y-15631937D01*
X90931905Y-15652698D01*
X90930854Y-15675906D01*
X90929100Y-15702533D01*
X90926485Y-15733553D01*
X90922850Y-15769940D01*
X90918037Y-15812666D01*
X90911887Y-15862704D01*
X90904242Y-15921028D01*
X90894943Y-15988611D01*
X90883833Y-16066426D01*
X90870752Y-16155447D01*
X90855541Y-16256645D01*
X90838043Y-16370996D01*
X90818100Y-16499471D01*
X90795551Y-16643044D01*
X90770240Y-16802688D01*
X90742008Y-16979377D01*
X90710695Y-17174083D01*
X90676145Y-17387780D01*
X90638197Y-17621441D01*
X90596694Y-17876039D01*
X90551477Y-18152547D01*
X90502388Y-18451938D01*
X90449269Y-18775186D01*
X90391960Y-19123264D01*
X90330303Y-19497145D01*
X90264141Y-19897801D01*
X90193314Y-20326208D01*
X90117663Y-20783336D01*
X90037031Y-21270160D01*
X89951260Y-21787653D01*
X89860189Y-22336789D01*
X89763662Y-22918539D01*
X89661519Y-23533877D01*
X89553602Y-24183778D01*
X89439753Y-24869212D01*
X89319813Y-25591155D01*
X89193624Y-26350579D01*
X89061027Y-27148457D01*
X88921863Y-27985763D01*
X88775975Y-28863469D01*
X88716244Y-29222817D01*
X88592328Y-29968183D01*
X88470047Y-30703474D01*
X88349588Y-31427570D01*
X88231139Y-32139353D01*
X88114886Y-32837705D01*
X88001016Y-33521508D01*
X87889717Y-34189644D01*
X87781174Y-34840994D01*
X87675576Y-35474441D01*
X87573108Y-36088866D01*
X87473958Y-36683150D01*
X87378314Y-37256176D01*
X87286361Y-37806825D01*
X87198286Y-38333980D01*
X87114278Y-38836521D01*
X87034522Y-39313331D01*
X86959206Y-39763292D01*
X86888516Y-40185285D01*
X86822640Y-40578192D01*
X86761765Y-40940894D01*
X86706076Y-41272275D01*
X86655762Y-41571214D01*
X86611010Y-41836595D01*
X86572006Y-42067299D01*
X86538936Y-42262208D01*
X86511989Y-42420203D01*
X86491351Y-42540166D01*
X86477210Y-42620980D01*
X86469751Y-42661525D01*
X86468778Y-42665913D01*
X86413253Y-42816716D01*
X86332553Y-42978231D01*
X86235072Y-43135379D01*
X86133523Y-43268104D01*
X86095456Y-43309754D01*
X86030159Y-43378294D01*
X85940483Y-43470832D01*
X85829283Y-43584474D01*
X85699413Y-43716327D01*
X85553725Y-43863500D01*
X85395073Y-44023098D01*
X85226311Y-44192230D01*
X85050292Y-44368002D01*
X84952749Y-44465139D01*
X84738420Y-44678226D01*
X84551452Y-44863553D01*
X84389272Y-45023291D01*
X84249304Y-45159612D01*
X84128974Y-45274688D01*
X84025706Y-45370690D01*
X83936927Y-45449789D01*
X83860060Y-45514158D01*
X83792533Y-45565969D01*
X83731769Y-45607391D01*
X83675194Y-45640598D01*
X83620234Y-45667761D01*
X83564312Y-45691050D01*
X83504856Y-45712639D01*
X83452800Y-45730216D01*
X83198818Y-45793638D01*
X82942459Y-45817576D01*
X82688420Y-45803032D01*
X82441397Y-45751006D01*
X82206087Y-45662499D01*
X81987185Y-45538511D01*
X81789390Y-45380045D01*
X81783553Y-45374503D01*
X81711735Y-45302071D01*
X81643357Y-45226512D01*
X81591159Y-45162033D01*
X81583559Y-45151395D01*
X81525834Y-45074399D01*
X81467175Y-45013910D01*
X81396597Y-44961067D01*
X81303113Y-44907011D01*
X81240884Y-44875020D01*
X81156898Y-44834919D01*
X81077858Y-44802750D01*
X80997711Y-44777655D01*
X80910403Y-44758779D01*
X80809884Y-44745268D01*
X80690099Y-44736266D01*
X80544997Y-44730918D01*
X80368524Y-44728369D01*
X80198828Y-44727768D01*
X79622440Y-44727400D01*
X79608450Y-44785609D01*
X79561643Y-44912765D01*
X79487183Y-45037879D01*
X79395214Y-45145891D01*
X79328367Y-45201525D01*
X79268932Y-45238241D01*
X79201473Y-45269935D01*
X79120367Y-45298047D01*
X79019992Y-45324019D01*
X78894724Y-45349290D01*
X78738940Y-45375301D01*
X78547018Y-45403492D01*
X78531550Y-45405659D01*
X78371480Y-45427678D01*
X78246244Y-45443802D01*
X78148822Y-45454511D01*
X78072199Y-45460285D01*
X78009357Y-45461603D01*
X77953277Y-45458944D01*
X77896943Y-45452790D01*
X77878644Y-45450291D01*
X77685326Y-45404869D01*
X77510954Y-45327480D01*
X77360453Y-45221448D01*
X77238748Y-45090095D01*
X77165547Y-44969262D01*
X77135127Y-44912279D01*
X77109810Y-44886152D01*
X77079216Y-44882335D01*
X77063316Y-44885111D01*
X77037225Y-44889559D01*
X76971309Y-44900349D01*
X76867547Y-44917163D01*
X76727922Y-44939686D01*
X76554414Y-44967599D01*
X76349004Y-45000585D01*
X76113672Y-45038328D01*
X75850399Y-45080509D01*
X75561167Y-45126813D01*
X75247955Y-45176922D01*
X74912745Y-45230518D01*
X74557517Y-45287285D01*
X74184253Y-45346905D01*
X73794933Y-45409061D01*
X73391537Y-45473437D01*
X72976048Y-45539714D01*
X72689550Y-45585399D01*
X72275648Y-45651393D01*
X71823606Y-45723471D01*
X71337089Y-45801050D01*
X70819763Y-45883544D01*
X70275293Y-45970370D01*
X69707343Y-46060942D01*
X69119579Y-46154676D01*
X68515665Y-46250988D01*
X67899268Y-46349293D01*
X67274051Y-46449007D01*
X66643681Y-46549544D01*
X66011822Y-46650321D01*
X65382138Y-46750753D01*
X64758296Y-46850255D01*
X64143961Y-46948244D01*
X63542796Y-47044134D01*
X62958468Y-47137340D01*
X62394642Y-47227279D01*
X62339050Y-47236147D01*
X61837725Y-47316063D01*
X61346342Y-47394285D01*
X60866607Y-47470546D01*
X60400225Y-47544578D01*
X59948902Y-47616114D01*
X59514342Y-47684886D01*
X59098252Y-47750626D01*
X58702336Y-47813068D01*
X58328300Y-47871943D01*
X57977849Y-47926983D01*
X57652689Y-47977922D01*
X57354524Y-48024491D01*
X57085060Y-48066422D01*
X56846003Y-48103449D01*
X56639057Y-48135304D01*
X56465929Y-48161719D01*
X56328322Y-48182426D01*
X56227944Y-48197157D01*
X56166498Y-48205646D01*
X56147800Y-48207718D01*
X56049048Y-48210120D01*
X55947824Y-48207244D01*
X55872634Y-48200482D01*
X55642137Y-48149323D01*
X55418810Y-48064414D01*
X55212934Y-47950461D01*
X55045422Y-47821891D01*
X55011552Y-47787284D01*
X54952941Y-47722725D01*
X54871856Y-47630863D01*
X54770563Y-47514346D01*
X54651327Y-47375822D01*
X54516416Y-47217940D01*
X54368094Y-47043349D01*
X54208629Y-46854696D01*
X54040285Y-46654630D01*
X53865329Y-46445800D01*
X53756042Y-46314900D01*
X53579781Y-46103798D01*
X53410010Y-45901050D01*
X53248855Y-45709160D01*
X53098442Y-45530634D01*
X52960897Y-45367977D01*
X52838346Y-45223692D01*
X52732915Y-45100286D01*
X52646730Y-45000264D01*
X52581916Y-44926129D01*
X52540599Y-44880388D01*
X52527149Y-44866896D01*
X52425908Y-44797441D01*
X52302574Y-44736425D01*
X52175451Y-44691837D01*
X52083800Y-44673414D01*
X52053593Y-44672871D01*
X52000519Y-44675659D01*
X51923039Y-44681957D01*
X51819614Y-44691946D01*
X51688705Y-44705806D01*
X51528772Y-44723717D01*
X51338275Y-44745859D01*
X51115676Y-44772412D01*
X50859436Y-44803555D01*
X50568015Y-44839470D01*
X50239873Y-44880335D01*
X49873472Y-44926332D01*
X49467271Y-44977639D01*
X49289800Y-45000133D01*
X49089038Y-45025603D01*
X48848076Y-45056173D01*
X48568711Y-45091615D01*
X48252738Y-45131702D01*
X47901955Y-45176205D01*
X47518158Y-45224897D01*
X47103144Y-45277550D01*
X46658709Y-45333936D01*
X46186649Y-45393826D01*
X45688762Y-45456993D01*
X45166843Y-45523209D01*
X44622690Y-45592246D01*
X44058098Y-45663877D01*
X43474865Y-45737872D01*
X42874787Y-45814005D01*
X42259660Y-45892047D01*
X41631282Y-45971770D01*
X40991448Y-46052947D01*
X40341955Y-46135350D01*
X39684599Y-46218750D01*
X39021178Y-46302919D01*
X38353488Y-46387631D01*
X37683325Y-46472656D01*
X37012485Y-46557767D01*
X36653300Y-46603338D01*
X35868760Y-46702881D01*
X35125095Y-46797241D01*
X34421184Y-46886548D01*
X33755903Y-46970933D01*
X33128130Y-47050526D01*
X32536743Y-47125458D01*
X31980618Y-47195857D01*
X31458634Y-47261855D01*
X30969666Y-47323582D01*
X30512594Y-47381168D01*
X30086293Y-47434743D01*
X29689642Y-47484438D01*
X29321518Y-47530382D01*
X28980798Y-47572707D01*
X28666359Y-47611541D01*
X28377078Y-47647016D01*
X28111834Y-47679261D01*
X27869504Y-47708407D01*
X27648964Y-47734584D01*
X27449092Y-47757922D01*
X27268766Y-47778551D01*
X27106863Y-47796603D01*
X26962260Y-47812206D01*
X26833834Y-47825491D01*
X26720463Y-47836588D01*
X26621024Y-47845628D01*
X26534395Y-47852740D01*
X26459453Y-47858056D01*
X26395075Y-47861704D01*
X26340138Y-47863816D01*
X26293521Y-47864522D01*
X26254099Y-47863951D01*
X26220752Y-47862235D01*
X26192355Y-47859503D01*
X26167786Y-47855885D01*
X26145924Y-47851511D01*
X26125644Y-47846513D01*
X26105824Y-47841020D01*
X26085342Y-47835162D01*
X26069967Y-47830903D01*
X25828371Y-47745186D01*
X25607964Y-47625940D01*
X25411624Y-47476657D01*
X25242227Y-47300833D01*
X25102651Y-47101963D01*
X24995774Y-46883541D01*
X24924472Y-46649063D01*
X24891623Y-46402022D01*
X24891502Y-46399567D01*
X24890470Y-46327142D01*
X24892346Y-46220021D01*
X24896808Y-46083369D01*
X24903535Y-45922352D01*
X24912203Y-45742137D01*
X24922491Y-45547889D01*
X24934076Y-45344773D01*
X24946637Y-45137957D01*
X24959851Y-44932605D01*
X24973396Y-44733884D01*
X24986951Y-44546959D01*
X25000191Y-44376997D01*
X25012797Y-44229163D01*
X25024445Y-44108623D01*
X25034814Y-44020544D01*
X25042810Y-43973192D01*
X25090920Y-43804291D01*
X25153819Y-43650613D01*
X25236376Y-43504111D01*
X25343460Y-43356735D01*
X25479941Y-43200438D01*
X25561818Y-43115322D01*
X25589667Y-43087740D01*
X25646762Y-43031764D01*
X25731978Y-42948491D01*
X25844186Y-42839016D01*
X25982260Y-42704432D01*
X26145072Y-42545836D01*
X26331496Y-42364322D01*
X26540405Y-42160986D01*
X26770670Y-41936921D01*
X27021166Y-41693224D01*
X27290764Y-41430989D01*
X27578338Y-41151311D01*
X27882761Y-40855285D01*
X28202905Y-40544006D01*
X28537644Y-40218569D01*
X28885850Y-39880069D01*
X29246397Y-39529601D01*
X29618156Y-39168260D01*
X30000001Y-38797141D01*
X30390805Y-38417339D01*
X30789441Y-38029949D01*
X31194781Y-37636065D01*
X31605699Y-37236784D01*
X32021067Y-36833199D01*
X32439758Y-36426406D01*
X32860645Y-36017500D01*
X33282601Y-35607575D01*
X33704499Y-35197727D01*
X34125211Y-34789051D01*
X34543611Y-34382641D01*
X34958571Y-33979594D01*
X35368965Y-33581002D01*
X35773664Y-33187963D01*
X35877889Y-33086746D01*
G36*
X52896540Y-34082615D02*
G01*
X52901160Y-34115625D01*
X52909163Y-34185295D01*
X52919979Y-34286139D01*
X52933036Y-34412670D01*
X52947765Y-34559400D01*
X52963594Y-34720841D01*
X52972266Y-34810817D01*
X52988526Y-34979244D01*
X53004005Y-35137120D01*
X53018124Y-35278707D01*
X53030299Y-35398265D01*
X53039952Y-35490056D01*
X53046500Y-35548342D01*
X53048444Y-35563235D01*
X53059738Y-35638320D01*
X52566478Y-35685219D01*
X52423817Y-35698576D01*
X52293053Y-35710429D01*
X52180819Y-35720208D01*
X52093746Y-35727342D01*
X52038466Y-35731263D01*
X52023878Y-35731842D01*
X52002441Y-35729960D01*
X51993442Y-35720114D01*
X51998770Y-35695551D01*
X52020311Y-35649519D01*
X52059952Y-35575265D01*
X52075721Y-35546359D01*
X52110012Y-35483129D01*
X52161031Y-35388433D01*
X52225615Y-35268172D01*
X52300598Y-35128249D01*
X52382818Y-34974566D01*
X52469111Y-34813024D01*
X52531301Y-34696449D01*
X52627811Y-34516224D01*
X52706612Y-34370994D01*
X52769299Y-34258078D01*
X52817468Y-34174797D01*
X52852713Y-34118468D01*
X52876629Y-34086412D01*
X52890812Y-34075948D01*
X52896540Y-34082615D01*
G37*
X52896540Y-34082615D02*
X52901160Y-34115625D01*
X52909163Y-34185295D01*
X52919979Y-34286139D01*
X52933036Y-34412670D01*
X52947765Y-34559400D01*
X52963594Y-34720841D01*
X52972266Y-34810817D01*
X52988526Y-34979244D01*
X53004005Y-35137120D01*
X53018124Y-35278707D01*
X53030299Y-35398265D01*
X53039952Y-35490056D01*
X53046500Y-35548342D01*
X53048444Y-35563235D01*
X53059738Y-35638320D01*
X52566478Y-35685219D01*
X52423817Y-35698576D01*
X52293053Y-35710429D01*
X52180819Y-35720208D01*
X52093746Y-35727342D01*
X52038466Y-35731263D01*
X52023878Y-35731842D01*
X52002441Y-35729960D01*
X51993442Y-35720114D01*
X51998770Y-35695551D01*
X52020311Y-35649519D01*
X52059952Y-35575265D01*
X52075721Y-35546359D01*
X52110012Y-35483129D01*
X52161031Y-35388433D01*
X52225615Y-35268172D01*
X52300598Y-35128249D01*
X52382818Y-34974566D01*
X52469111Y-34813024D01*
X52531301Y-34696449D01*
X52627811Y-34516224D01*
X52706612Y-34370994D01*
X52769299Y-34258078D01*
X52817468Y-34174797D01*
X52852713Y-34118468D01*
X52876629Y-34086412D01*
X52890812Y-34075948D01*
X52896540Y-34082615D01*
G36*
X65953831Y-31659058D02*
G01*
X66131052Y-31699094D01*
X66288617Y-31769605D01*
X66434037Y-31873684D01*
X66534160Y-31969793D01*
X66661815Y-32127938D01*
X66774383Y-32316796D01*
X66872562Y-32538268D01*
X66957051Y-32794257D01*
X67028546Y-33086666D01*
X67087746Y-33417396D01*
X67102562Y-33519650D01*
X67118866Y-33666423D01*
X67131971Y-33841944D01*
X67141751Y-34037233D01*
X67148078Y-34243309D01*
X67150825Y-34451191D01*
X67149865Y-34651898D01*
X67145071Y-34836451D01*
X67136315Y-34995869D01*
X67125063Y-35109523D01*
X67071513Y-35414108D01*
X66995756Y-35682787D01*
X66897621Y-35915802D01*
X66776937Y-36113394D01*
X66633530Y-36275805D01*
X66467230Y-36403277D01*
X66277864Y-36496051D01*
X66101335Y-36547240D01*
X65965229Y-36567151D01*
X65813920Y-36574846D01*
X65664705Y-36570300D01*
X65534881Y-36553487D01*
X65510566Y-36548121D01*
X65322105Y-36482500D01*
X65149147Y-36380578D01*
X64991508Y-36241965D01*
X64849002Y-36066271D01*
X64721442Y-35853105D01*
X64608644Y-35602076D01*
X64510422Y-35312796D01*
X64426590Y-34984873D01*
X64356963Y-34617917D01*
X64301356Y-34211539D01*
X64274645Y-33948649D01*
X64262355Y-33635292D01*
X64281175Y-33328933D01*
X64329756Y-33034105D01*
X64406746Y-32755338D01*
X64510794Y-32497165D01*
X64640551Y-32264117D01*
X64794666Y-32060725D01*
X64857081Y-31994404D01*
X65015012Y-31858139D01*
X65182968Y-31757624D01*
X65366964Y-31690516D01*
X65573013Y-31654467D01*
X65749445Y-31646400D01*
X65953831Y-31659058D01*
G37*
X65953831Y-31659058D02*
X66131052Y-31699094D01*
X66288617Y-31769605D01*
X66434037Y-31873684D01*
X66534160Y-31969793D01*
X66661815Y-32127938D01*
X66774383Y-32316796D01*
X66872562Y-32538268D01*
X66957051Y-32794257D01*
X67028546Y-33086666D01*
X67087746Y-33417396D01*
X67102562Y-33519650D01*
X67118866Y-33666423D01*
X67131971Y-33841944D01*
X67141751Y-34037233D01*
X67148078Y-34243309D01*
X67150825Y-34451191D01*
X67149865Y-34651898D01*
X67145071Y-34836451D01*
X67136315Y-34995869D01*
X67125063Y-35109523D01*
X67071513Y-35414108D01*
X66995756Y-35682787D01*
X66897621Y-35915802D01*
X66776937Y-36113394D01*
X66633530Y-36275805D01*
X66467230Y-36403277D01*
X66277864Y-36496051D01*
X66101335Y-36547240D01*
X65965229Y-36567151D01*
X65813920Y-36574846D01*
X65664705Y-36570300D01*
X65534881Y-36553487D01*
X65510566Y-36548121D01*
X65322105Y-36482500D01*
X65149147Y-36380578D01*
X64991508Y-36241965D01*
X64849002Y-36066271D01*
X64721442Y-35853105D01*
X64608644Y-35602076D01*
X64510422Y-35312796D01*
X64426590Y-34984873D01*
X64356963Y-34617917D01*
X64301356Y-34211539D01*
X64274645Y-33948649D01*
X64262355Y-33635292D01*
X64281175Y-33328933D01*
X64329756Y-33034105D01*
X64406746Y-32755338D01*
X64510794Y-32497165D01*
X64640551Y-32264117D01*
X64794666Y-32060725D01*
X64857081Y-31994404D01*
X65015012Y-31858139D01*
X65182968Y-31757624D01*
X65366964Y-31690516D01*
X65573013Y-31654467D01*
X65749445Y-31646400D01*
X65953831Y-31659058D01*
G36*
X71098030Y-31379910D02*
G01*
X71375445Y-31418111D01*
X71638511Y-31485594D01*
X71895758Y-31584919D01*
X72155715Y-31718649D01*
X72340300Y-31831786D01*
X72511394Y-31956861D01*
X72658450Y-32092792D01*
X72777563Y-32234692D01*
X72864827Y-32377671D01*
X72916339Y-32516844D01*
X72925237Y-32564024D01*
X72926580Y-32625906D01*
X72910719Y-32688085D01*
X72874076Y-32756927D01*
X72813074Y-32838802D01*
X72724135Y-32940077D01*
X72698423Y-32967776D01*
X72572945Y-33088472D01*
X72433703Y-33195329D01*
X72277179Y-33289609D01*
X72099856Y-33372571D01*
X71898213Y-33445474D01*
X71668734Y-33509579D01*
X71407899Y-33566146D01*
X71112190Y-33616433D01*
X70778089Y-33661702D01*
X70751429Y-33664925D01*
X70654807Y-33676516D01*
X70542329Y-32533655D01*
X70521339Y-32318251D01*
X70502005Y-32115709D01*
X70484672Y-31929905D01*
X70469680Y-31764713D01*
X70457373Y-31624009D01*
X70448092Y-31511668D01*
X70442179Y-31431563D01*
X70439977Y-31387572D01*
X70440472Y-31380173D01*
X70464163Y-31376549D01*
X70522895Y-31373317D01*
X70609379Y-31370716D01*
X70716321Y-31368985D01*
X70797738Y-31368426D01*
X71098030Y-31379910D01*
G37*
X71098030Y-31379910D02*
X71375445Y-31418111D01*
X71638511Y-31485594D01*
X71895758Y-31584919D01*
X72155715Y-31718649D01*
X72340300Y-31831786D01*
X72511394Y-31956861D01*
X72658450Y-32092792D01*
X72777563Y-32234692D01*
X72864827Y-32377671D01*
X72916339Y-32516844D01*
X72925237Y-32564024D01*
X72926580Y-32625906D01*
X72910719Y-32688085D01*
X72874076Y-32756927D01*
X72813074Y-32838802D01*
X72724135Y-32940077D01*
X72698423Y-32967776D01*
X72572945Y-33088472D01*
X72433703Y-33195329D01*
X72277179Y-33289609D01*
X72099856Y-33372571D01*
X71898213Y-33445474D01*
X71668734Y-33509579D01*
X71407899Y-33566146D01*
X71112190Y-33616433D01*
X70778089Y-33661702D01*
X70751429Y-33664925D01*
X70654807Y-33676516D01*
X70542329Y-32533655D01*
X70521339Y-32318251D01*
X70502005Y-32115709D01*
X70484672Y-31929905D01*
X70469680Y-31764713D01*
X70457373Y-31624009D01*
X70448092Y-31511668D01*
X70442179Y-31431563D01*
X70439977Y-31387572D01*
X70440472Y-31380173D01*
X70464163Y-31376549D01*
X70522895Y-31373317D01*
X70609379Y-31370716D01*
X70716321Y-31368985D01*
X70797738Y-31368426D01*
X71098030Y-31379910D01*
%TD*%
M02*
