%TF.GenerationSoftware,KiCad,Pcbnew,(7.0.0)*%
%TF.CreationDate,2023-05-30T20:17:09-04:00*%
%TF.ProjectId,H4X0R-small,48345830-522d-4736-9d61-6c6c2e6b6963,rev?*%
%TF.SameCoordinates,Original*%
%TF.FileFunction,Copper,L1,Top*%
%TF.FilePolarity,Positive*%
%FSLAX46Y46*%
G04 Gerber Fmt 4.6, Leading zero omitted, Abs format (unit mm)*
G04 Created by KiCad (PCBNEW (7.0.0)) date 2023-05-30 20:17:09*
%MOMM*%
%LPD*%
G01*
G04 APERTURE LIST*
%TA.AperFunction,EtchedComponent*%
%ADD10C,0.010000*%
%TD*%
G04 APERTURE END LIST*
%TO.C,G\u002A\u002A\u002A*%
G36*
X70818768Y-31355949D02*
G01*
X70984415Y-31361683D01*
X71116300Y-31369053D01*
X71222986Y-31378879D01*
X71313038Y-31391981D01*
X71395018Y-31409180D01*
X71408307Y-31412455D01*
X71642373Y-31482767D01*
X71873877Y-31574008D01*
X72096137Y-31682269D01*
X72302471Y-31803640D01*
X72486198Y-31934211D01*
X72640637Y-32070073D01*
X72753415Y-32199498D01*
X72831493Y-32326558D01*
X72888868Y-32461765D01*
X72892845Y-32474399D01*
X72937056Y-32619954D01*
X72884013Y-32709969D01*
X72814185Y-32810358D01*
X72719765Y-32921129D01*
X72612108Y-33030309D01*
X72502572Y-33125925D01*
X72456346Y-33160870D01*
X72281653Y-33269264D01*
X72078884Y-33364439D01*
X71845335Y-33447238D01*
X71578304Y-33518504D01*
X71275086Y-33579080D01*
X70965813Y-33625574D01*
X70844778Y-33641302D01*
X70759264Y-33651126D01*
X70702775Y-33654310D01*
X70668814Y-33650119D01*
X70650886Y-33637819D01*
X70642495Y-33616676D01*
X70637557Y-33588442D01*
X70633264Y-33553792D01*
X70625405Y-33481492D01*
X70614434Y-33376035D01*
X70600803Y-33241914D01*
X70584965Y-33083621D01*
X70567374Y-32905650D01*
X70548483Y-32712492D01*
X70530303Y-32524817D01*
X70510528Y-32320596D01*
X70491578Y-32126556D01*
X70473917Y-31947330D01*
X70458010Y-31787549D01*
X70444319Y-31651845D01*
X70433308Y-31544848D01*
X70425442Y-31471191D01*
X70421431Y-31437222D01*
X70408486Y-31344460D01*
X70818768Y-31355949D01*
G37*
D10*
X70818768Y-31355949D02*
X70984415Y-31361683D01*
X71116300Y-31369053D01*
X71222986Y-31378879D01*
X71313038Y-31391981D01*
X71395018Y-31409180D01*
X71408307Y-31412455D01*
X71642373Y-31482767D01*
X71873877Y-31574008D01*
X72096137Y-31682269D01*
X72302471Y-31803640D01*
X72486198Y-31934211D01*
X72640637Y-32070073D01*
X72753415Y-32199498D01*
X72831493Y-32326558D01*
X72888868Y-32461765D01*
X72892845Y-32474399D01*
X72937056Y-32619954D01*
X72884013Y-32709969D01*
X72814185Y-32810358D01*
X72719765Y-32921129D01*
X72612108Y-33030309D01*
X72502572Y-33125925D01*
X72456346Y-33160870D01*
X72281653Y-33269264D01*
X72078884Y-33364439D01*
X71845335Y-33447238D01*
X71578304Y-33518504D01*
X71275086Y-33579080D01*
X70965813Y-33625574D01*
X70844778Y-33641302D01*
X70759264Y-33651126D01*
X70702775Y-33654310D01*
X70668814Y-33650119D01*
X70650886Y-33637819D01*
X70642495Y-33616676D01*
X70637557Y-33588442D01*
X70633264Y-33553792D01*
X70625405Y-33481492D01*
X70614434Y-33376035D01*
X70600803Y-33241914D01*
X70584965Y-33083621D01*
X70567374Y-32905650D01*
X70548483Y-32712492D01*
X70530303Y-32524817D01*
X70510528Y-32320596D01*
X70491578Y-32126556D01*
X70473917Y-31947330D01*
X70458010Y-31787549D01*
X70444319Y-31651845D01*
X70433308Y-31544848D01*
X70425442Y-31471191D01*
X70421431Y-31437222D01*
X70408486Y-31344460D01*
X70818768Y-31355949D01*
G36*
X65883085Y-31634330D02*
G01*
X66087461Y-31680556D01*
X66275039Y-31764023D01*
X66443329Y-31884027D01*
X66526236Y-31964776D01*
X66657971Y-32131498D01*
X66773462Y-32329627D01*
X66873275Y-32560789D01*
X66957976Y-32826612D01*
X67028131Y-33128721D01*
X67084305Y-33468742D01*
X67104125Y-33625484D01*
X67119514Y-33789253D01*
X67130967Y-33975960D01*
X67138473Y-34177058D01*
X67142017Y-34384001D01*
X67141585Y-34588244D01*
X67137163Y-34781240D01*
X67128738Y-34954445D01*
X67116295Y-35099313D01*
X67106638Y-35170650D01*
X67044208Y-35469669D01*
X66960729Y-35732020D01*
X66856148Y-35957795D01*
X66730415Y-36147085D01*
X66583479Y-36299980D01*
X66415288Y-36416572D01*
X66400866Y-36424358D01*
X66230369Y-36495214D01*
X66037167Y-36542630D01*
X65835327Y-36564139D01*
X65641050Y-36557521D01*
X65446470Y-36518934D01*
X65267866Y-36448680D01*
X65104718Y-36345845D01*
X64956504Y-36209511D01*
X64822704Y-36038765D01*
X64702795Y-35832689D01*
X64596258Y-35590370D01*
X64502570Y-35310891D01*
X64421212Y-34993336D01*
X64351661Y-34636791D01*
X64293396Y-34240339D01*
X64285410Y-34175817D01*
X64269883Y-34006352D01*
X64261382Y-33820877D01*
X64259708Y-33629772D01*
X64264664Y-33443419D01*
X64276052Y-33272196D01*
X64293675Y-33126485D01*
X64306686Y-33057704D01*
X64386875Y-32768308D01*
X64489567Y-32507712D01*
X64613392Y-32277617D01*
X64756982Y-32079727D01*
X64918968Y-31915741D01*
X65097982Y-31787361D01*
X65292655Y-31696290D01*
X65433895Y-31656409D01*
X65664399Y-31626046D01*
X65883085Y-31634330D01*
G37*
X65883085Y-31634330D02*
X66087461Y-31680556D01*
X66275039Y-31764023D01*
X66443329Y-31884027D01*
X66526236Y-31964776D01*
X66657971Y-32131498D01*
X66773462Y-32329627D01*
X66873275Y-32560789D01*
X66957976Y-32826612D01*
X67028131Y-33128721D01*
X67084305Y-33468742D01*
X67104125Y-33625484D01*
X67119514Y-33789253D01*
X67130967Y-33975960D01*
X67138473Y-34177058D01*
X67142017Y-34384001D01*
X67141585Y-34588244D01*
X67137163Y-34781240D01*
X67128738Y-34954445D01*
X67116295Y-35099313D01*
X67106638Y-35170650D01*
X67044208Y-35469669D01*
X66960729Y-35732020D01*
X66856148Y-35957795D01*
X66730415Y-36147085D01*
X66583479Y-36299980D01*
X66415288Y-36416572D01*
X66400866Y-36424358D01*
X66230369Y-36495214D01*
X66037167Y-36542630D01*
X65835327Y-36564139D01*
X65641050Y-36557521D01*
X65446470Y-36518934D01*
X65267866Y-36448680D01*
X65104718Y-36345845D01*
X64956504Y-36209511D01*
X64822704Y-36038765D01*
X64702795Y-35832689D01*
X64596258Y-35590370D01*
X64502570Y-35310891D01*
X64421212Y-34993336D01*
X64351661Y-34636791D01*
X64293396Y-34240339D01*
X64285410Y-34175817D01*
X64269883Y-34006352D01*
X64261382Y-33820877D01*
X64259708Y-33629772D01*
X64264664Y-33443419D01*
X64276052Y-33272196D01*
X64293675Y-33126485D01*
X64306686Y-33057704D01*
X64386875Y-32768308D01*
X64489567Y-32507712D01*
X64613392Y-32277617D01*
X64756982Y-32079727D01*
X64918968Y-31915741D01*
X65097982Y-31787361D01*
X65292655Y-31696290D01*
X65433895Y-31656409D01*
X65664399Y-31626046D01*
X65883085Y-31634330D01*
G36*
X52887291Y-34045290D02*
G01*
X52887783Y-34052859D01*
X52889740Y-34077154D01*
X52895463Y-34138763D01*
X52904486Y-34232878D01*
X52916339Y-34354691D01*
X52930555Y-34499395D01*
X52946667Y-34662184D01*
X52964206Y-34838248D01*
X52964225Y-34838444D01*
X52981493Y-35014129D01*
X52996871Y-35176228D01*
X53009950Y-35319993D01*
X53020324Y-35440678D01*
X53027583Y-35533537D01*
X53031321Y-35593824D01*
X53031130Y-35616791D01*
X53031108Y-35616814D01*
X53007960Y-35621793D01*
X52949172Y-35629904D01*
X52861256Y-35640377D01*
X52750724Y-35652445D01*
X52624090Y-35665338D01*
X52600124Y-35667684D01*
X52463713Y-35681074D01*
X52335048Y-35693926D01*
X52222612Y-35705376D01*
X52134888Y-35714559D01*
X52080359Y-35720612D01*
X52078509Y-35720834D01*
X52019034Y-35724356D01*
X51983264Y-35719171D01*
X51977967Y-35713366D01*
X51987670Y-35690757D01*
X52015256Y-35635304D01*
X52058437Y-35551383D01*
X52114927Y-35443371D01*
X52182439Y-35315644D01*
X52258686Y-35172578D01*
X52329510Y-35040595D01*
X52415843Y-34879897D01*
X52499357Y-34723880D01*
X52577010Y-34578269D01*
X52645758Y-34448788D01*
X52702561Y-34341163D01*
X52744375Y-34261118D01*
X52762858Y-34225042D01*
X52810593Y-34135192D01*
X52848847Y-34073075D01*
X52875214Y-34042002D01*
X52887291Y-34045290D01*
G37*
X52887291Y-34045290D02*
X52887783Y-34052859D01*
X52889740Y-34077154D01*
X52895463Y-34138763D01*
X52904486Y-34232878D01*
X52916339Y-34354691D01*
X52930555Y-34499395D01*
X52946667Y-34662184D01*
X52964206Y-34838248D01*
X52964225Y-34838444D01*
X52981493Y-35014129D01*
X52996871Y-35176228D01*
X53009950Y-35319993D01*
X53020324Y-35440678D01*
X53027583Y-35533537D01*
X53031321Y-35593824D01*
X53031130Y-35616791D01*
X53031108Y-35616814D01*
X53007960Y-35621793D01*
X52949172Y-35629904D01*
X52861256Y-35640377D01*
X52750724Y-35652445D01*
X52624090Y-35665338D01*
X52600124Y-35667684D01*
X52463713Y-35681074D01*
X52335048Y-35693926D01*
X52222612Y-35705376D01*
X52134888Y-35714559D01*
X52080359Y-35720612D01*
X52078509Y-35720834D01*
X52019034Y-35724356D01*
X51983264Y-35719171D01*
X51977967Y-35713366D01*
X51987670Y-35690757D01*
X52015256Y-35635304D01*
X52058437Y-35551383D01*
X52114927Y-35443371D01*
X52182439Y-35315644D01*
X52258686Y-35172578D01*
X52329510Y-35040595D01*
X52415843Y-34879897D01*
X52499357Y-34723880D01*
X52577010Y-34578269D01*
X52645758Y-34448788D01*
X52702561Y-34341163D01*
X52744375Y-34261118D01*
X52762858Y-34225042D01*
X52810593Y-34135192D01*
X52848847Y-34073075D01*
X52875214Y-34042002D01*
X52887291Y-34045290D01*
G36*
X35813529Y-33128104D02*
G01*
X42420911Y-33128104D01*
X42424575Y-33206795D01*
X42432065Y-33310439D01*
X42443487Y-33445646D01*
X42452256Y-33544488D01*
X42462862Y-33665668D01*
X42476199Y-33822350D01*
X42491716Y-34007832D01*
X42508862Y-34215411D01*
X42527087Y-34438383D01*
X42545838Y-34670046D01*
X42564566Y-34903696D01*
X42580556Y-35105203D01*
X42598732Y-35333832D01*
X42617376Y-35565338D01*
X42635946Y-35793188D01*
X42653900Y-36010851D01*
X42670695Y-36211793D01*
X42685791Y-36389482D01*
X42698645Y-36537386D01*
X42707863Y-36639787D01*
X42719069Y-36777430D01*
X42730514Y-36947739D01*
X42741693Y-37141056D01*
X42752096Y-37347719D01*
X42761217Y-37558070D01*
X42768549Y-37762447D01*
X42770791Y-37837650D01*
X42782055Y-38226906D01*
X42792970Y-38575160D01*
X42803527Y-38882237D01*
X42813719Y-39147964D01*
X42823540Y-39372166D01*
X42832981Y-39554671D01*
X42842035Y-39695304D01*
X42850695Y-39793891D01*
X42856049Y-39834977D01*
X42904857Y-40010832D01*
X42989112Y-40164761D01*
X43106375Y-40293723D01*
X43254204Y-40394679D01*
X43335457Y-40432359D01*
X43445490Y-40460790D01*
X43578627Y-40471243D01*
X43719963Y-40464373D01*
X43854589Y-40440836D01*
X43959959Y-40404908D01*
X44095969Y-40321348D01*
X44217040Y-40207244D01*
X44311493Y-40074257D01*
X44332828Y-40032559D01*
X44351655Y-39988701D01*
X44366491Y-39943614D01*
X44377477Y-39892585D01*
X44384752Y-39830903D01*
X44388456Y-39753854D01*
X44388729Y-39656726D01*
X44385711Y-39534807D01*
X44379542Y-39383385D01*
X44370362Y-39197747D01*
X44362178Y-39044150D01*
X44355357Y-38912285D01*
X44348227Y-38763679D01*
X44340996Y-38603789D01*
X44333872Y-38438070D01*
X44327064Y-38271980D01*
X44320779Y-38110974D01*
X44315227Y-37960511D01*
X44310616Y-37826045D01*
X44307155Y-37713034D01*
X44305050Y-37626934D01*
X44304512Y-37573201D01*
X44305383Y-37557125D01*
X44326572Y-37549172D01*
X44384148Y-37531085D01*
X44473722Y-37504115D01*
X44590906Y-37469514D01*
X44731313Y-37428532D01*
X44890556Y-37382421D01*
X45064245Y-37332432D01*
X45247993Y-37279815D01*
X45437414Y-37225822D01*
X45628118Y-37171704D01*
X45815718Y-37118712D01*
X45995827Y-37068096D01*
X46164056Y-37021108D01*
X46316018Y-36978999D01*
X46447325Y-36943021D01*
X46553590Y-36914423D01*
X46622800Y-36896382D01*
X46774953Y-36858669D01*
X46931809Y-36821385D01*
X47087805Y-36785695D01*
X47237378Y-36752764D01*
X47374964Y-36723761D01*
X47495000Y-36699849D01*
X47591924Y-36682195D01*
X47660171Y-36671965D01*
X47694179Y-36670325D01*
X47696617Y-36671328D01*
X47704630Y-36696960D01*
X47712971Y-36750071D01*
X47716559Y-36783563D01*
X47736978Y-36987231D01*
X47764399Y-37229198D01*
X47798411Y-37506083D01*
X47838604Y-37814506D01*
X47871923Y-38059900D01*
X47895444Y-38231553D01*
X47918867Y-38404471D01*
X47941025Y-38569877D01*
X47960747Y-38718995D01*
X47976864Y-38843050D01*
X47987516Y-38927604D01*
X48002066Y-39036448D01*
X48017647Y-39136704D01*
X48032383Y-39217165D01*
X48044279Y-39266271D01*
X48113738Y-39412597D01*
X48216454Y-39538554D01*
X48346905Y-39640752D01*
X48499566Y-39715800D01*
X48668917Y-39760309D01*
X48849434Y-39770889D01*
X48865087Y-39770117D01*
X49044060Y-39740183D01*
X49205971Y-39674401D01*
X49346393Y-39576496D01*
X49460897Y-39450192D01*
X49545053Y-39299213D01*
X49587708Y-39162443D01*
X49595471Y-39115056D01*
X49599259Y-39059772D01*
X49598626Y-38992592D01*
X49593125Y-38909518D01*
X49582312Y-38806551D01*
X49565740Y-38679693D01*
X49542963Y-38524946D01*
X49513535Y-38338312D01*
X49477010Y-38115792D01*
X49458827Y-38006984D01*
X49419540Y-37771529D01*
X49385841Y-37565232D01*
X49357079Y-37381888D01*
X49332600Y-37215294D01*
X49311753Y-37059245D01*
X49293884Y-36907538D01*
X49278342Y-36753968D01*
X49272534Y-36686280D01*
X49663677Y-36686280D01*
X49672059Y-36764796D01*
X49715370Y-36906736D01*
X49796078Y-37029691D01*
X49913488Y-37133144D01*
X50066905Y-37216576D01*
X50255633Y-37279471D01*
X50405496Y-37310528D01*
X50508169Y-37323841D01*
X50626796Y-37332143D01*
X50764495Y-37335293D01*
X50924384Y-37333154D01*
X51109580Y-37325587D01*
X51323203Y-37312453D01*
X51568371Y-37293613D01*
X51848200Y-37268928D01*
X52165810Y-37238259D01*
X52274300Y-37227325D01*
X52464836Y-37208363D01*
X52642144Y-37191509D01*
X52801841Y-37177120D01*
X52939542Y-37165555D01*
X53050864Y-37157173D01*
X53131422Y-37152333D01*
X53176833Y-37151392D01*
X53185353Y-37152794D01*
X53190268Y-37177462D01*
X53198499Y-37238812D01*
X53209430Y-37331375D01*
X53222444Y-37449684D01*
X53236924Y-37588269D01*
X53252254Y-37741663D01*
X53255395Y-37773916D01*
X53271826Y-37936292D01*
X53288766Y-38090944D01*
X53305372Y-38231091D01*
X53320803Y-38349955D01*
X53334217Y-38440754D01*
X53344773Y-38496707D01*
X53345465Y-38499463D01*
X53412099Y-38696303D01*
X53501193Y-38857925D01*
X53613864Y-38985669D01*
X53751229Y-39080876D01*
X53872384Y-39132150D01*
X53962592Y-39149777D01*
X54078577Y-39155312D01*
X54205793Y-39149557D01*
X54329694Y-39133315D01*
X54435736Y-39107387D01*
X54456624Y-39099925D01*
X54592168Y-39025844D01*
X54709945Y-38919253D01*
X54803619Y-38788402D01*
X54866850Y-38641542D01*
X54889223Y-38536758D01*
X54891741Y-38477151D01*
X54889686Y-38380850D01*
X54883441Y-38253201D01*
X54873391Y-38099552D01*
X54859920Y-37925251D01*
X54843411Y-37735645D01*
X54824248Y-37536081D01*
X54802816Y-37331906D01*
X54802568Y-37329650D01*
X54788349Y-37201603D01*
X54778994Y-37109543D01*
X54775705Y-37047282D01*
X54779683Y-37008633D01*
X54792129Y-36987407D01*
X54814245Y-36977418D01*
X54847232Y-36972477D01*
X54872509Y-36969393D01*
X55107194Y-36924200D01*
X55306595Y-36857018D01*
X55470418Y-36768080D01*
X55598369Y-36657621D01*
X55690155Y-36525875D01*
X55745481Y-36373076D01*
X55761888Y-36260727D01*
X55757690Y-36092204D01*
X55722909Y-35931917D01*
X55660761Y-35787667D01*
X55574460Y-35667257D01*
X55485514Y-35590149D01*
X55407078Y-35545792D01*
X55317611Y-35513151D01*
X55209651Y-35490745D01*
X55075735Y-35477096D01*
X54908401Y-35470726D01*
X54880893Y-35470318D01*
X54613217Y-35466984D01*
X54439830Y-33731317D01*
X54412772Y-33461923D01*
X54386460Y-33202781D01*
X54361251Y-32957255D01*
X54337505Y-32728708D01*
X54315580Y-32520507D01*
X54295835Y-32336015D01*
X54278627Y-32178596D01*
X54264315Y-32051616D01*
X54258930Y-32006234D01*
X55565830Y-32006234D01*
X55568100Y-32104730D01*
X55576877Y-32177324D01*
X55595338Y-32240313D01*
X55623940Y-32304474D01*
X55698325Y-32422836D01*
X55806730Y-32541746D01*
X55952171Y-32664284D01*
X56037516Y-32726337D01*
X56074301Y-32756272D01*
X56136345Y-32811805D01*
X56220747Y-32890071D01*
X56324604Y-32988205D01*
X56445014Y-33103342D01*
X56579074Y-33232617D01*
X56723882Y-33373165D01*
X56876535Y-33522122D01*
X57034132Y-33676622D01*
X57193770Y-33833801D01*
X57352546Y-33990793D01*
X57507558Y-34144735D01*
X57655904Y-34292760D01*
X57794682Y-34432004D01*
X57920989Y-34559603D01*
X58031922Y-34672690D01*
X58124580Y-34768403D01*
X58196060Y-34843875D01*
X58243460Y-34896241D01*
X58263877Y-34922637D01*
X58264467Y-34924531D01*
X58252023Y-34948149D01*
X58216164Y-35002489D01*
X58159095Y-35084574D01*
X58083023Y-35191429D01*
X57990154Y-35320076D01*
X57882693Y-35467538D01*
X57762849Y-35630840D01*
X57632826Y-35807003D01*
X57494831Y-35993053D01*
X57351071Y-36186012D01*
X57203752Y-36382903D01*
X57055079Y-36580750D01*
X56907260Y-36776576D01*
X56762500Y-36967404D01*
X56623006Y-37150259D01*
X56490985Y-37322162D01*
X56403345Y-37435484D01*
X56304374Y-37564792D01*
X56210556Y-37690668D01*
X56126168Y-37807118D01*
X56055488Y-37908147D01*
X56002792Y-37987761D01*
X55973191Y-38038288D01*
X55936939Y-38116048D01*
X55916127Y-38180827D01*
X55906645Y-38250984D01*
X55904384Y-38344877D01*
X55904384Y-38345650D01*
X55906665Y-38440186D01*
X55916301Y-38511266D01*
X55937482Y-38577647D01*
X55973953Y-38657189D01*
X56067851Y-38802260D01*
X56193586Y-38927630D01*
X56342681Y-39026523D01*
X56506659Y-39092158D01*
X56523422Y-39096599D01*
X56650499Y-39112771D01*
X56793860Y-39105492D01*
X56935970Y-39076779D01*
X57043017Y-39036866D01*
X57119732Y-38996653D01*
X57187717Y-38952245D01*
X57253268Y-38897699D01*
X57322683Y-38827073D01*
X57402258Y-38734424D01*
X57498290Y-38613808D01*
X57517501Y-38589067D01*
X57565611Y-38526402D01*
X57634319Y-38436134D01*
X57720890Y-38321906D01*
X57822590Y-38187360D01*
X57936685Y-38036137D01*
X58060440Y-37871880D01*
X58191121Y-37698232D01*
X58325992Y-37518833D01*
X58462320Y-37337328D01*
X58597370Y-37157357D01*
X58728407Y-36982562D01*
X58852697Y-36816587D01*
X58967505Y-36663073D01*
X59070097Y-36525662D01*
X59157739Y-36407997D01*
X59227695Y-36313719D01*
X59277231Y-36246471D01*
X59301363Y-36213109D01*
X59341419Y-36159311D01*
X59372189Y-36123392D01*
X59384597Y-36113979D01*
X59403269Y-36130092D01*
X59445914Y-36174542D01*
X59509092Y-36243405D01*
X59589365Y-36332755D01*
X59683296Y-36438670D01*
X59787445Y-36557224D01*
X59898374Y-36684493D01*
X60012645Y-36816553D01*
X60126820Y-36949479D01*
X60237460Y-37079347D01*
X60341127Y-37202232D01*
X60403334Y-37276734D01*
X60561932Y-37466614D01*
X60698220Y-37627381D01*
X60816016Y-37763226D01*
X60919141Y-37878338D01*
X61011417Y-37976911D01*
X61096662Y-38063135D01*
X61178698Y-38141201D01*
X61248967Y-38204457D01*
X61440545Y-38362477D01*
X61615743Y-38484401D01*
X61777637Y-38571731D01*
X61929302Y-38625969D01*
X62073814Y-38648618D01*
X62156608Y-38647798D01*
X62320403Y-38616296D01*
X62471780Y-38549633D01*
X62606318Y-38453263D01*
X62719595Y-38332642D01*
X62807186Y-38193225D01*
X62864672Y-38040465D01*
X62887628Y-37879820D01*
X62879340Y-37756298D01*
X62861571Y-37672074D01*
X62834755Y-37594754D01*
X62794859Y-37518450D01*
X62737849Y-37437274D01*
X62659692Y-37345338D01*
X62556356Y-37236754D01*
X62453483Y-37134564D01*
X62341566Y-37023406D01*
X62212035Y-36891984D01*
X62075682Y-36751421D01*
X61943301Y-36612840D01*
X61831434Y-36493567D01*
X61737397Y-36391290D01*
X61629694Y-36272738D01*
X61511343Y-36141352D01*
X61385366Y-36000574D01*
X61254783Y-35853846D01*
X61122616Y-35704609D01*
X60991883Y-35556305D01*
X60865607Y-35412376D01*
X60746806Y-35276264D01*
X60638503Y-35151411D01*
X60543717Y-35041257D01*
X60465469Y-34949246D01*
X60406779Y-34878819D01*
X60370669Y-34833418D01*
X60359967Y-34816877D01*
X60370779Y-34794123D01*
X60401235Y-34740536D01*
X60448363Y-34661070D01*
X60509193Y-34560679D01*
X60580753Y-34444317D01*
X60653526Y-34327395D01*
X60753130Y-34166883D01*
X60863642Y-33986510D01*
X60977221Y-33799223D01*
X61005139Y-33752715D01*
X62693202Y-33752715D01*
X62711763Y-34159994D01*
X62760399Y-34590927D01*
X62825831Y-34981203D01*
X62924644Y-35423555D01*
X63046207Y-35834062D01*
X63190007Y-36212086D01*
X63355530Y-36556985D01*
X63542261Y-36868119D01*
X63749687Y-37144847D01*
X63977293Y-37386528D01*
X64224566Y-37592521D01*
X64490992Y-37762187D01*
X64776057Y-37894883D01*
X65079247Y-37989970D01*
X65270634Y-38028865D01*
X65384807Y-38041746D01*
X65529705Y-38049351D01*
X65694075Y-38051877D01*
X65866661Y-38049518D01*
X66036211Y-38042472D01*
X66191471Y-38030932D01*
X66321187Y-38015095D01*
X66350418Y-38010099D01*
X66690128Y-37929165D01*
X67006642Y-37816847D01*
X67297630Y-37674339D01*
X67560766Y-37502833D01*
X67793719Y-37303519D01*
X67856933Y-37238947D01*
X68056389Y-36998494D01*
X68229467Y-36729430D01*
X68376737Y-36430435D01*
X68498763Y-36100189D01*
X68596115Y-35737371D01*
X68667612Y-35352377D01*
X68696285Y-35110379D01*
X68715442Y-34836631D01*
X68725255Y-34540596D01*
X68725896Y-34231734D01*
X68717539Y-33919506D01*
X68700357Y-33613373D01*
X68674521Y-33322794D01*
X68640206Y-33057232D01*
X68623895Y-32958734D01*
X68539072Y-32575733D01*
X68425391Y-32212837D01*
X68284498Y-31872113D01*
X68118036Y-31555632D01*
X67927649Y-31265463D01*
X67714981Y-31003674D01*
X67481677Y-30772336D01*
X67391896Y-30701585D01*
X68823691Y-30701585D01*
X68824208Y-30785882D01*
X68827890Y-30887001D01*
X68834822Y-31007566D01*
X68845088Y-31150201D01*
X68858771Y-31317529D01*
X68875954Y-31512176D01*
X68896721Y-31736764D01*
X68921157Y-31993919D01*
X68949344Y-32286264D01*
X68981366Y-32616423D01*
X69004311Y-32852900D01*
X69034824Y-33168418D01*
X69065564Y-33487857D01*
X69096097Y-33806624D01*
X69125990Y-34120125D01*
X69154810Y-34423766D01*
X69182121Y-34712952D01*
X69207491Y-34983091D01*
X69230485Y-35229588D01*
X69250670Y-35447850D01*
X69267612Y-35633282D01*
X69280877Y-35781292D01*
X69281159Y-35784484D01*
X69303983Y-36042408D01*
X69323619Y-36261769D01*
X69340493Y-36446181D01*
X69355034Y-36599257D01*
X69367670Y-36724613D01*
X69378828Y-36825864D01*
X69388937Y-36906623D01*
X69398424Y-36970505D01*
X69407718Y-37021125D01*
X69417245Y-37062097D01*
X69427435Y-37097037D01*
X69438715Y-37129557D01*
X69441179Y-37136195D01*
X69516114Y-37278444D01*
X69625323Y-37404188D01*
X69762017Y-37507224D01*
X69919410Y-37581348D01*
X69933355Y-37586060D01*
X70044634Y-37607624D01*
X70177936Y-37610751D01*
X70317779Y-37596637D01*
X70448678Y-37566476D01*
X70516891Y-37540993D01*
X70643352Y-37465619D01*
X70760294Y-37361645D01*
X70856777Y-37240546D01*
X70920339Y-37117921D01*
X70938148Y-37064164D01*
X70951061Y-37007713D01*
X70958889Y-36943877D01*
X70961444Y-36867962D01*
X70958536Y-36775275D01*
X70949978Y-36661124D01*
X70935581Y-36520816D01*
X70915156Y-36349658D01*
X70888514Y-36142957D01*
X70877972Y-36063488D01*
X70856899Y-35902193D01*
X70838453Y-35754618D01*
X70823213Y-35625923D01*
X70811759Y-35521269D01*
X70804669Y-35445818D01*
X70802523Y-35404731D01*
X70803377Y-35398767D01*
X70829709Y-35397854D01*
X70889981Y-35408542D01*
X70977943Y-35429141D01*
X71087342Y-35457958D01*
X71211926Y-35493303D01*
X71345445Y-35533484D01*
X71481646Y-35576810D01*
X71567717Y-35605538D01*
X71930997Y-35738788D01*
X72282348Y-35887820D01*
X72628163Y-36056071D01*
X72974836Y-36246978D01*
X73328760Y-36463978D01*
X73696328Y-36710509D01*
X73922575Y-36871489D01*
X74097513Y-36981285D01*
X74265454Y-37050505D01*
X74429739Y-37079627D01*
X74593707Y-37069128D01*
X74760697Y-37019484D01*
X74809369Y-36998206D01*
X74914819Y-36932923D01*
X75020943Y-36839684D01*
X75115626Y-36730888D01*
X75186751Y-36618934D01*
X75193503Y-36605078D01*
X75222443Y-36536999D01*
X75239640Y-36475010D01*
X75247879Y-36403674D01*
X75249946Y-36307551D01*
X75249907Y-36292484D01*
X75247749Y-36193640D01*
X75240261Y-36121841D01*
X75224424Y-36061859D01*
X75197219Y-35998468D01*
X75187829Y-35979387D01*
X75115749Y-35866999D01*
X75006943Y-35742280D01*
X74864429Y-35607472D01*
X74691227Y-35464819D01*
X74490354Y-35316566D01*
X74264829Y-35164955D01*
X74017671Y-35012232D01*
X73751899Y-34860638D01*
X73511212Y-34733120D01*
X73403032Y-34677186D01*
X73308855Y-34627412D01*
X73234806Y-34587125D01*
X73187013Y-34559651D01*
X73171532Y-34548700D01*
X73185961Y-34532488D01*
X73228514Y-34501843D01*
X73290391Y-34463036D01*
X73298532Y-34458225D01*
X73537285Y-34302062D01*
X73759080Y-34125487D01*
X73959275Y-33933561D01*
X74133228Y-33731343D01*
X74276296Y-33523896D01*
X74383835Y-33316280D01*
X74412354Y-33244146D01*
X74467082Y-33073672D01*
X74500958Y-32915698D01*
X74516376Y-32753599D01*
X74515727Y-32570749D01*
X74514191Y-32536416D01*
X74478661Y-32234802D01*
X74402746Y-31945205D01*
X74286752Y-31667965D01*
X74130985Y-31403421D01*
X73935752Y-31151912D01*
X73701358Y-30913777D01*
X73428109Y-30689356D01*
X73116312Y-30478987D01*
X72766271Y-30283011D01*
X72378294Y-30101766D01*
X72281839Y-30061426D01*
X72128377Y-30000078D01*
X71989650Y-29948776D01*
X71859877Y-29906677D01*
X71733278Y-29872938D01*
X71604074Y-29846714D01*
X71466483Y-29827163D01*
X71314727Y-29813441D01*
X71143023Y-29804704D01*
X70945593Y-29800110D01*
X70716656Y-29798815D01*
X70488217Y-29799709D01*
X70290232Y-29801631D01*
X70105187Y-29804573D01*
X69938148Y-29808382D01*
X69794182Y-29812904D01*
X69678354Y-29817984D01*
X69595730Y-29823469D01*
X69556884Y-29828055D01*
X69372152Y-29881471D01*
X69210178Y-29970422D01*
X69072000Y-30094103D01*
X68958659Y-30251710D01*
X68923500Y-30317899D01*
X68901700Y-30362089D01*
X68882396Y-30402109D01*
X68865672Y-30440581D01*
X68851613Y-30480131D01*
X68840302Y-30523383D01*
X68831822Y-30572959D01*
X68826257Y-30631485D01*
X68823691Y-30701585D01*
X67391896Y-30701585D01*
X67229380Y-30573517D01*
X66959733Y-30409287D01*
X66674383Y-30281714D01*
X66438553Y-30208115D01*
X66135411Y-30150987D01*
X65817515Y-30128316D01*
X65493102Y-30139213D01*
X65170408Y-30182791D01*
X64857673Y-30258162D01*
X64563131Y-30364438D01*
X64434718Y-30424111D01*
X64148451Y-30591352D01*
X63883800Y-30794388D01*
X63641682Y-31032085D01*
X63423017Y-31303310D01*
X63228722Y-31606928D01*
X63059716Y-31941806D01*
X62922154Y-32291531D01*
X62819190Y-32638499D01*
X62746792Y-32995398D01*
X62704837Y-33365660D01*
X62693202Y-33752715D01*
X61005139Y-33752715D01*
X61086027Y-33617971D01*
X61182219Y-33455700D01*
X61206766Y-33413817D01*
X61549130Y-32848857D01*
X61894274Y-32321051D01*
X62031660Y-32122469D01*
X62124581Y-31988702D01*
X62195042Y-31881740D01*
X62246080Y-31794593D01*
X62280736Y-31720274D01*
X62302048Y-31651794D01*
X62313055Y-31582166D01*
X62316795Y-31504402D01*
X62316925Y-31466484D01*
X62314917Y-31369238D01*
X62307838Y-31299059D01*
X62292495Y-31240722D01*
X62265692Y-31179004D01*
X62250145Y-31148208D01*
X62150163Y-30999860D01*
X62016440Y-30874508D01*
X61852879Y-30775789D01*
X61847528Y-30773265D01*
X61695542Y-30721025D01*
X61540577Y-30702303D01*
X61392402Y-30717393D01*
X61280717Y-30756225D01*
X61188680Y-30814673D01*
X61079598Y-30907037D01*
X60956393Y-31029901D01*
X60821987Y-31179852D01*
X60679301Y-31353476D01*
X60531258Y-31547359D01*
X60380779Y-31758088D01*
X60230786Y-31982248D01*
X60228962Y-31985067D01*
X60180908Y-32060430D01*
X60114618Y-32166002D01*
X60033802Y-32295792D01*
X59942169Y-32443809D01*
X59843431Y-32604060D01*
X59741296Y-32770554D01*
X59650175Y-32919740D01*
X59228894Y-33610996D01*
X58794306Y-33192128D01*
X58587524Y-32991833D01*
X58405507Y-32813213D01*
X58241616Y-32649554D01*
X58089212Y-32494142D01*
X57941655Y-32340264D01*
X57792307Y-32181207D01*
X57757591Y-32143817D01*
X57547813Y-31929559D01*
X57337963Y-31738546D01*
X57131651Y-31573364D01*
X56932488Y-31436601D01*
X56744082Y-31330844D01*
X56570046Y-31258678D01*
X56491198Y-31236385D01*
X56325053Y-31218375D01*
X56161686Y-31239781D01*
X56006489Y-31297766D01*
X55864857Y-31389494D01*
X55742184Y-31512129D01*
X55643862Y-31662833D01*
X55631049Y-31688734D01*
X55597299Y-31765519D01*
X55577565Y-31830797D01*
X55568269Y-31901982D01*
X55565835Y-31996490D01*
X55565830Y-32006234D01*
X54258930Y-32006234D01*
X54253258Y-31958439D01*
X54245815Y-31902429D01*
X54243648Y-31889817D01*
X54188396Y-31729591D01*
X54097164Y-31590357D01*
X53971893Y-31474287D01*
X53814522Y-31383550D01*
X53777134Y-31367740D01*
X53650154Y-31333443D01*
X53498612Y-31318456D01*
X53335508Y-31322574D01*
X53173846Y-31345593D01*
X53049209Y-31379203D01*
X52841344Y-31466712D01*
X52664207Y-31578212D01*
X52510480Y-31719131D01*
X52392718Y-31866148D01*
X52361021Y-31914526D01*
X52309681Y-31997415D01*
X52240022Y-32112554D01*
X52153368Y-32257677D01*
X52051044Y-32430521D01*
X51934375Y-32628822D01*
X51804683Y-32850317D01*
X51663295Y-33092742D01*
X51511533Y-33353833D01*
X51350723Y-33631327D01*
X51182189Y-33922959D01*
X51007255Y-34226467D01*
X50827245Y-34539585D01*
X50753869Y-34667449D01*
X50603222Y-34927733D01*
X50463280Y-35164753D01*
X50335818Y-35375609D01*
X50222612Y-35557403D01*
X50125437Y-35707234D01*
X50050276Y-35816370D01*
X49919435Y-36005851D01*
X49817678Y-36171213D01*
X49743113Y-36317197D01*
X49693852Y-36448543D01*
X49668003Y-36569991D01*
X49663677Y-36686280D01*
X49272534Y-36686280D01*
X49264472Y-36592332D01*
X49251625Y-36416426D01*
X49239145Y-36220045D01*
X49226382Y-35996986D01*
X49212682Y-35741045D01*
X49205027Y-35593984D01*
X49194197Y-35389744D01*
X49182626Y-35180398D01*
X49170796Y-34974054D01*
X49159187Y-34778819D01*
X49148279Y-34602799D01*
X49138553Y-34454104D01*
X49131611Y-34355734D01*
X49119601Y-34168481D01*
X49109758Y-33963174D01*
X49102197Y-33747735D01*
X49097037Y-33530092D01*
X49094393Y-33318168D01*
X49094383Y-33119890D01*
X49097123Y-32943181D01*
X49102730Y-32795968D01*
X49107573Y-32724462D01*
X49115409Y-32615911D01*
X49116989Y-32537029D01*
X49111661Y-32475525D01*
X49098773Y-32419107D01*
X49089853Y-32390653D01*
X49020098Y-32245265D01*
X48916829Y-32118134D01*
X48786539Y-32013680D01*
X48635722Y-31936322D01*
X48470871Y-31890481D01*
X48338750Y-31879440D01*
X48194521Y-31900426D01*
X48055758Y-31961136D01*
X47928052Y-32058958D01*
X47905180Y-32081857D01*
X47818679Y-32192435D01*
X47734907Y-32338025D01*
X47656930Y-32511304D01*
X47587817Y-32704954D01*
X47530637Y-32911652D01*
X47502739Y-33042011D01*
X47493170Y-33094239D01*
X47485138Y-33144385D01*
X47478738Y-33195637D01*
X47474064Y-33251181D01*
X47471211Y-33314206D01*
X47470272Y-33387898D01*
X47471344Y-33475447D01*
X47474519Y-33580038D01*
X47479892Y-33704860D01*
X47487558Y-33853099D01*
X47497612Y-34027945D01*
X47510147Y-34232583D01*
X47525258Y-34470202D01*
X47543039Y-34743989D01*
X47561492Y-35025296D01*
X47570027Y-35155109D01*
X47408622Y-35180379D01*
X47228459Y-35211093D01*
X47032949Y-35249426D01*
X46818886Y-35296182D01*
X46583065Y-35352167D01*
X46322279Y-35418184D01*
X46033324Y-35495037D01*
X45712994Y-35583532D01*
X45358082Y-35684473D01*
X45089011Y-35762483D01*
X44900465Y-35817409D01*
X44724399Y-35868495D01*
X44564979Y-35914548D01*
X44426369Y-35954375D01*
X44312732Y-35986782D01*
X44228234Y-36010576D01*
X44177038Y-36024563D01*
X44162970Y-36027900D01*
X44157202Y-36007944D01*
X44152276Y-35952913D01*
X44148568Y-35870064D01*
X44146460Y-35766651D01*
X44146119Y-35705109D01*
X44144555Y-35567145D01*
X44140406Y-35420254D01*
X44134276Y-35280665D01*
X44126768Y-35164608D01*
X44125494Y-35149484D01*
X44118536Y-35065652D01*
X44109327Y-34947839D01*
X44098482Y-34804299D01*
X44086617Y-34643287D01*
X44074347Y-34473058D01*
X44062355Y-34302817D01*
X44043090Y-34026406D01*
X44026357Y-33788885D01*
X44011776Y-33586910D01*
X43998970Y-33417138D01*
X43987561Y-33276225D01*
X43977170Y-33160827D01*
X43967421Y-33067600D01*
X43957934Y-32993202D01*
X43948331Y-32934288D01*
X43938236Y-32887516D01*
X43927268Y-32849540D01*
X43915052Y-32817019D01*
X43901208Y-32786607D01*
X43887922Y-32760006D01*
X43849531Y-32699762D01*
X43793548Y-32629210D01*
X43747497Y-32579413D01*
X43612424Y-32471918D01*
X43463543Y-32400231D01*
X43306401Y-32362860D01*
X43146543Y-32358312D01*
X42989513Y-32385094D01*
X42840856Y-32441716D01*
X42706118Y-32526683D01*
X42590844Y-32638504D01*
X42500578Y-32775687D01*
X42442395Y-32930655D01*
X42431816Y-32975642D01*
X42424638Y-33019139D01*
X42420967Y-33067756D01*
X42420911Y-33128104D01*
X35813529Y-33128104D01*
X36090268Y-32859755D01*
X36484729Y-32477308D01*
X36870792Y-32103062D01*
X37247350Y-31738090D01*
X37613295Y-31383467D01*
X37967523Y-31040266D01*
X38308926Y-30709561D01*
X38636397Y-30392426D01*
X38948830Y-30089935D01*
X39245118Y-29803162D01*
X39524154Y-29533180D01*
X39784833Y-29281064D01*
X40026047Y-29047886D01*
X40246690Y-28834722D01*
X40445655Y-28642645D01*
X40621835Y-28472728D01*
X40774125Y-28326047D01*
X40901416Y-28203673D01*
X41002603Y-28106682D01*
X41076580Y-28036147D01*
X41122239Y-27993143D01*
X41137906Y-27979074D01*
X41251949Y-27905358D01*
X41387464Y-27834299D01*
X41526956Y-27774204D01*
X41652931Y-27733379D01*
X41657987Y-27732131D01*
X41692273Y-27725344D01*
X41766729Y-27711796D01*
X41879777Y-27691757D01*
X42029841Y-27665491D01*
X42215345Y-27633267D01*
X42434710Y-27595350D01*
X42686362Y-27552008D01*
X42968722Y-27503508D01*
X43280214Y-27450116D01*
X43619262Y-27392099D01*
X43984289Y-27329725D01*
X44373717Y-27263259D01*
X44785970Y-27192969D01*
X45219472Y-27119122D01*
X45672646Y-27041984D01*
X46143914Y-26961823D01*
X46631701Y-26878905D01*
X47134428Y-26793496D01*
X47650521Y-26705865D01*
X48178401Y-26616277D01*
X48716492Y-26525000D01*
X49263218Y-26432300D01*
X49817001Y-26338444D01*
X50376266Y-26243700D01*
X50939434Y-26148333D01*
X51504930Y-26052611D01*
X52071176Y-25956800D01*
X52636596Y-25861168D01*
X53199613Y-25765981D01*
X53758650Y-25671506D01*
X54312132Y-25578010D01*
X54858479Y-25485760D01*
X55396117Y-25395023D01*
X55923469Y-25306065D01*
X56438956Y-25219153D01*
X56941004Y-25134554D01*
X57428035Y-25052536D01*
X57898472Y-24973364D01*
X58350738Y-24897306D01*
X58783258Y-24824628D01*
X59194453Y-24755598D01*
X59582748Y-24690482D01*
X59946565Y-24629546D01*
X60284328Y-24573059D01*
X60594460Y-24521286D01*
X60875385Y-24474495D01*
X61125525Y-24432953D01*
X61343303Y-24396925D01*
X61527144Y-24366680D01*
X61675470Y-24342483D01*
X61786705Y-24324603D01*
X61859271Y-24313305D01*
X61862800Y-24312776D01*
X61966598Y-24297139D01*
X62110104Y-24275272D01*
X62291205Y-24247502D01*
X62507788Y-24214160D01*
X62757738Y-24175573D01*
X63038943Y-24132070D01*
X63349288Y-24083980D01*
X63686660Y-24031631D01*
X64048945Y-23975352D01*
X64434030Y-23915472D01*
X64839801Y-23852319D01*
X65264144Y-23786221D01*
X65704946Y-23717508D01*
X66160094Y-23646508D01*
X66627474Y-23573550D01*
X67104971Y-23498961D01*
X67590473Y-23423072D01*
X68081866Y-23346210D01*
X68413884Y-23294247D01*
X68933105Y-23212967D01*
X69460923Y-23130342D01*
X69994375Y-23046836D01*
X70530496Y-22962913D01*
X71066321Y-22879037D01*
X71598886Y-22795672D01*
X72125225Y-22713282D01*
X72642376Y-22632331D01*
X73147373Y-22553284D01*
X73637251Y-22476603D01*
X74109046Y-22402754D01*
X74559794Y-22332199D01*
X74986530Y-22265405D01*
X75386289Y-22202833D01*
X75756108Y-22144949D01*
X76093021Y-22092216D01*
X76394064Y-22045099D01*
X76656272Y-22004061D01*
X76658300Y-22003744D01*
X77056904Y-21941378D01*
X77415760Y-21885254D01*
X77736935Y-21835023D01*
X78022498Y-21790338D01*
X78274517Y-21750851D01*
X78495062Y-21716214D01*
X78686201Y-21686081D01*
X78850002Y-21660103D01*
X78988534Y-21637933D01*
X79103866Y-21619222D01*
X79198065Y-21603625D01*
X79273200Y-21590792D01*
X79331341Y-21580376D01*
X79374555Y-21572030D01*
X79404912Y-21565406D01*
X79424478Y-21560156D01*
X79435324Y-21555932D01*
X79439518Y-21552388D01*
X79439128Y-21549175D01*
X79436223Y-21545947D01*
X79432871Y-21542354D01*
X79431141Y-21538050D01*
X79431134Y-21537755D01*
X79438188Y-21503407D01*
X79456426Y-21444275D01*
X79475079Y-21391700D01*
X79539123Y-21271330D01*
X79634316Y-21157439D01*
X79749754Y-21061361D01*
X79845431Y-21006719D01*
X79908721Y-20983866D01*
X80005800Y-20956407D01*
X80128590Y-20925976D01*
X80269009Y-20894203D01*
X80418975Y-20862722D01*
X80570410Y-20833163D01*
X80715231Y-20807160D01*
X80845358Y-20786344D01*
X80952710Y-20772347D01*
X81029207Y-20766802D01*
X81033467Y-20766772D01*
X81240086Y-20784353D01*
X81428567Y-20836198D01*
X81594810Y-20920775D01*
X81723105Y-21024689D01*
X81781056Y-21079513D01*
X81820183Y-21106863D01*
X81848963Y-21111625D01*
X81864200Y-21105989D01*
X81883002Y-21088959D01*
X81930037Y-21043363D01*
X82003775Y-20970734D01*
X82102685Y-20872609D01*
X82225234Y-20750524D01*
X82369894Y-20606012D01*
X82535131Y-20440611D01*
X82719415Y-20255855D01*
X82921216Y-20053280D01*
X83139001Y-19834421D01*
X83371240Y-19600814D01*
X83616402Y-19353994D01*
X83872956Y-19095496D01*
X84139370Y-18826857D01*
X84414113Y-18549610D01*
X84524767Y-18437891D01*
X84872713Y-18086406D01*
X85191763Y-17763813D01*
X85482941Y-17469058D01*
X85747274Y-17201085D01*
X85985785Y-16958841D01*
X86199501Y-16741270D01*
X86389446Y-16547317D01*
X86556646Y-16375929D01*
X86702125Y-16226049D01*
X86826908Y-16096623D01*
X86932022Y-15986597D01*
X87018490Y-15894916D01*
X87087338Y-15820525D01*
X87139591Y-15762369D01*
X87176275Y-15719394D01*
X87198413Y-15690544D01*
X87204676Y-15680478D01*
X87229173Y-15625848D01*
X87262835Y-15539023D01*
X87302662Y-15428356D01*
X87345656Y-15302201D01*
X87388818Y-15168911D01*
X87392383Y-15157567D01*
X87455883Y-14960622D01*
X87512986Y-14798176D01*
X87567171Y-14663565D01*
X87621915Y-14550121D01*
X87680695Y-14451178D01*
X87746988Y-14360072D01*
X87824273Y-14270135D01*
X87892923Y-14198031D01*
X88078613Y-14038393D01*
X88286445Y-13912166D01*
X88511523Y-13820192D01*
X88748947Y-13763312D01*
X88993819Y-13742366D01*
X89241240Y-13758196D01*
X89486313Y-13811642D01*
X89692951Y-13889006D01*
X89798836Y-13942237D01*
X89901677Y-14005895D01*
X90007478Y-14084759D01*
X90122246Y-14183604D01*
X90251986Y-14307207D01*
X90374300Y-14430948D01*
X90516675Y-14583179D01*
X90629636Y-14717528D01*
X90717806Y-14841287D01*
X90785806Y-14961747D01*
X90838258Y-15086200D01*
X90879785Y-15221937D01*
X90882598Y-15232816D01*
X90888348Y-15253422D01*
X90894122Y-15271397D01*
X90899770Y-15287699D01*
X90905142Y-15303287D01*
X90910088Y-15319120D01*
X90914460Y-15336154D01*
X90918108Y-15355350D01*
X90920881Y-15377665D01*
X90922630Y-15404058D01*
X90923205Y-15435487D01*
X90922458Y-15472910D01*
X90920237Y-15517286D01*
X90916394Y-15569574D01*
X90910779Y-15630731D01*
X90903243Y-15701716D01*
X90893634Y-15783487D01*
X90881805Y-15877004D01*
X90867605Y-15983223D01*
X90850884Y-16103105D01*
X90831494Y-16237606D01*
X90809284Y-16387685D01*
X90784104Y-16554302D01*
X90755806Y-16738413D01*
X90724239Y-16940978D01*
X90689254Y-17162955D01*
X90650700Y-17405303D01*
X90608430Y-17668979D01*
X90562292Y-17954942D01*
X90512137Y-18264151D01*
X90457815Y-18597563D01*
X90399178Y-18956138D01*
X90336074Y-19340834D01*
X90268355Y-19752609D01*
X90195871Y-20192421D01*
X90118473Y-20661229D01*
X90036009Y-21159991D01*
X89948332Y-21689666D01*
X89855291Y-22251212D01*
X89756737Y-22845587D01*
X89652519Y-23473750D01*
X89542489Y-24136659D01*
X89426497Y-24835273D01*
X89304393Y-25570550D01*
X89176027Y-26343448D01*
X89041250Y-27154926D01*
X88899912Y-28005942D01*
X88751863Y-28897455D01*
X88702377Y-29195474D01*
X88578380Y-29942113D01*
X88456018Y-30678640D01*
X88335478Y-31403940D01*
X88216947Y-32116898D01*
X88100610Y-32816399D01*
X87986654Y-33501328D01*
X87875264Y-34170571D01*
X87766629Y-34823013D01*
X87660932Y-35457539D01*
X87558362Y-36073034D01*
X87459104Y-36668384D01*
X87363345Y-37242473D01*
X87271270Y-37794187D01*
X87183066Y-38322412D01*
X87098920Y-38826031D01*
X87019018Y-39303932D01*
X86943545Y-39754998D01*
X86872688Y-40178115D01*
X86806634Y-40572168D01*
X86745569Y-40936043D01*
X86689679Y-41268625D01*
X86639150Y-41568798D01*
X86594169Y-41835449D01*
X86554922Y-42067462D01*
X86521595Y-42263722D01*
X86494374Y-42423115D01*
X86473447Y-42544526D01*
X86458998Y-42626841D01*
X86451214Y-42668944D01*
X86450023Y-42674234D01*
X86426967Y-42745200D01*
X86403598Y-42810409D01*
X86377814Y-42872382D01*
X86347513Y-42933641D01*
X86310592Y-42996707D01*
X86264950Y-43064102D01*
X86208482Y-43138347D01*
X86139088Y-43221965D01*
X86054665Y-43317478D01*
X85953110Y-43427406D01*
X85832322Y-43554272D01*
X85690197Y-43700597D01*
X85524634Y-43868903D01*
X85333529Y-44061712D01*
X85114781Y-44281546D01*
X85085481Y-44310959D01*
X84905715Y-44490978D01*
X84731858Y-44664262D01*
X84566644Y-44828135D01*
X84412809Y-44979922D01*
X84273089Y-45116947D01*
X84150220Y-45236533D01*
X84046935Y-45336005D01*
X83965972Y-45412687D01*
X83910066Y-45463902D01*
X83886717Y-45483619D01*
X83728346Y-45587165D01*
X83545489Y-45678174D01*
X83355811Y-45748045D01*
X83325800Y-45756746D01*
X83215982Y-45778110D01*
X83077797Y-45791428D01*
X82924442Y-45796688D01*
X82769114Y-45793878D01*
X82625010Y-45782984D01*
X82505326Y-45763996D01*
X82479134Y-45757540D01*
X82259750Y-45679503D01*
X82047389Y-45569398D01*
X81855589Y-45434747D01*
X81781217Y-45369681D01*
X81704564Y-45293990D01*
X81633449Y-45217451D01*
X81577830Y-45151085D01*
X81555366Y-45119677D01*
X81483139Y-45034818D01*
X81377327Y-44950321D01*
X81246360Y-44871746D01*
X81098667Y-44804658D01*
X81052035Y-44787490D01*
X80881050Y-44727967D01*
X80243509Y-44727683D01*
X79605969Y-44727400D01*
X79578615Y-44825098D01*
X79538226Y-44921185D01*
X79473332Y-45024497D01*
X79395051Y-45119389D01*
X79323985Y-45183454D01*
X79262897Y-45220898D01*
X79183717Y-45259810D01*
X79136260Y-45279329D01*
X79074641Y-45296922D01*
X78979098Y-45317528D01*
X78857834Y-45339943D01*
X78719048Y-45362964D01*
X78570941Y-45385390D01*
X78421713Y-45406016D01*
X78279564Y-45423640D01*
X78152695Y-45437059D01*
X78049307Y-45445070D01*
X77994437Y-45446816D01*
X77800865Y-45428488D01*
X77619610Y-45376348D01*
X77456288Y-45293601D01*
X77316513Y-45183450D01*
X77205900Y-45049099D01*
X77162427Y-44972092D01*
X77129513Y-44916685D01*
X77097262Y-44881804D01*
X77082707Y-44875629D01*
X77058742Y-44878922D01*
X76995041Y-44888570D01*
X76893673Y-44904247D01*
X76756703Y-44925624D01*
X76586201Y-44952376D01*
X76384232Y-44984174D01*
X76152865Y-45020691D01*
X75894166Y-45061601D01*
X75610203Y-45106576D01*
X75303044Y-45155290D01*
X74974754Y-45207414D01*
X74627403Y-45262621D01*
X74263057Y-45320586D01*
X73883784Y-45380980D01*
X73491650Y-45443476D01*
X73134050Y-45500514D01*
X72124551Y-45661592D01*
X71155999Y-45816132D01*
X70227537Y-45964271D01*
X69338308Y-46106142D01*
X68487453Y-46241883D01*
X67674117Y-46371626D01*
X66897442Y-46495509D01*
X66156571Y-46613666D01*
X65450646Y-46726232D01*
X64778811Y-46833343D01*
X64140208Y-46935134D01*
X63533980Y-47031740D01*
X62959269Y-47123296D01*
X62415220Y-47209937D01*
X61900973Y-47291800D01*
X61415673Y-47369018D01*
X60958462Y-47441727D01*
X60528482Y-47510064D01*
X60124877Y-47574161D01*
X59746789Y-47634156D01*
X59393362Y-47690183D01*
X59063738Y-47742377D01*
X58757059Y-47790874D01*
X58472469Y-47835808D01*
X58209110Y-47877316D01*
X57966125Y-47915532D01*
X57742658Y-47950592D01*
X57537850Y-47982630D01*
X57350845Y-48011783D01*
X57180785Y-48038184D01*
X57026813Y-48061970D01*
X56888072Y-48083276D01*
X56763705Y-48102237D01*
X56652855Y-48118988D01*
X56554664Y-48133664D01*
X56468275Y-48146401D01*
X56392831Y-48157334D01*
X56327475Y-48166598D01*
X56271349Y-48174328D01*
X56223597Y-48180660D01*
X56183361Y-48185729D01*
X56149784Y-48189669D01*
X56122008Y-48192617D01*
X56099178Y-48194707D01*
X56080434Y-48196076D01*
X56064921Y-48196857D01*
X56051781Y-48197186D01*
X56040438Y-48197201D01*
X55929364Y-48191089D01*
X55808363Y-48176513D01*
X55703290Y-48156603D01*
X55701605Y-48156191D01*
X55467056Y-48081247D01*
X55257197Y-47976222D01*
X55064412Y-47836709D01*
X54928094Y-47708494D01*
X54893978Y-47670898D01*
X54835255Y-47603505D01*
X54754303Y-47509135D01*
X54653500Y-47390608D01*
X54535226Y-47250745D01*
X54401858Y-47092364D01*
X54255776Y-46918287D01*
X54099357Y-46731334D01*
X53934980Y-46534324D01*
X53765025Y-46330078D01*
X53734830Y-46293734D01*
X53565062Y-46089544D01*
X53401177Y-45892826D01*
X53245467Y-45706308D01*
X53100228Y-45532720D01*
X52967754Y-45374793D01*
X52850337Y-45235255D01*
X52750273Y-45116837D01*
X52669855Y-45022269D01*
X52611377Y-44954280D01*
X52577134Y-44915600D01*
X52573286Y-44911509D01*
X52432839Y-44794194D01*
X52274208Y-44715090D01*
X52097152Y-44674086D01*
X52034154Y-44668874D01*
X52010880Y-44669034D01*
X51973077Y-44671201D01*
X51919612Y-44675514D01*
X51849349Y-44682113D01*
X51761155Y-44691136D01*
X51653894Y-44702723D01*
X51526434Y-44717014D01*
X51377638Y-44734147D01*
X51206374Y-44754263D01*
X51011505Y-44777499D01*
X50791899Y-44803996D01*
X50546421Y-44833892D01*
X50273935Y-44867328D01*
X49973309Y-44904442D01*
X49643406Y-44945374D01*
X49283094Y-44990263D01*
X48891238Y-45039247D01*
X48466702Y-45092468D01*
X48008354Y-45150063D01*
X47515058Y-45212173D01*
X46985679Y-45278936D01*
X46419085Y-45350492D01*
X45814140Y-45426979D01*
X45169709Y-45508538D01*
X44484659Y-45595308D01*
X44336800Y-45614044D01*
X43298322Y-45745641D01*
X42301002Y-45872018D01*
X41344004Y-45993279D01*
X40426489Y-46109530D01*
X39547618Y-46220875D01*
X38706554Y-46327420D01*
X37902460Y-46429270D01*
X37134496Y-46526530D01*
X36401825Y-46619305D01*
X35703608Y-46707700D01*
X35039009Y-46791821D01*
X34407188Y-46871772D01*
X33807309Y-46947659D01*
X33238532Y-47019586D01*
X32700019Y-47087660D01*
X32190934Y-47151984D01*
X31710437Y-47212664D01*
X31257691Y-47269806D01*
X30831857Y-47323514D01*
X30432099Y-47373894D01*
X30057577Y-47421050D01*
X29707453Y-47465087D01*
X29380890Y-47506112D01*
X29077050Y-47544229D01*
X28795095Y-47579542D01*
X28534186Y-47612158D01*
X28293485Y-47642181D01*
X28072155Y-47669717D01*
X27869358Y-47694870D01*
X27684255Y-47717745D01*
X27516009Y-47738449D01*
X27363781Y-47757085D01*
X27226734Y-47773760D01*
X27104029Y-47788578D01*
X26994828Y-47801644D01*
X26898294Y-47813063D01*
X26813588Y-47822941D01*
X26739873Y-47831382D01*
X26676310Y-47838493D01*
X26622062Y-47844377D01*
X26576290Y-47849140D01*
X26538156Y-47852887D01*
X26506822Y-47855724D01*
X26481451Y-47857755D01*
X26461204Y-47859085D01*
X26445243Y-47859820D01*
X26432731Y-47860065D01*
X26431731Y-47860067D01*
X26182989Y-47839824D01*
X25945938Y-47781102D01*
X25723864Y-47686912D01*
X25520050Y-47560265D01*
X25337779Y-47404172D01*
X25180335Y-47221644D01*
X25051002Y-47015692D01*
X24953063Y-46789326D01*
X24889803Y-46545559D01*
X24873559Y-46431317D01*
X24871991Y-46381822D01*
X24873309Y-46295210D01*
X24877201Y-46176575D01*
X24883353Y-46031014D01*
X24891452Y-45863620D01*
X24901184Y-45679488D01*
X24912235Y-45483715D01*
X24924294Y-45281394D01*
X24937045Y-45077620D01*
X24950175Y-44877490D01*
X24963372Y-44686096D01*
X24976322Y-44508535D01*
X24988710Y-44349902D01*
X25000225Y-44215291D01*
X25010551Y-44109798D01*
X25019377Y-44038516D01*
X25021586Y-44025107D01*
X25055408Y-43871582D01*
X25100377Y-43732726D01*
X25160506Y-43601842D01*
X25239810Y-43472230D01*
X25342304Y-43337193D01*
X25472002Y-43190032D01*
X25604300Y-43052758D01*
X25655100Y-43002118D01*
X25734020Y-42924241D01*
X25839952Y-42820201D01*
X25971792Y-42691073D01*
X26128431Y-42537930D01*
X26308764Y-42361846D01*
X26511683Y-42163895D01*
X26736083Y-41945151D01*
X26980856Y-41706688D01*
X27244896Y-41449578D01*
X27527097Y-41174898D01*
X27826351Y-40883719D01*
X28141552Y-40577116D01*
X28471593Y-40256163D01*
X28815369Y-39921934D01*
X29171771Y-39575503D01*
X29539694Y-39217943D01*
X29918032Y-38850328D01*
X30305676Y-38473732D01*
X30701521Y-38089229D01*
X31104461Y-37697893D01*
X31513388Y-37300798D01*
X31927195Y-36899017D01*
X32344778Y-36493625D01*
X32765027Y-36085695D01*
X33186838Y-35676301D01*
X33609104Y-35266516D01*
X34030717Y-34857416D01*
X34450571Y-34450073D01*
X34867560Y-34045562D01*
X35280577Y-33644956D01*
X35688515Y-33249329D01*
X35813529Y-33128104D01*
G37*
X35813529Y-33128104D02*
X42420911Y-33128104D01*
X42424575Y-33206795D01*
X42432065Y-33310439D01*
X42443487Y-33445646D01*
X42452256Y-33544488D01*
X42462862Y-33665668D01*
X42476199Y-33822350D01*
X42491716Y-34007832D01*
X42508862Y-34215411D01*
X42527087Y-34438383D01*
X42545838Y-34670046D01*
X42564566Y-34903696D01*
X42580556Y-35105203D01*
X42598732Y-35333832D01*
X42617376Y-35565338D01*
X42635946Y-35793188D01*
X42653900Y-36010851D01*
X42670695Y-36211793D01*
X42685791Y-36389482D01*
X42698645Y-36537386D01*
X42707863Y-36639787D01*
X42719069Y-36777430D01*
X42730514Y-36947739D01*
X42741693Y-37141056D01*
X42752096Y-37347719D01*
X42761217Y-37558070D01*
X42768549Y-37762447D01*
X42770791Y-37837650D01*
X42782055Y-38226906D01*
X42792970Y-38575160D01*
X42803527Y-38882237D01*
X42813719Y-39147964D01*
X42823540Y-39372166D01*
X42832981Y-39554671D01*
X42842035Y-39695304D01*
X42850695Y-39793891D01*
X42856049Y-39834977D01*
X42904857Y-40010832D01*
X42989112Y-40164761D01*
X43106375Y-40293723D01*
X43254204Y-40394679D01*
X43335457Y-40432359D01*
X43445490Y-40460790D01*
X43578627Y-40471243D01*
X43719963Y-40464373D01*
X43854589Y-40440836D01*
X43959959Y-40404908D01*
X44095969Y-40321348D01*
X44217040Y-40207244D01*
X44311493Y-40074257D01*
X44332828Y-40032559D01*
X44351655Y-39988701D01*
X44366491Y-39943614D01*
X44377477Y-39892585D01*
X44384752Y-39830903D01*
X44388456Y-39753854D01*
X44388729Y-39656726D01*
X44385711Y-39534807D01*
X44379542Y-39383385D01*
X44370362Y-39197747D01*
X44362178Y-39044150D01*
X44355357Y-38912285D01*
X44348227Y-38763679D01*
X44340996Y-38603789D01*
X44333872Y-38438070D01*
X44327064Y-38271980D01*
X44320779Y-38110974D01*
X44315227Y-37960511D01*
X44310616Y-37826045D01*
X44307155Y-37713034D01*
X44305050Y-37626934D01*
X44304512Y-37573201D01*
X44305383Y-37557125D01*
X44326572Y-37549172D01*
X44384148Y-37531085D01*
X44473722Y-37504115D01*
X44590906Y-37469514D01*
X44731313Y-37428532D01*
X44890556Y-37382421D01*
X45064245Y-37332432D01*
X45247993Y-37279815D01*
X45437414Y-37225822D01*
X45628118Y-37171704D01*
X45815718Y-37118712D01*
X45995827Y-37068096D01*
X46164056Y-37021108D01*
X46316018Y-36978999D01*
X46447325Y-36943021D01*
X46553590Y-36914423D01*
X46622800Y-36896382D01*
X46774953Y-36858669D01*
X46931809Y-36821385D01*
X47087805Y-36785695D01*
X47237378Y-36752764D01*
X47374964Y-36723761D01*
X47495000Y-36699849D01*
X47591924Y-36682195D01*
X47660171Y-36671965D01*
X47694179Y-36670325D01*
X47696617Y-36671328D01*
X47704630Y-36696960D01*
X47712971Y-36750071D01*
X47716559Y-36783563D01*
X47736978Y-36987231D01*
X47764399Y-37229198D01*
X47798411Y-37506083D01*
X47838604Y-37814506D01*
X47871923Y-38059900D01*
X47895444Y-38231553D01*
X47918867Y-38404471D01*
X47941025Y-38569877D01*
X47960747Y-38718995D01*
X47976864Y-38843050D01*
X47987516Y-38927604D01*
X48002066Y-39036448D01*
X48017647Y-39136704D01*
X48032383Y-39217165D01*
X48044279Y-39266271D01*
X48113738Y-39412597D01*
X48216454Y-39538554D01*
X48346905Y-39640752D01*
X48499566Y-39715800D01*
X48668917Y-39760309D01*
X48849434Y-39770889D01*
X48865087Y-39770117D01*
X49044060Y-39740183D01*
X49205971Y-39674401D01*
X49346393Y-39576496D01*
X49460897Y-39450192D01*
X49545053Y-39299213D01*
X49587708Y-39162443D01*
X49595471Y-39115056D01*
X49599259Y-39059772D01*
X49598626Y-38992592D01*
X49593125Y-38909518D01*
X49582312Y-38806551D01*
X49565740Y-38679693D01*
X49542963Y-38524946D01*
X49513535Y-38338312D01*
X49477010Y-38115792D01*
X49458827Y-38006984D01*
X49419540Y-37771529D01*
X49385841Y-37565232D01*
X49357079Y-37381888D01*
X49332600Y-37215294D01*
X49311753Y-37059245D01*
X49293884Y-36907538D01*
X49278342Y-36753968D01*
X49272534Y-36686280D01*
X49663677Y-36686280D01*
X49672059Y-36764796D01*
X49715370Y-36906736D01*
X49796078Y-37029691D01*
X49913488Y-37133144D01*
X50066905Y-37216576D01*
X50255633Y-37279471D01*
X50405496Y-37310528D01*
X50508169Y-37323841D01*
X50626796Y-37332143D01*
X50764495Y-37335293D01*
X50924384Y-37333154D01*
X51109580Y-37325587D01*
X51323203Y-37312453D01*
X51568371Y-37293613D01*
X51848200Y-37268928D01*
X52165810Y-37238259D01*
X52274300Y-37227325D01*
X52464836Y-37208363D01*
X52642144Y-37191509D01*
X52801841Y-37177120D01*
X52939542Y-37165555D01*
X53050864Y-37157173D01*
X53131422Y-37152333D01*
X53176833Y-37151392D01*
X53185353Y-37152794D01*
X53190268Y-37177462D01*
X53198499Y-37238812D01*
X53209430Y-37331375D01*
X53222444Y-37449684D01*
X53236924Y-37588269D01*
X53252254Y-37741663D01*
X53255395Y-37773916D01*
X53271826Y-37936292D01*
X53288766Y-38090944D01*
X53305372Y-38231091D01*
X53320803Y-38349955D01*
X53334217Y-38440754D01*
X53344773Y-38496707D01*
X53345465Y-38499463D01*
X53412099Y-38696303D01*
X53501193Y-38857925D01*
X53613864Y-38985669D01*
X53751229Y-39080876D01*
X53872384Y-39132150D01*
X53962592Y-39149777D01*
X54078577Y-39155312D01*
X54205793Y-39149557D01*
X54329694Y-39133315D01*
X54435736Y-39107387D01*
X54456624Y-39099925D01*
X54592168Y-39025844D01*
X54709945Y-38919253D01*
X54803619Y-38788402D01*
X54866850Y-38641542D01*
X54889223Y-38536758D01*
X54891741Y-38477151D01*
X54889686Y-38380850D01*
X54883441Y-38253201D01*
X54873391Y-38099552D01*
X54859920Y-37925251D01*
X54843411Y-37735645D01*
X54824248Y-37536081D01*
X54802816Y-37331906D01*
X54802568Y-37329650D01*
X54788349Y-37201603D01*
X54778994Y-37109543D01*
X54775705Y-37047282D01*
X54779683Y-37008633D01*
X54792129Y-36987407D01*
X54814245Y-36977418D01*
X54847232Y-36972477D01*
X54872509Y-36969393D01*
X55107194Y-36924200D01*
X55306595Y-36857018D01*
X55470418Y-36768080D01*
X55598369Y-36657621D01*
X55690155Y-36525875D01*
X55745481Y-36373076D01*
X55761888Y-36260727D01*
X55757690Y-36092204D01*
X55722909Y-35931917D01*
X55660761Y-35787667D01*
X55574460Y-35667257D01*
X55485514Y-35590149D01*
X55407078Y-35545792D01*
X55317611Y-35513151D01*
X55209651Y-35490745D01*
X55075735Y-35477096D01*
X54908401Y-35470726D01*
X54880893Y-35470318D01*
X54613217Y-35466984D01*
X54439830Y-33731317D01*
X54412772Y-33461923D01*
X54386460Y-33202781D01*
X54361251Y-32957255D01*
X54337505Y-32728708D01*
X54315580Y-32520507D01*
X54295835Y-32336015D01*
X54278627Y-32178596D01*
X54264315Y-32051616D01*
X54258930Y-32006234D01*
X55565830Y-32006234D01*
X55568100Y-32104730D01*
X55576877Y-32177324D01*
X55595338Y-32240313D01*
X55623940Y-32304474D01*
X55698325Y-32422836D01*
X55806730Y-32541746D01*
X55952171Y-32664284D01*
X56037516Y-32726337D01*
X56074301Y-32756272D01*
X56136345Y-32811805D01*
X56220747Y-32890071D01*
X56324604Y-32988205D01*
X56445014Y-33103342D01*
X56579074Y-33232617D01*
X56723882Y-33373165D01*
X56876535Y-33522122D01*
X57034132Y-33676622D01*
X57193770Y-33833801D01*
X57352546Y-33990793D01*
X57507558Y-34144735D01*
X57655904Y-34292760D01*
X57794682Y-34432004D01*
X57920989Y-34559603D01*
X58031922Y-34672690D01*
X58124580Y-34768403D01*
X58196060Y-34843875D01*
X58243460Y-34896241D01*
X58263877Y-34922637D01*
X58264467Y-34924531D01*
X58252023Y-34948149D01*
X58216164Y-35002489D01*
X58159095Y-35084574D01*
X58083023Y-35191429D01*
X57990154Y-35320076D01*
X57882693Y-35467538D01*
X57762849Y-35630840D01*
X57632826Y-35807003D01*
X57494831Y-35993053D01*
X57351071Y-36186012D01*
X57203752Y-36382903D01*
X57055079Y-36580750D01*
X56907260Y-36776576D01*
X56762500Y-36967404D01*
X56623006Y-37150259D01*
X56490985Y-37322162D01*
X56403345Y-37435484D01*
X56304374Y-37564792D01*
X56210556Y-37690668D01*
X56126168Y-37807118D01*
X56055488Y-37908147D01*
X56002792Y-37987761D01*
X55973191Y-38038288D01*
X55936939Y-38116048D01*
X55916127Y-38180827D01*
X55906645Y-38250984D01*
X55904384Y-38344877D01*
X55904384Y-38345650D01*
X55906665Y-38440186D01*
X55916301Y-38511266D01*
X55937482Y-38577647D01*
X55973953Y-38657189D01*
X56067851Y-38802260D01*
X56193586Y-38927630D01*
X56342681Y-39026523D01*
X56506659Y-39092158D01*
X56523422Y-39096599D01*
X56650499Y-39112771D01*
X56793860Y-39105492D01*
X56935970Y-39076779D01*
X57043017Y-39036866D01*
X57119732Y-38996653D01*
X57187717Y-38952245D01*
X57253268Y-38897699D01*
X57322683Y-38827073D01*
X57402258Y-38734424D01*
X57498290Y-38613808D01*
X57517501Y-38589067D01*
X57565611Y-38526402D01*
X57634319Y-38436134D01*
X57720890Y-38321906D01*
X57822590Y-38187360D01*
X57936685Y-38036137D01*
X58060440Y-37871880D01*
X58191121Y-37698232D01*
X58325992Y-37518833D01*
X58462320Y-37337328D01*
X58597370Y-37157357D01*
X58728407Y-36982562D01*
X58852697Y-36816587D01*
X58967505Y-36663073D01*
X59070097Y-36525662D01*
X59157739Y-36407997D01*
X59227695Y-36313719D01*
X59277231Y-36246471D01*
X59301363Y-36213109D01*
X59341419Y-36159311D01*
X59372189Y-36123392D01*
X59384597Y-36113979D01*
X59403269Y-36130092D01*
X59445914Y-36174542D01*
X59509092Y-36243405D01*
X59589365Y-36332755D01*
X59683296Y-36438670D01*
X59787445Y-36557224D01*
X59898374Y-36684493D01*
X60012645Y-36816553D01*
X60126820Y-36949479D01*
X60237460Y-37079347D01*
X60341127Y-37202232D01*
X60403334Y-37276734D01*
X60561932Y-37466614D01*
X60698220Y-37627381D01*
X60816016Y-37763226D01*
X60919141Y-37878338D01*
X61011417Y-37976911D01*
X61096662Y-38063135D01*
X61178698Y-38141201D01*
X61248967Y-38204457D01*
X61440545Y-38362477D01*
X61615743Y-38484401D01*
X61777637Y-38571731D01*
X61929302Y-38625969D01*
X62073814Y-38648618D01*
X62156608Y-38647798D01*
X62320403Y-38616296D01*
X62471780Y-38549633D01*
X62606318Y-38453263D01*
X62719595Y-38332642D01*
X62807186Y-38193225D01*
X62864672Y-38040465D01*
X62887628Y-37879820D01*
X62879340Y-37756298D01*
X62861571Y-37672074D01*
X62834755Y-37594754D01*
X62794859Y-37518450D01*
X62737849Y-37437274D01*
X62659692Y-37345338D01*
X62556356Y-37236754D01*
X62453483Y-37134564D01*
X62341566Y-37023406D01*
X62212035Y-36891984D01*
X62075682Y-36751421D01*
X61943301Y-36612840D01*
X61831434Y-36493567D01*
X61737397Y-36391290D01*
X61629694Y-36272738D01*
X61511343Y-36141352D01*
X61385366Y-36000574D01*
X61254783Y-35853846D01*
X61122616Y-35704609D01*
X60991883Y-35556305D01*
X60865607Y-35412376D01*
X60746806Y-35276264D01*
X60638503Y-35151411D01*
X60543717Y-35041257D01*
X60465469Y-34949246D01*
X60406779Y-34878819D01*
X60370669Y-34833418D01*
X60359967Y-34816877D01*
X60370779Y-34794123D01*
X60401235Y-34740536D01*
X60448363Y-34661070D01*
X60509193Y-34560679D01*
X60580753Y-34444317D01*
X60653526Y-34327395D01*
X60753130Y-34166883D01*
X60863642Y-33986510D01*
X60977221Y-33799223D01*
X61005139Y-33752715D01*
X62693202Y-33752715D01*
X62711763Y-34159994D01*
X62760399Y-34590927D01*
X62825831Y-34981203D01*
X62924644Y-35423555D01*
X63046207Y-35834062D01*
X63190007Y-36212086D01*
X63355530Y-36556985D01*
X63542261Y-36868119D01*
X63749687Y-37144847D01*
X63977293Y-37386528D01*
X64224566Y-37592521D01*
X64490992Y-37762187D01*
X64776057Y-37894883D01*
X65079247Y-37989970D01*
X65270634Y-38028865D01*
X65384807Y-38041746D01*
X65529705Y-38049351D01*
X65694075Y-38051877D01*
X65866661Y-38049518D01*
X66036211Y-38042472D01*
X66191471Y-38030932D01*
X66321187Y-38015095D01*
X66350418Y-38010099D01*
X66690128Y-37929165D01*
X67006642Y-37816847D01*
X67297630Y-37674339D01*
X67560766Y-37502833D01*
X67793719Y-37303519D01*
X67856933Y-37238947D01*
X68056389Y-36998494D01*
X68229467Y-36729430D01*
X68376737Y-36430435D01*
X68498763Y-36100189D01*
X68596115Y-35737371D01*
X68667612Y-35352377D01*
X68696285Y-35110379D01*
X68715442Y-34836631D01*
X68725255Y-34540596D01*
X68725896Y-34231734D01*
X68717539Y-33919506D01*
X68700357Y-33613373D01*
X68674521Y-33322794D01*
X68640206Y-33057232D01*
X68623895Y-32958734D01*
X68539072Y-32575733D01*
X68425391Y-32212837D01*
X68284498Y-31872113D01*
X68118036Y-31555632D01*
X67927649Y-31265463D01*
X67714981Y-31003674D01*
X67481677Y-30772336D01*
X67391896Y-30701585D01*
X68823691Y-30701585D01*
X68824208Y-30785882D01*
X68827890Y-30887001D01*
X68834822Y-31007566D01*
X68845088Y-31150201D01*
X68858771Y-31317529D01*
X68875954Y-31512176D01*
X68896721Y-31736764D01*
X68921157Y-31993919D01*
X68949344Y-32286264D01*
X68981366Y-32616423D01*
X69004311Y-32852900D01*
X69034824Y-33168418D01*
X69065564Y-33487857D01*
X69096097Y-33806624D01*
X69125990Y-34120125D01*
X69154810Y-34423766D01*
X69182121Y-34712952D01*
X69207491Y-34983091D01*
X69230485Y-35229588D01*
X69250670Y-35447850D01*
X69267612Y-35633282D01*
X69280877Y-35781292D01*
X69281159Y-35784484D01*
X69303983Y-36042408D01*
X69323619Y-36261769D01*
X69340493Y-36446181D01*
X69355034Y-36599257D01*
X69367670Y-36724613D01*
X69378828Y-36825864D01*
X69388937Y-36906623D01*
X69398424Y-36970505D01*
X69407718Y-37021125D01*
X69417245Y-37062097D01*
X69427435Y-37097037D01*
X69438715Y-37129557D01*
X69441179Y-37136195D01*
X69516114Y-37278444D01*
X69625323Y-37404188D01*
X69762017Y-37507224D01*
X69919410Y-37581348D01*
X69933355Y-37586060D01*
X70044634Y-37607624D01*
X70177936Y-37610751D01*
X70317779Y-37596637D01*
X70448678Y-37566476D01*
X70516891Y-37540993D01*
X70643352Y-37465619D01*
X70760294Y-37361645D01*
X70856777Y-37240546D01*
X70920339Y-37117921D01*
X70938148Y-37064164D01*
X70951061Y-37007713D01*
X70958889Y-36943877D01*
X70961444Y-36867962D01*
X70958536Y-36775275D01*
X70949978Y-36661124D01*
X70935581Y-36520816D01*
X70915156Y-36349658D01*
X70888514Y-36142957D01*
X70877972Y-36063488D01*
X70856899Y-35902193D01*
X70838453Y-35754618D01*
X70823213Y-35625923D01*
X70811759Y-35521269D01*
X70804669Y-35445818D01*
X70802523Y-35404731D01*
X70803377Y-35398767D01*
X70829709Y-35397854D01*
X70889981Y-35408542D01*
X70977943Y-35429141D01*
X71087342Y-35457958D01*
X71211926Y-35493303D01*
X71345445Y-35533484D01*
X71481646Y-35576810D01*
X71567717Y-35605538D01*
X71930997Y-35738788D01*
X72282348Y-35887820D01*
X72628163Y-36056071D01*
X72974836Y-36246978D01*
X73328760Y-36463978D01*
X73696328Y-36710509D01*
X73922575Y-36871489D01*
X74097513Y-36981285D01*
X74265454Y-37050505D01*
X74429739Y-37079627D01*
X74593707Y-37069128D01*
X74760697Y-37019484D01*
X74809369Y-36998206D01*
X74914819Y-36932923D01*
X75020943Y-36839684D01*
X75115626Y-36730888D01*
X75186751Y-36618934D01*
X75193503Y-36605078D01*
X75222443Y-36536999D01*
X75239640Y-36475010D01*
X75247879Y-36403674D01*
X75249946Y-36307551D01*
X75249907Y-36292484D01*
X75247749Y-36193640D01*
X75240261Y-36121841D01*
X75224424Y-36061859D01*
X75197219Y-35998468D01*
X75187829Y-35979387D01*
X75115749Y-35866999D01*
X75006943Y-35742280D01*
X74864429Y-35607472D01*
X74691227Y-35464819D01*
X74490354Y-35316566D01*
X74264829Y-35164955D01*
X74017671Y-35012232D01*
X73751899Y-34860638D01*
X73511212Y-34733120D01*
X73403032Y-34677186D01*
X73308855Y-34627412D01*
X73234806Y-34587125D01*
X73187013Y-34559651D01*
X73171532Y-34548700D01*
X73185961Y-34532488D01*
X73228514Y-34501843D01*
X73290391Y-34463036D01*
X73298532Y-34458225D01*
X73537285Y-34302062D01*
X73759080Y-34125487D01*
X73959275Y-33933561D01*
X74133228Y-33731343D01*
X74276296Y-33523896D01*
X74383835Y-33316280D01*
X74412354Y-33244146D01*
X74467082Y-33073672D01*
X74500958Y-32915698D01*
X74516376Y-32753599D01*
X74515727Y-32570749D01*
X74514191Y-32536416D01*
X74478661Y-32234802D01*
X74402746Y-31945205D01*
X74286752Y-31667965D01*
X74130985Y-31403421D01*
X73935752Y-31151912D01*
X73701358Y-30913777D01*
X73428109Y-30689356D01*
X73116312Y-30478987D01*
X72766271Y-30283011D01*
X72378294Y-30101766D01*
X72281839Y-30061426D01*
X72128377Y-30000078D01*
X71989650Y-29948776D01*
X71859877Y-29906677D01*
X71733278Y-29872938D01*
X71604074Y-29846714D01*
X71466483Y-29827163D01*
X71314727Y-29813441D01*
X71143023Y-29804704D01*
X70945593Y-29800110D01*
X70716656Y-29798815D01*
X70488217Y-29799709D01*
X70290232Y-29801631D01*
X70105187Y-29804573D01*
X69938148Y-29808382D01*
X69794182Y-29812904D01*
X69678354Y-29817984D01*
X69595730Y-29823469D01*
X69556884Y-29828055D01*
X69372152Y-29881471D01*
X69210178Y-29970422D01*
X69072000Y-30094103D01*
X68958659Y-30251710D01*
X68923500Y-30317899D01*
X68901700Y-30362089D01*
X68882396Y-30402109D01*
X68865672Y-30440581D01*
X68851613Y-30480131D01*
X68840302Y-30523383D01*
X68831822Y-30572959D01*
X68826257Y-30631485D01*
X68823691Y-30701585D01*
X67391896Y-30701585D01*
X67229380Y-30573517D01*
X66959733Y-30409287D01*
X66674383Y-30281714D01*
X66438553Y-30208115D01*
X66135411Y-30150987D01*
X65817515Y-30128316D01*
X65493102Y-30139213D01*
X65170408Y-30182791D01*
X64857673Y-30258162D01*
X64563131Y-30364438D01*
X64434718Y-30424111D01*
X64148451Y-30591352D01*
X63883800Y-30794388D01*
X63641682Y-31032085D01*
X63423017Y-31303310D01*
X63228722Y-31606928D01*
X63059716Y-31941806D01*
X62922154Y-32291531D01*
X62819190Y-32638499D01*
X62746792Y-32995398D01*
X62704837Y-33365660D01*
X62693202Y-33752715D01*
X61005139Y-33752715D01*
X61086027Y-33617971D01*
X61182219Y-33455700D01*
X61206766Y-33413817D01*
X61549130Y-32848857D01*
X61894274Y-32321051D01*
X62031660Y-32122469D01*
X62124581Y-31988702D01*
X62195042Y-31881740D01*
X62246080Y-31794593D01*
X62280736Y-31720274D01*
X62302048Y-31651794D01*
X62313055Y-31582166D01*
X62316795Y-31504402D01*
X62316925Y-31466484D01*
X62314917Y-31369238D01*
X62307838Y-31299059D01*
X62292495Y-31240722D01*
X62265692Y-31179004D01*
X62250145Y-31148208D01*
X62150163Y-30999860D01*
X62016440Y-30874508D01*
X61852879Y-30775789D01*
X61847528Y-30773265D01*
X61695542Y-30721025D01*
X61540577Y-30702303D01*
X61392402Y-30717393D01*
X61280717Y-30756225D01*
X61188680Y-30814673D01*
X61079598Y-30907037D01*
X60956393Y-31029901D01*
X60821987Y-31179852D01*
X60679301Y-31353476D01*
X60531258Y-31547359D01*
X60380779Y-31758088D01*
X60230786Y-31982248D01*
X60228962Y-31985067D01*
X60180908Y-32060430D01*
X60114618Y-32166002D01*
X60033802Y-32295792D01*
X59942169Y-32443809D01*
X59843431Y-32604060D01*
X59741296Y-32770554D01*
X59650175Y-32919740D01*
X59228894Y-33610996D01*
X58794306Y-33192128D01*
X58587524Y-32991833D01*
X58405507Y-32813213D01*
X58241616Y-32649554D01*
X58089212Y-32494142D01*
X57941655Y-32340264D01*
X57792307Y-32181207D01*
X57757591Y-32143817D01*
X57547813Y-31929559D01*
X57337963Y-31738546D01*
X57131651Y-31573364D01*
X56932488Y-31436601D01*
X56744082Y-31330844D01*
X56570046Y-31258678D01*
X56491198Y-31236385D01*
X56325053Y-31218375D01*
X56161686Y-31239781D01*
X56006489Y-31297766D01*
X55864857Y-31389494D01*
X55742184Y-31512129D01*
X55643862Y-31662833D01*
X55631049Y-31688734D01*
X55597299Y-31765519D01*
X55577565Y-31830797D01*
X55568269Y-31901982D01*
X55565835Y-31996490D01*
X55565830Y-32006234D01*
X54258930Y-32006234D01*
X54253258Y-31958439D01*
X54245815Y-31902429D01*
X54243648Y-31889817D01*
X54188396Y-31729591D01*
X54097164Y-31590357D01*
X53971893Y-31474287D01*
X53814522Y-31383550D01*
X53777134Y-31367740D01*
X53650154Y-31333443D01*
X53498612Y-31318456D01*
X53335508Y-31322574D01*
X53173846Y-31345593D01*
X53049209Y-31379203D01*
X52841344Y-31466712D01*
X52664207Y-31578212D01*
X52510480Y-31719131D01*
X52392718Y-31866148D01*
X52361021Y-31914526D01*
X52309681Y-31997415D01*
X52240022Y-32112554D01*
X52153368Y-32257677D01*
X52051044Y-32430521D01*
X51934375Y-32628822D01*
X51804683Y-32850317D01*
X51663295Y-33092742D01*
X51511533Y-33353833D01*
X51350723Y-33631327D01*
X51182189Y-33922959D01*
X51007255Y-34226467D01*
X50827245Y-34539585D01*
X50753869Y-34667449D01*
X50603222Y-34927733D01*
X50463280Y-35164753D01*
X50335818Y-35375609D01*
X50222612Y-35557403D01*
X50125437Y-35707234D01*
X50050276Y-35816370D01*
X49919435Y-36005851D01*
X49817678Y-36171213D01*
X49743113Y-36317197D01*
X49693852Y-36448543D01*
X49668003Y-36569991D01*
X49663677Y-36686280D01*
X49272534Y-36686280D01*
X49264472Y-36592332D01*
X49251625Y-36416426D01*
X49239145Y-36220045D01*
X49226382Y-35996986D01*
X49212682Y-35741045D01*
X49205027Y-35593984D01*
X49194197Y-35389744D01*
X49182626Y-35180398D01*
X49170796Y-34974054D01*
X49159187Y-34778819D01*
X49148279Y-34602799D01*
X49138553Y-34454104D01*
X49131611Y-34355734D01*
X49119601Y-34168481D01*
X49109758Y-33963174D01*
X49102197Y-33747735D01*
X49097037Y-33530092D01*
X49094393Y-33318168D01*
X49094383Y-33119890D01*
X49097123Y-32943181D01*
X49102730Y-32795968D01*
X49107573Y-32724462D01*
X49115409Y-32615911D01*
X49116989Y-32537029D01*
X49111661Y-32475525D01*
X49098773Y-32419107D01*
X49089853Y-32390653D01*
X49020098Y-32245265D01*
X48916829Y-32118134D01*
X48786539Y-32013680D01*
X48635722Y-31936322D01*
X48470871Y-31890481D01*
X48338750Y-31879440D01*
X48194521Y-31900426D01*
X48055758Y-31961136D01*
X47928052Y-32058958D01*
X47905180Y-32081857D01*
X47818679Y-32192435D01*
X47734907Y-32338025D01*
X47656930Y-32511304D01*
X47587817Y-32704954D01*
X47530637Y-32911652D01*
X47502739Y-33042011D01*
X47493170Y-33094239D01*
X47485138Y-33144385D01*
X47478738Y-33195637D01*
X47474064Y-33251181D01*
X47471211Y-33314206D01*
X47470272Y-33387898D01*
X47471344Y-33475447D01*
X47474519Y-33580038D01*
X47479892Y-33704860D01*
X47487558Y-33853099D01*
X47497612Y-34027945D01*
X47510147Y-34232583D01*
X47525258Y-34470202D01*
X47543039Y-34743989D01*
X47561492Y-35025296D01*
X47570027Y-35155109D01*
X47408622Y-35180379D01*
X47228459Y-35211093D01*
X47032949Y-35249426D01*
X46818886Y-35296182D01*
X46583065Y-35352167D01*
X46322279Y-35418184D01*
X46033324Y-35495037D01*
X45712994Y-35583532D01*
X45358082Y-35684473D01*
X45089011Y-35762483D01*
X44900465Y-35817409D01*
X44724399Y-35868495D01*
X44564979Y-35914548D01*
X44426369Y-35954375D01*
X44312732Y-35986782D01*
X44228234Y-36010576D01*
X44177038Y-36024563D01*
X44162970Y-36027900D01*
X44157202Y-36007944D01*
X44152276Y-35952913D01*
X44148568Y-35870064D01*
X44146460Y-35766651D01*
X44146119Y-35705109D01*
X44144555Y-35567145D01*
X44140406Y-35420254D01*
X44134276Y-35280665D01*
X44126768Y-35164608D01*
X44125494Y-35149484D01*
X44118536Y-35065652D01*
X44109327Y-34947839D01*
X44098482Y-34804299D01*
X44086617Y-34643287D01*
X44074347Y-34473058D01*
X44062355Y-34302817D01*
X44043090Y-34026406D01*
X44026357Y-33788885D01*
X44011776Y-33586910D01*
X43998970Y-33417138D01*
X43987561Y-33276225D01*
X43977170Y-33160827D01*
X43967421Y-33067600D01*
X43957934Y-32993202D01*
X43948331Y-32934288D01*
X43938236Y-32887516D01*
X43927268Y-32849540D01*
X43915052Y-32817019D01*
X43901208Y-32786607D01*
X43887922Y-32760006D01*
X43849531Y-32699762D01*
X43793548Y-32629210D01*
X43747497Y-32579413D01*
X43612424Y-32471918D01*
X43463543Y-32400231D01*
X43306401Y-32362860D01*
X43146543Y-32358312D01*
X42989513Y-32385094D01*
X42840856Y-32441716D01*
X42706118Y-32526683D01*
X42590844Y-32638504D01*
X42500578Y-32775687D01*
X42442395Y-32930655D01*
X42431816Y-32975642D01*
X42424638Y-33019139D01*
X42420967Y-33067756D01*
X42420911Y-33128104D01*
X35813529Y-33128104D01*
X36090268Y-32859755D01*
X36484729Y-32477308D01*
X36870792Y-32103062D01*
X37247350Y-31738090D01*
X37613295Y-31383467D01*
X37967523Y-31040266D01*
X38308926Y-30709561D01*
X38636397Y-30392426D01*
X38948830Y-30089935D01*
X39245118Y-29803162D01*
X39524154Y-29533180D01*
X39784833Y-29281064D01*
X40026047Y-29047886D01*
X40246690Y-28834722D01*
X40445655Y-28642645D01*
X40621835Y-28472728D01*
X40774125Y-28326047D01*
X40901416Y-28203673D01*
X41002603Y-28106682D01*
X41076580Y-28036147D01*
X41122239Y-27993143D01*
X41137906Y-27979074D01*
X41251949Y-27905358D01*
X41387464Y-27834299D01*
X41526956Y-27774204D01*
X41652931Y-27733379D01*
X41657987Y-27732131D01*
X41692273Y-27725344D01*
X41766729Y-27711796D01*
X41879777Y-27691757D01*
X42029841Y-27665491D01*
X42215345Y-27633267D01*
X42434710Y-27595350D01*
X42686362Y-27552008D01*
X42968722Y-27503508D01*
X43280214Y-27450116D01*
X43619262Y-27392099D01*
X43984289Y-27329725D01*
X44373717Y-27263259D01*
X44785970Y-27192969D01*
X45219472Y-27119122D01*
X45672646Y-27041984D01*
X46143914Y-26961823D01*
X46631701Y-26878905D01*
X47134428Y-26793496D01*
X47650521Y-26705865D01*
X48178401Y-26616277D01*
X48716492Y-26525000D01*
X49263218Y-26432300D01*
X49817001Y-26338444D01*
X50376266Y-26243700D01*
X50939434Y-26148333D01*
X51504930Y-26052611D01*
X52071176Y-25956800D01*
X52636596Y-25861168D01*
X53199613Y-25765981D01*
X53758650Y-25671506D01*
X54312132Y-25578010D01*
X54858479Y-25485760D01*
X55396117Y-25395023D01*
X55923469Y-25306065D01*
X56438956Y-25219153D01*
X56941004Y-25134554D01*
X57428035Y-25052536D01*
X57898472Y-24973364D01*
X58350738Y-24897306D01*
X58783258Y-24824628D01*
X59194453Y-24755598D01*
X59582748Y-24690482D01*
X59946565Y-24629546D01*
X60284328Y-24573059D01*
X60594460Y-24521286D01*
X60875385Y-24474495D01*
X61125525Y-24432953D01*
X61343303Y-24396925D01*
X61527144Y-24366680D01*
X61675470Y-24342483D01*
X61786705Y-24324603D01*
X61859271Y-24313305D01*
X61862800Y-24312776D01*
X61966598Y-24297139D01*
X62110104Y-24275272D01*
X62291205Y-24247502D01*
X62507788Y-24214160D01*
X62757738Y-24175573D01*
X63038943Y-24132070D01*
X63349288Y-24083980D01*
X63686660Y-24031631D01*
X64048945Y-23975352D01*
X64434030Y-23915472D01*
X64839801Y-23852319D01*
X65264144Y-23786221D01*
X65704946Y-23717508D01*
X66160094Y-23646508D01*
X66627474Y-23573550D01*
X67104971Y-23498961D01*
X67590473Y-23423072D01*
X68081866Y-23346210D01*
X68413884Y-23294247D01*
X68933105Y-23212967D01*
X69460923Y-23130342D01*
X69994375Y-23046836D01*
X70530496Y-22962913D01*
X71066321Y-22879037D01*
X71598886Y-22795672D01*
X72125225Y-22713282D01*
X72642376Y-22632331D01*
X73147373Y-22553284D01*
X73637251Y-22476603D01*
X74109046Y-22402754D01*
X74559794Y-22332199D01*
X74986530Y-22265405D01*
X75386289Y-22202833D01*
X75756108Y-22144949D01*
X76093021Y-22092216D01*
X76394064Y-22045099D01*
X76656272Y-22004061D01*
X76658300Y-22003744D01*
X77056904Y-21941378D01*
X77415760Y-21885254D01*
X77736935Y-21835023D01*
X78022498Y-21790338D01*
X78274517Y-21750851D01*
X78495062Y-21716214D01*
X78686201Y-21686081D01*
X78850002Y-21660103D01*
X78988534Y-21637933D01*
X79103866Y-21619222D01*
X79198065Y-21603625D01*
X79273200Y-21590792D01*
X79331341Y-21580376D01*
X79374555Y-21572030D01*
X79404912Y-21565406D01*
X79424478Y-21560156D01*
X79435324Y-21555932D01*
X79439518Y-21552388D01*
X79439128Y-21549175D01*
X79436223Y-21545947D01*
X79432871Y-21542354D01*
X79431141Y-21538050D01*
X79431134Y-21537755D01*
X79438188Y-21503407D01*
X79456426Y-21444275D01*
X79475079Y-21391700D01*
X79539123Y-21271330D01*
X79634316Y-21157439D01*
X79749754Y-21061361D01*
X79845431Y-21006719D01*
X79908721Y-20983866D01*
X80005800Y-20956407D01*
X80128590Y-20925976D01*
X80269009Y-20894203D01*
X80418975Y-20862722D01*
X80570410Y-20833163D01*
X80715231Y-20807160D01*
X80845358Y-20786344D01*
X80952710Y-20772347D01*
X81029207Y-20766802D01*
X81033467Y-20766772D01*
X81240086Y-20784353D01*
X81428567Y-20836198D01*
X81594810Y-20920775D01*
X81723105Y-21024689D01*
X81781056Y-21079513D01*
X81820183Y-21106863D01*
X81848963Y-21111625D01*
X81864200Y-21105989D01*
X81883002Y-21088959D01*
X81930037Y-21043363D01*
X82003775Y-20970734D01*
X82102685Y-20872609D01*
X82225234Y-20750524D01*
X82369894Y-20606012D01*
X82535131Y-20440611D01*
X82719415Y-20255855D01*
X82921216Y-20053280D01*
X83139001Y-19834421D01*
X83371240Y-19600814D01*
X83616402Y-19353994D01*
X83872956Y-19095496D01*
X84139370Y-18826857D01*
X84414113Y-18549610D01*
X84524767Y-18437891D01*
X84872713Y-18086406D01*
X85191763Y-17763813D01*
X85482941Y-17469058D01*
X85747274Y-17201085D01*
X85985785Y-16958841D01*
X86199501Y-16741270D01*
X86389446Y-16547317D01*
X86556646Y-16375929D01*
X86702125Y-16226049D01*
X86826908Y-16096623D01*
X86932022Y-15986597D01*
X87018490Y-15894916D01*
X87087338Y-15820525D01*
X87139591Y-15762369D01*
X87176275Y-15719394D01*
X87198413Y-15690544D01*
X87204676Y-15680478D01*
X87229173Y-15625848D01*
X87262835Y-15539023D01*
X87302662Y-15428356D01*
X87345656Y-15302201D01*
X87388818Y-15168911D01*
X87392383Y-15157567D01*
X87455883Y-14960622D01*
X87512986Y-14798176D01*
X87567171Y-14663565D01*
X87621915Y-14550121D01*
X87680695Y-14451178D01*
X87746988Y-14360072D01*
X87824273Y-14270135D01*
X87892923Y-14198031D01*
X88078613Y-14038393D01*
X88286445Y-13912166D01*
X88511523Y-13820192D01*
X88748947Y-13763312D01*
X88993819Y-13742366D01*
X89241240Y-13758196D01*
X89486313Y-13811642D01*
X89692951Y-13889006D01*
X89798836Y-13942237D01*
X89901677Y-14005895D01*
X90007478Y-14084759D01*
X90122246Y-14183604D01*
X90251986Y-14307207D01*
X90374300Y-14430948D01*
X90516675Y-14583179D01*
X90629636Y-14717528D01*
X90717806Y-14841287D01*
X90785806Y-14961747D01*
X90838258Y-15086200D01*
X90879785Y-15221937D01*
X90882598Y-15232816D01*
X90888348Y-15253422D01*
X90894122Y-15271397D01*
X90899770Y-15287699D01*
X90905142Y-15303287D01*
X90910088Y-15319120D01*
X90914460Y-15336154D01*
X90918108Y-15355350D01*
X90920881Y-15377665D01*
X90922630Y-15404058D01*
X90923205Y-15435487D01*
X90922458Y-15472910D01*
X90920237Y-15517286D01*
X90916394Y-15569574D01*
X90910779Y-15630731D01*
X90903243Y-15701716D01*
X90893634Y-15783487D01*
X90881805Y-15877004D01*
X90867605Y-15983223D01*
X90850884Y-16103105D01*
X90831494Y-16237606D01*
X90809284Y-16387685D01*
X90784104Y-16554302D01*
X90755806Y-16738413D01*
X90724239Y-16940978D01*
X90689254Y-17162955D01*
X90650700Y-17405303D01*
X90608430Y-17668979D01*
X90562292Y-17954942D01*
X90512137Y-18264151D01*
X90457815Y-18597563D01*
X90399178Y-18956138D01*
X90336074Y-19340834D01*
X90268355Y-19752609D01*
X90195871Y-20192421D01*
X90118473Y-20661229D01*
X90036009Y-21159991D01*
X89948332Y-21689666D01*
X89855291Y-22251212D01*
X89756737Y-22845587D01*
X89652519Y-23473750D01*
X89542489Y-24136659D01*
X89426497Y-24835273D01*
X89304393Y-25570550D01*
X89176027Y-26343448D01*
X89041250Y-27154926D01*
X88899912Y-28005942D01*
X88751863Y-28897455D01*
X88702377Y-29195474D01*
X88578380Y-29942113D01*
X88456018Y-30678640D01*
X88335478Y-31403940D01*
X88216947Y-32116898D01*
X88100610Y-32816399D01*
X87986654Y-33501328D01*
X87875264Y-34170571D01*
X87766629Y-34823013D01*
X87660932Y-35457539D01*
X87558362Y-36073034D01*
X87459104Y-36668384D01*
X87363345Y-37242473D01*
X87271270Y-37794187D01*
X87183066Y-38322412D01*
X87098920Y-38826031D01*
X87019018Y-39303932D01*
X86943545Y-39754998D01*
X86872688Y-40178115D01*
X86806634Y-40572168D01*
X86745569Y-40936043D01*
X86689679Y-41268625D01*
X86639150Y-41568798D01*
X86594169Y-41835449D01*
X86554922Y-42067462D01*
X86521595Y-42263722D01*
X86494374Y-42423115D01*
X86473447Y-42544526D01*
X86458998Y-42626841D01*
X86451214Y-42668944D01*
X86450023Y-42674234D01*
X86426967Y-42745200D01*
X86403598Y-42810409D01*
X86377814Y-42872382D01*
X86347513Y-42933641D01*
X86310592Y-42996707D01*
X86264950Y-43064102D01*
X86208482Y-43138347D01*
X86139088Y-43221965D01*
X86054665Y-43317478D01*
X85953110Y-43427406D01*
X85832322Y-43554272D01*
X85690197Y-43700597D01*
X85524634Y-43868903D01*
X85333529Y-44061712D01*
X85114781Y-44281546D01*
X85085481Y-44310959D01*
X84905715Y-44490978D01*
X84731858Y-44664262D01*
X84566644Y-44828135D01*
X84412809Y-44979922D01*
X84273089Y-45116947D01*
X84150220Y-45236533D01*
X84046935Y-45336005D01*
X83965972Y-45412687D01*
X83910066Y-45463902D01*
X83886717Y-45483619D01*
X83728346Y-45587165D01*
X83545489Y-45678174D01*
X83355811Y-45748045D01*
X83325800Y-45756746D01*
X83215982Y-45778110D01*
X83077797Y-45791428D01*
X82924442Y-45796688D01*
X82769114Y-45793878D01*
X82625010Y-45782984D01*
X82505326Y-45763996D01*
X82479134Y-45757540D01*
X82259750Y-45679503D01*
X82047389Y-45569398D01*
X81855589Y-45434747D01*
X81781217Y-45369681D01*
X81704564Y-45293990D01*
X81633449Y-45217451D01*
X81577830Y-45151085D01*
X81555366Y-45119677D01*
X81483139Y-45034818D01*
X81377327Y-44950321D01*
X81246360Y-44871746D01*
X81098667Y-44804658D01*
X81052035Y-44787490D01*
X80881050Y-44727967D01*
X80243509Y-44727683D01*
X79605969Y-44727400D01*
X79578615Y-44825098D01*
X79538226Y-44921185D01*
X79473332Y-45024497D01*
X79395051Y-45119389D01*
X79323985Y-45183454D01*
X79262897Y-45220898D01*
X79183717Y-45259810D01*
X79136260Y-45279329D01*
X79074641Y-45296922D01*
X78979098Y-45317528D01*
X78857834Y-45339943D01*
X78719048Y-45362964D01*
X78570941Y-45385390D01*
X78421713Y-45406016D01*
X78279564Y-45423640D01*
X78152695Y-45437059D01*
X78049307Y-45445070D01*
X77994437Y-45446816D01*
X77800865Y-45428488D01*
X77619610Y-45376348D01*
X77456288Y-45293601D01*
X77316513Y-45183450D01*
X77205900Y-45049099D01*
X77162427Y-44972092D01*
X77129513Y-44916685D01*
X77097262Y-44881804D01*
X77082707Y-44875629D01*
X77058742Y-44878922D01*
X76995041Y-44888570D01*
X76893673Y-44904247D01*
X76756703Y-44925624D01*
X76586201Y-44952376D01*
X76384232Y-44984174D01*
X76152865Y-45020691D01*
X75894166Y-45061601D01*
X75610203Y-45106576D01*
X75303044Y-45155290D01*
X74974754Y-45207414D01*
X74627403Y-45262621D01*
X74263057Y-45320586D01*
X73883784Y-45380980D01*
X73491650Y-45443476D01*
X73134050Y-45500514D01*
X72124551Y-45661592D01*
X71155999Y-45816132D01*
X70227537Y-45964271D01*
X69338308Y-46106142D01*
X68487453Y-46241883D01*
X67674117Y-46371626D01*
X66897442Y-46495509D01*
X66156571Y-46613666D01*
X65450646Y-46726232D01*
X64778811Y-46833343D01*
X64140208Y-46935134D01*
X63533980Y-47031740D01*
X62959269Y-47123296D01*
X62415220Y-47209937D01*
X61900973Y-47291800D01*
X61415673Y-47369018D01*
X60958462Y-47441727D01*
X60528482Y-47510064D01*
X60124877Y-47574161D01*
X59746789Y-47634156D01*
X59393362Y-47690183D01*
X59063738Y-47742377D01*
X58757059Y-47790874D01*
X58472469Y-47835808D01*
X58209110Y-47877316D01*
X57966125Y-47915532D01*
X57742658Y-47950592D01*
X57537850Y-47982630D01*
X57350845Y-48011783D01*
X57180785Y-48038184D01*
X57026813Y-48061970D01*
X56888072Y-48083276D01*
X56763705Y-48102237D01*
X56652855Y-48118988D01*
X56554664Y-48133664D01*
X56468275Y-48146401D01*
X56392831Y-48157334D01*
X56327475Y-48166598D01*
X56271349Y-48174328D01*
X56223597Y-48180660D01*
X56183361Y-48185729D01*
X56149784Y-48189669D01*
X56122008Y-48192617D01*
X56099178Y-48194707D01*
X56080434Y-48196076D01*
X56064921Y-48196857D01*
X56051781Y-48197186D01*
X56040438Y-48197201D01*
X55929364Y-48191089D01*
X55808363Y-48176513D01*
X55703290Y-48156603D01*
X55701605Y-48156191D01*
X55467056Y-48081247D01*
X55257197Y-47976222D01*
X55064412Y-47836709D01*
X54928094Y-47708494D01*
X54893978Y-47670898D01*
X54835255Y-47603505D01*
X54754303Y-47509135D01*
X54653500Y-47390608D01*
X54535226Y-47250745D01*
X54401858Y-47092364D01*
X54255776Y-46918287D01*
X54099357Y-46731334D01*
X53934980Y-46534324D01*
X53765025Y-46330078D01*
X53734830Y-46293734D01*
X53565062Y-46089544D01*
X53401177Y-45892826D01*
X53245467Y-45706308D01*
X53100228Y-45532720D01*
X52967754Y-45374793D01*
X52850337Y-45235255D01*
X52750273Y-45116837D01*
X52669855Y-45022269D01*
X52611377Y-44954280D01*
X52577134Y-44915600D01*
X52573286Y-44911509D01*
X52432839Y-44794194D01*
X52274208Y-44715090D01*
X52097152Y-44674086D01*
X52034154Y-44668874D01*
X52010880Y-44669034D01*
X51973077Y-44671201D01*
X51919612Y-44675514D01*
X51849349Y-44682113D01*
X51761155Y-44691136D01*
X51653894Y-44702723D01*
X51526434Y-44717014D01*
X51377638Y-44734147D01*
X51206374Y-44754263D01*
X51011505Y-44777499D01*
X50791899Y-44803996D01*
X50546421Y-44833892D01*
X50273935Y-44867328D01*
X49973309Y-44904442D01*
X49643406Y-44945374D01*
X49283094Y-44990263D01*
X48891238Y-45039247D01*
X48466702Y-45092468D01*
X48008354Y-45150063D01*
X47515058Y-45212173D01*
X46985679Y-45278936D01*
X46419085Y-45350492D01*
X45814140Y-45426979D01*
X45169709Y-45508538D01*
X44484659Y-45595308D01*
X44336800Y-45614044D01*
X43298322Y-45745641D01*
X42301002Y-45872018D01*
X41344004Y-45993279D01*
X40426489Y-46109530D01*
X39547618Y-46220875D01*
X38706554Y-46327420D01*
X37902460Y-46429270D01*
X37134496Y-46526530D01*
X36401825Y-46619305D01*
X35703608Y-46707700D01*
X35039009Y-46791821D01*
X34407188Y-46871772D01*
X33807309Y-46947659D01*
X33238532Y-47019586D01*
X32700019Y-47087660D01*
X32190934Y-47151984D01*
X31710437Y-47212664D01*
X31257691Y-47269806D01*
X30831857Y-47323514D01*
X30432099Y-47373894D01*
X30057577Y-47421050D01*
X29707453Y-47465087D01*
X29380890Y-47506112D01*
X29077050Y-47544229D01*
X28795095Y-47579542D01*
X28534186Y-47612158D01*
X28293485Y-47642181D01*
X28072155Y-47669717D01*
X27869358Y-47694870D01*
X27684255Y-47717745D01*
X27516009Y-47738449D01*
X27363781Y-47757085D01*
X27226734Y-47773760D01*
X27104029Y-47788578D01*
X26994828Y-47801644D01*
X26898294Y-47813063D01*
X26813588Y-47822941D01*
X26739873Y-47831382D01*
X26676310Y-47838493D01*
X26622062Y-47844377D01*
X26576290Y-47849140D01*
X26538156Y-47852887D01*
X26506822Y-47855724D01*
X26481451Y-47857755D01*
X26461204Y-47859085D01*
X26445243Y-47859820D01*
X26432731Y-47860065D01*
X26431731Y-47860067D01*
X26182989Y-47839824D01*
X25945938Y-47781102D01*
X25723864Y-47686912D01*
X25520050Y-47560265D01*
X25337779Y-47404172D01*
X25180335Y-47221644D01*
X25051002Y-47015692D01*
X24953063Y-46789326D01*
X24889803Y-46545559D01*
X24873559Y-46431317D01*
X24871991Y-46381822D01*
X24873309Y-46295210D01*
X24877201Y-46176575D01*
X24883353Y-46031014D01*
X24891452Y-45863620D01*
X24901184Y-45679488D01*
X24912235Y-45483715D01*
X24924294Y-45281394D01*
X24937045Y-45077620D01*
X24950175Y-44877490D01*
X24963372Y-44686096D01*
X24976322Y-44508535D01*
X24988710Y-44349902D01*
X25000225Y-44215291D01*
X25010551Y-44109798D01*
X25019377Y-44038516D01*
X25021586Y-44025107D01*
X25055408Y-43871582D01*
X25100377Y-43732726D01*
X25160506Y-43601842D01*
X25239810Y-43472230D01*
X25342304Y-43337193D01*
X25472002Y-43190032D01*
X25604300Y-43052758D01*
X25655100Y-43002118D01*
X25734020Y-42924241D01*
X25839952Y-42820201D01*
X25971792Y-42691073D01*
X26128431Y-42537930D01*
X26308764Y-42361846D01*
X26511683Y-42163895D01*
X26736083Y-41945151D01*
X26980856Y-41706688D01*
X27244896Y-41449578D01*
X27527097Y-41174898D01*
X27826351Y-40883719D01*
X28141552Y-40577116D01*
X28471593Y-40256163D01*
X28815369Y-39921934D01*
X29171771Y-39575503D01*
X29539694Y-39217943D01*
X29918032Y-38850328D01*
X30305676Y-38473732D01*
X30701521Y-38089229D01*
X31104461Y-37697893D01*
X31513388Y-37300798D01*
X31927195Y-36899017D01*
X32344778Y-36493625D01*
X32765027Y-36085695D01*
X33186838Y-35676301D01*
X33609104Y-35266516D01*
X34030717Y-34857416D01*
X34450571Y-34450073D01*
X34867560Y-34045562D01*
X35280577Y-33644956D01*
X35688515Y-33249329D01*
X35813529Y-33128104D01*
%TD*%
M02*
