%TF.GenerationSoftware,KiCad,Pcbnew,(7.0.0)*%
%TF.CreationDate,2023-05-30T20:10:02-04:00*%
%TF.ProjectId,H4X0R,48345830-522e-46b6-9963-61645f706362,rev?*%
%TF.SameCoordinates,Original*%
%TF.FileFunction,Copper,L2,Bot*%
%TF.FilePolarity,Positive*%
%FSLAX46Y46*%
G04 Gerber Fmt 4.6, Leading zero omitted, Abs format (unit mm)*
G04 Created by KiCad (PCBNEW (7.0.0)) date 2023-05-30 20:10:02*
%MOMM*%
%LPD*%
G01*
G04 APERTURE LIST*
%ADD10C,0.300000*%
%TA.AperFunction,NonConductor*%
%ADD11C,0.300000*%
%TD*%
G04 APERTURE END LIST*
D10*
D11*
X65006598Y-30900064D02*
X65190252Y-30681194D01*
X65190252Y-30681194D02*
X65336796Y-30617673D01*
X65336796Y-30617673D02*
X65437427Y-30608869D01*
X65437427Y-30608869D02*
X65693406Y-30637174D01*
X65693406Y-30637174D02*
X65958190Y-30766110D01*
X65958190Y-30766110D02*
X66395929Y-31133417D01*
X66395929Y-31133417D02*
X66459451Y-31279962D01*
X66459451Y-31279962D02*
X66468255Y-31380593D01*
X66468255Y-31380593D02*
X66431146Y-31535941D01*
X66431146Y-31535941D02*
X66247492Y-31754811D01*
X66247492Y-31754811D02*
X66100948Y-31818332D01*
X66100948Y-31818332D02*
X66000317Y-31827136D01*
X66000317Y-31827136D02*
X65844968Y-31790027D01*
X65844968Y-31790027D02*
X65571381Y-31560460D01*
X65571381Y-31560460D02*
X65507860Y-31413916D01*
X65507860Y-31413916D02*
X65499056Y-31313285D01*
X65499056Y-31313285D02*
X65536165Y-31157937D01*
X65536165Y-31157937D02*
X65719819Y-30939067D01*
X65719819Y-30939067D02*
X65866363Y-30875545D01*
X65866363Y-30875545D02*
X65966994Y-30866741D01*
X65966994Y-30866741D02*
X66122342Y-30903850D01*
X64856268Y-32079329D02*
X64893378Y-31923981D01*
X64893378Y-31923981D02*
X64884574Y-31823350D01*
X64884574Y-31823350D02*
X64821052Y-31676806D01*
X64821052Y-31676806D02*
X64766335Y-31630892D01*
X64766335Y-31630892D02*
X64610986Y-31593783D01*
X64610986Y-31593783D02*
X64510355Y-31602587D01*
X64510355Y-31602587D02*
X64363811Y-31666108D01*
X64363811Y-31666108D02*
X64180157Y-31884978D01*
X64180157Y-31884978D02*
X64143048Y-32040327D01*
X64143048Y-32040327D02*
X64151852Y-32140957D01*
X64151852Y-32140957D02*
X64215374Y-32287502D01*
X64215374Y-32287502D02*
X64270091Y-32333415D01*
X64270091Y-32333415D02*
X64425440Y-32370524D01*
X64425440Y-32370524D02*
X64526070Y-32361720D01*
X64526070Y-32361720D02*
X64672615Y-32298199D01*
X64672615Y-32298199D02*
X64856268Y-32079329D01*
X64856268Y-32079329D02*
X65002813Y-32015807D01*
X65002813Y-32015807D02*
X65103443Y-32007003D01*
X65103443Y-32007003D02*
X65258792Y-32044113D01*
X65258792Y-32044113D02*
X65477662Y-32227766D01*
X65477662Y-32227766D02*
X65541183Y-32374311D01*
X65541183Y-32374311D02*
X65549987Y-32474941D01*
X65549987Y-32474941D02*
X65512878Y-32630290D01*
X65512878Y-32630290D02*
X65329224Y-32849160D01*
X65329224Y-32849160D02*
X65182680Y-32912681D01*
X65182680Y-32912681D02*
X65082049Y-32921485D01*
X65082049Y-32921485D02*
X64926701Y-32884376D01*
X64926701Y-32884376D02*
X64707831Y-32700722D01*
X64707831Y-32700722D02*
X64644309Y-32554178D01*
X64644309Y-32554178D02*
X64635505Y-32453547D01*
X64635505Y-32453547D02*
X64672615Y-32298199D01*
X63675110Y-32486870D02*
X63032323Y-33252914D01*
X63032323Y-33252914D02*
X64594610Y-33724639D01*
X62634817Y-34504505D02*
X63400862Y-35147292D01*
X62426645Y-33863610D02*
X63476974Y-34278724D01*
X63476974Y-34278724D02*
X62880099Y-34990051D01*
X61838575Y-34675568D02*
X61195787Y-35441612D01*
X61195787Y-35441612D02*
X62758075Y-35913336D01*
X60798282Y-36693202D02*
X61564326Y-37335990D01*
X60590109Y-36052308D02*
X61640438Y-36467422D01*
X61640438Y-36467422D02*
X61043564Y-37178749D01*
X60002039Y-36864265D02*
X59359252Y-37630310D01*
X59359252Y-37630310D02*
X60921539Y-38102034D01*
X58808291Y-38286919D02*
X58716464Y-38396354D01*
X58716464Y-38396354D02*
X58679355Y-38551702D01*
X58679355Y-38551702D02*
X58688159Y-38652333D01*
X58688159Y-38652333D02*
X58751681Y-38798877D01*
X58751681Y-38798877D02*
X58924637Y-39037249D01*
X58924637Y-39037249D02*
X59198224Y-39266816D01*
X59198224Y-39266816D02*
X59463008Y-39395752D01*
X59463008Y-39395752D02*
X59618356Y-39432861D01*
X59618356Y-39432861D02*
X59718987Y-39424057D01*
X59718987Y-39424057D02*
X59865531Y-39360535D01*
X59865531Y-39360535D02*
X59957358Y-39251101D01*
X59957358Y-39251101D02*
X59994467Y-39095752D01*
X59994467Y-39095752D02*
X59985663Y-38995121D01*
X59985663Y-38995121D02*
X59922142Y-38848577D01*
X59922142Y-38848577D02*
X59749185Y-38610206D01*
X59749185Y-38610206D02*
X59475598Y-38380639D01*
X59475598Y-38380639D02*
X59210815Y-38251703D01*
X59210815Y-38251703D02*
X59055466Y-38214594D01*
X59055466Y-38214594D02*
X58954836Y-38223398D01*
X58954836Y-38223398D02*
X58808291Y-38286919D01*
X58165504Y-39052963D02*
X57522716Y-39819008D01*
X57522716Y-39819008D02*
X59085004Y-40290732D01*
X57247236Y-40147312D02*
X56650362Y-40858639D01*
X56650362Y-40858639D02*
X57409495Y-40842924D01*
X57409495Y-40842924D02*
X57271755Y-41007076D01*
X57271755Y-41007076D02*
X57234646Y-41162425D01*
X57234646Y-41162425D02*
X57243450Y-41263056D01*
X57243450Y-41263056D02*
X57306972Y-41409600D01*
X57306972Y-41409600D02*
X57580559Y-41639167D01*
X57580559Y-41639167D02*
X57735907Y-41676276D01*
X57735907Y-41676276D02*
X57836538Y-41667472D01*
X57836538Y-41667472D02*
X57983082Y-41603951D01*
X57983082Y-41603951D02*
X58258563Y-41275646D01*
X58258563Y-41275646D02*
X58295672Y-41120298D01*
X58295672Y-41120298D02*
X58286868Y-41019667D01*
X56328968Y-41241661D02*
X55732094Y-41952988D01*
X55732094Y-41952988D02*
X56491228Y-41937273D01*
X56491228Y-41937273D02*
X56353488Y-42101425D01*
X56353488Y-42101425D02*
X56316378Y-42256774D01*
X56316378Y-42256774D02*
X56325182Y-42357405D01*
X56325182Y-42357405D02*
X56388704Y-42503949D01*
X56388704Y-42503949D02*
X56662291Y-42733516D01*
X56662291Y-42733516D02*
X56817639Y-42770625D01*
X56817639Y-42770625D02*
X56918270Y-42761821D01*
X56918270Y-42761821D02*
X57064815Y-42698300D01*
X57064815Y-42698300D02*
X57340295Y-42369995D01*
X57340295Y-42369995D02*
X57377404Y-42214646D01*
X57377404Y-42214646D02*
X57368600Y-42114016D01*
X56054720Y-43902083D02*
X55452828Y-43397036D01*
X55452828Y-43397036D02*
X55389306Y-43250492D01*
X55389306Y-43250492D02*
X55426416Y-43095143D01*
X55426416Y-43095143D02*
X55610069Y-42876274D01*
X55610069Y-42876274D02*
X55756614Y-42812752D01*
X56000003Y-43856170D02*
X56146547Y-43792648D01*
X56146547Y-43792648D02*
X56376114Y-43519061D01*
X56376114Y-43519061D02*
X56413223Y-43363713D01*
X56413223Y-43363713D02*
X56349702Y-43217169D01*
X56349702Y-43217169D02*
X56240267Y-43125342D01*
X56240267Y-43125342D02*
X56084918Y-43088232D01*
X56084918Y-43088232D02*
X55938374Y-43151754D01*
X55938374Y-43151754D02*
X55708807Y-43425341D01*
X55708807Y-43425341D02*
X55562263Y-43488863D01*
X54601868Y-43522186D02*
X54501237Y-43530990D01*
X54501237Y-43530990D02*
X54354692Y-43594512D01*
X54354692Y-43594512D02*
X54125125Y-43868099D01*
X54125125Y-43868099D02*
X54088016Y-44023447D01*
X54088016Y-44023447D02*
X54096820Y-44124078D01*
X54096820Y-44124078D02*
X54160342Y-44270622D01*
X54160342Y-44270622D02*
X54269777Y-44362449D01*
X54269777Y-44362449D02*
X54479842Y-44445472D01*
X54479842Y-44445472D02*
X55687413Y-44339823D01*
X55687413Y-44339823D02*
X55090538Y-45051150D01*
X54049014Y-44736667D02*
X53681707Y-45174407D01*
X54677318Y-45543607D02*
X53692404Y-44717166D01*
X53692404Y-44717166D02*
X53537056Y-44680056D01*
X53537056Y-44680056D02*
X53390511Y-44743578D01*
X53390511Y-44743578D02*
X53298684Y-44853013D01*
X53132639Y-45273144D02*
X53032008Y-45281949D01*
X53032008Y-45281949D02*
X52885464Y-45345470D01*
X52885464Y-45345470D02*
X52655897Y-45619057D01*
X52655897Y-45619057D02*
X52618787Y-45774406D01*
X52618787Y-45774406D02*
X52627591Y-45875037D01*
X52627591Y-45875037D02*
X52691113Y-46021581D01*
X52691113Y-46021581D02*
X52800548Y-46113408D01*
X52800548Y-46113408D02*
X53010614Y-46196430D01*
X53010614Y-46196430D02*
X54218184Y-46090782D01*
X54218184Y-46090782D02*
X53621310Y-46802109D01*
X52579785Y-46487625D02*
X52212478Y-46925365D01*
X53208089Y-47294565D02*
X52223175Y-46468124D01*
X52223175Y-46468124D02*
X52067827Y-46431015D01*
X52067827Y-46431015D02*
X51921283Y-46494536D01*
X51921283Y-46494536D02*
X51829456Y-46603971D01*
X51599889Y-46877559D02*
X50957101Y-47643603D01*
X50957101Y-47643603D02*
X52519388Y-48115327D01*
X50681621Y-47971908D02*
X50038833Y-48737952D01*
X50038833Y-48737952D02*
X51601121Y-49209676D01*
X49763353Y-49066256D02*
X49120566Y-49832301D01*
X49120566Y-49832301D02*
X50682853Y-50304025D01*
X48845086Y-50160605D02*
X48202298Y-50926650D01*
X48202298Y-50926650D02*
X49764585Y-51398374D01*
X47926818Y-51254954D02*
X47284030Y-52020999D01*
X47284030Y-52020999D02*
X48846317Y-52492723D01*
X47008550Y-52349303D02*
X46365762Y-53115348D01*
X46365762Y-53115348D02*
X47928050Y-53587072D01*
X46153804Y-53590196D02*
X46053173Y-53599000D01*
X46053173Y-53599000D02*
X45906629Y-53662522D01*
X45906629Y-53662522D02*
X45677062Y-53936109D01*
X45677062Y-53936109D02*
X45639952Y-54091457D01*
X45639952Y-54091457D02*
X45648756Y-54192088D01*
X45648756Y-54192088D02*
X45712278Y-54338633D01*
X45712278Y-54338633D02*
X45821713Y-54430459D01*
X45821713Y-54430459D02*
X46031779Y-54513482D01*
X46031779Y-54513482D02*
X47239349Y-54407833D01*
X47239349Y-54407833D02*
X46642475Y-55119160D01*
X45807230Y-56003443D02*
X45953774Y-55939922D01*
X45953774Y-55939922D02*
X46137428Y-55721052D01*
X46137428Y-55721052D02*
X46174537Y-55565704D01*
X46174537Y-55565704D02*
X46111015Y-55419160D01*
X46111015Y-55419160D02*
X45673276Y-55051852D01*
X45673276Y-55051852D02*
X45517927Y-55014743D01*
X45517927Y-55014743D02*
X45371383Y-55078265D01*
X45371383Y-55078265D02*
X45187730Y-55297134D01*
X45187730Y-55297134D02*
X45150620Y-55452483D01*
X45150620Y-55452483D02*
X45214142Y-55599027D01*
X45214142Y-55599027D02*
X45323577Y-55690854D01*
X45323577Y-55690854D02*
X45892146Y-55235506D01*
X44345574Y-55522915D02*
X43702786Y-56288959D01*
X43702786Y-56288959D02*
X45265073Y-56760684D01*
X44438632Y-57745598D02*
X44254979Y-57964467D01*
X44254979Y-57964467D02*
X44108434Y-58027989D01*
X44108434Y-58027989D02*
X44007804Y-58036793D01*
X44007804Y-58036793D02*
X43751824Y-58008488D01*
X43751824Y-58008488D02*
X43487041Y-57879552D01*
X43487041Y-57879552D02*
X43049301Y-57512244D01*
X43049301Y-57512244D02*
X42985780Y-57365700D01*
X42985780Y-57365700D02*
X42976976Y-57265069D01*
X42976976Y-57265069D02*
X43014085Y-57109721D01*
X43014085Y-57109721D02*
X43197739Y-56890851D01*
X43197739Y-56890851D02*
X43344283Y-56827330D01*
X43344283Y-56827330D02*
X43444914Y-56818526D01*
X43444914Y-56818526D02*
X43600262Y-56855635D01*
X43600262Y-56855635D02*
X43873850Y-57085202D01*
X43873850Y-57085202D02*
X43937371Y-57231746D01*
X43937371Y-57231746D02*
X43946175Y-57332377D01*
X43946175Y-57332377D02*
X43909066Y-57487725D01*
X43909066Y-57487725D02*
X43725412Y-57706595D01*
X43725412Y-57706595D02*
X43578868Y-57770117D01*
X43578868Y-57770117D02*
X43478237Y-57778921D01*
X43478237Y-57778921D02*
X43322889Y-57741811D01*
X42003991Y-58313505D02*
X42187644Y-58094635D01*
X42187644Y-58094635D02*
X42334189Y-58031113D01*
X42334189Y-58031113D02*
X42434819Y-58022309D01*
X42434819Y-58022309D02*
X42690799Y-58050615D01*
X42690799Y-58050615D02*
X42955582Y-58179551D01*
X42955582Y-58179551D02*
X43393321Y-58546858D01*
X43393321Y-58546858D02*
X43456843Y-58693402D01*
X43456843Y-58693402D02*
X43465647Y-58794033D01*
X43465647Y-58794033D02*
X43428538Y-58949381D01*
X43428538Y-58949381D02*
X43244884Y-59168251D01*
X43244884Y-59168251D02*
X43098340Y-59231773D01*
X43098340Y-59231773D02*
X42997709Y-59240577D01*
X42997709Y-59240577D02*
X42842361Y-59203467D01*
X42842361Y-59203467D02*
X42568773Y-58973900D01*
X42568773Y-58973900D02*
X42505252Y-58827356D01*
X42505252Y-58827356D02*
X42496448Y-58726725D01*
X42496448Y-58726725D02*
X42533557Y-58571377D01*
X42533557Y-58571377D02*
X42717211Y-58352507D01*
X42717211Y-58352507D02*
X42863755Y-58288986D01*
X42863755Y-58288986D02*
X42964386Y-58280182D01*
X42964386Y-58280182D02*
X43119734Y-58317291D01*
X42019706Y-59072638D02*
X41652399Y-59510378D01*
X42648010Y-59879578D02*
X41663096Y-59053137D01*
X41663096Y-59053137D02*
X41507748Y-59016027D01*
X41507748Y-59016027D02*
X41361203Y-59079549D01*
X41361203Y-59079549D02*
X41269377Y-59188984D01*
X41039809Y-59462571D02*
X40397022Y-60228616D01*
X40397022Y-60228616D02*
X41959309Y-60700340D01*
X39570581Y-61213530D02*
X40029715Y-60666355D01*
X40029715Y-60666355D02*
X40622803Y-61070772D01*
X40622803Y-61070772D02*
X40522172Y-61079576D01*
X40522172Y-61079576D02*
X40375628Y-61143097D01*
X40375628Y-61143097D02*
X40146061Y-61416684D01*
X40146061Y-61416684D02*
X40108951Y-61572033D01*
X40108951Y-61572033D02*
X40117755Y-61672664D01*
X40117755Y-61672664D02*
X40181277Y-61819208D01*
X40181277Y-61819208D02*
X40454864Y-62048775D01*
X40454864Y-62048775D02*
X40610213Y-62085884D01*
X40610213Y-62085884D02*
X40710843Y-62077080D01*
X40710843Y-62077080D02*
X40857388Y-62013559D01*
X40857388Y-62013559D02*
X41086955Y-61739971D01*
X41086955Y-61739971D02*
X41124064Y-61584623D01*
X41124064Y-61584623D02*
X41115260Y-61483992D01*
X39203274Y-61651269D02*
X38560486Y-62417313D01*
X38560486Y-62417313D02*
X40122774Y-62889038D01*
X38162981Y-63668904D02*
X38929025Y-64311691D01*
X37954808Y-63028009D02*
X39005137Y-63443123D01*
X39005137Y-63443123D02*
X38408263Y-64154450D01*
X37366738Y-63839967D02*
X36723951Y-64606011D01*
X36723951Y-64606011D02*
X38286238Y-65077735D01*
X35897510Y-65590925D02*
X36356644Y-65043750D01*
X36356644Y-65043750D02*
X36949732Y-65448167D01*
X36949732Y-65448167D02*
X36849101Y-65456971D01*
X36849101Y-65456971D02*
X36702557Y-65520493D01*
X36702557Y-65520493D02*
X36472990Y-65794080D01*
X36472990Y-65794080D02*
X36435880Y-65949428D01*
X36435880Y-65949428D02*
X36444685Y-66050059D01*
X36444685Y-66050059D02*
X36508206Y-66196603D01*
X36508206Y-66196603D02*
X36781793Y-66426170D01*
X36781793Y-66426170D02*
X36937142Y-66463280D01*
X36937142Y-66463280D02*
X37037773Y-66454476D01*
X37037773Y-66454476D02*
X37184317Y-66390954D01*
X37184317Y-66390954D02*
X37413884Y-66117367D01*
X37413884Y-66117367D02*
X37450993Y-65962019D01*
X37450993Y-65962019D02*
X37442189Y-65861388D01*
X35025156Y-66630557D02*
X35208809Y-66411687D01*
X35208809Y-66411687D02*
X35355353Y-66348165D01*
X35355353Y-66348165D02*
X35455984Y-66339361D01*
X35455984Y-66339361D02*
X35711963Y-66367666D01*
X35711963Y-66367666D02*
X35976747Y-66496603D01*
X35976747Y-66496603D02*
X36414486Y-66863910D01*
X36414486Y-66863910D02*
X36478008Y-67010454D01*
X36478008Y-67010454D02*
X36486812Y-67111085D01*
X36486812Y-67111085D02*
X36449703Y-67266433D01*
X36449703Y-67266433D02*
X36266049Y-67485303D01*
X36266049Y-67485303D02*
X36119505Y-67548825D01*
X36119505Y-67548825D02*
X36018874Y-67557629D01*
X36018874Y-67557629D02*
X35863526Y-67520519D01*
X35863526Y-67520519D02*
X35589938Y-67290952D01*
X35589938Y-67290952D02*
X35526417Y-67144408D01*
X35526417Y-67144408D02*
X35517613Y-67043777D01*
X35517613Y-67043777D02*
X35554722Y-66888429D01*
X35554722Y-66888429D02*
X35738376Y-66669559D01*
X35738376Y-66669559D02*
X35884920Y-66606037D01*
X35884920Y-66606037D02*
X35985551Y-66597233D01*
X35985551Y-66597233D02*
X36140899Y-66634343D01*
X34675457Y-67269558D02*
X34574826Y-67278362D01*
X34574826Y-67278362D02*
X34428282Y-67341883D01*
X34428282Y-67341883D02*
X34198715Y-67615470D01*
X34198715Y-67615470D02*
X34161605Y-67770819D01*
X34161605Y-67770819D02*
X34170409Y-67871450D01*
X34170409Y-67871450D02*
X34233931Y-68017994D01*
X34233931Y-68017994D02*
X34343366Y-68109821D01*
X34343366Y-68109821D02*
X34553432Y-68192843D01*
X34553432Y-68192843D02*
X35761002Y-68087195D01*
X35761002Y-68087195D02*
X35164128Y-68798522D01*
X33188620Y-68819254D02*
X33372274Y-68600384D01*
X33372274Y-68600384D02*
X33518818Y-68536863D01*
X33518818Y-68536863D02*
X33619449Y-68528059D01*
X33619449Y-68528059D02*
X33875428Y-68556364D01*
X33875428Y-68556364D02*
X34140211Y-68685300D01*
X34140211Y-68685300D02*
X34577951Y-69052607D01*
X34577951Y-69052607D02*
X34641472Y-69199152D01*
X34641472Y-69199152D02*
X34650277Y-69299783D01*
X34650277Y-69299783D02*
X34613167Y-69455131D01*
X34613167Y-69455131D02*
X34429514Y-69674001D01*
X34429514Y-69674001D02*
X34282969Y-69737522D01*
X34282969Y-69737522D02*
X34182338Y-69746326D01*
X34182338Y-69746326D02*
X34026990Y-69709217D01*
X34026990Y-69709217D02*
X33753403Y-69479650D01*
X33753403Y-69479650D02*
X33689881Y-69333106D01*
X33689881Y-69333106D02*
X33681077Y-69232475D01*
X33681077Y-69232475D02*
X33718187Y-69077127D01*
X33718187Y-69077127D02*
X33901840Y-68858257D01*
X33901840Y-68858257D02*
X34048384Y-68794735D01*
X34048384Y-68794735D02*
X34149015Y-68785931D01*
X34149015Y-68785931D02*
X34304364Y-68823040D01*
X32224439Y-69968321D02*
X32683573Y-69421146D01*
X32683573Y-69421146D02*
X33276661Y-69825563D01*
X33276661Y-69825563D02*
X33176030Y-69834367D01*
X33176030Y-69834367D02*
X33029486Y-69897888D01*
X33029486Y-69897888D02*
X32799919Y-70171475D01*
X32799919Y-70171475D02*
X32762810Y-70326824D01*
X32762810Y-70326824D02*
X32771614Y-70427455D01*
X32771614Y-70427455D02*
X32835135Y-70573999D01*
X32835135Y-70573999D02*
X33108722Y-70803566D01*
X33108722Y-70803566D02*
X33264071Y-70840675D01*
X33264071Y-70840675D02*
X33364702Y-70831871D01*
X33364702Y-70831871D02*
X33511246Y-70768350D01*
X33511246Y-70768350D02*
X33740813Y-70494762D01*
X33740813Y-70494762D02*
X33777922Y-70339414D01*
X33777922Y-70339414D02*
X33769118Y-70238783D01*
X31920654Y-70552604D02*
X31820023Y-70561408D01*
X31820023Y-70561408D02*
X31673478Y-70624930D01*
X31673478Y-70624930D02*
X31443911Y-70898517D01*
X31443911Y-70898517D02*
X31406802Y-71053865D01*
X31406802Y-71053865D02*
X31415606Y-71154496D01*
X31415606Y-71154496D02*
X31479128Y-71301041D01*
X31479128Y-71301041D02*
X31588563Y-71392867D01*
X31588563Y-71392867D02*
X31798628Y-71475890D01*
X31798628Y-71475890D02*
X33006199Y-71370241D01*
X33006199Y-71370241D02*
X32409324Y-72081568D01*
X31574079Y-72965851D02*
X31720624Y-72902330D01*
X31720624Y-72902330D02*
X31904277Y-72683460D01*
X31904277Y-72683460D02*
X31941387Y-72528112D01*
X31941387Y-72528112D02*
X31877865Y-72381568D01*
X31877865Y-72381568D02*
X31440126Y-72014260D01*
X31440126Y-72014260D02*
X31284777Y-71977151D01*
X31284777Y-71977151D02*
X31138233Y-72040672D01*
X31138233Y-72040672D02*
X30954579Y-72259542D01*
X30954579Y-72259542D02*
X30917470Y-72414891D01*
X30917470Y-72414891D02*
X30980991Y-72561435D01*
X30980991Y-72561435D02*
X31090426Y-72653262D01*
X31090426Y-72653262D02*
X31658995Y-72197914D01*
X29607376Y-73087215D02*
X29791029Y-72868345D01*
X29791029Y-72868345D02*
X29937574Y-72804824D01*
X29937574Y-72804824D02*
X30038205Y-72796020D01*
X30038205Y-72796020D02*
X30294184Y-72824325D01*
X30294184Y-72824325D02*
X30558967Y-72953261D01*
X30558967Y-72953261D02*
X30996707Y-73320568D01*
X30996707Y-73320568D02*
X31060228Y-73467112D01*
X31060228Y-73467112D02*
X31069032Y-73567743D01*
X31069032Y-73567743D02*
X31031923Y-73723092D01*
X31031923Y-73723092D02*
X30848269Y-73941961D01*
X30848269Y-73941961D02*
X30701725Y-74005483D01*
X30701725Y-74005483D02*
X30601094Y-74014287D01*
X30601094Y-74014287D02*
X30445746Y-73977178D01*
X30445746Y-73977178D02*
X30172159Y-73747611D01*
X30172159Y-73747611D02*
X30108637Y-73601066D01*
X30108637Y-73601066D02*
X30099833Y-73500436D01*
X30099833Y-73500436D02*
X30136942Y-73345087D01*
X30136942Y-73345087D02*
X30320596Y-73126217D01*
X30320596Y-73126217D02*
X30467140Y-73062696D01*
X30467140Y-73062696D02*
X30567771Y-73053892D01*
X30567771Y-73053892D02*
X30723119Y-73091001D01*
X29194156Y-73579672D02*
X28597281Y-74290999D01*
X28597281Y-74290999D02*
X29356415Y-74275284D01*
X29356415Y-74275284D02*
X29218675Y-74439436D01*
X29218675Y-74439436D02*
X29181565Y-74594784D01*
X29181565Y-74594784D02*
X29190369Y-74695415D01*
X29190369Y-74695415D02*
X29253891Y-74841960D01*
X29253891Y-74841960D02*
X29527478Y-75071527D01*
X29527478Y-75071527D02*
X29682826Y-75108636D01*
X29682826Y-75108636D02*
X29783457Y-75099832D01*
X29783457Y-75099832D02*
X29930002Y-75036310D01*
X29930002Y-75036310D02*
X30205482Y-74708006D01*
X30205482Y-74708006D02*
X30242591Y-74552657D01*
X30242591Y-74552657D02*
X30233787Y-74452026D01*
X27770840Y-75275913D02*
X27954494Y-75057043D01*
X27954494Y-75057043D02*
X28101038Y-74993521D01*
X28101038Y-74993521D02*
X28201669Y-74984717D01*
X28201669Y-74984717D02*
X28457648Y-75013023D01*
X28457648Y-75013023D02*
X28722432Y-75141959D01*
X28722432Y-75141959D02*
X29160171Y-75509266D01*
X29160171Y-75509266D02*
X29223693Y-75655810D01*
X29223693Y-75655810D02*
X29232497Y-75756441D01*
X29232497Y-75756441D02*
X29195387Y-75911789D01*
X29195387Y-75911789D02*
X29011734Y-76130659D01*
X29011734Y-76130659D02*
X28865190Y-76194181D01*
X28865190Y-76194181D02*
X28764559Y-76202985D01*
X28764559Y-76202985D02*
X28609210Y-76165875D01*
X28609210Y-76165875D02*
X28335623Y-75936308D01*
X28335623Y-75936308D02*
X28272102Y-75789764D01*
X28272102Y-75789764D02*
X28263298Y-75689133D01*
X28263298Y-75689133D02*
X28300407Y-75533785D01*
X28300407Y-75533785D02*
X28484060Y-75314915D01*
X28484060Y-75314915D02*
X28630605Y-75251394D01*
X28630605Y-75251394D02*
X28731236Y-75242590D01*
X28731236Y-75242590D02*
X28886584Y-75279699D01*
X67802069Y-32126823D02*
X67434762Y-32564562D01*
X68430374Y-32933763D02*
X67445459Y-32107321D01*
X67445459Y-32107321D02*
X67290111Y-32070212D01*
X67290111Y-32070212D02*
X67143567Y-32133734D01*
X67143567Y-32133734D02*
X67051740Y-32243168D01*
X66317126Y-33118648D02*
X66500779Y-32899778D01*
X66500779Y-32899778D02*
X66647323Y-32836257D01*
X66647323Y-32836257D02*
X66747954Y-32827452D01*
X66747954Y-32827452D02*
X67003933Y-32855758D01*
X67003933Y-32855758D02*
X67268717Y-32984694D01*
X67268717Y-32984694D02*
X67706456Y-33352001D01*
X67706456Y-33352001D02*
X67769978Y-33498545D01*
X67769978Y-33498545D02*
X67778782Y-33599176D01*
X67778782Y-33599176D02*
X67741673Y-33754525D01*
X67741673Y-33754525D02*
X67558019Y-33973394D01*
X67558019Y-33973394D02*
X67411475Y-34036916D01*
X67411475Y-34036916D02*
X67310844Y-34045720D01*
X67310844Y-34045720D02*
X67155496Y-34008611D01*
X67155496Y-34008611D02*
X66881908Y-33779044D01*
X66881908Y-33779044D02*
X66818387Y-33632499D01*
X66818387Y-33632499D02*
X66809583Y-33531869D01*
X66809583Y-33531869D02*
X66846692Y-33376520D01*
X66846692Y-33376520D02*
X67030346Y-33157650D01*
X67030346Y-33157650D02*
X67176890Y-33094129D01*
X67176890Y-33094129D02*
X67277521Y-33085325D01*
X67277521Y-33085325D02*
X67432869Y-33122434D01*
X66547924Y-35177178D02*
X65398858Y-34212997D01*
X66493207Y-35131265D02*
X66639751Y-35067743D01*
X66639751Y-35067743D02*
X66823405Y-34848873D01*
X66823405Y-34848873D02*
X66860514Y-34693525D01*
X66860514Y-34693525D02*
X66851710Y-34592894D01*
X66851710Y-34592894D02*
X66788189Y-34446350D01*
X66788189Y-34446350D02*
X66459884Y-34170870D01*
X66459884Y-34170870D02*
X66304536Y-34133760D01*
X66304536Y-34133760D02*
X66203905Y-34142564D01*
X66203905Y-34142564D02*
X66057360Y-34206086D01*
X66057360Y-34206086D02*
X65873707Y-34424956D01*
X65873707Y-34424956D02*
X65836597Y-34580304D01*
X65095072Y-34797281D02*
X64994441Y-34806085D01*
X64994441Y-34806085D02*
X64847897Y-34869606D01*
X64847897Y-34869606D02*
X64618330Y-35143194D01*
X64618330Y-35143194D02*
X64581221Y-35298542D01*
X64581221Y-35298542D02*
X64590025Y-35399173D01*
X64590025Y-35399173D02*
X64653546Y-35545717D01*
X64653546Y-35545717D02*
X64762981Y-35637544D01*
X64762981Y-35637544D02*
X64973047Y-35720567D01*
X64973047Y-35720567D02*
X66180617Y-35614918D01*
X66180617Y-35614918D02*
X65583743Y-36326245D01*
X64542218Y-36011762D02*
X64174911Y-36449501D01*
X65170523Y-36818702D02*
X64185608Y-35992261D01*
X64185608Y-35992261D02*
X64030260Y-35955151D01*
X64030260Y-35955151D02*
X63883716Y-36018673D01*
X63883716Y-36018673D02*
X63791889Y-36128108D01*
X63562322Y-36401695D02*
X62919534Y-37167740D01*
X62919534Y-37167740D02*
X64481822Y-37639464D01*
X62644054Y-37496044D02*
X62001267Y-38262088D01*
X62001267Y-38262088D02*
X63563554Y-38733813D01*
X61220739Y-39192285D02*
X61404393Y-38973415D01*
X61404393Y-38973415D02*
X61550937Y-38909894D01*
X61550937Y-38909894D02*
X61651568Y-38901089D01*
X61651568Y-38901089D02*
X61907547Y-38929395D01*
X61907547Y-38929395D02*
X62172330Y-39058331D01*
X62172330Y-39058331D02*
X62610070Y-39425638D01*
X62610070Y-39425638D02*
X62673591Y-39572182D01*
X62673591Y-39572182D02*
X62682395Y-39672813D01*
X62682395Y-39672813D02*
X62645286Y-39828162D01*
X62645286Y-39828162D02*
X62461632Y-40047031D01*
X62461632Y-40047031D02*
X62315088Y-40110553D01*
X62315088Y-40110553D02*
X62214457Y-40119357D01*
X62214457Y-40119357D02*
X62059109Y-40082248D01*
X62059109Y-40082248D02*
X61785522Y-39852681D01*
X61785522Y-39852681D02*
X61722000Y-39706136D01*
X61722000Y-39706136D02*
X61713196Y-39605506D01*
X61713196Y-39605506D02*
X61750305Y-39450157D01*
X61750305Y-39450157D02*
X61933959Y-39231287D01*
X61933959Y-39231287D02*
X62080503Y-39167766D01*
X62080503Y-39167766D02*
X62181134Y-39158962D01*
X62181134Y-39158962D02*
X62336483Y-39196071D01*
X61359711Y-41360250D02*
X61910672Y-40703641D01*
X61635192Y-41031945D02*
X60486125Y-40067764D01*
X60486125Y-40067764D02*
X60742104Y-40096069D01*
X60742104Y-40096069D02*
X60943366Y-40078461D01*
X60943366Y-40078461D02*
X61089910Y-40014940D01*
X59889251Y-40779091D02*
X59246463Y-41545135D01*
X59246463Y-41545135D02*
X60808751Y-42016859D01*
X58848958Y-42796725D02*
X59615002Y-43439513D01*
X58640785Y-42155831D02*
X59691114Y-42570945D01*
X59691114Y-42570945D02*
X59094240Y-43282272D01*
X57547668Y-43569680D02*
X57731322Y-43350811D01*
X57731322Y-43350811D02*
X57877866Y-43287289D01*
X57877866Y-43287289D02*
X57978497Y-43278485D01*
X57978497Y-43278485D02*
X58234476Y-43306790D01*
X58234476Y-43306790D02*
X58499259Y-43435726D01*
X58499259Y-43435726D02*
X58936999Y-43803034D01*
X58936999Y-43803034D02*
X59000520Y-43949578D01*
X59000520Y-43949578D02*
X59009324Y-44050209D01*
X59009324Y-44050209D02*
X58972215Y-44205557D01*
X58972215Y-44205557D02*
X58788561Y-44424427D01*
X58788561Y-44424427D02*
X58642017Y-44487948D01*
X58642017Y-44487948D02*
X58541386Y-44496752D01*
X58541386Y-44496752D02*
X58386038Y-44459643D01*
X58386038Y-44459643D02*
X58112451Y-44230076D01*
X58112451Y-44230076D02*
X58048929Y-44083532D01*
X58048929Y-44083532D02*
X58040125Y-43982901D01*
X58040125Y-43982901D02*
X58077235Y-43827553D01*
X58077235Y-43827553D02*
X58260888Y-43608683D01*
X58260888Y-43608683D02*
X58407432Y-43545161D01*
X58407432Y-43545161D02*
X58508063Y-43536357D01*
X58508063Y-43536357D02*
X58663412Y-43573467D01*
X57134448Y-44062137D02*
X56537573Y-44773464D01*
X56537573Y-44773464D02*
X57296707Y-44757749D01*
X57296707Y-44757749D02*
X57158967Y-44921902D01*
X57158967Y-44921902D02*
X57121857Y-45077250D01*
X57121857Y-45077250D02*
X57130661Y-45177881D01*
X57130661Y-45177881D02*
X57194183Y-45324425D01*
X57194183Y-45324425D02*
X57467770Y-45553992D01*
X57467770Y-45553992D02*
X57623119Y-45591101D01*
X57623119Y-45591101D02*
X57723749Y-45582297D01*
X57723749Y-45582297D02*
X57870294Y-45518776D01*
X57870294Y-45518776D02*
X58145774Y-45190471D01*
X58145774Y-45190471D02*
X58182883Y-45035123D01*
X58182883Y-45035123D02*
X58174079Y-44934492D01*
X55711133Y-45758378D02*
X55894786Y-45539508D01*
X55894786Y-45539508D02*
X56041330Y-45475987D01*
X56041330Y-45475987D02*
X56141961Y-45467183D01*
X56141961Y-45467183D02*
X56397940Y-45495488D01*
X56397940Y-45495488D02*
X56662724Y-45624424D01*
X56662724Y-45624424D02*
X57100463Y-45991731D01*
X57100463Y-45991731D02*
X57163985Y-46138276D01*
X57163985Y-46138276D02*
X57172789Y-46238906D01*
X57172789Y-46238906D02*
X57135680Y-46394255D01*
X57135680Y-46394255D02*
X56952026Y-46613125D01*
X56952026Y-46613125D02*
X56805482Y-46676646D01*
X56805482Y-46676646D02*
X56704851Y-46685450D01*
X56704851Y-46685450D02*
X56549503Y-46648341D01*
X56549503Y-46648341D02*
X56275915Y-46418774D01*
X56275915Y-46418774D02*
X56212394Y-46272230D01*
X56212394Y-46272230D02*
X56203590Y-46171599D01*
X56203590Y-46171599D02*
X56240699Y-46016250D01*
X56240699Y-46016250D02*
X56424353Y-45797381D01*
X56424353Y-45797381D02*
X56570897Y-45733859D01*
X56570897Y-45733859D02*
X56671528Y-45725055D01*
X56671528Y-45725055D02*
X56826876Y-45762164D01*
X55560802Y-46937643D02*
X55597912Y-46782295D01*
X55597912Y-46782295D02*
X55589108Y-46681664D01*
X55589108Y-46681664D02*
X55525586Y-46535119D01*
X55525586Y-46535119D02*
X55470869Y-46489206D01*
X55470869Y-46489206D02*
X55315520Y-46452097D01*
X55315520Y-46452097D02*
X55214889Y-46460901D01*
X55214889Y-46460901D02*
X55068345Y-46524422D01*
X55068345Y-46524422D02*
X54884692Y-46743292D01*
X54884692Y-46743292D02*
X54847582Y-46898640D01*
X54847582Y-46898640D02*
X54856386Y-46999271D01*
X54856386Y-46999271D02*
X54919908Y-47145816D01*
X54919908Y-47145816D02*
X54974625Y-47191729D01*
X54974625Y-47191729D02*
X55129974Y-47228838D01*
X55129974Y-47228838D02*
X55230604Y-47220034D01*
X55230604Y-47220034D02*
X55377149Y-47156513D01*
X55377149Y-47156513D02*
X55560802Y-46937643D01*
X55560802Y-46937643D02*
X55707347Y-46874121D01*
X55707347Y-46874121D02*
X55807977Y-46865317D01*
X55807977Y-46865317D02*
X55963326Y-46902427D01*
X55963326Y-46902427D02*
X56182196Y-47086080D01*
X56182196Y-47086080D02*
X56245717Y-47232625D01*
X56245717Y-47232625D02*
X56254521Y-47333255D01*
X56254521Y-47333255D02*
X56217412Y-47488604D01*
X56217412Y-47488604D02*
X56033758Y-47707474D01*
X56033758Y-47707474D02*
X55887214Y-47770995D01*
X55887214Y-47770995D02*
X55786583Y-47779799D01*
X55786583Y-47779799D02*
X55631235Y-47742690D01*
X55631235Y-47742690D02*
X55412365Y-47559036D01*
X55412365Y-47559036D02*
X55348843Y-47412492D01*
X55348843Y-47412492D02*
X55340039Y-47311861D01*
X55340039Y-47311861D02*
X55377149Y-47156513D01*
X54379644Y-47345184D02*
X53782770Y-48056511D01*
X53782770Y-48056511D02*
X54541904Y-48040796D01*
X54541904Y-48040796D02*
X54404164Y-48204948D01*
X54404164Y-48204948D02*
X54367054Y-48360297D01*
X54367054Y-48360297D02*
X54375858Y-48460927D01*
X54375858Y-48460927D02*
X54439380Y-48607472D01*
X54439380Y-48607472D02*
X54712967Y-48837039D01*
X54712967Y-48837039D02*
X54868315Y-48874148D01*
X54868315Y-48874148D02*
X54968946Y-48865344D01*
X54968946Y-48865344D02*
X55115491Y-48801822D01*
X55115491Y-48801822D02*
X55390971Y-48473518D01*
X55390971Y-48473518D02*
X55428080Y-48318169D01*
X55428080Y-48318169D02*
X55419276Y-48217538D01*
X53890312Y-48706209D02*
X53523005Y-49143949D01*
X54518617Y-49513149D02*
X53533702Y-48686708D01*
X53533702Y-48686708D02*
X53378354Y-48649599D01*
X53378354Y-48649599D02*
X53231810Y-48713120D01*
X53231810Y-48713120D02*
X53139983Y-48822555D01*
X52910416Y-49096142D02*
X52267628Y-49862187D01*
X52267628Y-49862187D02*
X53829915Y-50333911D01*
X51487101Y-50792383D02*
X51670754Y-50573513D01*
X51670754Y-50573513D02*
X51817299Y-50509992D01*
X51817299Y-50509992D02*
X51917929Y-50501188D01*
X51917929Y-50501188D02*
X52173909Y-50529493D01*
X52173909Y-50529493D02*
X52438692Y-50658429D01*
X52438692Y-50658429D02*
X52876432Y-51025737D01*
X52876432Y-51025737D02*
X52939953Y-51172281D01*
X52939953Y-51172281D02*
X52948757Y-51272912D01*
X52948757Y-51272912D02*
X52911648Y-51428260D01*
X52911648Y-51428260D02*
X52727994Y-51647130D01*
X52727994Y-51647130D02*
X52581450Y-51710651D01*
X52581450Y-51710651D02*
X52480819Y-51719455D01*
X52480819Y-51719455D02*
X52325471Y-51682346D01*
X52325471Y-51682346D02*
X52051883Y-51452779D01*
X52051883Y-51452779D02*
X51988362Y-51306235D01*
X51988362Y-51306235D02*
X51979558Y-51205604D01*
X51979558Y-51205604D02*
X52016667Y-51050256D01*
X52016667Y-51050256D02*
X52200321Y-50831386D01*
X52200321Y-50831386D02*
X52346865Y-50767864D01*
X52346865Y-50767864D02*
X52447496Y-50759060D01*
X52447496Y-50759060D02*
X52602844Y-50796170D01*
X51073880Y-51284840D02*
X50477006Y-51996167D01*
X50477006Y-51996167D02*
X51236140Y-51980452D01*
X51236140Y-51980452D02*
X51098399Y-52144604D01*
X51098399Y-52144604D02*
X51061290Y-52299953D01*
X51061290Y-52299953D02*
X51070094Y-52400584D01*
X51070094Y-52400584D02*
X51133616Y-52547128D01*
X51133616Y-52547128D02*
X51407203Y-52776695D01*
X51407203Y-52776695D02*
X51562551Y-52813804D01*
X51562551Y-52813804D02*
X51663182Y-52805000D01*
X51663182Y-52805000D02*
X51809726Y-52741479D01*
X51809726Y-52741479D02*
X52085207Y-52413174D01*
X52085207Y-52413174D02*
X52122316Y-52257826D01*
X52122316Y-52257826D02*
X52113512Y-52157195D01*
X50799632Y-53945262D02*
X49650565Y-52981081D01*
X50744914Y-53899349D02*
X50891459Y-53835828D01*
X50891459Y-53835828D02*
X51075112Y-53616958D01*
X51075112Y-53616958D02*
X51112222Y-53461609D01*
X51112222Y-53461609D02*
X51103418Y-53360979D01*
X51103418Y-53360979D02*
X51039896Y-53214434D01*
X51039896Y-53214434D02*
X50711591Y-52938954D01*
X50711591Y-52938954D02*
X50556243Y-52901845D01*
X50556243Y-52901845D02*
X50455612Y-52910649D01*
X50455612Y-52910649D02*
X50309068Y-52974170D01*
X50309068Y-52974170D02*
X50125414Y-53193040D01*
X50125414Y-53193040D02*
X50088305Y-53348388D01*
X48778211Y-54020713D02*
X48961864Y-53801843D01*
X48961864Y-53801843D02*
X49108408Y-53738322D01*
X49108408Y-53738322D02*
X49209039Y-53729517D01*
X49209039Y-53729517D02*
X49465018Y-53757823D01*
X49465018Y-53757823D02*
X49729802Y-53886759D01*
X49729802Y-53886759D02*
X50167541Y-54254066D01*
X50167541Y-54254066D02*
X50231063Y-54400610D01*
X50231063Y-54400610D02*
X50239867Y-54501241D01*
X50239867Y-54501241D02*
X50202758Y-54656590D01*
X50202758Y-54656590D02*
X50019104Y-54875459D01*
X50019104Y-54875459D02*
X49872560Y-54938981D01*
X49872560Y-54938981D02*
X49771929Y-54947785D01*
X49771929Y-54947785D02*
X49616581Y-54910676D01*
X49616581Y-54910676D02*
X49342993Y-54681109D01*
X49342993Y-54681109D02*
X49279472Y-54534564D01*
X49279472Y-54534564D02*
X49270668Y-54433934D01*
X49270668Y-54433934D02*
X49307777Y-54278585D01*
X49307777Y-54278585D02*
X49491431Y-54059715D01*
X49491431Y-54059715D02*
X49637975Y-53996194D01*
X49637975Y-53996194D02*
X49738606Y-53987390D01*
X49738606Y-53987390D02*
X49893954Y-54024499D01*
X48242965Y-55436456D02*
X49009009Y-56079243D01*
X48034792Y-54795561D02*
X49085121Y-55210675D01*
X49085121Y-55210675D02*
X48488247Y-55922002D01*
X46895762Y-56264128D02*
X47354896Y-55716954D01*
X47354896Y-55716954D02*
X47947984Y-56121370D01*
X47947984Y-56121370D02*
X47847353Y-56130174D01*
X47847353Y-56130174D02*
X47700809Y-56193696D01*
X47700809Y-56193696D02*
X47471242Y-56467283D01*
X47471242Y-56467283D02*
X47434132Y-56622631D01*
X47434132Y-56622631D02*
X47442936Y-56723262D01*
X47442936Y-56723262D02*
X47506458Y-56869806D01*
X47506458Y-56869806D02*
X47780045Y-57099373D01*
X47780045Y-57099373D02*
X47935393Y-57136483D01*
X47935393Y-57136483D02*
X48036024Y-57127679D01*
X48036024Y-57127679D02*
X48182568Y-57064157D01*
X48182568Y-57064157D02*
X48412136Y-56790570D01*
X48412136Y-56790570D02*
X48449245Y-56635222D01*
X48449245Y-56635222D02*
X48440441Y-56534591D01*
X47080647Y-58377376D02*
X47631608Y-57720766D01*
X47356128Y-58049071D02*
X46207061Y-57084890D01*
X46207061Y-57084890D02*
X46463040Y-57113195D01*
X46463040Y-57113195D02*
X46664302Y-57095587D01*
X46664302Y-57095587D02*
X46810846Y-57032065D01*
X45610187Y-57796216D02*
X44967399Y-58562261D01*
X44967399Y-58562261D02*
X46529687Y-59033985D01*
X44691919Y-58890565D02*
X44049132Y-59656610D01*
X44049132Y-59656610D02*
X45611419Y-60128334D01*
X43773651Y-59984914D02*
X43176777Y-60696241D01*
X43176777Y-60696241D02*
X43935911Y-60680526D01*
X43935911Y-60680526D02*
X43798171Y-60844678D01*
X43798171Y-60844678D02*
X43761061Y-61000027D01*
X43761061Y-61000027D02*
X43769865Y-61100658D01*
X43769865Y-61100658D02*
X43833387Y-61247202D01*
X43833387Y-61247202D02*
X44106974Y-61476769D01*
X44106974Y-61476769D02*
X44262322Y-61513878D01*
X44262322Y-61513878D02*
X44362953Y-61505074D01*
X44362953Y-61505074D02*
X44509498Y-61441553D01*
X44509498Y-61441553D02*
X44784978Y-61113248D01*
X44784978Y-61113248D02*
X44822087Y-60957900D01*
X44822087Y-60957900D02*
X44813283Y-60857269D01*
X42733359Y-62002549D02*
X43499403Y-62645336D01*
X42525186Y-61361654D02*
X43575515Y-61776768D01*
X43575515Y-61776768D02*
X42978641Y-62488095D01*
X41937116Y-62173612D02*
X41294328Y-62939656D01*
X41294328Y-62939656D02*
X42856616Y-63411381D01*
X41018848Y-63267961D02*
X40376061Y-64034005D01*
X40376061Y-64034005D02*
X41938348Y-64505729D01*
X40100581Y-64362310D02*
X39503706Y-65073637D01*
X39503706Y-65073637D02*
X40262840Y-65057922D01*
X40262840Y-65057922D02*
X40125100Y-65222074D01*
X40125100Y-65222074D02*
X40087990Y-65377422D01*
X40087990Y-65377422D02*
X40096794Y-65478053D01*
X40096794Y-65478053D02*
X40160316Y-65624597D01*
X40160316Y-65624597D02*
X40433903Y-65854164D01*
X40433903Y-65854164D02*
X40589251Y-65891274D01*
X40589251Y-65891274D02*
X40689882Y-65882470D01*
X40689882Y-65882470D02*
X40836427Y-65818948D01*
X40836427Y-65818948D02*
X41111907Y-65490643D01*
X41111907Y-65490643D02*
X41149016Y-65335295D01*
X41149016Y-65335295D02*
X41140212Y-65234664D01*
X40193639Y-66584992D02*
X40009986Y-66803862D01*
X40009986Y-66803862D02*
X39863441Y-66867384D01*
X39863441Y-66867384D02*
X39762811Y-66876188D01*
X39762811Y-66876188D02*
X39506831Y-66847882D01*
X39506831Y-66847882D02*
X39242048Y-66718946D01*
X39242048Y-66718946D02*
X38804308Y-66351639D01*
X38804308Y-66351639D02*
X38740787Y-66205095D01*
X38740787Y-66205095D02*
X38731983Y-66104464D01*
X38731983Y-66104464D02*
X38769092Y-65949116D01*
X38769092Y-65949116D02*
X38952746Y-65730246D01*
X38952746Y-65730246D02*
X39099290Y-65666724D01*
X39099290Y-65666724D02*
X39199921Y-65657920D01*
X39199921Y-65657920D02*
X39355269Y-65695030D01*
X39355269Y-65695030D02*
X39628857Y-65924597D01*
X39628857Y-65924597D02*
X39692378Y-66071141D01*
X39692378Y-66071141D02*
X39701182Y-66171772D01*
X39701182Y-66171772D02*
X39664073Y-66327120D01*
X39664073Y-66327120D02*
X39480419Y-66545990D01*
X39480419Y-66545990D02*
X39333875Y-66609511D01*
X39333875Y-66609511D02*
X39233244Y-66618315D01*
X39233244Y-66618315D02*
X39077896Y-66581206D01*
X37713084Y-67207617D02*
X38172218Y-66660442D01*
X38172218Y-66660442D02*
X38765306Y-67064859D01*
X38765306Y-67064859D02*
X38664675Y-67073663D01*
X38664675Y-67073663D02*
X38518131Y-67137184D01*
X38518131Y-67137184D02*
X38288564Y-67410772D01*
X38288564Y-67410772D02*
X38251455Y-67566120D01*
X38251455Y-67566120D02*
X38260259Y-67666751D01*
X38260259Y-67666751D02*
X38323780Y-67813295D01*
X38323780Y-67813295D02*
X38597368Y-68042862D01*
X38597368Y-68042862D02*
X38752716Y-68079971D01*
X38752716Y-68079971D02*
X38853347Y-68071167D01*
X38853347Y-68071167D02*
X38999891Y-68007646D01*
X38999891Y-68007646D02*
X39229458Y-67734059D01*
X39229458Y-67734059D02*
X39266567Y-67578710D01*
X39266567Y-67578710D02*
X39257763Y-67478079D01*
X37345777Y-67645356D02*
X36702990Y-68411401D01*
X36702990Y-68411401D02*
X38265277Y-68883125D01*
X35922462Y-69341597D02*
X36106116Y-69122727D01*
X36106116Y-69122727D02*
X36252660Y-69059206D01*
X36252660Y-69059206D02*
X36353291Y-69050402D01*
X36353291Y-69050402D02*
X36609270Y-69078707D01*
X36609270Y-69078707D02*
X36874053Y-69207643D01*
X36874053Y-69207643D02*
X37311793Y-69574950D01*
X37311793Y-69574950D02*
X37375315Y-69721495D01*
X37375315Y-69721495D02*
X37384119Y-69822126D01*
X37384119Y-69822126D02*
X37347009Y-69977474D01*
X37347009Y-69977474D02*
X37163356Y-70196344D01*
X37163356Y-70196344D02*
X37016811Y-70259865D01*
X37016811Y-70259865D02*
X36916181Y-70268669D01*
X36916181Y-70268669D02*
X36760832Y-70231560D01*
X36760832Y-70231560D02*
X36487245Y-70001993D01*
X36487245Y-70001993D02*
X36423723Y-69855449D01*
X36423723Y-69855449D02*
X36414919Y-69754818D01*
X36414919Y-69754818D02*
X36452029Y-69599469D01*
X36452029Y-69599469D02*
X36635682Y-69380600D01*
X36635682Y-69380600D02*
X36782227Y-69317078D01*
X36782227Y-69317078D02*
X36882857Y-69308274D01*
X36882857Y-69308274D02*
X37038206Y-69345383D01*
X35509242Y-69834054D02*
X34866454Y-70600098D01*
X34866454Y-70600098D02*
X36428742Y-71071823D01*
X34040013Y-71585012D02*
X34499147Y-71037838D01*
X34499147Y-71037838D02*
X35092235Y-71442254D01*
X35092235Y-71442254D02*
X34991604Y-71451058D01*
X34991604Y-71451058D02*
X34845060Y-71514580D01*
X34845060Y-71514580D02*
X34615493Y-71788167D01*
X34615493Y-71788167D02*
X34578384Y-71943516D01*
X34578384Y-71943516D02*
X34587188Y-72044146D01*
X34587188Y-72044146D02*
X34650709Y-72190691D01*
X34650709Y-72190691D02*
X34924297Y-72420258D01*
X34924297Y-72420258D02*
X35079645Y-72457367D01*
X35079645Y-72457367D02*
X35180276Y-72448563D01*
X35180276Y-72448563D02*
X35326820Y-72385041D01*
X35326820Y-72385041D02*
X35556387Y-72111454D01*
X35556387Y-72111454D02*
X35593497Y-71956106D01*
X35593497Y-71956106D02*
X35584692Y-71855475D01*
X33935597Y-72709560D02*
X33972706Y-72554211D01*
X33972706Y-72554211D02*
X33963902Y-72453580D01*
X33963902Y-72453580D02*
X33900380Y-72307036D01*
X33900380Y-72307036D02*
X33845663Y-72261123D01*
X33845663Y-72261123D02*
X33690314Y-72224013D01*
X33690314Y-72224013D02*
X33589684Y-72232818D01*
X33589684Y-72232818D02*
X33443139Y-72296339D01*
X33443139Y-72296339D02*
X33259486Y-72515209D01*
X33259486Y-72515209D02*
X33222376Y-72670557D01*
X33222376Y-72670557D02*
X33231180Y-72771188D01*
X33231180Y-72771188D02*
X33294702Y-72917732D01*
X33294702Y-72917732D02*
X33349419Y-72963646D01*
X33349419Y-72963646D02*
X33504768Y-73000755D01*
X33504768Y-73000755D02*
X33605399Y-72991951D01*
X33605399Y-72991951D02*
X33751943Y-72928429D01*
X33751943Y-72928429D02*
X33935597Y-72709560D01*
X33935597Y-72709560D02*
X34082141Y-72646038D01*
X34082141Y-72646038D02*
X34182772Y-72637234D01*
X34182772Y-72637234D02*
X34338120Y-72674343D01*
X34338120Y-72674343D02*
X34556990Y-72857997D01*
X34556990Y-72857997D02*
X34620511Y-73004541D01*
X34620511Y-73004541D02*
X34629315Y-73105172D01*
X34629315Y-73105172D02*
X34592206Y-73260520D01*
X34592206Y-73260520D02*
X34408552Y-73479390D01*
X34408552Y-73479390D02*
X34262008Y-73542912D01*
X34262008Y-73542912D02*
X34161377Y-73551716D01*
X34161377Y-73551716D02*
X34006029Y-73514607D01*
X34006029Y-73514607D02*
X33787159Y-73330953D01*
X33787159Y-73330953D02*
X33723638Y-73184409D01*
X33723638Y-73184409D02*
X33714834Y-73083778D01*
X33714834Y-73083778D02*
X33751943Y-72928429D01*
X32249391Y-73718993D02*
X32433045Y-73500123D01*
X32433045Y-73500123D02*
X32579589Y-73436601D01*
X32579589Y-73436601D02*
X32680220Y-73427797D01*
X32680220Y-73427797D02*
X32936199Y-73456103D01*
X32936199Y-73456103D02*
X33200982Y-73585039D01*
X33200982Y-73585039D02*
X33638722Y-73952346D01*
X33638722Y-73952346D02*
X33702244Y-74098890D01*
X33702244Y-74098890D02*
X33711048Y-74199521D01*
X33711048Y-74199521D02*
X33673938Y-74354869D01*
X33673938Y-74354869D02*
X33490285Y-74573739D01*
X33490285Y-74573739D02*
X33343740Y-74637261D01*
X33343740Y-74637261D02*
X33243110Y-74646065D01*
X33243110Y-74646065D02*
X33087761Y-74608955D01*
X33087761Y-74608955D02*
X32814174Y-74379388D01*
X32814174Y-74379388D02*
X32750652Y-74232844D01*
X32750652Y-74232844D02*
X32741848Y-74132213D01*
X32741848Y-74132213D02*
X32778958Y-73976865D01*
X32778958Y-73976865D02*
X32962611Y-73757995D01*
X32962611Y-73757995D02*
X33109156Y-73694474D01*
X33109156Y-73694474D02*
X33209786Y-73685670D01*
X33209786Y-73685670D02*
X33365135Y-73722779D01*
X31836171Y-74211449D02*
X31239297Y-74922776D01*
X31239297Y-74922776D02*
X31998430Y-74907061D01*
X31998430Y-74907061D02*
X31860690Y-75071214D01*
X31860690Y-75071214D02*
X31823581Y-75226562D01*
X31823581Y-75226562D02*
X31832385Y-75327193D01*
X31832385Y-75327193D02*
X31895906Y-75473737D01*
X31895906Y-75473737D02*
X32169494Y-75703304D01*
X32169494Y-75703304D02*
X32324842Y-75740414D01*
X32324842Y-75740414D02*
X32425473Y-75731610D01*
X32425473Y-75731610D02*
X32572017Y-75668088D01*
X32572017Y-75668088D02*
X32847497Y-75339783D01*
X32847497Y-75339783D02*
X32884607Y-75184435D01*
X32884607Y-75184435D02*
X32875803Y-75083804D01*
X30366942Y-75962408D02*
X30826076Y-75415233D01*
X30826076Y-75415233D02*
X31419164Y-75819650D01*
X31419164Y-75819650D02*
X31318533Y-75828454D01*
X31318533Y-75828454D02*
X31171989Y-75891975D01*
X31171989Y-75891975D02*
X30942422Y-76165563D01*
X30942422Y-76165563D02*
X30905313Y-76320911D01*
X30905313Y-76320911D02*
X30914117Y-76421542D01*
X30914117Y-76421542D02*
X30977638Y-76568086D01*
X30977638Y-76568086D02*
X31251226Y-76797653D01*
X31251226Y-76797653D02*
X31406574Y-76834763D01*
X31406574Y-76834763D02*
X31507205Y-76825958D01*
X31507205Y-76825958D02*
X31653749Y-76762437D01*
X31653749Y-76762437D02*
X31883316Y-76488850D01*
X31883316Y-76488850D02*
X31920426Y-76333501D01*
X31920426Y-76333501D02*
X31911621Y-76232870D01*
X30551828Y-78075656D02*
X31102789Y-77419046D01*
X30827308Y-77747351D02*
X29678242Y-76783169D01*
X29678242Y-76783169D02*
X29934221Y-76811475D01*
X29934221Y-76811475D02*
X30135483Y-76793867D01*
X30135483Y-76793867D02*
X30282027Y-76730345D01*
M02*
